G04 #@! TF.GenerationSoftware,KiCad,Pcbnew,5.0.2+dfsg1-1*
G04 #@! TF.CreationDate,2021-07-01T00:09:32-05:00*
G04 #@! TF.ProjectId,dcpsu-card-ahalf,64637073-752d-4636-9172-642d6168616c,v0.4*
G04 #@! TF.SameCoordinates,Original*
G04 #@! TF.FileFunction,Soldermask,Bot*
G04 #@! TF.FilePolarity,Negative*
%FSLAX46Y46*%
G04 Gerber Fmt 4.6, Leading zero omitted, Abs format (unit mm)*
G04 Created by KiCad (PCBNEW 5.0.2+dfsg1-1) date Thu 01 Jul 2021 12:09:32 AM CDT*
%MOMM*%
%LPD*%
G01*
G04 APERTURE LIST*
%ADD10C,0.100000*%
G04 APERTURE END LIST*
D10*
G36*
X155466703Y-123461486D02*
X155757883Y-123582097D01*
X156019944Y-123757201D01*
X156242799Y-123980056D01*
X156417903Y-124242117D01*
X156538514Y-124533297D01*
X156600000Y-124842412D01*
X156600000Y-125157588D01*
X156538514Y-125466703D01*
X156417903Y-125757883D01*
X156242799Y-126019944D01*
X156019944Y-126242799D01*
X155757883Y-126417903D01*
X155466703Y-126538514D01*
X155157588Y-126600000D01*
X154842412Y-126600000D01*
X154533297Y-126538514D01*
X154242117Y-126417903D01*
X153980056Y-126242799D01*
X153757201Y-126019944D01*
X153582097Y-125757883D01*
X153461486Y-125466703D01*
X153400000Y-125157588D01*
X153400000Y-124842412D01*
X153461486Y-124533297D01*
X153582097Y-124242117D01*
X153757201Y-123980056D01*
X153980056Y-123757201D01*
X154242117Y-123582097D01*
X154533297Y-123461486D01*
X154842412Y-123400000D01*
X155157588Y-123400000D01*
X155466703Y-123461486D01*
X155466703Y-123461486D01*
G37*
G36*
X156927934Y-106682664D02*
X157082627Y-106746740D01*
X157221847Y-106839764D01*
X157340236Y-106958153D01*
X157433260Y-107097373D01*
X157497336Y-107252066D01*
X157530000Y-107416281D01*
X157530000Y-107583719D01*
X157497336Y-107747934D01*
X157433260Y-107902627D01*
X157340236Y-108041847D01*
X157221847Y-108160236D01*
X157082627Y-108253260D01*
X156927934Y-108317336D01*
X156763719Y-108350000D01*
X156596281Y-108350000D01*
X156432066Y-108317336D01*
X156277373Y-108253260D01*
X156138153Y-108160236D01*
X156019764Y-108041847D01*
X155926740Y-107902627D01*
X155862664Y-107747934D01*
X155830000Y-107583719D01*
X155830000Y-107416281D01*
X155862664Y-107252066D01*
X155926740Y-107097373D01*
X156019764Y-106958153D01*
X156138153Y-106839764D01*
X156277373Y-106746740D01*
X156432066Y-106682664D01*
X156596281Y-106650000D01*
X156763719Y-106650000D01*
X156927934Y-106682664D01*
X156927934Y-106682664D01*
G37*
G36*
X149916630Y-106662299D02*
X150076855Y-106710903D01*
X150224520Y-106789831D01*
X150353949Y-106896051D01*
X150460169Y-107025480D01*
X150539097Y-107173145D01*
X150587701Y-107333370D01*
X150604112Y-107500000D01*
X150587701Y-107666630D01*
X150539097Y-107826855D01*
X150460169Y-107974520D01*
X150353949Y-108103949D01*
X150224520Y-108210169D01*
X150076855Y-108289097D01*
X149916630Y-108337701D01*
X149791752Y-108350000D01*
X149208248Y-108350000D01*
X149083370Y-108337701D01*
X148923145Y-108289097D01*
X148775480Y-108210169D01*
X148646051Y-108103949D01*
X148539831Y-107974520D01*
X148460903Y-107826855D01*
X148412299Y-107666630D01*
X148395888Y-107500000D01*
X148412299Y-107333370D01*
X148460903Y-107173145D01*
X148539831Y-107025480D01*
X148646051Y-106896051D01*
X148775480Y-106789831D01*
X148923145Y-106710903D01*
X149083370Y-106662299D01*
X149208248Y-106650000D01*
X149791752Y-106650000D01*
X149916630Y-106662299D01*
X149916630Y-106662299D01*
G37*
G36*
X156927934Y-104182664D02*
X157082627Y-104246740D01*
X157221847Y-104339764D01*
X157340236Y-104458153D01*
X157433260Y-104597373D01*
X157497336Y-104752066D01*
X157530000Y-104916281D01*
X157530000Y-105083719D01*
X157497336Y-105247934D01*
X157433260Y-105402627D01*
X157340236Y-105541847D01*
X157221847Y-105660236D01*
X157082627Y-105753260D01*
X156927934Y-105817336D01*
X156763719Y-105850000D01*
X156596281Y-105850000D01*
X156432066Y-105817336D01*
X156277373Y-105753260D01*
X156138153Y-105660236D01*
X156019764Y-105541847D01*
X155926740Y-105402627D01*
X155862664Y-105247934D01*
X155830000Y-105083719D01*
X155830000Y-104916281D01*
X155862664Y-104752066D01*
X155926740Y-104597373D01*
X156019764Y-104458153D01*
X156138153Y-104339764D01*
X156277373Y-104246740D01*
X156432066Y-104182664D01*
X156596281Y-104150000D01*
X156763719Y-104150000D01*
X156927934Y-104182664D01*
X156927934Y-104182664D01*
G37*
G36*
X150469675Y-104153701D02*
X150499907Y-104162872D01*
X150527769Y-104177765D01*
X150552192Y-104197808D01*
X150572235Y-104222231D01*
X150587128Y-104250093D01*
X150596299Y-104280325D01*
X150600000Y-104317905D01*
X150600000Y-105682095D01*
X150596299Y-105719675D01*
X150587128Y-105749907D01*
X150572235Y-105777769D01*
X150552192Y-105802192D01*
X150527769Y-105822235D01*
X150499907Y-105837128D01*
X150469675Y-105846299D01*
X150432095Y-105850000D01*
X148567905Y-105850000D01*
X148530325Y-105846299D01*
X148500093Y-105837128D01*
X148472231Y-105822235D01*
X148447808Y-105802192D01*
X148427765Y-105777769D01*
X148412872Y-105749907D01*
X148403701Y-105719675D01*
X148400000Y-105682095D01*
X148400000Y-104317905D01*
X148403701Y-104280325D01*
X148412872Y-104250093D01*
X148427765Y-104222231D01*
X148447808Y-104197808D01*
X148472231Y-104177765D01*
X148500093Y-104162872D01*
X148530325Y-104153701D01*
X148567905Y-104150000D01*
X150432095Y-104150000D01*
X150469675Y-104153701D01*
X150469675Y-104153701D01*
G37*
G36*
X85600000Y-103625000D02*
X80935060Y-103625000D01*
X80922835Y-103618466D01*
X80910672Y-103614777D01*
X80846059Y-103588014D01*
X80846058Y-103588013D01*
X80846055Y-103588012D01*
X80792824Y-103552444D01*
X80747556Y-103507176D01*
X80711988Y-103453945D01*
X80687489Y-103394799D01*
X80675000Y-103332010D01*
X80675000Y-103267990D01*
X80687489Y-103205201D01*
X80711988Y-103146055D01*
X80747556Y-103092824D01*
X80792824Y-103047556D01*
X80846055Y-103011988D01*
X80846058Y-103011987D01*
X80846059Y-103011986D01*
X80860854Y-103005858D01*
X80905201Y-102987489D01*
X80905206Y-102987488D01*
X80910672Y-102985224D01*
X80922832Y-102981535D01*
X80935060Y-102975000D01*
X85600000Y-102975000D01*
X85600000Y-103625000D01*
X85600000Y-103625000D01*
G37*
G36*
X85600000Y-102625000D02*
X80935060Y-102625000D01*
X80922835Y-102618466D01*
X80910672Y-102614777D01*
X80846059Y-102588014D01*
X80846058Y-102588013D01*
X80846055Y-102588012D01*
X80792824Y-102552444D01*
X80747556Y-102507176D01*
X80711988Y-102453945D01*
X80687489Y-102394799D01*
X80675000Y-102332010D01*
X80675000Y-102267990D01*
X80687489Y-102205201D01*
X80711988Y-102146055D01*
X80747556Y-102092824D01*
X80792824Y-102047556D01*
X80846055Y-102011988D01*
X80846058Y-102011987D01*
X80846059Y-102011986D01*
X80860854Y-102005858D01*
X80905201Y-101987489D01*
X80905206Y-101987488D01*
X80910672Y-101985224D01*
X80922832Y-101981535D01*
X80935060Y-101975000D01*
X85600000Y-101975000D01*
X85600000Y-102625000D01*
X85600000Y-102625000D01*
G37*
G36*
X85600000Y-101625000D02*
X80935060Y-101625000D01*
X80922835Y-101618466D01*
X80910672Y-101614777D01*
X80846059Y-101588014D01*
X80846058Y-101588013D01*
X80846055Y-101588012D01*
X80792824Y-101552444D01*
X80747556Y-101507176D01*
X80711988Y-101453945D01*
X80687489Y-101394799D01*
X80675000Y-101332010D01*
X80675000Y-101267990D01*
X80687489Y-101205201D01*
X80711988Y-101146055D01*
X80747556Y-101092824D01*
X80792824Y-101047556D01*
X80846055Y-101011988D01*
X80846058Y-101011987D01*
X80846059Y-101011986D01*
X80860854Y-101005858D01*
X80905201Y-100987489D01*
X80905206Y-100987488D01*
X80910672Y-100985224D01*
X80922832Y-100981535D01*
X80935060Y-100975000D01*
X85600000Y-100975000D01*
X85600000Y-101625000D01*
X85600000Y-101625000D01*
G37*
G36*
X85600000Y-100625000D02*
X80935060Y-100625000D01*
X80922835Y-100618466D01*
X80910672Y-100614777D01*
X80846059Y-100588014D01*
X80846058Y-100588013D01*
X80846055Y-100588012D01*
X80792824Y-100552444D01*
X80747556Y-100507176D01*
X80711988Y-100453945D01*
X80687489Y-100394799D01*
X80675000Y-100332010D01*
X80675000Y-100267990D01*
X80687489Y-100205201D01*
X80711988Y-100146055D01*
X80747556Y-100092824D01*
X80792824Y-100047556D01*
X80846055Y-100011988D01*
X80846058Y-100011987D01*
X80846059Y-100011986D01*
X80860854Y-100005858D01*
X80905201Y-99987489D01*
X80905206Y-99987488D01*
X80910672Y-99985224D01*
X80922832Y-99981535D01*
X80935060Y-99975000D01*
X85600000Y-99975000D01*
X85600000Y-100625000D01*
X85600000Y-100625000D01*
G37*
G36*
X85600000Y-99625000D02*
X80935060Y-99625000D01*
X80922835Y-99618466D01*
X80910672Y-99614777D01*
X80846059Y-99588014D01*
X80846058Y-99588013D01*
X80846055Y-99588012D01*
X80792824Y-99552444D01*
X80747556Y-99507176D01*
X80711988Y-99453945D01*
X80687489Y-99394799D01*
X80675000Y-99332010D01*
X80675000Y-99267990D01*
X80687489Y-99205201D01*
X80711988Y-99146055D01*
X80747556Y-99092824D01*
X80792824Y-99047556D01*
X80846055Y-99011988D01*
X80846058Y-99011987D01*
X80846059Y-99011986D01*
X80860854Y-99005858D01*
X80905201Y-98987489D01*
X80905206Y-98987488D01*
X80910672Y-98985224D01*
X80922832Y-98981535D01*
X80935060Y-98975000D01*
X85600000Y-98975000D01*
X85600000Y-99625000D01*
X85600000Y-99625000D01*
G37*
G36*
X85600000Y-98625000D02*
X80935060Y-98625000D01*
X80922835Y-98618466D01*
X80910672Y-98614777D01*
X80846059Y-98588014D01*
X80846058Y-98588013D01*
X80846055Y-98588012D01*
X80792824Y-98552444D01*
X80747556Y-98507176D01*
X80711988Y-98453945D01*
X80687489Y-98394799D01*
X80675000Y-98332010D01*
X80675000Y-98267990D01*
X80687489Y-98205201D01*
X80711988Y-98146055D01*
X80747556Y-98092824D01*
X80792824Y-98047556D01*
X80846055Y-98011988D01*
X80846058Y-98011987D01*
X80846059Y-98011986D01*
X80860854Y-98005858D01*
X80905201Y-97987489D01*
X80905206Y-97987488D01*
X80910672Y-97985224D01*
X80922832Y-97981535D01*
X80935060Y-97975000D01*
X85600000Y-97975000D01*
X85600000Y-98625000D01*
X85600000Y-98625000D01*
G37*
G36*
X85600000Y-97625000D02*
X80935060Y-97625000D01*
X80922835Y-97618466D01*
X80910672Y-97614777D01*
X80846059Y-97588014D01*
X80846058Y-97588013D01*
X80846055Y-97588012D01*
X80792824Y-97552444D01*
X80747556Y-97507176D01*
X80711988Y-97453945D01*
X80687489Y-97394799D01*
X80675000Y-97332010D01*
X80675000Y-97267990D01*
X80687489Y-97205201D01*
X80711988Y-97146055D01*
X80747556Y-97092824D01*
X80792824Y-97047556D01*
X80846055Y-97011988D01*
X80846058Y-97011987D01*
X80846059Y-97011986D01*
X80860854Y-97005858D01*
X80905201Y-96987489D01*
X80905206Y-96987488D01*
X80910672Y-96985224D01*
X80922832Y-96981535D01*
X80935060Y-96975000D01*
X85600000Y-96975000D01*
X85600000Y-97625000D01*
X85600000Y-97625000D01*
G37*
G36*
X85600000Y-96625000D02*
X80935060Y-96625000D01*
X80922835Y-96618466D01*
X80910672Y-96614777D01*
X80846059Y-96588014D01*
X80846058Y-96588013D01*
X80846055Y-96588012D01*
X80792824Y-96552444D01*
X80747556Y-96507176D01*
X80711988Y-96453945D01*
X80687489Y-96394799D01*
X80675000Y-96332010D01*
X80675000Y-96267990D01*
X80687489Y-96205201D01*
X80711988Y-96146055D01*
X80747556Y-96092824D01*
X80792824Y-96047556D01*
X80846055Y-96011988D01*
X80846058Y-96011987D01*
X80846059Y-96011986D01*
X80860854Y-96005858D01*
X80905201Y-95987489D01*
X80905206Y-95987488D01*
X80910672Y-95985224D01*
X80922832Y-95981535D01*
X80935060Y-95975000D01*
X85600000Y-95975000D01*
X85600000Y-96625000D01*
X85600000Y-96625000D01*
G37*
G36*
X85600000Y-95625000D02*
X80935060Y-95625000D01*
X80922835Y-95618466D01*
X80910672Y-95614777D01*
X80846059Y-95588014D01*
X80846058Y-95588013D01*
X80846055Y-95588012D01*
X80792824Y-95552444D01*
X80747556Y-95507176D01*
X80711988Y-95453945D01*
X80687489Y-95394799D01*
X80675000Y-95332010D01*
X80675000Y-95267990D01*
X80687489Y-95205201D01*
X80711988Y-95146055D01*
X80747556Y-95092824D01*
X80792824Y-95047556D01*
X80846055Y-95011988D01*
X80846058Y-95011987D01*
X80846059Y-95011986D01*
X80860854Y-95005858D01*
X80905201Y-94987489D01*
X80905206Y-94987488D01*
X80910672Y-94985224D01*
X80922832Y-94981535D01*
X80935060Y-94975000D01*
X85600000Y-94975000D01*
X85600000Y-95625000D01*
X85600000Y-95625000D01*
G37*
G36*
X85600000Y-94625000D02*
X80935060Y-94625000D01*
X80922835Y-94618466D01*
X80910672Y-94614777D01*
X80846059Y-94588014D01*
X80846058Y-94588013D01*
X80846055Y-94588012D01*
X80792824Y-94552444D01*
X80747556Y-94507176D01*
X80711988Y-94453945D01*
X80687489Y-94394799D01*
X80675000Y-94332010D01*
X80675000Y-94267990D01*
X80687489Y-94205201D01*
X80711988Y-94146055D01*
X80747556Y-94092824D01*
X80792824Y-94047556D01*
X80846055Y-94011988D01*
X80846058Y-94011987D01*
X80846059Y-94011986D01*
X80860854Y-94005858D01*
X80905201Y-93987489D01*
X80905206Y-93987488D01*
X80910672Y-93985224D01*
X80922832Y-93981535D01*
X80935060Y-93975000D01*
X85600000Y-93975000D01*
X85600000Y-94625000D01*
X85600000Y-94625000D01*
G37*
G36*
X85600000Y-93625000D02*
X80935060Y-93625000D01*
X80922835Y-93618466D01*
X80910672Y-93614777D01*
X80846059Y-93588014D01*
X80846058Y-93588013D01*
X80846055Y-93588012D01*
X80792824Y-93552444D01*
X80747556Y-93507176D01*
X80711988Y-93453945D01*
X80687489Y-93394799D01*
X80675000Y-93332010D01*
X80675000Y-93267990D01*
X80687489Y-93205201D01*
X80711988Y-93146055D01*
X80747556Y-93092824D01*
X80792824Y-93047556D01*
X80846055Y-93011988D01*
X80846058Y-93011987D01*
X80846059Y-93011986D01*
X80860854Y-93005858D01*
X80905201Y-92987489D01*
X80905206Y-92987488D01*
X80910672Y-92985224D01*
X80922832Y-92981535D01*
X80935060Y-92975000D01*
X85600000Y-92975000D01*
X85600000Y-93625000D01*
X85600000Y-93625000D01*
G37*
G36*
X85600000Y-90625000D02*
X80935060Y-90625000D01*
X80922835Y-90618466D01*
X80910672Y-90614777D01*
X80846059Y-90588014D01*
X80846058Y-90588013D01*
X80846055Y-90588012D01*
X80792824Y-90552444D01*
X80747556Y-90507176D01*
X80711988Y-90453945D01*
X80687489Y-90394799D01*
X80675000Y-90332010D01*
X80675000Y-90267990D01*
X80687489Y-90205201D01*
X80711988Y-90146055D01*
X80747556Y-90092824D01*
X80792824Y-90047556D01*
X80846055Y-90011988D01*
X80846058Y-90011987D01*
X80846059Y-90011986D01*
X80860854Y-90005858D01*
X80905201Y-89987489D01*
X80905206Y-89987488D01*
X80910672Y-89985224D01*
X80922832Y-89981535D01*
X80935060Y-89975000D01*
X85600000Y-89975000D01*
X85600000Y-90625000D01*
X85600000Y-90625000D01*
G37*
G36*
X85600000Y-89625000D02*
X80935060Y-89625000D01*
X80922835Y-89618466D01*
X80910672Y-89614777D01*
X80846059Y-89588014D01*
X80846058Y-89588013D01*
X80846055Y-89588012D01*
X80792824Y-89552444D01*
X80747556Y-89507176D01*
X80711988Y-89453945D01*
X80687489Y-89394799D01*
X80675000Y-89332010D01*
X80675000Y-89267990D01*
X80687489Y-89205201D01*
X80711988Y-89146055D01*
X80747556Y-89092824D01*
X80792824Y-89047556D01*
X80846055Y-89011988D01*
X80846058Y-89011987D01*
X80846059Y-89011986D01*
X80860854Y-89005858D01*
X80905201Y-88987489D01*
X80905206Y-88987488D01*
X80910672Y-88985224D01*
X80922832Y-88981535D01*
X80935060Y-88975000D01*
X85600000Y-88975000D01*
X85600000Y-89625000D01*
X85600000Y-89625000D01*
G37*
G36*
X85600000Y-88625000D02*
X80935060Y-88625000D01*
X80922835Y-88618466D01*
X80910672Y-88614777D01*
X80846059Y-88588014D01*
X80846058Y-88588013D01*
X80846055Y-88588012D01*
X80792824Y-88552444D01*
X80747556Y-88507176D01*
X80711988Y-88453945D01*
X80687489Y-88394799D01*
X80675000Y-88332010D01*
X80675000Y-88267990D01*
X80687489Y-88205201D01*
X80711988Y-88146055D01*
X80747556Y-88092824D01*
X80792824Y-88047556D01*
X80846055Y-88011988D01*
X80846058Y-88011987D01*
X80846059Y-88011986D01*
X80860854Y-88005858D01*
X80905201Y-87987489D01*
X80905206Y-87987488D01*
X80910672Y-87985224D01*
X80922832Y-87981535D01*
X80935060Y-87975000D01*
X85600000Y-87975000D01*
X85600000Y-88625000D01*
X85600000Y-88625000D01*
G37*
G36*
X85600000Y-87625000D02*
X80935060Y-87625000D01*
X80922835Y-87618466D01*
X80910672Y-87614777D01*
X80846059Y-87588014D01*
X80846058Y-87588013D01*
X80846055Y-87588012D01*
X80792824Y-87552444D01*
X80747556Y-87507176D01*
X80711988Y-87453945D01*
X80687489Y-87394799D01*
X80675000Y-87332010D01*
X80675000Y-87267990D01*
X80687489Y-87205201D01*
X80711988Y-87146055D01*
X80747556Y-87092824D01*
X80792824Y-87047556D01*
X80846055Y-87011988D01*
X80846058Y-87011987D01*
X80846059Y-87011986D01*
X80860854Y-87005858D01*
X80905201Y-86987489D01*
X80905206Y-86987488D01*
X80910672Y-86985224D01*
X80922832Y-86981535D01*
X80935060Y-86975000D01*
X85600000Y-86975000D01*
X85600000Y-87625000D01*
X85600000Y-87625000D01*
G37*
G36*
X85600000Y-86625000D02*
X80935060Y-86625000D01*
X80922835Y-86618466D01*
X80910672Y-86614777D01*
X80846059Y-86588014D01*
X80846058Y-86588013D01*
X80846055Y-86588012D01*
X80792824Y-86552444D01*
X80747556Y-86507176D01*
X80711988Y-86453945D01*
X80687489Y-86394799D01*
X80675000Y-86332010D01*
X80675000Y-86267990D01*
X80687489Y-86205201D01*
X80711988Y-86146055D01*
X80747556Y-86092824D01*
X80792824Y-86047556D01*
X80846055Y-86011988D01*
X80846058Y-86011987D01*
X80846059Y-86011986D01*
X80860854Y-86005858D01*
X80905201Y-85987489D01*
X80905206Y-85987488D01*
X80910672Y-85985224D01*
X80922832Y-85981535D01*
X80935060Y-85975000D01*
X85600000Y-85975000D01*
X85600000Y-86625000D01*
X85600000Y-86625000D01*
G37*
G36*
X85600000Y-85625000D02*
X82000000Y-85625000D01*
X82000000Y-84975000D01*
X85600000Y-84975000D01*
X85600000Y-85625000D01*
X85600000Y-85625000D01*
G37*
G36*
X85600000Y-84625000D02*
X80935060Y-84625000D01*
X80922835Y-84618466D01*
X80910672Y-84614777D01*
X80846059Y-84588014D01*
X80846058Y-84588013D01*
X80846055Y-84588012D01*
X80792824Y-84552444D01*
X80747556Y-84507176D01*
X80711988Y-84453945D01*
X80687489Y-84394799D01*
X80675000Y-84332010D01*
X80675000Y-84267990D01*
X80687489Y-84205201D01*
X80711988Y-84146055D01*
X80747556Y-84092824D01*
X80792824Y-84047556D01*
X80846055Y-84011988D01*
X80846058Y-84011987D01*
X80846059Y-84011986D01*
X80860854Y-84005858D01*
X80905201Y-83987489D01*
X80905206Y-83987488D01*
X80910672Y-83985224D01*
X80922832Y-83981535D01*
X80935060Y-83975000D01*
X85600000Y-83975000D01*
X85600000Y-84625000D01*
X85600000Y-84625000D01*
G37*
G36*
X110863600Y-77863600D02*
X109136400Y-77863600D01*
X109136400Y-76136400D01*
X110863600Y-76136400D01*
X110863600Y-77863600D01*
X110863600Y-77863600D01*
G37*
G36*
X112624712Y-76140565D02*
X112709295Y-76148896D01*
X112829727Y-76185429D01*
X112872088Y-76198279D01*
X113022112Y-76278468D01*
X113153612Y-76386388D01*
X113261532Y-76517888D01*
X113341721Y-76667912D01*
X113341722Y-76667916D01*
X113391104Y-76830705D01*
X113407778Y-77000000D01*
X113391104Y-77169295D01*
X113354571Y-77289727D01*
X113341721Y-77332088D01*
X113261532Y-77482112D01*
X113153612Y-77613612D01*
X113022112Y-77721532D01*
X112872088Y-77801721D01*
X112829727Y-77814571D01*
X112709295Y-77851104D01*
X112624712Y-77859435D01*
X112582421Y-77863600D01*
X112497579Y-77863600D01*
X112455288Y-77859435D01*
X112370705Y-77851104D01*
X112250273Y-77814571D01*
X112207912Y-77801721D01*
X112057888Y-77721532D01*
X111926388Y-77613612D01*
X111818468Y-77482112D01*
X111738279Y-77332088D01*
X111725429Y-77289727D01*
X111688896Y-77169295D01*
X111672222Y-77000000D01*
X111688896Y-76830705D01*
X111738278Y-76667916D01*
X111738279Y-76667912D01*
X111818468Y-76517888D01*
X111926388Y-76386388D01*
X112057888Y-76278468D01*
X112207912Y-76198279D01*
X112250273Y-76185429D01*
X112370705Y-76148896D01*
X112455288Y-76140565D01*
X112497579Y-76136400D01*
X112582421Y-76136400D01*
X112624712Y-76140565D01*
X112624712Y-76140565D01*
G37*
G36*
X115164712Y-76140565D02*
X115249295Y-76148896D01*
X115369727Y-76185429D01*
X115412088Y-76198279D01*
X115562112Y-76278468D01*
X115693612Y-76386388D01*
X115801532Y-76517888D01*
X115881721Y-76667912D01*
X115881722Y-76667916D01*
X115931104Y-76830705D01*
X115947778Y-77000000D01*
X115931104Y-77169295D01*
X115894571Y-77289727D01*
X115881721Y-77332088D01*
X115801532Y-77482112D01*
X115693612Y-77613612D01*
X115562112Y-77721532D01*
X115412088Y-77801721D01*
X115369727Y-77814571D01*
X115249295Y-77851104D01*
X115164712Y-77859435D01*
X115122421Y-77863600D01*
X115037579Y-77863600D01*
X114995288Y-77859435D01*
X114910705Y-77851104D01*
X114790273Y-77814571D01*
X114747912Y-77801721D01*
X114597888Y-77721532D01*
X114466388Y-77613612D01*
X114358468Y-77482112D01*
X114278279Y-77332088D01*
X114265429Y-77289727D01*
X114228896Y-77169295D01*
X114212222Y-77000000D01*
X114228896Y-76830705D01*
X114278278Y-76667916D01*
X114278279Y-76667912D01*
X114358468Y-76517888D01*
X114466388Y-76386388D01*
X114597888Y-76278468D01*
X114747912Y-76198279D01*
X114790273Y-76185429D01*
X114910705Y-76148896D01*
X114995288Y-76140565D01*
X115037579Y-76136400D01*
X115122421Y-76136400D01*
X115164712Y-76140565D01*
X115164712Y-76140565D01*
G37*
G36*
X155466703Y-73461486D02*
X155757883Y-73582097D01*
X156019944Y-73757201D01*
X156242799Y-73980056D01*
X156417903Y-74242117D01*
X156538514Y-74533297D01*
X156600000Y-74842412D01*
X156600000Y-75157588D01*
X156538514Y-75466703D01*
X156417903Y-75757883D01*
X156242799Y-76019944D01*
X156019944Y-76242799D01*
X155757883Y-76417903D01*
X155466703Y-76538514D01*
X155157588Y-76600000D01*
X154842412Y-76600000D01*
X154533297Y-76538514D01*
X154242117Y-76417903D01*
X153980056Y-76242799D01*
X153757201Y-76019944D01*
X153582097Y-75757883D01*
X153461486Y-75466703D01*
X153400000Y-75157588D01*
X153400000Y-74842412D01*
X153461486Y-74533297D01*
X153582097Y-74242117D01*
X153757201Y-73980056D01*
X153980056Y-73757201D01*
X154242117Y-73582097D01*
X154533297Y-73461486D01*
X154842412Y-73400000D01*
X155157588Y-73400000D01*
X155466703Y-73461486D01*
X155466703Y-73461486D01*
G37*
G36*
X112624712Y-73600565D02*
X112709295Y-73608896D01*
X112829727Y-73645429D01*
X112872088Y-73658279D01*
X113022112Y-73738468D01*
X113153612Y-73846388D01*
X113261532Y-73977888D01*
X113341721Y-74127912D01*
X113341722Y-74127916D01*
X113391104Y-74290705D01*
X113407778Y-74460000D01*
X113391104Y-74629295D01*
X113354571Y-74749727D01*
X113341721Y-74792088D01*
X113261532Y-74942112D01*
X113153612Y-75073612D01*
X113022112Y-75181532D01*
X112872088Y-75261721D01*
X112829727Y-75274571D01*
X112709295Y-75311104D01*
X112624712Y-75319435D01*
X112582421Y-75323600D01*
X112497579Y-75323600D01*
X112455288Y-75319435D01*
X112370705Y-75311104D01*
X112250273Y-75274571D01*
X112207912Y-75261721D01*
X112057888Y-75181532D01*
X111926388Y-75073612D01*
X111818468Y-74942112D01*
X111738279Y-74792088D01*
X111725429Y-74749727D01*
X111688896Y-74629295D01*
X111672222Y-74460000D01*
X111688896Y-74290705D01*
X111738278Y-74127916D01*
X111738279Y-74127912D01*
X111818468Y-73977888D01*
X111926388Y-73846388D01*
X112057888Y-73738468D01*
X112207912Y-73658279D01*
X112250273Y-73645429D01*
X112370705Y-73608896D01*
X112455288Y-73600565D01*
X112497579Y-73596400D01*
X112582421Y-73596400D01*
X112624712Y-73600565D01*
X112624712Y-73600565D01*
G37*
G36*
X115164712Y-73600565D02*
X115249295Y-73608896D01*
X115369727Y-73645429D01*
X115412088Y-73658279D01*
X115562112Y-73738468D01*
X115693612Y-73846388D01*
X115801532Y-73977888D01*
X115881721Y-74127912D01*
X115881722Y-74127916D01*
X115931104Y-74290705D01*
X115947778Y-74460000D01*
X115931104Y-74629295D01*
X115894571Y-74749727D01*
X115881721Y-74792088D01*
X115801532Y-74942112D01*
X115693612Y-75073612D01*
X115562112Y-75181532D01*
X115412088Y-75261721D01*
X115369727Y-75274571D01*
X115249295Y-75311104D01*
X115164712Y-75319435D01*
X115122421Y-75323600D01*
X115037579Y-75323600D01*
X114995288Y-75319435D01*
X114910705Y-75311104D01*
X114790273Y-75274571D01*
X114747912Y-75261721D01*
X114597888Y-75181532D01*
X114466388Y-75073612D01*
X114358468Y-74942112D01*
X114278279Y-74792088D01*
X114265429Y-74749727D01*
X114228896Y-74629295D01*
X114212222Y-74460000D01*
X114228896Y-74290705D01*
X114278278Y-74127916D01*
X114278279Y-74127912D01*
X114358468Y-73977888D01*
X114466388Y-73846388D01*
X114597888Y-73738468D01*
X114747912Y-73658279D01*
X114790273Y-73645429D01*
X114910705Y-73608896D01*
X114995288Y-73600565D01*
X115037579Y-73596400D01*
X115122421Y-73596400D01*
X115164712Y-73600565D01*
X115164712Y-73600565D01*
G37*
G36*
X110084712Y-73600565D02*
X110169295Y-73608896D01*
X110289727Y-73645429D01*
X110332088Y-73658279D01*
X110482112Y-73738468D01*
X110613612Y-73846388D01*
X110721532Y-73977888D01*
X110801721Y-74127912D01*
X110801722Y-74127916D01*
X110851104Y-74290705D01*
X110867778Y-74460000D01*
X110851104Y-74629295D01*
X110814571Y-74749727D01*
X110801721Y-74792088D01*
X110721532Y-74942112D01*
X110613612Y-75073612D01*
X110482112Y-75181532D01*
X110332088Y-75261721D01*
X110289727Y-75274571D01*
X110169295Y-75311104D01*
X110084712Y-75319435D01*
X110042421Y-75323600D01*
X109957579Y-75323600D01*
X109915288Y-75319435D01*
X109830705Y-75311104D01*
X109710273Y-75274571D01*
X109667912Y-75261721D01*
X109517888Y-75181532D01*
X109386388Y-75073612D01*
X109278468Y-74942112D01*
X109198279Y-74792088D01*
X109185429Y-74749727D01*
X109148896Y-74629295D01*
X109132222Y-74460000D01*
X109148896Y-74290705D01*
X109198278Y-74127916D01*
X109198279Y-74127912D01*
X109278468Y-73977888D01*
X109386388Y-73846388D01*
X109517888Y-73738468D01*
X109667912Y-73658279D01*
X109710273Y-73645429D01*
X109830705Y-73608896D01*
X109915288Y-73600565D01*
X109957579Y-73596400D01*
X110042421Y-73596400D01*
X110084712Y-73600565D01*
X110084712Y-73600565D01*
G37*
G36*
X134786630Y-72162299D02*
X134946855Y-72210903D01*
X135094520Y-72289831D01*
X135223949Y-72396051D01*
X135330169Y-72525480D01*
X135409097Y-72673145D01*
X135457701Y-72833370D01*
X135474112Y-73000000D01*
X135457701Y-73166630D01*
X135409097Y-73326855D01*
X135330169Y-73474520D01*
X135223949Y-73603949D01*
X135094520Y-73710169D01*
X134946855Y-73789097D01*
X134786630Y-73837701D01*
X134661752Y-73850000D01*
X134578248Y-73850000D01*
X134453370Y-73837701D01*
X134293145Y-73789097D01*
X134145480Y-73710169D01*
X134016051Y-73603949D01*
X133909831Y-73474520D01*
X133830903Y-73326855D01*
X133782299Y-73166630D01*
X133765888Y-73000000D01*
X133782299Y-72833370D01*
X133830903Y-72673145D01*
X133909831Y-72525480D01*
X134016051Y-72396051D01*
X134145480Y-72289831D01*
X134293145Y-72210903D01*
X134453370Y-72162299D01*
X134578248Y-72150000D01*
X134661752Y-72150000D01*
X134786630Y-72162299D01*
X134786630Y-72162299D01*
G37*
G36*
X127850000Y-73850000D02*
X126150000Y-73850000D01*
X126150000Y-72150000D01*
X127850000Y-72150000D01*
X127850000Y-73850000D01*
X127850000Y-73850000D01*
G37*
G36*
X129706630Y-72162299D02*
X129866855Y-72210903D01*
X130014520Y-72289831D01*
X130143949Y-72396051D01*
X130250169Y-72525480D01*
X130329097Y-72673145D01*
X130377701Y-72833370D01*
X130394112Y-73000000D01*
X130377701Y-73166630D01*
X130329097Y-73326855D01*
X130250169Y-73474520D01*
X130143949Y-73603949D01*
X130014520Y-73710169D01*
X129866855Y-73789097D01*
X129706630Y-73837701D01*
X129581752Y-73850000D01*
X129498248Y-73850000D01*
X129373370Y-73837701D01*
X129213145Y-73789097D01*
X129065480Y-73710169D01*
X128936051Y-73603949D01*
X128829831Y-73474520D01*
X128750903Y-73326855D01*
X128702299Y-73166630D01*
X128685888Y-73000000D01*
X128702299Y-72833370D01*
X128750903Y-72673145D01*
X128829831Y-72525480D01*
X128936051Y-72396051D01*
X129065480Y-72289831D01*
X129213145Y-72210903D01*
X129373370Y-72162299D01*
X129498248Y-72150000D01*
X129581752Y-72150000D01*
X129706630Y-72162299D01*
X129706630Y-72162299D01*
G37*
G36*
X132246630Y-72162299D02*
X132406855Y-72210903D01*
X132554520Y-72289831D01*
X132683949Y-72396051D01*
X132790169Y-72525480D01*
X132869097Y-72673145D01*
X132917701Y-72833370D01*
X132934112Y-73000000D01*
X132917701Y-73166630D01*
X132869097Y-73326855D01*
X132790169Y-73474520D01*
X132683949Y-73603949D01*
X132554520Y-73710169D01*
X132406855Y-73789097D01*
X132246630Y-73837701D01*
X132121752Y-73850000D01*
X132038248Y-73850000D01*
X131913370Y-73837701D01*
X131753145Y-73789097D01*
X131605480Y-73710169D01*
X131476051Y-73603949D01*
X131369831Y-73474520D01*
X131290903Y-73326855D01*
X131242299Y-73166630D01*
X131225888Y-73000000D01*
X131242299Y-72833370D01*
X131290903Y-72673145D01*
X131369831Y-72525480D01*
X131476051Y-72396051D01*
X131605480Y-72289831D01*
X131753145Y-72210903D01*
X131913370Y-72162299D01*
X132038248Y-72150000D01*
X132121752Y-72150000D01*
X132246630Y-72162299D01*
X132246630Y-72162299D01*
G37*
G36*
X137326630Y-72162299D02*
X137486855Y-72210903D01*
X137634520Y-72289831D01*
X137763949Y-72396051D01*
X137870169Y-72525480D01*
X137949097Y-72673145D01*
X137997701Y-72833370D01*
X138014112Y-73000000D01*
X137997701Y-73166630D01*
X137949097Y-73326855D01*
X137870169Y-73474520D01*
X137763949Y-73603949D01*
X137634520Y-73710169D01*
X137486855Y-73789097D01*
X137326630Y-73837701D01*
X137201752Y-73850000D01*
X137118248Y-73850000D01*
X136993370Y-73837701D01*
X136833145Y-73789097D01*
X136685480Y-73710169D01*
X136556051Y-73603949D01*
X136449831Y-73474520D01*
X136370903Y-73326855D01*
X136322299Y-73166630D01*
X136305888Y-73000000D01*
X136322299Y-72833370D01*
X136370903Y-72673145D01*
X136449831Y-72525480D01*
X136556051Y-72396051D01*
X136685480Y-72289831D01*
X136833145Y-72210903D01*
X136993370Y-72162299D01*
X137118248Y-72150000D01*
X137201752Y-72150000D01*
X137326630Y-72162299D01*
X137326630Y-72162299D01*
G37*
G36*
X139866630Y-72162299D02*
X140026855Y-72210903D01*
X140174520Y-72289831D01*
X140303949Y-72396051D01*
X140410169Y-72525480D01*
X140489097Y-72673145D01*
X140537701Y-72833370D01*
X140554112Y-73000000D01*
X140537701Y-73166630D01*
X140489097Y-73326855D01*
X140410169Y-73474520D01*
X140303949Y-73603949D01*
X140174520Y-73710169D01*
X140026855Y-73789097D01*
X139866630Y-73837701D01*
X139741752Y-73850000D01*
X139658248Y-73850000D01*
X139533370Y-73837701D01*
X139373145Y-73789097D01*
X139225480Y-73710169D01*
X139096051Y-73603949D01*
X138989831Y-73474520D01*
X138910903Y-73326855D01*
X138862299Y-73166630D01*
X138845888Y-73000000D01*
X138862299Y-72833370D01*
X138910903Y-72673145D01*
X138989831Y-72525480D01*
X139096051Y-72396051D01*
X139225480Y-72289831D01*
X139373145Y-72210903D01*
X139533370Y-72162299D01*
X139658248Y-72150000D01*
X139741752Y-72150000D01*
X139866630Y-72162299D01*
X139866630Y-72162299D01*
G37*
M02*
