M48
;DRILL file {KiCad 5.0.2+dfsg1-1} date Thu 01 Jul 2021 12:09:26 AM CDT
;FORMAT={-:-/ absolute / inch / decimal}
FMAT,2
INCH,TZ
T1C0.0157
T2C0.0394
T3C0.0400
T4C0.0472
T5C0.0669
T6C0.1260
%
G90
G05
T1
X3.4055Y-3.3661
X3.4252Y-4.0587
X3.622Y-3.4055
X3.6417Y-3.5236
X3.6614Y-3.1299
X3.6614Y-3.4257
X3.6969Y-3.5276
X3.7598Y-3.2283
X3.8583Y-3.0315
X3.8583Y-3.1491
X3.8976Y-3.3465
X3.8976Y-3.4094
X3.9173Y-3.6614
X3.9173Y-3.8583
X3.9173Y-3.8976
X3.9173Y-3.937
X3.9173Y-3.9764
X3.9528Y-3.3465
X3.9528Y-3.4094
X3.9567Y-3.8583
X3.9567Y-3.8976
X3.9567Y-3.937
X3.9567Y-3.9764
X3.9764Y-3.2205
X3.9966Y-4.4477
X3.9994Y-4.5325
X4.0157Y-3.5197
X4.0349Y-4.2722
X4.0551Y-3.2283
X4.0748Y-4.252
X4.1142Y-3.4341
X4.138Y-3.679
X4.153Y-3.405
X4.1732Y-3.3071
X4.1732Y-3.6614
X4.1732Y-4.5669
X4.1732Y-4.6063
X4.2126Y-4.5669
X4.2126Y-4.6063
X4.2323Y-4.6457
X4.2323Y-4.685
X4.2323Y-4.7441
X4.2323Y-4.7835
X4.2323Y-4.8425
X4.2323Y-4.8819
X4.2598Y-3.4646
X4.2717Y-3.8976
X4.2717Y-4.2717
X4.4291Y-3.563
X4.5824Y-3.3376
X4.5866Y-3.4055
X4.6457Y-3.3661
X4.6457Y-4.1142
X4.7441Y-2.9134
X4.8622Y-4.4094
X4.8622Y-4.8622
X4.8622Y-4.9016
X4.8819Y-3.0512
X4.8819Y-4.3701
X4.9016Y-4.4094
X4.9606Y-4.1339
X4.9803Y-4.4094
X5.Y-4.3701
X5.0197Y-4.4094
X5.0197Y-4.8622
X5.0197Y-4.9016
X5.1211Y-3.937
X5.2756Y-4.0551
X5.374Y-3.9567
X5.4724Y-4.8031
X5.5118Y-4.8425
X5.5906Y-4.8425
X5.6299Y-4.8031
X5.9843Y-3.2283
X5.9843Y-3.3858
X5.9843Y-3.4646
X6.1806Y-3.4641
X6.1811Y-3.3465
X6.1811Y-3.5039
X6.2205Y-3.3465
T2
X5.Y-2.874
X5.1Y-2.874
X5.2Y-2.874
X5.3Y-2.874
X5.4Y-2.874
X5.5Y-2.874
T3
X4.3307Y-2.9315
X4.3307Y-3.0315
X4.4307Y-2.9315
X4.4307Y-3.0315
X4.5307Y-2.9315
X4.5307Y-3.0315
T4
X5.8858Y-4.1339
X5.8858Y-4.2323
T5
X6.1685Y-4.1339
X6.1685Y-4.2323
T6
X6.1024Y-4.9213
X6.1024Y-2.9528
T0
M30
