G04 #@! TF.GenerationSoftware,KiCad,Pcbnew,5.0.2+dfsg1-1*
G04 #@! TF.CreationDate,2021-07-01T00:09:32-05:00*
G04 #@! TF.ProjectId,dcpsu-card-ahalf,64637073-752d-4636-9172-642d6168616c,v0.4*
G04 #@! TF.SameCoordinates,Original*
G04 #@! TF.FileFunction,Copper,L2,Bot*
G04 #@! TF.FilePolarity,Positive*
%FSLAX46Y46*%
G04 Gerber Fmt 4.6, Leading zero omitted, Abs format (unit mm)*
G04 Created by KiCad (PCBNEW 5.0.2+dfsg1-1) date Thu 01 Jul 2021 12:09:32 AM CDT*
%MOMM*%
%LPD*%
G01*
G04 APERTURE LIST*
G04 #@! TA.AperFunction,NonConductor*
%ADD10C,0.125000*%
G04 #@! TD*
G04 #@! TA.AperFunction,ComponentPad*
%ADD11O,1.700000X1.700000*%
G04 #@! TD*
G04 #@! TA.AperFunction,ComponentPad*
%ADD12R,1.700000X1.700000*%
G04 #@! TD*
G04 #@! TA.AperFunction,ComponentPad*
%ADD13R,1.727200X1.727200*%
G04 #@! TD*
G04 #@! TA.AperFunction,ComponentPad*
%ADD14O,1.727200X1.727200*%
G04 #@! TD*
G04 #@! TA.AperFunction,ConnectorPad*
%ADD15C,0.650000*%
G04 #@! TD*
G04 #@! TA.AperFunction,ConnectorPad*
%ADD16R,4.600000X0.650000*%
G04 #@! TD*
G04 #@! TA.AperFunction,ConnectorPad*
%ADD17R,3.600000X0.650000*%
G04 #@! TD*
G04 #@! TA.AperFunction,Conductor*
%ADD18C,0.100000*%
G04 #@! TD*
G04 #@! TA.AperFunction,ComponentPad*
%ADD19C,1.700000*%
G04 #@! TD*
G04 #@! TA.AperFunction,ComponentPad*
%ADD20O,2.200000X1.700000*%
G04 #@! TD*
G04 #@! TA.AperFunction,ViaPad*
%ADD21C,0.800000*%
G04 #@! TD*
G04 #@! TA.AperFunction,Conductor*
%ADD22C,0.250000*%
G04 #@! TD*
G04 #@! TA.AperFunction,Conductor*
%ADD23C,0.381000*%
G04 #@! TD*
G04 #@! TA.AperFunction,Conductor*
%ADD24C,0.254000*%
G04 #@! TD*
G04 APERTURE END LIST*
D10*
X90851190Y-120513988D02*
X90851190Y-120609226D01*
X90875000Y-120656845D01*
X90922619Y-120704464D01*
X91017857Y-120728273D01*
X91184523Y-120728273D01*
X91279761Y-120704464D01*
X91327380Y-120656845D01*
X91351190Y-120609226D01*
X91351190Y-120513988D01*
X91327380Y-120466369D01*
X91279761Y-120418750D01*
X91184523Y-120394940D01*
X91017857Y-120394940D01*
X90922619Y-120418750D01*
X90875000Y-120466369D01*
X90851190Y-120513988D01*
X91017857Y-120942559D02*
X91517857Y-120942559D01*
X91041666Y-120942559D02*
X91017857Y-120990178D01*
X91017857Y-121085416D01*
X91041666Y-121133035D01*
X91065476Y-121156845D01*
X91113095Y-121180654D01*
X91255952Y-121180654D01*
X91303571Y-121156845D01*
X91327380Y-121133035D01*
X91351190Y-121085416D01*
X91351190Y-120990178D01*
X91327380Y-120942559D01*
X91327380Y-121585416D02*
X91351190Y-121537797D01*
X91351190Y-121442559D01*
X91327380Y-121394940D01*
X91279761Y-121371130D01*
X91089285Y-121371130D01*
X91041666Y-121394940D01*
X91017857Y-121442559D01*
X91017857Y-121537797D01*
X91041666Y-121585416D01*
X91089285Y-121609226D01*
X91136904Y-121609226D01*
X91184523Y-121371130D01*
X91017857Y-121823511D02*
X91351190Y-121823511D01*
X91065476Y-121823511D02*
X91041666Y-121847321D01*
X91017857Y-121894940D01*
X91017857Y-121966369D01*
X91041666Y-122013988D01*
X91089285Y-122037797D01*
X91351190Y-122037797D01*
X91327380Y-122633035D02*
X91351190Y-122704464D01*
X91351190Y-122823511D01*
X91327380Y-122871130D01*
X91303571Y-122894940D01*
X91255952Y-122918750D01*
X91208333Y-122918750D01*
X91160714Y-122894940D01*
X91136904Y-122871130D01*
X91113095Y-122823511D01*
X91089285Y-122728273D01*
X91065476Y-122680654D01*
X91041666Y-122656845D01*
X90994047Y-122633035D01*
X90946428Y-122633035D01*
X90898809Y-122656845D01*
X90875000Y-122680654D01*
X90851190Y-122728273D01*
X90851190Y-122847321D01*
X90875000Y-122918750D01*
X91351190Y-123204464D02*
X91327380Y-123156845D01*
X91303571Y-123133035D01*
X91255952Y-123109226D01*
X91113095Y-123109226D01*
X91065476Y-123133035D01*
X91041666Y-123156845D01*
X91017857Y-123204464D01*
X91017857Y-123275892D01*
X91041666Y-123323511D01*
X91065476Y-123347321D01*
X91113095Y-123371130D01*
X91255952Y-123371130D01*
X91303571Y-123347321D01*
X91327380Y-123323511D01*
X91351190Y-123275892D01*
X91351190Y-123204464D01*
X91017857Y-123799702D02*
X91351190Y-123799702D01*
X91017857Y-123585416D02*
X91279761Y-123585416D01*
X91327380Y-123609226D01*
X91351190Y-123656845D01*
X91351190Y-123728273D01*
X91327380Y-123775892D01*
X91303571Y-123799702D01*
X91351190Y-124037797D02*
X91017857Y-124037797D01*
X91113095Y-124037797D02*
X91065476Y-124061607D01*
X91041666Y-124085416D01*
X91017857Y-124133035D01*
X91017857Y-124180654D01*
X91327380Y-124561607D02*
X91351190Y-124513988D01*
X91351190Y-124418750D01*
X91327380Y-124371130D01*
X91303571Y-124347321D01*
X91255952Y-124323511D01*
X91113095Y-124323511D01*
X91065476Y-124347321D01*
X91041666Y-124371130D01*
X91017857Y-124418750D01*
X91017857Y-124513988D01*
X91041666Y-124561607D01*
X91327380Y-124966369D02*
X91351190Y-124918750D01*
X91351190Y-124823511D01*
X91327380Y-124775892D01*
X91279761Y-124752083D01*
X91089285Y-124752083D01*
X91041666Y-124775892D01*
X91017857Y-124823511D01*
X91017857Y-124918750D01*
X91041666Y-124966369D01*
X91089285Y-124990178D01*
X91136904Y-124990178D01*
X91184523Y-124752083D01*
X91351190Y-125585416D02*
X90851190Y-125585416D01*
X91089285Y-125585416D02*
X91089285Y-125871130D01*
X91351190Y-125871130D02*
X90851190Y-125871130D01*
X91351190Y-126323511D02*
X91089285Y-126323511D01*
X91041666Y-126299702D01*
X91017857Y-126252083D01*
X91017857Y-126156845D01*
X91041666Y-126109226D01*
X91327380Y-126323511D02*
X91351190Y-126275892D01*
X91351190Y-126156845D01*
X91327380Y-126109226D01*
X91279761Y-126085416D01*
X91232142Y-126085416D01*
X91184523Y-126109226D01*
X91160714Y-126156845D01*
X91160714Y-126275892D01*
X91136904Y-126323511D01*
X91351190Y-126561607D02*
X91017857Y-126561607D01*
X91113095Y-126561607D02*
X91065476Y-126585416D01*
X91041666Y-126609226D01*
X91017857Y-126656845D01*
X91017857Y-126704464D01*
X91351190Y-127085416D02*
X90851190Y-127085416D01*
X91327380Y-127085416D02*
X91351190Y-127037797D01*
X91351190Y-126942559D01*
X91327380Y-126894940D01*
X91303571Y-126871130D01*
X91255952Y-126847321D01*
X91113095Y-126847321D01*
X91065476Y-126871130D01*
X91041666Y-126894940D01*
X91017857Y-126942559D01*
X91017857Y-127037797D01*
X91041666Y-127085416D01*
X91017857Y-127275892D02*
X91351190Y-127371130D01*
X91113095Y-127466369D01*
X91351190Y-127561607D01*
X91017857Y-127656845D01*
X91351190Y-128061607D02*
X91089285Y-128061607D01*
X91041666Y-128037797D01*
X91017857Y-127990178D01*
X91017857Y-127894940D01*
X91041666Y-127847321D01*
X91327380Y-128061607D02*
X91351190Y-128013988D01*
X91351190Y-127894940D01*
X91327380Y-127847321D01*
X91279761Y-127823511D01*
X91232142Y-127823511D01*
X91184523Y-127847321D01*
X91160714Y-127894940D01*
X91160714Y-128013988D01*
X91136904Y-128061607D01*
X91351190Y-128299702D02*
X91017857Y-128299702D01*
X91113095Y-128299702D02*
X91065476Y-128323511D01*
X91041666Y-128347321D01*
X91017857Y-128394940D01*
X91017857Y-128442559D01*
X91327380Y-128799702D02*
X91351190Y-128752083D01*
X91351190Y-128656845D01*
X91327380Y-128609226D01*
X91279761Y-128585416D01*
X91089285Y-128585416D01*
X91041666Y-128609226D01*
X91017857Y-128656845D01*
X91017857Y-128752083D01*
X91041666Y-128799702D01*
X91089285Y-128823511D01*
X91136904Y-128823511D01*
X91184523Y-128585416D01*
X91845238Y-125799702D02*
X91821428Y-125752083D01*
X91821428Y-125656845D01*
X91845238Y-125609226D01*
X91892857Y-125561607D01*
X91940476Y-125537797D01*
X92035714Y-125537797D01*
X92083333Y-125561607D01*
X92130952Y-125609226D01*
X92154761Y-125656845D01*
X92154761Y-125752083D01*
X92130952Y-125799702D01*
X91654761Y-125704464D02*
X91678571Y-125585416D01*
X91750000Y-125466369D01*
X91869047Y-125394940D01*
X91988095Y-125371130D01*
X92107142Y-125394940D01*
X92226190Y-125466369D01*
X92297619Y-125585416D01*
X92321428Y-125704464D01*
X92297619Y-125823511D01*
X92226190Y-125942559D01*
X92107142Y-126013988D01*
X91988095Y-126037797D01*
X91869047Y-126013988D01*
X91750000Y-125942559D01*
X91678571Y-125823511D01*
X91654761Y-125704464D01*
X92226190Y-126633035D02*
X91726190Y-126633035D01*
X92226190Y-126918750D02*
X91940476Y-126704464D01*
X91726190Y-126918750D02*
X92011904Y-126633035D01*
X91892857Y-127085416D02*
X92226190Y-127204464D01*
X91892857Y-127323511D02*
X92226190Y-127204464D01*
X92345238Y-127156845D01*
X92369047Y-127133035D01*
X92392857Y-127085416D01*
X92226190Y-127585416D02*
X92202380Y-127537797D01*
X92154761Y-127513988D01*
X91726190Y-127513988D01*
X92202380Y-127966369D02*
X92226190Y-127918750D01*
X92226190Y-127823511D01*
X92202380Y-127775892D01*
X92154761Y-127752083D01*
X91964285Y-127752083D01*
X91916666Y-127775892D01*
X91892857Y-127823511D01*
X91892857Y-127918750D01*
X91916666Y-127966369D01*
X91964285Y-127990178D01*
X92011904Y-127990178D01*
X92059523Y-127752083D01*
X91964285Y-128585416D02*
X91964285Y-128752083D01*
X92226190Y-128823511D02*
X92226190Y-128585416D01*
X91726190Y-128585416D01*
X91726190Y-128823511D01*
X93101190Y-116418750D02*
X93101190Y-116180654D01*
X92601190Y-116180654D01*
X93101190Y-116585416D02*
X92767857Y-116585416D01*
X92601190Y-116585416D02*
X92625000Y-116561607D01*
X92648809Y-116585416D01*
X92625000Y-116609226D01*
X92601190Y-116585416D01*
X92648809Y-116585416D01*
X93077380Y-117037797D02*
X93101190Y-116990178D01*
X93101190Y-116894940D01*
X93077380Y-116847321D01*
X93053571Y-116823511D01*
X93005952Y-116799702D01*
X92863095Y-116799702D01*
X92815476Y-116823511D01*
X92791666Y-116847321D01*
X92767857Y-116894940D01*
X92767857Y-116990178D01*
X92791666Y-117037797D01*
X93077380Y-117442559D02*
X93101190Y-117394940D01*
X93101190Y-117299702D01*
X93077380Y-117252083D01*
X93029761Y-117228273D01*
X92839285Y-117228273D01*
X92791666Y-117252083D01*
X92767857Y-117299702D01*
X92767857Y-117394940D01*
X92791666Y-117442559D01*
X92839285Y-117466369D01*
X92886904Y-117466369D01*
X92934523Y-117228273D01*
X92767857Y-117680654D02*
X93101190Y-117680654D01*
X92815476Y-117680654D02*
X92791666Y-117704464D01*
X92767857Y-117752083D01*
X92767857Y-117823511D01*
X92791666Y-117871130D01*
X92839285Y-117894940D01*
X93101190Y-117894940D01*
X93077380Y-118109226D02*
X93101190Y-118156845D01*
X93101190Y-118252083D01*
X93077380Y-118299702D01*
X93029761Y-118323511D01*
X93005952Y-118323511D01*
X92958333Y-118299702D01*
X92934523Y-118252083D01*
X92934523Y-118180654D01*
X92910714Y-118133035D01*
X92863095Y-118109226D01*
X92839285Y-118109226D01*
X92791666Y-118133035D01*
X92767857Y-118180654D01*
X92767857Y-118252083D01*
X92791666Y-118299702D01*
X93077380Y-118728273D02*
X93101190Y-118680654D01*
X93101190Y-118585416D01*
X93077380Y-118537797D01*
X93029761Y-118513988D01*
X92839285Y-118513988D01*
X92791666Y-118537797D01*
X92767857Y-118585416D01*
X92767857Y-118680654D01*
X92791666Y-118728273D01*
X92839285Y-118752083D01*
X92886904Y-118752083D01*
X92934523Y-118513988D01*
X93053571Y-118966369D02*
X93077380Y-118990178D01*
X93101190Y-118966369D01*
X93077380Y-118942559D01*
X93053571Y-118966369D01*
X93101190Y-118966369D01*
X92791666Y-118966369D02*
X92815476Y-118990178D01*
X92839285Y-118966369D01*
X92815476Y-118942559D01*
X92791666Y-118966369D01*
X92839285Y-118966369D01*
X93053571Y-119871130D02*
X93077380Y-119847321D01*
X93101190Y-119775892D01*
X93101190Y-119728273D01*
X93077380Y-119656845D01*
X93029761Y-119609226D01*
X92982142Y-119585416D01*
X92886904Y-119561607D01*
X92815476Y-119561607D01*
X92720238Y-119585416D01*
X92672619Y-119609226D01*
X92625000Y-119656845D01*
X92601190Y-119728273D01*
X92601190Y-119775892D01*
X92625000Y-119847321D01*
X92648809Y-119871130D01*
X93101190Y-120085416D02*
X92767857Y-120085416D01*
X92863095Y-120085416D02*
X92815476Y-120109226D01*
X92791666Y-120133035D01*
X92767857Y-120180654D01*
X92767857Y-120228273D01*
X93077380Y-120585416D02*
X93101190Y-120537797D01*
X93101190Y-120442559D01*
X93077380Y-120394940D01*
X93029761Y-120371130D01*
X92839285Y-120371130D01*
X92791666Y-120394940D01*
X92767857Y-120442559D01*
X92767857Y-120537797D01*
X92791666Y-120585416D01*
X92839285Y-120609226D01*
X92886904Y-120609226D01*
X92934523Y-120371130D01*
X93101190Y-121037797D02*
X92839285Y-121037797D01*
X92791666Y-121013988D01*
X92767857Y-120966369D01*
X92767857Y-120871130D01*
X92791666Y-120823511D01*
X93077380Y-121037797D02*
X93101190Y-120990178D01*
X93101190Y-120871130D01*
X93077380Y-120823511D01*
X93029761Y-120799702D01*
X92982142Y-120799702D01*
X92934523Y-120823511D01*
X92910714Y-120871130D01*
X92910714Y-120990178D01*
X92886904Y-121037797D01*
X92767857Y-121204464D02*
X92767857Y-121394940D01*
X92601190Y-121275892D02*
X93029761Y-121275892D01*
X93077380Y-121299702D01*
X93101190Y-121347321D01*
X93101190Y-121394940D01*
X93101190Y-121561607D02*
X92767857Y-121561607D01*
X92601190Y-121561607D02*
X92625000Y-121537797D01*
X92648809Y-121561607D01*
X92625000Y-121585416D01*
X92601190Y-121561607D01*
X92648809Y-121561607D01*
X92767857Y-121752083D02*
X93101190Y-121871130D01*
X92767857Y-121990178D01*
X93077380Y-122371130D02*
X93101190Y-122323511D01*
X93101190Y-122228273D01*
X93077380Y-122180654D01*
X93029761Y-122156845D01*
X92839285Y-122156845D01*
X92791666Y-122180654D01*
X92767857Y-122228273D01*
X92767857Y-122323511D01*
X92791666Y-122371130D01*
X92839285Y-122394940D01*
X92886904Y-122394940D01*
X92934523Y-122156845D01*
X93053571Y-122894940D02*
X93077380Y-122871130D01*
X93101190Y-122799702D01*
X93101190Y-122752083D01*
X93077380Y-122680654D01*
X93029761Y-122633035D01*
X92982142Y-122609226D01*
X92886904Y-122585416D01*
X92815476Y-122585416D01*
X92720238Y-122609226D01*
X92672619Y-122633035D01*
X92625000Y-122680654D01*
X92601190Y-122752083D01*
X92601190Y-122799702D01*
X92625000Y-122871130D01*
X92648809Y-122894940D01*
X93101190Y-123180654D02*
X93077380Y-123133035D01*
X93053571Y-123109226D01*
X93005952Y-123085416D01*
X92863095Y-123085416D01*
X92815476Y-123109226D01*
X92791666Y-123133035D01*
X92767857Y-123180654D01*
X92767857Y-123252083D01*
X92791666Y-123299702D01*
X92815476Y-123323511D01*
X92863095Y-123347321D01*
X93005952Y-123347321D01*
X93053571Y-123323511D01*
X93077380Y-123299702D01*
X93101190Y-123252083D01*
X93101190Y-123180654D01*
X93101190Y-123561607D02*
X92767857Y-123561607D01*
X92815476Y-123561607D02*
X92791666Y-123585416D01*
X92767857Y-123633035D01*
X92767857Y-123704464D01*
X92791666Y-123752083D01*
X92839285Y-123775892D01*
X93101190Y-123775892D01*
X92839285Y-123775892D02*
X92791666Y-123799702D01*
X92767857Y-123847321D01*
X92767857Y-123918750D01*
X92791666Y-123966369D01*
X92839285Y-123990178D01*
X93101190Y-123990178D01*
X93101190Y-124228273D02*
X92767857Y-124228273D01*
X92815476Y-124228273D02*
X92791666Y-124252083D01*
X92767857Y-124299702D01*
X92767857Y-124371130D01*
X92791666Y-124418750D01*
X92839285Y-124442559D01*
X93101190Y-124442559D01*
X92839285Y-124442559D02*
X92791666Y-124466369D01*
X92767857Y-124513988D01*
X92767857Y-124585416D01*
X92791666Y-124633035D01*
X92839285Y-124656845D01*
X93101190Y-124656845D01*
X93101190Y-124966369D02*
X93077380Y-124918750D01*
X93053571Y-124894940D01*
X93005952Y-124871130D01*
X92863095Y-124871130D01*
X92815476Y-124894940D01*
X92791666Y-124918750D01*
X92767857Y-124966369D01*
X92767857Y-125037797D01*
X92791666Y-125085416D01*
X92815476Y-125109226D01*
X92863095Y-125133035D01*
X93005952Y-125133035D01*
X93053571Y-125109226D01*
X93077380Y-125085416D01*
X93101190Y-125037797D01*
X93101190Y-124966369D01*
X92767857Y-125347321D02*
X93101190Y-125347321D01*
X92815476Y-125347321D02*
X92791666Y-125371130D01*
X92767857Y-125418750D01*
X92767857Y-125490178D01*
X92791666Y-125537797D01*
X92839285Y-125561607D01*
X93101190Y-125561607D01*
X93077380Y-125775892D02*
X93101190Y-125823511D01*
X93101190Y-125918750D01*
X93077380Y-125966369D01*
X93029761Y-125990178D01*
X93005952Y-125990178D01*
X92958333Y-125966369D01*
X92934523Y-125918750D01*
X92934523Y-125847321D01*
X92910714Y-125799702D01*
X92863095Y-125775892D01*
X92839285Y-125775892D01*
X92791666Y-125799702D01*
X92767857Y-125847321D01*
X92767857Y-125918750D01*
X92791666Y-125966369D01*
X92839285Y-126752083D02*
X92863095Y-126823511D01*
X92886904Y-126847321D01*
X92934523Y-126871130D01*
X93005952Y-126871130D01*
X93053571Y-126847321D01*
X93077380Y-126823511D01*
X93101190Y-126775892D01*
X93101190Y-126585416D01*
X92601190Y-126585416D01*
X92601190Y-126752083D01*
X92625000Y-126799702D01*
X92648809Y-126823511D01*
X92696428Y-126847321D01*
X92744047Y-126847321D01*
X92791666Y-126823511D01*
X92815476Y-126799702D01*
X92839285Y-126752083D01*
X92839285Y-126585416D01*
X92863095Y-127180654D02*
X93101190Y-127180654D01*
X92601190Y-127013988D02*
X92863095Y-127180654D01*
X92601190Y-127347321D01*
X92910714Y-127513988D02*
X92910714Y-127894940D01*
X93077380Y-128109226D02*
X93101190Y-128180654D01*
X93101190Y-128299702D01*
X93077380Y-128347321D01*
X93053571Y-128371130D01*
X93005952Y-128394940D01*
X92958333Y-128394940D01*
X92910714Y-128371130D01*
X92886904Y-128347321D01*
X92863095Y-128299702D01*
X92839285Y-128204464D01*
X92815476Y-128156845D01*
X92791666Y-128133035D01*
X92744047Y-128109226D01*
X92696428Y-128109226D01*
X92648809Y-128133035D01*
X92625000Y-128156845D01*
X92601190Y-128204464D01*
X92601190Y-128323511D01*
X92625000Y-128394940D01*
X92958333Y-128585416D02*
X92958333Y-128823511D01*
X93101190Y-128537797D02*
X92601190Y-128704464D01*
X93101190Y-128871130D01*
D11*
G04 #@! TO.P,J2,6*
G04 #@! TO.N,GND*
X139700000Y-73000000D03*
G04 #@! TO.P,J2,5*
X137160000Y-73000000D03*
G04 #@! TO.P,J2,4*
G04 #@! TO.N,+5V*
X134620000Y-73000000D03*
G04 #@! TO.P,J2,3*
G04 #@! TO.N,/UART-RX*
X132080000Y-73000000D03*
G04 #@! TO.P,J2,2*
G04 #@! TO.N,/UART-TX*
X129540000Y-73000000D03*
D12*
G04 #@! TO.P,J2,1*
G04 #@! TO.N,Net-(C3-Pad2)*
X127000000Y-73000000D03*
G04 #@! TD*
D13*
G04 #@! TO.P,J3,1*
G04 #@! TO.N,CARD-MISO*
X110000000Y-77000000D03*
D14*
G04 #@! TO.P,J3,2*
G04 #@! TO.N,+5V*
X110000000Y-74460000D03*
G04 #@! TO.P,J3,3*
G04 #@! TO.N,CARD-SCLK*
X112540000Y-77000000D03*
G04 #@! TO.P,J3,4*
G04 #@! TO.N,CARD-MOSI*
X112540000Y-74460000D03*
G04 #@! TO.P,J3,5*
G04 #@! TO.N,/~RESET*
X115080000Y-77000000D03*
G04 #@! TO.P,J3,6*
G04 #@! TO.N,GND*
X115080000Y-74460000D03*
G04 #@! TD*
D15*
G04 #@! TO.P,J1,*
G04 #@! TO.N,*
X81000000Y-84300000D03*
D16*
G04 #@! TO.P,J1,B1*
G04 #@! TO.N,GND*
X83300000Y-103300000D03*
G04 #@! TO.P,J1,B2*
X83300000Y-102300000D03*
G04 #@! TO.P,J1,B3*
X83300000Y-101300000D03*
G04 #@! TO.P,J1,B4*
X83300000Y-100300000D03*
G04 #@! TO.P,J1,B5*
X83300000Y-99300000D03*
G04 #@! TO.P,J1,B6*
X83300000Y-98300000D03*
G04 #@! TO.P,J1,B7*
X83300000Y-97300000D03*
G04 #@! TO.P,J1,B8*
X83300000Y-96300000D03*
G04 #@! TO.P,J1,B9*
X83300000Y-95300000D03*
G04 #@! TO.P,J1,B10*
X83300000Y-94300000D03*
G04 #@! TO.P,J1,B11*
X83300000Y-93300000D03*
G04 #@! TO.P,J1,B14*
X83300000Y-88300000D03*
G04 #@! TO.P,J1,B15*
X83300000Y-87300000D03*
G04 #@! TO.P,J1,B16*
X83300000Y-86300000D03*
D17*
G04 #@! TO.P,J1,B17*
G04 #@! TO.N,+5V*
X83800000Y-85300000D03*
D16*
G04 #@! TO.P,J1,B18*
G04 #@! TO.N,GND*
X83300000Y-84300000D03*
G04 #@! TO.P,J1,B12*
X83300000Y-90300000D03*
G04 #@! TO.P,J1,B13*
X83300000Y-89300000D03*
D15*
G04 #@! TO.P,J1,*
G04 #@! TO.N,*
X81000000Y-101300000D03*
X81000000Y-100300000D03*
X81000000Y-99300000D03*
X81000000Y-98300000D03*
X81000000Y-97300000D03*
X81000000Y-96300000D03*
X81000000Y-95300000D03*
X81000000Y-94300000D03*
X81000000Y-93300000D03*
X81000000Y-103300000D03*
X81000000Y-90300000D03*
X81000000Y-89300000D03*
X81000000Y-88300000D03*
X81000000Y-87300000D03*
X81000000Y-86300000D03*
X81000000Y-102300000D03*
G04 #@! TD*
D18*
G04 #@! TO.N,Net-(D1-Pad1)*
G04 #@! TO.C,J4*
G36*
X150374504Y-104151204D02*
X150398773Y-104154804D01*
X150422571Y-104160765D01*
X150445671Y-104169030D01*
X150467849Y-104179520D01*
X150488893Y-104192133D01*
X150508598Y-104206747D01*
X150526777Y-104223223D01*
X150543253Y-104241402D01*
X150557867Y-104261107D01*
X150570480Y-104282151D01*
X150580970Y-104304329D01*
X150589235Y-104327429D01*
X150595196Y-104351227D01*
X150598796Y-104375496D01*
X150600000Y-104400000D01*
X150600000Y-105600000D01*
X150598796Y-105624504D01*
X150595196Y-105648773D01*
X150589235Y-105672571D01*
X150580970Y-105695671D01*
X150570480Y-105717849D01*
X150557867Y-105738893D01*
X150543253Y-105758598D01*
X150526777Y-105776777D01*
X150508598Y-105793253D01*
X150488893Y-105807867D01*
X150467849Y-105820480D01*
X150445671Y-105830970D01*
X150422571Y-105839235D01*
X150398773Y-105845196D01*
X150374504Y-105848796D01*
X150350000Y-105850000D01*
X148650000Y-105850000D01*
X148625496Y-105848796D01*
X148601227Y-105845196D01*
X148577429Y-105839235D01*
X148554329Y-105830970D01*
X148532151Y-105820480D01*
X148511107Y-105807867D01*
X148491402Y-105793253D01*
X148473223Y-105776777D01*
X148456747Y-105758598D01*
X148442133Y-105738893D01*
X148429520Y-105717849D01*
X148419030Y-105695671D01*
X148410765Y-105672571D01*
X148404804Y-105648773D01*
X148401204Y-105624504D01*
X148400000Y-105600000D01*
X148400000Y-104400000D01*
X148401204Y-104375496D01*
X148404804Y-104351227D01*
X148410765Y-104327429D01*
X148419030Y-104304329D01*
X148429520Y-104282151D01*
X148442133Y-104261107D01*
X148456747Y-104241402D01*
X148473223Y-104223223D01*
X148491402Y-104206747D01*
X148511107Y-104192133D01*
X148532151Y-104179520D01*
X148554329Y-104169030D01*
X148577429Y-104160765D01*
X148601227Y-104154804D01*
X148625496Y-104151204D01*
X148650000Y-104150000D01*
X150350000Y-104150000D01*
X150374504Y-104151204D01*
X150374504Y-104151204D01*
G37*
D19*
G04 #@! TD*
G04 #@! TO.P,J4,1*
G04 #@! TO.N,Net-(D1-Pad1)*
X149500000Y-105000000D03*
D20*
G04 #@! TO.P,J4,2*
G04 #@! TO.N,GND*
X149500000Y-107500000D03*
G04 #@! TD*
D21*
G04 #@! TO.N,/~RESET*
X108200004Y-88000000D03*
G04 #@! TO.N,GND*
X99000000Y-86600000D03*
X100400000Y-86600000D03*
X99000000Y-85000000D03*
X152000000Y-82000000D03*
X126000000Y-105000000D03*
X152000000Y-88000000D03*
X152000000Y-86000000D03*
X102487347Y-108512653D03*
X127000000Y-111000000D03*
X124000000Y-111000000D03*
X107500000Y-120500000D03*
X107500000Y-119000000D03*
X107500000Y-118000000D03*
X106000000Y-116000000D03*
X107000000Y-116000000D03*
X107000000Y-117000000D03*
X106000000Y-117000000D03*
X107500000Y-123000000D03*
X139000000Y-122000000D03*
X143000000Y-122000000D03*
X142000000Y-123000000D03*
X107500000Y-121500000D03*
X107500000Y-124000000D03*
X126500000Y-112000000D03*
X127500000Y-112000000D03*
X123500000Y-112000000D03*
X123500000Y-123500000D03*
X123500000Y-124500000D03*
X127500000Y-124500000D03*
X127500000Y-123500000D03*
X140000000Y-123000000D03*
X106000000Y-84000000D03*
X130075000Y-100000000D03*
X118000000Y-104500000D03*
X103500000Y-108000000D03*
X124500000Y-112000000D03*
X100400000Y-85000000D03*
X87000000Y-103090500D03*
X136500000Y-100500000D03*
X99500000Y-98000000D03*
X100500000Y-98000000D03*
X99500000Y-99000000D03*
X100500000Y-99000000D03*
X99500000Y-100000000D03*
X100500000Y-100000000D03*
X99500000Y-101000000D03*
X100500000Y-101000000D03*
X101585395Y-115125188D03*
G04 #@! TO.N,+5V*
X86500000Y-85500000D03*
X95500000Y-82000000D03*
X93000000Y-79500000D03*
X124000000Y-77500000D03*
X120500000Y-74000000D03*
X116500000Y-86500000D03*
X112500000Y-90500000D03*
G04 #@! TO.N,/ADC-VOUT*
X134000000Y-103000000D03*
X102000000Y-89400000D03*
G04 #@! TO.N,CARD-SCLK*
X93000000Y-87012500D03*
X93900004Y-89600000D03*
G04 #@! TO.N,CARD-MISO*
X98000000Y-77000000D03*
X98000000Y-79987500D03*
G04 #@! TO.N,CARD-MOSI*
X92000000Y-86500000D03*
X92500020Y-89500000D03*
G04 #@! TO.N,/PWR-EN*
X101000000Y-81800000D03*
X105105540Y-93447229D03*
G04 #@! TO.N,/PWR-PWM*
X103000000Y-82000000D03*
X106000000Y-93000064D03*
G04 #@! TO.N,Net-(D2-Pad3)*
X157000000Y-89000000D03*
X158000000Y-85000000D03*
G04 #@! TO.N,/LED2*
X104500000Y-87225000D03*
X118000000Y-85500000D03*
G04 #@! TO.N,/LED1*
X156987347Y-87987347D03*
X157000000Y-85000000D03*
X105487347Y-86487347D03*
X116393701Y-84774990D03*
G04 #@! TO.N,Net-(D4-Pad2)*
X108500000Y-99000000D03*
X99500000Y-93000000D03*
G04 #@! TO.N,Net-(R26-Pad1)*
X108500000Y-108500000D03*
X101513427Y-112972212D03*
G04 #@! TD*
D22*
G04 #@! TO.N,/~RESET*
X115080000Y-84720000D02*
X115080000Y-77000000D01*
X108200004Y-88000000D02*
X111800000Y-88000000D01*
X111800000Y-88000000D02*
X115080000Y-84720000D01*
D23*
G04 #@! TO.N,+5V*
X83800000Y-85300000D02*
X86300000Y-85300000D01*
X86300000Y-85300000D02*
X86500000Y-85500000D01*
X95500000Y-82000000D02*
X93000000Y-79500000D01*
X124000000Y-77500000D02*
X120500000Y-74000000D01*
X112500000Y-89429042D02*
X112500000Y-90500000D01*
X115429042Y-86500000D02*
X112500000Y-89429042D01*
X116500000Y-86500000D02*
X115429042Y-86500000D01*
D22*
G04 #@! TO.N,/ADC-VOUT*
X102000000Y-89965685D02*
X102000000Y-89400000D01*
X134000000Y-103000000D02*
X113585339Y-103000000D01*
X102000000Y-91414661D02*
X102000000Y-89965685D01*
X113585339Y-103000000D02*
X102000000Y-91414661D01*
G04 #@! TO.N,CARD-SCLK*
X93000000Y-88699996D02*
X93500005Y-89200001D01*
X93500005Y-89200001D02*
X93900004Y-89600000D01*
X93000000Y-87012500D02*
X93000000Y-88699996D01*
G04 #@! TO.N,CARD-MISO*
X98000000Y-77000000D02*
X98000000Y-79987500D01*
G04 #@! TO.N,CARD-MOSI*
X92000000Y-86500000D02*
X92000000Y-88999980D01*
X92100021Y-89100001D02*
X92500020Y-89500000D01*
X92000000Y-88999980D02*
X92100021Y-89100001D01*
G04 #@! TO.N,/PWR-EN*
X104705541Y-93047230D02*
X105105540Y-93447229D01*
X103200000Y-91541689D02*
X104705541Y-93047230D01*
X101000000Y-81800000D02*
X103200000Y-84000000D01*
X103200000Y-84000000D02*
X103200000Y-91541689D01*
G04 #@! TO.N,/PWR-PWM*
X103700000Y-90700064D02*
X105600001Y-92600065D01*
X103000000Y-82000000D02*
X103700000Y-82700000D01*
X105600001Y-92600065D02*
X106000000Y-93000064D01*
X103700000Y-82700000D02*
X103700000Y-90700064D01*
G04 #@! TO.N,Net-(D2-Pad3)*
X157000000Y-89000000D02*
X158000000Y-88000000D01*
X158000000Y-88000000D02*
X158000000Y-85000000D01*
G04 #@! TO.N,/LED2*
X106775000Y-89500000D02*
X104899999Y-87624999D01*
X104899999Y-87624999D02*
X104500000Y-87225000D01*
X115700000Y-85500000D02*
X111700000Y-89500000D01*
X111700000Y-89500000D02*
X106775000Y-89500000D01*
X118000000Y-85500000D02*
X115700000Y-85500000D01*
G04 #@! TO.N,/LED1*
X156987347Y-87987347D02*
X156987347Y-85012653D01*
X156987347Y-85012653D02*
X157000000Y-85000000D01*
X107725002Y-88725002D02*
X111838588Y-88725002D01*
X115788600Y-84774990D02*
X115828016Y-84774990D01*
X105487347Y-86487347D02*
X107725002Y-88725002D01*
X111838588Y-88725002D02*
X115788600Y-84774990D01*
X115828016Y-84774990D02*
X116393701Y-84774990D01*
D23*
G04 #@! TO.N,Net-(D4-Pad2)*
X108500000Y-99000000D02*
X102500000Y-93000000D01*
X102500000Y-93000000D02*
X99500000Y-93000000D01*
D22*
G04 #@! TO.N,Net-(R26-Pad1)*
X108500000Y-108500000D02*
X105985639Y-108500000D01*
X105985639Y-108500000D02*
X101513427Y-112972212D01*
G04 #@! TD*
D24*
G04 #@! TO.N,GND*
G36*
X159442000Y-71231131D02*
X159442001Y-128768868D01*
X158768870Y-129442000D01*
X93866750Y-129442000D01*
X93866750Y-124580693D01*
X152892000Y-124580693D01*
X152892000Y-125419307D01*
X153212924Y-126194086D01*
X153805914Y-126787076D01*
X154580693Y-127108000D01*
X155419307Y-127108000D01*
X156194086Y-126787076D01*
X156787076Y-126194086D01*
X157108000Y-125419307D01*
X157108000Y-124580693D01*
X156787076Y-123805914D01*
X156194086Y-123212924D01*
X155419307Y-122892000D01*
X154580693Y-122892000D01*
X153805914Y-123212924D01*
X153212924Y-123805914D01*
X152892000Y-124580693D01*
X93866750Y-124580693D01*
X93866750Y-115509857D01*
X90225750Y-115509857D01*
X90225750Y-129436619D01*
X89558000Y-128768870D01*
X89558000Y-112791600D01*
X100605427Y-112791600D01*
X100605427Y-113152824D01*
X100743662Y-113486553D01*
X100999086Y-113741977D01*
X101332815Y-113880212D01*
X101694039Y-113880212D01*
X102027768Y-113741977D01*
X102283192Y-113486553D01*
X102421427Y-113152824D01*
X102421427Y-112959408D01*
X106247836Y-109133000D01*
X107848894Y-109133000D01*
X107985659Y-109269765D01*
X108319388Y-109408000D01*
X108680612Y-109408000D01*
X109014341Y-109269765D01*
X109269765Y-109014341D01*
X109408000Y-108680612D01*
X109408000Y-108319388D01*
X109269765Y-107985659D01*
X109140996Y-107856890D01*
X147808524Y-107856890D01*
X147829648Y-107967491D01*
X148116667Y-108475451D01*
X148576226Y-108834907D01*
X149138361Y-108991135D01*
X149373000Y-108831491D01*
X149373000Y-107627000D01*
X149627000Y-107627000D01*
X149627000Y-108831491D01*
X149861639Y-108991135D01*
X150423774Y-108834907D01*
X150883333Y-108475451D01*
X151170352Y-107967491D01*
X151191476Y-107856890D01*
X151070155Y-107627000D01*
X149627000Y-107627000D01*
X149373000Y-107627000D01*
X147929845Y-107627000D01*
X147808524Y-107856890D01*
X109140996Y-107856890D01*
X109014341Y-107730235D01*
X108680612Y-107592000D01*
X108319388Y-107592000D01*
X107985659Y-107730235D01*
X107848894Y-107867000D01*
X106047978Y-107867000D01*
X105985639Y-107854600D01*
X105923300Y-107867000D01*
X105923295Y-107867000D01*
X105738655Y-107903727D01*
X105529272Y-108043633D01*
X105493958Y-108096484D01*
X101526231Y-112064212D01*
X101332815Y-112064212D01*
X100999086Y-112202447D01*
X100743662Y-112457871D01*
X100605427Y-112791600D01*
X89558000Y-112791600D01*
X89558000Y-107143110D01*
X147808524Y-107143110D01*
X147929845Y-107373000D01*
X149373000Y-107373000D01*
X149373000Y-107353000D01*
X149627000Y-107353000D01*
X149627000Y-107373000D01*
X151070155Y-107373000D01*
X151191476Y-107143110D01*
X151170352Y-107032509D01*
X150883333Y-106524549D01*
X150615586Y-106315124D01*
X150643883Y-106309495D01*
X150893024Y-106143024D01*
X151059495Y-105893883D01*
X151117952Y-105600000D01*
X151117952Y-104729877D01*
X155322000Y-104729877D01*
X155322000Y-105270123D01*
X155528743Y-105769245D01*
X155910755Y-106151257D01*
X156149142Y-106250000D01*
X155910755Y-106348743D01*
X155528743Y-106730755D01*
X155322000Y-107229877D01*
X155322000Y-107770123D01*
X155528743Y-108269245D01*
X155910755Y-108651257D01*
X156409877Y-108858000D01*
X156950123Y-108858000D01*
X157449245Y-108651257D01*
X157831257Y-108269245D01*
X158038000Y-107770123D01*
X158038000Y-107229877D01*
X157831257Y-106730755D01*
X157449245Y-106348743D01*
X157210858Y-106250000D01*
X157449245Y-106151257D01*
X157831257Y-105769245D01*
X158038000Y-105270123D01*
X158038000Y-104729877D01*
X157831257Y-104230755D01*
X157449245Y-103848743D01*
X156950123Y-103642000D01*
X156409877Y-103642000D01*
X155910755Y-103848743D01*
X155528743Y-104230755D01*
X155322000Y-104729877D01*
X151117952Y-104729877D01*
X151117952Y-104400000D01*
X151059495Y-104106117D01*
X150893024Y-103856976D01*
X150643883Y-103690505D01*
X150350000Y-103632048D01*
X148650000Y-103632048D01*
X148356117Y-103690505D01*
X148106976Y-103856976D01*
X147940505Y-104106117D01*
X147882048Y-104400000D01*
X147882048Y-105600000D01*
X147940505Y-105893883D01*
X148106976Y-106143024D01*
X148356117Y-106309495D01*
X148384414Y-106315124D01*
X148116667Y-106524549D01*
X147829648Y-107032509D01*
X147808524Y-107143110D01*
X89558000Y-107143110D01*
X89558000Y-104054954D01*
X89568931Y-104000000D01*
X89525624Y-103782280D01*
X89402295Y-103597705D01*
X89217720Y-103474376D01*
X89054954Y-103442000D01*
X89000000Y-103431069D01*
X88945046Y-103442000D01*
X86091250Y-103442000D01*
X86076250Y-103427000D01*
X83427000Y-103427000D01*
X83427000Y-103442000D01*
X83173000Y-103442000D01*
X83173000Y-103427000D01*
X83153000Y-103427000D01*
X83153000Y-103173000D01*
X83173000Y-103173000D01*
X83173000Y-102427000D01*
X83427000Y-102427000D01*
X83427000Y-103173000D01*
X83498750Y-103173000D01*
X83585750Y-103260000D01*
X85726310Y-103260000D01*
X85936346Y-103173000D01*
X86076250Y-103173000D01*
X86235000Y-103014250D01*
X86235000Y-102848691D01*
X86214832Y-102800000D01*
X86235000Y-102751309D01*
X86235000Y-102585750D01*
X86076250Y-102427000D01*
X85936346Y-102427000D01*
X85726310Y-102340000D01*
X83585750Y-102340000D01*
X83498750Y-102427000D01*
X83427000Y-102427000D01*
X83173000Y-102427000D01*
X83153000Y-102427000D01*
X83153000Y-102173000D01*
X83173000Y-102173000D01*
X83173000Y-101427000D01*
X83427000Y-101427000D01*
X83427000Y-102173000D01*
X83498750Y-102173000D01*
X83585750Y-102260000D01*
X85726310Y-102260000D01*
X85936346Y-102173000D01*
X86076250Y-102173000D01*
X86235000Y-102014250D01*
X86235000Y-101848691D01*
X86214832Y-101800000D01*
X86235000Y-101751309D01*
X86235000Y-101585750D01*
X86076250Y-101427000D01*
X85936346Y-101427000D01*
X85726310Y-101340000D01*
X83585750Y-101340000D01*
X83498750Y-101427000D01*
X83427000Y-101427000D01*
X83173000Y-101427000D01*
X83153000Y-101427000D01*
X83153000Y-101173000D01*
X83173000Y-101173000D01*
X83173000Y-100427000D01*
X83427000Y-100427000D01*
X83427000Y-101173000D01*
X83498750Y-101173000D01*
X83585750Y-101260000D01*
X85726310Y-101260000D01*
X85936346Y-101173000D01*
X86076250Y-101173000D01*
X86235000Y-101014250D01*
X86235000Y-100848691D01*
X86214832Y-100800000D01*
X86235000Y-100751309D01*
X86235000Y-100585750D01*
X86076250Y-100427000D01*
X85936346Y-100427000D01*
X85726310Y-100340000D01*
X83585750Y-100340000D01*
X83498750Y-100427000D01*
X83427000Y-100427000D01*
X83173000Y-100427000D01*
X83153000Y-100427000D01*
X83153000Y-100173000D01*
X83173000Y-100173000D01*
X83173000Y-99427000D01*
X83427000Y-99427000D01*
X83427000Y-100173000D01*
X83498750Y-100173000D01*
X83585750Y-100260000D01*
X85726310Y-100260000D01*
X85936346Y-100173000D01*
X86076250Y-100173000D01*
X86235000Y-100014250D01*
X86235000Y-99848691D01*
X86214832Y-99800000D01*
X86235000Y-99751309D01*
X86235000Y-99585750D01*
X86076250Y-99427000D01*
X85936346Y-99427000D01*
X85726310Y-99340000D01*
X83585750Y-99340000D01*
X83498750Y-99427000D01*
X83427000Y-99427000D01*
X83173000Y-99427000D01*
X83153000Y-99427000D01*
X83153000Y-99173000D01*
X83173000Y-99173000D01*
X83173000Y-98427000D01*
X83427000Y-98427000D01*
X83427000Y-99173000D01*
X83498750Y-99173000D01*
X83585750Y-99260000D01*
X85726310Y-99260000D01*
X85936346Y-99173000D01*
X86076250Y-99173000D01*
X86235000Y-99014250D01*
X86235000Y-98848691D01*
X86214832Y-98800000D01*
X86235000Y-98751309D01*
X86235000Y-98585750D01*
X86076250Y-98427000D01*
X85936346Y-98427000D01*
X85726310Y-98340000D01*
X83585750Y-98340000D01*
X83498750Y-98427000D01*
X83427000Y-98427000D01*
X83173000Y-98427000D01*
X83153000Y-98427000D01*
X83153000Y-98173000D01*
X83173000Y-98173000D01*
X83173000Y-97427000D01*
X83427000Y-97427000D01*
X83427000Y-98173000D01*
X83498750Y-98173000D01*
X83585750Y-98260000D01*
X85726310Y-98260000D01*
X85936346Y-98173000D01*
X86076250Y-98173000D01*
X86235000Y-98014250D01*
X86235000Y-97848691D01*
X86214832Y-97800000D01*
X86235000Y-97751309D01*
X86235000Y-97585750D01*
X86076250Y-97427000D01*
X85936346Y-97427000D01*
X85726310Y-97340000D01*
X83585750Y-97340000D01*
X83498750Y-97427000D01*
X83427000Y-97427000D01*
X83173000Y-97427000D01*
X83153000Y-97427000D01*
X83153000Y-97173000D01*
X83173000Y-97173000D01*
X83173000Y-96427000D01*
X83427000Y-96427000D01*
X83427000Y-97173000D01*
X83498750Y-97173000D01*
X83585750Y-97260000D01*
X85726310Y-97260000D01*
X85936346Y-97173000D01*
X86076250Y-97173000D01*
X86235000Y-97014250D01*
X86235000Y-96848691D01*
X86214832Y-96800000D01*
X86235000Y-96751309D01*
X86235000Y-96585750D01*
X86076250Y-96427000D01*
X85936346Y-96427000D01*
X85726310Y-96340000D01*
X83585750Y-96340000D01*
X83498750Y-96427000D01*
X83427000Y-96427000D01*
X83173000Y-96427000D01*
X83153000Y-96427000D01*
X83153000Y-96173000D01*
X83173000Y-96173000D01*
X83173000Y-95427000D01*
X83427000Y-95427000D01*
X83427000Y-96173000D01*
X83498750Y-96173000D01*
X83585750Y-96260000D01*
X85726310Y-96260000D01*
X85936346Y-96173000D01*
X86076250Y-96173000D01*
X86235000Y-96014250D01*
X86235000Y-95848691D01*
X86214832Y-95800000D01*
X86235000Y-95751309D01*
X86235000Y-95585750D01*
X86076250Y-95427000D01*
X85936346Y-95427000D01*
X85726310Y-95340000D01*
X83585750Y-95340000D01*
X83498750Y-95427000D01*
X83427000Y-95427000D01*
X83173000Y-95427000D01*
X83153000Y-95427000D01*
X83153000Y-95173000D01*
X83173000Y-95173000D01*
X83173000Y-94427000D01*
X83427000Y-94427000D01*
X83427000Y-95173000D01*
X83498750Y-95173000D01*
X83585750Y-95260000D01*
X85726310Y-95260000D01*
X85936346Y-95173000D01*
X86076250Y-95173000D01*
X86235000Y-95014250D01*
X86235000Y-94848691D01*
X86214832Y-94800000D01*
X86235000Y-94751309D01*
X86235000Y-94585750D01*
X86076250Y-94427000D01*
X85936346Y-94427000D01*
X85726310Y-94340000D01*
X83585750Y-94340000D01*
X83498750Y-94427000D01*
X83427000Y-94427000D01*
X83173000Y-94427000D01*
X83153000Y-94427000D01*
X83153000Y-94173000D01*
X83173000Y-94173000D01*
X83173000Y-93427000D01*
X83427000Y-93427000D01*
X83427000Y-94173000D01*
X83498750Y-94173000D01*
X83585750Y-94260000D01*
X85726310Y-94260000D01*
X85936346Y-94173000D01*
X86076250Y-94173000D01*
X86235000Y-94014250D01*
X86235000Y-93848691D01*
X86214832Y-93800000D01*
X86235000Y-93751309D01*
X86235000Y-93585750D01*
X86076250Y-93427000D01*
X85936346Y-93427000D01*
X85726310Y-93340000D01*
X83585750Y-93340000D01*
X83498750Y-93427000D01*
X83427000Y-93427000D01*
X83173000Y-93427000D01*
X83153000Y-93427000D01*
X83153000Y-93258000D01*
X88945046Y-93258000D01*
X89000000Y-93268931D01*
X89054954Y-93258000D01*
X89217720Y-93225624D01*
X89402295Y-93102295D01*
X89525624Y-92917720D01*
X89545183Y-92819388D01*
X98592000Y-92819388D01*
X98592000Y-93180612D01*
X98730235Y-93514341D01*
X98985659Y-93769765D01*
X99319388Y-93908000D01*
X99680612Y-93908000D01*
X100014341Y-93769765D01*
X100085606Y-93698500D01*
X102210673Y-93698500D01*
X107592000Y-99079828D01*
X107592000Y-99180612D01*
X107730235Y-99514341D01*
X107985659Y-99769765D01*
X108319388Y-99908000D01*
X108680612Y-99908000D01*
X109014341Y-99769765D01*
X109237124Y-99546982D01*
X113093658Y-103403516D01*
X113128972Y-103456367D01*
X113181823Y-103491681D01*
X113181824Y-103491682D01*
X113338354Y-103596273D01*
X113381794Y-103604914D01*
X113522995Y-103633000D01*
X113522998Y-103633000D01*
X113585339Y-103645400D01*
X113647679Y-103633000D01*
X133348894Y-103633000D01*
X133485659Y-103769765D01*
X133819388Y-103908000D01*
X134180612Y-103908000D01*
X134514341Y-103769765D01*
X134769765Y-103514341D01*
X134908000Y-103180612D01*
X134908000Y-102819388D01*
X134769765Y-102485659D01*
X134514341Y-102230235D01*
X134180612Y-102092000D01*
X133819388Y-102092000D01*
X133485659Y-102230235D01*
X133348894Y-102367000D01*
X113847536Y-102367000D01*
X105658705Y-94178170D01*
X105875305Y-93961570D01*
X105897468Y-93908064D01*
X106180612Y-93908064D01*
X106514341Y-93769829D01*
X106769765Y-93514405D01*
X106908000Y-93180676D01*
X106908000Y-92819452D01*
X106769765Y-92485723D01*
X106514341Y-92230299D01*
X106180612Y-92092064D01*
X105987197Y-92092064D01*
X104333000Y-90437868D01*
X104333000Y-88133000D01*
X104512804Y-88133000D01*
X106283319Y-89903516D01*
X106318633Y-89956367D01*
X106371484Y-89991681D01*
X106371485Y-89991682D01*
X106405397Y-90014341D01*
X106528016Y-90096273D01*
X106712656Y-90133000D01*
X106712661Y-90133000D01*
X106775000Y-90145400D01*
X106837339Y-90133000D01*
X111637661Y-90133000D01*
X111666803Y-90138797D01*
X111592000Y-90319388D01*
X111592000Y-90680612D01*
X111730235Y-91014341D01*
X111985659Y-91269765D01*
X112319388Y-91408000D01*
X112680612Y-91408000D01*
X113014341Y-91269765D01*
X113269765Y-91014341D01*
X113408000Y-90680612D01*
X113408000Y-90319388D01*
X113269765Y-89985659D01*
X113198500Y-89914394D01*
X113198500Y-89718369D01*
X115110134Y-87806735D01*
X156079347Y-87806735D01*
X156079347Y-88167959D01*
X156217582Y-88501688D01*
X156221834Y-88505940D01*
X156092000Y-88819388D01*
X156092000Y-89180612D01*
X156230235Y-89514341D01*
X156485659Y-89769765D01*
X156819388Y-89908000D01*
X157180612Y-89908000D01*
X157514341Y-89769765D01*
X157769765Y-89514341D01*
X157908000Y-89180612D01*
X157908000Y-88987196D01*
X158403516Y-88491681D01*
X158456367Y-88456367D01*
X158491682Y-88403515D01*
X158596273Y-88246985D01*
X158618686Y-88134306D01*
X158633000Y-88062344D01*
X158633000Y-88062341D01*
X158645400Y-88000000D01*
X158633000Y-87937660D01*
X158633000Y-85651106D01*
X158769765Y-85514341D01*
X158908000Y-85180612D01*
X158908000Y-84819388D01*
X158769765Y-84485659D01*
X158514341Y-84230235D01*
X158180612Y-84092000D01*
X157819388Y-84092000D01*
X157500000Y-84224295D01*
X157180612Y-84092000D01*
X156819388Y-84092000D01*
X156485659Y-84230235D01*
X156230235Y-84485659D01*
X156092000Y-84819388D01*
X156092000Y-85180612D01*
X156230235Y-85514341D01*
X156354348Y-85638454D01*
X156354347Y-87336241D01*
X156217582Y-87473006D01*
X156079347Y-87806735D01*
X115110134Y-87806735D01*
X115718370Y-87198500D01*
X115914394Y-87198500D01*
X115985659Y-87269765D01*
X116319388Y-87408000D01*
X116680612Y-87408000D01*
X117014341Y-87269765D01*
X117269765Y-87014341D01*
X117408000Y-86680612D01*
X117408000Y-86319388D01*
X117330796Y-86133000D01*
X117348894Y-86133000D01*
X117485659Y-86269765D01*
X117819388Y-86408000D01*
X118180612Y-86408000D01*
X118514341Y-86269765D01*
X118769765Y-86014341D01*
X118908000Y-85680612D01*
X118908000Y-85319388D01*
X118769765Y-84985659D01*
X118514341Y-84730235D01*
X118180612Y-84592000D01*
X117819388Y-84592000D01*
X117485659Y-84730235D01*
X117348894Y-84867000D01*
X117301701Y-84867000D01*
X117301701Y-84594378D01*
X117163466Y-84260649D01*
X116908042Y-84005225D01*
X116574313Y-83866990D01*
X116213089Y-83866990D01*
X115879360Y-84005225D01*
X115746651Y-84137934D01*
X115726259Y-84141990D01*
X115726256Y-84141990D01*
X115713000Y-84144627D01*
X115713000Y-78226652D01*
X116068868Y-77988868D01*
X116372019Y-77535172D01*
X116478471Y-77000000D01*
X116372019Y-76464828D01*
X116068868Y-76011132D01*
X115738992Y-75790715D01*
X115854947Y-75742688D01*
X116286821Y-75348490D01*
X116534968Y-74819027D01*
X116414469Y-74587000D01*
X115207000Y-74587000D01*
X115207000Y-74607000D01*
X114953000Y-74607000D01*
X114953000Y-74587000D01*
X114933000Y-74587000D01*
X114933000Y-74333000D01*
X114953000Y-74333000D01*
X114953000Y-73126183D01*
X115207000Y-73126183D01*
X115207000Y-74333000D01*
X116414469Y-74333000D01*
X116534968Y-74100973D01*
X116402996Y-73819388D01*
X119592000Y-73819388D01*
X119592000Y-74180612D01*
X119730235Y-74514341D01*
X119985659Y-74769765D01*
X120319388Y-74908000D01*
X120420173Y-74908000D01*
X123092000Y-77579828D01*
X123092000Y-77680612D01*
X123230235Y-78014341D01*
X123485659Y-78269765D01*
X123819388Y-78408000D01*
X124180612Y-78408000D01*
X124514341Y-78269765D01*
X124769765Y-78014341D01*
X124908000Y-77680612D01*
X124908000Y-77319388D01*
X124769765Y-76985659D01*
X124514341Y-76730235D01*
X124180612Y-76592000D01*
X124079828Y-76592000D01*
X122068521Y-74580693D01*
X152892000Y-74580693D01*
X152892000Y-75419307D01*
X153212924Y-76194086D01*
X153805914Y-76787076D01*
X154580693Y-77108000D01*
X155419307Y-77108000D01*
X156194086Y-76787076D01*
X156787076Y-76194086D01*
X157108000Y-75419307D01*
X157108000Y-74580693D01*
X156787076Y-73805914D01*
X156194086Y-73212924D01*
X155419307Y-72892000D01*
X154580693Y-72892000D01*
X153805914Y-73212924D01*
X153212924Y-73805914D01*
X152892000Y-74580693D01*
X122068521Y-74580693D01*
X121408000Y-73920173D01*
X121408000Y-73819388D01*
X121269765Y-73485659D01*
X121014341Y-73230235D01*
X120680612Y-73092000D01*
X120319388Y-73092000D01*
X119985659Y-73230235D01*
X119730235Y-73485659D01*
X119592000Y-73819388D01*
X116402996Y-73819388D01*
X116286821Y-73571510D01*
X115854947Y-73177312D01*
X115439026Y-73005042D01*
X115207000Y-73126183D01*
X114953000Y-73126183D01*
X114720974Y-73005042D01*
X114305053Y-73177312D01*
X113873179Y-73571510D01*
X113758885Y-73815375D01*
X113528868Y-73471132D01*
X113075172Y-73167981D01*
X112675090Y-73088400D01*
X112404910Y-73088400D01*
X112004828Y-73167981D01*
X111551132Y-73471132D01*
X111270000Y-73891874D01*
X110988868Y-73471132D01*
X110535172Y-73167981D01*
X110135090Y-73088400D01*
X109864910Y-73088400D01*
X109464828Y-73167981D01*
X109011132Y-73471132D01*
X108707981Y-73924828D01*
X108601529Y-74460000D01*
X108707981Y-74995172D01*
X109011132Y-75448868D01*
X109264926Y-75618448D01*
X109136400Y-75618448D01*
X108938188Y-75657875D01*
X108770153Y-75770153D01*
X108657875Y-75938188D01*
X108618448Y-76136400D01*
X108618448Y-77863600D01*
X108657875Y-78061812D01*
X108770153Y-78229847D01*
X108938188Y-78342125D01*
X109136400Y-78381552D01*
X110863600Y-78381552D01*
X111061812Y-78342125D01*
X111229847Y-78229847D01*
X111342125Y-78061812D01*
X111381552Y-77863600D01*
X111381552Y-77735074D01*
X111551132Y-77988868D01*
X112004828Y-78292019D01*
X112404910Y-78371600D01*
X112675090Y-78371600D01*
X113075172Y-78292019D01*
X113528868Y-77988868D01*
X113810000Y-77568126D01*
X114091132Y-77988868D01*
X114447001Y-78226653D01*
X114447000Y-84457802D01*
X111537804Y-87367000D01*
X108851110Y-87367000D01*
X108714345Y-87230235D01*
X108380616Y-87092000D01*
X108019392Y-87092000D01*
X107685663Y-87230235D01*
X107430239Y-87485659D01*
X107415775Y-87520578D01*
X106395347Y-86500151D01*
X106395347Y-86306735D01*
X106257112Y-85973006D01*
X106001688Y-85717582D01*
X105667959Y-85579347D01*
X105306735Y-85579347D01*
X104973006Y-85717582D01*
X104717582Y-85973006D01*
X104579347Y-86306735D01*
X104579347Y-86317000D01*
X104333000Y-86317000D01*
X104333000Y-82762338D01*
X104345400Y-82699999D01*
X104333000Y-82637660D01*
X104333000Y-82637656D01*
X104296273Y-82453016D01*
X104263197Y-82403514D01*
X104191682Y-82296484D01*
X104191679Y-82296481D01*
X104156367Y-82243633D01*
X104103519Y-82208321D01*
X103908000Y-82012803D01*
X103908000Y-81819388D01*
X103769765Y-81485659D01*
X103514341Y-81230235D01*
X103180612Y-81092000D01*
X102819388Y-81092000D01*
X102485659Y-81230235D01*
X102230235Y-81485659D01*
X102092000Y-81819388D01*
X102092000Y-81996804D01*
X101908000Y-81812804D01*
X101908000Y-81619388D01*
X101769765Y-81285659D01*
X101514341Y-81030235D01*
X101180612Y-80892000D01*
X100819388Y-80892000D01*
X100485659Y-81030235D01*
X100230235Y-81285659D01*
X100092000Y-81619388D01*
X100092000Y-81980612D01*
X100230235Y-82314341D01*
X100485659Y-82569765D01*
X100819388Y-82708000D01*
X101012804Y-82708000D01*
X102567000Y-84262197D01*
X102567001Y-88682895D01*
X102514341Y-88630235D01*
X102180612Y-88492000D01*
X101819388Y-88492000D01*
X101485659Y-88630235D01*
X101230235Y-88885659D01*
X101092000Y-89219388D01*
X101092000Y-89580612D01*
X101230235Y-89914341D01*
X101367001Y-90051107D01*
X101367000Y-91352321D01*
X101354600Y-91414661D01*
X101367000Y-91477000D01*
X101367000Y-91477004D01*
X101403727Y-91661644D01*
X101543633Y-91871028D01*
X101596487Y-91906344D01*
X101991643Y-92301500D01*
X100085606Y-92301500D01*
X100014341Y-92230235D01*
X99680612Y-92092000D01*
X99319388Y-92092000D01*
X98985659Y-92230235D01*
X98730235Y-92485659D01*
X98592000Y-92819388D01*
X89545183Y-92819388D01*
X89568931Y-92700000D01*
X89558000Y-92645046D01*
X89558000Y-90954954D01*
X89568931Y-90900000D01*
X89525624Y-90682280D01*
X89402295Y-90497705D01*
X89217720Y-90374376D01*
X89054954Y-90342000D01*
X89000000Y-90331069D01*
X88945046Y-90342000D01*
X83153000Y-90342000D01*
X83153000Y-90173000D01*
X83173000Y-90173000D01*
X83173000Y-89427000D01*
X83427000Y-89427000D01*
X83427000Y-90173000D01*
X83498750Y-90173000D01*
X83585750Y-90260000D01*
X85726310Y-90260000D01*
X85936346Y-90173000D01*
X86076250Y-90173000D01*
X86235000Y-90014250D01*
X86235000Y-89848691D01*
X86214832Y-89800000D01*
X86235000Y-89751309D01*
X86235000Y-89585750D01*
X86076250Y-89427000D01*
X85936346Y-89427000D01*
X85726310Y-89340000D01*
X83585750Y-89340000D01*
X83498750Y-89427000D01*
X83427000Y-89427000D01*
X83173000Y-89427000D01*
X83153000Y-89427000D01*
X83153000Y-89173000D01*
X83173000Y-89173000D01*
X83173000Y-88427000D01*
X83427000Y-88427000D01*
X83427000Y-89173000D01*
X83498750Y-89173000D01*
X83585750Y-89260000D01*
X85726310Y-89260000D01*
X85936346Y-89173000D01*
X86076250Y-89173000D01*
X86235000Y-89014250D01*
X86235000Y-88848691D01*
X86214832Y-88800000D01*
X86235000Y-88751309D01*
X86235000Y-88585750D01*
X86076250Y-88427000D01*
X85936346Y-88427000D01*
X85726310Y-88340000D01*
X83585750Y-88340000D01*
X83498750Y-88427000D01*
X83427000Y-88427000D01*
X83173000Y-88427000D01*
X83153000Y-88427000D01*
X83153000Y-88173000D01*
X83173000Y-88173000D01*
X83173000Y-87427000D01*
X83427000Y-87427000D01*
X83427000Y-88173000D01*
X83498750Y-88173000D01*
X83585750Y-88260000D01*
X85726310Y-88260000D01*
X85936346Y-88173000D01*
X86076250Y-88173000D01*
X86235000Y-88014250D01*
X86235000Y-87848691D01*
X86214832Y-87800000D01*
X86235000Y-87751309D01*
X86235000Y-87585750D01*
X86076250Y-87427000D01*
X85936346Y-87427000D01*
X85726310Y-87340000D01*
X83585750Y-87340000D01*
X83498750Y-87427000D01*
X83427000Y-87427000D01*
X83173000Y-87427000D01*
X83153000Y-87427000D01*
X83153000Y-87173000D01*
X83173000Y-87173000D01*
X83173000Y-86427000D01*
X83153000Y-86427000D01*
X83153000Y-86173000D01*
X83173000Y-86173000D01*
X83173000Y-86153000D01*
X83427000Y-86153000D01*
X83427000Y-86173000D01*
X83447000Y-86173000D01*
X83447000Y-86427000D01*
X83427000Y-86427000D01*
X83427000Y-87173000D01*
X83498750Y-87173000D01*
X83585750Y-87260000D01*
X85726310Y-87260000D01*
X85936346Y-87173000D01*
X86076250Y-87173000D01*
X86235000Y-87014250D01*
X86235000Y-86848691D01*
X86214832Y-86800000D01*
X86235000Y-86751309D01*
X86235000Y-86585750D01*
X86076252Y-86427002D01*
X86235000Y-86427002D01*
X86235000Y-86373045D01*
X86319388Y-86408000D01*
X86680612Y-86408000D01*
X86894540Y-86319388D01*
X91092000Y-86319388D01*
X91092000Y-86680612D01*
X91230235Y-87014341D01*
X91367000Y-87151106D01*
X91367001Y-88937636D01*
X91354600Y-88999980D01*
X91403728Y-89246964D01*
X91508318Y-89403494D01*
X91508320Y-89403496D01*
X91543634Y-89456347D01*
X91592020Y-89488678D01*
X91592020Y-89680612D01*
X91730255Y-90014341D01*
X91985679Y-90269765D01*
X92319408Y-90408000D01*
X92680632Y-90408000D01*
X93014361Y-90269765D01*
X93150012Y-90134114D01*
X93385663Y-90369765D01*
X93719392Y-90508000D01*
X94080616Y-90508000D01*
X94414345Y-90369765D01*
X94669769Y-90114341D01*
X94808004Y-89780612D01*
X94808004Y-89419388D01*
X94669769Y-89085659D01*
X94414345Y-88830235D01*
X94080616Y-88692000D01*
X93887201Y-88692000D01*
X93633000Y-88437800D01*
X93633000Y-87663606D01*
X93769765Y-87526841D01*
X93908000Y-87193112D01*
X93908000Y-86831888D01*
X93769765Y-86498159D01*
X93514341Y-86242735D01*
X93180612Y-86104500D01*
X92819388Y-86104500D01*
X92819049Y-86104641D01*
X92769765Y-85985659D01*
X92514341Y-85730235D01*
X92180612Y-85592000D01*
X91819388Y-85592000D01*
X91485659Y-85730235D01*
X91230235Y-85985659D01*
X91092000Y-86319388D01*
X86894540Y-86319388D01*
X87014341Y-86269765D01*
X87269765Y-86014341D01*
X87408000Y-85680612D01*
X87408000Y-85319388D01*
X87269765Y-84985659D01*
X87014341Y-84730235D01*
X86680612Y-84592000D01*
X86321030Y-84592000D01*
X86300000Y-84587817D01*
X86235000Y-84600746D01*
X86235000Y-84585750D01*
X86076250Y-84427000D01*
X83427000Y-84427000D01*
X83427000Y-84447000D01*
X83173000Y-84447000D01*
X83173000Y-84427000D01*
X83153000Y-84427000D01*
X83153000Y-84173000D01*
X83173000Y-84173000D01*
X83173000Y-84158000D01*
X83427000Y-84158000D01*
X83427000Y-84173000D01*
X86076250Y-84173000D01*
X86091250Y-84158000D01*
X88945046Y-84158000D01*
X89000000Y-84168931D01*
X89054954Y-84158000D01*
X89217720Y-84125624D01*
X89402295Y-84002295D01*
X89525624Y-83817720D01*
X89568931Y-83600000D01*
X89558000Y-83545046D01*
X89558000Y-79319388D01*
X92092000Y-79319388D01*
X92092000Y-79680612D01*
X92230235Y-80014341D01*
X92485659Y-80269765D01*
X92819388Y-80408000D01*
X92920173Y-80408000D01*
X94592000Y-82079828D01*
X94592000Y-82180612D01*
X94730235Y-82514341D01*
X94985659Y-82769765D01*
X95319388Y-82908000D01*
X95680612Y-82908000D01*
X96014341Y-82769765D01*
X96269765Y-82514341D01*
X96408000Y-82180612D01*
X96408000Y-81819388D01*
X96269765Y-81485659D01*
X96014341Y-81230235D01*
X95680612Y-81092000D01*
X95579828Y-81092000D01*
X93908000Y-79420173D01*
X93908000Y-79319388D01*
X93769765Y-78985659D01*
X93514341Y-78730235D01*
X93180612Y-78592000D01*
X92819388Y-78592000D01*
X92485659Y-78730235D01*
X92230235Y-78985659D01*
X92092000Y-79319388D01*
X89558000Y-79319388D01*
X89558000Y-76819388D01*
X97092000Y-76819388D01*
X97092000Y-77180612D01*
X97230235Y-77514341D01*
X97367000Y-77651106D01*
X97367001Y-79336393D01*
X97230235Y-79473159D01*
X97092000Y-79806888D01*
X97092000Y-80168112D01*
X97230235Y-80501841D01*
X97485659Y-80757265D01*
X97819388Y-80895500D01*
X98180612Y-80895500D01*
X98514341Y-80757265D01*
X98769765Y-80501841D01*
X98908000Y-80168112D01*
X98908000Y-79806888D01*
X98769765Y-79473159D01*
X98633000Y-79336394D01*
X98633000Y-77651106D01*
X98769765Y-77514341D01*
X98908000Y-77180612D01*
X98908000Y-76819388D01*
X98769765Y-76485659D01*
X98514341Y-76230235D01*
X98180612Y-76092000D01*
X97819388Y-76092000D01*
X97485659Y-76230235D01*
X97230235Y-76485659D01*
X97092000Y-76819388D01*
X89558000Y-76819388D01*
X89558000Y-72150000D01*
X125632048Y-72150000D01*
X125632048Y-73850000D01*
X125671475Y-74048212D01*
X125783753Y-74216247D01*
X125951788Y-74328525D01*
X126150000Y-74367952D01*
X127850000Y-74367952D01*
X128048212Y-74328525D01*
X128216247Y-74216247D01*
X128328525Y-74048212D01*
X128367952Y-73850000D01*
X128367952Y-73690240D01*
X128560937Y-73979063D01*
X129010135Y-74279207D01*
X129406253Y-74358000D01*
X129673747Y-74358000D01*
X130069865Y-74279207D01*
X130519063Y-73979063D01*
X130810000Y-73543644D01*
X131100937Y-73979063D01*
X131550135Y-74279207D01*
X131946253Y-74358000D01*
X132213747Y-74358000D01*
X132609865Y-74279207D01*
X133059063Y-73979063D01*
X133350000Y-73543644D01*
X133640937Y-73979063D01*
X134090135Y-74279207D01*
X134486253Y-74358000D01*
X134753747Y-74358000D01*
X135149865Y-74279207D01*
X135599063Y-73979063D01*
X135840799Y-73617279D01*
X135964817Y-73881358D01*
X136393076Y-74271645D01*
X136803110Y-74441476D01*
X137033000Y-74320155D01*
X137033000Y-73127000D01*
X137287000Y-73127000D01*
X137287000Y-74320155D01*
X137516890Y-74441476D01*
X137926924Y-74271645D01*
X138355183Y-73881358D01*
X138430000Y-73722046D01*
X138504817Y-73881358D01*
X138933076Y-74271645D01*
X139343110Y-74441476D01*
X139573000Y-74320155D01*
X139573000Y-73127000D01*
X139827000Y-73127000D01*
X139827000Y-74320155D01*
X140056890Y-74441476D01*
X140466924Y-74271645D01*
X140895183Y-73881358D01*
X141141486Y-73356892D01*
X141020819Y-73127000D01*
X139827000Y-73127000D01*
X139573000Y-73127000D01*
X137287000Y-73127000D01*
X137033000Y-73127000D01*
X137013000Y-73127000D01*
X137013000Y-72873000D01*
X137033000Y-72873000D01*
X137033000Y-71679845D01*
X137287000Y-71679845D01*
X137287000Y-72873000D01*
X139573000Y-72873000D01*
X139573000Y-71679845D01*
X139827000Y-71679845D01*
X139827000Y-72873000D01*
X141020819Y-72873000D01*
X141141486Y-72643108D01*
X140895183Y-72118642D01*
X140466924Y-71728355D01*
X140056890Y-71558524D01*
X139827000Y-71679845D01*
X139573000Y-71679845D01*
X139343110Y-71558524D01*
X138933076Y-71728355D01*
X138504817Y-72118642D01*
X138430000Y-72277954D01*
X138355183Y-72118642D01*
X137926924Y-71728355D01*
X137516890Y-71558524D01*
X137287000Y-71679845D01*
X137033000Y-71679845D01*
X136803110Y-71558524D01*
X136393076Y-71728355D01*
X135964817Y-72118642D01*
X135840799Y-72382721D01*
X135599063Y-72020937D01*
X135149865Y-71720793D01*
X134753747Y-71642000D01*
X134486253Y-71642000D01*
X134090135Y-71720793D01*
X133640937Y-72020937D01*
X133350000Y-72456356D01*
X133059063Y-72020937D01*
X132609865Y-71720793D01*
X132213747Y-71642000D01*
X131946253Y-71642000D01*
X131550135Y-71720793D01*
X131100937Y-72020937D01*
X130810000Y-72456356D01*
X130519063Y-72020937D01*
X130069865Y-71720793D01*
X129673747Y-71642000D01*
X129406253Y-71642000D01*
X129010135Y-71720793D01*
X128560937Y-72020937D01*
X128367952Y-72309760D01*
X128367952Y-72150000D01*
X128328525Y-71951788D01*
X128216247Y-71783753D01*
X128048212Y-71671475D01*
X127850000Y-71632048D01*
X126150000Y-71632048D01*
X125951788Y-71671475D01*
X125783753Y-71783753D01*
X125671475Y-71951788D01*
X125632048Y-72150000D01*
X89558000Y-72150000D01*
X89558000Y-71231130D01*
X90231131Y-70558000D01*
X158768870Y-70558000D01*
X159442000Y-71231131D01*
X159442000Y-71231131D01*
G37*
X159442000Y-71231131D02*
X159442001Y-128768868D01*
X158768870Y-129442000D01*
X93866750Y-129442000D01*
X93866750Y-124580693D01*
X152892000Y-124580693D01*
X152892000Y-125419307D01*
X153212924Y-126194086D01*
X153805914Y-126787076D01*
X154580693Y-127108000D01*
X155419307Y-127108000D01*
X156194086Y-126787076D01*
X156787076Y-126194086D01*
X157108000Y-125419307D01*
X157108000Y-124580693D01*
X156787076Y-123805914D01*
X156194086Y-123212924D01*
X155419307Y-122892000D01*
X154580693Y-122892000D01*
X153805914Y-123212924D01*
X153212924Y-123805914D01*
X152892000Y-124580693D01*
X93866750Y-124580693D01*
X93866750Y-115509857D01*
X90225750Y-115509857D01*
X90225750Y-129436619D01*
X89558000Y-128768870D01*
X89558000Y-112791600D01*
X100605427Y-112791600D01*
X100605427Y-113152824D01*
X100743662Y-113486553D01*
X100999086Y-113741977D01*
X101332815Y-113880212D01*
X101694039Y-113880212D01*
X102027768Y-113741977D01*
X102283192Y-113486553D01*
X102421427Y-113152824D01*
X102421427Y-112959408D01*
X106247836Y-109133000D01*
X107848894Y-109133000D01*
X107985659Y-109269765D01*
X108319388Y-109408000D01*
X108680612Y-109408000D01*
X109014341Y-109269765D01*
X109269765Y-109014341D01*
X109408000Y-108680612D01*
X109408000Y-108319388D01*
X109269765Y-107985659D01*
X109140996Y-107856890D01*
X147808524Y-107856890D01*
X147829648Y-107967491D01*
X148116667Y-108475451D01*
X148576226Y-108834907D01*
X149138361Y-108991135D01*
X149373000Y-108831491D01*
X149373000Y-107627000D01*
X149627000Y-107627000D01*
X149627000Y-108831491D01*
X149861639Y-108991135D01*
X150423774Y-108834907D01*
X150883333Y-108475451D01*
X151170352Y-107967491D01*
X151191476Y-107856890D01*
X151070155Y-107627000D01*
X149627000Y-107627000D01*
X149373000Y-107627000D01*
X147929845Y-107627000D01*
X147808524Y-107856890D01*
X109140996Y-107856890D01*
X109014341Y-107730235D01*
X108680612Y-107592000D01*
X108319388Y-107592000D01*
X107985659Y-107730235D01*
X107848894Y-107867000D01*
X106047978Y-107867000D01*
X105985639Y-107854600D01*
X105923300Y-107867000D01*
X105923295Y-107867000D01*
X105738655Y-107903727D01*
X105529272Y-108043633D01*
X105493958Y-108096484D01*
X101526231Y-112064212D01*
X101332815Y-112064212D01*
X100999086Y-112202447D01*
X100743662Y-112457871D01*
X100605427Y-112791600D01*
X89558000Y-112791600D01*
X89558000Y-107143110D01*
X147808524Y-107143110D01*
X147929845Y-107373000D01*
X149373000Y-107373000D01*
X149373000Y-107353000D01*
X149627000Y-107353000D01*
X149627000Y-107373000D01*
X151070155Y-107373000D01*
X151191476Y-107143110D01*
X151170352Y-107032509D01*
X150883333Y-106524549D01*
X150615586Y-106315124D01*
X150643883Y-106309495D01*
X150893024Y-106143024D01*
X151059495Y-105893883D01*
X151117952Y-105600000D01*
X151117952Y-104729877D01*
X155322000Y-104729877D01*
X155322000Y-105270123D01*
X155528743Y-105769245D01*
X155910755Y-106151257D01*
X156149142Y-106250000D01*
X155910755Y-106348743D01*
X155528743Y-106730755D01*
X155322000Y-107229877D01*
X155322000Y-107770123D01*
X155528743Y-108269245D01*
X155910755Y-108651257D01*
X156409877Y-108858000D01*
X156950123Y-108858000D01*
X157449245Y-108651257D01*
X157831257Y-108269245D01*
X158038000Y-107770123D01*
X158038000Y-107229877D01*
X157831257Y-106730755D01*
X157449245Y-106348743D01*
X157210858Y-106250000D01*
X157449245Y-106151257D01*
X157831257Y-105769245D01*
X158038000Y-105270123D01*
X158038000Y-104729877D01*
X157831257Y-104230755D01*
X157449245Y-103848743D01*
X156950123Y-103642000D01*
X156409877Y-103642000D01*
X155910755Y-103848743D01*
X155528743Y-104230755D01*
X155322000Y-104729877D01*
X151117952Y-104729877D01*
X151117952Y-104400000D01*
X151059495Y-104106117D01*
X150893024Y-103856976D01*
X150643883Y-103690505D01*
X150350000Y-103632048D01*
X148650000Y-103632048D01*
X148356117Y-103690505D01*
X148106976Y-103856976D01*
X147940505Y-104106117D01*
X147882048Y-104400000D01*
X147882048Y-105600000D01*
X147940505Y-105893883D01*
X148106976Y-106143024D01*
X148356117Y-106309495D01*
X148384414Y-106315124D01*
X148116667Y-106524549D01*
X147829648Y-107032509D01*
X147808524Y-107143110D01*
X89558000Y-107143110D01*
X89558000Y-104054954D01*
X89568931Y-104000000D01*
X89525624Y-103782280D01*
X89402295Y-103597705D01*
X89217720Y-103474376D01*
X89054954Y-103442000D01*
X89000000Y-103431069D01*
X88945046Y-103442000D01*
X86091250Y-103442000D01*
X86076250Y-103427000D01*
X83427000Y-103427000D01*
X83427000Y-103442000D01*
X83173000Y-103442000D01*
X83173000Y-103427000D01*
X83153000Y-103427000D01*
X83153000Y-103173000D01*
X83173000Y-103173000D01*
X83173000Y-102427000D01*
X83427000Y-102427000D01*
X83427000Y-103173000D01*
X83498750Y-103173000D01*
X83585750Y-103260000D01*
X85726310Y-103260000D01*
X85936346Y-103173000D01*
X86076250Y-103173000D01*
X86235000Y-103014250D01*
X86235000Y-102848691D01*
X86214832Y-102800000D01*
X86235000Y-102751309D01*
X86235000Y-102585750D01*
X86076250Y-102427000D01*
X85936346Y-102427000D01*
X85726310Y-102340000D01*
X83585750Y-102340000D01*
X83498750Y-102427000D01*
X83427000Y-102427000D01*
X83173000Y-102427000D01*
X83153000Y-102427000D01*
X83153000Y-102173000D01*
X83173000Y-102173000D01*
X83173000Y-101427000D01*
X83427000Y-101427000D01*
X83427000Y-102173000D01*
X83498750Y-102173000D01*
X83585750Y-102260000D01*
X85726310Y-102260000D01*
X85936346Y-102173000D01*
X86076250Y-102173000D01*
X86235000Y-102014250D01*
X86235000Y-101848691D01*
X86214832Y-101800000D01*
X86235000Y-101751309D01*
X86235000Y-101585750D01*
X86076250Y-101427000D01*
X85936346Y-101427000D01*
X85726310Y-101340000D01*
X83585750Y-101340000D01*
X83498750Y-101427000D01*
X83427000Y-101427000D01*
X83173000Y-101427000D01*
X83153000Y-101427000D01*
X83153000Y-101173000D01*
X83173000Y-101173000D01*
X83173000Y-100427000D01*
X83427000Y-100427000D01*
X83427000Y-101173000D01*
X83498750Y-101173000D01*
X83585750Y-101260000D01*
X85726310Y-101260000D01*
X85936346Y-101173000D01*
X86076250Y-101173000D01*
X86235000Y-101014250D01*
X86235000Y-100848691D01*
X86214832Y-100800000D01*
X86235000Y-100751309D01*
X86235000Y-100585750D01*
X86076250Y-100427000D01*
X85936346Y-100427000D01*
X85726310Y-100340000D01*
X83585750Y-100340000D01*
X83498750Y-100427000D01*
X83427000Y-100427000D01*
X83173000Y-100427000D01*
X83153000Y-100427000D01*
X83153000Y-100173000D01*
X83173000Y-100173000D01*
X83173000Y-99427000D01*
X83427000Y-99427000D01*
X83427000Y-100173000D01*
X83498750Y-100173000D01*
X83585750Y-100260000D01*
X85726310Y-100260000D01*
X85936346Y-100173000D01*
X86076250Y-100173000D01*
X86235000Y-100014250D01*
X86235000Y-99848691D01*
X86214832Y-99800000D01*
X86235000Y-99751309D01*
X86235000Y-99585750D01*
X86076250Y-99427000D01*
X85936346Y-99427000D01*
X85726310Y-99340000D01*
X83585750Y-99340000D01*
X83498750Y-99427000D01*
X83427000Y-99427000D01*
X83173000Y-99427000D01*
X83153000Y-99427000D01*
X83153000Y-99173000D01*
X83173000Y-99173000D01*
X83173000Y-98427000D01*
X83427000Y-98427000D01*
X83427000Y-99173000D01*
X83498750Y-99173000D01*
X83585750Y-99260000D01*
X85726310Y-99260000D01*
X85936346Y-99173000D01*
X86076250Y-99173000D01*
X86235000Y-99014250D01*
X86235000Y-98848691D01*
X86214832Y-98800000D01*
X86235000Y-98751309D01*
X86235000Y-98585750D01*
X86076250Y-98427000D01*
X85936346Y-98427000D01*
X85726310Y-98340000D01*
X83585750Y-98340000D01*
X83498750Y-98427000D01*
X83427000Y-98427000D01*
X83173000Y-98427000D01*
X83153000Y-98427000D01*
X83153000Y-98173000D01*
X83173000Y-98173000D01*
X83173000Y-97427000D01*
X83427000Y-97427000D01*
X83427000Y-98173000D01*
X83498750Y-98173000D01*
X83585750Y-98260000D01*
X85726310Y-98260000D01*
X85936346Y-98173000D01*
X86076250Y-98173000D01*
X86235000Y-98014250D01*
X86235000Y-97848691D01*
X86214832Y-97800000D01*
X86235000Y-97751309D01*
X86235000Y-97585750D01*
X86076250Y-97427000D01*
X85936346Y-97427000D01*
X85726310Y-97340000D01*
X83585750Y-97340000D01*
X83498750Y-97427000D01*
X83427000Y-97427000D01*
X83173000Y-97427000D01*
X83153000Y-97427000D01*
X83153000Y-97173000D01*
X83173000Y-97173000D01*
X83173000Y-96427000D01*
X83427000Y-96427000D01*
X83427000Y-97173000D01*
X83498750Y-97173000D01*
X83585750Y-97260000D01*
X85726310Y-97260000D01*
X85936346Y-97173000D01*
X86076250Y-97173000D01*
X86235000Y-97014250D01*
X86235000Y-96848691D01*
X86214832Y-96800000D01*
X86235000Y-96751309D01*
X86235000Y-96585750D01*
X86076250Y-96427000D01*
X85936346Y-96427000D01*
X85726310Y-96340000D01*
X83585750Y-96340000D01*
X83498750Y-96427000D01*
X83427000Y-96427000D01*
X83173000Y-96427000D01*
X83153000Y-96427000D01*
X83153000Y-96173000D01*
X83173000Y-96173000D01*
X83173000Y-95427000D01*
X83427000Y-95427000D01*
X83427000Y-96173000D01*
X83498750Y-96173000D01*
X83585750Y-96260000D01*
X85726310Y-96260000D01*
X85936346Y-96173000D01*
X86076250Y-96173000D01*
X86235000Y-96014250D01*
X86235000Y-95848691D01*
X86214832Y-95800000D01*
X86235000Y-95751309D01*
X86235000Y-95585750D01*
X86076250Y-95427000D01*
X85936346Y-95427000D01*
X85726310Y-95340000D01*
X83585750Y-95340000D01*
X83498750Y-95427000D01*
X83427000Y-95427000D01*
X83173000Y-95427000D01*
X83153000Y-95427000D01*
X83153000Y-95173000D01*
X83173000Y-95173000D01*
X83173000Y-94427000D01*
X83427000Y-94427000D01*
X83427000Y-95173000D01*
X83498750Y-95173000D01*
X83585750Y-95260000D01*
X85726310Y-95260000D01*
X85936346Y-95173000D01*
X86076250Y-95173000D01*
X86235000Y-95014250D01*
X86235000Y-94848691D01*
X86214832Y-94800000D01*
X86235000Y-94751309D01*
X86235000Y-94585750D01*
X86076250Y-94427000D01*
X85936346Y-94427000D01*
X85726310Y-94340000D01*
X83585750Y-94340000D01*
X83498750Y-94427000D01*
X83427000Y-94427000D01*
X83173000Y-94427000D01*
X83153000Y-94427000D01*
X83153000Y-94173000D01*
X83173000Y-94173000D01*
X83173000Y-93427000D01*
X83427000Y-93427000D01*
X83427000Y-94173000D01*
X83498750Y-94173000D01*
X83585750Y-94260000D01*
X85726310Y-94260000D01*
X85936346Y-94173000D01*
X86076250Y-94173000D01*
X86235000Y-94014250D01*
X86235000Y-93848691D01*
X86214832Y-93800000D01*
X86235000Y-93751309D01*
X86235000Y-93585750D01*
X86076250Y-93427000D01*
X85936346Y-93427000D01*
X85726310Y-93340000D01*
X83585750Y-93340000D01*
X83498750Y-93427000D01*
X83427000Y-93427000D01*
X83173000Y-93427000D01*
X83153000Y-93427000D01*
X83153000Y-93258000D01*
X88945046Y-93258000D01*
X89000000Y-93268931D01*
X89054954Y-93258000D01*
X89217720Y-93225624D01*
X89402295Y-93102295D01*
X89525624Y-92917720D01*
X89545183Y-92819388D01*
X98592000Y-92819388D01*
X98592000Y-93180612D01*
X98730235Y-93514341D01*
X98985659Y-93769765D01*
X99319388Y-93908000D01*
X99680612Y-93908000D01*
X100014341Y-93769765D01*
X100085606Y-93698500D01*
X102210673Y-93698500D01*
X107592000Y-99079828D01*
X107592000Y-99180612D01*
X107730235Y-99514341D01*
X107985659Y-99769765D01*
X108319388Y-99908000D01*
X108680612Y-99908000D01*
X109014341Y-99769765D01*
X109237124Y-99546982D01*
X113093658Y-103403516D01*
X113128972Y-103456367D01*
X113181823Y-103491681D01*
X113181824Y-103491682D01*
X113338354Y-103596273D01*
X113381794Y-103604914D01*
X113522995Y-103633000D01*
X113522998Y-103633000D01*
X113585339Y-103645400D01*
X113647679Y-103633000D01*
X133348894Y-103633000D01*
X133485659Y-103769765D01*
X133819388Y-103908000D01*
X134180612Y-103908000D01*
X134514341Y-103769765D01*
X134769765Y-103514341D01*
X134908000Y-103180612D01*
X134908000Y-102819388D01*
X134769765Y-102485659D01*
X134514341Y-102230235D01*
X134180612Y-102092000D01*
X133819388Y-102092000D01*
X133485659Y-102230235D01*
X133348894Y-102367000D01*
X113847536Y-102367000D01*
X105658705Y-94178170D01*
X105875305Y-93961570D01*
X105897468Y-93908064D01*
X106180612Y-93908064D01*
X106514341Y-93769829D01*
X106769765Y-93514405D01*
X106908000Y-93180676D01*
X106908000Y-92819452D01*
X106769765Y-92485723D01*
X106514341Y-92230299D01*
X106180612Y-92092064D01*
X105987197Y-92092064D01*
X104333000Y-90437868D01*
X104333000Y-88133000D01*
X104512804Y-88133000D01*
X106283319Y-89903516D01*
X106318633Y-89956367D01*
X106371484Y-89991681D01*
X106371485Y-89991682D01*
X106405397Y-90014341D01*
X106528016Y-90096273D01*
X106712656Y-90133000D01*
X106712661Y-90133000D01*
X106775000Y-90145400D01*
X106837339Y-90133000D01*
X111637661Y-90133000D01*
X111666803Y-90138797D01*
X111592000Y-90319388D01*
X111592000Y-90680612D01*
X111730235Y-91014341D01*
X111985659Y-91269765D01*
X112319388Y-91408000D01*
X112680612Y-91408000D01*
X113014341Y-91269765D01*
X113269765Y-91014341D01*
X113408000Y-90680612D01*
X113408000Y-90319388D01*
X113269765Y-89985659D01*
X113198500Y-89914394D01*
X113198500Y-89718369D01*
X115110134Y-87806735D01*
X156079347Y-87806735D01*
X156079347Y-88167959D01*
X156217582Y-88501688D01*
X156221834Y-88505940D01*
X156092000Y-88819388D01*
X156092000Y-89180612D01*
X156230235Y-89514341D01*
X156485659Y-89769765D01*
X156819388Y-89908000D01*
X157180612Y-89908000D01*
X157514341Y-89769765D01*
X157769765Y-89514341D01*
X157908000Y-89180612D01*
X157908000Y-88987196D01*
X158403516Y-88491681D01*
X158456367Y-88456367D01*
X158491682Y-88403515D01*
X158596273Y-88246985D01*
X158618686Y-88134306D01*
X158633000Y-88062344D01*
X158633000Y-88062341D01*
X158645400Y-88000000D01*
X158633000Y-87937660D01*
X158633000Y-85651106D01*
X158769765Y-85514341D01*
X158908000Y-85180612D01*
X158908000Y-84819388D01*
X158769765Y-84485659D01*
X158514341Y-84230235D01*
X158180612Y-84092000D01*
X157819388Y-84092000D01*
X157500000Y-84224295D01*
X157180612Y-84092000D01*
X156819388Y-84092000D01*
X156485659Y-84230235D01*
X156230235Y-84485659D01*
X156092000Y-84819388D01*
X156092000Y-85180612D01*
X156230235Y-85514341D01*
X156354348Y-85638454D01*
X156354347Y-87336241D01*
X156217582Y-87473006D01*
X156079347Y-87806735D01*
X115110134Y-87806735D01*
X115718370Y-87198500D01*
X115914394Y-87198500D01*
X115985659Y-87269765D01*
X116319388Y-87408000D01*
X116680612Y-87408000D01*
X117014341Y-87269765D01*
X117269765Y-87014341D01*
X117408000Y-86680612D01*
X117408000Y-86319388D01*
X117330796Y-86133000D01*
X117348894Y-86133000D01*
X117485659Y-86269765D01*
X117819388Y-86408000D01*
X118180612Y-86408000D01*
X118514341Y-86269765D01*
X118769765Y-86014341D01*
X118908000Y-85680612D01*
X118908000Y-85319388D01*
X118769765Y-84985659D01*
X118514341Y-84730235D01*
X118180612Y-84592000D01*
X117819388Y-84592000D01*
X117485659Y-84730235D01*
X117348894Y-84867000D01*
X117301701Y-84867000D01*
X117301701Y-84594378D01*
X117163466Y-84260649D01*
X116908042Y-84005225D01*
X116574313Y-83866990D01*
X116213089Y-83866990D01*
X115879360Y-84005225D01*
X115746651Y-84137934D01*
X115726259Y-84141990D01*
X115726256Y-84141990D01*
X115713000Y-84144627D01*
X115713000Y-78226652D01*
X116068868Y-77988868D01*
X116372019Y-77535172D01*
X116478471Y-77000000D01*
X116372019Y-76464828D01*
X116068868Y-76011132D01*
X115738992Y-75790715D01*
X115854947Y-75742688D01*
X116286821Y-75348490D01*
X116534968Y-74819027D01*
X116414469Y-74587000D01*
X115207000Y-74587000D01*
X115207000Y-74607000D01*
X114953000Y-74607000D01*
X114953000Y-74587000D01*
X114933000Y-74587000D01*
X114933000Y-74333000D01*
X114953000Y-74333000D01*
X114953000Y-73126183D01*
X115207000Y-73126183D01*
X115207000Y-74333000D01*
X116414469Y-74333000D01*
X116534968Y-74100973D01*
X116402996Y-73819388D01*
X119592000Y-73819388D01*
X119592000Y-74180612D01*
X119730235Y-74514341D01*
X119985659Y-74769765D01*
X120319388Y-74908000D01*
X120420173Y-74908000D01*
X123092000Y-77579828D01*
X123092000Y-77680612D01*
X123230235Y-78014341D01*
X123485659Y-78269765D01*
X123819388Y-78408000D01*
X124180612Y-78408000D01*
X124514341Y-78269765D01*
X124769765Y-78014341D01*
X124908000Y-77680612D01*
X124908000Y-77319388D01*
X124769765Y-76985659D01*
X124514341Y-76730235D01*
X124180612Y-76592000D01*
X124079828Y-76592000D01*
X122068521Y-74580693D01*
X152892000Y-74580693D01*
X152892000Y-75419307D01*
X153212924Y-76194086D01*
X153805914Y-76787076D01*
X154580693Y-77108000D01*
X155419307Y-77108000D01*
X156194086Y-76787076D01*
X156787076Y-76194086D01*
X157108000Y-75419307D01*
X157108000Y-74580693D01*
X156787076Y-73805914D01*
X156194086Y-73212924D01*
X155419307Y-72892000D01*
X154580693Y-72892000D01*
X153805914Y-73212924D01*
X153212924Y-73805914D01*
X152892000Y-74580693D01*
X122068521Y-74580693D01*
X121408000Y-73920173D01*
X121408000Y-73819388D01*
X121269765Y-73485659D01*
X121014341Y-73230235D01*
X120680612Y-73092000D01*
X120319388Y-73092000D01*
X119985659Y-73230235D01*
X119730235Y-73485659D01*
X119592000Y-73819388D01*
X116402996Y-73819388D01*
X116286821Y-73571510D01*
X115854947Y-73177312D01*
X115439026Y-73005042D01*
X115207000Y-73126183D01*
X114953000Y-73126183D01*
X114720974Y-73005042D01*
X114305053Y-73177312D01*
X113873179Y-73571510D01*
X113758885Y-73815375D01*
X113528868Y-73471132D01*
X113075172Y-73167981D01*
X112675090Y-73088400D01*
X112404910Y-73088400D01*
X112004828Y-73167981D01*
X111551132Y-73471132D01*
X111270000Y-73891874D01*
X110988868Y-73471132D01*
X110535172Y-73167981D01*
X110135090Y-73088400D01*
X109864910Y-73088400D01*
X109464828Y-73167981D01*
X109011132Y-73471132D01*
X108707981Y-73924828D01*
X108601529Y-74460000D01*
X108707981Y-74995172D01*
X109011132Y-75448868D01*
X109264926Y-75618448D01*
X109136400Y-75618448D01*
X108938188Y-75657875D01*
X108770153Y-75770153D01*
X108657875Y-75938188D01*
X108618448Y-76136400D01*
X108618448Y-77863600D01*
X108657875Y-78061812D01*
X108770153Y-78229847D01*
X108938188Y-78342125D01*
X109136400Y-78381552D01*
X110863600Y-78381552D01*
X111061812Y-78342125D01*
X111229847Y-78229847D01*
X111342125Y-78061812D01*
X111381552Y-77863600D01*
X111381552Y-77735074D01*
X111551132Y-77988868D01*
X112004828Y-78292019D01*
X112404910Y-78371600D01*
X112675090Y-78371600D01*
X113075172Y-78292019D01*
X113528868Y-77988868D01*
X113810000Y-77568126D01*
X114091132Y-77988868D01*
X114447001Y-78226653D01*
X114447000Y-84457802D01*
X111537804Y-87367000D01*
X108851110Y-87367000D01*
X108714345Y-87230235D01*
X108380616Y-87092000D01*
X108019392Y-87092000D01*
X107685663Y-87230235D01*
X107430239Y-87485659D01*
X107415775Y-87520578D01*
X106395347Y-86500151D01*
X106395347Y-86306735D01*
X106257112Y-85973006D01*
X106001688Y-85717582D01*
X105667959Y-85579347D01*
X105306735Y-85579347D01*
X104973006Y-85717582D01*
X104717582Y-85973006D01*
X104579347Y-86306735D01*
X104579347Y-86317000D01*
X104333000Y-86317000D01*
X104333000Y-82762338D01*
X104345400Y-82699999D01*
X104333000Y-82637660D01*
X104333000Y-82637656D01*
X104296273Y-82453016D01*
X104263197Y-82403514D01*
X104191682Y-82296484D01*
X104191679Y-82296481D01*
X104156367Y-82243633D01*
X104103519Y-82208321D01*
X103908000Y-82012803D01*
X103908000Y-81819388D01*
X103769765Y-81485659D01*
X103514341Y-81230235D01*
X103180612Y-81092000D01*
X102819388Y-81092000D01*
X102485659Y-81230235D01*
X102230235Y-81485659D01*
X102092000Y-81819388D01*
X102092000Y-81996804D01*
X101908000Y-81812804D01*
X101908000Y-81619388D01*
X101769765Y-81285659D01*
X101514341Y-81030235D01*
X101180612Y-80892000D01*
X100819388Y-80892000D01*
X100485659Y-81030235D01*
X100230235Y-81285659D01*
X100092000Y-81619388D01*
X100092000Y-81980612D01*
X100230235Y-82314341D01*
X100485659Y-82569765D01*
X100819388Y-82708000D01*
X101012804Y-82708000D01*
X102567000Y-84262197D01*
X102567001Y-88682895D01*
X102514341Y-88630235D01*
X102180612Y-88492000D01*
X101819388Y-88492000D01*
X101485659Y-88630235D01*
X101230235Y-88885659D01*
X101092000Y-89219388D01*
X101092000Y-89580612D01*
X101230235Y-89914341D01*
X101367001Y-90051107D01*
X101367000Y-91352321D01*
X101354600Y-91414661D01*
X101367000Y-91477000D01*
X101367000Y-91477004D01*
X101403727Y-91661644D01*
X101543633Y-91871028D01*
X101596487Y-91906344D01*
X101991643Y-92301500D01*
X100085606Y-92301500D01*
X100014341Y-92230235D01*
X99680612Y-92092000D01*
X99319388Y-92092000D01*
X98985659Y-92230235D01*
X98730235Y-92485659D01*
X98592000Y-92819388D01*
X89545183Y-92819388D01*
X89568931Y-92700000D01*
X89558000Y-92645046D01*
X89558000Y-90954954D01*
X89568931Y-90900000D01*
X89525624Y-90682280D01*
X89402295Y-90497705D01*
X89217720Y-90374376D01*
X89054954Y-90342000D01*
X89000000Y-90331069D01*
X88945046Y-90342000D01*
X83153000Y-90342000D01*
X83153000Y-90173000D01*
X83173000Y-90173000D01*
X83173000Y-89427000D01*
X83427000Y-89427000D01*
X83427000Y-90173000D01*
X83498750Y-90173000D01*
X83585750Y-90260000D01*
X85726310Y-90260000D01*
X85936346Y-90173000D01*
X86076250Y-90173000D01*
X86235000Y-90014250D01*
X86235000Y-89848691D01*
X86214832Y-89800000D01*
X86235000Y-89751309D01*
X86235000Y-89585750D01*
X86076250Y-89427000D01*
X85936346Y-89427000D01*
X85726310Y-89340000D01*
X83585750Y-89340000D01*
X83498750Y-89427000D01*
X83427000Y-89427000D01*
X83173000Y-89427000D01*
X83153000Y-89427000D01*
X83153000Y-89173000D01*
X83173000Y-89173000D01*
X83173000Y-88427000D01*
X83427000Y-88427000D01*
X83427000Y-89173000D01*
X83498750Y-89173000D01*
X83585750Y-89260000D01*
X85726310Y-89260000D01*
X85936346Y-89173000D01*
X86076250Y-89173000D01*
X86235000Y-89014250D01*
X86235000Y-88848691D01*
X86214832Y-88800000D01*
X86235000Y-88751309D01*
X86235000Y-88585750D01*
X86076250Y-88427000D01*
X85936346Y-88427000D01*
X85726310Y-88340000D01*
X83585750Y-88340000D01*
X83498750Y-88427000D01*
X83427000Y-88427000D01*
X83173000Y-88427000D01*
X83153000Y-88427000D01*
X83153000Y-88173000D01*
X83173000Y-88173000D01*
X83173000Y-87427000D01*
X83427000Y-87427000D01*
X83427000Y-88173000D01*
X83498750Y-88173000D01*
X83585750Y-88260000D01*
X85726310Y-88260000D01*
X85936346Y-88173000D01*
X86076250Y-88173000D01*
X86235000Y-88014250D01*
X86235000Y-87848691D01*
X86214832Y-87800000D01*
X86235000Y-87751309D01*
X86235000Y-87585750D01*
X86076250Y-87427000D01*
X85936346Y-87427000D01*
X85726310Y-87340000D01*
X83585750Y-87340000D01*
X83498750Y-87427000D01*
X83427000Y-87427000D01*
X83173000Y-87427000D01*
X83153000Y-87427000D01*
X83153000Y-87173000D01*
X83173000Y-87173000D01*
X83173000Y-86427000D01*
X83153000Y-86427000D01*
X83153000Y-86173000D01*
X83173000Y-86173000D01*
X83173000Y-86153000D01*
X83427000Y-86153000D01*
X83427000Y-86173000D01*
X83447000Y-86173000D01*
X83447000Y-86427000D01*
X83427000Y-86427000D01*
X83427000Y-87173000D01*
X83498750Y-87173000D01*
X83585750Y-87260000D01*
X85726310Y-87260000D01*
X85936346Y-87173000D01*
X86076250Y-87173000D01*
X86235000Y-87014250D01*
X86235000Y-86848691D01*
X86214832Y-86800000D01*
X86235000Y-86751309D01*
X86235000Y-86585750D01*
X86076252Y-86427002D01*
X86235000Y-86427002D01*
X86235000Y-86373045D01*
X86319388Y-86408000D01*
X86680612Y-86408000D01*
X86894540Y-86319388D01*
X91092000Y-86319388D01*
X91092000Y-86680612D01*
X91230235Y-87014341D01*
X91367000Y-87151106D01*
X91367001Y-88937636D01*
X91354600Y-88999980D01*
X91403728Y-89246964D01*
X91508318Y-89403494D01*
X91508320Y-89403496D01*
X91543634Y-89456347D01*
X91592020Y-89488678D01*
X91592020Y-89680612D01*
X91730255Y-90014341D01*
X91985679Y-90269765D01*
X92319408Y-90408000D01*
X92680632Y-90408000D01*
X93014361Y-90269765D01*
X93150012Y-90134114D01*
X93385663Y-90369765D01*
X93719392Y-90508000D01*
X94080616Y-90508000D01*
X94414345Y-90369765D01*
X94669769Y-90114341D01*
X94808004Y-89780612D01*
X94808004Y-89419388D01*
X94669769Y-89085659D01*
X94414345Y-88830235D01*
X94080616Y-88692000D01*
X93887201Y-88692000D01*
X93633000Y-88437800D01*
X93633000Y-87663606D01*
X93769765Y-87526841D01*
X93908000Y-87193112D01*
X93908000Y-86831888D01*
X93769765Y-86498159D01*
X93514341Y-86242735D01*
X93180612Y-86104500D01*
X92819388Y-86104500D01*
X92819049Y-86104641D01*
X92769765Y-85985659D01*
X92514341Y-85730235D01*
X92180612Y-85592000D01*
X91819388Y-85592000D01*
X91485659Y-85730235D01*
X91230235Y-85985659D01*
X91092000Y-86319388D01*
X86894540Y-86319388D01*
X87014341Y-86269765D01*
X87269765Y-86014341D01*
X87408000Y-85680612D01*
X87408000Y-85319388D01*
X87269765Y-84985659D01*
X87014341Y-84730235D01*
X86680612Y-84592000D01*
X86321030Y-84592000D01*
X86300000Y-84587817D01*
X86235000Y-84600746D01*
X86235000Y-84585750D01*
X86076250Y-84427000D01*
X83427000Y-84427000D01*
X83427000Y-84447000D01*
X83173000Y-84447000D01*
X83173000Y-84427000D01*
X83153000Y-84427000D01*
X83153000Y-84173000D01*
X83173000Y-84173000D01*
X83173000Y-84158000D01*
X83427000Y-84158000D01*
X83427000Y-84173000D01*
X86076250Y-84173000D01*
X86091250Y-84158000D01*
X88945046Y-84158000D01*
X89000000Y-84168931D01*
X89054954Y-84158000D01*
X89217720Y-84125624D01*
X89402295Y-84002295D01*
X89525624Y-83817720D01*
X89568931Y-83600000D01*
X89558000Y-83545046D01*
X89558000Y-79319388D01*
X92092000Y-79319388D01*
X92092000Y-79680612D01*
X92230235Y-80014341D01*
X92485659Y-80269765D01*
X92819388Y-80408000D01*
X92920173Y-80408000D01*
X94592000Y-82079828D01*
X94592000Y-82180612D01*
X94730235Y-82514341D01*
X94985659Y-82769765D01*
X95319388Y-82908000D01*
X95680612Y-82908000D01*
X96014341Y-82769765D01*
X96269765Y-82514341D01*
X96408000Y-82180612D01*
X96408000Y-81819388D01*
X96269765Y-81485659D01*
X96014341Y-81230235D01*
X95680612Y-81092000D01*
X95579828Y-81092000D01*
X93908000Y-79420173D01*
X93908000Y-79319388D01*
X93769765Y-78985659D01*
X93514341Y-78730235D01*
X93180612Y-78592000D01*
X92819388Y-78592000D01*
X92485659Y-78730235D01*
X92230235Y-78985659D01*
X92092000Y-79319388D01*
X89558000Y-79319388D01*
X89558000Y-76819388D01*
X97092000Y-76819388D01*
X97092000Y-77180612D01*
X97230235Y-77514341D01*
X97367000Y-77651106D01*
X97367001Y-79336393D01*
X97230235Y-79473159D01*
X97092000Y-79806888D01*
X97092000Y-80168112D01*
X97230235Y-80501841D01*
X97485659Y-80757265D01*
X97819388Y-80895500D01*
X98180612Y-80895500D01*
X98514341Y-80757265D01*
X98769765Y-80501841D01*
X98908000Y-80168112D01*
X98908000Y-79806888D01*
X98769765Y-79473159D01*
X98633000Y-79336394D01*
X98633000Y-77651106D01*
X98769765Y-77514341D01*
X98908000Y-77180612D01*
X98908000Y-76819388D01*
X98769765Y-76485659D01*
X98514341Y-76230235D01*
X98180612Y-76092000D01*
X97819388Y-76092000D01*
X97485659Y-76230235D01*
X97230235Y-76485659D01*
X97092000Y-76819388D01*
X89558000Y-76819388D01*
X89558000Y-72150000D01*
X125632048Y-72150000D01*
X125632048Y-73850000D01*
X125671475Y-74048212D01*
X125783753Y-74216247D01*
X125951788Y-74328525D01*
X126150000Y-74367952D01*
X127850000Y-74367952D01*
X128048212Y-74328525D01*
X128216247Y-74216247D01*
X128328525Y-74048212D01*
X128367952Y-73850000D01*
X128367952Y-73690240D01*
X128560937Y-73979063D01*
X129010135Y-74279207D01*
X129406253Y-74358000D01*
X129673747Y-74358000D01*
X130069865Y-74279207D01*
X130519063Y-73979063D01*
X130810000Y-73543644D01*
X131100937Y-73979063D01*
X131550135Y-74279207D01*
X131946253Y-74358000D01*
X132213747Y-74358000D01*
X132609865Y-74279207D01*
X133059063Y-73979063D01*
X133350000Y-73543644D01*
X133640937Y-73979063D01*
X134090135Y-74279207D01*
X134486253Y-74358000D01*
X134753747Y-74358000D01*
X135149865Y-74279207D01*
X135599063Y-73979063D01*
X135840799Y-73617279D01*
X135964817Y-73881358D01*
X136393076Y-74271645D01*
X136803110Y-74441476D01*
X137033000Y-74320155D01*
X137033000Y-73127000D01*
X137287000Y-73127000D01*
X137287000Y-74320155D01*
X137516890Y-74441476D01*
X137926924Y-74271645D01*
X138355183Y-73881358D01*
X138430000Y-73722046D01*
X138504817Y-73881358D01*
X138933076Y-74271645D01*
X139343110Y-74441476D01*
X139573000Y-74320155D01*
X139573000Y-73127000D01*
X139827000Y-73127000D01*
X139827000Y-74320155D01*
X140056890Y-74441476D01*
X140466924Y-74271645D01*
X140895183Y-73881358D01*
X141141486Y-73356892D01*
X141020819Y-73127000D01*
X139827000Y-73127000D01*
X139573000Y-73127000D01*
X137287000Y-73127000D01*
X137033000Y-73127000D01*
X137013000Y-73127000D01*
X137013000Y-72873000D01*
X137033000Y-72873000D01*
X137033000Y-71679845D01*
X137287000Y-71679845D01*
X137287000Y-72873000D01*
X139573000Y-72873000D01*
X139573000Y-71679845D01*
X139827000Y-71679845D01*
X139827000Y-72873000D01*
X141020819Y-72873000D01*
X141141486Y-72643108D01*
X140895183Y-72118642D01*
X140466924Y-71728355D01*
X140056890Y-71558524D01*
X139827000Y-71679845D01*
X139573000Y-71679845D01*
X139343110Y-71558524D01*
X138933076Y-71728355D01*
X138504817Y-72118642D01*
X138430000Y-72277954D01*
X138355183Y-72118642D01*
X137926924Y-71728355D01*
X137516890Y-71558524D01*
X137287000Y-71679845D01*
X137033000Y-71679845D01*
X136803110Y-71558524D01*
X136393076Y-71728355D01*
X135964817Y-72118642D01*
X135840799Y-72382721D01*
X135599063Y-72020937D01*
X135149865Y-71720793D01*
X134753747Y-71642000D01*
X134486253Y-71642000D01*
X134090135Y-71720793D01*
X133640937Y-72020937D01*
X133350000Y-72456356D01*
X133059063Y-72020937D01*
X132609865Y-71720793D01*
X132213747Y-71642000D01*
X131946253Y-71642000D01*
X131550135Y-71720793D01*
X131100937Y-72020937D01*
X130810000Y-72456356D01*
X130519063Y-72020937D01*
X130069865Y-71720793D01*
X129673747Y-71642000D01*
X129406253Y-71642000D01*
X129010135Y-71720793D01*
X128560937Y-72020937D01*
X128367952Y-72309760D01*
X128367952Y-72150000D01*
X128328525Y-71951788D01*
X128216247Y-71783753D01*
X128048212Y-71671475D01*
X127850000Y-71632048D01*
X126150000Y-71632048D01*
X125951788Y-71671475D01*
X125783753Y-71783753D01*
X125671475Y-71951788D01*
X125632048Y-72150000D01*
X89558000Y-72150000D01*
X89558000Y-71231130D01*
X90231131Y-70558000D01*
X158768870Y-70558000D01*
X159442000Y-71231131D01*
G04 #@! TD*
M02*
