G04 #@! TF.GenerationSoftware,KiCad,Pcbnew,5.0.2+dfsg1-1*
G04 #@! TF.CreationDate,2021-07-01T00:09:32-05:00*
G04 #@! TF.ProjectId,dcpsu-card-ahalf,64637073-752d-4636-9172-642d6168616c,v0.4*
G04 #@! TF.SameCoordinates,Original*
G04 #@! TF.FileFunction,Soldermask,Top*
G04 #@! TF.FilePolarity,Negative*
%FSLAX46Y46*%
G04 Gerber Fmt 4.6, Leading zero omitted, Abs format (unit mm)*
G04 Created by KiCad (PCBNEW 5.0.2+dfsg1-1) date Thu 01 Jul 2021 12:09:32 AM CDT*
%MOMM*%
%LPD*%
G01*
G04 APERTURE LIST*
%ADD10C,0.100000*%
G04 APERTURE END LIST*
D10*
G36*
X155466703Y-123461486D02*
X155757883Y-123582097D01*
X156019944Y-123757201D01*
X156242799Y-123980056D01*
X156417903Y-124242117D01*
X156538514Y-124533297D01*
X156600000Y-124842412D01*
X156600000Y-125157588D01*
X156538514Y-125466703D01*
X156417903Y-125757883D01*
X156242799Y-126019944D01*
X156019944Y-126242799D01*
X155757883Y-126417903D01*
X155466703Y-126538514D01*
X155157588Y-126600000D01*
X154842412Y-126600000D01*
X154533297Y-126538514D01*
X154242117Y-126417903D01*
X153980056Y-126242799D01*
X153757201Y-126019944D01*
X153582097Y-125757883D01*
X153461486Y-125466703D01*
X153400000Y-125157588D01*
X153400000Y-124842412D01*
X153461486Y-124533297D01*
X153582097Y-124242117D01*
X153757201Y-123980056D01*
X153980056Y-123757201D01*
X154242117Y-123582097D01*
X154533297Y-123461486D01*
X154842412Y-123400000D01*
X155157588Y-123400000D01*
X155466703Y-123461486D01*
X155466703Y-123461486D01*
G37*
G36*
X126167826Y-122953745D02*
X126198491Y-122963048D01*
X126226750Y-122978152D01*
X126251520Y-122998480D01*
X126271848Y-123023250D01*
X126286952Y-123051509D01*
X126296255Y-123082174D01*
X126300000Y-123120202D01*
X126300000Y-126279798D01*
X126296255Y-126317826D01*
X126286952Y-126348491D01*
X126271848Y-126376750D01*
X126251520Y-126401520D01*
X126226750Y-126421848D01*
X126198491Y-126436952D01*
X126167826Y-126446255D01*
X126129798Y-126450000D01*
X124870202Y-126450000D01*
X124832174Y-126446255D01*
X124801509Y-126436952D01*
X124773250Y-126421848D01*
X124748480Y-126401520D01*
X124728152Y-126376750D01*
X124713048Y-126348491D01*
X124703745Y-126317826D01*
X124700000Y-126279798D01*
X124700000Y-123120202D01*
X124703745Y-123082174D01*
X124713048Y-123051509D01*
X124728152Y-123023250D01*
X124748480Y-122998480D01*
X124773250Y-122978152D01*
X124801509Y-122963048D01*
X124832174Y-122953745D01*
X124870202Y-122950000D01*
X126129798Y-122950000D01*
X126167826Y-122953745D01*
X126167826Y-122953745D01*
G37*
G36*
X103088964Y-123128837D02*
X103120528Y-123138412D01*
X103149617Y-123153960D01*
X103175114Y-123174886D01*
X103196040Y-123200383D01*
X103211588Y-123229472D01*
X103221163Y-123261036D01*
X103225000Y-123299998D01*
X103225000Y-124700002D01*
X103221163Y-124738964D01*
X103211588Y-124770528D01*
X103196040Y-124799617D01*
X103175114Y-124825114D01*
X103149617Y-124846040D01*
X103120528Y-124861588D01*
X103088964Y-124871163D01*
X103050002Y-124875000D01*
X101974998Y-124875000D01*
X101936036Y-124871163D01*
X101904472Y-124861588D01*
X101875383Y-124846040D01*
X101849886Y-124825114D01*
X101828960Y-124799617D01*
X101813412Y-124770528D01*
X101803837Y-124738964D01*
X101800000Y-124700002D01*
X101800000Y-123299998D01*
X101803837Y-123261036D01*
X101813412Y-123229472D01*
X101828960Y-123200383D01*
X101849886Y-123174886D01*
X101875383Y-123153960D01*
X101904472Y-123138412D01*
X101936036Y-123128837D01*
X101974998Y-123125000D01*
X103050002Y-123125000D01*
X103088964Y-123128837D01*
X103088964Y-123128837D01*
G37*
G36*
X106063964Y-123128837D02*
X106095528Y-123138412D01*
X106124617Y-123153960D01*
X106150114Y-123174886D01*
X106171040Y-123200383D01*
X106186588Y-123229472D01*
X106196163Y-123261036D01*
X106200000Y-123299998D01*
X106200000Y-124700002D01*
X106196163Y-124738964D01*
X106186588Y-124770528D01*
X106171040Y-124799617D01*
X106150114Y-124825114D01*
X106124617Y-124846040D01*
X106095528Y-124861588D01*
X106063964Y-124871163D01*
X106025002Y-124875000D01*
X104949998Y-124875000D01*
X104911036Y-124871163D01*
X104879472Y-124861588D01*
X104850383Y-124846040D01*
X104824886Y-124825114D01*
X104803960Y-124799617D01*
X104788412Y-124770528D01*
X104778837Y-124738964D01*
X104775000Y-124700002D01*
X104775000Y-123299998D01*
X104778837Y-123261036D01*
X104788412Y-123229472D01*
X104803960Y-123200383D01*
X104824886Y-123174886D01*
X104850383Y-123153960D01*
X104879472Y-123138412D01*
X104911036Y-123128837D01*
X104949998Y-123125000D01*
X106025002Y-123125000D01*
X106063964Y-123128837D01*
X106063964Y-123128837D01*
G37*
G36*
X103128964Y-120628837D02*
X103160528Y-120638412D01*
X103189617Y-120653960D01*
X103215114Y-120674886D01*
X103236040Y-120700383D01*
X103251588Y-120729472D01*
X103261163Y-120761036D01*
X103265000Y-120799998D01*
X103265000Y-122200002D01*
X103261163Y-122238964D01*
X103251588Y-122270528D01*
X103236040Y-122299617D01*
X103215114Y-122325114D01*
X103189617Y-122346040D01*
X103160528Y-122361588D01*
X103128964Y-122371163D01*
X103090002Y-122375000D01*
X102014998Y-122375000D01*
X101976036Y-122371163D01*
X101944472Y-122361588D01*
X101915383Y-122346040D01*
X101889886Y-122325114D01*
X101868960Y-122299617D01*
X101853412Y-122270528D01*
X101843837Y-122238964D01*
X101840000Y-122200002D01*
X101840000Y-120799998D01*
X101843837Y-120761036D01*
X101853412Y-120729472D01*
X101868960Y-120700383D01*
X101889886Y-120674886D01*
X101915383Y-120653960D01*
X101944472Y-120638412D01*
X101976036Y-120628837D01*
X102014998Y-120625000D01*
X103090002Y-120625000D01*
X103128964Y-120628837D01*
X103128964Y-120628837D01*
G37*
G36*
X106103964Y-120628837D02*
X106135528Y-120638412D01*
X106164617Y-120653960D01*
X106190114Y-120674886D01*
X106211040Y-120700383D01*
X106226588Y-120729472D01*
X106236163Y-120761036D01*
X106240000Y-120799998D01*
X106240000Y-122200002D01*
X106236163Y-122238964D01*
X106226588Y-122270528D01*
X106211040Y-122299617D01*
X106190114Y-122325114D01*
X106164617Y-122346040D01*
X106135528Y-122361588D01*
X106103964Y-122371163D01*
X106065002Y-122375000D01*
X104989998Y-122375000D01*
X104951036Y-122371163D01*
X104919472Y-122361588D01*
X104890383Y-122346040D01*
X104864886Y-122325114D01*
X104843960Y-122299617D01*
X104828412Y-122270528D01*
X104818837Y-122238964D01*
X104815000Y-122200002D01*
X104815000Y-120799998D01*
X104818837Y-120761036D01*
X104828412Y-120729472D01*
X104843960Y-120700383D01*
X104864886Y-120674886D01*
X104890383Y-120653960D01*
X104919472Y-120638412D01*
X104951036Y-120628837D01*
X104989998Y-120625000D01*
X106065002Y-120625000D01*
X106103964Y-120628837D01*
X106103964Y-120628837D01*
G37*
G36*
X140505000Y-121650000D02*
X139555000Y-121650000D01*
X139555000Y-120650000D01*
X140505000Y-120650000D01*
X140505000Y-121650000D01*
X140505000Y-121650000D01*
G37*
G36*
X142445000Y-121650000D02*
X141495000Y-121650000D01*
X141495000Y-120650000D01*
X142445000Y-120650000D01*
X142445000Y-121650000D01*
X142445000Y-121650000D01*
G37*
G36*
X126167826Y-117553745D02*
X126198491Y-117563048D01*
X126226750Y-117578152D01*
X126251520Y-117598480D01*
X126271848Y-117623250D01*
X126286952Y-117651509D01*
X126296255Y-117682174D01*
X126300000Y-117720202D01*
X126300000Y-120879798D01*
X126296255Y-120917826D01*
X126286952Y-120948491D01*
X126271848Y-120976750D01*
X126251520Y-121001520D01*
X126226750Y-121021848D01*
X126198491Y-121036952D01*
X126167826Y-121046255D01*
X126129798Y-121050000D01*
X124870202Y-121050000D01*
X124832174Y-121046255D01*
X124801509Y-121036952D01*
X124773250Y-121021848D01*
X124748480Y-121001520D01*
X124728152Y-120976750D01*
X124713048Y-120948491D01*
X124703745Y-120917826D01*
X124700000Y-120879798D01*
X124700000Y-117720202D01*
X124703745Y-117682174D01*
X124713048Y-117651509D01*
X124728152Y-117623250D01*
X124748480Y-117598480D01*
X124773250Y-117578152D01*
X124801509Y-117563048D01*
X124832174Y-117553745D01*
X124870202Y-117550000D01*
X126129798Y-117550000D01*
X126167826Y-117553745D01*
X126167826Y-117553745D01*
G37*
G36*
X103128964Y-118128837D02*
X103160528Y-118138412D01*
X103189617Y-118153960D01*
X103215114Y-118174886D01*
X103236040Y-118200383D01*
X103251588Y-118229472D01*
X103261163Y-118261036D01*
X103265000Y-118299998D01*
X103265000Y-119700002D01*
X103261163Y-119738964D01*
X103251588Y-119770528D01*
X103236040Y-119799617D01*
X103215114Y-119825114D01*
X103189617Y-119846040D01*
X103160528Y-119861588D01*
X103128964Y-119871163D01*
X103090002Y-119875000D01*
X102014998Y-119875000D01*
X101976036Y-119871163D01*
X101944472Y-119861588D01*
X101915383Y-119846040D01*
X101889886Y-119825114D01*
X101868960Y-119799617D01*
X101853412Y-119770528D01*
X101843837Y-119738964D01*
X101840000Y-119700002D01*
X101840000Y-118299998D01*
X101843837Y-118261036D01*
X101853412Y-118229472D01*
X101868960Y-118200383D01*
X101889886Y-118174886D01*
X101915383Y-118153960D01*
X101944472Y-118138412D01*
X101976036Y-118128837D01*
X102014998Y-118125000D01*
X103090002Y-118125000D01*
X103128964Y-118128837D01*
X103128964Y-118128837D01*
G37*
G36*
X106103964Y-118128837D02*
X106135528Y-118138412D01*
X106164617Y-118153960D01*
X106190114Y-118174886D01*
X106211040Y-118200383D01*
X106226588Y-118229472D01*
X106236163Y-118261036D01*
X106240000Y-118299998D01*
X106240000Y-119700002D01*
X106236163Y-119738964D01*
X106226588Y-119770528D01*
X106211040Y-119799617D01*
X106190114Y-119825114D01*
X106164617Y-119846040D01*
X106135528Y-119861588D01*
X106103964Y-119871163D01*
X106065002Y-119875000D01*
X104989998Y-119875000D01*
X104951036Y-119871163D01*
X104919472Y-119861588D01*
X104890383Y-119846040D01*
X104864886Y-119825114D01*
X104843960Y-119799617D01*
X104828412Y-119770528D01*
X104818837Y-119738964D01*
X104815000Y-119700002D01*
X104815000Y-118299998D01*
X104818837Y-118261036D01*
X104828412Y-118229472D01*
X104843960Y-118200383D01*
X104864886Y-118174886D01*
X104890383Y-118153960D01*
X104919472Y-118138412D01*
X104951036Y-118128837D01*
X104989998Y-118125000D01*
X106065002Y-118125000D01*
X106103964Y-118128837D01*
X106103964Y-118128837D01*
G37*
G36*
X142600000Y-119250000D02*
X139400000Y-119250000D01*
X139400000Y-114350000D01*
X142600000Y-114350000D01*
X142600000Y-119250000D01*
X142600000Y-119250000D01*
G37*
G36*
X130588964Y-117128837D02*
X130620528Y-117138412D01*
X130649617Y-117153960D01*
X130675114Y-117174886D01*
X130696040Y-117200383D01*
X130711588Y-117229472D01*
X130721163Y-117261036D01*
X130725000Y-117299998D01*
X130725000Y-118700002D01*
X130721163Y-118738964D01*
X130711588Y-118770528D01*
X130696040Y-118799617D01*
X130675114Y-118825114D01*
X130649617Y-118846040D01*
X130620528Y-118861588D01*
X130588964Y-118871163D01*
X130550002Y-118875000D01*
X129474998Y-118875000D01*
X129436036Y-118871163D01*
X129404472Y-118861588D01*
X129375383Y-118846040D01*
X129349886Y-118825114D01*
X129328960Y-118799617D01*
X129313412Y-118770528D01*
X129303837Y-118738964D01*
X129300000Y-118700002D01*
X129300000Y-117299998D01*
X129303837Y-117261036D01*
X129313412Y-117229472D01*
X129328960Y-117200383D01*
X129349886Y-117174886D01*
X129375383Y-117153960D01*
X129404472Y-117138412D01*
X129436036Y-117128837D01*
X129474998Y-117125000D01*
X130550002Y-117125000D01*
X130588964Y-117128837D01*
X130588964Y-117128837D01*
G37*
G36*
X133563964Y-117128837D02*
X133595528Y-117138412D01*
X133624617Y-117153960D01*
X133650114Y-117174886D01*
X133671040Y-117200383D01*
X133686588Y-117229472D01*
X133696163Y-117261036D01*
X133700000Y-117299998D01*
X133700000Y-118700002D01*
X133696163Y-118738964D01*
X133686588Y-118770528D01*
X133671040Y-118799617D01*
X133650114Y-118825114D01*
X133624617Y-118846040D01*
X133595528Y-118861588D01*
X133563964Y-118871163D01*
X133525002Y-118875000D01*
X132449998Y-118875000D01*
X132411036Y-118871163D01*
X132379472Y-118861588D01*
X132350383Y-118846040D01*
X132324886Y-118825114D01*
X132303960Y-118799617D01*
X132288412Y-118770528D01*
X132278837Y-118738964D01*
X132275000Y-118700002D01*
X132275000Y-117299998D01*
X132278837Y-117261036D01*
X132288412Y-117229472D01*
X132303960Y-117200383D01*
X132324886Y-117174886D01*
X132350383Y-117153960D01*
X132379472Y-117138412D01*
X132411036Y-117128837D01*
X132449998Y-117125000D01*
X133525002Y-117125000D01*
X133563964Y-117128837D01*
X133563964Y-117128837D01*
G37*
G36*
X121580527Y-113219636D02*
X121619889Y-113231576D01*
X121656156Y-113250961D01*
X121687948Y-113277052D01*
X121714039Y-113308844D01*
X121733424Y-113345111D01*
X121745364Y-113384473D01*
X121750000Y-113431541D01*
X121750000Y-117398459D01*
X121745364Y-117445527D01*
X121733424Y-117484889D01*
X121714039Y-117521156D01*
X121687948Y-117552948D01*
X121656156Y-117579039D01*
X121619889Y-117598424D01*
X121580527Y-117610364D01*
X121533459Y-117615000D01*
X117916541Y-117615000D01*
X117869473Y-117610364D01*
X117830111Y-117598424D01*
X117793844Y-117579039D01*
X117762052Y-117552948D01*
X117735961Y-117521156D01*
X117716576Y-117484889D01*
X117704636Y-117445527D01*
X117700000Y-117398459D01*
X117700000Y-113431541D01*
X117704636Y-113384473D01*
X117716576Y-113345111D01*
X117735961Y-113308844D01*
X117762052Y-113277052D01*
X117793844Y-113250961D01*
X117830111Y-113231576D01*
X117869473Y-113219636D01*
X117916541Y-113215000D01*
X121533459Y-113215000D01*
X121580527Y-113219636D01*
X121580527Y-113219636D01*
G37*
G36*
X112130527Y-113219636D02*
X112169889Y-113231576D01*
X112206156Y-113250961D01*
X112237948Y-113277052D01*
X112264039Y-113308844D01*
X112283424Y-113345111D01*
X112295364Y-113384473D01*
X112300000Y-113431541D01*
X112300000Y-117398459D01*
X112295364Y-117445527D01*
X112283424Y-117484889D01*
X112264039Y-117521156D01*
X112237948Y-117552948D01*
X112206156Y-117579039D01*
X112169889Y-117598424D01*
X112130527Y-117610364D01*
X112083459Y-117615000D01*
X108466541Y-117615000D01*
X108419473Y-117610364D01*
X108380111Y-117598424D01*
X108343844Y-117579039D01*
X108312052Y-117552948D01*
X108285961Y-117521156D01*
X108266576Y-117484889D01*
X108254636Y-117445527D01*
X108250000Y-117398459D01*
X108250000Y-113431541D01*
X108254636Y-113384473D01*
X108266576Y-113345111D01*
X108285961Y-113308844D01*
X108312052Y-113277052D01*
X108343844Y-113250961D01*
X108380111Y-113231576D01*
X108419473Y-113219636D01*
X108466541Y-113215000D01*
X112083459Y-113215000D01*
X112130527Y-113219636D01*
X112130527Y-113219636D01*
G37*
G36*
X100400000Y-117600000D02*
X99200000Y-117600000D01*
X99200000Y-116400000D01*
X100400000Y-116400000D01*
X100400000Y-117600000D01*
X100400000Y-117600000D01*
G37*
G36*
X97300000Y-116800000D02*
X95800000Y-116800000D01*
X95800000Y-115200000D01*
X97300000Y-115200000D01*
X97300000Y-116800000D01*
X97300000Y-116800000D01*
G37*
G36*
X104640000Y-113694395D02*
X104642402Y-113718781D01*
X104649515Y-113742230D01*
X104661066Y-113763841D01*
X104676612Y-113782783D01*
X104695554Y-113798329D01*
X104717165Y-113809880D01*
X104740614Y-113816993D01*
X104765000Y-113819395D01*
X104815000Y-113819395D01*
X104839386Y-113816993D01*
X104862835Y-113809880D01*
X104884446Y-113798329D01*
X104903388Y-113782783D01*
X104918934Y-113763841D01*
X104930485Y-113742230D01*
X104937598Y-113718781D01*
X104940000Y-113694395D01*
X104940000Y-113280000D01*
X105140000Y-113280000D01*
X105140000Y-113554395D01*
X105142402Y-113578781D01*
X105149515Y-113602230D01*
X105161066Y-113623841D01*
X105176612Y-113642783D01*
X105195554Y-113658329D01*
X105217165Y-113669880D01*
X105240614Y-113676993D01*
X105265000Y-113679395D01*
X105533863Y-113679395D01*
X105539999Y-113679999D01*
X105539998Y-113679999D01*
X105540000Y-113680000D01*
X105540001Y-113680001D01*
X105540605Y-113686137D01*
X105540605Y-114373863D01*
X105540001Y-114379999D01*
X105539999Y-114380001D01*
X105533863Y-114380605D01*
X105125605Y-114380605D01*
X105101219Y-114383007D01*
X105077770Y-114390120D01*
X105056159Y-114401671D01*
X105037217Y-114417217D01*
X105021671Y-114436159D01*
X105010120Y-114457770D01*
X105003007Y-114481219D01*
X105000605Y-114505605D01*
X105000605Y-116273863D01*
X105000001Y-116279999D01*
X104999999Y-116280001D01*
X104993863Y-116280605D01*
X104606137Y-116280605D01*
X104600001Y-116280001D01*
X104599999Y-116279999D01*
X104599395Y-116273863D01*
X104599395Y-115185605D01*
X104596993Y-115161219D01*
X104589880Y-115137770D01*
X104578329Y-115116159D01*
X104562783Y-115097217D01*
X104543841Y-115081671D01*
X104522230Y-115070120D01*
X104498781Y-115063007D01*
X104474395Y-115060605D01*
X104316137Y-115060605D01*
X104310001Y-115060001D01*
X104309999Y-115059999D01*
X104309395Y-115053863D01*
X104309395Y-113826137D01*
X104309999Y-113820001D01*
X104310000Y-113820000D01*
X104310005Y-113819999D01*
X104322250Y-113818793D01*
X104322239Y-113818682D01*
X104339386Y-113816993D01*
X104362835Y-113809880D01*
X104384446Y-113798329D01*
X104403388Y-113782783D01*
X104418934Y-113763841D01*
X104430485Y-113742230D01*
X104437598Y-113718781D01*
X104440000Y-113694395D01*
X104440000Y-113280000D01*
X104640000Y-113280000D01*
X104640000Y-113694395D01*
X104640000Y-113694395D01*
G37*
G36*
X103161066Y-113768841D02*
X103176612Y-113787783D01*
X103195554Y-113803329D01*
X103217165Y-113814880D01*
X103240614Y-113821993D01*
X103265000Y-113824395D01*
X103815000Y-113824395D01*
X103839386Y-113821993D01*
X103862835Y-113814880D01*
X103884446Y-113803329D01*
X103903388Y-113787783D01*
X103915399Y-113773149D01*
X103916092Y-113774446D01*
X103931638Y-113793388D01*
X103950580Y-113808934D01*
X103983740Y-113824617D01*
X103984998Y-113824999D01*
X103985000Y-113825000D01*
X103985001Y-113825001D01*
X103985605Y-113831137D01*
X103985605Y-115254395D01*
X103988007Y-115278781D01*
X103995120Y-115302230D01*
X104006671Y-115323841D01*
X104022217Y-115342783D01*
X104041159Y-115358329D01*
X104062770Y-115369880D01*
X104086219Y-115376993D01*
X104110605Y-115379395D01*
X104273863Y-115379395D01*
X104279999Y-115379999D01*
X104279998Y-115379999D01*
X104280000Y-115380000D01*
X104280001Y-115380001D01*
X104280605Y-115386137D01*
X104280605Y-116273863D01*
X104280001Y-116279999D01*
X104279999Y-116280001D01*
X104273863Y-116280605D01*
X102936137Y-116280605D01*
X102930001Y-116280001D01*
X102929999Y-116279999D01*
X102929395Y-116273863D01*
X102929395Y-116005605D01*
X102926993Y-115981219D01*
X102919880Y-115957770D01*
X102908329Y-115936159D01*
X102892783Y-115917217D01*
X102873841Y-115901671D01*
X102852230Y-115890120D01*
X102828781Y-115883007D01*
X102804395Y-115880605D01*
X102546137Y-115880605D01*
X102540001Y-115880001D01*
X102539999Y-115879999D01*
X102539395Y-115873863D01*
X102539395Y-115686137D01*
X102539999Y-115680001D01*
X102540000Y-115680000D01*
X102540002Y-115679999D01*
X102540001Y-115679999D01*
X102546137Y-115679395D01*
X102804395Y-115679395D01*
X102828781Y-115676993D01*
X102852230Y-115669880D01*
X102873841Y-115658329D01*
X102892783Y-115642783D01*
X102908329Y-115623841D01*
X102919880Y-115602230D01*
X102926993Y-115578781D01*
X102929395Y-115554395D01*
X102929395Y-115505605D01*
X102926993Y-115481219D01*
X102919880Y-115457770D01*
X102908329Y-115436159D01*
X102892783Y-115417217D01*
X102873841Y-115401671D01*
X102852230Y-115390120D01*
X102828781Y-115383007D01*
X102804395Y-115380605D01*
X102546137Y-115380605D01*
X102540001Y-115380001D01*
X102539999Y-115379999D01*
X102539395Y-115373863D01*
X102539395Y-115186137D01*
X102539999Y-115180001D01*
X102540000Y-115180000D01*
X102540002Y-115179999D01*
X102540001Y-115179999D01*
X102546137Y-115179395D01*
X102959395Y-115179395D01*
X102983781Y-115176993D01*
X103007230Y-115169880D01*
X103028841Y-115158329D01*
X103047783Y-115142783D01*
X103063329Y-115123841D01*
X103074880Y-115102230D01*
X103081993Y-115078781D01*
X103084395Y-115054395D01*
X103084395Y-115005000D01*
X103081993Y-114980614D01*
X103074880Y-114957165D01*
X103063329Y-114935554D01*
X103047783Y-114916612D01*
X103028841Y-114901066D01*
X103007230Y-114889515D01*
X102983781Y-114882402D01*
X102959395Y-114880000D01*
X102540000Y-114880000D01*
X102540000Y-114680000D01*
X102959395Y-114680000D01*
X102983781Y-114677598D01*
X103007230Y-114670485D01*
X103028841Y-114658934D01*
X103047783Y-114643388D01*
X103063329Y-114624446D01*
X103074880Y-114602835D01*
X103081993Y-114579386D01*
X103084395Y-114555000D01*
X103084395Y-114505000D01*
X103081993Y-114480614D01*
X103074880Y-114457165D01*
X103063329Y-114435554D01*
X103047783Y-114416612D01*
X103028841Y-114401066D01*
X103007230Y-114389515D01*
X102983781Y-114382402D01*
X102959395Y-114380000D01*
X102540000Y-114380000D01*
X102540000Y-114180000D01*
X102959395Y-114180000D01*
X102983781Y-114177598D01*
X103007230Y-114170485D01*
X103028841Y-114158934D01*
X103047783Y-114143388D01*
X103063329Y-114124446D01*
X103074880Y-114102835D01*
X103081993Y-114079386D01*
X103084395Y-114055000D01*
X103084395Y-114005000D01*
X103081993Y-113980614D01*
X103074880Y-113957165D01*
X103063329Y-113935554D01*
X103047783Y-113916612D01*
X103028841Y-113901066D01*
X103024947Y-113898985D01*
X103034446Y-113893908D01*
X103053388Y-113878362D01*
X103068934Y-113859420D01*
X103084617Y-113826260D01*
X103084999Y-113825002D01*
X103085000Y-113825000D01*
X103085002Y-113824999D01*
X103086260Y-113824617D01*
X103108899Y-113815240D01*
X103129274Y-113801626D01*
X103146601Y-113784299D01*
X103159227Y-113765401D01*
X103161066Y-113768841D01*
X103161066Y-113768841D01*
G37*
G36*
X105540000Y-115880000D02*
X105280000Y-115880000D01*
X105280000Y-114680000D01*
X105540000Y-114680000D01*
X105540000Y-115880000D01*
X105540000Y-115880000D01*
G37*
G36*
X133563964Y-114128837D02*
X133595528Y-114138412D01*
X133624617Y-114153960D01*
X133650114Y-114174886D01*
X133671040Y-114200383D01*
X133686588Y-114229472D01*
X133696163Y-114261036D01*
X133700000Y-114299998D01*
X133700000Y-115700002D01*
X133696163Y-115738964D01*
X133686588Y-115770528D01*
X133671040Y-115799617D01*
X133650114Y-115825114D01*
X133624617Y-115846040D01*
X133595528Y-115861588D01*
X133563964Y-115871163D01*
X133525002Y-115875000D01*
X132449998Y-115875000D01*
X132411036Y-115871163D01*
X132379472Y-115861588D01*
X132350383Y-115846040D01*
X132324886Y-115825114D01*
X132303960Y-115799617D01*
X132288412Y-115770528D01*
X132278837Y-115738964D01*
X132275000Y-115700002D01*
X132275000Y-114299998D01*
X132278837Y-114261036D01*
X132288412Y-114229472D01*
X132303960Y-114200383D01*
X132324886Y-114174886D01*
X132350383Y-114153960D01*
X132379472Y-114138412D01*
X132411036Y-114128837D01*
X132449998Y-114125000D01*
X133525002Y-114125000D01*
X133563964Y-114128837D01*
X133563964Y-114128837D01*
G37*
G36*
X130588964Y-114128837D02*
X130620528Y-114138412D01*
X130649617Y-114153960D01*
X130675114Y-114174886D01*
X130696040Y-114200383D01*
X130711588Y-114229472D01*
X130721163Y-114261036D01*
X130725000Y-114299998D01*
X130725000Y-115700002D01*
X130721163Y-115738964D01*
X130711588Y-115770528D01*
X130696040Y-115799617D01*
X130675114Y-115825114D01*
X130649617Y-115846040D01*
X130620528Y-115861588D01*
X130588964Y-115871163D01*
X130550002Y-115875000D01*
X129474998Y-115875000D01*
X129436036Y-115871163D01*
X129404472Y-115861588D01*
X129375383Y-115846040D01*
X129349886Y-115825114D01*
X129328960Y-115799617D01*
X129313412Y-115770528D01*
X129303837Y-115738964D01*
X129300000Y-115700002D01*
X129300000Y-114299998D01*
X129303837Y-114261036D01*
X129313412Y-114229472D01*
X129328960Y-114200383D01*
X129349886Y-114174886D01*
X129375383Y-114153960D01*
X129404472Y-114138412D01*
X129436036Y-114128837D01*
X129474998Y-114125000D01*
X130550002Y-114125000D01*
X130588964Y-114128837D01*
X130588964Y-114128837D01*
G37*
G36*
X100400000Y-115600000D02*
X99200000Y-115600000D01*
X99200000Y-114400000D01*
X100400000Y-114400000D01*
X100400000Y-115600000D01*
X100400000Y-115600000D01*
G37*
G36*
X124738964Y-113778837D02*
X124770528Y-113788412D01*
X124799617Y-113803960D01*
X124825114Y-113824886D01*
X124846040Y-113850383D01*
X124861588Y-113879472D01*
X124871163Y-113911036D01*
X124875000Y-113949998D01*
X124875000Y-115025002D01*
X124871163Y-115063964D01*
X124861588Y-115095528D01*
X124846040Y-115124617D01*
X124825114Y-115150114D01*
X124799617Y-115171040D01*
X124770528Y-115186588D01*
X124738964Y-115196163D01*
X124700002Y-115200000D01*
X123299998Y-115200000D01*
X123261036Y-115196163D01*
X123229472Y-115186588D01*
X123200383Y-115171040D01*
X123174886Y-115150114D01*
X123153960Y-115124617D01*
X123138412Y-115095528D01*
X123128837Y-115063964D01*
X123125000Y-115025002D01*
X123125000Y-113949998D01*
X123128837Y-113911036D01*
X123138412Y-113879472D01*
X123153960Y-113850383D01*
X123174886Y-113824886D01*
X123200383Y-113803960D01*
X123229472Y-113788412D01*
X123261036Y-113778837D01*
X123299998Y-113775000D01*
X124700002Y-113775000D01*
X124738964Y-113778837D01*
X124738964Y-113778837D01*
G37*
G36*
X127738964Y-113778837D02*
X127770528Y-113788412D01*
X127799617Y-113803960D01*
X127825114Y-113824886D01*
X127846040Y-113850383D01*
X127861588Y-113879472D01*
X127871163Y-113911036D01*
X127875000Y-113949998D01*
X127875000Y-115025002D01*
X127871163Y-115063964D01*
X127861588Y-115095528D01*
X127846040Y-115124617D01*
X127825114Y-115150114D01*
X127799617Y-115171040D01*
X127770528Y-115186588D01*
X127738964Y-115196163D01*
X127700002Y-115200000D01*
X126299998Y-115200000D01*
X126261036Y-115196163D01*
X126229472Y-115186588D01*
X126200383Y-115171040D01*
X126174886Y-115150114D01*
X126153960Y-115124617D01*
X126138412Y-115095528D01*
X126128837Y-115063964D01*
X126125000Y-115025002D01*
X126125000Y-113949998D01*
X126128837Y-113911036D01*
X126138412Y-113879472D01*
X126153960Y-113850383D01*
X126174886Y-113824886D01*
X126200383Y-113803960D01*
X126229472Y-113788412D01*
X126261036Y-113778837D01*
X126299998Y-113775000D01*
X127700002Y-113775000D01*
X127738964Y-113778837D01*
X127738964Y-113778837D01*
G37*
G36*
X102842402Y-113680614D02*
X102840000Y-113705000D01*
X102840000Y-113789974D01*
X102842402Y-113814360D01*
X102849515Y-113837809D01*
X102861066Y-113859420D01*
X102876612Y-113878362D01*
X102878608Y-113880000D01*
X102540000Y-113880000D01*
X102540000Y-113680000D01*
X102815000Y-113680000D01*
X102839386Y-113677598D01*
X102843715Y-113676285D01*
X102842402Y-113680614D01*
X102842402Y-113680614D01*
G37*
G36*
X103140000Y-113619100D02*
X103129273Y-113608373D01*
X103108898Y-113594760D01*
X103086259Y-113585382D01*
X103049974Y-113580000D01*
X102965000Y-113580000D01*
X102940614Y-113582402D01*
X102936285Y-113583715D01*
X102937598Y-113579386D01*
X102940000Y-113555000D01*
X102940000Y-113280000D01*
X103140000Y-113280000D01*
X103140000Y-113619100D01*
X103140000Y-113619100D01*
G37*
G36*
X104140000Y-113580000D02*
X104020026Y-113580000D01*
X103995640Y-113582402D01*
X103972191Y-113589515D01*
X103950580Y-113601066D01*
X103940000Y-113609749D01*
X103940000Y-113280000D01*
X104140000Y-113280000D01*
X104140000Y-113580000D01*
X104140000Y-113580000D01*
G37*
G36*
X100334024Y-112353955D02*
X100366736Y-112363879D01*
X100396890Y-112379997D01*
X100423316Y-112401684D01*
X100445003Y-112428110D01*
X100461121Y-112458264D01*
X100471045Y-112490976D01*
X100475000Y-112531138D01*
X100475000Y-113218862D01*
X100471045Y-113259024D01*
X100461121Y-113291736D01*
X100445003Y-113321890D01*
X100423316Y-113348316D01*
X100396890Y-113370003D01*
X100366736Y-113386121D01*
X100334024Y-113396045D01*
X100293862Y-113400000D01*
X99706138Y-113400000D01*
X99665976Y-113396045D01*
X99633264Y-113386121D01*
X99603110Y-113370003D01*
X99576684Y-113348316D01*
X99554997Y-113321890D01*
X99538879Y-113291736D01*
X99528955Y-113259024D01*
X99525000Y-113218862D01*
X99525000Y-112531138D01*
X99528955Y-112490976D01*
X99538879Y-112458264D01*
X99554997Y-112428110D01*
X99576684Y-112401684D01*
X99603110Y-112379997D01*
X99633264Y-112363879D01*
X99665976Y-112353955D01*
X99706138Y-112350000D01*
X100293862Y-112350000D01*
X100334024Y-112353955D01*
X100334024Y-112353955D01*
G37*
G36*
X98834024Y-112353955D02*
X98866736Y-112363879D01*
X98896890Y-112379997D01*
X98923316Y-112401684D01*
X98945003Y-112428110D01*
X98961121Y-112458264D01*
X98971045Y-112490976D01*
X98975000Y-112531138D01*
X98975000Y-113218862D01*
X98971045Y-113259024D01*
X98961121Y-113291736D01*
X98945003Y-113321890D01*
X98923316Y-113348316D01*
X98896890Y-113370003D01*
X98866736Y-113386121D01*
X98834024Y-113396045D01*
X98793862Y-113400000D01*
X98206138Y-113400000D01*
X98165976Y-113396045D01*
X98133264Y-113386121D01*
X98103110Y-113370003D01*
X98076684Y-113348316D01*
X98054997Y-113321890D01*
X98038879Y-113291736D01*
X98028955Y-113259024D01*
X98025000Y-113218862D01*
X98025000Y-112531138D01*
X98028955Y-112490976D01*
X98038879Y-112458264D01*
X98054997Y-112428110D01*
X98076684Y-112401684D01*
X98103110Y-112379997D01*
X98133264Y-112363879D01*
X98165976Y-112353955D01*
X98206138Y-112350000D01*
X98793862Y-112350000D01*
X98834024Y-112353955D01*
X98834024Y-112353955D01*
G37*
G36*
X130588964Y-111128837D02*
X130620528Y-111138412D01*
X130649617Y-111153960D01*
X130675114Y-111174886D01*
X130696040Y-111200383D01*
X130711588Y-111229472D01*
X130721163Y-111261036D01*
X130725000Y-111299998D01*
X130725000Y-112700002D01*
X130721163Y-112738964D01*
X130711588Y-112770528D01*
X130696040Y-112799617D01*
X130675114Y-112825114D01*
X130649617Y-112846040D01*
X130620528Y-112861588D01*
X130588964Y-112871163D01*
X130550002Y-112875000D01*
X129474998Y-112875000D01*
X129436036Y-112871163D01*
X129404472Y-112861588D01*
X129375383Y-112846040D01*
X129349886Y-112825114D01*
X129328960Y-112799617D01*
X129313412Y-112770528D01*
X129303837Y-112738964D01*
X129300000Y-112700002D01*
X129300000Y-111299998D01*
X129303837Y-111261036D01*
X129313412Y-111229472D01*
X129328960Y-111200383D01*
X129349886Y-111174886D01*
X129375383Y-111153960D01*
X129404472Y-111138412D01*
X129436036Y-111128837D01*
X129474998Y-111125000D01*
X130550002Y-111125000D01*
X130588964Y-111128837D01*
X130588964Y-111128837D01*
G37*
G36*
X133563964Y-111128837D02*
X133595528Y-111138412D01*
X133624617Y-111153960D01*
X133650114Y-111174886D01*
X133671040Y-111200383D01*
X133686588Y-111229472D01*
X133696163Y-111261036D01*
X133700000Y-111299998D01*
X133700000Y-112700002D01*
X133696163Y-112738964D01*
X133686588Y-112770528D01*
X133671040Y-112799617D01*
X133650114Y-112825114D01*
X133624617Y-112846040D01*
X133595528Y-112861588D01*
X133563964Y-112871163D01*
X133525002Y-112875000D01*
X132449998Y-112875000D01*
X132411036Y-112871163D01*
X132379472Y-112861588D01*
X132350383Y-112846040D01*
X132324886Y-112825114D01*
X132303960Y-112799617D01*
X132288412Y-112770528D01*
X132278837Y-112738964D01*
X132275000Y-112700002D01*
X132275000Y-111299998D01*
X132278837Y-111261036D01*
X132288412Y-111229472D01*
X132303960Y-111200383D01*
X132324886Y-111174886D01*
X132350383Y-111153960D01*
X132379472Y-111138412D01*
X132411036Y-111128837D01*
X132449998Y-111125000D01*
X133525002Y-111125000D01*
X133563964Y-111128837D01*
X133563964Y-111128837D01*
G37*
G36*
X124738964Y-110803837D02*
X124770528Y-110813412D01*
X124799617Y-110828960D01*
X124825114Y-110849886D01*
X124846040Y-110875383D01*
X124861588Y-110904472D01*
X124871163Y-110936036D01*
X124875000Y-110974998D01*
X124875000Y-112050002D01*
X124871163Y-112088964D01*
X124861588Y-112120528D01*
X124846040Y-112149617D01*
X124825114Y-112175114D01*
X124799617Y-112196040D01*
X124770528Y-112211588D01*
X124738964Y-112221163D01*
X124700002Y-112225000D01*
X123299998Y-112225000D01*
X123261036Y-112221163D01*
X123229472Y-112211588D01*
X123200383Y-112196040D01*
X123174886Y-112175114D01*
X123153960Y-112149617D01*
X123138412Y-112120528D01*
X123128837Y-112088964D01*
X123125000Y-112050002D01*
X123125000Y-110974998D01*
X123128837Y-110936036D01*
X123138412Y-110904472D01*
X123153960Y-110875383D01*
X123174886Y-110849886D01*
X123200383Y-110828960D01*
X123229472Y-110813412D01*
X123261036Y-110803837D01*
X123299998Y-110800000D01*
X124700002Y-110800000D01*
X124738964Y-110803837D01*
X124738964Y-110803837D01*
G37*
G36*
X127738964Y-110803837D02*
X127770528Y-110813412D01*
X127799617Y-110828960D01*
X127825114Y-110849886D01*
X127846040Y-110875383D01*
X127861588Y-110904472D01*
X127871163Y-110936036D01*
X127875000Y-110974998D01*
X127875000Y-112050002D01*
X127871163Y-112088964D01*
X127861588Y-112120528D01*
X127846040Y-112149617D01*
X127825114Y-112175114D01*
X127799617Y-112196040D01*
X127770528Y-112211588D01*
X127738964Y-112221163D01*
X127700002Y-112225000D01*
X126299998Y-112225000D01*
X126261036Y-112221163D01*
X126229472Y-112211588D01*
X126200383Y-112196040D01*
X126174886Y-112175114D01*
X126153960Y-112149617D01*
X126138412Y-112120528D01*
X126128837Y-112088964D01*
X126125000Y-112050002D01*
X126125000Y-110974998D01*
X126128837Y-110936036D01*
X126138412Y-110904472D01*
X126153960Y-110875383D01*
X126174886Y-110849886D01*
X126200383Y-110828960D01*
X126229472Y-110813412D01*
X126261036Y-110803837D01*
X126299998Y-110800000D01*
X127700002Y-110800000D01*
X127738964Y-110803837D01*
X127738964Y-110803837D01*
G37*
G36*
X107259024Y-111028955D02*
X107291736Y-111038879D01*
X107321890Y-111054997D01*
X107348316Y-111076684D01*
X107370003Y-111103110D01*
X107386121Y-111133264D01*
X107396045Y-111165976D01*
X107400000Y-111206138D01*
X107400000Y-111793862D01*
X107396045Y-111834024D01*
X107386121Y-111866736D01*
X107370003Y-111896890D01*
X107348316Y-111923316D01*
X107321890Y-111945003D01*
X107291736Y-111961121D01*
X107259024Y-111971045D01*
X107218862Y-111975000D01*
X106531138Y-111975000D01*
X106490976Y-111971045D01*
X106458264Y-111961121D01*
X106428110Y-111945003D01*
X106401684Y-111923316D01*
X106379997Y-111896890D01*
X106363879Y-111866736D01*
X106353955Y-111834024D01*
X106350000Y-111793862D01*
X106350000Y-111206138D01*
X106353955Y-111165976D01*
X106363879Y-111133264D01*
X106379997Y-111103110D01*
X106401684Y-111076684D01*
X106428110Y-111054997D01*
X106458264Y-111038879D01*
X106490976Y-111028955D01*
X106531138Y-111025000D01*
X107218862Y-111025000D01*
X107259024Y-111028955D01*
X107259024Y-111028955D01*
G37*
G36*
X105509024Y-111028955D02*
X105541736Y-111038879D01*
X105571890Y-111054997D01*
X105598316Y-111076684D01*
X105620003Y-111103110D01*
X105636121Y-111133264D01*
X105646045Y-111165976D01*
X105650000Y-111206138D01*
X105650000Y-111793862D01*
X105646045Y-111834024D01*
X105636121Y-111866736D01*
X105620003Y-111896890D01*
X105598316Y-111923316D01*
X105571890Y-111945003D01*
X105541736Y-111961121D01*
X105509024Y-111971045D01*
X105468862Y-111975000D01*
X104781138Y-111975000D01*
X104740976Y-111971045D01*
X104708264Y-111961121D01*
X104678110Y-111945003D01*
X104651684Y-111923316D01*
X104629997Y-111896890D01*
X104613879Y-111866736D01*
X104603955Y-111834024D01*
X104600000Y-111793862D01*
X104600000Y-111206138D01*
X104603955Y-111165976D01*
X104613879Y-111133264D01*
X104629997Y-111103110D01*
X104651684Y-111076684D01*
X104678110Y-111054997D01*
X104708264Y-111038879D01*
X104740976Y-111028955D01*
X104781138Y-111025000D01*
X105468862Y-111025000D01*
X105509024Y-111028955D01*
X105509024Y-111028955D01*
G37*
G36*
X103334024Y-110853955D02*
X103366736Y-110863879D01*
X103396890Y-110879997D01*
X103423316Y-110901684D01*
X103445003Y-110928110D01*
X103461121Y-110958264D01*
X103471045Y-110990976D01*
X103475000Y-111031138D01*
X103475000Y-111718862D01*
X103471045Y-111759024D01*
X103461121Y-111791736D01*
X103445003Y-111821890D01*
X103423316Y-111848316D01*
X103396890Y-111870003D01*
X103366736Y-111886121D01*
X103334024Y-111896045D01*
X103293862Y-111900000D01*
X102706138Y-111900000D01*
X102665976Y-111896045D01*
X102633264Y-111886121D01*
X102603110Y-111870003D01*
X102576684Y-111848316D01*
X102554997Y-111821890D01*
X102538879Y-111791736D01*
X102528955Y-111759024D01*
X102525000Y-111718862D01*
X102525000Y-111031138D01*
X102528955Y-110990976D01*
X102538879Y-110958264D01*
X102554997Y-110928110D01*
X102576684Y-110901684D01*
X102603110Y-110879997D01*
X102633264Y-110863879D01*
X102665976Y-110853955D01*
X102706138Y-110850000D01*
X103293862Y-110850000D01*
X103334024Y-110853955D01*
X103334024Y-110853955D01*
G37*
G36*
X101834024Y-110853955D02*
X101866736Y-110863879D01*
X101896890Y-110879997D01*
X101923316Y-110901684D01*
X101945003Y-110928110D01*
X101961121Y-110958264D01*
X101971045Y-110990976D01*
X101975000Y-111031138D01*
X101975000Y-111718862D01*
X101971045Y-111759024D01*
X101961121Y-111791736D01*
X101945003Y-111821890D01*
X101923316Y-111848316D01*
X101896890Y-111870003D01*
X101866736Y-111886121D01*
X101834024Y-111896045D01*
X101793862Y-111900000D01*
X101206138Y-111900000D01*
X101165976Y-111896045D01*
X101133264Y-111886121D01*
X101103110Y-111870003D01*
X101076684Y-111848316D01*
X101054997Y-111821890D01*
X101038879Y-111791736D01*
X101028955Y-111759024D01*
X101025000Y-111718862D01*
X101025000Y-111031138D01*
X101028955Y-110990976D01*
X101038879Y-110958264D01*
X101054997Y-110928110D01*
X101076684Y-110901684D01*
X101103110Y-110879997D01*
X101133264Y-110863879D01*
X101165976Y-110853955D01*
X101206138Y-110850000D01*
X101793862Y-110850000D01*
X101834024Y-110853955D01*
X101834024Y-110853955D01*
G37*
G36*
X98834024Y-110603955D02*
X98866736Y-110613879D01*
X98896890Y-110629997D01*
X98923316Y-110651684D01*
X98945003Y-110678110D01*
X98961121Y-110708264D01*
X98971045Y-110740976D01*
X98975000Y-110781138D01*
X98975000Y-111468862D01*
X98971045Y-111509024D01*
X98961121Y-111541736D01*
X98945003Y-111571890D01*
X98923316Y-111598316D01*
X98896890Y-111620003D01*
X98866736Y-111636121D01*
X98834024Y-111646045D01*
X98793862Y-111650000D01*
X98206138Y-111650000D01*
X98165976Y-111646045D01*
X98133264Y-111636121D01*
X98103110Y-111620003D01*
X98076684Y-111598316D01*
X98054997Y-111571890D01*
X98038879Y-111541736D01*
X98028955Y-111509024D01*
X98025000Y-111468862D01*
X98025000Y-110781138D01*
X98028955Y-110740976D01*
X98038879Y-110708264D01*
X98054997Y-110678110D01*
X98076684Y-110651684D01*
X98103110Y-110629997D01*
X98133264Y-110613879D01*
X98165976Y-110603955D01*
X98206138Y-110600000D01*
X98793862Y-110600000D01*
X98834024Y-110603955D01*
X98834024Y-110603955D01*
G37*
G36*
X100334024Y-110603955D02*
X100366736Y-110613879D01*
X100396890Y-110629997D01*
X100423316Y-110651684D01*
X100445003Y-110678110D01*
X100461121Y-110708264D01*
X100471045Y-110740976D01*
X100475000Y-110781138D01*
X100475000Y-111468862D01*
X100471045Y-111509024D01*
X100461121Y-111541736D01*
X100445003Y-111571890D01*
X100423316Y-111598316D01*
X100396890Y-111620003D01*
X100366736Y-111636121D01*
X100334024Y-111646045D01*
X100293862Y-111650000D01*
X99706138Y-111650000D01*
X99665976Y-111646045D01*
X99633264Y-111636121D01*
X99603110Y-111620003D01*
X99576684Y-111598316D01*
X99554997Y-111571890D01*
X99538879Y-111541736D01*
X99528955Y-111509024D01*
X99525000Y-111468862D01*
X99525000Y-110781138D01*
X99528955Y-110740976D01*
X99538879Y-110708264D01*
X99554997Y-110678110D01*
X99576684Y-110651684D01*
X99603110Y-110629997D01*
X99633264Y-110613879D01*
X99665976Y-110603955D01*
X99706138Y-110600000D01*
X100293862Y-110600000D01*
X100334024Y-110603955D01*
X100334024Y-110603955D01*
G37*
G36*
X107259024Y-109528955D02*
X107291736Y-109538879D01*
X107321890Y-109554997D01*
X107348316Y-109576684D01*
X107370003Y-109603110D01*
X107386121Y-109633264D01*
X107396045Y-109665976D01*
X107400000Y-109706138D01*
X107400000Y-110293862D01*
X107396045Y-110334024D01*
X107386121Y-110366736D01*
X107370003Y-110396890D01*
X107348316Y-110423316D01*
X107321890Y-110445003D01*
X107291736Y-110461121D01*
X107259024Y-110471045D01*
X107218862Y-110475000D01*
X106531138Y-110475000D01*
X106490976Y-110471045D01*
X106458264Y-110461121D01*
X106428110Y-110445003D01*
X106401684Y-110423316D01*
X106379997Y-110396890D01*
X106363879Y-110366736D01*
X106353955Y-110334024D01*
X106350000Y-110293862D01*
X106350000Y-109706138D01*
X106353955Y-109665976D01*
X106363879Y-109633264D01*
X106379997Y-109603110D01*
X106401684Y-109576684D01*
X106428110Y-109554997D01*
X106458264Y-109538879D01*
X106490976Y-109528955D01*
X106531138Y-109525000D01*
X107218862Y-109525000D01*
X107259024Y-109528955D01*
X107259024Y-109528955D01*
G37*
G36*
X105509024Y-109528955D02*
X105541736Y-109538879D01*
X105571890Y-109554997D01*
X105598316Y-109576684D01*
X105620003Y-109603110D01*
X105636121Y-109633264D01*
X105646045Y-109665976D01*
X105650000Y-109706138D01*
X105650000Y-110293862D01*
X105646045Y-110334024D01*
X105636121Y-110366736D01*
X105620003Y-110396890D01*
X105598316Y-110423316D01*
X105571890Y-110445003D01*
X105541736Y-110461121D01*
X105509024Y-110471045D01*
X105468862Y-110475000D01*
X104781138Y-110475000D01*
X104740976Y-110471045D01*
X104708264Y-110461121D01*
X104678110Y-110445003D01*
X104651684Y-110423316D01*
X104629997Y-110396890D01*
X104613879Y-110366736D01*
X104603955Y-110334024D01*
X104600000Y-110293862D01*
X104600000Y-109706138D01*
X104603955Y-109665976D01*
X104613879Y-109633264D01*
X104629997Y-109603110D01*
X104651684Y-109576684D01*
X104678110Y-109554997D01*
X104708264Y-109538879D01*
X104740976Y-109528955D01*
X104781138Y-109525000D01*
X105468862Y-109525000D01*
X105509024Y-109528955D01*
X105509024Y-109528955D01*
G37*
G36*
X103334024Y-109103955D02*
X103366736Y-109113879D01*
X103396890Y-109129997D01*
X103423316Y-109151684D01*
X103445003Y-109178110D01*
X103461121Y-109208264D01*
X103471045Y-109240976D01*
X103475000Y-109281138D01*
X103475000Y-109968862D01*
X103471045Y-110009024D01*
X103461121Y-110041736D01*
X103445003Y-110071890D01*
X103423316Y-110098316D01*
X103396890Y-110120003D01*
X103366736Y-110136121D01*
X103334024Y-110146045D01*
X103293862Y-110150000D01*
X102706138Y-110150000D01*
X102665976Y-110146045D01*
X102633264Y-110136121D01*
X102603110Y-110120003D01*
X102576684Y-110098316D01*
X102554997Y-110071890D01*
X102538879Y-110041736D01*
X102528955Y-110009024D01*
X102525000Y-109968862D01*
X102525000Y-109281138D01*
X102528955Y-109240976D01*
X102538879Y-109208264D01*
X102554997Y-109178110D01*
X102576684Y-109151684D01*
X102603110Y-109129997D01*
X102633264Y-109113879D01*
X102665976Y-109103955D01*
X102706138Y-109100000D01*
X103293862Y-109100000D01*
X103334024Y-109103955D01*
X103334024Y-109103955D01*
G37*
G36*
X101834024Y-109103955D02*
X101866736Y-109113879D01*
X101896890Y-109129997D01*
X101923316Y-109151684D01*
X101945003Y-109178110D01*
X101961121Y-109208264D01*
X101971045Y-109240976D01*
X101975000Y-109281138D01*
X101975000Y-109968862D01*
X101971045Y-110009024D01*
X101961121Y-110041736D01*
X101945003Y-110071890D01*
X101923316Y-110098316D01*
X101896890Y-110120003D01*
X101866736Y-110136121D01*
X101834024Y-110146045D01*
X101793862Y-110150000D01*
X101206138Y-110150000D01*
X101165976Y-110146045D01*
X101133264Y-110136121D01*
X101103110Y-110120003D01*
X101076684Y-110098316D01*
X101054997Y-110071890D01*
X101038879Y-110041736D01*
X101028955Y-110009024D01*
X101025000Y-109968862D01*
X101025000Y-109281138D01*
X101028955Y-109240976D01*
X101038879Y-109208264D01*
X101054997Y-109178110D01*
X101076684Y-109151684D01*
X101103110Y-109129997D01*
X101133264Y-109113879D01*
X101165976Y-109103955D01*
X101206138Y-109100000D01*
X101793862Y-109100000D01*
X101834024Y-109103955D01*
X101834024Y-109103955D01*
G37*
G36*
X100334024Y-108853955D02*
X100366736Y-108863879D01*
X100396890Y-108879997D01*
X100423316Y-108901684D01*
X100445003Y-108928110D01*
X100461121Y-108958264D01*
X100471045Y-108990976D01*
X100475000Y-109031138D01*
X100475000Y-109718862D01*
X100471045Y-109759024D01*
X100461121Y-109791736D01*
X100445003Y-109821890D01*
X100423316Y-109848316D01*
X100396890Y-109870003D01*
X100366736Y-109886121D01*
X100334024Y-109896045D01*
X100293862Y-109900000D01*
X99706138Y-109900000D01*
X99665976Y-109896045D01*
X99633264Y-109886121D01*
X99603110Y-109870003D01*
X99576684Y-109848316D01*
X99554997Y-109821890D01*
X99538879Y-109791736D01*
X99528955Y-109759024D01*
X99525000Y-109718862D01*
X99525000Y-109031138D01*
X99528955Y-108990976D01*
X99538879Y-108958264D01*
X99554997Y-108928110D01*
X99576684Y-108901684D01*
X99603110Y-108879997D01*
X99633264Y-108863879D01*
X99665976Y-108853955D01*
X99706138Y-108850000D01*
X100293862Y-108850000D01*
X100334024Y-108853955D01*
X100334024Y-108853955D01*
G37*
G36*
X98834024Y-108853955D02*
X98866736Y-108863879D01*
X98896890Y-108879997D01*
X98923316Y-108901684D01*
X98945003Y-108928110D01*
X98961121Y-108958264D01*
X98971045Y-108990976D01*
X98975000Y-109031138D01*
X98975000Y-109718862D01*
X98971045Y-109759024D01*
X98961121Y-109791736D01*
X98945003Y-109821890D01*
X98923316Y-109848316D01*
X98896890Y-109870003D01*
X98866736Y-109886121D01*
X98834024Y-109896045D01*
X98793862Y-109900000D01*
X98206138Y-109900000D01*
X98165976Y-109896045D01*
X98133264Y-109886121D01*
X98103110Y-109870003D01*
X98076684Y-109848316D01*
X98054997Y-109821890D01*
X98038879Y-109791736D01*
X98028955Y-109759024D01*
X98025000Y-109718862D01*
X98025000Y-109031138D01*
X98028955Y-108990976D01*
X98038879Y-108958264D01*
X98054997Y-108928110D01*
X98076684Y-108901684D01*
X98103110Y-108879997D01*
X98133264Y-108863879D01*
X98165976Y-108853955D01*
X98206138Y-108850000D01*
X98793862Y-108850000D01*
X98834024Y-108853955D01*
X98834024Y-108853955D01*
G37*
G36*
X132334024Y-108353955D02*
X132366736Y-108363879D01*
X132396890Y-108379997D01*
X132423316Y-108401684D01*
X132445003Y-108428110D01*
X132461121Y-108458264D01*
X132471045Y-108490976D01*
X132475000Y-108531138D01*
X132475000Y-109218862D01*
X132471045Y-109259024D01*
X132461121Y-109291736D01*
X132445003Y-109321890D01*
X132423316Y-109348316D01*
X132396890Y-109370003D01*
X132366736Y-109386121D01*
X132334024Y-109396045D01*
X132293862Y-109400000D01*
X131706138Y-109400000D01*
X131665976Y-109396045D01*
X131633264Y-109386121D01*
X131603110Y-109370003D01*
X131576684Y-109348316D01*
X131554997Y-109321890D01*
X131538879Y-109291736D01*
X131528955Y-109259024D01*
X131525000Y-109218862D01*
X131525000Y-108531138D01*
X131528955Y-108490976D01*
X131538879Y-108458264D01*
X131554997Y-108428110D01*
X131576684Y-108401684D01*
X131603110Y-108379997D01*
X131633264Y-108363879D01*
X131665976Y-108353955D01*
X131706138Y-108350000D01*
X132293862Y-108350000D01*
X132334024Y-108353955D01*
X132334024Y-108353955D01*
G37*
G36*
X130834024Y-108353955D02*
X130866736Y-108363879D01*
X130896890Y-108379997D01*
X130923316Y-108401684D01*
X130945003Y-108428110D01*
X130961121Y-108458264D01*
X130971045Y-108490976D01*
X130975000Y-108531138D01*
X130975000Y-109218862D01*
X130971045Y-109259024D01*
X130961121Y-109291736D01*
X130945003Y-109321890D01*
X130923316Y-109348316D01*
X130896890Y-109370003D01*
X130866736Y-109386121D01*
X130834024Y-109396045D01*
X130793862Y-109400000D01*
X130206138Y-109400000D01*
X130165976Y-109396045D01*
X130133264Y-109386121D01*
X130103110Y-109370003D01*
X130076684Y-109348316D01*
X130054997Y-109321890D01*
X130038879Y-109291736D01*
X130028955Y-109259024D01*
X130025000Y-109218862D01*
X130025000Y-108531138D01*
X130028955Y-108490976D01*
X130038879Y-108458264D01*
X130054997Y-108428110D01*
X130076684Y-108401684D01*
X130103110Y-108379997D01*
X130133264Y-108363879D01*
X130165976Y-108353955D01*
X130206138Y-108350000D01*
X130793862Y-108350000D01*
X130834024Y-108353955D01*
X130834024Y-108353955D01*
G37*
G36*
X105509024Y-108028955D02*
X105541736Y-108038879D01*
X105571890Y-108054997D01*
X105598316Y-108076684D01*
X105620003Y-108103110D01*
X105636121Y-108133264D01*
X105646045Y-108165976D01*
X105650000Y-108206138D01*
X105650000Y-108793862D01*
X105646045Y-108834024D01*
X105636121Y-108866736D01*
X105620003Y-108896890D01*
X105598316Y-108923316D01*
X105571890Y-108945003D01*
X105541736Y-108961121D01*
X105509024Y-108971045D01*
X105468862Y-108975000D01*
X104781138Y-108975000D01*
X104740976Y-108971045D01*
X104708264Y-108961121D01*
X104678110Y-108945003D01*
X104651684Y-108923316D01*
X104629997Y-108896890D01*
X104613879Y-108866736D01*
X104603955Y-108834024D01*
X104600000Y-108793862D01*
X104600000Y-108206138D01*
X104603955Y-108165976D01*
X104613879Y-108133264D01*
X104629997Y-108103110D01*
X104651684Y-108076684D01*
X104678110Y-108054997D01*
X104708264Y-108038879D01*
X104740976Y-108028955D01*
X104781138Y-108025000D01*
X105468862Y-108025000D01*
X105509024Y-108028955D01*
X105509024Y-108028955D01*
G37*
G36*
X107259024Y-108028955D02*
X107291736Y-108038879D01*
X107321890Y-108054997D01*
X107348316Y-108076684D01*
X107370003Y-108103110D01*
X107386121Y-108133264D01*
X107396045Y-108165976D01*
X107400000Y-108206138D01*
X107400000Y-108793862D01*
X107396045Y-108834024D01*
X107386121Y-108866736D01*
X107370003Y-108896890D01*
X107348316Y-108923316D01*
X107321890Y-108945003D01*
X107291736Y-108961121D01*
X107259024Y-108971045D01*
X107218862Y-108975000D01*
X106531138Y-108975000D01*
X106490976Y-108971045D01*
X106458264Y-108961121D01*
X106428110Y-108945003D01*
X106401684Y-108923316D01*
X106379997Y-108896890D01*
X106363879Y-108866736D01*
X106353955Y-108834024D01*
X106350000Y-108793862D01*
X106350000Y-108206138D01*
X106353955Y-108165976D01*
X106363879Y-108133264D01*
X106379997Y-108103110D01*
X106401684Y-108076684D01*
X106428110Y-108054997D01*
X106458264Y-108038879D01*
X106490976Y-108028955D01*
X106531138Y-108025000D01*
X107218862Y-108025000D01*
X107259024Y-108028955D01*
X107259024Y-108028955D01*
G37*
G36*
X156927934Y-106682664D02*
X157082627Y-106746740D01*
X157221847Y-106839764D01*
X157340236Y-106958153D01*
X157433260Y-107097373D01*
X157497336Y-107252066D01*
X157530000Y-107416281D01*
X157530000Y-107583719D01*
X157497336Y-107747934D01*
X157433260Y-107902627D01*
X157340236Y-108041847D01*
X157221847Y-108160236D01*
X157082627Y-108253260D01*
X156927934Y-108317336D01*
X156763719Y-108350000D01*
X156596281Y-108350000D01*
X156432066Y-108317336D01*
X156277373Y-108253260D01*
X156138153Y-108160236D01*
X156019764Y-108041847D01*
X155926740Y-107902627D01*
X155862664Y-107747934D01*
X155830000Y-107583719D01*
X155830000Y-107416281D01*
X155862664Y-107252066D01*
X155926740Y-107097373D01*
X156019764Y-106958153D01*
X156138153Y-106839764D01*
X156277373Y-106746740D01*
X156432066Y-106682664D01*
X156596281Y-106650000D01*
X156763719Y-106650000D01*
X156927934Y-106682664D01*
X156927934Y-106682664D01*
G37*
G36*
X149916630Y-106662299D02*
X150076855Y-106710903D01*
X150224520Y-106789831D01*
X150353949Y-106896051D01*
X150460169Y-107025480D01*
X150539097Y-107173145D01*
X150587701Y-107333370D01*
X150604112Y-107500000D01*
X150587701Y-107666630D01*
X150539097Y-107826855D01*
X150460169Y-107974520D01*
X150353949Y-108103949D01*
X150224520Y-108210169D01*
X150076855Y-108289097D01*
X149916630Y-108337701D01*
X149791752Y-108350000D01*
X149208248Y-108350000D01*
X149083370Y-108337701D01*
X148923145Y-108289097D01*
X148775480Y-108210169D01*
X148646051Y-108103949D01*
X148539831Y-107974520D01*
X148460903Y-107826855D01*
X148412299Y-107666630D01*
X148395888Y-107500000D01*
X148412299Y-107333370D01*
X148460903Y-107173145D01*
X148539831Y-107025480D01*
X148646051Y-106896051D01*
X148775480Y-106789831D01*
X148923145Y-106710903D01*
X149083370Y-106662299D01*
X149208248Y-106650000D01*
X149791752Y-106650000D01*
X149916630Y-106662299D01*
X149916630Y-106662299D01*
G37*
G36*
X100334024Y-107103955D02*
X100366736Y-107113879D01*
X100396890Y-107129997D01*
X100423316Y-107151684D01*
X100445003Y-107178110D01*
X100461121Y-107208264D01*
X100471045Y-107240976D01*
X100475000Y-107281138D01*
X100475000Y-107968862D01*
X100471045Y-108009024D01*
X100461121Y-108041736D01*
X100445003Y-108071890D01*
X100423316Y-108098316D01*
X100396890Y-108120003D01*
X100366736Y-108136121D01*
X100334024Y-108146045D01*
X100293862Y-108150000D01*
X99706138Y-108150000D01*
X99665976Y-108146045D01*
X99633264Y-108136121D01*
X99603110Y-108120003D01*
X99576684Y-108098316D01*
X99554997Y-108071890D01*
X99538879Y-108041736D01*
X99528955Y-108009024D01*
X99525000Y-107968862D01*
X99525000Y-107281138D01*
X99528955Y-107240976D01*
X99538879Y-107208264D01*
X99554997Y-107178110D01*
X99576684Y-107151684D01*
X99603110Y-107129997D01*
X99633264Y-107113879D01*
X99665976Y-107103955D01*
X99706138Y-107100000D01*
X100293862Y-107100000D01*
X100334024Y-107103955D01*
X100334024Y-107103955D01*
G37*
G36*
X98834024Y-107103955D02*
X98866736Y-107113879D01*
X98896890Y-107129997D01*
X98923316Y-107151684D01*
X98945003Y-107178110D01*
X98961121Y-107208264D01*
X98971045Y-107240976D01*
X98975000Y-107281138D01*
X98975000Y-107968862D01*
X98971045Y-108009024D01*
X98961121Y-108041736D01*
X98945003Y-108071890D01*
X98923316Y-108098316D01*
X98896890Y-108120003D01*
X98866736Y-108136121D01*
X98834024Y-108146045D01*
X98793862Y-108150000D01*
X98206138Y-108150000D01*
X98165976Y-108146045D01*
X98133264Y-108136121D01*
X98103110Y-108120003D01*
X98076684Y-108098316D01*
X98054997Y-108071890D01*
X98038879Y-108041736D01*
X98028955Y-108009024D01*
X98025000Y-107968862D01*
X98025000Y-107281138D01*
X98028955Y-107240976D01*
X98038879Y-107208264D01*
X98054997Y-107178110D01*
X98076684Y-107151684D01*
X98103110Y-107129997D01*
X98133264Y-107113879D01*
X98165976Y-107103955D01*
X98206138Y-107100000D01*
X98793862Y-107100000D01*
X98834024Y-107103955D01*
X98834024Y-107103955D01*
G37*
G36*
X137834024Y-106853955D02*
X137866736Y-106863879D01*
X137896890Y-106879997D01*
X137923316Y-106901684D01*
X137945003Y-106928110D01*
X137961121Y-106958264D01*
X137971045Y-106990976D01*
X137975000Y-107031138D01*
X137975000Y-107718862D01*
X137971045Y-107759024D01*
X137961121Y-107791736D01*
X137945003Y-107821890D01*
X137923316Y-107848316D01*
X137896890Y-107870003D01*
X137866736Y-107886121D01*
X137834024Y-107896045D01*
X137793862Y-107900000D01*
X137206138Y-107900000D01*
X137165976Y-107896045D01*
X137133264Y-107886121D01*
X137103110Y-107870003D01*
X137076684Y-107848316D01*
X137054997Y-107821890D01*
X137038879Y-107791736D01*
X137028955Y-107759024D01*
X137025000Y-107718862D01*
X137025000Y-107031138D01*
X137028955Y-106990976D01*
X137038879Y-106958264D01*
X137054997Y-106928110D01*
X137076684Y-106901684D01*
X137103110Y-106879997D01*
X137133264Y-106863879D01*
X137165976Y-106853955D01*
X137206138Y-106850000D01*
X137793862Y-106850000D01*
X137834024Y-106853955D01*
X137834024Y-106853955D01*
G37*
G36*
X135834024Y-106853955D02*
X135866736Y-106863879D01*
X135896890Y-106879997D01*
X135923316Y-106901684D01*
X135945003Y-106928110D01*
X135961121Y-106958264D01*
X135971045Y-106990976D01*
X135975000Y-107031138D01*
X135975000Y-107718862D01*
X135971045Y-107759024D01*
X135961121Y-107791736D01*
X135945003Y-107821890D01*
X135923316Y-107848316D01*
X135896890Y-107870003D01*
X135866736Y-107886121D01*
X135834024Y-107896045D01*
X135793862Y-107900000D01*
X135206138Y-107900000D01*
X135165976Y-107896045D01*
X135133264Y-107886121D01*
X135103110Y-107870003D01*
X135076684Y-107848316D01*
X135054997Y-107821890D01*
X135038879Y-107791736D01*
X135028955Y-107759024D01*
X135025000Y-107718862D01*
X135025000Y-107031138D01*
X135028955Y-106990976D01*
X135038879Y-106958264D01*
X135054997Y-106928110D01*
X135076684Y-106901684D01*
X135103110Y-106879997D01*
X135133264Y-106863879D01*
X135165976Y-106853955D01*
X135206138Y-106850000D01*
X135793862Y-106850000D01*
X135834024Y-106853955D01*
X135834024Y-106853955D01*
G37*
G36*
X132334024Y-106603955D02*
X132366736Y-106613879D01*
X132396890Y-106629997D01*
X132423316Y-106651684D01*
X132445003Y-106678110D01*
X132461121Y-106708264D01*
X132471045Y-106740976D01*
X132475000Y-106781138D01*
X132475000Y-107468862D01*
X132471045Y-107509024D01*
X132461121Y-107541736D01*
X132445003Y-107571890D01*
X132423316Y-107598316D01*
X132396890Y-107620003D01*
X132366736Y-107636121D01*
X132334024Y-107646045D01*
X132293862Y-107650000D01*
X131706138Y-107650000D01*
X131665976Y-107646045D01*
X131633264Y-107636121D01*
X131603110Y-107620003D01*
X131576684Y-107598316D01*
X131554997Y-107571890D01*
X131538879Y-107541736D01*
X131528955Y-107509024D01*
X131525000Y-107468862D01*
X131525000Y-106781138D01*
X131528955Y-106740976D01*
X131538879Y-106708264D01*
X131554997Y-106678110D01*
X131576684Y-106651684D01*
X131603110Y-106629997D01*
X131633264Y-106613879D01*
X131665976Y-106603955D01*
X131706138Y-106600000D01*
X132293862Y-106600000D01*
X132334024Y-106603955D01*
X132334024Y-106603955D01*
G37*
G36*
X130834024Y-106603955D02*
X130866736Y-106613879D01*
X130896890Y-106629997D01*
X130923316Y-106651684D01*
X130945003Y-106678110D01*
X130961121Y-106708264D01*
X130971045Y-106740976D01*
X130975000Y-106781138D01*
X130975000Y-107468862D01*
X130971045Y-107509024D01*
X130961121Y-107541736D01*
X130945003Y-107571890D01*
X130923316Y-107598316D01*
X130896890Y-107620003D01*
X130866736Y-107636121D01*
X130834024Y-107646045D01*
X130793862Y-107650000D01*
X130206138Y-107650000D01*
X130165976Y-107646045D01*
X130133264Y-107636121D01*
X130103110Y-107620003D01*
X130076684Y-107598316D01*
X130054997Y-107571890D01*
X130038879Y-107541736D01*
X130028955Y-107509024D01*
X130025000Y-107468862D01*
X130025000Y-106781138D01*
X130028955Y-106740976D01*
X130038879Y-106708264D01*
X130054997Y-106678110D01*
X130076684Y-106651684D01*
X130103110Y-106629997D01*
X130133264Y-106613879D01*
X130165976Y-106603955D01*
X130206138Y-106600000D01*
X130793862Y-106600000D01*
X130834024Y-106603955D01*
X130834024Y-106603955D01*
G37*
G36*
X104238964Y-105278837D02*
X104270528Y-105288412D01*
X104299617Y-105303960D01*
X104325114Y-105324886D01*
X104346040Y-105350383D01*
X104361588Y-105379472D01*
X104371163Y-105411036D01*
X104375000Y-105449998D01*
X104375000Y-106525000D01*
X104371163Y-106563964D01*
X104361588Y-106595528D01*
X104346040Y-106624617D01*
X104325114Y-106650114D01*
X104299617Y-106671040D01*
X104270528Y-106686588D01*
X104238964Y-106696163D01*
X104200002Y-106700000D01*
X102799998Y-106700000D01*
X102761036Y-106696163D01*
X102729472Y-106686588D01*
X102700383Y-106671040D01*
X102674886Y-106650114D01*
X102653960Y-106624617D01*
X102638412Y-106595528D01*
X102628837Y-106563964D01*
X102625000Y-106525000D01*
X102625000Y-105449998D01*
X102628837Y-105411036D01*
X102638412Y-105379472D01*
X102653960Y-105350383D01*
X102674886Y-105324886D01*
X102700383Y-105303960D01*
X102729472Y-105288412D01*
X102761036Y-105278837D01*
X102799998Y-105275000D01*
X104200002Y-105275000D01*
X104238964Y-105278837D01*
X104238964Y-105278837D01*
G37*
G36*
X109238964Y-105278837D02*
X109270528Y-105288412D01*
X109299617Y-105303960D01*
X109325114Y-105324886D01*
X109346040Y-105350383D01*
X109361588Y-105379472D01*
X109371163Y-105411036D01*
X109375000Y-105449998D01*
X109375000Y-106525000D01*
X109371163Y-106563964D01*
X109361588Y-106595528D01*
X109346040Y-106624617D01*
X109325114Y-106650114D01*
X109299617Y-106671040D01*
X109270528Y-106686588D01*
X109238964Y-106696163D01*
X109200002Y-106700000D01*
X107799998Y-106700000D01*
X107761036Y-106696163D01*
X107729472Y-106686588D01*
X107700383Y-106671040D01*
X107674886Y-106650114D01*
X107653960Y-106624617D01*
X107638412Y-106595528D01*
X107628837Y-106563964D01*
X107625000Y-106525000D01*
X107625000Y-105449998D01*
X107628837Y-105411036D01*
X107638412Y-105379472D01*
X107653960Y-105350383D01*
X107674886Y-105324886D01*
X107700383Y-105303960D01*
X107729472Y-105288412D01*
X107761036Y-105278837D01*
X107799998Y-105275000D01*
X109200002Y-105275000D01*
X109238964Y-105278837D01*
X109238964Y-105278837D01*
G37*
G36*
X106738964Y-105278837D02*
X106770528Y-105288412D01*
X106799617Y-105303960D01*
X106825114Y-105324886D01*
X106846040Y-105350383D01*
X106861588Y-105379472D01*
X106871163Y-105411036D01*
X106875000Y-105449998D01*
X106875000Y-106525000D01*
X106871163Y-106563964D01*
X106861588Y-106595528D01*
X106846040Y-106624617D01*
X106825114Y-106650114D01*
X106799617Y-106671040D01*
X106770528Y-106686588D01*
X106738964Y-106696163D01*
X106700002Y-106700000D01*
X105299998Y-106700000D01*
X105261036Y-106696163D01*
X105229472Y-106686588D01*
X105200383Y-106671040D01*
X105174886Y-106650114D01*
X105153960Y-106624617D01*
X105138412Y-106595528D01*
X105128837Y-106563964D01*
X105125000Y-106525000D01*
X105125000Y-105449998D01*
X105128837Y-105411036D01*
X105138412Y-105379472D01*
X105153960Y-105350383D01*
X105174886Y-105324886D01*
X105200383Y-105303960D01*
X105229472Y-105288412D01*
X105261036Y-105278837D01*
X105299998Y-105275000D01*
X106700002Y-105275000D01*
X106738964Y-105278837D01*
X106738964Y-105278837D01*
G37*
G36*
X100334024Y-105353955D02*
X100366736Y-105363879D01*
X100396890Y-105379997D01*
X100423316Y-105401684D01*
X100445003Y-105428110D01*
X100461121Y-105458264D01*
X100471045Y-105490976D01*
X100475000Y-105531138D01*
X100475000Y-106218862D01*
X100471045Y-106259024D01*
X100461121Y-106291736D01*
X100445003Y-106321890D01*
X100423316Y-106348316D01*
X100396890Y-106370003D01*
X100366736Y-106386121D01*
X100334024Y-106396045D01*
X100293862Y-106400000D01*
X99706138Y-106400000D01*
X99665976Y-106396045D01*
X99633264Y-106386121D01*
X99603110Y-106370003D01*
X99576684Y-106348316D01*
X99554997Y-106321890D01*
X99538879Y-106291736D01*
X99528955Y-106259024D01*
X99525000Y-106218862D01*
X99525000Y-105531138D01*
X99528955Y-105490976D01*
X99538879Y-105458264D01*
X99554997Y-105428110D01*
X99576684Y-105401684D01*
X99603110Y-105379997D01*
X99633264Y-105363879D01*
X99665976Y-105353955D01*
X99706138Y-105350000D01*
X100293862Y-105350000D01*
X100334024Y-105353955D01*
X100334024Y-105353955D01*
G37*
G36*
X135834024Y-105103955D02*
X135866736Y-105113879D01*
X135896890Y-105129997D01*
X135923316Y-105151684D01*
X135945003Y-105178110D01*
X135961121Y-105208264D01*
X135971045Y-105240976D01*
X135975000Y-105281138D01*
X135975000Y-105968862D01*
X135971045Y-106009024D01*
X135961121Y-106041736D01*
X135945003Y-106071890D01*
X135923316Y-106098316D01*
X135896890Y-106120003D01*
X135866736Y-106136121D01*
X135834024Y-106146045D01*
X135793862Y-106150000D01*
X135206138Y-106150000D01*
X135165976Y-106146045D01*
X135133264Y-106136121D01*
X135103110Y-106120003D01*
X135076684Y-106098316D01*
X135054997Y-106071890D01*
X135038879Y-106041736D01*
X135028955Y-106009024D01*
X135025000Y-105968862D01*
X135025000Y-105281138D01*
X135028955Y-105240976D01*
X135038879Y-105208264D01*
X135054997Y-105178110D01*
X135076684Y-105151684D01*
X135103110Y-105129997D01*
X135133264Y-105113879D01*
X135165976Y-105103955D01*
X135206138Y-105100000D01*
X135793862Y-105100000D01*
X135834024Y-105103955D01*
X135834024Y-105103955D01*
G37*
G36*
X137834024Y-105103955D02*
X137866736Y-105113879D01*
X137896890Y-105129997D01*
X137923316Y-105151684D01*
X137945003Y-105178110D01*
X137961121Y-105208264D01*
X137971045Y-105240976D01*
X137975000Y-105281138D01*
X137975000Y-105968862D01*
X137971045Y-106009024D01*
X137961121Y-106041736D01*
X137945003Y-106071890D01*
X137923316Y-106098316D01*
X137896890Y-106120003D01*
X137866736Y-106136121D01*
X137834024Y-106146045D01*
X137793862Y-106150000D01*
X137206138Y-106150000D01*
X137165976Y-106146045D01*
X137133264Y-106136121D01*
X137103110Y-106120003D01*
X137076684Y-106098316D01*
X137054997Y-106071890D01*
X137038879Y-106041736D01*
X137028955Y-106009024D01*
X137025000Y-105968862D01*
X137025000Y-105281138D01*
X137028955Y-105240976D01*
X137038879Y-105208264D01*
X137054997Y-105178110D01*
X137076684Y-105151684D01*
X137103110Y-105129997D01*
X137133264Y-105113879D01*
X137165976Y-105103955D01*
X137206138Y-105100000D01*
X137793862Y-105100000D01*
X137834024Y-105103955D01*
X137834024Y-105103955D01*
G37*
G36*
X150469675Y-104153701D02*
X150499907Y-104162872D01*
X150527769Y-104177765D01*
X150552192Y-104197808D01*
X150572235Y-104222231D01*
X150587128Y-104250093D01*
X150596299Y-104280325D01*
X150600000Y-104317905D01*
X150600000Y-105682095D01*
X150596299Y-105719675D01*
X150587128Y-105749907D01*
X150572235Y-105777769D01*
X150552192Y-105802192D01*
X150527769Y-105822235D01*
X150499907Y-105837128D01*
X150469675Y-105846299D01*
X150432095Y-105850000D01*
X148567905Y-105850000D01*
X148530325Y-105846299D01*
X148500093Y-105837128D01*
X148472231Y-105822235D01*
X148447808Y-105802192D01*
X148427765Y-105777769D01*
X148412872Y-105749907D01*
X148403701Y-105719675D01*
X148400000Y-105682095D01*
X148400000Y-104317905D01*
X148403701Y-104280325D01*
X148412872Y-104250093D01*
X148427765Y-104222231D01*
X148447808Y-104197808D01*
X148472231Y-104177765D01*
X148500093Y-104162872D01*
X148530325Y-104153701D01*
X148567905Y-104150000D01*
X150432095Y-104150000D01*
X150469675Y-104153701D01*
X150469675Y-104153701D01*
G37*
G36*
X156927934Y-104182664D02*
X157082627Y-104246740D01*
X157221847Y-104339764D01*
X157340236Y-104458153D01*
X157433260Y-104597373D01*
X157497336Y-104752066D01*
X157530000Y-104916281D01*
X157530000Y-105083719D01*
X157497336Y-105247934D01*
X157433260Y-105402627D01*
X157340236Y-105541847D01*
X157221847Y-105660236D01*
X157082627Y-105753260D01*
X156927934Y-105817336D01*
X156763719Y-105850000D01*
X156596281Y-105850000D01*
X156432066Y-105817336D01*
X156277373Y-105753260D01*
X156138153Y-105660236D01*
X156019764Y-105541847D01*
X155926740Y-105402627D01*
X155862664Y-105247934D01*
X155830000Y-105083719D01*
X155830000Y-104916281D01*
X155862664Y-104752066D01*
X155926740Y-104597373D01*
X156019764Y-104458153D01*
X156138153Y-104339764D01*
X156277373Y-104246740D01*
X156432066Y-104182664D01*
X156596281Y-104150000D01*
X156763719Y-104150000D01*
X156927934Y-104182664D01*
X156927934Y-104182664D01*
G37*
G36*
X130509024Y-104528955D02*
X130541736Y-104538879D01*
X130571890Y-104554997D01*
X130598316Y-104576684D01*
X130620003Y-104603110D01*
X130636121Y-104633264D01*
X130646045Y-104665976D01*
X130650000Y-104706138D01*
X130650000Y-105293862D01*
X130646045Y-105334024D01*
X130636121Y-105366736D01*
X130620003Y-105396890D01*
X130598316Y-105423316D01*
X130571890Y-105445003D01*
X130541736Y-105461121D01*
X130509024Y-105471045D01*
X130468862Y-105475000D01*
X129781138Y-105475000D01*
X129740976Y-105471045D01*
X129708264Y-105461121D01*
X129678110Y-105445003D01*
X129651684Y-105423316D01*
X129629997Y-105396890D01*
X129613879Y-105366736D01*
X129603955Y-105334024D01*
X129600000Y-105293862D01*
X129600000Y-104706138D01*
X129603955Y-104665976D01*
X129613879Y-104633264D01*
X129629997Y-104603110D01*
X129651684Y-104576684D01*
X129678110Y-104554997D01*
X129708264Y-104538879D01*
X129740976Y-104528955D01*
X129781138Y-104525000D01*
X130468862Y-104525000D01*
X130509024Y-104528955D01*
X130509024Y-104528955D01*
G37*
G36*
X132259024Y-104528955D02*
X132291736Y-104538879D01*
X132321890Y-104554997D01*
X132348316Y-104576684D01*
X132370003Y-104603110D01*
X132386121Y-104633264D01*
X132396045Y-104665976D01*
X132400000Y-104706138D01*
X132400000Y-105293862D01*
X132396045Y-105334024D01*
X132386121Y-105366736D01*
X132370003Y-105396890D01*
X132348316Y-105423316D01*
X132321890Y-105445003D01*
X132291736Y-105461121D01*
X132259024Y-105471045D01*
X132218862Y-105475000D01*
X131531138Y-105475000D01*
X131490976Y-105471045D01*
X131458264Y-105461121D01*
X131428110Y-105445003D01*
X131401684Y-105423316D01*
X131379997Y-105396890D01*
X131363879Y-105366736D01*
X131353955Y-105334024D01*
X131350000Y-105293862D01*
X131350000Y-104706138D01*
X131353955Y-104665976D01*
X131363879Y-104633264D01*
X131379997Y-104603110D01*
X131401684Y-104576684D01*
X131428110Y-104554997D01*
X131458264Y-104538879D01*
X131490976Y-104528955D01*
X131531138Y-104525000D01*
X132218862Y-104525000D01*
X132259024Y-104528955D01*
X132259024Y-104528955D01*
G37*
G36*
X100334024Y-103603955D02*
X100366736Y-103613879D01*
X100396890Y-103629997D01*
X100423316Y-103651684D01*
X100445003Y-103678110D01*
X100461121Y-103708264D01*
X100471045Y-103740976D01*
X100475000Y-103781138D01*
X100475000Y-104468862D01*
X100471045Y-104509024D01*
X100461121Y-104541736D01*
X100445003Y-104571890D01*
X100423316Y-104598316D01*
X100396890Y-104620003D01*
X100366736Y-104636121D01*
X100334024Y-104646045D01*
X100293862Y-104650000D01*
X99706138Y-104650000D01*
X99665976Y-104646045D01*
X99633264Y-104636121D01*
X99603110Y-104620003D01*
X99576684Y-104598316D01*
X99554997Y-104571890D01*
X99538879Y-104541736D01*
X99528955Y-104509024D01*
X99525000Y-104468862D01*
X99525000Y-103781138D01*
X99528955Y-103740976D01*
X99538879Y-103708264D01*
X99554997Y-103678110D01*
X99576684Y-103651684D01*
X99603110Y-103629997D01*
X99633264Y-103613879D01*
X99665976Y-103603955D01*
X99706138Y-103600000D01*
X100293862Y-103600000D01*
X100334024Y-103603955D01*
X100334024Y-103603955D01*
G37*
G36*
X137834024Y-103353955D02*
X137866736Y-103363879D01*
X137896890Y-103379997D01*
X137923316Y-103401684D01*
X137945003Y-103428110D01*
X137961121Y-103458264D01*
X137971045Y-103490976D01*
X137975000Y-103531138D01*
X137975000Y-104218862D01*
X137971045Y-104259024D01*
X137961121Y-104291736D01*
X137945003Y-104321890D01*
X137923316Y-104348316D01*
X137896890Y-104370003D01*
X137866736Y-104386121D01*
X137834024Y-104396045D01*
X137793862Y-104400000D01*
X137206138Y-104400000D01*
X137165976Y-104396045D01*
X137133264Y-104386121D01*
X137103110Y-104370003D01*
X137076684Y-104348316D01*
X137054997Y-104321890D01*
X137038879Y-104291736D01*
X137028955Y-104259024D01*
X137025000Y-104218862D01*
X137025000Y-103531138D01*
X137028955Y-103490976D01*
X137038879Y-103458264D01*
X137054997Y-103428110D01*
X137076684Y-103401684D01*
X137103110Y-103379997D01*
X137133264Y-103363879D01*
X137165976Y-103353955D01*
X137206138Y-103350000D01*
X137793862Y-103350000D01*
X137834024Y-103353955D01*
X137834024Y-103353955D01*
G37*
G36*
X90334024Y-103353955D02*
X90366736Y-103363879D01*
X90396890Y-103379997D01*
X90423316Y-103401684D01*
X90445003Y-103428110D01*
X90461121Y-103458264D01*
X90471045Y-103490976D01*
X90475000Y-103531138D01*
X90475000Y-104218862D01*
X90471045Y-104259024D01*
X90461121Y-104291736D01*
X90445003Y-104321890D01*
X90423316Y-104348316D01*
X90396890Y-104370003D01*
X90366736Y-104386121D01*
X90334024Y-104396045D01*
X90293862Y-104400000D01*
X89706138Y-104400000D01*
X89665976Y-104396045D01*
X89633264Y-104386121D01*
X89603110Y-104370003D01*
X89576684Y-104348316D01*
X89554997Y-104321890D01*
X89538879Y-104291736D01*
X89528955Y-104259024D01*
X89525000Y-104218862D01*
X89525000Y-103531138D01*
X89528955Y-103490976D01*
X89538879Y-103458264D01*
X89554997Y-103428110D01*
X89576684Y-103401684D01*
X89603110Y-103379997D01*
X89633264Y-103363879D01*
X89665976Y-103353955D01*
X89706138Y-103350000D01*
X90293862Y-103350000D01*
X90334024Y-103353955D01*
X90334024Y-103353955D01*
G37*
G36*
X135834024Y-103353955D02*
X135866736Y-103363879D01*
X135896890Y-103379997D01*
X135923316Y-103401684D01*
X135945003Y-103428110D01*
X135961121Y-103458264D01*
X135971045Y-103490976D01*
X135975000Y-103531138D01*
X135975000Y-104218862D01*
X135971045Y-104259024D01*
X135961121Y-104291736D01*
X135945003Y-104321890D01*
X135923316Y-104348316D01*
X135896890Y-104370003D01*
X135866736Y-104386121D01*
X135834024Y-104396045D01*
X135793862Y-104400000D01*
X135206138Y-104400000D01*
X135165976Y-104396045D01*
X135133264Y-104386121D01*
X135103110Y-104370003D01*
X135076684Y-104348316D01*
X135054997Y-104321890D01*
X135038879Y-104291736D01*
X135028955Y-104259024D01*
X135025000Y-104218862D01*
X135025000Y-103531138D01*
X135028955Y-103490976D01*
X135038879Y-103458264D01*
X135054997Y-103428110D01*
X135076684Y-103401684D01*
X135103110Y-103379997D01*
X135133264Y-103363879D01*
X135165976Y-103353955D01*
X135206138Y-103350000D01*
X135793862Y-103350000D01*
X135834024Y-103353955D01*
X135834024Y-103353955D01*
G37*
G36*
X106738964Y-102303837D02*
X106770528Y-102313412D01*
X106799617Y-102328960D01*
X106825114Y-102349886D01*
X106846040Y-102375383D01*
X106861588Y-102404472D01*
X106871163Y-102436036D01*
X106875000Y-102474998D01*
X106875000Y-103550002D01*
X106871163Y-103588964D01*
X106861588Y-103620528D01*
X106846040Y-103649617D01*
X106825114Y-103675114D01*
X106799617Y-103696040D01*
X106770528Y-103711588D01*
X106738964Y-103721163D01*
X106700002Y-103725000D01*
X105299998Y-103725000D01*
X105261036Y-103721163D01*
X105229472Y-103711588D01*
X105200383Y-103696040D01*
X105174886Y-103675114D01*
X105153960Y-103649617D01*
X105138412Y-103620528D01*
X105128837Y-103588964D01*
X105125000Y-103550002D01*
X105125000Y-102474998D01*
X105128837Y-102436036D01*
X105138412Y-102404472D01*
X105153960Y-102375383D01*
X105174886Y-102349886D01*
X105200383Y-102328960D01*
X105229472Y-102313412D01*
X105261036Y-102303837D01*
X105299998Y-102300000D01*
X106700002Y-102300000D01*
X106738964Y-102303837D01*
X106738964Y-102303837D01*
G37*
G36*
X104238964Y-102303837D02*
X104270528Y-102313412D01*
X104299617Y-102328960D01*
X104325114Y-102349886D01*
X104346040Y-102375383D01*
X104361588Y-102404472D01*
X104371163Y-102436036D01*
X104375000Y-102474998D01*
X104375000Y-103550002D01*
X104371163Y-103588964D01*
X104361588Y-103620528D01*
X104346040Y-103649617D01*
X104325114Y-103675114D01*
X104299617Y-103696040D01*
X104270528Y-103711588D01*
X104238964Y-103721163D01*
X104200002Y-103725000D01*
X102799998Y-103725000D01*
X102761036Y-103721163D01*
X102729472Y-103711588D01*
X102700383Y-103696040D01*
X102674886Y-103675114D01*
X102653960Y-103649617D01*
X102638412Y-103620528D01*
X102628837Y-103588964D01*
X102625000Y-103550002D01*
X102625000Y-102474998D01*
X102628837Y-102436036D01*
X102638412Y-102404472D01*
X102653960Y-102375383D01*
X102674886Y-102349886D01*
X102700383Y-102328960D01*
X102729472Y-102313412D01*
X102761036Y-102303837D01*
X102799998Y-102300000D01*
X104200002Y-102300000D01*
X104238964Y-102303837D01*
X104238964Y-102303837D01*
G37*
G36*
X109238964Y-102303837D02*
X109270528Y-102313412D01*
X109299617Y-102328960D01*
X109325114Y-102349886D01*
X109346040Y-102375383D01*
X109361588Y-102404472D01*
X109371163Y-102436036D01*
X109375000Y-102474998D01*
X109375000Y-103550002D01*
X109371163Y-103588964D01*
X109361588Y-103620528D01*
X109346040Y-103649617D01*
X109325114Y-103675114D01*
X109299617Y-103696040D01*
X109270528Y-103711588D01*
X109238964Y-103721163D01*
X109200002Y-103725000D01*
X107799998Y-103725000D01*
X107761036Y-103721163D01*
X107729472Y-103711588D01*
X107700383Y-103696040D01*
X107674886Y-103675114D01*
X107653960Y-103649617D01*
X107638412Y-103620528D01*
X107628837Y-103588964D01*
X107625000Y-103550002D01*
X107625000Y-102474998D01*
X107628837Y-102436036D01*
X107638412Y-102404472D01*
X107653960Y-102375383D01*
X107674886Y-102349886D01*
X107700383Y-102328960D01*
X107729472Y-102313412D01*
X107761036Y-102303837D01*
X107799998Y-102300000D01*
X109200002Y-102300000D01*
X109238964Y-102303837D01*
X109238964Y-102303837D01*
G37*
G36*
X85600000Y-103625000D02*
X82000000Y-103625000D01*
X82000000Y-102975000D01*
X85600000Y-102975000D01*
X85600000Y-103625000D01*
X85600000Y-103625000D01*
G37*
G36*
X121259024Y-102528955D02*
X121291736Y-102538879D01*
X121321890Y-102554997D01*
X121348316Y-102576684D01*
X121370003Y-102603110D01*
X121386121Y-102633264D01*
X121396045Y-102665976D01*
X121400000Y-102706138D01*
X121400000Y-103293862D01*
X121396045Y-103334024D01*
X121386121Y-103366736D01*
X121370003Y-103396890D01*
X121348316Y-103423316D01*
X121321890Y-103445003D01*
X121291736Y-103461121D01*
X121259024Y-103471045D01*
X121218862Y-103475000D01*
X120531138Y-103475000D01*
X120490976Y-103471045D01*
X120458264Y-103461121D01*
X120428110Y-103445003D01*
X120401684Y-103423316D01*
X120379997Y-103396890D01*
X120363879Y-103366736D01*
X120353955Y-103334024D01*
X120350000Y-103293862D01*
X120350000Y-102706138D01*
X120353955Y-102665976D01*
X120363879Y-102633264D01*
X120379997Y-102603110D01*
X120401684Y-102576684D01*
X120428110Y-102554997D01*
X120458264Y-102538879D01*
X120490976Y-102528955D01*
X120531138Y-102525000D01*
X121218862Y-102525000D01*
X121259024Y-102528955D01*
X121259024Y-102528955D01*
G37*
G36*
X115509024Y-102528955D02*
X115541736Y-102538879D01*
X115571890Y-102554997D01*
X115598316Y-102576684D01*
X115620003Y-102603110D01*
X115636121Y-102633264D01*
X115646045Y-102665976D01*
X115650000Y-102706138D01*
X115650000Y-103293862D01*
X115646045Y-103334024D01*
X115636121Y-103366736D01*
X115620003Y-103396890D01*
X115598316Y-103423316D01*
X115571890Y-103445003D01*
X115541736Y-103461121D01*
X115509024Y-103471045D01*
X115468862Y-103475000D01*
X114781138Y-103475000D01*
X114740976Y-103471045D01*
X114708264Y-103461121D01*
X114678110Y-103445003D01*
X114651684Y-103423316D01*
X114629997Y-103396890D01*
X114613879Y-103366736D01*
X114603955Y-103334024D01*
X114600000Y-103293862D01*
X114600000Y-102706138D01*
X114603955Y-102665976D01*
X114613879Y-102633264D01*
X114629997Y-102603110D01*
X114651684Y-102576684D01*
X114678110Y-102554997D01*
X114708264Y-102538879D01*
X114740976Y-102528955D01*
X114781138Y-102525000D01*
X115468862Y-102525000D01*
X115509024Y-102528955D01*
X115509024Y-102528955D01*
G37*
G36*
X117259024Y-102528955D02*
X117291736Y-102538879D01*
X117321890Y-102554997D01*
X117348316Y-102576684D01*
X117370003Y-102603110D01*
X117386121Y-102633264D01*
X117396045Y-102665976D01*
X117400000Y-102706138D01*
X117400000Y-103293862D01*
X117396045Y-103334024D01*
X117386121Y-103366736D01*
X117370003Y-103396890D01*
X117348316Y-103423316D01*
X117321890Y-103445003D01*
X117291736Y-103461121D01*
X117259024Y-103471045D01*
X117218862Y-103475000D01*
X116531138Y-103475000D01*
X116490976Y-103471045D01*
X116458264Y-103461121D01*
X116428110Y-103445003D01*
X116401684Y-103423316D01*
X116379997Y-103396890D01*
X116363879Y-103366736D01*
X116353955Y-103334024D01*
X116350000Y-103293862D01*
X116350000Y-102706138D01*
X116353955Y-102665976D01*
X116363879Y-102633264D01*
X116379997Y-102603110D01*
X116401684Y-102576684D01*
X116428110Y-102554997D01*
X116458264Y-102538879D01*
X116490976Y-102528955D01*
X116531138Y-102525000D01*
X117218862Y-102525000D01*
X117259024Y-102528955D01*
X117259024Y-102528955D01*
G37*
G36*
X119509024Y-102528955D02*
X119541736Y-102538879D01*
X119571890Y-102554997D01*
X119598316Y-102576684D01*
X119620003Y-102603110D01*
X119636121Y-102633264D01*
X119646045Y-102665976D01*
X119650000Y-102706138D01*
X119650000Y-103293862D01*
X119646045Y-103334024D01*
X119636121Y-103366736D01*
X119620003Y-103396890D01*
X119598316Y-103423316D01*
X119571890Y-103445003D01*
X119541736Y-103461121D01*
X119509024Y-103471045D01*
X119468862Y-103475000D01*
X118781138Y-103475000D01*
X118740976Y-103471045D01*
X118708264Y-103461121D01*
X118678110Y-103445003D01*
X118651684Y-103423316D01*
X118629997Y-103396890D01*
X118613879Y-103366736D01*
X118603955Y-103334024D01*
X118600000Y-103293862D01*
X118600000Y-102706138D01*
X118603955Y-102665976D01*
X118613879Y-102633264D01*
X118629997Y-102603110D01*
X118651684Y-102576684D01*
X118678110Y-102554997D01*
X118708264Y-102538879D01*
X118740976Y-102528955D01*
X118781138Y-102525000D01*
X119468862Y-102525000D01*
X119509024Y-102528955D01*
X119509024Y-102528955D01*
G37*
G36*
X127430000Y-103180000D02*
X125870000Y-103180000D01*
X125870000Y-102130000D01*
X127430000Y-102130000D01*
X127430000Y-103180000D01*
X127430000Y-103180000D01*
G37*
G36*
X130130000Y-103180000D02*
X128570000Y-103180000D01*
X128570000Y-102130000D01*
X130130000Y-102130000D01*
X130130000Y-103180000D01*
X130130000Y-103180000D01*
G37*
G36*
X135834024Y-101603955D02*
X135866736Y-101613879D01*
X135896890Y-101629997D01*
X135923316Y-101651684D01*
X135945003Y-101678110D01*
X135961121Y-101708264D01*
X135971045Y-101740976D01*
X135975000Y-101781138D01*
X135975000Y-102468860D01*
X135971045Y-102509024D01*
X135961121Y-102541736D01*
X135945003Y-102571890D01*
X135923316Y-102598316D01*
X135896890Y-102620003D01*
X135866736Y-102636121D01*
X135834024Y-102646045D01*
X135793862Y-102650000D01*
X135206138Y-102650000D01*
X135165976Y-102646045D01*
X135133264Y-102636121D01*
X135103110Y-102620003D01*
X135076684Y-102598316D01*
X135054997Y-102571890D01*
X135038879Y-102541736D01*
X135028955Y-102509024D01*
X135025000Y-102468860D01*
X135025000Y-101781138D01*
X135028955Y-101740976D01*
X135038879Y-101708264D01*
X135054997Y-101678110D01*
X135076684Y-101651684D01*
X135103110Y-101629997D01*
X135133264Y-101613879D01*
X135165976Y-101603955D01*
X135206138Y-101600000D01*
X135793862Y-101600000D01*
X135834024Y-101603955D01*
X135834024Y-101603955D01*
G37*
G36*
X90334024Y-101603955D02*
X90366736Y-101613879D01*
X90396890Y-101629997D01*
X90423316Y-101651684D01*
X90445003Y-101678110D01*
X90461121Y-101708264D01*
X90471045Y-101740976D01*
X90475000Y-101781138D01*
X90475000Y-102468860D01*
X90471045Y-102509024D01*
X90461121Y-102541736D01*
X90445003Y-102571890D01*
X90423316Y-102598316D01*
X90396890Y-102620003D01*
X90366736Y-102636121D01*
X90334024Y-102646045D01*
X90293862Y-102650000D01*
X89706138Y-102650000D01*
X89665976Y-102646045D01*
X89633264Y-102636121D01*
X89603110Y-102620003D01*
X89576684Y-102598316D01*
X89554997Y-102571890D01*
X89538879Y-102541736D01*
X89528955Y-102509024D01*
X89525000Y-102468860D01*
X89525000Y-101781138D01*
X89528955Y-101740976D01*
X89538879Y-101708264D01*
X89554997Y-101678110D01*
X89576684Y-101651684D01*
X89603110Y-101629997D01*
X89633264Y-101613879D01*
X89665976Y-101603955D01*
X89706138Y-101600000D01*
X90293862Y-101600000D01*
X90334024Y-101603955D01*
X90334024Y-101603955D01*
G37*
G36*
X137834024Y-101603955D02*
X137866736Y-101613879D01*
X137896890Y-101629997D01*
X137923316Y-101651684D01*
X137945003Y-101678110D01*
X137961121Y-101708264D01*
X137971045Y-101740976D01*
X137975000Y-101781138D01*
X137975000Y-102468860D01*
X137971045Y-102509024D01*
X137961121Y-102541736D01*
X137945003Y-102571890D01*
X137923316Y-102598316D01*
X137896890Y-102620003D01*
X137866736Y-102636121D01*
X137834024Y-102646045D01*
X137793862Y-102650000D01*
X137206138Y-102650000D01*
X137165976Y-102646045D01*
X137133264Y-102636121D01*
X137103110Y-102620003D01*
X137076684Y-102598316D01*
X137054997Y-102571890D01*
X137038879Y-102541736D01*
X137028955Y-102509024D01*
X137025000Y-102468860D01*
X137025000Y-101781138D01*
X137028955Y-101740976D01*
X137038879Y-101708264D01*
X137054997Y-101678110D01*
X137076684Y-101651684D01*
X137103110Y-101629997D01*
X137133264Y-101613879D01*
X137165976Y-101603955D01*
X137206138Y-101600000D01*
X137793862Y-101600000D01*
X137834024Y-101603955D01*
X137834024Y-101603955D01*
G37*
G36*
X85600000Y-102625000D02*
X80938092Y-102625000D01*
X80922835Y-102616845D01*
X80911285Y-102612712D01*
X80875025Y-102601713D01*
X80835223Y-102580438D01*
X80818566Y-102571535D01*
X80769079Y-102530921D01*
X80728465Y-102481434D01*
X80713977Y-102454329D01*
X80698285Y-102424972D01*
X80679702Y-102363712D01*
X80673428Y-102300000D01*
X80679702Y-102236288D01*
X80698285Y-102175028D01*
X80728466Y-102118565D01*
X80769079Y-102069079D01*
X80783116Y-102057559D01*
X80818566Y-102028465D01*
X80850472Y-102011411D01*
X80875025Y-101998287D01*
X80911285Y-101987288D01*
X80933924Y-101977910D01*
X80938279Y-101975000D01*
X85600000Y-101975000D01*
X85600000Y-102625000D01*
X85600000Y-102625000D01*
G37*
G36*
X97679695Y-102001313D02*
X97686620Y-102003414D01*
X97692997Y-102006822D01*
X97698592Y-102011414D01*
X97703374Y-102017241D01*
X97720701Y-102034568D01*
X97741076Y-102048182D01*
X97763715Y-102057560D01*
X97787748Y-102062340D01*
X97812252Y-102062340D01*
X97836286Y-102057559D01*
X97858925Y-102048182D01*
X97879299Y-102034568D01*
X97896626Y-102017241D01*
X97901408Y-102011414D01*
X97907003Y-102006822D01*
X97913380Y-102003414D01*
X97920305Y-102001313D01*
X97933638Y-102000000D01*
X98306362Y-102000000D01*
X98319695Y-102001313D01*
X98326620Y-102003414D01*
X98332997Y-102006822D01*
X98338589Y-102011411D01*
X98343178Y-102017003D01*
X98346586Y-102023380D01*
X98348687Y-102030305D01*
X98350000Y-102043638D01*
X98350000Y-102356362D01*
X98348687Y-102369695D01*
X98346586Y-102376620D01*
X98343178Y-102382997D01*
X98338589Y-102388589D01*
X98332997Y-102393178D01*
X98326620Y-102396586D01*
X98319695Y-102398687D01*
X98306362Y-102400000D01*
X97933638Y-102400000D01*
X97920305Y-102398687D01*
X97913380Y-102396586D01*
X97907003Y-102393178D01*
X97901408Y-102388586D01*
X97896626Y-102382759D01*
X97879299Y-102365432D01*
X97858924Y-102351818D01*
X97836285Y-102342440D01*
X97812252Y-102337660D01*
X97787748Y-102337660D01*
X97763714Y-102342441D01*
X97741075Y-102351818D01*
X97720701Y-102365432D01*
X97703374Y-102382759D01*
X97698592Y-102388586D01*
X97692997Y-102393178D01*
X97686620Y-102396586D01*
X97679695Y-102398687D01*
X97666362Y-102400000D01*
X97293638Y-102400000D01*
X97280305Y-102398687D01*
X97273380Y-102396586D01*
X97267003Y-102393178D01*
X97261411Y-102388589D01*
X97256822Y-102382997D01*
X97253414Y-102376620D01*
X97251313Y-102369695D01*
X97250000Y-102356362D01*
X97250000Y-102043638D01*
X97251313Y-102030305D01*
X97253414Y-102023380D01*
X97256822Y-102017003D01*
X97261411Y-102011411D01*
X97267003Y-102006822D01*
X97273380Y-102003414D01*
X97280305Y-102001313D01*
X97293638Y-102000000D01*
X97666362Y-102000000D01*
X97679695Y-102001313D01*
X97679695Y-102001313D01*
G37*
G36*
X130130000Y-101870000D02*
X128570000Y-101870000D01*
X128570000Y-100820000D01*
X130130000Y-100820000D01*
X130130000Y-101870000D01*
X130130000Y-101870000D01*
G37*
G36*
X127430000Y-101870000D02*
X125870000Y-101870000D01*
X125870000Y-100820000D01*
X127430000Y-100820000D01*
X127430000Y-101870000D01*
X127430000Y-101870000D01*
G37*
G36*
X117325000Y-101850000D02*
X116775000Y-101850000D01*
X116775000Y-100850000D01*
X117325000Y-100850000D01*
X117325000Y-101850000D01*
X117325000Y-101850000D01*
G37*
G36*
X119225000Y-101850000D02*
X118675000Y-101850000D01*
X118675000Y-100850000D01*
X119225000Y-100850000D01*
X119225000Y-101850000D01*
X119225000Y-101850000D01*
G37*
G36*
X118275000Y-101850000D02*
X117725000Y-101850000D01*
X117725000Y-100850000D01*
X118275000Y-100850000D01*
X118275000Y-101850000D01*
X118275000Y-101850000D01*
G37*
G36*
X85600000Y-101625000D02*
X82000000Y-101625000D01*
X82000000Y-100975000D01*
X85600000Y-100975000D01*
X85600000Y-101625000D01*
X85600000Y-101625000D01*
G37*
G36*
X85600000Y-100625000D02*
X82000000Y-100625000D01*
X82000000Y-99975000D01*
X85600000Y-99975000D01*
X85600000Y-100625000D01*
X85600000Y-100625000D01*
G37*
G36*
X96250000Y-100600000D02*
X91350000Y-100600000D01*
X91350000Y-97400000D01*
X96250000Y-97400000D01*
X96250000Y-100600000D01*
X96250000Y-100600000D01*
G37*
G36*
X98650000Y-100445000D02*
X97650000Y-100445000D01*
X97650000Y-99495000D01*
X98650000Y-99495000D01*
X98650000Y-100445000D01*
X98650000Y-100445000D01*
G37*
G36*
X85600000Y-99625000D02*
X82000000Y-99625000D01*
X82000000Y-98975000D01*
X85600000Y-98975000D01*
X85600000Y-99625000D01*
X85600000Y-99625000D01*
G37*
G36*
X131334024Y-98353955D02*
X131366736Y-98363879D01*
X131396890Y-98379997D01*
X131423316Y-98401684D01*
X131445003Y-98428110D01*
X131461121Y-98458264D01*
X131471045Y-98490976D01*
X131475000Y-98531138D01*
X131475000Y-99218862D01*
X131471045Y-99259024D01*
X131461121Y-99291736D01*
X131445003Y-99321890D01*
X131423316Y-99348316D01*
X131396890Y-99370003D01*
X131366736Y-99386121D01*
X131334024Y-99396045D01*
X131293862Y-99400000D01*
X130706138Y-99400000D01*
X130665976Y-99396045D01*
X130633264Y-99386121D01*
X130603110Y-99370003D01*
X130576684Y-99348316D01*
X130554997Y-99321890D01*
X130538879Y-99291736D01*
X130528955Y-99259024D01*
X130525000Y-99218862D01*
X130525000Y-98531138D01*
X130528955Y-98490976D01*
X130538879Y-98458264D01*
X130554997Y-98428110D01*
X130576684Y-98401684D01*
X130603110Y-98379997D01*
X130633264Y-98363879D01*
X130665976Y-98353955D01*
X130706138Y-98350000D01*
X131293862Y-98350000D01*
X131334024Y-98353955D01*
X131334024Y-98353955D01*
G37*
G36*
X117325000Y-99150000D02*
X116775000Y-99150000D01*
X116775000Y-98150000D01*
X117325000Y-98150000D01*
X117325000Y-99150000D01*
X117325000Y-99150000D01*
G37*
G36*
X118275000Y-99150000D02*
X117725000Y-99150000D01*
X117725000Y-98150000D01*
X118275000Y-98150000D01*
X118275000Y-99150000D01*
X118275000Y-99150000D01*
G37*
G36*
X119225000Y-99150000D02*
X118675000Y-99150000D01*
X118675000Y-98150000D01*
X119225000Y-98150000D01*
X119225000Y-99150000D01*
X119225000Y-99150000D01*
G37*
G36*
X85600000Y-98625000D02*
X82000000Y-98625000D01*
X82000000Y-97975000D01*
X85600000Y-97975000D01*
X85600000Y-98625000D01*
X85600000Y-98625000D01*
G37*
G36*
X98650000Y-98505000D02*
X97650000Y-98505000D01*
X97650000Y-97555000D01*
X98650000Y-97555000D01*
X98650000Y-98505000D01*
X98650000Y-98505000D01*
G37*
G36*
X131334024Y-96603955D02*
X131366736Y-96613879D01*
X131396890Y-96629997D01*
X131423316Y-96651684D01*
X131445003Y-96678110D01*
X131461121Y-96708264D01*
X131471045Y-96740976D01*
X131475000Y-96781138D01*
X131475000Y-97468862D01*
X131471045Y-97509024D01*
X131461121Y-97541736D01*
X131445003Y-97571890D01*
X131423316Y-97598316D01*
X131396890Y-97620003D01*
X131366736Y-97636121D01*
X131334024Y-97646045D01*
X131293862Y-97650000D01*
X130706138Y-97650000D01*
X130665976Y-97646045D01*
X130633264Y-97636121D01*
X130603110Y-97620003D01*
X130576684Y-97598316D01*
X130554997Y-97571890D01*
X130538879Y-97541736D01*
X130528955Y-97509024D01*
X130525000Y-97468862D01*
X130525000Y-96781138D01*
X130528955Y-96740976D01*
X130538879Y-96708264D01*
X130554997Y-96678110D01*
X130576684Y-96651684D01*
X130603110Y-96629997D01*
X130633264Y-96613879D01*
X130665976Y-96603955D01*
X130706138Y-96600000D01*
X131293862Y-96600000D01*
X131334024Y-96603955D01*
X131334024Y-96603955D01*
G37*
G36*
X85600000Y-97625000D02*
X82000000Y-97625000D01*
X82000000Y-96975000D01*
X85600000Y-96975000D01*
X85600000Y-97625000D01*
X85600000Y-97625000D01*
G37*
G36*
X85600000Y-96625000D02*
X82000000Y-96625000D01*
X82000000Y-95975000D01*
X85600000Y-95975000D01*
X85600000Y-96625000D01*
X85600000Y-96625000D01*
G37*
G36*
X85600000Y-95625000D02*
X82000000Y-95625000D01*
X82000000Y-94975000D01*
X85600000Y-94975000D01*
X85600000Y-95625000D01*
X85600000Y-95625000D01*
G37*
G36*
X96250000Y-95600000D02*
X91350000Y-95600000D01*
X91350000Y-92400000D01*
X96250000Y-92400000D01*
X96250000Y-95600000D01*
X96250000Y-95600000D01*
G37*
G36*
X98650000Y-95445000D02*
X97650000Y-95445000D01*
X97650000Y-94495000D01*
X98650000Y-94495000D01*
X98650000Y-95445000D01*
X98650000Y-95445000D01*
G37*
G36*
X85600000Y-94625000D02*
X82000000Y-94625000D01*
X82000000Y-93975000D01*
X85600000Y-93975000D01*
X85600000Y-94625000D01*
X85600000Y-94625000D01*
G37*
G36*
X120759024Y-93028955D02*
X120791736Y-93038879D01*
X120821890Y-93054997D01*
X120848316Y-93076684D01*
X120870003Y-93103110D01*
X120886121Y-93133264D01*
X120896045Y-93165976D01*
X120900000Y-93206138D01*
X120900000Y-93793862D01*
X120896045Y-93834024D01*
X120886121Y-93866736D01*
X120870003Y-93896890D01*
X120848316Y-93923316D01*
X120821890Y-93945003D01*
X120791736Y-93961121D01*
X120759024Y-93971045D01*
X120718862Y-93975000D01*
X120031138Y-93975000D01*
X119990976Y-93971045D01*
X119958264Y-93961121D01*
X119928110Y-93945003D01*
X119901684Y-93923316D01*
X119879997Y-93896890D01*
X119863879Y-93866736D01*
X119853955Y-93834024D01*
X119850000Y-93793862D01*
X119850000Y-93206138D01*
X119853955Y-93165976D01*
X119863879Y-93133264D01*
X119879997Y-93103110D01*
X119901684Y-93076684D01*
X119928110Y-93054997D01*
X119958264Y-93038879D01*
X119990976Y-93028955D01*
X120031138Y-93025000D01*
X120718862Y-93025000D01*
X120759024Y-93028955D01*
X120759024Y-93028955D01*
G37*
G36*
X119009024Y-93028955D02*
X119041736Y-93038879D01*
X119071890Y-93054997D01*
X119098316Y-93076684D01*
X119120003Y-93103110D01*
X119136121Y-93133264D01*
X119146045Y-93165976D01*
X119150000Y-93206138D01*
X119150000Y-93793862D01*
X119146045Y-93834024D01*
X119136121Y-93866736D01*
X119120003Y-93896890D01*
X119098316Y-93923316D01*
X119071890Y-93945003D01*
X119041736Y-93961121D01*
X119009024Y-93971045D01*
X118968862Y-93975000D01*
X118281138Y-93975000D01*
X118240976Y-93971045D01*
X118208264Y-93961121D01*
X118178110Y-93945003D01*
X118151684Y-93923316D01*
X118129997Y-93896890D01*
X118113879Y-93866736D01*
X118103955Y-93834024D01*
X118100000Y-93793862D01*
X118100000Y-93206138D01*
X118103955Y-93165976D01*
X118113879Y-93133264D01*
X118129997Y-93103110D01*
X118151684Y-93076684D01*
X118178110Y-93054997D01*
X118208264Y-93038879D01*
X118240976Y-93028955D01*
X118281138Y-93025000D01*
X118968862Y-93025000D01*
X119009024Y-93028955D01*
X119009024Y-93028955D01*
G37*
G36*
X85600000Y-93625000D02*
X82000000Y-93625000D01*
X82000000Y-92975000D01*
X85600000Y-92975000D01*
X85600000Y-93625000D01*
X85600000Y-93625000D01*
G37*
G36*
X98650000Y-93505000D02*
X97650000Y-93505000D01*
X97650000Y-92555000D01*
X98650000Y-92555000D01*
X98650000Y-93505000D01*
X98650000Y-93505000D01*
G37*
G36*
X100834024Y-91353955D02*
X100866736Y-91363879D01*
X100896890Y-91379997D01*
X100923316Y-91401684D01*
X100945003Y-91428110D01*
X100961121Y-91458264D01*
X100971045Y-91490976D01*
X100975000Y-91531138D01*
X100975000Y-92218862D01*
X100971045Y-92259024D01*
X100961121Y-92291736D01*
X100945003Y-92321890D01*
X100923316Y-92348316D01*
X100896890Y-92370003D01*
X100866736Y-92386121D01*
X100834024Y-92396045D01*
X100793862Y-92400000D01*
X100206138Y-92400000D01*
X100165976Y-92396045D01*
X100133264Y-92386121D01*
X100103110Y-92370003D01*
X100076684Y-92348316D01*
X100054997Y-92321890D01*
X100038879Y-92291736D01*
X100028955Y-92259024D01*
X100025000Y-92218862D01*
X100025000Y-91531138D01*
X100028955Y-91490976D01*
X100038879Y-91458264D01*
X100054997Y-91428110D01*
X100076684Y-91401684D01*
X100103110Y-91379997D01*
X100133264Y-91363879D01*
X100165976Y-91353955D01*
X100206138Y-91350000D01*
X100793862Y-91350000D01*
X100834024Y-91353955D01*
X100834024Y-91353955D01*
G37*
G36*
X119009024Y-91028955D02*
X119041736Y-91038879D01*
X119071890Y-91054997D01*
X119098316Y-91076684D01*
X119120003Y-91103110D01*
X119136121Y-91133264D01*
X119146045Y-91165976D01*
X119150000Y-91206138D01*
X119150000Y-91793862D01*
X119146045Y-91834024D01*
X119136121Y-91866736D01*
X119120003Y-91896890D01*
X119098316Y-91923316D01*
X119071890Y-91945003D01*
X119041736Y-91961121D01*
X119009024Y-91971045D01*
X118968862Y-91975000D01*
X118281138Y-91975000D01*
X118240976Y-91971045D01*
X118208264Y-91961121D01*
X118178110Y-91945003D01*
X118151684Y-91923316D01*
X118129997Y-91896890D01*
X118113879Y-91866736D01*
X118103955Y-91834024D01*
X118100000Y-91793862D01*
X118100000Y-91206138D01*
X118103955Y-91165976D01*
X118113879Y-91133264D01*
X118129997Y-91103110D01*
X118151684Y-91076684D01*
X118178110Y-91054997D01*
X118208264Y-91038879D01*
X118240976Y-91028955D01*
X118281138Y-91025000D01*
X118968862Y-91025000D01*
X119009024Y-91028955D01*
X119009024Y-91028955D01*
G37*
G36*
X120759024Y-91028955D02*
X120791736Y-91038879D01*
X120821890Y-91054997D01*
X120848316Y-91076684D01*
X120870003Y-91103110D01*
X120886121Y-91133264D01*
X120896045Y-91165976D01*
X120900000Y-91206138D01*
X120900000Y-91793862D01*
X120896045Y-91834024D01*
X120886121Y-91866736D01*
X120870003Y-91896890D01*
X120848316Y-91923316D01*
X120821890Y-91945003D01*
X120791736Y-91961121D01*
X120759024Y-91971045D01*
X120718862Y-91975000D01*
X120031138Y-91975000D01*
X119990976Y-91971045D01*
X119958264Y-91961121D01*
X119928110Y-91945003D01*
X119901684Y-91923316D01*
X119879997Y-91896890D01*
X119863879Y-91866736D01*
X119853955Y-91834024D01*
X119850000Y-91793862D01*
X119850000Y-91206138D01*
X119853955Y-91165976D01*
X119863879Y-91133264D01*
X119879997Y-91103110D01*
X119901684Y-91076684D01*
X119928110Y-91054997D01*
X119958264Y-91038879D01*
X119990976Y-91028955D01*
X120031138Y-91025000D01*
X120718862Y-91025000D01*
X120759024Y-91028955D01*
X120759024Y-91028955D01*
G37*
G36*
X159600000Y-90810000D02*
X158970000Y-90810000D01*
X158970000Y-90150000D01*
X159600000Y-90150000D01*
X159600000Y-90810000D01*
X159600000Y-90810000D01*
G37*
G36*
X100834024Y-89603955D02*
X100866736Y-89613879D01*
X100896890Y-89629997D01*
X100923316Y-89651684D01*
X100945003Y-89678110D01*
X100961121Y-89708264D01*
X100971045Y-89740976D01*
X100975000Y-89781138D01*
X100975000Y-90468862D01*
X100971045Y-90509024D01*
X100961121Y-90541736D01*
X100945003Y-90571890D01*
X100923316Y-90598316D01*
X100896890Y-90620003D01*
X100866736Y-90636121D01*
X100834024Y-90646045D01*
X100793862Y-90650000D01*
X100206138Y-90650000D01*
X100165976Y-90646045D01*
X100133264Y-90636121D01*
X100103110Y-90620003D01*
X100076684Y-90598316D01*
X100054997Y-90571890D01*
X100038879Y-90541736D01*
X100028955Y-90509024D01*
X100025000Y-90468862D01*
X100025000Y-89781138D01*
X100028955Y-89740976D01*
X100038879Y-89708264D01*
X100054997Y-89678110D01*
X100076684Y-89651684D01*
X100103110Y-89629997D01*
X100133264Y-89613879D01*
X100165976Y-89603955D01*
X100206138Y-89600000D01*
X100793862Y-89600000D01*
X100834024Y-89603955D01*
X100834024Y-89603955D01*
G37*
G36*
X85600000Y-90625000D02*
X80938092Y-90625000D01*
X80922835Y-90616845D01*
X80911285Y-90612712D01*
X80875025Y-90601713D01*
X80835223Y-90580438D01*
X80818566Y-90571535D01*
X80769079Y-90530921D01*
X80728465Y-90481434D01*
X80716385Y-90458834D01*
X80698285Y-90424972D01*
X80679702Y-90363712D01*
X80673428Y-90300000D01*
X80679702Y-90236288D01*
X80698285Y-90175028D01*
X80728466Y-90118565D01*
X80769079Y-90069079D01*
X80818565Y-90028466D01*
X80818564Y-90028466D01*
X80818566Y-90028465D01*
X80844847Y-90014418D01*
X80875025Y-89998287D01*
X80911285Y-89987288D01*
X80933924Y-89977910D01*
X80938279Y-89975000D01*
X85600000Y-89975000D01*
X85600000Y-90625000D01*
X85600000Y-90625000D01*
G37*
G36*
X159100000Y-89870000D02*
X158300000Y-89870000D01*
X158300000Y-89470000D01*
X159100000Y-89470000D01*
X159100000Y-89870000D01*
X159100000Y-89870000D01*
G37*
G36*
X85600000Y-89625000D02*
X80938092Y-89625000D01*
X80922835Y-89616845D01*
X80911285Y-89612712D01*
X80875025Y-89601713D01*
X80844847Y-89585582D01*
X80818566Y-89571535D01*
X80769079Y-89530921D01*
X80728465Y-89481434D01*
X80715363Y-89456921D01*
X80698285Y-89424972D01*
X80679702Y-89363712D01*
X80673428Y-89300000D01*
X80679702Y-89236288D01*
X80698285Y-89175028D01*
X80728466Y-89118565D01*
X80769079Y-89069079D01*
X80818565Y-89028466D01*
X80818564Y-89028466D01*
X80818566Y-89028465D01*
X80844847Y-89014418D01*
X80875025Y-88998287D01*
X80911285Y-88987288D01*
X80933924Y-88977910D01*
X80938279Y-88975000D01*
X85600000Y-88975000D01*
X85600000Y-89625000D01*
X85600000Y-89625000D01*
G37*
G36*
X155259024Y-88528955D02*
X155291736Y-88538879D01*
X155321890Y-88554997D01*
X155348316Y-88576684D01*
X155370003Y-88603110D01*
X155386121Y-88633264D01*
X155396045Y-88665976D01*
X155400000Y-88706138D01*
X155400000Y-89293862D01*
X155396045Y-89334024D01*
X155386121Y-89366736D01*
X155370003Y-89396890D01*
X155348316Y-89423316D01*
X155321890Y-89445003D01*
X155291736Y-89461121D01*
X155259024Y-89471045D01*
X155218862Y-89475000D01*
X154531138Y-89475000D01*
X154490976Y-89471045D01*
X154458264Y-89461121D01*
X154428110Y-89445003D01*
X154401684Y-89423316D01*
X154379997Y-89396890D01*
X154363879Y-89366736D01*
X154353955Y-89334024D01*
X154350000Y-89293862D01*
X154350000Y-88706138D01*
X154353955Y-88665976D01*
X154363879Y-88633264D01*
X154379997Y-88603110D01*
X154401684Y-88576684D01*
X154428110Y-88554997D01*
X154458264Y-88538879D01*
X154490976Y-88528955D01*
X154531138Y-88525000D01*
X155218862Y-88525000D01*
X155259024Y-88528955D01*
X155259024Y-88528955D01*
G37*
G36*
X153509024Y-88528955D02*
X153541736Y-88538879D01*
X153571890Y-88554997D01*
X153598316Y-88576684D01*
X153620003Y-88603110D01*
X153636121Y-88633264D01*
X153646045Y-88665976D01*
X153650000Y-88706138D01*
X153650000Y-89293862D01*
X153646045Y-89334024D01*
X153636121Y-89366736D01*
X153620003Y-89396890D01*
X153598316Y-89423316D01*
X153571890Y-89445003D01*
X153541736Y-89461121D01*
X153509024Y-89471045D01*
X153468862Y-89475000D01*
X152781138Y-89475000D01*
X152740976Y-89471045D01*
X152708264Y-89461121D01*
X152678110Y-89445003D01*
X152651684Y-89423316D01*
X152629997Y-89396890D01*
X152613879Y-89366736D01*
X152603955Y-89334024D01*
X152600000Y-89293862D01*
X152600000Y-88706138D01*
X152603955Y-88665976D01*
X152613879Y-88633264D01*
X152629997Y-88603110D01*
X152651684Y-88576684D01*
X152678110Y-88554997D01*
X152708264Y-88538879D01*
X152740976Y-88528955D01*
X152781138Y-88525000D01*
X153468862Y-88525000D01*
X153509024Y-88528955D01*
X153509024Y-88528955D01*
G37*
G36*
X159100000Y-89190000D02*
X158300000Y-89190000D01*
X158300000Y-88790000D01*
X159100000Y-88790000D01*
X159100000Y-89190000D01*
X159100000Y-89190000D01*
G37*
G36*
X98124449Y-87750551D02*
X98125602Y-87762253D01*
X98130383Y-87786287D01*
X98139760Y-87808925D01*
X98153374Y-87829300D01*
X98170702Y-87846627D01*
X98191076Y-87860241D01*
X98213715Y-87869618D01*
X98237749Y-87874398D01*
X98262253Y-87874398D01*
X98286287Y-87869617D01*
X98308925Y-87860240D01*
X98329300Y-87846626D01*
X98346627Y-87829298D01*
X98360241Y-87808924D01*
X98369618Y-87786285D01*
X98374398Y-87762253D01*
X98375551Y-87750551D01*
X98381141Y-87750000D01*
X98618859Y-87750000D01*
X98624449Y-87750551D01*
X98625602Y-87762253D01*
X98630383Y-87786287D01*
X98639760Y-87808925D01*
X98653374Y-87829300D01*
X98670702Y-87846627D01*
X98691076Y-87860241D01*
X98713715Y-87869618D01*
X98737749Y-87874398D01*
X98762253Y-87874398D01*
X98786287Y-87869617D01*
X98808925Y-87860240D01*
X98829300Y-87846626D01*
X98846627Y-87829298D01*
X98860241Y-87808924D01*
X98869618Y-87786285D01*
X98874398Y-87762253D01*
X98875551Y-87750551D01*
X98881141Y-87750000D01*
X99118859Y-87750000D01*
X99124449Y-87750551D01*
X99125602Y-87762253D01*
X99130383Y-87786287D01*
X99139760Y-87808925D01*
X99153374Y-87829300D01*
X99170702Y-87846627D01*
X99191076Y-87860241D01*
X99213715Y-87869618D01*
X99237749Y-87874398D01*
X99262253Y-87874398D01*
X99286287Y-87869617D01*
X99308925Y-87860240D01*
X99329300Y-87846626D01*
X99346627Y-87829298D01*
X99360241Y-87808924D01*
X99369618Y-87786285D01*
X99374398Y-87762253D01*
X99375551Y-87750551D01*
X99381141Y-87750000D01*
X99618859Y-87750000D01*
X99624449Y-87750551D01*
X99625602Y-87762253D01*
X99630383Y-87786287D01*
X99639760Y-87808925D01*
X99653374Y-87829300D01*
X99670702Y-87846627D01*
X99691076Y-87860241D01*
X99713715Y-87869618D01*
X99737749Y-87874398D01*
X99762253Y-87874398D01*
X99786287Y-87869617D01*
X99808925Y-87860240D01*
X99829300Y-87846626D01*
X99846627Y-87829298D01*
X99860241Y-87808924D01*
X99869618Y-87786285D01*
X99874398Y-87762253D01*
X99875551Y-87750551D01*
X99881141Y-87750000D01*
X100118859Y-87750000D01*
X100124449Y-87750551D01*
X100125602Y-87762253D01*
X100130383Y-87786287D01*
X100139760Y-87808925D01*
X100153374Y-87829300D01*
X100170702Y-87846627D01*
X100191076Y-87860241D01*
X100213715Y-87869618D01*
X100237749Y-87874398D01*
X100262253Y-87874398D01*
X100286287Y-87869617D01*
X100308925Y-87860240D01*
X100329300Y-87846626D01*
X100346627Y-87829298D01*
X100360241Y-87808924D01*
X100369618Y-87786285D01*
X100374398Y-87762253D01*
X100375551Y-87750551D01*
X100381141Y-87750000D01*
X100618859Y-87750000D01*
X100624449Y-87750551D01*
X100625602Y-87762253D01*
X100630383Y-87786287D01*
X100639760Y-87808925D01*
X100653374Y-87829300D01*
X100670702Y-87846627D01*
X100691076Y-87860241D01*
X100713715Y-87869618D01*
X100737749Y-87874398D01*
X100762253Y-87874398D01*
X100786287Y-87869617D01*
X100808925Y-87860240D01*
X100829300Y-87846626D01*
X100846627Y-87829298D01*
X100860241Y-87808924D01*
X100869618Y-87786285D01*
X100874398Y-87762253D01*
X100875551Y-87750551D01*
X100881141Y-87750000D01*
X101118859Y-87750000D01*
X101124449Y-87750551D01*
X101125602Y-87762253D01*
X101130383Y-87786287D01*
X101139760Y-87808925D01*
X101153374Y-87829300D01*
X101170702Y-87846627D01*
X101191076Y-87860241D01*
X101213715Y-87869618D01*
X101237749Y-87874398D01*
X101262253Y-87874398D01*
X101286287Y-87869617D01*
X101308925Y-87860240D01*
X101329300Y-87846626D01*
X101346627Y-87829298D01*
X101360241Y-87808924D01*
X101369618Y-87786285D01*
X101374398Y-87762253D01*
X101375551Y-87750551D01*
X101381141Y-87750000D01*
X101625000Y-87750000D01*
X101625000Y-88618859D01*
X101624449Y-88624449D01*
X101618859Y-88625000D01*
X101381141Y-88625000D01*
X101375551Y-88624449D01*
X101374398Y-88612747D01*
X101369617Y-88588713D01*
X101360240Y-88566075D01*
X101346626Y-88545700D01*
X101329298Y-88528373D01*
X101308924Y-88514759D01*
X101286285Y-88505382D01*
X101262251Y-88500602D01*
X101237747Y-88500602D01*
X101213713Y-88505383D01*
X101191075Y-88514760D01*
X101170700Y-88528374D01*
X101153373Y-88545702D01*
X101139759Y-88566076D01*
X101130382Y-88588715D01*
X101125602Y-88612747D01*
X101124449Y-88624449D01*
X101118859Y-88625000D01*
X100881141Y-88625000D01*
X100875551Y-88624449D01*
X100874398Y-88612747D01*
X100869617Y-88588713D01*
X100860240Y-88566075D01*
X100846626Y-88545700D01*
X100829298Y-88528373D01*
X100808924Y-88514759D01*
X100786285Y-88505382D01*
X100762251Y-88500602D01*
X100737747Y-88500602D01*
X100713713Y-88505383D01*
X100691075Y-88514760D01*
X100670700Y-88528374D01*
X100653373Y-88545702D01*
X100639759Y-88566076D01*
X100630382Y-88588715D01*
X100625602Y-88612747D01*
X100624449Y-88624449D01*
X100618859Y-88625000D01*
X100381141Y-88625000D01*
X100375551Y-88624449D01*
X100374398Y-88612747D01*
X100369617Y-88588713D01*
X100360240Y-88566075D01*
X100346626Y-88545700D01*
X100329298Y-88528373D01*
X100308924Y-88514759D01*
X100286285Y-88505382D01*
X100262251Y-88500602D01*
X100237747Y-88500602D01*
X100213713Y-88505383D01*
X100191075Y-88514760D01*
X100170700Y-88528374D01*
X100153373Y-88545702D01*
X100139759Y-88566076D01*
X100130382Y-88588715D01*
X100125602Y-88612747D01*
X100124449Y-88624449D01*
X100118859Y-88625000D01*
X99881141Y-88625000D01*
X99875551Y-88624449D01*
X99874398Y-88612747D01*
X99869617Y-88588713D01*
X99860240Y-88566075D01*
X99846626Y-88545700D01*
X99829298Y-88528373D01*
X99808924Y-88514759D01*
X99786285Y-88505382D01*
X99762251Y-88500602D01*
X99737747Y-88500602D01*
X99713713Y-88505383D01*
X99691075Y-88514760D01*
X99670700Y-88528374D01*
X99653373Y-88545702D01*
X99639759Y-88566076D01*
X99630382Y-88588715D01*
X99625602Y-88612747D01*
X99624449Y-88624449D01*
X99618859Y-88625000D01*
X99381141Y-88625000D01*
X99375551Y-88624449D01*
X99374398Y-88612747D01*
X99369617Y-88588713D01*
X99360240Y-88566075D01*
X99346626Y-88545700D01*
X99329298Y-88528373D01*
X99308924Y-88514759D01*
X99286285Y-88505382D01*
X99262251Y-88500602D01*
X99237747Y-88500602D01*
X99213713Y-88505383D01*
X99191075Y-88514760D01*
X99170700Y-88528374D01*
X99153373Y-88545702D01*
X99139759Y-88566076D01*
X99130382Y-88588715D01*
X99125602Y-88612747D01*
X99124449Y-88624449D01*
X99118859Y-88625000D01*
X98881141Y-88625000D01*
X98875551Y-88624449D01*
X98874398Y-88612747D01*
X98869617Y-88588713D01*
X98860240Y-88566075D01*
X98846626Y-88545700D01*
X98829298Y-88528373D01*
X98808924Y-88514759D01*
X98786285Y-88505382D01*
X98762251Y-88500602D01*
X98737747Y-88500602D01*
X98713713Y-88505383D01*
X98691075Y-88514760D01*
X98670700Y-88528374D01*
X98653373Y-88545702D01*
X98639759Y-88566076D01*
X98630382Y-88588715D01*
X98625602Y-88612747D01*
X98624449Y-88624449D01*
X98618859Y-88625000D01*
X98381141Y-88625000D01*
X98375551Y-88624449D01*
X98374398Y-88612747D01*
X98369617Y-88588713D01*
X98360240Y-88566075D01*
X98346626Y-88545700D01*
X98329298Y-88528373D01*
X98308924Y-88514759D01*
X98286285Y-88505382D01*
X98262251Y-88500602D01*
X98237747Y-88500602D01*
X98213713Y-88505383D01*
X98191075Y-88514760D01*
X98170700Y-88528374D01*
X98153373Y-88545702D01*
X98139759Y-88566076D01*
X98130382Y-88588715D01*
X98125602Y-88612747D01*
X98124449Y-88624449D01*
X98118859Y-88625000D01*
X97881141Y-88625000D01*
X97875551Y-88624449D01*
X97875000Y-88618859D01*
X97875000Y-87750000D01*
X98118859Y-87750000D01*
X98124449Y-87750551D01*
X98124449Y-87750551D01*
G37*
G36*
X85600000Y-88625000D02*
X80938092Y-88625000D01*
X80922835Y-88616845D01*
X80911285Y-88612712D01*
X80875025Y-88601713D01*
X80844847Y-88585582D01*
X80818566Y-88571535D01*
X80769079Y-88530921D01*
X80728465Y-88481434D01*
X80718406Y-88462614D01*
X80698285Y-88424972D01*
X80679702Y-88363712D01*
X80673428Y-88300000D01*
X80679702Y-88236288D01*
X80698285Y-88175028D01*
X80728466Y-88118565D01*
X80769079Y-88069079D01*
X80818565Y-88028466D01*
X80818564Y-88028466D01*
X80818566Y-88028465D01*
X80853112Y-88010000D01*
X80875025Y-87998287D01*
X80911285Y-87987288D01*
X80933924Y-87977910D01*
X80938279Y-87975000D01*
X85600000Y-87975000D01*
X85600000Y-88625000D01*
X85600000Y-88625000D01*
G37*
G36*
X159100000Y-88410000D02*
X158300000Y-88410000D01*
X158300000Y-88010000D01*
X159100000Y-88010000D01*
X159100000Y-88410000D01*
X159100000Y-88410000D01*
G37*
G36*
X159100000Y-87730000D02*
X158300000Y-87730000D01*
X158300000Y-87330000D01*
X159100000Y-87330000D01*
X159100000Y-87730000D01*
X159100000Y-87730000D01*
G37*
G36*
X85600000Y-87625000D02*
X80938092Y-87625000D01*
X80922835Y-87616845D01*
X80911285Y-87612712D01*
X80875025Y-87601713D01*
X80844847Y-87585582D01*
X80818566Y-87571535D01*
X80769079Y-87530921D01*
X80728465Y-87481434D01*
X80715363Y-87456921D01*
X80698285Y-87424972D01*
X80679702Y-87363712D01*
X80673428Y-87300000D01*
X80679702Y-87236288D01*
X80698285Y-87175028D01*
X80722149Y-87130382D01*
X80728465Y-87118566D01*
X80769079Y-87069079D01*
X80818566Y-87028465D01*
X80844847Y-87014418D01*
X80875025Y-86998287D01*
X80911285Y-86987288D01*
X80933924Y-86977910D01*
X80938279Y-86975000D01*
X85600000Y-86975000D01*
X85600000Y-87625000D01*
X85600000Y-87625000D01*
G37*
G36*
X102624449Y-83875551D02*
X102625000Y-83881141D01*
X102625000Y-84118859D01*
X102624449Y-84124449D01*
X102612747Y-84125602D01*
X102588713Y-84130383D01*
X102566075Y-84139760D01*
X102545700Y-84153374D01*
X102528373Y-84170702D01*
X102514759Y-84191076D01*
X102505382Y-84213715D01*
X102500602Y-84237749D01*
X102500602Y-84262253D01*
X102505383Y-84286287D01*
X102514760Y-84308925D01*
X102528374Y-84329300D01*
X102545702Y-84346627D01*
X102566076Y-84360241D01*
X102588715Y-84369618D01*
X102612747Y-84374398D01*
X102624449Y-84375551D01*
X102625000Y-84381141D01*
X102625000Y-84618859D01*
X102624449Y-84624449D01*
X102612747Y-84625602D01*
X102588713Y-84630383D01*
X102566075Y-84639760D01*
X102545700Y-84653374D01*
X102528373Y-84670702D01*
X102514759Y-84691076D01*
X102505382Y-84713715D01*
X102500602Y-84737749D01*
X102500602Y-84762253D01*
X102505383Y-84786287D01*
X102514760Y-84808925D01*
X102528374Y-84829300D01*
X102545702Y-84846627D01*
X102566076Y-84860241D01*
X102588715Y-84869618D01*
X102612747Y-84874398D01*
X102624449Y-84875551D01*
X102625000Y-84881141D01*
X102625000Y-85118859D01*
X102624449Y-85124449D01*
X102612747Y-85125602D01*
X102588713Y-85130383D01*
X102566075Y-85139760D01*
X102545700Y-85153374D01*
X102528373Y-85170702D01*
X102514759Y-85191076D01*
X102505382Y-85213715D01*
X102500602Y-85237749D01*
X102500602Y-85262253D01*
X102505383Y-85286287D01*
X102514760Y-85308925D01*
X102528374Y-85329300D01*
X102545702Y-85346627D01*
X102566076Y-85360241D01*
X102588715Y-85369618D01*
X102612747Y-85374398D01*
X102624449Y-85375551D01*
X102625000Y-85381141D01*
X102625000Y-85618859D01*
X102624449Y-85624449D01*
X102612747Y-85625602D01*
X102588713Y-85630383D01*
X102566075Y-85639760D01*
X102545700Y-85653374D01*
X102528373Y-85670702D01*
X102514759Y-85691076D01*
X102505382Y-85713715D01*
X102500602Y-85737749D01*
X102500602Y-85762253D01*
X102505383Y-85786287D01*
X102514760Y-85808925D01*
X102528374Y-85829300D01*
X102545702Y-85846627D01*
X102566076Y-85860241D01*
X102588715Y-85869618D01*
X102612747Y-85874398D01*
X102624449Y-85875551D01*
X102625000Y-85881141D01*
X102625000Y-86118859D01*
X102624449Y-86124449D01*
X102612747Y-86125602D01*
X102588713Y-86130383D01*
X102566075Y-86139760D01*
X102545700Y-86153374D01*
X102528373Y-86170702D01*
X102514759Y-86191076D01*
X102505382Y-86213715D01*
X102500602Y-86237749D01*
X102500602Y-86262253D01*
X102505383Y-86286287D01*
X102514760Y-86308925D01*
X102528374Y-86329300D01*
X102545702Y-86346627D01*
X102566076Y-86360241D01*
X102588715Y-86369618D01*
X102612747Y-86374398D01*
X102624449Y-86375551D01*
X102625000Y-86381141D01*
X102625000Y-86618859D01*
X102624449Y-86624449D01*
X102612747Y-86625602D01*
X102588713Y-86630383D01*
X102566075Y-86639760D01*
X102545700Y-86653374D01*
X102528373Y-86670702D01*
X102514759Y-86691076D01*
X102505382Y-86713715D01*
X102500602Y-86737749D01*
X102500602Y-86762253D01*
X102505383Y-86786287D01*
X102514760Y-86808925D01*
X102528374Y-86829300D01*
X102545702Y-86846627D01*
X102566076Y-86860241D01*
X102588715Y-86869618D01*
X102612747Y-86874398D01*
X102624449Y-86875551D01*
X102625000Y-86881141D01*
X102625000Y-87118859D01*
X102624449Y-87124449D01*
X102612747Y-87125602D01*
X102588713Y-87130383D01*
X102566075Y-87139760D01*
X102545700Y-87153374D01*
X102528373Y-87170702D01*
X102514759Y-87191076D01*
X102505382Y-87213715D01*
X102500602Y-87237749D01*
X102500602Y-87262253D01*
X102505383Y-87286287D01*
X102514760Y-87308925D01*
X102528374Y-87329300D01*
X102545702Y-87346627D01*
X102566076Y-87360241D01*
X102588715Y-87369618D01*
X102612747Y-87374398D01*
X102624449Y-87375551D01*
X102625000Y-87381141D01*
X102625000Y-87618859D01*
X102624449Y-87624449D01*
X102618859Y-87625000D01*
X101750000Y-87625000D01*
X101750000Y-87381141D01*
X101750551Y-87375551D01*
X101762253Y-87374398D01*
X101786287Y-87369617D01*
X101808925Y-87360240D01*
X101829300Y-87346626D01*
X101846627Y-87329298D01*
X101860241Y-87308924D01*
X101869618Y-87286285D01*
X101874398Y-87262251D01*
X101874398Y-87237747D01*
X101869617Y-87213713D01*
X101860240Y-87191075D01*
X101846626Y-87170700D01*
X101829298Y-87153373D01*
X101808924Y-87139759D01*
X101786285Y-87130382D01*
X101762253Y-87125602D01*
X101750551Y-87124449D01*
X101750000Y-87118859D01*
X101750000Y-86881141D01*
X101750551Y-86875551D01*
X101762253Y-86874398D01*
X101786287Y-86869617D01*
X101808925Y-86860240D01*
X101829300Y-86846626D01*
X101846627Y-86829298D01*
X101860241Y-86808924D01*
X101869618Y-86786285D01*
X101874398Y-86762251D01*
X101874398Y-86737747D01*
X101869617Y-86713713D01*
X101860240Y-86691075D01*
X101846626Y-86670700D01*
X101829298Y-86653373D01*
X101808924Y-86639759D01*
X101786285Y-86630382D01*
X101762253Y-86625602D01*
X101750551Y-86624449D01*
X101750000Y-86618859D01*
X101750000Y-86381141D01*
X101750551Y-86375551D01*
X101762253Y-86374398D01*
X101786287Y-86369617D01*
X101808925Y-86360240D01*
X101829300Y-86346626D01*
X101846627Y-86329298D01*
X101860241Y-86308924D01*
X101869618Y-86286285D01*
X101874398Y-86262251D01*
X101874398Y-86237747D01*
X101869617Y-86213713D01*
X101860240Y-86191075D01*
X101846626Y-86170700D01*
X101829298Y-86153373D01*
X101808924Y-86139759D01*
X101786285Y-86130382D01*
X101762253Y-86125602D01*
X101750551Y-86124449D01*
X101750000Y-86118859D01*
X101750000Y-85881141D01*
X101750551Y-85875551D01*
X101762253Y-85874398D01*
X101786287Y-85869617D01*
X101808925Y-85860240D01*
X101829300Y-85846626D01*
X101846627Y-85829298D01*
X101860241Y-85808924D01*
X101869618Y-85786285D01*
X101874398Y-85762251D01*
X101874398Y-85737747D01*
X101869617Y-85713713D01*
X101860240Y-85691075D01*
X101846626Y-85670700D01*
X101829298Y-85653373D01*
X101808924Y-85639759D01*
X101786285Y-85630382D01*
X101762253Y-85625602D01*
X101750551Y-85624449D01*
X101750000Y-85618859D01*
X101750000Y-85381141D01*
X101750551Y-85375551D01*
X101762253Y-85374398D01*
X101786287Y-85369617D01*
X101808925Y-85360240D01*
X101829300Y-85346626D01*
X101846627Y-85329298D01*
X101860241Y-85308924D01*
X101869618Y-85286285D01*
X101874398Y-85262251D01*
X101874398Y-85237747D01*
X101869617Y-85213713D01*
X101860240Y-85191075D01*
X101846626Y-85170700D01*
X101829298Y-85153373D01*
X101808924Y-85139759D01*
X101786285Y-85130382D01*
X101762253Y-85125602D01*
X101750551Y-85124449D01*
X101750000Y-85118859D01*
X101750000Y-84881141D01*
X101750551Y-84875551D01*
X101762253Y-84874398D01*
X101786287Y-84869617D01*
X101808925Y-84860240D01*
X101829300Y-84846626D01*
X101846627Y-84829298D01*
X101860241Y-84808924D01*
X101869618Y-84786285D01*
X101874398Y-84762251D01*
X101874398Y-84737747D01*
X101869617Y-84713713D01*
X101860240Y-84691075D01*
X101846626Y-84670700D01*
X101829298Y-84653373D01*
X101808924Y-84639759D01*
X101786285Y-84630382D01*
X101762253Y-84625602D01*
X101750551Y-84624449D01*
X101750000Y-84618859D01*
X101750000Y-84381141D01*
X101750551Y-84375551D01*
X101762253Y-84374398D01*
X101786287Y-84369617D01*
X101808925Y-84360240D01*
X101829300Y-84346626D01*
X101846627Y-84329298D01*
X101860241Y-84308924D01*
X101869618Y-84286285D01*
X101874398Y-84262251D01*
X101874398Y-84237747D01*
X101869617Y-84213713D01*
X101860240Y-84191075D01*
X101846626Y-84170700D01*
X101829298Y-84153373D01*
X101808924Y-84139759D01*
X101786285Y-84130382D01*
X101762253Y-84125602D01*
X101750551Y-84124449D01*
X101750000Y-84118859D01*
X101750000Y-83875000D01*
X102618859Y-83875000D01*
X102624449Y-83875551D01*
X102624449Y-83875551D01*
G37*
G36*
X97750000Y-84118859D02*
X97749449Y-84124449D01*
X97737747Y-84125602D01*
X97713713Y-84130383D01*
X97691075Y-84139760D01*
X97670700Y-84153374D01*
X97653373Y-84170702D01*
X97639759Y-84191076D01*
X97630382Y-84213715D01*
X97625602Y-84237749D01*
X97625602Y-84262253D01*
X97630383Y-84286287D01*
X97639760Y-84308925D01*
X97653374Y-84329300D01*
X97670702Y-84346627D01*
X97691076Y-84360241D01*
X97713715Y-84369618D01*
X97737747Y-84374398D01*
X97749449Y-84375551D01*
X97750000Y-84381141D01*
X97750000Y-84618859D01*
X97749449Y-84624449D01*
X97737747Y-84625602D01*
X97713713Y-84630383D01*
X97691075Y-84639760D01*
X97670700Y-84653374D01*
X97653373Y-84670702D01*
X97639759Y-84691076D01*
X97630382Y-84713715D01*
X97625602Y-84737749D01*
X97625602Y-84762253D01*
X97630383Y-84786287D01*
X97639760Y-84808925D01*
X97653374Y-84829300D01*
X97670702Y-84846627D01*
X97691076Y-84860241D01*
X97713715Y-84869618D01*
X97737747Y-84874398D01*
X97749449Y-84875551D01*
X97750000Y-84881141D01*
X97750000Y-85118859D01*
X97749449Y-85124449D01*
X97737747Y-85125602D01*
X97713713Y-85130383D01*
X97691075Y-85139760D01*
X97670700Y-85153374D01*
X97653373Y-85170702D01*
X97639759Y-85191076D01*
X97630382Y-85213715D01*
X97625602Y-85237749D01*
X97625602Y-85262253D01*
X97630383Y-85286287D01*
X97639760Y-85308925D01*
X97653374Y-85329300D01*
X97670702Y-85346627D01*
X97691076Y-85360241D01*
X97713715Y-85369618D01*
X97737747Y-85374398D01*
X97749449Y-85375551D01*
X97750000Y-85381141D01*
X97750000Y-85618859D01*
X97749449Y-85624449D01*
X97737747Y-85625602D01*
X97713713Y-85630383D01*
X97691075Y-85639760D01*
X97670700Y-85653374D01*
X97653373Y-85670702D01*
X97639759Y-85691076D01*
X97630382Y-85713715D01*
X97625602Y-85737749D01*
X97625602Y-85762253D01*
X97630383Y-85786287D01*
X97639760Y-85808925D01*
X97653374Y-85829300D01*
X97670702Y-85846627D01*
X97691076Y-85860241D01*
X97713715Y-85869618D01*
X97737747Y-85874398D01*
X97749449Y-85875551D01*
X97750000Y-85881141D01*
X97750000Y-86118859D01*
X97749449Y-86124449D01*
X97737747Y-86125602D01*
X97713713Y-86130383D01*
X97691075Y-86139760D01*
X97670700Y-86153374D01*
X97653373Y-86170702D01*
X97639759Y-86191076D01*
X97630382Y-86213715D01*
X97625602Y-86237749D01*
X97625602Y-86262253D01*
X97630383Y-86286287D01*
X97639760Y-86308925D01*
X97653374Y-86329300D01*
X97670702Y-86346627D01*
X97691076Y-86360241D01*
X97713715Y-86369618D01*
X97737747Y-86374398D01*
X97749449Y-86375551D01*
X97750000Y-86381141D01*
X97750000Y-86618859D01*
X97749449Y-86624449D01*
X97737747Y-86625602D01*
X97713713Y-86630383D01*
X97691075Y-86639760D01*
X97670700Y-86653374D01*
X97653373Y-86670702D01*
X97639759Y-86691076D01*
X97630382Y-86713715D01*
X97625602Y-86737749D01*
X97625602Y-86762253D01*
X97630383Y-86786287D01*
X97639760Y-86808925D01*
X97653374Y-86829300D01*
X97670702Y-86846627D01*
X97691076Y-86860241D01*
X97713715Y-86869618D01*
X97737747Y-86874398D01*
X97749449Y-86875551D01*
X97750000Y-86881141D01*
X97750000Y-87118859D01*
X97749449Y-87124449D01*
X97737747Y-87125602D01*
X97713713Y-87130383D01*
X97691075Y-87139760D01*
X97670700Y-87153374D01*
X97653373Y-87170702D01*
X97639759Y-87191076D01*
X97630382Y-87213715D01*
X97625602Y-87237749D01*
X97625602Y-87262253D01*
X97630383Y-87286287D01*
X97639760Y-87308925D01*
X97653374Y-87329300D01*
X97670702Y-87346627D01*
X97691076Y-87360241D01*
X97713715Y-87369618D01*
X97737747Y-87374398D01*
X97749449Y-87375551D01*
X97750000Y-87381141D01*
X97750000Y-87625000D01*
X96881141Y-87625000D01*
X96875551Y-87624449D01*
X96875000Y-87618859D01*
X96875000Y-87381141D01*
X96875551Y-87375551D01*
X96887253Y-87374398D01*
X96911287Y-87369617D01*
X96933925Y-87360240D01*
X96954300Y-87346626D01*
X96971627Y-87329298D01*
X96985241Y-87308924D01*
X96994618Y-87286285D01*
X96999398Y-87262251D01*
X96999398Y-87237747D01*
X96994617Y-87213713D01*
X96985240Y-87191075D01*
X96971626Y-87170700D01*
X96954298Y-87153373D01*
X96933924Y-87139759D01*
X96911285Y-87130382D01*
X96887253Y-87125602D01*
X96875551Y-87124449D01*
X96875000Y-87118859D01*
X96875000Y-86881141D01*
X96875551Y-86875551D01*
X96887253Y-86874398D01*
X96911287Y-86869617D01*
X96933925Y-86860240D01*
X96954300Y-86846626D01*
X96971627Y-86829298D01*
X96985241Y-86808924D01*
X96994618Y-86786285D01*
X96999398Y-86762251D01*
X96999398Y-86737747D01*
X96994617Y-86713713D01*
X96985240Y-86691075D01*
X96971626Y-86670700D01*
X96954298Y-86653373D01*
X96933924Y-86639759D01*
X96911285Y-86630382D01*
X96887253Y-86625602D01*
X96875551Y-86624449D01*
X96875000Y-86618859D01*
X96875000Y-86381141D01*
X96875551Y-86375551D01*
X96887253Y-86374398D01*
X96911287Y-86369617D01*
X96933925Y-86360240D01*
X96954300Y-86346626D01*
X96971627Y-86329298D01*
X96985241Y-86308924D01*
X96994618Y-86286285D01*
X96999398Y-86262251D01*
X96999398Y-86237747D01*
X96994617Y-86213713D01*
X96985240Y-86191075D01*
X96971626Y-86170700D01*
X96954298Y-86153373D01*
X96933924Y-86139759D01*
X96911285Y-86130382D01*
X96887253Y-86125602D01*
X96875551Y-86124449D01*
X96875000Y-86118859D01*
X96875000Y-85881141D01*
X96875551Y-85875551D01*
X96887253Y-85874398D01*
X96911287Y-85869617D01*
X96933925Y-85860240D01*
X96954300Y-85846626D01*
X96971627Y-85829298D01*
X96985241Y-85808924D01*
X96994618Y-85786285D01*
X96999398Y-85762251D01*
X96999398Y-85737747D01*
X96994617Y-85713713D01*
X96985240Y-85691075D01*
X96971626Y-85670700D01*
X96954298Y-85653373D01*
X96933924Y-85639759D01*
X96911285Y-85630382D01*
X96887253Y-85625602D01*
X96875551Y-85624449D01*
X96875000Y-85618859D01*
X96875000Y-85381141D01*
X96875551Y-85375551D01*
X96887253Y-85374398D01*
X96911287Y-85369617D01*
X96933925Y-85360240D01*
X96954300Y-85346626D01*
X96971627Y-85329298D01*
X96985241Y-85308924D01*
X96994618Y-85286285D01*
X96999398Y-85262251D01*
X96999398Y-85237747D01*
X96994617Y-85213713D01*
X96985240Y-85191075D01*
X96971626Y-85170700D01*
X96954298Y-85153373D01*
X96933924Y-85139759D01*
X96911285Y-85130382D01*
X96887253Y-85125602D01*
X96875551Y-85124449D01*
X96875000Y-85118859D01*
X96875000Y-84881141D01*
X96875551Y-84875551D01*
X96887253Y-84874398D01*
X96911287Y-84869617D01*
X96933925Y-84860240D01*
X96954300Y-84846626D01*
X96971627Y-84829298D01*
X96985241Y-84808924D01*
X96994618Y-84786285D01*
X96999398Y-84762251D01*
X96999398Y-84737747D01*
X96994617Y-84713713D01*
X96985240Y-84691075D01*
X96971626Y-84670700D01*
X96954298Y-84653373D01*
X96933924Y-84639759D01*
X96911285Y-84630382D01*
X96887253Y-84625602D01*
X96875551Y-84624449D01*
X96875000Y-84618859D01*
X96875000Y-84381141D01*
X96875551Y-84375551D01*
X96887253Y-84374398D01*
X96911287Y-84369617D01*
X96933925Y-84360240D01*
X96954300Y-84346626D01*
X96971627Y-84329298D01*
X96985241Y-84308924D01*
X96994618Y-84286285D01*
X96999398Y-84262251D01*
X96999398Y-84237747D01*
X96994617Y-84213713D01*
X96985240Y-84191075D01*
X96971626Y-84170700D01*
X96954298Y-84153373D01*
X96933924Y-84139759D01*
X96911285Y-84130382D01*
X96887253Y-84125602D01*
X96875551Y-84124449D01*
X96875000Y-84118859D01*
X96875000Y-83881141D01*
X96875551Y-83875551D01*
X96881141Y-83875000D01*
X97750000Y-83875000D01*
X97750000Y-84118859D01*
X97750000Y-84118859D01*
G37*
G36*
X155259024Y-86528955D02*
X155291736Y-86538879D01*
X155321890Y-86554997D01*
X155348316Y-86576684D01*
X155370003Y-86603110D01*
X155386121Y-86633264D01*
X155396045Y-86665976D01*
X155400000Y-86706138D01*
X155400000Y-87293862D01*
X155396045Y-87334024D01*
X155386121Y-87366736D01*
X155370003Y-87396890D01*
X155348316Y-87423316D01*
X155321890Y-87445003D01*
X155291736Y-87461121D01*
X155259024Y-87471045D01*
X155218862Y-87475000D01*
X154531138Y-87475000D01*
X154490976Y-87471045D01*
X154458264Y-87461121D01*
X154428110Y-87445003D01*
X154401684Y-87423316D01*
X154379997Y-87396890D01*
X154363879Y-87366736D01*
X154353955Y-87334024D01*
X154350000Y-87293862D01*
X154350000Y-86706138D01*
X154353955Y-86665976D01*
X154363879Y-86633264D01*
X154379997Y-86603110D01*
X154401684Y-86576684D01*
X154428110Y-86554997D01*
X154458264Y-86538879D01*
X154490976Y-86528955D01*
X154531138Y-86525000D01*
X155218862Y-86525000D01*
X155259024Y-86528955D01*
X155259024Y-86528955D01*
G37*
G36*
X153509024Y-86528955D02*
X153541736Y-86538879D01*
X153571890Y-86554997D01*
X153598316Y-86576684D01*
X153620003Y-86603110D01*
X153636121Y-86633264D01*
X153646045Y-86665976D01*
X153650000Y-86706138D01*
X153650000Y-87293862D01*
X153646045Y-87334024D01*
X153636121Y-87366736D01*
X153620003Y-87396890D01*
X153598316Y-87423316D01*
X153571890Y-87445003D01*
X153541736Y-87461121D01*
X153509024Y-87471045D01*
X153468862Y-87475000D01*
X152781138Y-87475000D01*
X152740976Y-87471045D01*
X152708264Y-87461121D01*
X152678110Y-87445003D01*
X152651684Y-87423316D01*
X152629997Y-87396890D01*
X152613879Y-87366736D01*
X152603955Y-87334024D01*
X152600000Y-87293862D01*
X152600000Y-86706138D01*
X152603955Y-86665976D01*
X152613879Y-86633264D01*
X152629997Y-86603110D01*
X152651684Y-86576684D01*
X152678110Y-86554997D01*
X152708264Y-86538879D01*
X152740976Y-86528955D01*
X152781138Y-86525000D01*
X153468862Y-86525000D01*
X153509024Y-86528955D01*
X153509024Y-86528955D01*
G37*
G36*
X95834024Y-86353955D02*
X95866736Y-86363879D01*
X95896890Y-86379997D01*
X95923316Y-86401684D01*
X95945003Y-86428110D01*
X95961121Y-86458264D01*
X95971045Y-86490976D01*
X95975000Y-86531138D01*
X95975000Y-87218862D01*
X95971045Y-87259024D01*
X95961121Y-87291736D01*
X95945003Y-87321890D01*
X95923316Y-87348316D01*
X95896890Y-87370003D01*
X95866736Y-87386121D01*
X95834024Y-87396045D01*
X95793862Y-87400000D01*
X95206138Y-87400000D01*
X95165976Y-87396045D01*
X95133264Y-87386121D01*
X95103110Y-87370003D01*
X95076684Y-87348316D01*
X95054997Y-87321890D01*
X95038879Y-87291736D01*
X95028955Y-87259024D01*
X95025000Y-87218862D01*
X95025000Y-86531138D01*
X95028955Y-86490976D01*
X95038879Y-86458264D01*
X95054997Y-86428110D01*
X95076684Y-86401684D01*
X95103110Y-86379997D01*
X95133264Y-86363879D01*
X95165976Y-86353955D01*
X95206138Y-86350000D01*
X95793862Y-86350000D01*
X95834024Y-86353955D01*
X95834024Y-86353955D01*
G37*
G36*
X101183043Y-84203382D02*
X101210155Y-84211607D01*
X101235154Y-84224969D01*
X101257056Y-84242944D01*
X101275031Y-84264846D01*
X101288393Y-84289845D01*
X101296618Y-84316957D01*
X101300000Y-84351300D01*
X101300000Y-87148700D01*
X101296618Y-87183043D01*
X101288393Y-87210155D01*
X101275031Y-87235154D01*
X101257056Y-87257056D01*
X101235154Y-87275031D01*
X101210155Y-87288393D01*
X101183043Y-87296618D01*
X101148700Y-87300000D01*
X98351300Y-87300000D01*
X98316957Y-87296618D01*
X98289845Y-87288393D01*
X98264846Y-87275031D01*
X98242944Y-87257056D01*
X98224969Y-87235154D01*
X98211607Y-87210155D01*
X98203382Y-87183043D01*
X98200000Y-87148700D01*
X98200000Y-84351300D01*
X98203382Y-84316957D01*
X98211607Y-84289845D01*
X98224969Y-84264846D01*
X98242944Y-84242944D01*
X98264846Y-84224969D01*
X98289845Y-84211607D01*
X98316957Y-84203382D01*
X98351300Y-84200000D01*
X101148700Y-84200000D01*
X101183043Y-84203382D01*
X101183043Y-84203382D01*
G37*
G36*
X159600000Y-87050000D02*
X158970000Y-87050000D01*
X158970000Y-86390000D01*
X159600000Y-86390000D01*
X159600000Y-87050000D01*
X159600000Y-87050000D01*
G37*
G36*
X85600000Y-86625000D02*
X80938092Y-86625000D01*
X80922835Y-86616845D01*
X80911285Y-86612712D01*
X80875025Y-86601713D01*
X80844847Y-86585582D01*
X80818566Y-86571535D01*
X80769079Y-86530921D01*
X80728465Y-86481434D01*
X80718406Y-86462614D01*
X80698285Y-86424972D01*
X80679702Y-86363712D01*
X80673428Y-86300000D01*
X80679702Y-86236288D01*
X80698285Y-86175028D01*
X80722149Y-86130382D01*
X80728465Y-86118566D01*
X80769079Y-86069079D01*
X80818566Y-86028465D01*
X80844847Y-86014418D01*
X80875025Y-85998287D01*
X80911285Y-85987288D01*
X80933924Y-85977910D01*
X80938279Y-85975000D01*
X85600000Y-85975000D01*
X85600000Y-86625000D01*
X85600000Y-86625000D01*
G37*
G36*
X104834024Y-84853955D02*
X104866736Y-84863879D01*
X104896890Y-84879997D01*
X104923316Y-84901684D01*
X104945003Y-84928110D01*
X104961121Y-84958264D01*
X104971045Y-84990976D01*
X104975000Y-85031138D01*
X104975000Y-85718862D01*
X104971045Y-85759024D01*
X104961121Y-85791736D01*
X104945003Y-85821890D01*
X104923316Y-85848316D01*
X104896890Y-85870003D01*
X104866736Y-85886121D01*
X104834024Y-85896045D01*
X104793862Y-85900000D01*
X104206138Y-85900000D01*
X104165976Y-85896045D01*
X104133264Y-85886121D01*
X104103110Y-85870003D01*
X104076684Y-85848316D01*
X104054997Y-85821890D01*
X104038879Y-85791736D01*
X104028955Y-85759024D01*
X104025000Y-85718862D01*
X104025000Y-85031138D01*
X104028955Y-84990976D01*
X104038879Y-84958264D01*
X104054997Y-84928110D01*
X104076684Y-84901684D01*
X104103110Y-84879997D01*
X104133264Y-84863879D01*
X104165976Y-84853955D01*
X104206138Y-84850000D01*
X104793862Y-84850000D01*
X104834024Y-84853955D01*
X104834024Y-84853955D01*
G37*
G36*
X95834024Y-84603955D02*
X95866736Y-84613879D01*
X95896890Y-84629997D01*
X95923316Y-84651684D01*
X95945003Y-84678110D01*
X95961121Y-84708264D01*
X95971045Y-84740976D01*
X95975000Y-84781138D01*
X95975000Y-85468862D01*
X95971045Y-85509024D01*
X95961121Y-85541736D01*
X95945003Y-85571890D01*
X95923316Y-85598316D01*
X95896890Y-85620003D01*
X95866736Y-85636121D01*
X95834024Y-85646045D01*
X95793862Y-85650000D01*
X95206138Y-85650000D01*
X95165976Y-85646045D01*
X95133264Y-85636121D01*
X95103110Y-85620003D01*
X95076684Y-85598316D01*
X95054997Y-85571890D01*
X95038879Y-85541736D01*
X95028955Y-85509024D01*
X95025000Y-85468862D01*
X95025000Y-84781138D01*
X95028955Y-84740976D01*
X95038879Y-84708264D01*
X95054997Y-84678110D01*
X95076684Y-84651684D01*
X95103110Y-84629997D01*
X95133264Y-84613879D01*
X95165976Y-84603955D01*
X95206138Y-84600000D01*
X95793862Y-84600000D01*
X95834024Y-84603955D01*
X95834024Y-84603955D01*
G37*
G36*
X85600000Y-85625000D02*
X80938092Y-85625000D01*
X80922835Y-85616845D01*
X80911285Y-85612712D01*
X80875025Y-85601713D01*
X80835223Y-85580438D01*
X80818566Y-85571535D01*
X80769079Y-85530921D01*
X80728465Y-85481434D01*
X80704982Y-85437500D01*
X80698285Y-85424972D01*
X80679702Y-85363712D01*
X80673428Y-85300000D01*
X80679702Y-85236288D01*
X80698285Y-85175028D01*
X80722149Y-85130382D01*
X80728465Y-85118566D01*
X80769079Y-85069079D01*
X80818566Y-85028465D01*
X80844847Y-85014418D01*
X80875025Y-84998287D01*
X80911285Y-84987288D01*
X80933924Y-84977910D01*
X80938279Y-84975000D01*
X85600000Y-84975000D01*
X85600000Y-85625000D01*
X85600000Y-85625000D01*
G37*
G36*
X85600000Y-84625000D02*
X80938092Y-84625000D01*
X80922835Y-84616845D01*
X80911285Y-84612712D01*
X80875025Y-84601713D01*
X80844847Y-84585582D01*
X80818566Y-84571535D01*
X80769079Y-84530921D01*
X80728465Y-84481434D01*
X80704982Y-84437500D01*
X80698285Y-84424972D01*
X80679702Y-84363712D01*
X80673428Y-84300000D01*
X80679702Y-84236288D01*
X80698285Y-84175028D01*
X80722149Y-84130382D01*
X80728465Y-84118566D01*
X80769079Y-84069079D01*
X80818566Y-84028465D01*
X80865484Y-84003387D01*
X80875025Y-83998287D01*
X80911285Y-83987288D01*
X80933924Y-83977910D01*
X80938279Y-83975000D01*
X85600000Y-83975000D01*
X85600000Y-84625000D01*
X85600000Y-84625000D01*
G37*
G36*
X157334024Y-83353955D02*
X157366736Y-83363879D01*
X157396890Y-83379997D01*
X157423316Y-83401684D01*
X157445003Y-83428110D01*
X157461121Y-83458264D01*
X157471045Y-83490976D01*
X157475000Y-83531138D01*
X157475000Y-84218862D01*
X157471045Y-84259024D01*
X157461121Y-84291736D01*
X157445003Y-84321890D01*
X157423316Y-84348316D01*
X157396890Y-84370003D01*
X157366736Y-84386121D01*
X157334024Y-84396045D01*
X157293862Y-84400000D01*
X156706138Y-84400000D01*
X156665976Y-84396045D01*
X156633264Y-84386121D01*
X156603110Y-84370003D01*
X156576684Y-84348316D01*
X156554997Y-84321890D01*
X156538879Y-84291736D01*
X156528955Y-84259024D01*
X156525000Y-84218862D01*
X156525000Y-83531138D01*
X156528955Y-83490976D01*
X156538879Y-83458264D01*
X156554997Y-83428110D01*
X156576684Y-83401684D01*
X156603110Y-83379997D01*
X156633264Y-83363879D01*
X156665976Y-83353955D01*
X156706138Y-83350000D01*
X157293862Y-83350000D01*
X157334024Y-83353955D01*
X157334024Y-83353955D01*
G37*
G36*
X155334024Y-83353955D02*
X155366736Y-83363879D01*
X155396890Y-83379997D01*
X155423316Y-83401684D01*
X155445003Y-83428110D01*
X155461121Y-83458264D01*
X155471045Y-83490976D01*
X155475000Y-83531138D01*
X155475000Y-84218862D01*
X155471045Y-84259024D01*
X155461121Y-84291736D01*
X155445003Y-84321890D01*
X155423316Y-84348316D01*
X155396890Y-84370003D01*
X155366736Y-84386121D01*
X155334024Y-84396045D01*
X155293862Y-84400000D01*
X154706138Y-84400000D01*
X154665976Y-84396045D01*
X154633264Y-84386121D01*
X154603110Y-84370003D01*
X154576684Y-84348316D01*
X154554997Y-84321890D01*
X154538879Y-84291736D01*
X154528955Y-84259024D01*
X154525000Y-84218862D01*
X154525000Y-83531138D01*
X154528955Y-83490976D01*
X154538879Y-83458264D01*
X154554997Y-83428110D01*
X154576684Y-83401684D01*
X154603110Y-83379997D01*
X154633264Y-83363879D01*
X154665976Y-83353955D01*
X154706138Y-83350000D01*
X155293862Y-83350000D01*
X155334024Y-83353955D01*
X155334024Y-83353955D01*
G37*
G36*
X153334024Y-83353955D02*
X153366736Y-83363879D01*
X153396890Y-83379997D01*
X153423316Y-83401684D01*
X153445003Y-83428110D01*
X153461121Y-83458264D01*
X153471045Y-83490976D01*
X153475000Y-83531138D01*
X153475000Y-84218862D01*
X153471045Y-84259024D01*
X153461121Y-84291736D01*
X153445003Y-84321890D01*
X153423316Y-84348316D01*
X153396890Y-84370003D01*
X153366736Y-84386121D01*
X153334024Y-84396045D01*
X153293862Y-84400000D01*
X152706138Y-84400000D01*
X152665976Y-84396045D01*
X152633264Y-84386121D01*
X152603110Y-84370003D01*
X152576684Y-84348316D01*
X152554997Y-84321890D01*
X152538879Y-84291736D01*
X152528955Y-84259024D01*
X152525000Y-84218862D01*
X152525000Y-83531138D01*
X152528955Y-83490976D01*
X152538879Y-83458264D01*
X152554997Y-83428110D01*
X152576684Y-83401684D01*
X152603110Y-83379997D01*
X152633264Y-83363879D01*
X152665976Y-83353955D01*
X152706138Y-83350000D01*
X153293862Y-83350000D01*
X153334024Y-83353955D01*
X153334024Y-83353955D01*
G37*
G36*
X104834024Y-83103955D02*
X104866736Y-83113879D01*
X104896890Y-83129997D01*
X104923316Y-83151684D01*
X104945003Y-83178110D01*
X104961121Y-83208264D01*
X104971045Y-83240976D01*
X104975000Y-83281138D01*
X104975000Y-83968862D01*
X104971045Y-84009024D01*
X104961121Y-84041736D01*
X104945003Y-84071890D01*
X104923316Y-84098316D01*
X104896890Y-84120003D01*
X104866736Y-84136121D01*
X104834024Y-84146045D01*
X104793862Y-84150000D01*
X104206138Y-84150000D01*
X104165976Y-84146045D01*
X104133264Y-84136121D01*
X104103110Y-84120003D01*
X104076684Y-84098316D01*
X104054997Y-84071890D01*
X104038879Y-84041736D01*
X104028955Y-84009024D01*
X104025000Y-83968862D01*
X104025000Y-83281138D01*
X104028955Y-83240976D01*
X104038879Y-83208264D01*
X104054997Y-83178110D01*
X104076684Y-83151684D01*
X104103110Y-83129997D01*
X104133264Y-83113879D01*
X104165976Y-83103955D01*
X104206138Y-83100000D01*
X104793862Y-83100000D01*
X104834024Y-83103955D01*
X104834024Y-83103955D01*
G37*
G36*
X98124449Y-82875551D02*
X98125602Y-82887253D01*
X98130383Y-82911287D01*
X98139760Y-82933925D01*
X98153374Y-82954300D01*
X98170702Y-82971627D01*
X98191076Y-82985241D01*
X98213715Y-82994618D01*
X98237749Y-82999398D01*
X98262253Y-82999398D01*
X98286287Y-82994617D01*
X98308925Y-82985240D01*
X98329300Y-82971626D01*
X98346627Y-82954298D01*
X98360241Y-82933924D01*
X98369618Y-82911285D01*
X98374398Y-82887253D01*
X98375551Y-82875551D01*
X98381141Y-82875000D01*
X98618859Y-82875000D01*
X98624449Y-82875551D01*
X98625602Y-82887253D01*
X98630383Y-82911287D01*
X98639760Y-82933925D01*
X98653374Y-82954300D01*
X98670702Y-82971627D01*
X98691076Y-82985241D01*
X98713715Y-82994618D01*
X98737749Y-82999398D01*
X98762253Y-82999398D01*
X98786287Y-82994617D01*
X98808925Y-82985240D01*
X98829300Y-82971626D01*
X98846627Y-82954298D01*
X98860241Y-82933924D01*
X98869618Y-82911285D01*
X98874398Y-82887253D01*
X98875551Y-82875551D01*
X98881141Y-82875000D01*
X99118859Y-82875000D01*
X99124449Y-82875551D01*
X99125602Y-82887253D01*
X99130383Y-82911287D01*
X99139760Y-82933925D01*
X99153374Y-82954300D01*
X99170702Y-82971627D01*
X99191076Y-82985241D01*
X99213715Y-82994618D01*
X99237749Y-82999398D01*
X99262253Y-82999398D01*
X99286287Y-82994617D01*
X99308925Y-82985240D01*
X99329300Y-82971626D01*
X99346627Y-82954298D01*
X99360241Y-82933924D01*
X99369618Y-82911285D01*
X99374398Y-82887253D01*
X99375551Y-82875551D01*
X99381141Y-82875000D01*
X99618859Y-82875000D01*
X99624449Y-82875551D01*
X99625602Y-82887253D01*
X99630383Y-82911287D01*
X99639760Y-82933925D01*
X99653374Y-82954300D01*
X99670702Y-82971627D01*
X99691076Y-82985241D01*
X99713715Y-82994618D01*
X99737749Y-82999398D01*
X99762253Y-82999398D01*
X99786287Y-82994617D01*
X99808925Y-82985240D01*
X99829300Y-82971626D01*
X99846627Y-82954298D01*
X99860241Y-82933924D01*
X99869618Y-82911285D01*
X99874398Y-82887253D01*
X99875551Y-82875551D01*
X99881141Y-82875000D01*
X100118859Y-82875000D01*
X100124449Y-82875551D01*
X100125602Y-82887253D01*
X100130383Y-82911287D01*
X100139760Y-82933925D01*
X100153374Y-82954300D01*
X100170702Y-82971627D01*
X100191076Y-82985241D01*
X100213715Y-82994618D01*
X100237749Y-82999398D01*
X100262253Y-82999398D01*
X100286287Y-82994617D01*
X100308925Y-82985240D01*
X100329300Y-82971626D01*
X100346627Y-82954298D01*
X100360241Y-82933924D01*
X100369618Y-82911285D01*
X100374398Y-82887253D01*
X100375551Y-82875551D01*
X100381141Y-82875000D01*
X100618859Y-82875000D01*
X100624449Y-82875551D01*
X100625602Y-82887253D01*
X100630383Y-82911287D01*
X100639760Y-82933925D01*
X100653374Y-82954300D01*
X100670702Y-82971627D01*
X100691076Y-82985241D01*
X100713715Y-82994618D01*
X100737749Y-82999398D01*
X100762253Y-82999398D01*
X100786287Y-82994617D01*
X100808925Y-82985240D01*
X100829300Y-82971626D01*
X100846627Y-82954298D01*
X100860241Y-82933924D01*
X100869618Y-82911285D01*
X100874398Y-82887253D01*
X100875551Y-82875551D01*
X100881141Y-82875000D01*
X101118859Y-82875000D01*
X101124449Y-82875551D01*
X101125602Y-82887253D01*
X101130383Y-82911287D01*
X101139760Y-82933925D01*
X101153374Y-82954300D01*
X101170702Y-82971627D01*
X101191076Y-82985241D01*
X101213715Y-82994618D01*
X101237749Y-82999398D01*
X101262253Y-82999398D01*
X101286287Y-82994617D01*
X101308925Y-82985240D01*
X101329300Y-82971626D01*
X101346627Y-82954298D01*
X101360241Y-82933924D01*
X101369618Y-82911285D01*
X101374398Y-82887253D01*
X101375551Y-82875551D01*
X101381141Y-82875000D01*
X101618859Y-82875000D01*
X101624449Y-82875551D01*
X101625000Y-82881141D01*
X101625000Y-83750000D01*
X101381141Y-83750000D01*
X101375551Y-83749449D01*
X101374398Y-83737747D01*
X101369617Y-83713713D01*
X101360240Y-83691075D01*
X101346626Y-83670700D01*
X101329298Y-83653373D01*
X101308924Y-83639759D01*
X101286285Y-83630382D01*
X101262251Y-83625602D01*
X101237747Y-83625602D01*
X101213713Y-83630383D01*
X101191075Y-83639760D01*
X101170700Y-83653374D01*
X101153373Y-83670702D01*
X101139759Y-83691076D01*
X101130382Y-83713715D01*
X101125602Y-83737747D01*
X101124449Y-83749449D01*
X101118859Y-83750000D01*
X100881141Y-83750000D01*
X100875551Y-83749449D01*
X100874398Y-83737747D01*
X100869617Y-83713713D01*
X100860240Y-83691075D01*
X100846626Y-83670700D01*
X100829298Y-83653373D01*
X100808924Y-83639759D01*
X100786285Y-83630382D01*
X100762251Y-83625602D01*
X100737747Y-83625602D01*
X100713713Y-83630383D01*
X100691075Y-83639760D01*
X100670700Y-83653374D01*
X100653373Y-83670702D01*
X100639759Y-83691076D01*
X100630382Y-83713715D01*
X100625602Y-83737747D01*
X100624449Y-83749449D01*
X100618859Y-83750000D01*
X100381141Y-83750000D01*
X100375551Y-83749449D01*
X100374398Y-83737747D01*
X100369617Y-83713713D01*
X100360240Y-83691075D01*
X100346626Y-83670700D01*
X100329298Y-83653373D01*
X100308924Y-83639759D01*
X100286285Y-83630382D01*
X100262251Y-83625602D01*
X100237747Y-83625602D01*
X100213713Y-83630383D01*
X100191075Y-83639760D01*
X100170700Y-83653374D01*
X100153373Y-83670702D01*
X100139759Y-83691076D01*
X100130382Y-83713715D01*
X100125602Y-83737747D01*
X100124449Y-83749449D01*
X100118859Y-83750000D01*
X99881141Y-83750000D01*
X99875551Y-83749449D01*
X99874398Y-83737747D01*
X99869617Y-83713713D01*
X99860240Y-83691075D01*
X99846626Y-83670700D01*
X99829298Y-83653373D01*
X99808924Y-83639759D01*
X99786285Y-83630382D01*
X99762251Y-83625602D01*
X99737747Y-83625602D01*
X99713713Y-83630383D01*
X99691075Y-83639760D01*
X99670700Y-83653374D01*
X99653373Y-83670702D01*
X99639759Y-83691076D01*
X99630382Y-83713715D01*
X99625602Y-83737747D01*
X99624449Y-83749449D01*
X99618859Y-83750000D01*
X99381141Y-83750000D01*
X99375551Y-83749449D01*
X99374398Y-83737747D01*
X99369617Y-83713713D01*
X99360240Y-83691075D01*
X99346626Y-83670700D01*
X99329298Y-83653373D01*
X99308924Y-83639759D01*
X99286285Y-83630382D01*
X99262251Y-83625602D01*
X99237747Y-83625602D01*
X99213713Y-83630383D01*
X99191075Y-83639760D01*
X99170700Y-83653374D01*
X99153373Y-83670702D01*
X99139759Y-83691076D01*
X99130382Y-83713715D01*
X99125602Y-83737747D01*
X99124449Y-83749449D01*
X99118859Y-83750000D01*
X98881141Y-83750000D01*
X98875551Y-83749449D01*
X98874398Y-83737747D01*
X98869617Y-83713713D01*
X98860240Y-83691075D01*
X98846626Y-83670700D01*
X98829298Y-83653373D01*
X98808924Y-83639759D01*
X98786285Y-83630382D01*
X98762251Y-83625602D01*
X98737747Y-83625602D01*
X98713713Y-83630383D01*
X98691075Y-83639760D01*
X98670700Y-83653374D01*
X98653373Y-83670702D01*
X98639759Y-83691076D01*
X98630382Y-83713715D01*
X98625602Y-83737747D01*
X98624449Y-83749449D01*
X98618859Y-83750000D01*
X98381141Y-83750000D01*
X98375551Y-83749449D01*
X98374398Y-83737747D01*
X98369617Y-83713713D01*
X98360240Y-83691075D01*
X98346626Y-83670700D01*
X98329298Y-83653373D01*
X98308924Y-83639759D01*
X98286285Y-83630382D01*
X98262251Y-83625602D01*
X98237747Y-83625602D01*
X98213713Y-83630383D01*
X98191075Y-83639760D01*
X98170700Y-83653374D01*
X98153373Y-83670702D01*
X98139759Y-83691076D01*
X98130382Y-83713715D01*
X98125602Y-83737747D01*
X98124449Y-83749449D01*
X98118859Y-83750000D01*
X97875000Y-83750000D01*
X97875000Y-82881141D01*
X97875551Y-82875551D01*
X97881141Y-82875000D01*
X98118859Y-82875000D01*
X98124449Y-82875551D01*
X98124449Y-82875551D01*
G37*
G36*
X157334024Y-81603955D02*
X157366736Y-81613879D01*
X157396890Y-81629997D01*
X157423316Y-81651684D01*
X157445003Y-81678110D01*
X157461121Y-81708264D01*
X157471045Y-81740976D01*
X157475000Y-81781138D01*
X157475000Y-82468862D01*
X157471045Y-82509024D01*
X157461121Y-82541736D01*
X157445003Y-82571890D01*
X157423316Y-82598316D01*
X157396890Y-82620003D01*
X157366736Y-82636121D01*
X157334024Y-82646045D01*
X157293862Y-82650000D01*
X156706138Y-82650000D01*
X156665976Y-82646045D01*
X156633264Y-82636121D01*
X156603110Y-82620003D01*
X156576684Y-82598316D01*
X156554997Y-82571890D01*
X156538879Y-82541736D01*
X156528955Y-82509024D01*
X156525000Y-82468862D01*
X156525000Y-81781138D01*
X156528955Y-81740976D01*
X156538879Y-81708264D01*
X156554997Y-81678110D01*
X156576684Y-81651684D01*
X156603110Y-81629997D01*
X156633264Y-81613879D01*
X156665976Y-81603955D01*
X156706138Y-81600000D01*
X157293862Y-81600000D01*
X157334024Y-81603955D01*
X157334024Y-81603955D01*
G37*
G36*
X155334024Y-81603955D02*
X155366736Y-81613879D01*
X155396890Y-81629997D01*
X155423316Y-81651684D01*
X155445003Y-81678110D01*
X155461121Y-81708264D01*
X155471045Y-81740976D01*
X155475000Y-81781138D01*
X155475000Y-82468862D01*
X155471045Y-82509024D01*
X155461121Y-82541736D01*
X155445003Y-82571890D01*
X155423316Y-82598316D01*
X155396890Y-82620003D01*
X155366736Y-82636121D01*
X155334024Y-82646045D01*
X155293862Y-82650000D01*
X154706138Y-82650000D01*
X154665976Y-82646045D01*
X154633264Y-82636121D01*
X154603110Y-82620003D01*
X154576684Y-82598316D01*
X154554997Y-82571890D01*
X154538879Y-82541736D01*
X154528955Y-82509024D01*
X154525000Y-82468862D01*
X154525000Y-81781138D01*
X154528955Y-81740976D01*
X154538879Y-81708264D01*
X154554997Y-81678110D01*
X154576684Y-81651684D01*
X154603110Y-81629997D01*
X154633264Y-81613879D01*
X154665976Y-81603955D01*
X154706138Y-81600000D01*
X155293862Y-81600000D01*
X155334024Y-81603955D01*
X155334024Y-81603955D01*
G37*
G36*
X153334024Y-81603955D02*
X153366736Y-81613879D01*
X153396890Y-81629997D01*
X153423316Y-81651684D01*
X153445003Y-81678110D01*
X153461121Y-81708264D01*
X153471045Y-81740976D01*
X153475000Y-81781138D01*
X153475000Y-82468862D01*
X153471045Y-82509024D01*
X153461121Y-82541736D01*
X153445003Y-82571890D01*
X153423316Y-82598316D01*
X153396890Y-82620003D01*
X153366736Y-82636121D01*
X153334024Y-82646045D01*
X153293862Y-82650000D01*
X152706138Y-82650000D01*
X152665976Y-82646045D01*
X152633264Y-82636121D01*
X152603110Y-82620003D01*
X152576684Y-82598316D01*
X152554997Y-82571890D01*
X152538879Y-82541736D01*
X152528955Y-82509024D01*
X152525000Y-82468862D01*
X152525000Y-81781138D01*
X152528955Y-81740976D01*
X152538879Y-81708264D01*
X152554997Y-81678110D01*
X152576684Y-81651684D01*
X152603110Y-81629997D01*
X152633264Y-81613879D01*
X152665976Y-81603955D01*
X152706138Y-81600000D01*
X153293862Y-81600000D01*
X153334024Y-81603955D01*
X153334024Y-81603955D01*
G37*
G36*
X115164712Y-76140565D02*
X115249295Y-76148896D01*
X115369727Y-76185429D01*
X115412088Y-76198279D01*
X115562112Y-76278468D01*
X115693612Y-76386388D01*
X115801532Y-76517888D01*
X115881721Y-76667912D01*
X115881722Y-76667916D01*
X115931104Y-76830705D01*
X115947778Y-77000000D01*
X115931104Y-77169295D01*
X115894571Y-77289727D01*
X115881721Y-77332088D01*
X115801532Y-77482112D01*
X115693612Y-77613612D01*
X115562112Y-77721532D01*
X115412088Y-77801721D01*
X115369727Y-77814571D01*
X115249295Y-77851104D01*
X115164712Y-77859435D01*
X115122421Y-77863600D01*
X115037579Y-77863600D01*
X114995288Y-77859435D01*
X114910705Y-77851104D01*
X114790273Y-77814571D01*
X114747912Y-77801721D01*
X114597888Y-77721532D01*
X114466388Y-77613612D01*
X114358468Y-77482112D01*
X114278279Y-77332088D01*
X114265429Y-77289727D01*
X114228896Y-77169295D01*
X114212222Y-77000000D01*
X114228896Y-76830705D01*
X114278278Y-76667916D01*
X114278279Y-76667912D01*
X114358468Y-76517888D01*
X114466388Y-76386388D01*
X114597888Y-76278468D01*
X114747912Y-76198279D01*
X114790273Y-76185429D01*
X114910705Y-76148896D01*
X114995288Y-76140565D01*
X115037579Y-76136400D01*
X115122421Y-76136400D01*
X115164712Y-76140565D01*
X115164712Y-76140565D01*
G37*
G36*
X112624712Y-76140565D02*
X112709295Y-76148896D01*
X112829727Y-76185429D01*
X112872088Y-76198279D01*
X113022112Y-76278468D01*
X113153612Y-76386388D01*
X113261532Y-76517888D01*
X113341721Y-76667912D01*
X113341722Y-76667916D01*
X113391104Y-76830705D01*
X113407778Y-77000000D01*
X113391104Y-77169295D01*
X113354571Y-77289727D01*
X113341721Y-77332088D01*
X113261532Y-77482112D01*
X113153612Y-77613612D01*
X113022112Y-77721532D01*
X112872088Y-77801721D01*
X112829727Y-77814571D01*
X112709295Y-77851104D01*
X112624712Y-77859435D01*
X112582421Y-77863600D01*
X112497579Y-77863600D01*
X112455288Y-77859435D01*
X112370705Y-77851104D01*
X112250273Y-77814571D01*
X112207912Y-77801721D01*
X112057888Y-77721532D01*
X111926388Y-77613612D01*
X111818468Y-77482112D01*
X111738279Y-77332088D01*
X111725429Y-77289727D01*
X111688896Y-77169295D01*
X111672222Y-77000000D01*
X111688896Y-76830705D01*
X111738278Y-76667916D01*
X111738279Y-76667912D01*
X111818468Y-76517888D01*
X111926388Y-76386388D01*
X112057888Y-76278468D01*
X112207912Y-76198279D01*
X112250273Y-76185429D01*
X112370705Y-76148896D01*
X112455288Y-76140565D01*
X112497579Y-76136400D01*
X112582421Y-76136400D01*
X112624712Y-76140565D01*
X112624712Y-76140565D01*
G37*
G36*
X110863600Y-77863600D02*
X109136400Y-77863600D01*
X109136400Y-76136400D01*
X110863600Y-76136400D01*
X110863600Y-77863600D01*
X110863600Y-77863600D01*
G37*
G36*
X155466703Y-73461486D02*
X155757883Y-73582097D01*
X156019944Y-73757201D01*
X156242799Y-73980056D01*
X156417903Y-74242117D01*
X156538514Y-74533297D01*
X156600000Y-74842412D01*
X156600000Y-75157588D01*
X156538514Y-75466703D01*
X156417903Y-75757883D01*
X156242799Y-76019944D01*
X156019944Y-76242799D01*
X155757883Y-76417903D01*
X155466703Y-76538514D01*
X155157588Y-76600000D01*
X154842412Y-76600000D01*
X154533297Y-76538514D01*
X154242117Y-76417903D01*
X153980056Y-76242799D01*
X153757201Y-76019944D01*
X153582097Y-75757883D01*
X153461486Y-75466703D01*
X153400000Y-75157588D01*
X153400000Y-74842412D01*
X153461486Y-74533297D01*
X153582097Y-74242117D01*
X153757201Y-73980056D01*
X153980056Y-73757201D01*
X154242117Y-73582097D01*
X154533297Y-73461486D01*
X154842412Y-73400000D01*
X155157588Y-73400000D01*
X155466703Y-73461486D01*
X155466703Y-73461486D01*
G37*
G36*
X115164712Y-73600565D02*
X115249295Y-73608896D01*
X115369727Y-73645429D01*
X115412088Y-73658279D01*
X115562112Y-73738468D01*
X115693612Y-73846388D01*
X115801532Y-73977888D01*
X115881721Y-74127912D01*
X115881722Y-74127916D01*
X115931104Y-74290705D01*
X115947778Y-74460000D01*
X115931104Y-74629295D01*
X115894571Y-74749727D01*
X115881721Y-74792088D01*
X115801532Y-74942112D01*
X115693612Y-75073612D01*
X115562112Y-75181532D01*
X115412088Y-75261721D01*
X115369727Y-75274571D01*
X115249295Y-75311104D01*
X115164712Y-75319435D01*
X115122421Y-75323600D01*
X115037579Y-75323600D01*
X114995288Y-75319435D01*
X114910705Y-75311104D01*
X114790273Y-75274571D01*
X114747912Y-75261721D01*
X114597888Y-75181532D01*
X114466388Y-75073612D01*
X114358468Y-74942112D01*
X114278279Y-74792088D01*
X114265429Y-74749727D01*
X114228896Y-74629295D01*
X114212222Y-74460000D01*
X114228896Y-74290705D01*
X114278278Y-74127916D01*
X114278279Y-74127912D01*
X114358468Y-73977888D01*
X114466388Y-73846388D01*
X114597888Y-73738468D01*
X114747912Y-73658279D01*
X114790273Y-73645429D01*
X114910705Y-73608896D01*
X114995288Y-73600565D01*
X115037579Y-73596400D01*
X115122421Y-73596400D01*
X115164712Y-73600565D01*
X115164712Y-73600565D01*
G37*
G36*
X110084712Y-73600565D02*
X110169295Y-73608896D01*
X110289727Y-73645429D01*
X110332088Y-73658279D01*
X110482112Y-73738468D01*
X110613612Y-73846388D01*
X110721532Y-73977888D01*
X110801721Y-74127912D01*
X110801722Y-74127916D01*
X110851104Y-74290705D01*
X110867778Y-74460000D01*
X110851104Y-74629295D01*
X110814571Y-74749727D01*
X110801721Y-74792088D01*
X110721532Y-74942112D01*
X110613612Y-75073612D01*
X110482112Y-75181532D01*
X110332088Y-75261721D01*
X110289727Y-75274571D01*
X110169295Y-75311104D01*
X110084712Y-75319435D01*
X110042421Y-75323600D01*
X109957579Y-75323600D01*
X109915288Y-75319435D01*
X109830705Y-75311104D01*
X109710273Y-75274571D01*
X109667912Y-75261721D01*
X109517888Y-75181532D01*
X109386388Y-75073612D01*
X109278468Y-74942112D01*
X109198279Y-74792088D01*
X109185429Y-74749727D01*
X109148896Y-74629295D01*
X109132222Y-74460000D01*
X109148896Y-74290705D01*
X109198278Y-74127916D01*
X109198279Y-74127912D01*
X109278468Y-73977888D01*
X109386388Y-73846388D01*
X109517888Y-73738468D01*
X109667912Y-73658279D01*
X109710273Y-73645429D01*
X109830705Y-73608896D01*
X109915288Y-73600565D01*
X109957579Y-73596400D01*
X110042421Y-73596400D01*
X110084712Y-73600565D01*
X110084712Y-73600565D01*
G37*
G36*
X112624712Y-73600565D02*
X112709295Y-73608896D01*
X112829727Y-73645429D01*
X112872088Y-73658279D01*
X113022112Y-73738468D01*
X113153612Y-73846388D01*
X113261532Y-73977888D01*
X113341721Y-74127912D01*
X113341722Y-74127916D01*
X113391104Y-74290705D01*
X113407778Y-74460000D01*
X113391104Y-74629295D01*
X113354571Y-74749727D01*
X113341721Y-74792088D01*
X113261532Y-74942112D01*
X113153612Y-75073612D01*
X113022112Y-75181532D01*
X112872088Y-75261721D01*
X112829727Y-75274571D01*
X112709295Y-75311104D01*
X112624712Y-75319435D01*
X112582421Y-75323600D01*
X112497579Y-75323600D01*
X112455288Y-75319435D01*
X112370705Y-75311104D01*
X112250273Y-75274571D01*
X112207912Y-75261721D01*
X112057888Y-75181532D01*
X111926388Y-75073612D01*
X111818468Y-74942112D01*
X111738279Y-74792088D01*
X111725429Y-74749727D01*
X111688896Y-74629295D01*
X111672222Y-74460000D01*
X111688896Y-74290705D01*
X111738278Y-74127916D01*
X111738279Y-74127912D01*
X111818468Y-73977888D01*
X111926388Y-73846388D01*
X112057888Y-73738468D01*
X112207912Y-73658279D01*
X112250273Y-73645429D01*
X112370705Y-73608896D01*
X112455288Y-73600565D01*
X112497579Y-73596400D01*
X112582421Y-73596400D01*
X112624712Y-73600565D01*
X112624712Y-73600565D01*
G37*
G36*
X123334024Y-73353955D02*
X123366736Y-73363879D01*
X123396890Y-73379997D01*
X123423316Y-73401684D01*
X123445003Y-73428110D01*
X123461121Y-73458264D01*
X123471045Y-73490976D01*
X123475000Y-73531138D01*
X123475000Y-74218862D01*
X123471045Y-74259024D01*
X123461121Y-74291736D01*
X123445003Y-74321890D01*
X123423316Y-74348316D01*
X123396890Y-74370003D01*
X123366736Y-74386121D01*
X123334024Y-74396045D01*
X123293862Y-74400000D01*
X122706138Y-74400000D01*
X122665976Y-74396045D01*
X122633264Y-74386121D01*
X122603110Y-74370003D01*
X122576684Y-74348316D01*
X122554997Y-74321890D01*
X122538879Y-74291736D01*
X122528955Y-74259024D01*
X122525000Y-74218862D01*
X122525000Y-73531138D01*
X122528955Y-73490976D01*
X122538879Y-73458264D01*
X122554997Y-73428110D01*
X122576684Y-73401684D01*
X122603110Y-73379997D01*
X122633264Y-73363879D01*
X122665976Y-73353955D01*
X122706138Y-73350000D01*
X123293862Y-73350000D01*
X123334024Y-73353955D01*
X123334024Y-73353955D01*
G37*
G36*
X139866630Y-72162299D02*
X140026855Y-72210903D01*
X140174520Y-72289831D01*
X140303949Y-72396051D01*
X140410169Y-72525480D01*
X140489097Y-72673145D01*
X140537701Y-72833370D01*
X140554112Y-73000000D01*
X140537701Y-73166630D01*
X140489097Y-73326855D01*
X140410169Y-73474520D01*
X140303949Y-73603949D01*
X140174520Y-73710169D01*
X140026855Y-73789097D01*
X139866630Y-73837701D01*
X139741752Y-73850000D01*
X139658248Y-73850000D01*
X139533370Y-73837701D01*
X139373145Y-73789097D01*
X139225480Y-73710169D01*
X139096051Y-73603949D01*
X138989831Y-73474520D01*
X138910903Y-73326855D01*
X138862299Y-73166630D01*
X138845888Y-73000000D01*
X138862299Y-72833370D01*
X138910903Y-72673145D01*
X138989831Y-72525480D01*
X139096051Y-72396051D01*
X139225480Y-72289831D01*
X139373145Y-72210903D01*
X139533370Y-72162299D01*
X139658248Y-72150000D01*
X139741752Y-72150000D01*
X139866630Y-72162299D01*
X139866630Y-72162299D01*
G37*
G36*
X127850000Y-73850000D02*
X126150000Y-73850000D01*
X126150000Y-72150000D01*
X127850000Y-72150000D01*
X127850000Y-73850000D01*
X127850000Y-73850000D01*
G37*
G36*
X129706630Y-72162299D02*
X129866855Y-72210903D01*
X130014520Y-72289831D01*
X130143949Y-72396051D01*
X130250169Y-72525480D01*
X130329097Y-72673145D01*
X130377701Y-72833370D01*
X130394112Y-73000000D01*
X130377701Y-73166630D01*
X130329097Y-73326855D01*
X130250169Y-73474520D01*
X130143949Y-73603949D01*
X130014520Y-73710169D01*
X129866855Y-73789097D01*
X129706630Y-73837701D01*
X129581752Y-73850000D01*
X129498248Y-73850000D01*
X129373370Y-73837701D01*
X129213145Y-73789097D01*
X129065480Y-73710169D01*
X128936051Y-73603949D01*
X128829831Y-73474520D01*
X128750903Y-73326855D01*
X128702299Y-73166630D01*
X128685888Y-73000000D01*
X128702299Y-72833370D01*
X128750903Y-72673145D01*
X128829831Y-72525480D01*
X128936051Y-72396051D01*
X129065480Y-72289831D01*
X129213145Y-72210903D01*
X129373370Y-72162299D01*
X129498248Y-72150000D01*
X129581752Y-72150000D01*
X129706630Y-72162299D01*
X129706630Y-72162299D01*
G37*
G36*
X132246630Y-72162299D02*
X132406855Y-72210903D01*
X132554520Y-72289831D01*
X132683949Y-72396051D01*
X132790169Y-72525480D01*
X132869097Y-72673145D01*
X132917701Y-72833370D01*
X132934112Y-73000000D01*
X132917701Y-73166630D01*
X132869097Y-73326855D01*
X132790169Y-73474520D01*
X132683949Y-73603949D01*
X132554520Y-73710169D01*
X132406855Y-73789097D01*
X132246630Y-73837701D01*
X132121752Y-73850000D01*
X132038248Y-73850000D01*
X131913370Y-73837701D01*
X131753145Y-73789097D01*
X131605480Y-73710169D01*
X131476051Y-73603949D01*
X131369831Y-73474520D01*
X131290903Y-73326855D01*
X131242299Y-73166630D01*
X131225888Y-73000000D01*
X131242299Y-72833370D01*
X131290903Y-72673145D01*
X131369831Y-72525480D01*
X131476051Y-72396051D01*
X131605480Y-72289831D01*
X131753145Y-72210903D01*
X131913370Y-72162299D01*
X132038248Y-72150000D01*
X132121752Y-72150000D01*
X132246630Y-72162299D01*
X132246630Y-72162299D01*
G37*
G36*
X134786630Y-72162299D02*
X134946855Y-72210903D01*
X135094520Y-72289831D01*
X135223949Y-72396051D01*
X135330169Y-72525480D01*
X135409097Y-72673145D01*
X135457701Y-72833370D01*
X135474112Y-73000000D01*
X135457701Y-73166630D01*
X135409097Y-73326855D01*
X135330169Y-73474520D01*
X135223949Y-73603949D01*
X135094520Y-73710169D01*
X134946855Y-73789097D01*
X134786630Y-73837701D01*
X134661752Y-73850000D01*
X134578248Y-73850000D01*
X134453370Y-73837701D01*
X134293145Y-73789097D01*
X134145480Y-73710169D01*
X134016051Y-73603949D01*
X133909831Y-73474520D01*
X133830903Y-73326855D01*
X133782299Y-73166630D01*
X133765888Y-73000000D01*
X133782299Y-72833370D01*
X133830903Y-72673145D01*
X133909831Y-72525480D01*
X134016051Y-72396051D01*
X134145480Y-72289831D01*
X134293145Y-72210903D01*
X134453370Y-72162299D01*
X134578248Y-72150000D01*
X134661752Y-72150000D01*
X134786630Y-72162299D01*
X134786630Y-72162299D01*
G37*
G36*
X137326630Y-72162299D02*
X137486855Y-72210903D01*
X137634520Y-72289831D01*
X137763949Y-72396051D01*
X137870169Y-72525480D01*
X137949097Y-72673145D01*
X137997701Y-72833370D01*
X138014112Y-73000000D01*
X137997701Y-73166630D01*
X137949097Y-73326855D01*
X137870169Y-73474520D01*
X137763949Y-73603949D01*
X137634520Y-73710169D01*
X137486855Y-73789097D01*
X137326630Y-73837701D01*
X137201752Y-73850000D01*
X137118248Y-73850000D01*
X136993370Y-73837701D01*
X136833145Y-73789097D01*
X136685480Y-73710169D01*
X136556051Y-73603949D01*
X136449831Y-73474520D01*
X136370903Y-73326855D01*
X136322299Y-73166630D01*
X136305888Y-73000000D01*
X136322299Y-72833370D01*
X136370903Y-72673145D01*
X136449831Y-72525480D01*
X136556051Y-72396051D01*
X136685480Y-72289831D01*
X136833145Y-72210903D01*
X136993370Y-72162299D01*
X137118248Y-72150000D01*
X137201752Y-72150000D01*
X137326630Y-72162299D01*
X137326630Y-72162299D01*
G37*
G36*
X123334024Y-71603955D02*
X123366736Y-71613879D01*
X123396890Y-71629997D01*
X123423316Y-71651684D01*
X123445003Y-71678110D01*
X123461121Y-71708264D01*
X123471045Y-71740976D01*
X123475000Y-71781138D01*
X123475000Y-72468862D01*
X123471045Y-72509024D01*
X123461121Y-72541736D01*
X123445003Y-72571890D01*
X123423316Y-72598316D01*
X123396890Y-72620003D01*
X123366736Y-72636121D01*
X123334024Y-72646045D01*
X123293862Y-72650000D01*
X122706138Y-72650000D01*
X122665976Y-72646045D01*
X122633264Y-72636121D01*
X122603110Y-72620003D01*
X122576684Y-72598316D01*
X122554997Y-72571890D01*
X122538879Y-72541736D01*
X122528955Y-72509024D01*
X122525000Y-72468862D01*
X122525000Y-71781138D01*
X122528955Y-71740976D01*
X122538879Y-71708264D01*
X122554997Y-71678110D01*
X122576684Y-71651684D01*
X122603110Y-71629997D01*
X122633264Y-71613879D01*
X122665976Y-71603955D01*
X122706138Y-71600000D01*
X123293862Y-71600000D01*
X123334024Y-71603955D01*
X123334024Y-71603955D01*
G37*
M02*
