G04 #@! TF.GenerationSoftware,KiCad,Pcbnew,5.0.2+dfsg1-1*
G04 #@! TF.CreationDate,2021-07-01T00:11:51-05:00*
G04 #@! TF.ProjectId,dcpsu-card-a,64637073-752d-4636-9172-642d612e6b69,v0.4-TI*
G04 #@! TF.SameCoordinates,Original*
G04 #@! TF.FileFunction,Soldermask,Top*
G04 #@! TF.FilePolarity,Negative*
%FSLAX46Y46*%
G04 Gerber Fmt 4.6, Leading zero omitted, Abs format (unit mm)*
G04 Created by KiCad (PCBNEW 5.0.2+dfsg1-1) date Thu 01 Jul 2021 12:11:51 AM CDT*
%MOMM*%
%LPD*%
G01*
G04 APERTURE LIST*
%ADD10C,0.100000*%
G04 APERTURE END LIST*
D10*
G36*
X155466703Y-123461486D02*
X155757883Y-123582097D01*
X156019944Y-123757201D01*
X156242799Y-123980056D01*
X156417903Y-124242117D01*
X156538514Y-124533297D01*
X156600000Y-124842412D01*
X156600000Y-125157588D01*
X156538514Y-125466703D01*
X156417903Y-125757883D01*
X156242799Y-126019944D01*
X156019944Y-126242799D01*
X155757883Y-126417903D01*
X155466703Y-126538514D01*
X155157588Y-126600000D01*
X154842412Y-126600000D01*
X154533297Y-126538514D01*
X154242117Y-126417903D01*
X153980056Y-126242799D01*
X153757201Y-126019944D01*
X153582097Y-125757883D01*
X153461486Y-125466703D01*
X153400000Y-125157588D01*
X153400000Y-124842412D01*
X153461486Y-124533297D01*
X153582097Y-124242117D01*
X153757201Y-123980056D01*
X153980056Y-123757201D01*
X154242117Y-123582097D01*
X154533297Y-123461486D01*
X154842412Y-123400000D01*
X155157588Y-123400000D01*
X155466703Y-123461486D01*
X155466703Y-123461486D01*
G37*
G36*
X132259024Y-125528955D02*
X132291736Y-125538879D01*
X132321890Y-125554997D01*
X132348316Y-125576684D01*
X132370003Y-125603110D01*
X132386121Y-125633264D01*
X132396045Y-125665976D01*
X132400000Y-125706138D01*
X132400000Y-126293862D01*
X132396045Y-126334024D01*
X132386121Y-126366736D01*
X132370003Y-126396890D01*
X132348316Y-126423316D01*
X132321890Y-126445003D01*
X132291736Y-126461121D01*
X132259024Y-126471045D01*
X132218862Y-126475000D01*
X131531138Y-126475000D01*
X131490976Y-126471045D01*
X131458264Y-126461121D01*
X131428110Y-126445003D01*
X131401684Y-126423316D01*
X131379997Y-126396890D01*
X131363879Y-126366736D01*
X131353955Y-126334024D01*
X131350000Y-126293862D01*
X131350000Y-125706138D01*
X131353955Y-125665976D01*
X131363879Y-125633264D01*
X131379997Y-125603110D01*
X131401684Y-125576684D01*
X131428110Y-125554997D01*
X131458264Y-125538879D01*
X131490976Y-125528955D01*
X131531138Y-125525000D01*
X132218862Y-125525000D01*
X132259024Y-125528955D01*
X132259024Y-125528955D01*
G37*
G36*
X128759024Y-125528955D02*
X128791736Y-125538879D01*
X128821890Y-125554997D01*
X128848316Y-125576684D01*
X128870003Y-125603110D01*
X128886121Y-125633264D01*
X128896045Y-125665976D01*
X128900000Y-125706138D01*
X128900000Y-126293862D01*
X128896045Y-126334024D01*
X128886121Y-126366736D01*
X128870003Y-126396890D01*
X128848316Y-126423316D01*
X128821890Y-126445003D01*
X128791736Y-126461121D01*
X128759024Y-126471045D01*
X128718862Y-126475000D01*
X128031138Y-126475000D01*
X127990976Y-126471045D01*
X127958264Y-126461121D01*
X127928110Y-126445003D01*
X127901684Y-126423316D01*
X127879997Y-126396890D01*
X127863879Y-126366736D01*
X127853955Y-126334024D01*
X127850000Y-126293862D01*
X127850000Y-125706138D01*
X127853955Y-125665976D01*
X127863879Y-125633264D01*
X127879997Y-125603110D01*
X127901684Y-125576684D01*
X127928110Y-125554997D01*
X127958264Y-125538879D01*
X127990976Y-125528955D01*
X128031138Y-125525000D01*
X128718862Y-125525000D01*
X128759024Y-125528955D01*
X128759024Y-125528955D01*
G37*
G36*
X130509024Y-125528955D02*
X130541736Y-125538879D01*
X130571890Y-125554997D01*
X130598316Y-125576684D01*
X130620003Y-125603110D01*
X130636121Y-125633264D01*
X130646045Y-125665976D01*
X130650000Y-125706138D01*
X130650000Y-126293862D01*
X130646045Y-126334024D01*
X130636121Y-126366736D01*
X130620003Y-126396890D01*
X130598316Y-126423316D01*
X130571890Y-126445003D01*
X130541736Y-126461121D01*
X130509024Y-126471045D01*
X130468862Y-126475000D01*
X129781138Y-126475000D01*
X129740976Y-126471045D01*
X129708264Y-126461121D01*
X129678110Y-126445003D01*
X129651684Y-126423316D01*
X129629997Y-126396890D01*
X129613879Y-126366736D01*
X129603955Y-126334024D01*
X129600000Y-126293862D01*
X129600000Y-125706138D01*
X129603955Y-125665976D01*
X129613879Y-125633264D01*
X129629997Y-125603110D01*
X129651684Y-125576684D01*
X129678110Y-125554997D01*
X129708264Y-125538879D01*
X129740976Y-125528955D01*
X129781138Y-125525000D01*
X130468862Y-125525000D01*
X130509024Y-125528955D01*
X130509024Y-125528955D01*
G37*
G36*
X127009024Y-125528955D02*
X127041736Y-125538879D01*
X127071890Y-125554997D01*
X127098316Y-125576684D01*
X127120003Y-125603110D01*
X127136121Y-125633264D01*
X127146045Y-125665976D01*
X127150000Y-125706138D01*
X127150000Y-126293862D01*
X127146045Y-126334024D01*
X127136121Y-126366736D01*
X127120003Y-126396890D01*
X127098316Y-126423316D01*
X127071890Y-126445003D01*
X127041736Y-126461121D01*
X127009024Y-126471045D01*
X126968862Y-126475000D01*
X126281138Y-126475000D01*
X126240976Y-126471045D01*
X126208264Y-126461121D01*
X126178110Y-126445003D01*
X126151684Y-126423316D01*
X126129997Y-126396890D01*
X126113879Y-126366736D01*
X126103955Y-126334024D01*
X126100000Y-126293862D01*
X126100000Y-125706138D01*
X126103955Y-125665976D01*
X126113879Y-125633264D01*
X126129997Y-125603110D01*
X126151684Y-125576684D01*
X126178110Y-125554997D01*
X126208264Y-125538879D01*
X126240976Y-125528955D01*
X126281138Y-125525000D01*
X126968862Y-125525000D01*
X127009024Y-125528955D01*
X127009024Y-125528955D01*
G37*
G36*
X120334024Y-125353955D02*
X120366736Y-125363879D01*
X120396890Y-125379997D01*
X120423316Y-125401684D01*
X120445003Y-125428110D01*
X120461121Y-125458264D01*
X120471045Y-125490976D01*
X120475000Y-125531138D01*
X120475000Y-126218862D01*
X120471045Y-126259024D01*
X120461121Y-126291736D01*
X120445003Y-126321890D01*
X120423316Y-126348316D01*
X120396890Y-126370003D01*
X120366736Y-126386121D01*
X120334024Y-126396045D01*
X120293862Y-126400000D01*
X119706138Y-126400000D01*
X119665976Y-126396045D01*
X119633264Y-126386121D01*
X119603110Y-126370003D01*
X119576684Y-126348316D01*
X119554997Y-126321890D01*
X119538879Y-126291736D01*
X119528955Y-126259024D01*
X119525000Y-126218862D01*
X119525000Y-125531138D01*
X119528955Y-125490976D01*
X119538879Y-125458264D01*
X119554997Y-125428110D01*
X119576684Y-125401684D01*
X119603110Y-125379997D01*
X119633264Y-125363879D01*
X119665976Y-125353955D01*
X119706138Y-125350000D01*
X120293862Y-125350000D01*
X120334024Y-125353955D01*
X120334024Y-125353955D01*
G37*
G36*
X123334024Y-125353955D02*
X123366736Y-125363879D01*
X123396890Y-125379997D01*
X123423316Y-125401684D01*
X123445003Y-125428110D01*
X123461121Y-125458264D01*
X123471045Y-125490976D01*
X123475000Y-125531138D01*
X123475000Y-126218862D01*
X123471045Y-126259024D01*
X123461121Y-126291736D01*
X123445003Y-126321890D01*
X123423316Y-126348316D01*
X123396890Y-126370003D01*
X123366736Y-126386121D01*
X123334024Y-126396045D01*
X123293862Y-126400000D01*
X122706138Y-126400000D01*
X122665976Y-126396045D01*
X122633264Y-126386121D01*
X122603110Y-126370003D01*
X122576684Y-126348316D01*
X122554997Y-126321890D01*
X122538879Y-126291736D01*
X122528955Y-126259024D01*
X122525000Y-126218862D01*
X122525000Y-125531138D01*
X122528955Y-125490976D01*
X122538879Y-125458264D01*
X122554997Y-125428110D01*
X122576684Y-125401684D01*
X122603110Y-125379997D01*
X122633264Y-125363879D01*
X122665976Y-125353955D01*
X122706138Y-125350000D01*
X123293862Y-125350000D01*
X123334024Y-125353955D01*
X123334024Y-125353955D01*
G37*
G36*
X124834024Y-125353955D02*
X124866736Y-125363879D01*
X124896890Y-125379997D01*
X124923316Y-125401684D01*
X124945003Y-125428110D01*
X124961121Y-125458264D01*
X124971045Y-125490976D01*
X124975000Y-125531138D01*
X124975000Y-126218862D01*
X124971045Y-126259024D01*
X124961121Y-126291736D01*
X124945003Y-126321890D01*
X124923316Y-126348316D01*
X124896890Y-126370003D01*
X124866736Y-126386121D01*
X124834024Y-126396045D01*
X124793862Y-126400000D01*
X124206138Y-126400000D01*
X124165976Y-126396045D01*
X124133264Y-126386121D01*
X124103110Y-126370003D01*
X124076684Y-126348316D01*
X124054997Y-126321890D01*
X124038879Y-126291736D01*
X124028955Y-126259024D01*
X124025000Y-126218862D01*
X124025000Y-125531138D01*
X124028955Y-125490976D01*
X124038879Y-125458264D01*
X124054997Y-125428110D01*
X124076684Y-125401684D01*
X124103110Y-125379997D01*
X124133264Y-125363879D01*
X124165976Y-125353955D01*
X124206138Y-125350000D01*
X124793862Y-125350000D01*
X124834024Y-125353955D01*
X124834024Y-125353955D01*
G37*
G36*
X121834024Y-125353955D02*
X121866736Y-125363879D01*
X121896890Y-125379997D01*
X121923316Y-125401684D01*
X121945003Y-125428110D01*
X121961121Y-125458264D01*
X121971045Y-125490976D01*
X121975000Y-125531138D01*
X121975000Y-126218862D01*
X121971045Y-126259024D01*
X121961121Y-126291736D01*
X121945003Y-126321890D01*
X121923316Y-126348316D01*
X121896890Y-126370003D01*
X121866736Y-126386121D01*
X121834024Y-126396045D01*
X121793862Y-126400000D01*
X121206138Y-126400000D01*
X121165976Y-126396045D01*
X121133264Y-126386121D01*
X121103110Y-126370003D01*
X121076684Y-126348316D01*
X121054997Y-126321890D01*
X121038879Y-126291736D01*
X121028955Y-126259024D01*
X121025000Y-126218862D01*
X121025000Y-125531138D01*
X121028955Y-125490976D01*
X121038879Y-125458264D01*
X121054997Y-125428110D01*
X121076684Y-125401684D01*
X121103110Y-125379997D01*
X121133264Y-125363879D01*
X121165976Y-125353955D01*
X121206138Y-125350000D01*
X121793862Y-125350000D01*
X121834024Y-125353955D01*
X121834024Y-125353955D01*
G37*
G36*
X116600000Y-125900000D02*
X115400000Y-125900000D01*
X115400000Y-124700000D01*
X116600000Y-124700000D01*
X116600000Y-125900000D01*
X116600000Y-125900000D01*
G37*
G36*
X118600000Y-125900000D02*
X117400000Y-125900000D01*
X117400000Y-124700000D01*
X118600000Y-124700000D01*
X118600000Y-125900000D01*
X118600000Y-125900000D01*
G37*
G36*
X128670000Y-124735000D02*
X128060000Y-124735000D01*
X128060000Y-122825000D01*
X128670000Y-122825000D01*
X128670000Y-124735000D01*
X128670000Y-124735000D01*
G37*
G36*
X127400000Y-124735000D02*
X126790000Y-124735000D01*
X126790000Y-122825000D01*
X127400000Y-122825000D01*
X127400000Y-124735000D01*
X127400000Y-124735000D01*
G37*
G36*
X129940000Y-124735000D02*
X129330000Y-124735000D01*
X129330000Y-122825000D01*
X129940000Y-122825000D01*
X129940000Y-124735000D01*
X129940000Y-124735000D01*
G37*
G36*
X131210000Y-124735000D02*
X130600000Y-124735000D01*
X130600000Y-122825000D01*
X131210000Y-122825000D01*
X131210000Y-124735000D01*
X131210000Y-124735000D01*
G37*
G36*
X123334024Y-123603955D02*
X123366736Y-123613879D01*
X123396890Y-123629997D01*
X123423316Y-123651684D01*
X123445003Y-123678110D01*
X123461121Y-123708264D01*
X123471045Y-123740976D01*
X123475000Y-123781138D01*
X123475000Y-124468862D01*
X123471045Y-124509024D01*
X123461121Y-124541736D01*
X123445003Y-124571890D01*
X123423316Y-124598316D01*
X123396890Y-124620003D01*
X123366736Y-124636121D01*
X123334024Y-124646045D01*
X123293862Y-124650000D01*
X122706138Y-124650000D01*
X122665976Y-124646045D01*
X122633264Y-124636121D01*
X122603110Y-124620003D01*
X122576684Y-124598316D01*
X122554997Y-124571890D01*
X122538879Y-124541736D01*
X122528955Y-124509024D01*
X122525000Y-124468862D01*
X122525000Y-123781138D01*
X122528955Y-123740976D01*
X122538879Y-123708264D01*
X122554997Y-123678110D01*
X122576684Y-123651684D01*
X122603110Y-123629997D01*
X122633264Y-123613879D01*
X122665976Y-123603955D01*
X122706138Y-123600000D01*
X123293862Y-123600000D01*
X123334024Y-123603955D01*
X123334024Y-123603955D01*
G37*
G36*
X124834024Y-123603955D02*
X124866736Y-123613879D01*
X124896890Y-123629997D01*
X124923316Y-123651684D01*
X124945003Y-123678110D01*
X124961121Y-123708264D01*
X124971045Y-123740976D01*
X124975000Y-123781138D01*
X124975000Y-124468862D01*
X124971045Y-124509024D01*
X124961121Y-124541736D01*
X124945003Y-124571890D01*
X124923316Y-124598316D01*
X124896890Y-124620003D01*
X124866736Y-124636121D01*
X124834024Y-124646045D01*
X124793862Y-124650000D01*
X124206138Y-124650000D01*
X124165976Y-124646045D01*
X124133264Y-124636121D01*
X124103110Y-124620003D01*
X124076684Y-124598316D01*
X124054997Y-124571890D01*
X124038879Y-124541736D01*
X124028955Y-124509024D01*
X124025000Y-124468862D01*
X124025000Y-123781138D01*
X124028955Y-123740976D01*
X124038879Y-123708264D01*
X124054997Y-123678110D01*
X124076684Y-123651684D01*
X124103110Y-123629997D01*
X124133264Y-123613879D01*
X124165976Y-123603955D01*
X124206138Y-123600000D01*
X124793862Y-123600000D01*
X124834024Y-123603955D01*
X124834024Y-123603955D01*
G37*
G36*
X120334024Y-123603955D02*
X120366736Y-123613879D01*
X120396890Y-123629997D01*
X120423316Y-123651684D01*
X120445003Y-123678110D01*
X120461121Y-123708264D01*
X120471045Y-123740976D01*
X120475000Y-123781138D01*
X120475000Y-124468862D01*
X120471045Y-124509024D01*
X120461121Y-124541736D01*
X120445003Y-124571890D01*
X120423316Y-124598316D01*
X120396890Y-124620003D01*
X120366736Y-124636121D01*
X120334024Y-124646045D01*
X120293862Y-124650000D01*
X119706138Y-124650000D01*
X119665976Y-124646045D01*
X119633264Y-124636121D01*
X119603110Y-124620003D01*
X119576684Y-124598316D01*
X119554997Y-124571890D01*
X119538879Y-124541736D01*
X119528955Y-124509024D01*
X119525000Y-124468862D01*
X119525000Y-123781138D01*
X119528955Y-123740976D01*
X119538879Y-123708264D01*
X119554997Y-123678110D01*
X119576684Y-123651684D01*
X119603110Y-123629997D01*
X119633264Y-123613879D01*
X119665976Y-123603955D01*
X119706138Y-123600000D01*
X120293862Y-123600000D01*
X120334024Y-123603955D01*
X120334024Y-123603955D01*
G37*
G36*
X121834024Y-123603955D02*
X121866736Y-123613879D01*
X121896890Y-123629997D01*
X121923316Y-123651684D01*
X121945003Y-123678110D01*
X121961121Y-123708264D01*
X121971045Y-123740976D01*
X121975000Y-123781138D01*
X121975000Y-124468862D01*
X121971045Y-124509024D01*
X121961121Y-124541736D01*
X121945003Y-124571890D01*
X121923316Y-124598316D01*
X121896890Y-124620003D01*
X121866736Y-124636121D01*
X121834024Y-124646045D01*
X121793862Y-124650000D01*
X121206138Y-124650000D01*
X121165976Y-124646045D01*
X121133264Y-124636121D01*
X121103110Y-124620003D01*
X121076684Y-124598316D01*
X121054997Y-124571890D01*
X121038879Y-124541736D01*
X121028955Y-124509024D01*
X121025000Y-124468862D01*
X121025000Y-123781138D01*
X121028955Y-123740976D01*
X121038879Y-123708264D01*
X121054997Y-123678110D01*
X121076684Y-123651684D01*
X121103110Y-123629997D01*
X121133264Y-123613879D01*
X121165976Y-123603955D01*
X121206138Y-123600000D01*
X121793862Y-123600000D01*
X121834024Y-123603955D01*
X121834024Y-123603955D01*
G37*
G36*
X140667000Y-123826000D02*
X135333000Y-123826000D01*
X135333000Y-121413000D01*
X140667000Y-121413000D01*
X140667000Y-123826000D01*
X140667000Y-123826000D01*
G37*
G36*
X123334024Y-121853955D02*
X123366736Y-121863879D01*
X123396890Y-121879997D01*
X123423316Y-121901684D01*
X123445003Y-121928110D01*
X123461121Y-121958264D01*
X123471045Y-121990976D01*
X123475000Y-122031138D01*
X123475000Y-122718862D01*
X123471045Y-122759024D01*
X123461121Y-122791736D01*
X123445003Y-122821890D01*
X123423316Y-122848316D01*
X123396890Y-122870003D01*
X123366736Y-122886121D01*
X123334024Y-122896045D01*
X123293862Y-122900000D01*
X122706138Y-122900000D01*
X122665976Y-122896045D01*
X122633264Y-122886121D01*
X122603110Y-122870003D01*
X122576684Y-122848316D01*
X122554997Y-122821890D01*
X122538879Y-122791736D01*
X122528955Y-122759024D01*
X122525000Y-122718862D01*
X122525000Y-122031138D01*
X122528955Y-121990976D01*
X122538879Y-121958264D01*
X122554997Y-121928110D01*
X122576684Y-121901684D01*
X122603110Y-121879997D01*
X122633264Y-121863879D01*
X122665976Y-121853955D01*
X122706138Y-121850000D01*
X123293862Y-121850000D01*
X123334024Y-121853955D01*
X123334024Y-121853955D01*
G37*
G36*
X121834024Y-121853955D02*
X121866736Y-121863879D01*
X121896890Y-121879997D01*
X121923316Y-121901684D01*
X121945003Y-121928110D01*
X121961121Y-121958264D01*
X121971045Y-121990976D01*
X121975000Y-122031138D01*
X121975000Y-122718862D01*
X121971045Y-122759024D01*
X121961121Y-122791736D01*
X121945003Y-122821890D01*
X121923316Y-122848316D01*
X121896890Y-122870003D01*
X121866736Y-122886121D01*
X121834024Y-122896045D01*
X121793862Y-122900000D01*
X121206138Y-122900000D01*
X121165976Y-122896045D01*
X121133264Y-122886121D01*
X121103110Y-122870003D01*
X121076684Y-122848316D01*
X121054997Y-122821890D01*
X121038879Y-122791736D01*
X121028955Y-122759024D01*
X121025000Y-122718862D01*
X121025000Y-122031138D01*
X121028955Y-121990976D01*
X121038879Y-121958264D01*
X121054997Y-121928110D01*
X121076684Y-121901684D01*
X121103110Y-121879997D01*
X121133264Y-121863879D01*
X121165976Y-121853955D01*
X121206138Y-121850000D01*
X121793862Y-121850000D01*
X121834024Y-121853955D01*
X121834024Y-121853955D01*
G37*
G36*
X124834024Y-121853955D02*
X124866736Y-121863879D01*
X124896890Y-121879997D01*
X124923316Y-121901684D01*
X124945003Y-121928110D01*
X124961121Y-121958264D01*
X124971045Y-121990976D01*
X124975000Y-122031138D01*
X124975000Y-122718862D01*
X124971045Y-122759024D01*
X124961121Y-122791736D01*
X124945003Y-122821890D01*
X124923316Y-122848316D01*
X124896890Y-122870003D01*
X124866736Y-122886121D01*
X124834024Y-122896045D01*
X124793862Y-122900000D01*
X124206138Y-122900000D01*
X124165976Y-122896045D01*
X124133264Y-122886121D01*
X124103110Y-122870003D01*
X124076684Y-122848316D01*
X124054997Y-122821890D01*
X124038879Y-122791736D01*
X124028955Y-122759024D01*
X124025000Y-122718862D01*
X124025000Y-122031138D01*
X124028955Y-121990976D01*
X124038879Y-121958264D01*
X124054997Y-121928110D01*
X124076684Y-121901684D01*
X124103110Y-121879997D01*
X124133264Y-121863879D01*
X124165976Y-121853955D01*
X124206138Y-121850000D01*
X124793862Y-121850000D01*
X124834024Y-121853955D01*
X124834024Y-121853955D01*
G37*
G36*
X117800000Y-122800000D02*
X116200000Y-122800000D01*
X116200000Y-121300000D01*
X117800000Y-121300000D01*
X117800000Y-122800000D01*
X117800000Y-122800000D01*
G37*
G36*
X130550000Y-122205000D02*
X127450000Y-122205000D01*
X127450000Y-119795000D01*
X130550000Y-119795000D01*
X130550000Y-122205000D01*
X130550000Y-122205000D01*
G37*
G36*
X124834024Y-120103955D02*
X124866736Y-120113879D01*
X124896890Y-120129997D01*
X124923316Y-120151684D01*
X124945003Y-120178110D01*
X124961121Y-120208264D01*
X124971045Y-120240976D01*
X124975000Y-120281138D01*
X124975000Y-120968862D01*
X124971045Y-121009024D01*
X124961121Y-121041736D01*
X124945003Y-121071890D01*
X124923316Y-121098316D01*
X124896890Y-121120003D01*
X124866736Y-121136121D01*
X124834024Y-121146045D01*
X124793862Y-121150000D01*
X124206138Y-121150000D01*
X124165976Y-121146045D01*
X124133264Y-121136121D01*
X124103110Y-121120003D01*
X124076684Y-121098316D01*
X124054997Y-121071890D01*
X124038879Y-121041736D01*
X124028955Y-121009024D01*
X124025000Y-120968862D01*
X124025000Y-120281138D01*
X124028955Y-120240976D01*
X124038879Y-120208264D01*
X124054997Y-120178110D01*
X124076684Y-120151684D01*
X124103110Y-120129997D01*
X124133264Y-120113879D01*
X124165976Y-120103955D01*
X124206138Y-120100000D01*
X124793862Y-120100000D01*
X124834024Y-120103955D01*
X124834024Y-120103955D01*
G37*
G36*
X121834024Y-120103955D02*
X121866736Y-120113879D01*
X121896890Y-120129997D01*
X121923316Y-120151684D01*
X121945003Y-120178110D01*
X121961121Y-120208264D01*
X121971045Y-120240976D01*
X121975000Y-120281138D01*
X121975000Y-120968862D01*
X121971045Y-121009024D01*
X121961121Y-121041736D01*
X121945003Y-121071890D01*
X121923316Y-121098316D01*
X121896890Y-121120003D01*
X121866736Y-121136121D01*
X121834024Y-121146045D01*
X121793862Y-121150000D01*
X121206138Y-121150000D01*
X121165976Y-121146045D01*
X121133264Y-121136121D01*
X121103110Y-121120003D01*
X121076684Y-121098316D01*
X121054997Y-121071890D01*
X121038879Y-121041736D01*
X121028955Y-121009024D01*
X121025000Y-120968862D01*
X121025000Y-120281138D01*
X121028955Y-120240976D01*
X121038879Y-120208264D01*
X121054997Y-120178110D01*
X121076684Y-120151684D01*
X121103110Y-120129997D01*
X121133264Y-120113879D01*
X121165976Y-120103955D01*
X121206138Y-120100000D01*
X121793862Y-120100000D01*
X121834024Y-120103955D01*
X121834024Y-120103955D01*
G37*
G36*
X123334024Y-120103955D02*
X123366736Y-120113879D01*
X123396890Y-120129997D01*
X123423316Y-120151684D01*
X123445003Y-120178110D01*
X123461121Y-120208264D01*
X123471045Y-120240976D01*
X123475000Y-120281138D01*
X123475000Y-120968862D01*
X123471045Y-121009024D01*
X123461121Y-121041736D01*
X123445003Y-121071890D01*
X123423316Y-121098316D01*
X123396890Y-121120003D01*
X123366736Y-121136121D01*
X123334024Y-121146045D01*
X123293862Y-121150000D01*
X122706138Y-121150000D01*
X122665976Y-121146045D01*
X122633264Y-121136121D01*
X122603110Y-121120003D01*
X122576684Y-121098316D01*
X122554997Y-121071890D01*
X122538879Y-121041736D01*
X122528955Y-121009024D01*
X122525000Y-120968862D01*
X122525000Y-120281138D01*
X122528955Y-120240976D01*
X122538879Y-120208264D01*
X122554997Y-120178110D01*
X122576684Y-120151684D01*
X122603110Y-120129997D01*
X122633264Y-120113879D01*
X122665976Y-120103955D01*
X122706138Y-120100000D01*
X123293862Y-120100000D01*
X123334024Y-120103955D01*
X123334024Y-120103955D01*
G37*
G36*
X129940000Y-119175000D02*
X129330000Y-119175000D01*
X129330000Y-117265000D01*
X129940000Y-117265000D01*
X129940000Y-119175000D01*
X129940000Y-119175000D01*
G37*
G36*
X127400000Y-119175000D02*
X126790000Y-119175000D01*
X126790000Y-117265000D01*
X127400000Y-117265000D01*
X127400000Y-119175000D01*
X127400000Y-119175000D01*
G37*
G36*
X131210000Y-119175000D02*
X130600000Y-119175000D01*
X130600000Y-117265000D01*
X131210000Y-117265000D01*
X131210000Y-119175000D01*
X131210000Y-119175000D01*
G37*
G36*
X128670000Y-119175000D02*
X128060000Y-119175000D01*
X128060000Y-117265000D01*
X128670000Y-117265000D01*
X128670000Y-119175000D01*
X128670000Y-119175000D01*
G37*
G36*
X120600000Y-118650000D02*
X117400000Y-118650000D01*
X117400000Y-113750000D01*
X120600000Y-113750000D01*
X120600000Y-118650000D01*
X120600000Y-118650000D01*
G37*
G36*
X140667000Y-116587000D02*
X135333000Y-116587000D01*
X135333000Y-114174000D01*
X140667000Y-114174000D01*
X140667000Y-116587000D01*
X140667000Y-116587000D01*
G37*
G36*
X131259024Y-115028955D02*
X131291736Y-115038879D01*
X131321890Y-115054997D01*
X131348316Y-115076684D01*
X131370003Y-115103110D01*
X131386121Y-115133264D01*
X131396045Y-115165976D01*
X131400000Y-115206138D01*
X131400000Y-115793862D01*
X131396045Y-115834024D01*
X131386121Y-115866736D01*
X131370003Y-115896890D01*
X131348316Y-115923316D01*
X131321890Y-115945003D01*
X131291736Y-115961121D01*
X131259024Y-115971045D01*
X131218862Y-115975000D01*
X130531138Y-115975000D01*
X130490976Y-115971045D01*
X130458264Y-115961121D01*
X130428110Y-115945003D01*
X130401684Y-115923316D01*
X130379997Y-115896890D01*
X130363879Y-115866736D01*
X130353955Y-115834024D01*
X130350000Y-115793862D01*
X130350000Y-115206138D01*
X130353955Y-115165976D01*
X130363879Y-115133264D01*
X130379997Y-115103110D01*
X130401684Y-115076684D01*
X130428110Y-115054997D01*
X130458264Y-115038879D01*
X130490976Y-115028955D01*
X130531138Y-115025000D01*
X131218862Y-115025000D01*
X131259024Y-115028955D01*
X131259024Y-115028955D01*
G37*
G36*
X129509024Y-115028955D02*
X129541736Y-115038879D01*
X129571890Y-115054997D01*
X129598316Y-115076684D01*
X129620003Y-115103110D01*
X129636121Y-115133264D01*
X129646045Y-115165976D01*
X129650000Y-115206138D01*
X129650000Y-115793862D01*
X129646045Y-115834024D01*
X129636121Y-115866736D01*
X129620003Y-115896890D01*
X129598316Y-115923316D01*
X129571890Y-115945003D01*
X129541736Y-115961121D01*
X129509024Y-115971045D01*
X129468862Y-115975000D01*
X128781138Y-115975000D01*
X128740976Y-115971045D01*
X128708264Y-115961121D01*
X128678110Y-115945003D01*
X128651684Y-115923316D01*
X128629997Y-115896890D01*
X128613879Y-115866736D01*
X128603955Y-115834024D01*
X128600000Y-115793862D01*
X128600000Y-115206138D01*
X128603955Y-115165976D01*
X128613879Y-115133264D01*
X128629997Y-115103110D01*
X128651684Y-115076684D01*
X128678110Y-115054997D01*
X128708264Y-115038879D01*
X128740976Y-115028955D01*
X128781138Y-115025000D01*
X129468862Y-115025000D01*
X129509024Y-115028955D01*
X129509024Y-115028955D01*
G37*
G36*
X125238964Y-114278837D02*
X125270528Y-114288412D01*
X125299617Y-114303960D01*
X125325114Y-114324886D01*
X125346040Y-114350383D01*
X125361588Y-114379472D01*
X125371163Y-114411036D01*
X125375000Y-114449998D01*
X125375000Y-115525002D01*
X125371163Y-115563964D01*
X125361588Y-115595528D01*
X125346040Y-115624617D01*
X125325114Y-115650114D01*
X125299617Y-115671040D01*
X125270528Y-115686588D01*
X125238964Y-115696163D01*
X125200002Y-115700000D01*
X123799998Y-115700000D01*
X123761036Y-115696163D01*
X123729472Y-115686588D01*
X123700383Y-115671040D01*
X123674886Y-115650114D01*
X123653960Y-115624617D01*
X123638412Y-115595528D01*
X123628837Y-115563964D01*
X123625000Y-115525002D01*
X123625000Y-114449998D01*
X123628837Y-114411036D01*
X123638412Y-114379472D01*
X123653960Y-114350383D01*
X123674886Y-114324886D01*
X123700383Y-114303960D01*
X123729472Y-114288412D01*
X123761036Y-114278837D01*
X123799998Y-114275000D01*
X125200002Y-114275000D01*
X125238964Y-114278837D01*
X125238964Y-114278837D01*
G37*
G36*
X127738964Y-114278837D02*
X127770528Y-114288412D01*
X127799617Y-114303960D01*
X127825114Y-114324886D01*
X127846040Y-114350383D01*
X127861588Y-114379472D01*
X127871163Y-114411036D01*
X127875000Y-114449998D01*
X127875000Y-115525002D01*
X127871163Y-115563964D01*
X127861588Y-115595528D01*
X127846040Y-115624617D01*
X127825114Y-115650114D01*
X127799617Y-115671040D01*
X127770528Y-115686588D01*
X127738964Y-115696163D01*
X127700002Y-115700000D01*
X126299998Y-115700000D01*
X126261036Y-115696163D01*
X126229472Y-115686588D01*
X126200383Y-115671040D01*
X126174886Y-115650114D01*
X126153960Y-115624617D01*
X126138412Y-115595528D01*
X126128837Y-115563964D01*
X126125000Y-115525002D01*
X126125000Y-114449998D01*
X126128837Y-114411036D01*
X126138412Y-114379472D01*
X126153960Y-114350383D01*
X126174886Y-114324886D01*
X126200383Y-114303960D01*
X126229472Y-114288412D01*
X126261036Y-114278837D01*
X126299998Y-114275000D01*
X127700002Y-114275000D01*
X127738964Y-114278837D01*
X127738964Y-114278837D01*
G37*
G36*
X125238964Y-111303837D02*
X125270528Y-111313412D01*
X125299617Y-111328960D01*
X125325114Y-111349886D01*
X125346040Y-111375383D01*
X125361588Y-111404472D01*
X125371163Y-111436036D01*
X125375000Y-111474998D01*
X125375000Y-112550002D01*
X125371163Y-112588964D01*
X125361588Y-112620528D01*
X125346040Y-112649617D01*
X125325114Y-112675114D01*
X125299617Y-112696040D01*
X125270528Y-112711588D01*
X125238964Y-112721163D01*
X125200002Y-112725000D01*
X123799998Y-112725000D01*
X123761036Y-112721163D01*
X123729472Y-112711588D01*
X123700383Y-112696040D01*
X123674886Y-112675114D01*
X123653960Y-112649617D01*
X123638412Y-112620528D01*
X123628837Y-112588964D01*
X123625000Y-112550002D01*
X123625000Y-111474998D01*
X123628837Y-111436036D01*
X123638412Y-111404472D01*
X123653960Y-111375383D01*
X123674886Y-111349886D01*
X123700383Y-111328960D01*
X123729472Y-111313412D01*
X123761036Y-111303837D01*
X123799998Y-111300000D01*
X125200002Y-111300000D01*
X125238964Y-111303837D01*
X125238964Y-111303837D01*
G37*
G36*
X127738964Y-111303837D02*
X127770528Y-111313412D01*
X127799617Y-111328960D01*
X127825114Y-111349886D01*
X127846040Y-111375383D01*
X127861588Y-111404472D01*
X127871163Y-111436036D01*
X127875000Y-111474998D01*
X127875000Y-112550002D01*
X127871163Y-112588964D01*
X127861588Y-112620528D01*
X127846040Y-112649617D01*
X127825114Y-112675114D01*
X127799617Y-112696040D01*
X127770528Y-112711588D01*
X127738964Y-112721163D01*
X127700002Y-112725000D01*
X126299998Y-112725000D01*
X126261036Y-112721163D01*
X126229472Y-112711588D01*
X126200383Y-112696040D01*
X126174886Y-112675114D01*
X126153960Y-112649617D01*
X126138412Y-112620528D01*
X126128837Y-112588964D01*
X126125000Y-112550002D01*
X126125000Y-111474998D01*
X126128837Y-111436036D01*
X126138412Y-111404472D01*
X126153960Y-111375383D01*
X126174886Y-111349886D01*
X126200383Y-111328960D01*
X126229472Y-111313412D01*
X126261036Y-111303837D01*
X126299998Y-111300000D01*
X127700002Y-111300000D01*
X127738964Y-111303837D01*
X127738964Y-111303837D01*
G37*
G36*
X120445000Y-112350000D02*
X119495000Y-112350000D01*
X119495000Y-111350000D01*
X120445000Y-111350000D01*
X120445000Y-112350000D01*
X120445000Y-112350000D01*
G37*
G36*
X118505000Y-112350000D02*
X117555000Y-112350000D01*
X117555000Y-111350000D01*
X118505000Y-111350000D01*
X118505000Y-112350000D01*
X118505000Y-112350000D01*
G37*
G36*
X135063964Y-110128837D02*
X135095528Y-110138412D01*
X135124617Y-110153960D01*
X135150114Y-110174886D01*
X135171040Y-110200383D01*
X135186588Y-110229472D01*
X135196163Y-110261036D01*
X135200000Y-110299998D01*
X135200000Y-111700002D01*
X135196163Y-111738964D01*
X135186588Y-111770528D01*
X135171040Y-111799617D01*
X135150114Y-111825114D01*
X135124617Y-111846040D01*
X135095528Y-111861588D01*
X135063964Y-111871163D01*
X135025002Y-111875000D01*
X133949998Y-111875000D01*
X133911036Y-111871163D01*
X133879472Y-111861588D01*
X133850383Y-111846040D01*
X133824886Y-111825114D01*
X133803960Y-111799617D01*
X133788412Y-111770528D01*
X133778837Y-111738964D01*
X133775000Y-111700002D01*
X133775000Y-110299998D01*
X133778837Y-110261036D01*
X133788412Y-110229472D01*
X133803960Y-110200383D01*
X133824886Y-110174886D01*
X133850383Y-110153960D01*
X133879472Y-110138412D01*
X133911036Y-110128837D01*
X133949998Y-110125000D01*
X135025002Y-110125000D01*
X135063964Y-110128837D01*
X135063964Y-110128837D01*
G37*
G36*
X132088964Y-110128837D02*
X132120528Y-110138412D01*
X132149617Y-110153960D01*
X132175114Y-110174886D01*
X132196040Y-110200383D01*
X132211588Y-110229472D01*
X132221163Y-110261036D01*
X132225000Y-110299998D01*
X132225000Y-111700002D01*
X132221163Y-111738964D01*
X132211588Y-111770528D01*
X132196040Y-111799617D01*
X132175114Y-111825114D01*
X132149617Y-111846040D01*
X132120528Y-111861588D01*
X132088964Y-111871163D01*
X132050002Y-111875000D01*
X130974998Y-111875000D01*
X130936036Y-111871163D01*
X130904472Y-111861588D01*
X130875383Y-111846040D01*
X130849886Y-111825114D01*
X130828960Y-111799617D01*
X130813412Y-111770528D01*
X130803837Y-111738964D01*
X130800000Y-111700002D01*
X130800000Y-110299998D01*
X130803837Y-110261036D01*
X130813412Y-110229472D01*
X130828960Y-110200383D01*
X130849886Y-110174886D01*
X130875383Y-110153960D01*
X130904472Y-110138412D01*
X130936036Y-110128837D01*
X130974998Y-110125000D01*
X132050002Y-110125000D01*
X132088964Y-110128837D01*
X132088964Y-110128837D01*
G37*
G36*
X143088964Y-109128837D02*
X143120528Y-109138412D01*
X143149617Y-109153960D01*
X143175114Y-109174886D01*
X143196040Y-109200383D01*
X143211588Y-109229472D01*
X143221163Y-109261036D01*
X143225000Y-109299998D01*
X143225000Y-110700002D01*
X143221163Y-110738964D01*
X143211588Y-110770528D01*
X143196040Y-110799617D01*
X143175114Y-110825114D01*
X143149617Y-110846040D01*
X143120528Y-110861588D01*
X143088964Y-110871163D01*
X143050002Y-110875000D01*
X141974998Y-110875000D01*
X141936036Y-110871163D01*
X141904472Y-110861588D01*
X141875383Y-110846040D01*
X141849886Y-110825114D01*
X141828960Y-110799617D01*
X141813412Y-110770528D01*
X141803837Y-110738964D01*
X141800000Y-110700002D01*
X141800000Y-109299998D01*
X141803837Y-109261036D01*
X141813412Y-109229472D01*
X141828960Y-109200383D01*
X141849886Y-109174886D01*
X141875383Y-109153960D01*
X141904472Y-109138412D01*
X141936036Y-109128837D01*
X141974998Y-109125000D01*
X143050002Y-109125000D01*
X143088964Y-109128837D01*
X143088964Y-109128837D01*
G37*
G36*
X146063964Y-109128837D02*
X146095528Y-109138412D01*
X146124617Y-109153960D01*
X146150114Y-109174886D01*
X146171040Y-109200383D01*
X146186588Y-109229472D01*
X146196163Y-109261036D01*
X146200000Y-109299998D01*
X146200000Y-110700002D01*
X146196163Y-110738964D01*
X146186588Y-110770528D01*
X146171040Y-110799617D01*
X146150114Y-110825114D01*
X146124617Y-110846040D01*
X146095528Y-110861588D01*
X146063964Y-110871163D01*
X146025002Y-110875000D01*
X144949998Y-110875000D01*
X144911036Y-110871163D01*
X144879472Y-110861588D01*
X144850383Y-110846040D01*
X144824886Y-110825114D01*
X144803960Y-110799617D01*
X144788412Y-110770528D01*
X144778837Y-110738964D01*
X144775000Y-110700002D01*
X144775000Y-109299998D01*
X144778837Y-109261036D01*
X144788412Y-109229472D01*
X144803960Y-109200383D01*
X144824886Y-109174886D01*
X144850383Y-109153960D01*
X144879472Y-109138412D01*
X144911036Y-109128837D01*
X144949998Y-109125000D01*
X146025002Y-109125000D01*
X146063964Y-109128837D01*
X146063964Y-109128837D01*
G37*
G36*
X135063964Y-107628837D02*
X135095528Y-107638412D01*
X135124617Y-107653960D01*
X135150114Y-107674886D01*
X135171040Y-107700383D01*
X135186588Y-107729472D01*
X135196163Y-107761036D01*
X135200000Y-107799998D01*
X135200000Y-109200002D01*
X135196163Y-109238964D01*
X135186588Y-109270528D01*
X135171040Y-109299617D01*
X135150114Y-109325114D01*
X135124617Y-109346040D01*
X135095528Y-109361588D01*
X135063964Y-109371163D01*
X135025002Y-109375000D01*
X133949998Y-109375000D01*
X133911036Y-109371163D01*
X133879472Y-109361588D01*
X133850383Y-109346040D01*
X133824886Y-109325114D01*
X133803960Y-109299617D01*
X133788412Y-109270528D01*
X133778837Y-109238964D01*
X133775000Y-109200002D01*
X133775000Y-107799998D01*
X133778837Y-107761036D01*
X133788412Y-107729472D01*
X133803960Y-107700383D01*
X133824886Y-107674886D01*
X133850383Y-107653960D01*
X133879472Y-107638412D01*
X133911036Y-107628837D01*
X133949998Y-107625000D01*
X135025002Y-107625000D01*
X135063964Y-107628837D01*
X135063964Y-107628837D01*
G37*
G36*
X132088964Y-107628837D02*
X132120528Y-107638412D01*
X132149617Y-107653960D01*
X132175114Y-107674886D01*
X132196040Y-107700383D01*
X132211588Y-107729472D01*
X132221163Y-107761036D01*
X132225000Y-107799998D01*
X132225000Y-109200002D01*
X132221163Y-109238964D01*
X132211588Y-109270528D01*
X132196040Y-109299617D01*
X132175114Y-109325114D01*
X132149617Y-109346040D01*
X132120528Y-109361588D01*
X132088964Y-109371163D01*
X132050002Y-109375000D01*
X130974998Y-109375000D01*
X130936036Y-109371163D01*
X130904472Y-109361588D01*
X130875383Y-109346040D01*
X130849886Y-109325114D01*
X130828960Y-109299617D01*
X130813412Y-109270528D01*
X130803837Y-109238964D01*
X130800000Y-109200002D01*
X130800000Y-107799998D01*
X130803837Y-107761036D01*
X130813412Y-107729472D01*
X130828960Y-107700383D01*
X130849886Y-107674886D01*
X130875383Y-107653960D01*
X130904472Y-107638412D01*
X130936036Y-107628837D01*
X130974998Y-107625000D01*
X132050002Y-107625000D01*
X132088964Y-107628837D01*
X132088964Y-107628837D01*
G37*
G36*
X149916630Y-106662299D02*
X150076855Y-106710903D01*
X150224520Y-106789831D01*
X150353949Y-106896051D01*
X150460169Y-107025480D01*
X150539097Y-107173145D01*
X150587701Y-107333370D01*
X150604112Y-107500000D01*
X150587701Y-107666630D01*
X150539097Y-107826855D01*
X150460169Y-107974520D01*
X150353949Y-108103949D01*
X150224520Y-108210169D01*
X150076855Y-108289097D01*
X149916630Y-108337701D01*
X149791752Y-108350000D01*
X149208248Y-108350000D01*
X149083370Y-108337701D01*
X148923145Y-108289097D01*
X148775480Y-108210169D01*
X148646051Y-108103949D01*
X148539831Y-107974520D01*
X148460903Y-107826855D01*
X148412299Y-107666630D01*
X148395888Y-107500000D01*
X148412299Y-107333370D01*
X148460903Y-107173145D01*
X148539831Y-107025480D01*
X148646051Y-106896051D01*
X148775480Y-106789831D01*
X148923145Y-106710903D01*
X149083370Y-106662299D01*
X149208248Y-106650000D01*
X149791752Y-106650000D01*
X149916630Y-106662299D01*
X149916630Y-106662299D01*
G37*
G36*
X156927934Y-106682664D02*
X157082627Y-106746740D01*
X157221847Y-106839764D01*
X157340236Y-106958153D01*
X157433260Y-107097373D01*
X157497336Y-107252066D01*
X157530000Y-107416281D01*
X157530000Y-107583719D01*
X157497336Y-107747934D01*
X157433260Y-107902627D01*
X157340236Y-108041847D01*
X157221847Y-108160236D01*
X157082627Y-108253260D01*
X156927934Y-108317336D01*
X156763719Y-108350000D01*
X156596281Y-108350000D01*
X156432066Y-108317336D01*
X156277373Y-108253260D01*
X156138153Y-108160236D01*
X156019764Y-108041847D01*
X155926740Y-107902627D01*
X155862664Y-107747934D01*
X155830000Y-107583719D01*
X155830000Y-107416281D01*
X155862664Y-107252066D01*
X155926740Y-107097373D01*
X156019764Y-106958153D01*
X156138153Y-106839764D01*
X156277373Y-106746740D01*
X156432066Y-106682664D01*
X156596281Y-106650000D01*
X156763719Y-106650000D01*
X156927934Y-106682664D01*
X156927934Y-106682664D01*
G37*
G36*
X143088964Y-106128837D02*
X143120528Y-106138412D01*
X143149617Y-106153960D01*
X143175114Y-106174886D01*
X143196040Y-106200383D01*
X143211588Y-106229472D01*
X143221163Y-106261036D01*
X143225000Y-106299998D01*
X143225000Y-107700002D01*
X143221163Y-107738964D01*
X143211588Y-107770528D01*
X143196040Y-107799617D01*
X143175114Y-107825114D01*
X143149617Y-107846040D01*
X143120528Y-107861588D01*
X143088964Y-107871163D01*
X143050002Y-107875000D01*
X141974998Y-107875000D01*
X141936036Y-107871163D01*
X141904472Y-107861588D01*
X141875383Y-107846040D01*
X141849886Y-107825114D01*
X141828960Y-107799617D01*
X141813412Y-107770528D01*
X141803837Y-107738964D01*
X141800000Y-107700002D01*
X141800000Y-106299998D01*
X141803837Y-106261036D01*
X141813412Y-106229472D01*
X141828960Y-106200383D01*
X141849886Y-106174886D01*
X141875383Y-106153960D01*
X141904472Y-106138412D01*
X141936036Y-106128837D01*
X141974998Y-106125000D01*
X143050002Y-106125000D01*
X143088964Y-106128837D01*
X143088964Y-106128837D01*
G37*
G36*
X146063964Y-106128837D02*
X146095528Y-106138412D01*
X146124617Y-106153960D01*
X146150114Y-106174886D01*
X146171040Y-106200383D01*
X146186588Y-106229472D01*
X146196163Y-106261036D01*
X146200000Y-106299998D01*
X146200000Y-107700002D01*
X146196163Y-107738964D01*
X146186588Y-107770528D01*
X146171040Y-107799617D01*
X146150114Y-107825114D01*
X146124617Y-107846040D01*
X146095528Y-107861588D01*
X146063964Y-107871163D01*
X146025002Y-107875000D01*
X144949998Y-107875000D01*
X144911036Y-107871163D01*
X144879472Y-107861588D01*
X144850383Y-107846040D01*
X144824886Y-107825114D01*
X144803960Y-107799617D01*
X144788412Y-107770528D01*
X144778837Y-107738964D01*
X144775000Y-107700002D01*
X144775000Y-106299998D01*
X144778837Y-106261036D01*
X144788412Y-106229472D01*
X144803960Y-106200383D01*
X144824886Y-106174886D01*
X144850383Y-106153960D01*
X144879472Y-106138412D01*
X144911036Y-106128837D01*
X144949998Y-106125000D01*
X146025002Y-106125000D01*
X146063964Y-106128837D01*
X146063964Y-106128837D01*
G37*
G36*
X129667826Y-103953745D02*
X129698491Y-103963048D01*
X129726750Y-103978152D01*
X129751520Y-103998480D01*
X129771848Y-104023250D01*
X129786952Y-104051509D01*
X129796255Y-104082174D01*
X129800000Y-104120202D01*
X129800000Y-107279798D01*
X129796255Y-107317826D01*
X129786952Y-107348491D01*
X129771848Y-107376750D01*
X129751520Y-107401520D01*
X129726750Y-107421848D01*
X129698491Y-107436952D01*
X129667826Y-107446255D01*
X129629798Y-107450000D01*
X128370202Y-107450000D01*
X128332174Y-107446255D01*
X128301509Y-107436952D01*
X128273250Y-107421848D01*
X128248480Y-107401520D01*
X128228152Y-107376750D01*
X128213048Y-107348491D01*
X128203745Y-107317826D01*
X128200000Y-107279798D01*
X128200000Y-104120202D01*
X128203745Y-104082174D01*
X128213048Y-104051509D01*
X128228152Y-104023250D01*
X128248480Y-103998480D01*
X128273250Y-103978152D01*
X128301509Y-103963048D01*
X128332174Y-103953745D01*
X128370202Y-103950000D01*
X129629798Y-103950000D01*
X129667826Y-103953745D01*
X129667826Y-103953745D01*
G37*
G36*
X156927934Y-104182664D02*
X157082627Y-104246740D01*
X157221847Y-104339764D01*
X157340236Y-104458153D01*
X157433260Y-104597373D01*
X157497336Y-104752066D01*
X157530000Y-104916281D01*
X157530000Y-105083719D01*
X157497336Y-105247934D01*
X157433260Y-105402627D01*
X157340236Y-105541847D01*
X157221847Y-105660236D01*
X157082627Y-105753260D01*
X156927934Y-105817336D01*
X156763719Y-105850000D01*
X156596281Y-105850000D01*
X156432066Y-105817336D01*
X156277373Y-105753260D01*
X156138153Y-105660236D01*
X156019764Y-105541847D01*
X155926740Y-105402627D01*
X155862664Y-105247934D01*
X155830000Y-105083719D01*
X155830000Y-104916281D01*
X155862664Y-104752066D01*
X155926740Y-104597373D01*
X156019764Y-104458153D01*
X156138153Y-104339764D01*
X156277373Y-104246740D01*
X156432066Y-104182664D01*
X156596281Y-104150000D01*
X156763719Y-104150000D01*
X156927934Y-104182664D01*
X156927934Y-104182664D01*
G37*
G36*
X150469675Y-104153701D02*
X150499907Y-104162872D01*
X150527769Y-104177765D01*
X150552192Y-104197808D01*
X150572235Y-104222231D01*
X150587128Y-104250093D01*
X150596299Y-104280325D01*
X150600000Y-104317905D01*
X150600000Y-105682095D01*
X150596299Y-105719675D01*
X150587128Y-105749907D01*
X150572235Y-105777769D01*
X150552192Y-105802192D01*
X150527769Y-105822235D01*
X150499907Y-105837128D01*
X150469675Y-105846299D01*
X150432095Y-105850000D01*
X148567905Y-105850000D01*
X148530325Y-105846299D01*
X148500093Y-105837128D01*
X148472231Y-105822235D01*
X148447808Y-105802192D01*
X148427765Y-105777769D01*
X148412872Y-105749907D01*
X148403701Y-105719675D01*
X148400000Y-105682095D01*
X148400000Y-104317905D01*
X148403701Y-104280325D01*
X148412872Y-104250093D01*
X148427765Y-104222231D01*
X148447808Y-104197808D01*
X148472231Y-104177765D01*
X148500093Y-104162872D01*
X148530325Y-104153701D01*
X148567905Y-104150000D01*
X150432095Y-104150000D01*
X150469675Y-104153701D01*
X150469675Y-104153701D01*
G37*
G36*
X143088964Y-103128837D02*
X143120528Y-103138412D01*
X143149617Y-103153960D01*
X143175114Y-103174886D01*
X143196040Y-103200383D01*
X143211588Y-103229472D01*
X143221163Y-103261036D01*
X143225000Y-103299998D01*
X143225000Y-104700002D01*
X143221163Y-104738964D01*
X143211588Y-104770528D01*
X143196040Y-104799617D01*
X143175114Y-104825114D01*
X143149617Y-104846040D01*
X143120528Y-104861588D01*
X143088964Y-104871163D01*
X143050002Y-104875000D01*
X141974998Y-104875000D01*
X141936036Y-104871163D01*
X141904472Y-104861588D01*
X141875383Y-104846040D01*
X141849886Y-104825114D01*
X141828960Y-104799617D01*
X141813412Y-104770528D01*
X141803837Y-104738964D01*
X141800000Y-104700002D01*
X141800000Y-103299998D01*
X141803837Y-103261036D01*
X141813412Y-103229472D01*
X141828960Y-103200383D01*
X141849886Y-103174886D01*
X141875383Y-103153960D01*
X141904472Y-103138412D01*
X141936036Y-103128837D01*
X141974998Y-103125000D01*
X143050002Y-103125000D01*
X143088964Y-103128837D01*
X143088964Y-103128837D01*
G37*
G36*
X146063964Y-103128837D02*
X146095528Y-103138412D01*
X146124617Y-103153960D01*
X146150114Y-103174886D01*
X146171040Y-103200383D01*
X146186588Y-103229472D01*
X146196163Y-103261036D01*
X146200000Y-103299998D01*
X146200000Y-104700002D01*
X146196163Y-104738964D01*
X146186588Y-104770528D01*
X146171040Y-104799617D01*
X146150114Y-104825114D01*
X146124617Y-104846040D01*
X146095528Y-104861588D01*
X146063964Y-104871163D01*
X146025002Y-104875000D01*
X144949998Y-104875000D01*
X144911036Y-104871163D01*
X144879472Y-104861588D01*
X144850383Y-104846040D01*
X144824886Y-104825114D01*
X144803960Y-104799617D01*
X144788412Y-104770528D01*
X144778837Y-104738964D01*
X144775000Y-104700002D01*
X144775000Y-103299998D01*
X144778837Y-103261036D01*
X144788412Y-103229472D01*
X144803960Y-103200383D01*
X144824886Y-103174886D01*
X144850383Y-103153960D01*
X144879472Y-103138412D01*
X144911036Y-103128837D01*
X144949998Y-103125000D01*
X146025002Y-103125000D01*
X146063964Y-103128837D01*
X146063964Y-103128837D01*
G37*
G36*
X90334024Y-103353955D02*
X90366736Y-103363879D01*
X90396890Y-103379997D01*
X90423316Y-103401684D01*
X90445003Y-103428110D01*
X90461121Y-103458264D01*
X90471045Y-103490976D01*
X90475000Y-103531138D01*
X90475000Y-104218862D01*
X90471045Y-104259024D01*
X90461121Y-104291736D01*
X90445003Y-104321890D01*
X90423316Y-104348316D01*
X90396890Y-104370003D01*
X90366736Y-104386121D01*
X90334024Y-104396045D01*
X90293862Y-104400000D01*
X89706138Y-104400000D01*
X89665976Y-104396045D01*
X89633264Y-104386121D01*
X89603110Y-104370003D01*
X89576684Y-104348316D01*
X89554997Y-104321890D01*
X89538879Y-104291736D01*
X89528955Y-104259024D01*
X89525000Y-104218862D01*
X89525000Y-103531138D01*
X89528955Y-103490976D01*
X89538879Y-103458264D01*
X89554997Y-103428110D01*
X89576684Y-103401684D01*
X89603110Y-103379997D01*
X89633264Y-103363879D01*
X89665976Y-103353955D01*
X89706138Y-103350000D01*
X90293862Y-103350000D01*
X90334024Y-103353955D01*
X90334024Y-103353955D01*
G37*
G36*
X85600000Y-103625000D02*
X82000000Y-103625000D01*
X82000000Y-102975000D01*
X85600000Y-102975000D01*
X85600000Y-103625000D01*
X85600000Y-103625000D01*
G37*
G36*
X97679695Y-102801313D02*
X97686620Y-102803414D01*
X97692997Y-102806822D01*
X97698592Y-102811414D01*
X97703374Y-102817241D01*
X97720701Y-102834568D01*
X97741076Y-102848182D01*
X97763715Y-102857560D01*
X97787748Y-102862340D01*
X97812252Y-102862340D01*
X97836286Y-102857559D01*
X97858925Y-102848182D01*
X97879299Y-102834568D01*
X97896626Y-102817241D01*
X97901408Y-102811414D01*
X97907003Y-102806822D01*
X97913380Y-102803414D01*
X97920305Y-102801313D01*
X97933638Y-102800000D01*
X98306362Y-102800000D01*
X98319695Y-102801313D01*
X98326620Y-102803414D01*
X98332997Y-102806822D01*
X98338589Y-102811411D01*
X98343178Y-102817003D01*
X98346586Y-102823380D01*
X98348687Y-102830305D01*
X98350000Y-102843638D01*
X98350000Y-103156362D01*
X98348687Y-103169695D01*
X98346586Y-103176620D01*
X98343178Y-103182997D01*
X98338589Y-103188589D01*
X98332997Y-103193178D01*
X98326620Y-103196586D01*
X98319695Y-103198687D01*
X98306362Y-103200000D01*
X97933638Y-103200000D01*
X97920305Y-103198687D01*
X97913380Y-103196586D01*
X97907003Y-103193178D01*
X97901408Y-103188586D01*
X97896626Y-103182759D01*
X97879299Y-103165432D01*
X97858924Y-103151818D01*
X97836285Y-103142440D01*
X97812252Y-103137660D01*
X97787748Y-103137660D01*
X97763714Y-103142441D01*
X97741075Y-103151818D01*
X97720701Y-103165432D01*
X97703374Y-103182759D01*
X97698592Y-103188586D01*
X97692997Y-103193178D01*
X97686620Y-103196586D01*
X97679695Y-103198687D01*
X97666362Y-103200000D01*
X97293638Y-103200000D01*
X97280305Y-103198687D01*
X97273380Y-103196586D01*
X97267003Y-103193178D01*
X97261411Y-103188589D01*
X97256822Y-103182997D01*
X97253414Y-103176620D01*
X97251313Y-103169695D01*
X97250000Y-103156362D01*
X97250000Y-102843638D01*
X97251313Y-102830305D01*
X97253414Y-102823380D01*
X97256822Y-102817003D01*
X97261411Y-102811411D01*
X97267003Y-102806822D01*
X97273380Y-102803414D01*
X97280305Y-102801313D01*
X97293638Y-102800000D01*
X97666362Y-102800000D01*
X97679695Y-102801313D01*
X97679695Y-102801313D01*
G37*
G36*
X90334024Y-101603955D02*
X90366736Y-101613879D01*
X90396890Y-101629997D01*
X90423316Y-101651684D01*
X90445003Y-101678110D01*
X90461121Y-101708264D01*
X90471045Y-101740976D01*
X90475000Y-101781138D01*
X90475000Y-102468862D01*
X90471045Y-102509024D01*
X90461121Y-102541736D01*
X90445003Y-102571890D01*
X90423316Y-102598316D01*
X90396890Y-102620003D01*
X90366736Y-102636121D01*
X90334024Y-102646045D01*
X90293862Y-102650000D01*
X89706138Y-102650000D01*
X89665976Y-102646045D01*
X89633264Y-102636121D01*
X89603110Y-102620003D01*
X89576684Y-102598316D01*
X89554997Y-102571890D01*
X89538879Y-102541736D01*
X89528955Y-102509024D01*
X89525000Y-102468862D01*
X89525000Y-101781138D01*
X89528955Y-101740976D01*
X89538879Y-101708264D01*
X89554997Y-101678110D01*
X89576684Y-101651684D01*
X89603110Y-101629997D01*
X89633264Y-101613879D01*
X89665976Y-101603955D01*
X89706138Y-101600000D01*
X90293862Y-101600000D01*
X90334024Y-101603955D01*
X90334024Y-101603955D01*
G37*
G36*
X85600000Y-102625000D02*
X80938092Y-102625000D01*
X80922835Y-102616845D01*
X80911285Y-102612712D01*
X80875025Y-102601713D01*
X80835223Y-102580438D01*
X80818566Y-102571535D01*
X80769079Y-102530921D01*
X80728465Y-102481434D01*
X80715363Y-102456921D01*
X80698285Y-102424972D01*
X80679702Y-102363712D01*
X80673428Y-102300000D01*
X80679702Y-102236288D01*
X80698285Y-102175028D01*
X80728466Y-102118565D01*
X80769079Y-102069079D01*
X80792326Y-102050000D01*
X80818566Y-102028465D01*
X80844847Y-102014418D01*
X80875025Y-101998287D01*
X80911285Y-101987288D01*
X80933924Y-101977910D01*
X80938279Y-101975000D01*
X85600000Y-101975000D01*
X85600000Y-102625000D01*
X85600000Y-102625000D01*
G37*
G36*
X114759024Y-101528955D02*
X114791736Y-101538879D01*
X114821890Y-101554997D01*
X114848316Y-101576684D01*
X114870003Y-101603110D01*
X114886121Y-101633264D01*
X114896045Y-101665976D01*
X114900000Y-101706138D01*
X114900000Y-102293862D01*
X114896045Y-102334024D01*
X114886121Y-102366736D01*
X114870003Y-102396890D01*
X114848316Y-102423316D01*
X114821890Y-102445003D01*
X114791736Y-102461121D01*
X114759024Y-102471045D01*
X114718862Y-102475000D01*
X114031138Y-102475000D01*
X113990976Y-102471045D01*
X113958264Y-102461121D01*
X113928110Y-102445003D01*
X113901684Y-102423316D01*
X113879997Y-102396890D01*
X113863879Y-102366736D01*
X113853955Y-102334024D01*
X113850000Y-102293862D01*
X113850000Y-101706138D01*
X113853955Y-101665976D01*
X113863879Y-101633264D01*
X113879997Y-101603110D01*
X113901684Y-101576684D01*
X113928110Y-101554997D01*
X113958264Y-101538879D01*
X113990976Y-101528955D01*
X114031138Y-101525000D01*
X114718862Y-101525000D01*
X114759024Y-101528955D01*
X114759024Y-101528955D01*
G37*
G36*
X113009024Y-101528955D02*
X113041736Y-101538879D01*
X113071890Y-101554997D01*
X113098316Y-101576684D01*
X113120003Y-101603110D01*
X113136121Y-101633264D01*
X113146045Y-101665976D01*
X113150000Y-101706138D01*
X113150000Y-102293862D01*
X113146045Y-102334024D01*
X113136121Y-102366736D01*
X113120003Y-102396890D01*
X113098316Y-102423316D01*
X113071890Y-102445003D01*
X113041736Y-102461121D01*
X113009024Y-102471045D01*
X112968862Y-102475000D01*
X112281138Y-102475000D01*
X112240976Y-102471045D01*
X112208264Y-102461121D01*
X112178110Y-102445003D01*
X112151684Y-102423316D01*
X112129997Y-102396890D01*
X112113879Y-102366736D01*
X112103955Y-102334024D01*
X112100000Y-102293862D01*
X112100000Y-101706138D01*
X112103955Y-101665976D01*
X112113879Y-101633264D01*
X112129997Y-101603110D01*
X112151684Y-101576684D01*
X112178110Y-101554997D01*
X112208264Y-101538879D01*
X112240976Y-101528955D01*
X112281138Y-101525000D01*
X112968862Y-101525000D01*
X113009024Y-101528955D01*
X113009024Y-101528955D01*
G37*
G36*
X129667826Y-98553745D02*
X129698491Y-98563048D01*
X129726750Y-98578152D01*
X129751520Y-98598480D01*
X129771848Y-98623250D01*
X129786952Y-98651509D01*
X129796255Y-98682174D01*
X129800000Y-98720202D01*
X129800000Y-101879798D01*
X129796255Y-101917826D01*
X129786952Y-101948491D01*
X129771848Y-101976750D01*
X129751520Y-102001520D01*
X129726750Y-102021848D01*
X129698491Y-102036952D01*
X129667826Y-102046255D01*
X129629798Y-102050000D01*
X128370202Y-102050000D01*
X128332174Y-102046255D01*
X128301509Y-102036952D01*
X128273250Y-102021848D01*
X128248480Y-102001520D01*
X128228152Y-101976750D01*
X128213048Y-101948491D01*
X128203745Y-101917826D01*
X128200000Y-101879798D01*
X128200000Y-98720202D01*
X128203745Y-98682174D01*
X128213048Y-98651509D01*
X128228152Y-98623250D01*
X128248480Y-98598480D01*
X128273250Y-98578152D01*
X128301509Y-98563048D01*
X128332174Y-98553745D01*
X128370202Y-98550000D01*
X129629798Y-98550000D01*
X129667826Y-98553745D01*
X129667826Y-98553745D01*
G37*
G36*
X145334024Y-100853955D02*
X145366736Y-100863879D01*
X145396890Y-100879997D01*
X145423316Y-100901684D01*
X145445003Y-100928110D01*
X145461121Y-100958264D01*
X145471045Y-100990976D01*
X145475000Y-101031138D01*
X145475000Y-101718862D01*
X145471045Y-101759024D01*
X145461121Y-101791736D01*
X145445003Y-101821890D01*
X145423316Y-101848316D01*
X145396890Y-101870003D01*
X145366736Y-101886121D01*
X145334024Y-101896045D01*
X145293862Y-101900000D01*
X144706138Y-101900000D01*
X144665976Y-101896045D01*
X144633264Y-101886121D01*
X144603110Y-101870003D01*
X144576684Y-101848316D01*
X144554997Y-101821890D01*
X144538879Y-101791736D01*
X144528955Y-101759024D01*
X144525000Y-101718862D01*
X144525000Y-101031138D01*
X144528955Y-100990976D01*
X144538879Y-100958264D01*
X144554997Y-100928110D01*
X144576684Y-100901684D01*
X144603110Y-100879997D01*
X144633264Y-100863879D01*
X144665976Y-100853955D01*
X144706138Y-100850000D01*
X145293862Y-100850000D01*
X145334024Y-100853955D01*
X145334024Y-100853955D01*
G37*
G36*
X143334024Y-100853955D02*
X143366736Y-100863879D01*
X143396890Y-100879997D01*
X143423316Y-100901684D01*
X143445003Y-100928110D01*
X143461121Y-100958264D01*
X143471045Y-100990976D01*
X143475000Y-101031138D01*
X143475000Y-101718862D01*
X143471045Y-101759024D01*
X143461121Y-101791736D01*
X143445003Y-101821890D01*
X143423316Y-101848316D01*
X143396890Y-101870003D01*
X143366736Y-101886121D01*
X143334024Y-101896045D01*
X143293862Y-101900000D01*
X142706138Y-101900000D01*
X142665976Y-101896045D01*
X142633264Y-101886121D01*
X142603110Y-101870003D01*
X142576684Y-101848316D01*
X142554997Y-101821890D01*
X142538879Y-101791736D01*
X142528955Y-101759024D01*
X142525000Y-101718862D01*
X142525000Y-101031138D01*
X142528955Y-100990976D01*
X142538879Y-100958264D01*
X142554997Y-100928110D01*
X142576684Y-100901684D01*
X142603110Y-100879997D01*
X142633264Y-100863879D01*
X142665976Y-100853955D01*
X142706138Y-100850000D01*
X143293862Y-100850000D01*
X143334024Y-100853955D01*
X143334024Y-100853955D01*
G37*
G36*
X85600000Y-101625000D02*
X82000000Y-101625000D01*
X82000000Y-100975000D01*
X85600000Y-100975000D01*
X85600000Y-101625000D01*
X85600000Y-101625000D01*
G37*
G36*
X153250000Y-101600000D02*
X148350000Y-101600000D01*
X148350000Y-98400000D01*
X153250000Y-98400000D01*
X153250000Y-101600000D01*
X153250000Y-101600000D01*
G37*
G36*
X155650000Y-101445000D02*
X154650000Y-101445000D01*
X154650000Y-100495000D01*
X155650000Y-100495000D01*
X155650000Y-101445000D01*
X155650000Y-101445000D01*
G37*
G36*
X85600000Y-100625000D02*
X82000000Y-100625000D01*
X82000000Y-99975000D01*
X85600000Y-99975000D01*
X85600000Y-100625000D01*
X85600000Y-100625000D01*
G37*
G36*
X96250000Y-100600000D02*
X91350000Y-100600000D01*
X91350000Y-97400000D01*
X96250000Y-97400000D01*
X96250000Y-100600000D01*
X96250000Y-100600000D01*
G37*
G36*
X98650000Y-100445000D02*
X97650000Y-100445000D01*
X97650000Y-99495000D01*
X98650000Y-99495000D01*
X98650000Y-100445000D01*
X98650000Y-100445000D01*
G37*
G36*
X143334024Y-99103955D02*
X143366736Y-99113879D01*
X143396890Y-99129997D01*
X143423316Y-99151684D01*
X143445003Y-99178110D01*
X143461121Y-99208264D01*
X143471045Y-99240976D01*
X143475000Y-99281138D01*
X143475000Y-99968862D01*
X143471045Y-100009024D01*
X143461121Y-100041736D01*
X143445003Y-100071890D01*
X143423316Y-100098316D01*
X143396890Y-100120003D01*
X143366736Y-100136121D01*
X143334024Y-100146045D01*
X143293862Y-100150000D01*
X142706138Y-100150000D01*
X142665976Y-100146045D01*
X142633264Y-100136121D01*
X142603110Y-100120003D01*
X142576684Y-100098316D01*
X142554997Y-100071890D01*
X142538879Y-100041736D01*
X142528955Y-100009024D01*
X142525000Y-99968862D01*
X142525000Y-99281138D01*
X142528955Y-99240976D01*
X142538879Y-99208264D01*
X142554997Y-99178110D01*
X142576684Y-99151684D01*
X142603110Y-99129997D01*
X142633264Y-99113879D01*
X142665976Y-99103955D01*
X142706138Y-99100000D01*
X143293862Y-99100000D01*
X143334024Y-99103955D01*
X143334024Y-99103955D01*
G37*
G36*
X145334024Y-99103955D02*
X145366736Y-99113879D01*
X145396890Y-99129997D01*
X145423316Y-99151684D01*
X145445003Y-99178110D01*
X145461121Y-99208264D01*
X145471045Y-99240976D01*
X145475000Y-99281138D01*
X145475000Y-99968862D01*
X145471045Y-100009024D01*
X145461121Y-100041736D01*
X145445003Y-100071890D01*
X145423316Y-100098316D01*
X145396890Y-100120003D01*
X145366736Y-100136121D01*
X145334024Y-100146045D01*
X145293862Y-100150000D01*
X144706138Y-100150000D01*
X144665976Y-100146045D01*
X144633264Y-100136121D01*
X144603110Y-100120003D01*
X144576684Y-100098316D01*
X144554997Y-100071890D01*
X144538879Y-100041736D01*
X144528955Y-100009024D01*
X144525000Y-99968862D01*
X144525000Y-99281138D01*
X144528955Y-99240976D01*
X144538879Y-99208264D01*
X144554997Y-99178110D01*
X144576684Y-99151684D01*
X144603110Y-99129997D01*
X144633264Y-99113879D01*
X144665976Y-99103955D01*
X144706138Y-99100000D01*
X145293862Y-99100000D01*
X145334024Y-99103955D01*
X145334024Y-99103955D01*
G37*
G36*
X85600000Y-99625000D02*
X82000000Y-99625000D01*
X82000000Y-98975000D01*
X85600000Y-98975000D01*
X85600000Y-99625000D01*
X85600000Y-99625000D01*
G37*
G36*
X155650000Y-99505000D02*
X154650000Y-99505000D01*
X154650000Y-98555000D01*
X155650000Y-98555000D01*
X155650000Y-99505000D01*
X155650000Y-99505000D01*
G37*
G36*
X85600000Y-98625000D02*
X82000000Y-98625000D01*
X82000000Y-97975000D01*
X85600000Y-97975000D01*
X85600000Y-98625000D01*
X85600000Y-98625000D01*
G37*
G36*
X98650000Y-98505000D02*
X97650000Y-98505000D01*
X97650000Y-97555000D01*
X98650000Y-97555000D01*
X98650000Y-98505000D01*
X98650000Y-98505000D01*
G37*
G36*
X145259024Y-97528955D02*
X145291736Y-97538879D01*
X145321890Y-97554997D01*
X145348316Y-97576684D01*
X145370003Y-97603110D01*
X145386121Y-97633264D01*
X145396045Y-97665976D01*
X145400000Y-97706138D01*
X145400000Y-98293862D01*
X145396045Y-98334024D01*
X145386121Y-98366736D01*
X145370003Y-98396890D01*
X145348316Y-98423316D01*
X145321890Y-98445003D01*
X145291736Y-98461121D01*
X145259024Y-98471045D01*
X145218862Y-98475000D01*
X144531138Y-98475000D01*
X144490976Y-98471045D01*
X144458264Y-98461121D01*
X144428110Y-98445003D01*
X144401684Y-98423316D01*
X144379997Y-98396890D01*
X144363879Y-98366736D01*
X144353955Y-98334024D01*
X144350000Y-98293862D01*
X144350000Y-97706138D01*
X144353955Y-97665976D01*
X144363879Y-97633264D01*
X144379997Y-97603110D01*
X144401684Y-97576684D01*
X144428110Y-97554997D01*
X144458264Y-97538879D01*
X144490976Y-97528955D01*
X144531138Y-97525000D01*
X145218862Y-97525000D01*
X145259024Y-97528955D01*
X145259024Y-97528955D01*
G37*
G36*
X143509024Y-97528955D02*
X143541736Y-97538879D01*
X143571890Y-97554997D01*
X143598316Y-97576684D01*
X143620003Y-97603110D01*
X143636121Y-97633264D01*
X143646045Y-97665976D01*
X143650000Y-97706138D01*
X143650000Y-98293862D01*
X143646045Y-98334024D01*
X143636121Y-98366736D01*
X143620003Y-98396890D01*
X143598316Y-98423316D01*
X143571890Y-98445003D01*
X143541736Y-98461121D01*
X143509024Y-98471045D01*
X143468862Y-98475000D01*
X142781138Y-98475000D01*
X142740976Y-98471045D01*
X142708264Y-98461121D01*
X142678110Y-98445003D01*
X142651684Y-98423316D01*
X142629997Y-98396890D01*
X142613879Y-98366736D01*
X142603955Y-98334024D01*
X142600000Y-98293862D01*
X142600000Y-97706138D01*
X142603955Y-97665976D01*
X142613879Y-97633264D01*
X142629997Y-97603110D01*
X142651684Y-97576684D01*
X142678110Y-97554997D01*
X142708264Y-97538879D01*
X142740976Y-97528955D01*
X142781138Y-97525000D01*
X143468862Y-97525000D01*
X143509024Y-97528955D01*
X143509024Y-97528955D01*
G37*
G36*
X114834024Y-96853955D02*
X114866736Y-96863879D01*
X114896890Y-96879997D01*
X114923316Y-96901684D01*
X114945003Y-96928110D01*
X114961121Y-96958264D01*
X114971045Y-96990976D01*
X114975000Y-97031138D01*
X114975000Y-97718862D01*
X114971045Y-97759024D01*
X114961121Y-97791736D01*
X114945003Y-97821890D01*
X114923316Y-97848316D01*
X114896890Y-97870003D01*
X114866736Y-97886121D01*
X114834024Y-97896045D01*
X114793862Y-97900000D01*
X114206138Y-97900000D01*
X114165976Y-97896045D01*
X114133264Y-97886121D01*
X114103110Y-97870003D01*
X114076684Y-97848316D01*
X114054997Y-97821890D01*
X114038879Y-97791736D01*
X114028955Y-97759024D01*
X114025000Y-97718862D01*
X114025000Y-97031138D01*
X114028955Y-96990976D01*
X114038879Y-96958264D01*
X114054997Y-96928110D01*
X114076684Y-96901684D01*
X114103110Y-96879997D01*
X114133264Y-96863879D01*
X114165976Y-96853955D01*
X114206138Y-96850000D01*
X114793862Y-96850000D01*
X114834024Y-96853955D01*
X114834024Y-96853955D01*
G37*
G36*
X112834024Y-96853955D02*
X112866736Y-96863879D01*
X112896890Y-96879997D01*
X112923316Y-96901684D01*
X112945003Y-96928110D01*
X112961121Y-96958264D01*
X112971045Y-96990976D01*
X112975000Y-97031138D01*
X112975000Y-97718862D01*
X112971045Y-97759024D01*
X112961121Y-97791736D01*
X112945003Y-97821890D01*
X112923316Y-97848316D01*
X112896890Y-97870003D01*
X112866736Y-97886121D01*
X112834024Y-97896045D01*
X112793862Y-97900000D01*
X112206138Y-97900000D01*
X112165976Y-97896045D01*
X112133264Y-97886121D01*
X112103110Y-97870003D01*
X112076684Y-97848316D01*
X112054997Y-97821890D01*
X112038879Y-97791736D01*
X112028955Y-97759024D01*
X112025000Y-97718862D01*
X112025000Y-97031138D01*
X112028955Y-96990976D01*
X112038879Y-96958264D01*
X112054997Y-96928110D01*
X112076684Y-96901684D01*
X112103110Y-96879997D01*
X112133264Y-96863879D01*
X112165976Y-96853955D01*
X112206138Y-96850000D01*
X112793862Y-96850000D01*
X112834024Y-96853955D01*
X112834024Y-96853955D01*
G37*
G36*
X85600000Y-97625000D02*
X82000000Y-97625000D01*
X82000000Y-96975000D01*
X85600000Y-96975000D01*
X85600000Y-97625000D01*
X85600000Y-97625000D01*
G37*
G36*
X85600000Y-96625000D02*
X82000000Y-96625000D01*
X82000000Y-95975000D01*
X85600000Y-95975000D01*
X85600000Y-96625000D01*
X85600000Y-96625000D01*
G37*
G36*
X123259024Y-95528955D02*
X123291736Y-95538879D01*
X123321890Y-95554997D01*
X123348316Y-95576684D01*
X123370003Y-95603110D01*
X123386121Y-95633264D01*
X123396045Y-95665976D01*
X123400000Y-95706138D01*
X123400000Y-96293862D01*
X123396045Y-96334024D01*
X123386121Y-96366736D01*
X123370003Y-96396890D01*
X123348316Y-96423316D01*
X123321890Y-96445003D01*
X123291736Y-96461121D01*
X123259024Y-96471045D01*
X123218862Y-96475000D01*
X122531138Y-96475000D01*
X122490976Y-96471045D01*
X122458264Y-96461121D01*
X122428110Y-96445003D01*
X122401684Y-96423316D01*
X122379997Y-96396890D01*
X122363879Y-96366736D01*
X122353955Y-96334024D01*
X122350000Y-96293862D01*
X122350000Y-95706138D01*
X122353955Y-95665976D01*
X122363879Y-95633264D01*
X122379997Y-95603110D01*
X122401684Y-95576684D01*
X122428110Y-95554997D01*
X122458264Y-95538879D01*
X122490976Y-95528955D01*
X122531138Y-95525000D01*
X123218862Y-95525000D01*
X123259024Y-95528955D01*
X123259024Y-95528955D01*
G37*
G36*
X121509024Y-95528955D02*
X121541736Y-95538879D01*
X121571890Y-95554997D01*
X121598316Y-95576684D01*
X121620003Y-95603110D01*
X121636121Y-95633264D01*
X121646045Y-95665976D01*
X121650000Y-95706138D01*
X121650000Y-96293862D01*
X121646045Y-96334024D01*
X121636121Y-96366736D01*
X121620003Y-96396890D01*
X121598316Y-96423316D01*
X121571890Y-96445003D01*
X121541736Y-96461121D01*
X121509024Y-96471045D01*
X121468862Y-96475000D01*
X120781138Y-96475000D01*
X120740976Y-96471045D01*
X120708264Y-96461121D01*
X120678110Y-96445003D01*
X120651684Y-96423316D01*
X120629997Y-96396890D01*
X120613879Y-96366736D01*
X120603955Y-96334024D01*
X120600000Y-96293862D01*
X120600000Y-95706138D01*
X120603955Y-95665976D01*
X120613879Y-95633264D01*
X120629997Y-95603110D01*
X120651684Y-95576684D01*
X120678110Y-95554997D01*
X120708264Y-95538879D01*
X120740976Y-95528955D01*
X120781138Y-95525000D01*
X121468862Y-95525000D01*
X121509024Y-95528955D01*
X121509024Y-95528955D01*
G37*
G36*
X119259024Y-95528955D02*
X119291736Y-95538879D01*
X119321890Y-95554997D01*
X119348316Y-95576684D01*
X119370003Y-95603110D01*
X119386121Y-95633264D01*
X119396045Y-95665976D01*
X119400000Y-95706138D01*
X119400000Y-96293862D01*
X119396045Y-96334024D01*
X119386121Y-96366736D01*
X119370003Y-96396890D01*
X119348316Y-96423316D01*
X119321890Y-96445003D01*
X119291736Y-96461121D01*
X119259024Y-96471045D01*
X119218862Y-96475000D01*
X118531138Y-96475000D01*
X118490976Y-96471045D01*
X118458264Y-96461121D01*
X118428110Y-96445003D01*
X118401684Y-96423316D01*
X118379997Y-96396890D01*
X118363879Y-96366736D01*
X118353955Y-96334024D01*
X118350000Y-96293862D01*
X118350000Y-95706138D01*
X118353955Y-95665976D01*
X118363879Y-95633264D01*
X118379997Y-95603110D01*
X118401684Y-95576684D01*
X118428110Y-95554997D01*
X118458264Y-95538879D01*
X118490976Y-95528955D01*
X118531138Y-95525000D01*
X119218862Y-95525000D01*
X119259024Y-95528955D01*
X119259024Y-95528955D01*
G37*
G36*
X117509024Y-95528955D02*
X117541736Y-95538879D01*
X117571890Y-95554997D01*
X117598316Y-95576684D01*
X117620003Y-95603110D01*
X117636121Y-95633264D01*
X117646045Y-95665976D01*
X117650000Y-95706138D01*
X117650000Y-96293862D01*
X117646045Y-96334024D01*
X117636121Y-96366736D01*
X117620003Y-96396890D01*
X117598316Y-96423316D01*
X117571890Y-96445003D01*
X117541736Y-96461121D01*
X117509024Y-96471045D01*
X117468862Y-96475000D01*
X116781138Y-96475000D01*
X116740976Y-96471045D01*
X116708264Y-96461121D01*
X116678110Y-96445003D01*
X116651684Y-96423316D01*
X116629997Y-96396890D01*
X116613879Y-96366736D01*
X116603955Y-96334024D01*
X116600000Y-96293862D01*
X116600000Y-95706138D01*
X116603955Y-95665976D01*
X116613879Y-95633264D01*
X116629997Y-95603110D01*
X116651684Y-95576684D01*
X116678110Y-95554997D01*
X116708264Y-95538879D01*
X116740976Y-95528955D01*
X116781138Y-95525000D01*
X117468862Y-95525000D01*
X117509024Y-95528955D01*
X117509024Y-95528955D01*
G37*
G36*
X151334024Y-95353955D02*
X151366736Y-95363879D01*
X151396890Y-95379997D01*
X151423316Y-95401684D01*
X151445003Y-95428110D01*
X151461121Y-95458264D01*
X151471045Y-95490976D01*
X151475000Y-95531138D01*
X151475000Y-96218862D01*
X151471045Y-96259024D01*
X151461121Y-96291736D01*
X151445003Y-96321890D01*
X151423316Y-96348316D01*
X151396890Y-96370003D01*
X151366736Y-96386121D01*
X151334024Y-96396045D01*
X151293862Y-96400000D01*
X150706138Y-96400000D01*
X150665976Y-96396045D01*
X150633264Y-96386121D01*
X150603110Y-96370003D01*
X150576684Y-96348316D01*
X150554997Y-96321890D01*
X150538879Y-96291736D01*
X150528955Y-96259024D01*
X150525000Y-96218862D01*
X150525000Y-95531138D01*
X150528955Y-95490976D01*
X150538879Y-95458264D01*
X150554997Y-95428110D01*
X150576684Y-95401684D01*
X150603110Y-95379997D01*
X150633264Y-95363879D01*
X150665976Y-95353955D01*
X150706138Y-95350000D01*
X151293862Y-95350000D01*
X151334024Y-95353955D01*
X151334024Y-95353955D01*
G37*
G36*
X148334024Y-95353955D02*
X148366736Y-95363879D01*
X148396890Y-95379997D01*
X148423316Y-95401684D01*
X148445003Y-95428110D01*
X148461121Y-95458264D01*
X148471045Y-95490976D01*
X148475000Y-95531138D01*
X148475000Y-96218862D01*
X148471045Y-96259024D01*
X148461121Y-96291736D01*
X148445003Y-96321890D01*
X148423316Y-96348316D01*
X148396890Y-96370003D01*
X148366736Y-96386121D01*
X148334024Y-96396045D01*
X148293862Y-96400000D01*
X147706138Y-96400000D01*
X147665976Y-96396045D01*
X147633264Y-96386121D01*
X147603110Y-96370003D01*
X147576684Y-96348316D01*
X147554997Y-96321890D01*
X147538879Y-96291736D01*
X147528955Y-96259024D01*
X147525000Y-96218862D01*
X147525000Y-95531138D01*
X147528955Y-95490976D01*
X147538879Y-95458264D01*
X147554997Y-95428110D01*
X147576684Y-95401684D01*
X147603110Y-95379997D01*
X147633264Y-95363879D01*
X147665976Y-95353955D01*
X147706138Y-95350000D01*
X148293862Y-95350000D01*
X148334024Y-95353955D01*
X148334024Y-95353955D01*
G37*
G36*
X152834024Y-95353955D02*
X152866736Y-95363879D01*
X152896890Y-95379997D01*
X152923316Y-95401684D01*
X152945003Y-95428110D01*
X152961121Y-95458264D01*
X152971045Y-95490976D01*
X152975000Y-95531138D01*
X152975000Y-96218862D01*
X152971045Y-96259024D01*
X152961121Y-96291736D01*
X152945003Y-96321890D01*
X152923316Y-96348316D01*
X152896890Y-96370003D01*
X152866736Y-96386121D01*
X152834024Y-96396045D01*
X152793862Y-96400000D01*
X152206138Y-96400000D01*
X152165976Y-96396045D01*
X152133264Y-96386121D01*
X152103110Y-96370003D01*
X152076684Y-96348316D01*
X152054997Y-96321890D01*
X152038879Y-96291736D01*
X152028955Y-96259024D01*
X152025000Y-96218862D01*
X152025000Y-95531138D01*
X152028955Y-95490976D01*
X152038879Y-95458264D01*
X152054997Y-95428110D01*
X152076684Y-95401684D01*
X152103110Y-95379997D01*
X152133264Y-95363879D01*
X152165976Y-95353955D01*
X152206138Y-95350000D01*
X152793862Y-95350000D01*
X152834024Y-95353955D01*
X152834024Y-95353955D01*
G37*
G36*
X149834024Y-95353955D02*
X149866736Y-95363879D01*
X149896890Y-95379997D01*
X149923316Y-95401684D01*
X149945003Y-95428110D01*
X149961121Y-95458264D01*
X149971045Y-95490976D01*
X149975000Y-95531138D01*
X149975000Y-96218862D01*
X149971045Y-96259024D01*
X149961121Y-96291736D01*
X149945003Y-96321890D01*
X149923316Y-96348316D01*
X149896890Y-96370003D01*
X149866736Y-96386121D01*
X149834024Y-96396045D01*
X149793862Y-96400000D01*
X149206138Y-96400000D01*
X149165976Y-96396045D01*
X149133264Y-96386121D01*
X149103110Y-96370003D01*
X149076684Y-96348316D01*
X149054997Y-96321890D01*
X149038879Y-96291736D01*
X149028955Y-96259024D01*
X149025000Y-96218862D01*
X149025000Y-95531138D01*
X149028955Y-95490976D01*
X149038879Y-95458264D01*
X149054997Y-95428110D01*
X149076684Y-95401684D01*
X149103110Y-95379997D01*
X149133264Y-95363879D01*
X149165976Y-95353955D01*
X149206138Y-95350000D01*
X149793862Y-95350000D01*
X149834024Y-95353955D01*
X149834024Y-95353955D01*
G37*
G36*
X144130000Y-96180000D02*
X142570000Y-96180000D01*
X142570000Y-95130000D01*
X144130000Y-95130000D01*
X144130000Y-96180000D01*
X144130000Y-96180000D01*
G37*
G36*
X141430000Y-96180000D02*
X139870000Y-96180000D01*
X139870000Y-95130000D01*
X141430000Y-95130000D01*
X141430000Y-96180000D01*
X141430000Y-96180000D01*
G37*
G36*
X114834024Y-95103955D02*
X114866736Y-95113879D01*
X114896890Y-95129997D01*
X114923316Y-95151684D01*
X114945003Y-95178110D01*
X114961121Y-95208264D01*
X114971045Y-95240976D01*
X114975000Y-95281138D01*
X114975000Y-95968862D01*
X114971045Y-96009024D01*
X114961121Y-96041736D01*
X114945003Y-96071890D01*
X114923316Y-96098316D01*
X114896890Y-96120003D01*
X114866736Y-96136121D01*
X114834024Y-96146045D01*
X114793862Y-96150000D01*
X114206138Y-96150000D01*
X114165976Y-96146045D01*
X114133264Y-96136121D01*
X114103110Y-96120003D01*
X114076684Y-96098316D01*
X114054997Y-96071890D01*
X114038879Y-96041736D01*
X114028955Y-96009024D01*
X114025000Y-95968862D01*
X114025000Y-95281138D01*
X114028955Y-95240976D01*
X114038879Y-95208264D01*
X114054997Y-95178110D01*
X114076684Y-95151684D01*
X114103110Y-95129997D01*
X114133264Y-95113879D01*
X114165976Y-95103955D01*
X114206138Y-95100000D01*
X114793862Y-95100000D01*
X114834024Y-95103955D01*
X114834024Y-95103955D01*
G37*
G36*
X112834024Y-95103955D02*
X112866736Y-95113879D01*
X112896890Y-95129997D01*
X112923316Y-95151684D01*
X112945003Y-95178110D01*
X112961121Y-95208264D01*
X112971045Y-95240976D01*
X112975000Y-95281138D01*
X112975000Y-95968862D01*
X112971045Y-96009024D01*
X112961121Y-96041736D01*
X112945003Y-96071890D01*
X112923316Y-96098316D01*
X112896890Y-96120003D01*
X112866736Y-96136121D01*
X112834024Y-96146045D01*
X112793862Y-96150000D01*
X112206138Y-96150000D01*
X112165976Y-96146045D01*
X112133264Y-96136121D01*
X112103110Y-96120003D01*
X112076684Y-96098316D01*
X112054997Y-96071890D01*
X112038879Y-96041736D01*
X112028955Y-96009024D01*
X112025000Y-95968862D01*
X112025000Y-95281138D01*
X112028955Y-95240976D01*
X112038879Y-95208264D01*
X112054997Y-95178110D01*
X112076684Y-95151684D01*
X112103110Y-95129997D01*
X112133264Y-95113879D01*
X112165976Y-95103955D01*
X112206138Y-95100000D01*
X112793862Y-95100000D01*
X112834024Y-95103955D01*
X112834024Y-95103955D01*
G37*
G36*
X85600000Y-95625000D02*
X82000000Y-95625000D01*
X82000000Y-94975000D01*
X85600000Y-94975000D01*
X85600000Y-95625000D01*
X85600000Y-95625000D01*
G37*
G36*
X141430000Y-94870000D02*
X139870000Y-94870000D01*
X139870000Y-93820000D01*
X141430000Y-93820000D01*
X141430000Y-94870000D01*
X141430000Y-94870000D01*
G37*
G36*
X144130000Y-94870000D02*
X142570000Y-94870000D01*
X142570000Y-93820000D01*
X144130000Y-93820000D01*
X144130000Y-94870000D01*
X144130000Y-94870000D01*
G37*
G36*
X119325000Y-94850000D02*
X118775000Y-94850000D01*
X118775000Y-93850000D01*
X119325000Y-93850000D01*
X119325000Y-94850000D01*
X119325000Y-94850000D01*
G37*
G36*
X120275000Y-94850000D02*
X119725000Y-94850000D01*
X119725000Y-93850000D01*
X120275000Y-93850000D01*
X120275000Y-94850000D01*
X120275000Y-94850000D01*
G37*
G36*
X121225000Y-94850000D02*
X120675000Y-94850000D01*
X120675000Y-93850000D01*
X121225000Y-93850000D01*
X121225000Y-94850000D01*
X121225000Y-94850000D01*
G37*
G36*
X149834024Y-93603955D02*
X149866736Y-93613879D01*
X149896890Y-93629997D01*
X149923316Y-93651684D01*
X149945003Y-93678110D01*
X149961121Y-93708264D01*
X149971045Y-93740976D01*
X149975000Y-93781138D01*
X149975000Y-94468862D01*
X149971045Y-94509024D01*
X149961121Y-94541736D01*
X149945003Y-94571890D01*
X149923316Y-94598316D01*
X149896890Y-94620003D01*
X149866736Y-94636121D01*
X149834024Y-94646045D01*
X149793862Y-94650000D01*
X149206138Y-94650000D01*
X149165976Y-94646045D01*
X149133264Y-94636121D01*
X149103110Y-94620003D01*
X149076684Y-94598316D01*
X149054997Y-94571890D01*
X149038879Y-94541736D01*
X149028955Y-94509024D01*
X149025000Y-94468862D01*
X149025000Y-93781138D01*
X149028955Y-93740976D01*
X149038879Y-93708264D01*
X149054997Y-93678110D01*
X149076684Y-93651684D01*
X149103110Y-93629997D01*
X149133264Y-93613879D01*
X149165976Y-93603955D01*
X149206138Y-93600000D01*
X149793862Y-93600000D01*
X149834024Y-93603955D01*
X149834024Y-93603955D01*
G37*
G36*
X152834024Y-93603955D02*
X152866736Y-93613879D01*
X152896890Y-93629997D01*
X152923316Y-93651684D01*
X152945003Y-93678110D01*
X152961121Y-93708264D01*
X152971045Y-93740976D01*
X152975000Y-93781138D01*
X152975000Y-94468862D01*
X152971045Y-94509024D01*
X152961121Y-94541736D01*
X152945003Y-94571890D01*
X152923316Y-94598316D01*
X152896890Y-94620003D01*
X152866736Y-94636121D01*
X152834024Y-94646045D01*
X152793862Y-94650000D01*
X152206138Y-94650000D01*
X152165976Y-94646045D01*
X152133264Y-94636121D01*
X152103110Y-94620003D01*
X152076684Y-94598316D01*
X152054997Y-94571890D01*
X152038879Y-94541736D01*
X152028955Y-94509024D01*
X152025000Y-94468862D01*
X152025000Y-93781138D01*
X152028955Y-93740976D01*
X152038879Y-93708264D01*
X152054997Y-93678110D01*
X152076684Y-93651684D01*
X152103110Y-93629997D01*
X152133264Y-93613879D01*
X152165976Y-93603955D01*
X152206138Y-93600000D01*
X152793862Y-93600000D01*
X152834024Y-93603955D01*
X152834024Y-93603955D01*
G37*
G36*
X148334024Y-93603955D02*
X148366736Y-93613879D01*
X148396890Y-93629997D01*
X148423316Y-93651684D01*
X148445003Y-93678110D01*
X148461121Y-93708264D01*
X148471045Y-93740976D01*
X148475000Y-93781138D01*
X148475000Y-94468862D01*
X148471045Y-94509024D01*
X148461121Y-94541736D01*
X148445003Y-94571890D01*
X148423316Y-94598316D01*
X148396890Y-94620003D01*
X148366736Y-94636121D01*
X148334024Y-94646045D01*
X148293862Y-94650000D01*
X147706138Y-94650000D01*
X147665976Y-94646045D01*
X147633264Y-94636121D01*
X147603110Y-94620003D01*
X147576684Y-94598316D01*
X147554997Y-94571890D01*
X147538879Y-94541736D01*
X147528955Y-94509024D01*
X147525000Y-94468862D01*
X147525000Y-93781138D01*
X147528955Y-93740976D01*
X147538879Y-93708264D01*
X147554997Y-93678110D01*
X147576684Y-93651684D01*
X147603110Y-93629997D01*
X147633264Y-93613879D01*
X147665976Y-93603955D01*
X147706138Y-93600000D01*
X148293862Y-93600000D01*
X148334024Y-93603955D01*
X148334024Y-93603955D01*
G37*
G36*
X151334024Y-93603955D02*
X151366736Y-93613879D01*
X151396890Y-93629997D01*
X151423316Y-93651684D01*
X151445003Y-93678110D01*
X151461121Y-93708264D01*
X151471045Y-93740976D01*
X151475000Y-93781138D01*
X151475000Y-94468862D01*
X151471045Y-94509024D01*
X151461121Y-94541736D01*
X151445003Y-94571890D01*
X151423316Y-94598316D01*
X151396890Y-94620003D01*
X151366736Y-94636121D01*
X151334024Y-94646045D01*
X151293862Y-94650000D01*
X150706138Y-94650000D01*
X150665976Y-94646045D01*
X150633264Y-94636121D01*
X150603110Y-94620003D01*
X150576684Y-94598316D01*
X150554997Y-94571890D01*
X150538879Y-94541736D01*
X150528955Y-94509024D01*
X150525000Y-94468862D01*
X150525000Y-93781138D01*
X150528955Y-93740976D01*
X150538879Y-93708264D01*
X150554997Y-93678110D01*
X150576684Y-93651684D01*
X150603110Y-93629997D01*
X150633264Y-93613879D01*
X150665976Y-93603955D01*
X150706138Y-93600000D01*
X151293862Y-93600000D01*
X151334024Y-93603955D01*
X151334024Y-93603955D01*
G37*
G36*
X85600000Y-94625000D02*
X82000000Y-94625000D01*
X82000000Y-93975000D01*
X85600000Y-93975000D01*
X85600000Y-94625000D01*
X85600000Y-94625000D01*
G37*
G36*
X85600000Y-93625000D02*
X82000000Y-93625000D01*
X82000000Y-92975000D01*
X85600000Y-92975000D01*
X85600000Y-93625000D01*
X85600000Y-93625000D01*
G37*
G36*
X100834024Y-91353955D02*
X100866736Y-91363879D01*
X100896890Y-91379997D01*
X100923316Y-91401684D01*
X100945003Y-91428110D01*
X100961121Y-91458264D01*
X100971045Y-91490976D01*
X100975000Y-91531138D01*
X100975000Y-92218862D01*
X100971045Y-92259024D01*
X100961121Y-92291736D01*
X100945003Y-92321890D01*
X100923316Y-92348316D01*
X100896890Y-92370003D01*
X100866736Y-92386121D01*
X100834024Y-92396045D01*
X100793862Y-92400000D01*
X100206138Y-92400000D01*
X100165976Y-92396045D01*
X100133264Y-92386121D01*
X100103110Y-92370003D01*
X100076684Y-92348316D01*
X100054997Y-92321890D01*
X100038879Y-92291736D01*
X100028955Y-92259024D01*
X100025000Y-92218862D01*
X100025000Y-91531138D01*
X100028955Y-91490976D01*
X100038879Y-91458264D01*
X100054997Y-91428110D01*
X100076684Y-91401684D01*
X100103110Y-91379997D01*
X100133264Y-91363879D01*
X100165976Y-91353955D01*
X100206138Y-91350000D01*
X100793862Y-91350000D01*
X100834024Y-91353955D01*
X100834024Y-91353955D01*
G37*
G36*
X145334024Y-91353955D02*
X145366736Y-91363879D01*
X145396890Y-91379997D01*
X145423316Y-91401684D01*
X145445003Y-91428110D01*
X145461121Y-91458264D01*
X145471045Y-91490976D01*
X145475000Y-91531138D01*
X145475000Y-92218862D01*
X145471045Y-92259024D01*
X145461121Y-92291736D01*
X145445003Y-92321890D01*
X145423316Y-92348316D01*
X145396890Y-92370003D01*
X145366736Y-92386121D01*
X145334024Y-92396045D01*
X145293862Y-92400000D01*
X144706138Y-92400000D01*
X144665976Y-92396045D01*
X144633264Y-92386121D01*
X144603110Y-92370003D01*
X144576684Y-92348316D01*
X144554997Y-92321890D01*
X144538879Y-92291736D01*
X144528955Y-92259024D01*
X144525000Y-92218862D01*
X144525000Y-91531138D01*
X144528955Y-91490976D01*
X144538879Y-91458264D01*
X144554997Y-91428110D01*
X144576684Y-91401684D01*
X144603110Y-91379997D01*
X144633264Y-91363879D01*
X144665976Y-91353955D01*
X144706138Y-91350000D01*
X145293862Y-91350000D01*
X145334024Y-91353955D01*
X145334024Y-91353955D01*
G37*
G36*
X121225000Y-92150000D02*
X120675000Y-92150000D01*
X120675000Y-91150000D01*
X121225000Y-91150000D01*
X121225000Y-92150000D01*
X121225000Y-92150000D01*
G37*
G36*
X120275000Y-92150000D02*
X119725000Y-92150000D01*
X119725000Y-91150000D01*
X120275000Y-91150000D01*
X120275000Y-92150000D01*
X120275000Y-92150000D01*
G37*
G36*
X119325000Y-92150000D02*
X118775000Y-92150000D01*
X118775000Y-91150000D01*
X119325000Y-91150000D01*
X119325000Y-92150000D01*
X119325000Y-92150000D01*
G37*
G36*
X159600000Y-90810000D02*
X158970000Y-90810000D01*
X158970000Y-90150000D01*
X159600000Y-90150000D01*
X159600000Y-90810000D01*
X159600000Y-90810000D01*
G37*
G36*
X100834024Y-89603955D02*
X100866736Y-89613879D01*
X100896890Y-89629997D01*
X100923316Y-89651684D01*
X100945003Y-89678110D01*
X100961121Y-89708264D01*
X100971045Y-89740976D01*
X100975000Y-89781138D01*
X100975000Y-90468862D01*
X100971045Y-90509024D01*
X100961121Y-90541736D01*
X100945003Y-90571890D01*
X100923316Y-90598316D01*
X100896890Y-90620003D01*
X100866736Y-90636121D01*
X100834024Y-90646045D01*
X100793862Y-90650000D01*
X100206138Y-90650000D01*
X100165976Y-90646045D01*
X100133264Y-90636121D01*
X100103110Y-90620003D01*
X100076684Y-90598316D01*
X100054997Y-90571890D01*
X100038879Y-90541736D01*
X100028955Y-90509024D01*
X100025000Y-90468862D01*
X100025000Y-89781138D01*
X100028955Y-89740976D01*
X100038879Y-89708264D01*
X100054997Y-89678110D01*
X100076684Y-89651684D01*
X100103110Y-89629997D01*
X100133264Y-89613879D01*
X100165976Y-89603955D01*
X100206138Y-89600000D01*
X100793862Y-89600000D01*
X100834024Y-89603955D01*
X100834024Y-89603955D01*
G37*
G36*
X145334024Y-89603955D02*
X145366736Y-89613879D01*
X145396890Y-89629997D01*
X145423316Y-89651684D01*
X145445003Y-89678110D01*
X145461121Y-89708264D01*
X145471045Y-89740976D01*
X145475000Y-89781138D01*
X145475000Y-90468862D01*
X145471045Y-90509024D01*
X145461121Y-90541736D01*
X145445003Y-90571890D01*
X145423316Y-90598316D01*
X145396890Y-90620003D01*
X145366736Y-90636121D01*
X145334024Y-90646045D01*
X145293862Y-90650000D01*
X144706138Y-90650000D01*
X144665976Y-90646045D01*
X144633264Y-90636121D01*
X144603110Y-90620003D01*
X144576684Y-90598316D01*
X144554997Y-90571890D01*
X144538879Y-90541736D01*
X144528955Y-90509024D01*
X144525000Y-90468862D01*
X144525000Y-89781138D01*
X144528955Y-89740976D01*
X144538879Y-89708264D01*
X144554997Y-89678110D01*
X144576684Y-89651684D01*
X144603110Y-89629997D01*
X144633264Y-89613879D01*
X144665976Y-89603955D01*
X144706138Y-89600000D01*
X145293862Y-89600000D01*
X145334024Y-89603955D01*
X145334024Y-89603955D01*
G37*
G36*
X85600000Y-90625000D02*
X80938092Y-90625000D01*
X80922835Y-90616845D01*
X80911285Y-90612712D01*
X80875025Y-90601713D01*
X80835223Y-90580438D01*
X80818566Y-90571535D01*
X80769079Y-90530921D01*
X80728465Y-90481434D01*
X80716385Y-90458834D01*
X80698285Y-90424972D01*
X80679702Y-90363712D01*
X80673428Y-90300000D01*
X80679702Y-90236288D01*
X80698285Y-90175028D01*
X80728466Y-90118565D01*
X80769079Y-90069079D01*
X80818565Y-90028466D01*
X80818564Y-90028466D01*
X80818566Y-90028465D01*
X80844847Y-90014418D01*
X80875025Y-89998287D01*
X80911285Y-89987288D01*
X80933924Y-89977910D01*
X80938279Y-89975000D01*
X85600000Y-89975000D01*
X85600000Y-90625000D01*
X85600000Y-90625000D01*
G37*
G36*
X119509024Y-89028955D02*
X119541736Y-89038879D01*
X119571890Y-89054997D01*
X119598316Y-89076684D01*
X119620003Y-89103110D01*
X119636121Y-89133264D01*
X119646045Y-89165976D01*
X119650000Y-89206138D01*
X119650000Y-89793862D01*
X119646045Y-89834024D01*
X119636121Y-89866736D01*
X119620003Y-89896890D01*
X119598316Y-89923316D01*
X119571890Y-89945003D01*
X119541736Y-89961121D01*
X119509024Y-89971045D01*
X119468862Y-89975000D01*
X118781138Y-89975000D01*
X118740976Y-89971045D01*
X118708264Y-89961121D01*
X118678110Y-89945003D01*
X118651684Y-89923316D01*
X118629997Y-89896890D01*
X118613879Y-89866736D01*
X118603955Y-89834024D01*
X118600000Y-89793862D01*
X118600000Y-89206138D01*
X118603955Y-89165976D01*
X118613879Y-89133264D01*
X118629997Y-89103110D01*
X118651684Y-89076684D01*
X118678110Y-89054997D01*
X118708264Y-89038879D01*
X118740976Y-89028955D01*
X118781138Y-89025000D01*
X119468862Y-89025000D01*
X119509024Y-89028955D01*
X119509024Y-89028955D01*
G37*
G36*
X121259024Y-89028955D02*
X121291736Y-89038879D01*
X121321890Y-89054997D01*
X121348316Y-89076684D01*
X121370003Y-89103110D01*
X121386121Y-89133264D01*
X121396045Y-89165976D01*
X121400000Y-89206138D01*
X121400000Y-89793862D01*
X121396045Y-89834024D01*
X121386121Y-89866736D01*
X121370003Y-89896890D01*
X121348316Y-89923316D01*
X121321890Y-89945003D01*
X121291736Y-89961121D01*
X121259024Y-89971045D01*
X121218862Y-89975000D01*
X120531138Y-89975000D01*
X120490976Y-89971045D01*
X120458264Y-89961121D01*
X120428110Y-89945003D01*
X120401684Y-89923316D01*
X120379997Y-89896890D01*
X120363879Y-89866736D01*
X120353955Y-89834024D01*
X120350000Y-89793862D01*
X120350000Y-89206138D01*
X120353955Y-89165976D01*
X120363879Y-89133264D01*
X120379997Y-89103110D01*
X120401684Y-89076684D01*
X120428110Y-89054997D01*
X120458264Y-89038879D01*
X120490976Y-89028955D01*
X120531138Y-89025000D01*
X121218862Y-89025000D01*
X121259024Y-89028955D01*
X121259024Y-89028955D01*
G37*
G36*
X159100000Y-89870000D02*
X158300000Y-89870000D01*
X158300000Y-89470000D01*
X159100000Y-89470000D01*
X159100000Y-89870000D01*
X159100000Y-89870000D01*
G37*
G36*
X85600000Y-89625000D02*
X80938092Y-89625000D01*
X80922835Y-89616845D01*
X80911285Y-89612712D01*
X80875025Y-89601713D01*
X80844847Y-89585582D01*
X80818566Y-89571535D01*
X80769079Y-89530921D01*
X80728465Y-89481434D01*
X80715363Y-89456921D01*
X80698285Y-89424972D01*
X80679702Y-89363712D01*
X80673428Y-89300000D01*
X80679702Y-89236288D01*
X80698285Y-89175028D01*
X80720609Y-89133264D01*
X80728465Y-89118566D01*
X80769079Y-89069079D01*
X80818566Y-89028465D01*
X80844847Y-89014418D01*
X80875025Y-88998287D01*
X80911285Y-88987288D01*
X80933924Y-88977910D01*
X80938279Y-88975000D01*
X85600000Y-88975000D01*
X85600000Y-89625000D01*
X85600000Y-89625000D01*
G37*
G36*
X153509024Y-88528955D02*
X153541736Y-88538879D01*
X153571890Y-88554997D01*
X153598316Y-88576684D01*
X153620003Y-88603110D01*
X153636121Y-88633264D01*
X153646045Y-88665976D01*
X153650000Y-88706138D01*
X153650000Y-89293862D01*
X153646045Y-89334024D01*
X153636121Y-89366736D01*
X153620003Y-89396890D01*
X153598316Y-89423316D01*
X153571890Y-89445003D01*
X153541736Y-89461121D01*
X153509024Y-89471045D01*
X153468862Y-89475000D01*
X152781138Y-89475000D01*
X152740976Y-89471045D01*
X152708264Y-89461121D01*
X152678110Y-89445003D01*
X152651684Y-89423316D01*
X152629997Y-89396890D01*
X152613879Y-89366736D01*
X152603955Y-89334024D01*
X152600000Y-89293862D01*
X152600000Y-88706138D01*
X152603955Y-88665976D01*
X152613879Y-88633264D01*
X152629997Y-88603110D01*
X152651684Y-88576684D01*
X152678110Y-88554997D01*
X152708264Y-88538879D01*
X152740976Y-88528955D01*
X152781138Y-88525000D01*
X153468862Y-88525000D01*
X153509024Y-88528955D01*
X153509024Y-88528955D01*
G37*
G36*
X155259024Y-88528955D02*
X155291736Y-88538879D01*
X155321890Y-88554997D01*
X155348316Y-88576684D01*
X155370003Y-88603110D01*
X155386121Y-88633264D01*
X155396045Y-88665976D01*
X155400000Y-88706138D01*
X155400000Y-89293862D01*
X155396045Y-89334024D01*
X155386121Y-89366736D01*
X155370003Y-89396890D01*
X155348316Y-89423316D01*
X155321890Y-89445003D01*
X155291736Y-89461121D01*
X155259024Y-89471045D01*
X155218862Y-89475000D01*
X154531138Y-89475000D01*
X154490976Y-89471045D01*
X154458264Y-89461121D01*
X154428110Y-89445003D01*
X154401684Y-89423316D01*
X154379997Y-89396890D01*
X154363879Y-89366736D01*
X154353955Y-89334024D01*
X154350000Y-89293862D01*
X154350000Y-88706138D01*
X154353955Y-88665976D01*
X154363879Y-88633264D01*
X154379997Y-88603110D01*
X154401684Y-88576684D01*
X154428110Y-88554997D01*
X154458264Y-88538879D01*
X154490976Y-88528955D01*
X154531138Y-88525000D01*
X155218862Y-88525000D01*
X155259024Y-88528955D01*
X155259024Y-88528955D01*
G37*
G36*
X159100000Y-89190000D02*
X158300000Y-89190000D01*
X158300000Y-88790000D01*
X159100000Y-88790000D01*
X159100000Y-89190000D01*
X159100000Y-89190000D01*
G37*
G36*
X98124449Y-87750551D02*
X98125602Y-87762253D01*
X98130383Y-87786287D01*
X98139760Y-87808925D01*
X98153374Y-87829300D01*
X98170702Y-87846627D01*
X98191076Y-87860241D01*
X98213715Y-87869618D01*
X98237749Y-87874398D01*
X98262253Y-87874398D01*
X98286287Y-87869617D01*
X98308925Y-87860240D01*
X98329300Y-87846626D01*
X98346627Y-87829298D01*
X98360241Y-87808924D01*
X98369618Y-87786285D01*
X98374398Y-87762253D01*
X98375551Y-87750551D01*
X98381141Y-87750000D01*
X98618859Y-87750000D01*
X98624449Y-87750551D01*
X98625602Y-87762253D01*
X98630383Y-87786287D01*
X98639760Y-87808925D01*
X98653374Y-87829300D01*
X98670702Y-87846627D01*
X98691076Y-87860241D01*
X98713715Y-87869618D01*
X98737749Y-87874398D01*
X98762253Y-87874398D01*
X98786287Y-87869617D01*
X98808925Y-87860240D01*
X98829300Y-87846626D01*
X98846627Y-87829298D01*
X98860241Y-87808924D01*
X98869618Y-87786285D01*
X98874398Y-87762253D01*
X98875551Y-87750551D01*
X98881141Y-87750000D01*
X99118859Y-87750000D01*
X99124449Y-87750551D01*
X99125602Y-87762253D01*
X99130383Y-87786287D01*
X99139760Y-87808925D01*
X99153374Y-87829300D01*
X99170702Y-87846627D01*
X99191076Y-87860241D01*
X99213715Y-87869618D01*
X99237749Y-87874398D01*
X99262253Y-87874398D01*
X99286287Y-87869617D01*
X99308925Y-87860240D01*
X99329300Y-87846626D01*
X99346627Y-87829298D01*
X99360241Y-87808924D01*
X99369618Y-87786285D01*
X99374398Y-87762253D01*
X99375551Y-87750551D01*
X99381141Y-87750000D01*
X99618859Y-87750000D01*
X99624449Y-87750551D01*
X99625602Y-87762253D01*
X99630383Y-87786287D01*
X99639760Y-87808925D01*
X99653374Y-87829300D01*
X99670702Y-87846627D01*
X99691076Y-87860241D01*
X99713715Y-87869618D01*
X99737749Y-87874398D01*
X99762253Y-87874398D01*
X99786287Y-87869617D01*
X99808925Y-87860240D01*
X99829300Y-87846626D01*
X99846627Y-87829298D01*
X99860241Y-87808924D01*
X99869618Y-87786285D01*
X99874398Y-87762253D01*
X99875551Y-87750551D01*
X99881141Y-87750000D01*
X100118859Y-87750000D01*
X100124449Y-87750551D01*
X100125602Y-87762253D01*
X100130383Y-87786287D01*
X100139760Y-87808925D01*
X100153374Y-87829300D01*
X100170702Y-87846627D01*
X100191076Y-87860241D01*
X100213715Y-87869618D01*
X100237749Y-87874398D01*
X100262253Y-87874398D01*
X100286287Y-87869617D01*
X100308925Y-87860240D01*
X100329300Y-87846626D01*
X100346627Y-87829298D01*
X100360241Y-87808924D01*
X100369618Y-87786285D01*
X100374398Y-87762253D01*
X100375551Y-87750551D01*
X100381141Y-87750000D01*
X100618859Y-87750000D01*
X100624449Y-87750551D01*
X100625602Y-87762253D01*
X100630383Y-87786287D01*
X100639760Y-87808925D01*
X100653374Y-87829300D01*
X100670702Y-87846627D01*
X100691076Y-87860241D01*
X100713715Y-87869618D01*
X100737749Y-87874398D01*
X100762253Y-87874398D01*
X100786287Y-87869617D01*
X100808925Y-87860240D01*
X100829300Y-87846626D01*
X100846627Y-87829298D01*
X100860241Y-87808924D01*
X100869618Y-87786285D01*
X100874398Y-87762253D01*
X100875551Y-87750551D01*
X100881141Y-87750000D01*
X101118859Y-87750000D01*
X101124449Y-87750551D01*
X101125602Y-87762253D01*
X101130383Y-87786287D01*
X101139760Y-87808925D01*
X101153374Y-87829300D01*
X101170702Y-87846627D01*
X101191076Y-87860241D01*
X101213715Y-87869618D01*
X101237749Y-87874398D01*
X101262253Y-87874398D01*
X101286287Y-87869617D01*
X101308925Y-87860240D01*
X101329300Y-87846626D01*
X101346627Y-87829298D01*
X101360241Y-87808924D01*
X101369618Y-87786285D01*
X101374398Y-87762253D01*
X101375551Y-87750551D01*
X101381141Y-87750000D01*
X101625000Y-87750000D01*
X101625000Y-88618859D01*
X101624449Y-88624449D01*
X101618859Y-88625000D01*
X101381141Y-88625000D01*
X101375551Y-88624449D01*
X101374398Y-88612747D01*
X101369617Y-88588713D01*
X101360240Y-88566075D01*
X101346626Y-88545700D01*
X101329298Y-88528373D01*
X101308924Y-88514759D01*
X101286285Y-88505382D01*
X101262251Y-88500602D01*
X101237747Y-88500602D01*
X101213713Y-88505383D01*
X101191075Y-88514760D01*
X101170700Y-88528374D01*
X101153373Y-88545702D01*
X101139759Y-88566076D01*
X101130382Y-88588715D01*
X101125602Y-88612747D01*
X101124449Y-88624449D01*
X101118859Y-88625000D01*
X100881141Y-88625000D01*
X100875551Y-88624449D01*
X100874398Y-88612747D01*
X100869617Y-88588713D01*
X100860240Y-88566075D01*
X100846626Y-88545700D01*
X100829298Y-88528373D01*
X100808924Y-88514759D01*
X100786285Y-88505382D01*
X100762251Y-88500602D01*
X100737747Y-88500602D01*
X100713713Y-88505383D01*
X100691075Y-88514760D01*
X100670700Y-88528374D01*
X100653373Y-88545702D01*
X100639759Y-88566076D01*
X100630382Y-88588715D01*
X100625602Y-88612747D01*
X100624449Y-88624449D01*
X100618859Y-88625000D01*
X100381141Y-88625000D01*
X100375551Y-88624449D01*
X100374398Y-88612747D01*
X100369617Y-88588713D01*
X100360240Y-88566075D01*
X100346626Y-88545700D01*
X100329298Y-88528373D01*
X100308924Y-88514759D01*
X100286285Y-88505382D01*
X100262251Y-88500602D01*
X100237747Y-88500602D01*
X100213713Y-88505383D01*
X100191075Y-88514760D01*
X100170700Y-88528374D01*
X100153373Y-88545702D01*
X100139759Y-88566076D01*
X100130382Y-88588715D01*
X100125602Y-88612747D01*
X100124449Y-88624449D01*
X100118859Y-88625000D01*
X99881141Y-88625000D01*
X99875551Y-88624449D01*
X99874398Y-88612747D01*
X99869617Y-88588713D01*
X99860240Y-88566075D01*
X99846626Y-88545700D01*
X99829298Y-88528373D01*
X99808924Y-88514759D01*
X99786285Y-88505382D01*
X99762251Y-88500602D01*
X99737747Y-88500602D01*
X99713713Y-88505383D01*
X99691075Y-88514760D01*
X99670700Y-88528374D01*
X99653373Y-88545702D01*
X99639759Y-88566076D01*
X99630382Y-88588715D01*
X99625602Y-88612747D01*
X99624449Y-88624449D01*
X99618859Y-88625000D01*
X99381141Y-88625000D01*
X99375551Y-88624449D01*
X99374398Y-88612747D01*
X99369617Y-88588713D01*
X99360240Y-88566075D01*
X99346626Y-88545700D01*
X99329298Y-88528373D01*
X99308924Y-88514759D01*
X99286285Y-88505382D01*
X99262251Y-88500602D01*
X99237747Y-88500602D01*
X99213713Y-88505383D01*
X99191075Y-88514760D01*
X99170700Y-88528374D01*
X99153373Y-88545702D01*
X99139759Y-88566076D01*
X99130382Y-88588715D01*
X99125602Y-88612747D01*
X99124449Y-88624449D01*
X99118859Y-88625000D01*
X98881141Y-88625000D01*
X98875551Y-88624449D01*
X98874398Y-88612747D01*
X98869617Y-88588713D01*
X98860240Y-88566075D01*
X98846626Y-88545700D01*
X98829298Y-88528373D01*
X98808924Y-88514759D01*
X98786285Y-88505382D01*
X98762251Y-88500602D01*
X98737747Y-88500602D01*
X98713713Y-88505383D01*
X98691075Y-88514760D01*
X98670700Y-88528374D01*
X98653373Y-88545702D01*
X98639759Y-88566076D01*
X98630382Y-88588715D01*
X98625602Y-88612747D01*
X98624449Y-88624449D01*
X98618859Y-88625000D01*
X98381141Y-88625000D01*
X98375551Y-88624449D01*
X98374398Y-88612747D01*
X98369617Y-88588713D01*
X98360240Y-88566075D01*
X98346626Y-88545700D01*
X98329298Y-88528373D01*
X98308924Y-88514759D01*
X98286285Y-88505382D01*
X98262251Y-88500602D01*
X98237747Y-88500602D01*
X98213713Y-88505383D01*
X98191075Y-88514760D01*
X98170700Y-88528374D01*
X98153373Y-88545702D01*
X98139759Y-88566076D01*
X98130382Y-88588715D01*
X98125602Y-88612747D01*
X98124449Y-88624449D01*
X98118859Y-88625000D01*
X97881141Y-88625000D01*
X97875551Y-88624449D01*
X97875000Y-88618859D01*
X97875000Y-87750000D01*
X98118859Y-87750000D01*
X98124449Y-87750551D01*
X98124449Y-87750551D01*
G37*
G36*
X85600000Y-88625000D02*
X80938092Y-88625000D01*
X80922835Y-88616845D01*
X80911285Y-88612712D01*
X80875025Y-88601713D01*
X80844847Y-88585582D01*
X80818566Y-88571535D01*
X80769079Y-88530921D01*
X80728465Y-88481434D01*
X80715363Y-88456921D01*
X80698285Y-88424972D01*
X80679702Y-88363712D01*
X80673428Y-88300000D01*
X80679702Y-88236288D01*
X80698285Y-88175028D01*
X80728466Y-88118565D01*
X80769079Y-88069079D01*
X80818565Y-88028466D01*
X80818564Y-88028466D01*
X80818566Y-88028465D01*
X80853112Y-88010000D01*
X80875025Y-87998287D01*
X80911285Y-87987288D01*
X80933924Y-87977910D01*
X80938279Y-87975000D01*
X85600000Y-87975000D01*
X85600000Y-88625000D01*
X85600000Y-88625000D01*
G37*
G36*
X120509024Y-87528955D02*
X120541736Y-87538879D01*
X120571890Y-87554997D01*
X120598316Y-87576684D01*
X120620003Y-87603110D01*
X120636121Y-87633264D01*
X120646045Y-87665976D01*
X120650000Y-87706138D01*
X120650000Y-88293862D01*
X120646045Y-88334024D01*
X120636121Y-88366736D01*
X120620003Y-88396890D01*
X120598316Y-88423316D01*
X120571890Y-88445003D01*
X120541736Y-88461121D01*
X120509024Y-88471045D01*
X120468862Y-88475000D01*
X119781138Y-88475000D01*
X119740976Y-88471045D01*
X119708264Y-88461121D01*
X119678110Y-88445003D01*
X119651684Y-88423316D01*
X119629997Y-88396890D01*
X119613879Y-88366736D01*
X119603955Y-88334024D01*
X119600000Y-88293862D01*
X119600000Y-87706138D01*
X119603955Y-87665976D01*
X119613879Y-87633264D01*
X119629997Y-87603110D01*
X119651684Y-87576684D01*
X119678110Y-87554997D01*
X119708264Y-87538879D01*
X119740976Y-87528955D01*
X119781138Y-87525000D01*
X120468862Y-87525000D01*
X120509024Y-87528955D01*
X120509024Y-87528955D01*
G37*
G36*
X122259024Y-87528955D02*
X122291736Y-87538879D01*
X122321890Y-87554997D01*
X122348316Y-87576684D01*
X122370003Y-87603110D01*
X122386121Y-87633264D01*
X122396045Y-87665976D01*
X122400000Y-87706138D01*
X122400000Y-88293862D01*
X122396045Y-88334024D01*
X122386121Y-88366736D01*
X122370003Y-88396890D01*
X122348316Y-88423316D01*
X122321890Y-88445003D01*
X122291736Y-88461121D01*
X122259024Y-88471045D01*
X122218862Y-88475000D01*
X121531138Y-88475000D01*
X121490976Y-88471045D01*
X121458264Y-88461121D01*
X121428110Y-88445003D01*
X121401684Y-88423316D01*
X121379997Y-88396890D01*
X121363879Y-88366736D01*
X121353955Y-88334024D01*
X121350000Y-88293862D01*
X121350000Y-87706138D01*
X121353955Y-87665976D01*
X121363879Y-87633264D01*
X121379997Y-87603110D01*
X121401684Y-87576684D01*
X121428110Y-87554997D01*
X121458264Y-87538879D01*
X121490976Y-87528955D01*
X121531138Y-87525000D01*
X122218862Y-87525000D01*
X122259024Y-87528955D01*
X122259024Y-87528955D01*
G37*
G36*
X159100000Y-88410000D02*
X158300000Y-88410000D01*
X158300000Y-88010000D01*
X159100000Y-88010000D01*
X159100000Y-88410000D01*
X159100000Y-88410000D01*
G37*
G36*
X159100000Y-87730000D02*
X158300000Y-87730000D01*
X158300000Y-87330000D01*
X159100000Y-87330000D01*
X159100000Y-87730000D01*
X159100000Y-87730000D01*
G37*
G36*
X85600000Y-87625000D02*
X80938092Y-87625000D01*
X80922835Y-87616845D01*
X80911285Y-87612712D01*
X80875025Y-87601713D01*
X80844847Y-87585582D01*
X80818566Y-87571535D01*
X80769079Y-87530921D01*
X80728465Y-87481434D01*
X80715363Y-87456921D01*
X80698285Y-87424972D01*
X80679702Y-87363712D01*
X80673428Y-87300000D01*
X80679702Y-87236288D01*
X80698285Y-87175028D01*
X80722149Y-87130382D01*
X80728465Y-87118566D01*
X80769079Y-87069079D01*
X80818566Y-87028465D01*
X80844847Y-87014418D01*
X80875025Y-86998287D01*
X80911285Y-86987288D01*
X80933924Y-86977910D01*
X80938279Y-86975000D01*
X85600000Y-86975000D01*
X85600000Y-87625000D01*
X85600000Y-87625000D01*
G37*
G36*
X102624449Y-83875551D02*
X102625000Y-83881141D01*
X102625000Y-84118859D01*
X102624449Y-84124449D01*
X102612747Y-84125602D01*
X102588713Y-84130383D01*
X102566075Y-84139760D01*
X102545700Y-84153374D01*
X102528373Y-84170702D01*
X102514759Y-84191076D01*
X102505382Y-84213715D01*
X102500602Y-84237749D01*
X102500602Y-84262253D01*
X102505383Y-84286287D01*
X102514760Y-84308925D01*
X102528374Y-84329300D01*
X102545702Y-84346627D01*
X102566076Y-84360241D01*
X102588715Y-84369618D01*
X102612747Y-84374398D01*
X102624449Y-84375551D01*
X102625000Y-84381141D01*
X102625000Y-84618859D01*
X102624449Y-84624449D01*
X102612747Y-84625602D01*
X102588713Y-84630383D01*
X102566075Y-84639760D01*
X102545700Y-84653374D01*
X102528373Y-84670702D01*
X102514759Y-84691076D01*
X102505382Y-84713715D01*
X102500602Y-84737749D01*
X102500602Y-84762253D01*
X102505383Y-84786287D01*
X102514760Y-84808925D01*
X102528374Y-84829300D01*
X102545702Y-84846627D01*
X102566076Y-84860241D01*
X102588715Y-84869618D01*
X102612747Y-84874398D01*
X102624449Y-84875551D01*
X102625000Y-84881141D01*
X102625000Y-85118859D01*
X102624449Y-85124449D01*
X102612747Y-85125602D01*
X102588713Y-85130383D01*
X102566075Y-85139760D01*
X102545700Y-85153374D01*
X102528373Y-85170702D01*
X102514759Y-85191076D01*
X102505382Y-85213715D01*
X102500602Y-85237749D01*
X102500602Y-85262253D01*
X102505383Y-85286287D01*
X102514760Y-85308925D01*
X102528374Y-85329300D01*
X102545702Y-85346627D01*
X102566076Y-85360241D01*
X102588715Y-85369618D01*
X102612747Y-85374398D01*
X102624449Y-85375551D01*
X102625000Y-85381141D01*
X102625000Y-85618859D01*
X102624449Y-85624449D01*
X102612747Y-85625602D01*
X102588713Y-85630383D01*
X102566075Y-85639760D01*
X102545700Y-85653374D01*
X102528373Y-85670702D01*
X102514759Y-85691076D01*
X102505382Y-85713715D01*
X102500602Y-85737749D01*
X102500602Y-85762253D01*
X102505383Y-85786287D01*
X102514760Y-85808925D01*
X102528374Y-85829300D01*
X102545702Y-85846627D01*
X102566076Y-85860241D01*
X102588715Y-85869618D01*
X102612747Y-85874398D01*
X102624449Y-85875551D01*
X102625000Y-85881141D01*
X102625000Y-86118859D01*
X102624449Y-86124449D01*
X102612747Y-86125602D01*
X102588713Y-86130383D01*
X102566075Y-86139760D01*
X102545700Y-86153374D01*
X102528373Y-86170702D01*
X102514759Y-86191076D01*
X102505382Y-86213715D01*
X102500602Y-86237749D01*
X102500602Y-86262253D01*
X102505383Y-86286287D01*
X102514760Y-86308925D01*
X102528374Y-86329300D01*
X102545702Y-86346627D01*
X102566076Y-86360241D01*
X102588715Y-86369618D01*
X102612747Y-86374398D01*
X102624449Y-86375551D01*
X102625000Y-86381141D01*
X102625000Y-86618859D01*
X102624449Y-86624449D01*
X102612747Y-86625602D01*
X102588713Y-86630383D01*
X102566075Y-86639760D01*
X102545700Y-86653374D01*
X102528373Y-86670702D01*
X102514759Y-86691076D01*
X102505382Y-86713715D01*
X102500602Y-86737749D01*
X102500602Y-86762253D01*
X102505383Y-86786287D01*
X102514760Y-86808925D01*
X102528374Y-86829300D01*
X102545702Y-86846627D01*
X102566076Y-86860241D01*
X102588715Y-86869618D01*
X102612747Y-86874398D01*
X102624449Y-86875551D01*
X102625000Y-86881141D01*
X102625000Y-87118859D01*
X102624449Y-87124449D01*
X102612747Y-87125602D01*
X102588713Y-87130383D01*
X102566075Y-87139760D01*
X102545700Y-87153374D01*
X102528373Y-87170702D01*
X102514759Y-87191076D01*
X102505382Y-87213715D01*
X102500602Y-87237749D01*
X102500602Y-87262253D01*
X102505383Y-87286287D01*
X102514760Y-87308925D01*
X102528374Y-87329300D01*
X102545702Y-87346627D01*
X102566076Y-87360241D01*
X102588715Y-87369618D01*
X102612747Y-87374398D01*
X102624449Y-87375551D01*
X102625000Y-87381141D01*
X102625000Y-87618859D01*
X102624449Y-87624449D01*
X102618859Y-87625000D01*
X101750000Y-87625000D01*
X101750000Y-87381141D01*
X101750551Y-87375551D01*
X101762253Y-87374398D01*
X101786287Y-87369617D01*
X101808925Y-87360240D01*
X101829300Y-87346626D01*
X101846627Y-87329298D01*
X101860241Y-87308924D01*
X101869618Y-87286285D01*
X101874398Y-87262251D01*
X101874398Y-87237747D01*
X101869617Y-87213713D01*
X101860240Y-87191075D01*
X101846626Y-87170700D01*
X101829298Y-87153373D01*
X101808924Y-87139759D01*
X101786285Y-87130382D01*
X101762253Y-87125602D01*
X101750551Y-87124449D01*
X101750000Y-87118859D01*
X101750000Y-86881141D01*
X101750551Y-86875551D01*
X101762253Y-86874398D01*
X101786287Y-86869617D01*
X101808925Y-86860240D01*
X101829300Y-86846626D01*
X101846627Y-86829298D01*
X101860241Y-86808924D01*
X101869618Y-86786285D01*
X101874398Y-86762251D01*
X101874398Y-86737747D01*
X101869617Y-86713713D01*
X101860240Y-86691075D01*
X101846626Y-86670700D01*
X101829298Y-86653373D01*
X101808924Y-86639759D01*
X101786285Y-86630382D01*
X101762253Y-86625602D01*
X101750551Y-86624449D01*
X101750000Y-86618859D01*
X101750000Y-86381141D01*
X101750551Y-86375551D01*
X101762253Y-86374398D01*
X101786287Y-86369617D01*
X101808925Y-86360240D01*
X101829300Y-86346626D01*
X101846627Y-86329298D01*
X101860241Y-86308924D01*
X101869618Y-86286285D01*
X101874398Y-86262251D01*
X101874398Y-86237747D01*
X101869617Y-86213713D01*
X101860240Y-86191075D01*
X101846626Y-86170700D01*
X101829298Y-86153373D01*
X101808924Y-86139759D01*
X101786285Y-86130382D01*
X101762253Y-86125602D01*
X101750551Y-86124449D01*
X101750000Y-86118859D01*
X101750000Y-85881141D01*
X101750551Y-85875551D01*
X101762253Y-85874398D01*
X101786287Y-85869617D01*
X101808925Y-85860240D01*
X101829300Y-85846626D01*
X101846627Y-85829298D01*
X101860241Y-85808924D01*
X101869618Y-85786285D01*
X101874398Y-85762251D01*
X101874398Y-85737747D01*
X101869617Y-85713713D01*
X101860240Y-85691075D01*
X101846626Y-85670700D01*
X101829298Y-85653373D01*
X101808924Y-85639759D01*
X101786285Y-85630382D01*
X101762253Y-85625602D01*
X101750551Y-85624449D01*
X101750000Y-85618859D01*
X101750000Y-85381141D01*
X101750551Y-85375551D01*
X101762253Y-85374398D01*
X101786287Y-85369617D01*
X101808925Y-85360240D01*
X101829300Y-85346626D01*
X101846627Y-85329298D01*
X101860241Y-85308924D01*
X101869618Y-85286285D01*
X101874398Y-85262251D01*
X101874398Y-85237747D01*
X101869617Y-85213713D01*
X101860240Y-85191075D01*
X101846626Y-85170700D01*
X101829298Y-85153373D01*
X101808924Y-85139759D01*
X101786285Y-85130382D01*
X101762253Y-85125602D01*
X101750551Y-85124449D01*
X101750000Y-85118859D01*
X101750000Y-84881141D01*
X101750551Y-84875551D01*
X101762253Y-84874398D01*
X101786287Y-84869617D01*
X101808925Y-84860240D01*
X101829300Y-84846626D01*
X101846627Y-84829298D01*
X101860241Y-84808924D01*
X101869618Y-84786285D01*
X101874398Y-84762251D01*
X101874398Y-84737747D01*
X101869617Y-84713713D01*
X101860240Y-84691075D01*
X101846626Y-84670700D01*
X101829298Y-84653373D01*
X101808924Y-84639759D01*
X101786285Y-84630382D01*
X101762253Y-84625602D01*
X101750551Y-84624449D01*
X101750000Y-84618859D01*
X101750000Y-84381141D01*
X101750551Y-84375551D01*
X101762253Y-84374398D01*
X101786287Y-84369617D01*
X101808925Y-84360240D01*
X101829300Y-84346626D01*
X101846627Y-84329298D01*
X101860241Y-84308924D01*
X101869618Y-84286285D01*
X101874398Y-84262251D01*
X101874398Y-84237747D01*
X101869617Y-84213713D01*
X101860240Y-84191075D01*
X101846626Y-84170700D01*
X101829298Y-84153373D01*
X101808924Y-84139759D01*
X101786285Y-84130382D01*
X101762253Y-84125602D01*
X101750551Y-84124449D01*
X101750000Y-84118859D01*
X101750000Y-83875000D01*
X102618859Y-83875000D01*
X102624449Y-83875551D01*
X102624449Y-83875551D01*
G37*
G36*
X97750000Y-84118859D02*
X97749449Y-84124449D01*
X97737747Y-84125602D01*
X97713713Y-84130383D01*
X97691075Y-84139760D01*
X97670700Y-84153374D01*
X97653373Y-84170702D01*
X97639759Y-84191076D01*
X97630382Y-84213715D01*
X97625602Y-84237749D01*
X97625602Y-84262253D01*
X97630383Y-84286287D01*
X97639760Y-84308925D01*
X97653374Y-84329300D01*
X97670702Y-84346627D01*
X97691076Y-84360241D01*
X97713715Y-84369618D01*
X97737747Y-84374398D01*
X97749449Y-84375551D01*
X97750000Y-84381141D01*
X97750000Y-84618859D01*
X97749449Y-84624449D01*
X97737747Y-84625602D01*
X97713713Y-84630383D01*
X97691075Y-84639760D01*
X97670700Y-84653374D01*
X97653373Y-84670702D01*
X97639759Y-84691076D01*
X97630382Y-84713715D01*
X97625602Y-84737749D01*
X97625602Y-84762253D01*
X97630383Y-84786287D01*
X97639760Y-84808925D01*
X97653374Y-84829300D01*
X97670702Y-84846627D01*
X97691076Y-84860241D01*
X97713715Y-84869618D01*
X97737747Y-84874398D01*
X97749449Y-84875551D01*
X97750000Y-84881141D01*
X97750000Y-85118859D01*
X97749449Y-85124449D01*
X97737747Y-85125602D01*
X97713713Y-85130383D01*
X97691075Y-85139760D01*
X97670700Y-85153374D01*
X97653373Y-85170702D01*
X97639759Y-85191076D01*
X97630382Y-85213715D01*
X97625602Y-85237749D01*
X97625602Y-85262253D01*
X97630383Y-85286287D01*
X97639760Y-85308925D01*
X97653374Y-85329300D01*
X97670702Y-85346627D01*
X97691076Y-85360241D01*
X97713715Y-85369618D01*
X97737747Y-85374398D01*
X97749449Y-85375551D01*
X97750000Y-85381141D01*
X97750000Y-85618859D01*
X97749449Y-85624449D01*
X97737747Y-85625602D01*
X97713713Y-85630383D01*
X97691075Y-85639760D01*
X97670700Y-85653374D01*
X97653373Y-85670702D01*
X97639759Y-85691076D01*
X97630382Y-85713715D01*
X97625602Y-85737749D01*
X97625602Y-85762253D01*
X97630383Y-85786287D01*
X97639760Y-85808925D01*
X97653374Y-85829300D01*
X97670702Y-85846627D01*
X97691076Y-85860241D01*
X97713715Y-85869618D01*
X97737747Y-85874398D01*
X97749449Y-85875551D01*
X97750000Y-85881141D01*
X97750000Y-86118859D01*
X97749449Y-86124449D01*
X97737747Y-86125602D01*
X97713713Y-86130383D01*
X97691075Y-86139760D01*
X97670700Y-86153374D01*
X97653373Y-86170702D01*
X97639759Y-86191076D01*
X97630382Y-86213715D01*
X97625602Y-86237749D01*
X97625602Y-86262253D01*
X97630383Y-86286287D01*
X97639760Y-86308925D01*
X97653374Y-86329300D01*
X97670702Y-86346627D01*
X97691076Y-86360241D01*
X97713715Y-86369618D01*
X97737747Y-86374398D01*
X97749449Y-86375551D01*
X97750000Y-86381141D01*
X97750000Y-86618859D01*
X97749449Y-86624449D01*
X97737747Y-86625602D01*
X97713713Y-86630383D01*
X97691075Y-86639760D01*
X97670700Y-86653374D01*
X97653373Y-86670702D01*
X97639759Y-86691076D01*
X97630382Y-86713715D01*
X97625602Y-86737749D01*
X97625602Y-86762253D01*
X97630383Y-86786287D01*
X97639760Y-86808925D01*
X97653374Y-86829300D01*
X97670702Y-86846627D01*
X97691076Y-86860241D01*
X97713715Y-86869618D01*
X97737747Y-86874398D01*
X97749449Y-86875551D01*
X97750000Y-86881141D01*
X97750000Y-87118859D01*
X97749449Y-87124449D01*
X97737747Y-87125602D01*
X97713713Y-87130383D01*
X97691075Y-87139760D01*
X97670700Y-87153374D01*
X97653373Y-87170702D01*
X97639759Y-87191076D01*
X97630382Y-87213715D01*
X97625602Y-87237749D01*
X97625602Y-87262253D01*
X97630383Y-87286287D01*
X97639760Y-87308925D01*
X97653374Y-87329300D01*
X97670702Y-87346627D01*
X97691076Y-87360241D01*
X97713715Y-87369618D01*
X97737747Y-87374398D01*
X97749449Y-87375551D01*
X97750000Y-87381141D01*
X97750000Y-87625000D01*
X96881141Y-87625000D01*
X96875551Y-87624449D01*
X96875000Y-87618859D01*
X96875000Y-87381141D01*
X96875551Y-87375551D01*
X96887253Y-87374398D01*
X96911287Y-87369617D01*
X96933925Y-87360240D01*
X96954300Y-87346626D01*
X96971627Y-87329298D01*
X96985241Y-87308924D01*
X96994618Y-87286285D01*
X96999398Y-87262251D01*
X96999398Y-87237747D01*
X96994617Y-87213713D01*
X96985240Y-87191075D01*
X96971626Y-87170700D01*
X96954298Y-87153373D01*
X96933924Y-87139759D01*
X96911285Y-87130382D01*
X96887253Y-87125602D01*
X96875551Y-87124449D01*
X96875000Y-87118859D01*
X96875000Y-86881141D01*
X96875551Y-86875551D01*
X96887253Y-86874398D01*
X96911287Y-86869617D01*
X96933925Y-86860240D01*
X96954300Y-86846626D01*
X96971627Y-86829298D01*
X96985241Y-86808924D01*
X96994618Y-86786285D01*
X96999398Y-86762251D01*
X96999398Y-86737747D01*
X96994617Y-86713713D01*
X96985240Y-86691075D01*
X96971626Y-86670700D01*
X96954298Y-86653373D01*
X96933924Y-86639759D01*
X96911285Y-86630382D01*
X96887253Y-86625602D01*
X96875551Y-86624449D01*
X96875000Y-86618859D01*
X96875000Y-86381141D01*
X96875551Y-86375551D01*
X96887253Y-86374398D01*
X96911287Y-86369617D01*
X96933925Y-86360240D01*
X96954300Y-86346626D01*
X96971627Y-86329298D01*
X96985241Y-86308924D01*
X96994618Y-86286285D01*
X96999398Y-86262251D01*
X96999398Y-86237747D01*
X96994617Y-86213713D01*
X96985240Y-86191075D01*
X96971626Y-86170700D01*
X96954298Y-86153373D01*
X96933924Y-86139759D01*
X96911285Y-86130382D01*
X96887253Y-86125602D01*
X96875551Y-86124449D01*
X96875000Y-86118859D01*
X96875000Y-85881141D01*
X96875551Y-85875551D01*
X96887253Y-85874398D01*
X96911287Y-85869617D01*
X96933925Y-85860240D01*
X96954300Y-85846626D01*
X96971627Y-85829298D01*
X96985241Y-85808924D01*
X96994618Y-85786285D01*
X96999398Y-85762251D01*
X96999398Y-85737747D01*
X96994617Y-85713713D01*
X96985240Y-85691075D01*
X96971626Y-85670700D01*
X96954298Y-85653373D01*
X96933924Y-85639759D01*
X96911285Y-85630382D01*
X96887253Y-85625602D01*
X96875551Y-85624449D01*
X96875000Y-85618859D01*
X96875000Y-85381141D01*
X96875551Y-85375551D01*
X96887253Y-85374398D01*
X96911287Y-85369617D01*
X96933925Y-85360240D01*
X96954300Y-85346626D01*
X96971627Y-85329298D01*
X96985241Y-85308924D01*
X96994618Y-85286285D01*
X96999398Y-85262251D01*
X96999398Y-85237747D01*
X96994617Y-85213713D01*
X96985240Y-85191075D01*
X96971626Y-85170700D01*
X96954298Y-85153373D01*
X96933924Y-85139759D01*
X96911285Y-85130382D01*
X96887253Y-85125602D01*
X96875551Y-85124449D01*
X96875000Y-85118859D01*
X96875000Y-84881141D01*
X96875551Y-84875551D01*
X96887253Y-84874398D01*
X96911287Y-84869617D01*
X96933925Y-84860240D01*
X96954300Y-84846626D01*
X96971627Y-84829298D01*
X96985241Y-84808924D01*
X96994618Y-84786285D01*
X96999398Y-84762251D01*
X96999398Y-84737747D01*
X96994617Y-84713713D01*
X96985240Y-84691075D01*
X96971626Y-84670700D01*
X96954298Y-84653373D01*
X96933924Y-84639759D01*
X96911285Y-84630382D01*
X96887253Y-84625602D01*
X96875551Y-84624449D01*
X96875000Y-84618859D01*
X96875000Y-84381141D01*
X96875551Y-84375551D01*
X96887253Y-84374398D01*
X96911287Y-84369617D01*
X96933925Y-84360240D01*
X96954300Y-84346626D01*
X96971627Y-84329298D01*
X96985241Y-84308924D01*
X96994618Y-84286285D01*
X96999398Y-84262251D01*
X96999398Y-84237747D01*
X96994617Y-84213713D01*
X96985240Y-84191075D01*
X96971626Y-84170700D01*
X96954298Y-84153373D01*
X96933924Y-84139759D01*
X96911285Y-84130382D01*
X96887253Y-84125602D01*
X96875551Y-84124449D01*
X96875000Y-84118859D01*
X96875000Y-83881141D01*
X96875551Y-83875551D01*
X96881141Y-83875000D01*
X97750000Y-83875000D01*
X97750000Y-84118859D01*
X97750000Y-84118859D01*
G37*
G36*
X155259024Y-86528955D02*
X155291736Y-86538879D01*
X155321890Y-86554997D01*
X155348316Y-86576684D01*
X155370003Y-86603110D01*
X155386121Y-86633264D01*
X155396045Y-86665976D01*
X155400000Y-86706138D01*
X155400000Y-87293862D01*
X155396045Y-87334024D01*
X155386121Y-87366736D01*
X155370003Y-87396890D01*
X155348316Y-87423316D01*
X155321890Y-87445003D01*
X155291736Y-87461121D01*
X155259024Y-87471045D01*
X155218862Y-87475000D01*
X154531138Y-87475000D01*
X154490976Y-87471045D01*
X154458264Y-87461121D01*
X154428110Y-87445003D01*
X154401684Y-87423316D01*
X154379997Y-87396890D01*
X154363879Y-87366736D01*
X154353955Y-87334024D01*
X154350000Y-87293862D01*
X154350000Y-86706138D01*
X154353955Y-86665976D01*
X154363879Y-86633264D01*
X154379997Y-86603110D01*
X154401684Y-86576684D01*
X154428110Y-86554997D01*
X154458264Y-86538879D01*
X154490976Y-86528955D01*
X154531138Y-86525000D01*
X155218862Y-86525000D01*
X155259024Y-86528955D01*
X155259024Y-86528955D01*
G37*
G36*
X153509024Y-86528955D02*
X153541736Y-86538879D01*
X153571890Y-86554997D01*
X153598316Y-86576684D01*
X153620003Y-86603110D01*
X153636121Y-86633264D01*
X153646045Y-86665976D01*
X153650000Y-86706138D01*
X153650000Y-87293862D01*
X153646045Y-87334024D01*
X153636121Y-87366736D01*
X153620003Y-87396890D01*
X153598316Y-87423316D01*
X153571890Y-87445003D01*
X153541736Y-87461121D01*
X153509024Y-87471045D01*
X153468862Y-87475000D01*
X152781138Y-87475000D01*
X152740976Y-87471045D01*
X152708264Y-87461121D01*
X152678110Y-87445003D01*
X152651684Y-87423316D01*
X152629997Y-87396890D01*
X152613879Y-87366736D01*
X152603955Y-87334024D01*
X152600000Y-87293862D01*
X152600000Y-86706138D01*
X152603955Y-86665976D01*
X152613879Y-86633264D01*
X152629997Y-86603110D01*
X152651684Y-86576684D01*
X152678110Y-86554997D01*
X152708264Y-86538879D01*
X152740976Y-86528955D01*
X152781138Y-86525000D01*
X153468862Y-86525000D01*
X153509024Y-86528955D01*
X153509024Y-86528955D01*
G37*
G36*
X95834024Y-86353955D02*
X95866736Y-86363879D01*
X95896890Y-86379997D01*
X95923316Y-86401684D01*
X95945003Y-86428110D01*
X95961121Y-86458264D01*
X95971045Y-86490976D01*
X95975000Y-86531138D01*
X95975000Y-87218862D01*
X95971045Y-87259024D01*
X95961121Y-87291736D01*
X95945003Y-87321890D01*
X95923316Y-87348316D01*
X95896890Y-87370003D01*
X95866736Y-87386121D01*
X95834024Y-87396045D01*
X95793862Y-87400000D01*
X95206138Y-87400000D01*
X95165976Y-87396045D01*
X95133264Y-87386121D01*
X95103110Y-87370003D01*
X95076684Y-87348316D01*
X95054997Y-87321890D01*
X95038879Y-87291736D01*
X95028955Y-87259024D01*
X95025000Y-87218862D01*
X95025000Y-86531138D01*
X95028955Y-86490976D01*
X95038879Y-86458264D01*
X95054997Y-86428110D01*
X95076684Y-86401684D01*
X95103110Y-86379997D01*
X95133264Y-86363879D01*
X95165976Y-86353955D01*
X95206138Y-86350000D01*
X95793862Y-86350000D01*
X95834024Y-86353955D01*
X95834024Y-86353955D01*
G37*
G36*
X101183043Y-84203382D02*
X101210155Y-84211607D01*
X101235154Y-84224969D01*
X101257056Y-84242944D01*
X101275031Y-84264846D01*
X101288393Y-84289845D01*
X101296618Y-84316957D01*
X101300000Y-84351300D01*
X101300000Y-87148700D01*
X101296618Y-87183043D01*
X101288393Y-87210155D01*
X101275031Y-87235154D01*
X101257056Y-87257056D01*
X101235154Y-87275031D01*
X101210155Y-87288393D01*
X101183043Y-87296618D01*
X101148700Y-87300000D01*
X98351300Y-87300000D01*
X98316957Y-87296618D01*
X98289845Y-87288393D01*
X98264846Y-87275031D01*
X98242944Y-87257056D01*
X98224969Y-87235154D01*
X98211607Y-87210155D01*
X98203382Y-87183043D01*
X98200000Y-87148700D01*
X98200000Y-84351300D01*
X98203382Y-84316957D01*
X98211607Y-84289845D01*
X98224969Y-84264846D01*
X98242944Y-84242944D01*
X98264846Y-84224969D01*
X98289845Y-84211607D01*
X98316957Y-84203382D01*
X98351300Y-84200000D01*
X101148700Y-84200000D01*
X101183043Y-84203382D01*
X101183043Y-84203382D01*
G37*
G36*
X159600000Y-87050000D02*
X158970000Y-87050000D01*
X158970000Y-86390000D01*
X159600000Y-86390000D01*
X159600000Y-87050000D01*
X159600000Y-87050000D01*
G37*
G36*
X85600000Y-86625000D02*
X80938092Y-86625000D01*
X80922835Y-86616845D01*
X80911285Y-86612712D01*
X80875025Y-86601713D01*
X80844847Y-86585582D01*
X80818566Y-86571535D01*
X80769079Y-86530921D01*
X80728465Y-86481434D01*
X80718406Y-86462614D01*
X80698285Y-86424972D01*
X80679702Y-86363712D01*
X80673428Y-86300000D01*
X80679702Y-86236288D01*
X80698285Y-86175028D01*
X80722149Y-86130382D01*
X80728465Y-86118566D01*
X80769079Y-86069079D01*
X80818566Y-86028465D01*
X80844847Y-86014418D01*
X80875025Y-85998287D01*
X80911285Y-85987288D01*
X80933924Y-85977910D01*
X80938279Y-85975000D01*
X85600000Y-85975000D01*
X85600000Y-86625000D01*
X85600000Y-86625000D01*
G37*
G36*
X104834024Y-84853955D02*
X104866736Y-84863879D01*
X104896890Y-84879997D01*
X104923316Y-84901684D01*
X104945003Y-84928110D01*
X104961121Y-84958264D01*
X104971045Y-84990976D01*
X104975000Y-85031138D01*
X104975000Y-85718862D01*
X104971045Y-85759024D01*
X104961121Y-85791736D01*
X104945003Y-85821890D01*
X104923316Y-85848316D01*
X104896890Y-85870003D01*
X104866736Y-85886121D01*
X104834024Y-85896045D01*
X104793862Y-85900000D01*
X104206138Y-85900000D01*
X104165976Y-85896045D01*
X104133264Y-85886121D01*
X104103110Y-85870003D01*
X104076684Y-85848316D01*
X104054997Y-85821890D01*
X104038879Y-85791736D01*
X104028955Y-85759024D01*
X104025000Y-85718862D01*
X104025000Y-85031138D01*
X104028955Y-84990976D01*
X104038879Y-84958264D01*
X104054997Y-84928110D01*
X104076684Y-84901684D01*
X104103110Y-84879997D01*
X104133264Y-84863879D01*
X104165976Y-84853955D01*
X104206138Y-84850000D01*
X104793862Y-84850000D01*
X104834024Y-84853955D01*
X104834024Y-84853955D01*
G37*
G36*
X95834024Y-84603955D02*
X95866736Y-84613879D01*
X95896890Y-84629997D01*
X95923316Y-84651684D01*
X95945003Y-84678110D01*
X95961121Y-84708264D01*
X95971045Y-84740976D01*
X95975000Y-84781138D01*
X95975000Y-85468862D01*
X95971045Y-85509024D01*
X95961121Y-85541736D01*
X95945003Y-85571890D01*
X95923316Y-85598316D01*
X95896890Y-85620003D01*
X95866736Y-85636121D01*
X95834024Y-85646045D01*
X95793862Y-85650000D01*
X95206138Y-85650000D01*
X95165976Y-85646045D01*
X95133264Y-85636121D01*
X95103110Y-85620003D01*
X95076684Y-85598316D01*
X95054997Y-85571890D01*
X95038879Y-85541736D01*
X95028955Y-85509024D01*
X95025000Y-85468862D01*
X95025000Y-84781138D01*
X95028955Y-84740976D01*
X95038879Y-84708264D01*
X95054997Y-84678110D01*
X95076684Y-84651684D01*
X95103110Y-84629997D01*
X95133264Y-84613879D01*
X95165976Y-84603955D01*
X95206138Y-84600000D01*
X95793862Y-84600000D01*
X95834024Y-84603955D01*
X95834024Y-84603955D01*
G37*
G36*
X85600000Y-85625000D02*
X80938092Y-85625000D01*
X80922835Y-85616845D01*
X80911285Y-85612712D01*
X80875025Y-85601713D01*
X80835223Y-85580438D01*
X80818566Y-85571535D01*
X80769079Y-85530921D01*
X80728465Y-85481434D01*
X80704982Y-85437500D01*
X80698285Y-85424972D01*
X80679702Y-85363712D01*
X80673428Y-85300000D01*
X80679702Y-85236288D01*
X80698285Y-85175028D01*
X80722149Y-85130382D01*
X80728465Y-85118566D01*
X80769079Y-85069079D01*
X80818566Y-85028465D01*
X80844847Y-85014418D01*
X80875025Y-84998287D01*
X80911285Y-84987288D01*
X80933924Y-84977910D01*
X80938279Y-84975000D01*
X85600000Y-84975000D01*
X85600000Y-85625000D01*
X85600000Y-85625000D01*
G37*
G36*
X85600000Y-84625000D02*
X80938092Y-84625000D01*
X80922835Y-84616845D01*
X80911285Y-84612712D01*
X80875025Y-84601713D01*
X80844847Y-84585582D01*
X80818566Y-84571535D01*
X80769079Y-84530921D01*
X80728465Y-84481434D01*
X80704982Y-84437500D01*
X80698285Y-84424972D01*
X80679702Y-84363712D01*
X80673428Y-84300000D01*
X80679702Y-84236288D01*
X80698285Y-84175028D01*
X80722149Y-84130382D01*
X80728465Y-84118566D01*
X80769079Y-84069079D01*
X80818566Y-84028465D01*
X80865484Y-84003387D01*
X80875025Y-83998287D01*
X80911285Y-83987288D01*
X80933924Y-83977910D01*
X80938279Y-83975000D01*
X85600000Y-83975000D01*
X85600000Y-84625000D01*
X85600000Y-84625000D01*
G37*
G36*
X155334024Y-83353955D02*
X155366736Y-83363879D01*
X155396890Y-83379997D01*
X155423316Y-83401684D01*
X155445003Y-83428110D01*
X155461121Y-83458264D01*
X155471045Y-83490976D01*
X155475000Y-83531138D01*
X155475000Y-84218862D01*
X155471045Y-84259024D01*
X155461121Y-84291736D01*
X155445003Y-84321890D01*
X155423316Y-84348316D01*
X155396890Y-84370003D01*
X155366736Y-84386121D01*
X155334024Y-84396045D01*
X155293862Y-84400000D01*
X154706138Y-84400000D01*
X154665976Y-84396045D01*
X154633264Y-84386121D01*
X154603110Y-84370003D01*
X154576684Y-84348316D01*
X154554997Y-84321890D01*
X154538879Y-84291736D01*
X154528955Y-84259024D01*
X154525000Y-84218862D01*
X154525000Y-83531138D01*
X154528955Y-83490976D01*
X154538879Y-83458264D01*
X154554997Y-83428110D01*
X154576684Y-83401684D01*
X154603110Y-83379997D01*
X154633264Y-83363879D01*
X154665976Y-83353955D01*
X154706138Y-83350000D01*
X155293862Y-83350000D01*
X155334024Y-83353955D01*
X155334024Y-83353955D01*
G37*
G36*
X153334024Y-83353955D02*
X153366736Y-83363879D01*
X153396890Y-83379997D01*
X153423316Y-83401684D01*
X153445003Y-83428110D01*
X153461121Y-83458264D01*
X153471045Y-83490976D01*
X153475000Y-83531138D01*
X153475000Y-84218862D01*
X153471045Y-84259024D01*
X153461121Y-84291736D01*
X153445003Y-84321890D01*
X153423316Y-84348316D01*
X153396890Y-84370003D01*
X153366736Y-84386121D01*
X153334024Y-84396045D01*
X153293862Y-84400000D01*
X152706138Y-84400000D01*
X152665976Y-84396045D01*
X152633264Y-84386121D01*
X152603110Y-84370003D01*
X152576684Y-84348316D01*
X152554997Y-84321890D01*
X152538879Y-84291736D01*
X152528955Y-84259024D01*
X152525000Y-84218862D01*
X152525000Y-83531138D01*
X152528955Y-83490976D01*
X152538879Y-83458264D01*
X152554997Y-83428110D01*
X152576684Y-83401684D01*
X152603110Y-83379997D01*
X152633264Y-83363879D01*
X152665976Y-83353955D01*
X152706138Y-83350000D01*
X153293862Y-83350000D01*
X153334024Y-83353955D01*
X153334024Y-83353955D01*
G37*
G36*
X157334024Y-83353955D02*
X157366736Y-83363879D01*
X157396890Y-83379997D01*
X157423316Y-83401684D01*
X157445003Y-83428110D01*
X157461121Y-83458264D01*
X157471045Y-83490976D01*
X157475000Y-83531138D01*
X157475000Y-84218862D01*
X157471045Y-84259024D01*
X157461121Y-84291736D01*
X157445003Y-84321890D01*
X157423316Y-84348316D01*
X157396890Y-84370003D01*
X157366736Y-84386121D01*
X157334024Y-84396045D01*
X157293862Y-84400000D01*
X156706138Y-84400000D01*
X156665976Y-84396045D01*
X156633264Y-84386121D01*
X156603110Y-84370003D01*
X156576684Y-84348316D01*
X156554997Y-84321890D01*
X156538879Y-84291736D01*
X156528955Y-84259024D01*
X156525000Y-84218862D01*
X156525000Y-83531138D01*
X156528955Y-83490976D01*
X156538879Y-83458264D01*
X156554997Y-83428110D01*
X156576684Y-83401684D01*
X156603110Y-83379997D01*
X156633264Y-83363879D01*
X156665976Y-83353955D01*
X156706138Y-83350000D01*
X157293862Y-83350000D01*
X157334024Y-83353955D01*
X157334024Y-83353955D01*
G37*
G36*
X104834024Y-83103955D02*
X104866736Y-83113879D01*
X104896890Y-83129997D01*
X104923316Y-83151684D01*
X104945003Y-83178110D01*
X104961121Y-83208264D01*
X104971045Y-83240976D01*
X104975000Y-83281138D01*
X104975000Y-83968862D01*
X104971045Y-84009024D01*
X104961121Y-84041736D01*
X104945003Y-84071890D01*
X104923316Y-84098316D01*
X104896890Y-84120003D01*
X104866736Y-84136121D01*
X104834024Y-84146045D01*
X104793862Y-84150000D01*
X104206138Y-84150000D01*
X104165976Y-84146045D01*
X104133264Y-84136121D01*
X104103110Y-84120003D01*
X104076684Y-84098316D01*
X104054997Y-84071890D01*
X104038879Y-84041736D01*
X104028955Y-84009024D01*
X104025000Y-83968862D01*
X104025000Y-83281138D01*
X104028955Y-83240976D01*
X104038879Y-83208264D01*
X104054997Y-83178110D01*
X104076684Y-83151684D01*
X104103110Y-83129997D01*
X104133264Y-83113879D01*
X104165976Y-83103955D01*
X104206138Y-83100000D01*
X104793862Y-83100000D01*
X104834024Y-83103955D01*
X104834024Y-83103955D01*
G37*
G36*
X98124449Y-82875551D02*
X98125602Y-82887253D01*
X98130383Y-82911287D01*
X98139760Y-82933925D01*
X98153374Y-82954300D01*
X98170702Y-82971627D01*
X98191076Y-82985241D01*
X98213715Y-82994618D01*
X98237749Y-82999398D01*
X98262253Y-82999398D01*
X98286287Y-82994617D01*
X98308925Y-82985240D01*
X98329300Y-82971626D01*
X98346627Y-82954298D01*
X98360241Y-82933924D01*
X98369618Y-82911285D01*
X98374398Y-82887253D01*
X98375551Y-82875551D01*
X98381141Y-82875000D01*
X98618859Y-82875000D01*
X98624449Y-82875551D01*
X98625602Y-82887253D01*
X98630383Y-82911287D01*
X98639760Y-82933925D01*
X98653374Y-82954300D01*
X98670702Y-82971627D01*
X98691076Y-82985241D01*
X98713715Y-82994618D01*
X98737749Y-82999398D01*
X98762253Y-82999398D01*
X98786287Y-82994617D01*
X98808925Y-82985240D01*
X98829300Y-82971626D01*
X98846627Y-82954298D01*
X98860241Y-82933924D01*
X98869618Y-82911285D01*
X98874398Y-82887253D01*
X98875551Y-82875551D01*
X98881141Y-82875000D01*
X99118859Y-82875000D01*
X99124449Y-82875551D01*
X99125602Y-82887253D01*
X99130383Y-82911287D01*
X99139760Y-82933925D01*
X99153374Y-82954300D01*
X99170702Y-82971627D01*
X99191076Y-82985241D01*
X99213715Y-82994618D01*
X99237749Y-82999398D01*
X99262253Y-82999398D01*
X99286287Y-82994617D01*
X99308925Y-82985240D01*
X99329300Y-82971626D01*
X99346627Y-82954298D01*
X99360241Y-82933924D01*
X99369618Y-82911285D01*
X99374398Y-82887253D01*
X99375551Y-82875551D01*
X99381141Y-82875000D01*
X99618859Y-82875000D01*
X99624449Y-82875551D01*
X99625602Y-82887253D01*
X99630383Y-82911287D01*
X99639760Y-82933925D01*
X99653374Y-82954300D01*
X99670702Y-82971627D01*
X99691076Y-82985241D01*
X99713715Y-82994618D01*
X99737749Y-82999398D01*
X99762253Y-82999398D01*
X99786287Y-82994617D01*
X99808925Y-82985240D01*
X99829300Y-82971626D01*
X99846627Y-82954298D01*
X99860241Y-82933924D01*
X99869618Y-82911285D01*
X99874398Y-82887253D01*
X99875551Y-82875551D01*
X99881141Y-82875000D01*
X100118859Y-82875000D01*
X100124449Y-82875551D01*
X100125602Y-82887253D01*
X100130383Y-82911287D01*
X100139760Y-82933925D01*
X100153374Y-82954300D01*
X100170702Y-82971627D01*
X100191076Y-82985241D01*
X100213715Y-82994618D01*
X100237749Y-82999398D01*
X100262253Y-82999398D01*
X100286287Y-82994617D01*
X100308925Y-82985240D01*
X100329300Y-82971626D01*
X100346627Y-82954298D01*
X100360241Y-82933924D01*
X100369618Y-82911285D01*
X100374398Y-82887253D01*
X100375551Y-82875551D01*
X100381141Y-82875000D01*
X100618859Y-82875000D01*
X100624449Y-82875551D01*
X100625602Y-82887253D01*
X100630383Y-82911287D01*
X100639760Y-82933925D01*
X100653374Y-82954300D01*
X100670702Y-82971627D01*
X100691076Y-82985241D01*
X100713715Y-82994618D01*
X100737749Y-82999398D01*
X100762253Y-82999398D01*
X100786287Y-82994617D01*
X100808925Y-82985240D01*
X100829300Y-82971626D01*
X100846627Y-82954298D01*
X100860241Y-82933924D01*
X100869618Y-82911285D01*
X100874398Y-82887253D01*
X100875551Y-82875551D01*
X100881141Y-82875000D01*
X101118859Y-82875000D01*
X101124449Y-82875551D01*
X101125602Y-82887253D01*
X101130383Y-82911287D01*
X101139760Y-82933925D01*
X101153374Y-82954300D01*
X101170702Y-82971627D01*
X101191076Y-82985241D01*
X101213715Y-82994618D01*
X101237749Y-82999398D01*
X101262253Y-82999398D01*
X101286287Y-82994617D01*
X101308925Y-82985240D01*
X101329300Y-82971626D01*
X101346627Y-82954298D01*
X101360241Y-82933924D01*
X101369618Y-82911285D01*
X101374398Y-82887253D01*
X101375551Y-82875551D01*
X101381141Y-82875000D01*
X101618859Y-82875000D01*
X101624449Y-82875551D01*
X101625000Y-82881141D01*
X101625000Y-83750000D01*
X101381141Y-83750000D01*
X101375551Y-83749449D01*
X101374398Y-83737747D01*
X101369617Y-83713713D01*
X101360240Y-83691075D01*
X101346626Y-83670700D01*
X101329298Y-83653373D01*
X101308924Y-83639759D01*
X101286285Y-83630382D01*
X101262251Y-83625602D01*
X101237747Y-83625602D01*
X101213713Y-83630383D01*
X101191075Y-83639760D01*
X101170700Y-83653374D01*
X101153373Y-83670702D01*
X101139759Y-83691076D01*
X101130382Y-83713715D01*
X101125602Y-83737747D01*
X101124449Y-83749449D01*
X101118859Y-83750000D01*
X100881141Y-83750000D01*
X100875551Y-83749449D01*
X100874398Y-83737747D01*
X100869617Y-83713713D01*
X100860240Y-83691075D01*
X100846626Y-83670700D01*
X100829298Y-83653373D01*
X100808924Y-83639759D01*
X100786285Y-83630382D01*
X100762251Y-83625602D01*
X100737747Y-83625602D01*
X100713713Y-83630383D01*
X100691075Y-83639760D01*
X100670700Y-83653374D01*
X100653373Y-83670702D01*
X100639759Y-83691076D01*
X100630382Y-83713715D01*
X100625602Y-83737747D01*
X100624449Y-83749449D01*
X100618859Y-83750000D01*
X100381141Y-83750000D01*
X100375551Y-83749449D01*
X100374398Y-83737747D01*
X100369617Y-83713713D01*
X100360240Y-83691075D01*
X100346626Y-83670700D01*
X100329298Y-83653373D01*
X100308924Y-83639759D01*
X100286285Y-83630382D01*
X100262251Y-83625602D01*
X100237747Y-83625602D01*
X100213713Y-83630383D01*
X100191075Y-83639760D01*
X100170700Y-83653374D01*
X100153373Y-83670702D01*
X100139759Y-83691076D01*
X100130382Y-83713715D01*
X100125602Y-83737747D01*
X100124449Y-83749449D01*
X100118859Y-83750000D01*
X99881141Y-83750000D01*
X99875551Y-83749449D01*
X99874398Y-83737747D01*
X99869617Y-83713713D01*
X99860240Y-83691075D01*
X99846626Y-83670700D01*
X99829298Y-83653373D01*
X99808924Y-83639759D01*
X99786285Y-83630382D01*
X99762251Y-83625602D01*
X99737747Y-83625602D01*
X99713713Y-83630383D01*
X99691075Y-83639760D01*
X99670700Y-83653374D01*
X99653373Y-83670702D01*
X99639759Y-83691076D01*
X99630382Y-83713715D01*
X99625602Y-83737747D01*
X99624449Y-83749449D01*
X99618859Y-83750000D01*
X99381141Y-83750000D01*
X99375551Y-83749449D01*
X99374398Y-83737747D01*
X99369617Y-83713713D01*
X99360240Y-83691075D01*
X99346626Y-83670700D01*
X99329298Y-83653373D01*
X99308924Y-83639759D01*
X99286285Y-83630382D01*
X99262251Y-83625602D01*
X99237747Y-83625602D01*
X99213713Y-83630383D01*
X99191075Y-83639760D01*
X99170700Y-83653374D01*
X99153373Y-83670702D01*
X99139759Y-83691076D01*
X99130382Y-83713715D01*
X99125602Y-83737747D01*
X99124449Y-83749449D01*
X99118859Y-83750000D01*
X98881141Y-83750000D01*
X98875551Y-83749449D01*
X98874398Y-83737747D01*
X98869617Y-83713713D01*
X98860240Y-83691075D01*
X98846626Y-83670700D01*
X98829298Y-83653373D01*
X98808924Y-83639759D01*
X98786285Y-83630382D01*
X98762251Y-83625602D01*
X98737747Y-83625602D01*
X98713713Y-83630383D01*
X98691075Y-83639760D01*
X98670700Y-83653374D01*
X98653373Y-83670702D01*
X98639759Y-83691076D01*
X98630382Y-83713715D01*
X98625602Y-83737747D01*
X98624449Y-83749449D01*
X98618859Y-83750000D01*
X98381141Y-83750000D01*
X98375551Y-83749449D01*
X98374398Y-83737747D01*
X98369617Y-83713713D01*
X98360240Y-83691075D01*
X98346626Y-83670700D01*
X98329298Y-83653373D01*
X98308924Y-83639759D01*
X98286285Y-83630382D01*
X98262251Y-83625602D01*
X98237747Y-83625602D01*
X98213713Y-83630383D01*
X98191075Y-83639760D01*
X98170700Y-83653374D01*
X98153373Y-83670702D01*
X98139759Y-83691076D01*
X98130382Y-83713715D01*
X98125602Y-83737747D01*
X98124449Y-83749449D01*
X98118859Y-83750000D01*
X97875000Y-83750000D01*
X97875000Y-82881141D01*
X97875551Y-82875551D01*
X97881141Y-82875000D01*
X98118859Y-82875000D01*
X98124449Y-82875551D01*
X98124449Y-82875551D01*
G37*
G36*
X157334024Y-81603955D02*
X157366736Y-81613879D01*
X157396890Y-81629997D01*
X157423316Y-81651684D01*
X157445003Y-81678110D01*
X157461121Y-81708264D01*
X157471045Y-81740976D01*
X157475000Y-81781138D01*
X157475000Y-82468862D01*
X157471045Y-82509024D01*
X157461121Y-82541736D01*
X157445003Y-82571890D01*
X157423316Y-82598316D01*
X157396890Y-82620003D01*
X157366736Y-82636121D01*
X157334024Y-82646045D01*
X157293862Y-82650000D01*
X156706138Y-82650000D01*
X156665976Y-82646045D01*
X156633264Y-82636121D01*
X156603110Y-82620003D01*
X156576684Y-82598316D01*
X156554997Y-82571890D01*
X156538879Y-82541736D01*
X156528955Y-82509024D01*
X156525000Y-82468862D01*
X156525000Y-81781138D01*
X156528955Y-81740976D01*
X156538879Y-81708264D01*
X156554997Y-81678110D01*
X156576684Y-81651684D01*
X156603110Y-81629997D01*
X156633264Y-81613879D01*
X156665976Y-81603955D01*
X156706138Y-81600000D01*
X157293862Y-81600000D01*
X157334024Y-81603955D01*
X157334024Y-81603955D01*
G37*
G36*
X155334024Y-81603955D02*
X155366736Y-81613879D01*
X155396890Y-81629997D01*
X155423316Y-81651684D01*
X155445003Y-81678110D01*
X155461121Y-81708264D01*
X155471045Y-81740976D01*
X155475000Y-81781138D01*
X155475000Y-82468862D01*
X155471045Y-82509024D01*
X155461121Y-82541736D01*
X155445003Y-82571890D01*
X155423316Y-82598316D01*
X155396890Y-82620003D01*
X155366736Y-82636121D01*
X155334024Y-82646045D01*
X155293862Y-82650000D01*
X154706138Y-82650000D01*
X154665976Y-82646045D01*
X154633264Y-82636121D01*
X154603110Y-82620003D01*
X154576684Y-82598316D01*
X154554997Y-82571890D01*
X154538879Y-82541736D01*
X154528955Y-82509024D01*
X154525000Y-82468862D01*
X154525000Y-81781138D01*
X154528955Y-81740976D01*
X154538879Y-81708264D01*
X154554997Y-81678110D01*
X154576684Y-81651684D01*
X154603110Y-81629997D01*
X154633264Y-81613879D01*
X154665976Y-81603955D01*
X154706138Y-81600000D01*
X155293862Y-81600000D01*
X155334024Y-81603955D01*
X155334024Y-81603955D01*
G37*
G36*
X153334024Y-81603955D02*
X153366736Y-81613879D01*
X153396890Y-81629997D01*
X153423316Y-81651684D01*
X153445003Y-81678110D01*
X153461121Y-81708264D01*
X153471045Y-81740976D01*
X153475000Y-81781138D01*
X153475000Y-82468862D01*
X153471045Y-82509024D01*
X153461121Y-82541736D01*
X153445003Y-82571890D01*
X153423316Y-82598316D01*
X153396890Y-82620003D01*
X153366736Y-82636121D01*
X153334024Y-82646045D01*
X153293862Y-82650000D01*
X152706138Y-82650000D01*
X152665976Y-82646045D01*
X152633264Y-82636121D01*
X152603110Y-82620003D01*
X152576684Y-82598316D01*
X152554997Y-82571890D01*
X152538879Y-82541736D01*
X152528955Y-82509024D01*
X152525000Y-82468862D01*
X152525000Y-81781138D01*
X152528955Y-81740976D01*
X152538879Y-81708264D01*
X152554997Y-81678110D01*
X152576684Y-81651684D01*
X152603110Y-81629997D01*
X152633264Y-81613879D01*
X152665976Y-81603955D01*
X152706138Y-81600000D01*
X153293862Y-81600000D01*
X153334024Y-81603955D01*
X153334024Y-81603955D01*
G37*
G36*
X115164712Y-76140565D02*
X115249295Y-76148896D01*
X115369727Y-76185429D01*
X115412088Y-76198279D01*
X115562112Y-76278468D01*
X115693612Y-76386388D01*
X115801532Y-76517888D01*
X115881721Y-76667912D01*
X115881722Y-76667916D01*
X115931104Y-76830705D01*
X115947778Y-77000000D01*
X115931104Y-77169295D01*
X115894571Y-77289727D01*
X115881721Y-77332088D01*
X115801532Y-77482112D01*
X115693612Y-77613612D01*
X115562112Y-77721532D01*
X115412088Y-77801721D01*
X115369727Y-77814571D01*
X115249295Y-77851104D01*
X115164712Y-77859435D01*
X115122421Y-77863600D01*
X115037579Y-77863600D01*
X114995288Y-77859435D01*
X114910705Y-77851104D01*
X114790273Y-77814571D01*
X114747912Y-77801721D01*
X114597888Y-77721532D01*
X114466388Y-77613612D01*
X114358468Y-77482112D01*
X114278279Y-77332088D01*
X114265429Y-77289727D01*
X114228896Y-77169295D01*
X114212222Y-77000000D01*
X114228896Y-76830705D01*
X114278278Y-76667916D01*
X114278279Y-76667912D01*
X114358468Y-76517888D01*
X114466388Y-76386388D01*
X114597888Y-76278468D01*
X114747912Y-76198279D01*
X114790273Y-76185429D01*
X114910705Y-76148896D01*
X114995288Y-76140565D01*
X115037579Y-76136400D01*
X115122421Y-76136400D01*
X115164712Y-76140565D01*
X115164712Y-76140565D01*
G37*
G36*
X110863600Y-77863600D02*
X109136400Y-77863600D01*
X109136400Y-76136400D01*
X110863600Y-76136400D01*
X110863600Y-77863600D01*
X110863600Y-77863600D01*
G37*
G36*
X112624712Y-76140565D02*
X112709295Y-76148896D01*
X112829727Y-76185429D01*
X112872088Y-76198279D01*
X113022112Y-76278468D01*
X113153612Y-76386388D01*
X113261532Y-76517888D01*
X113341721Y-76667912D01*
X113341722Y-76667916D01*
X113391104Y-76830705D01*
X113407778Y-77000000D01*
X113391104Y-77169295D01*
X113354571Y-77289727D01*
X113341721Y-77332088D01*
X113261532Y-77482112D01*
X113153612Y-77613612D01*
X113022112Y-77721532D01*
X112872088Y-77801721D01*
X112829727Y-77814571D01*
X112709295Y-77851104D01*
X112624712Y-77859435D01*
X112582421Y-77863600D01*
X112497579Y-77863600D01*
X112455288Y-77859435D01*
X112370705Y-77851104D01*
X112250273Y-77814571D01*
X112207912Y-77801721D01*
X112057888Y-77721532D01*
X111926388Y-77613612D01*
X111818468Y-77482112D01*
X111738279Y-77332088D01*
X111725429Y-77289727D01*
X111688896Y-77169295D01*
X111672222Y-77000000D01*
X111688896Y-76830705D01*
X111738278Y-76667916D01*
X111738279Y-76667912D01*
X111818468Y-76517888D01*
X111926388Y-76386388D01*
X112057888Y-76278468D01*
X112207912Y-76198279D01*
X112250273Y-76185429D01*
X112370705Y-76148896D01*
X112455288Y-76140565D01*
X112497579Y-76136400D01*
X112582421Y-76136400D01*
X112624712Y-76140565D01*
X112624712Y-76140565D01*
G37*
G36*
X155466703Y-73461486D02*
X155757883Y-73582097D01*
X156019944Y-73757201D01*
X156242799Y-73980056D01*
X156417903Y-74242117D01*
X156538514Y-74533297D01*
X156600000Y-74842412D01*
X156600000Y-75157588D01*
X156538514Y-75466703D01*
X156417903Y-75757883D01*
X156242799Y-76019944D01*
X156019944Y-76242799D01*
X155757883Y-76417903D01*
X155466703Y-76538514D01*
X155157588Y-76600000D01*
X154842412Y-76600000D01*
X154533297Y-76538514D01*
X154242117Y-76417903D01*
X153980056Y-76242799D01*
X153757201Y-76019944D01*
X153582097Y-75757883D01*
X153461486Y-75466703D01*
X153400000Y-75157588D01*
X153400000Y-74842412D01*
X153461486Y-74533297D01*
X153582097Y-74242117D01*
X153757201Y-73980056D01*
X153980056Y-73757201D01*
X154242117Y-73582097D01*
X154533297Y-73461486D01*
X154842412Y-73400000D01*
X155157588Y-73400000D01*
X155466703Y-73461486D01*
X155466703Y-73461486D01*
G37*
G36*
X112624712Y-73600565D02*
X112709295Y-73608896D01*
X112829727Y-73645429D01*
X112872088Y-73658279D01*
X113022112Y-73738468D01*
X113153612Y-73846388D01*
X113261532Y-73977888D01*
X113341721Y-74127912D01*
X113341722Y-74127916D01*
X113391104Y-74290705D01*
X113407778Y-74460000D01*
X113391104Y-74629295D01*
X113354571Y-74749727D01*
X113341721Y-74792088D01*
X113261532Y-74942112D01*
X113153612Y-75073612D01*
X113022112Y-75181532D01*
X112872088Y-75261721D01*
X112829727Y-75274571D01*
X112709295Y-75311104D01*
X112624712Y-75319435D01*
X112582421Y-75323600D01*
X112497579Y-75323600D01*
X112455288Y-75319435D01*
X112370705Y-75311104D01*
X112250273Y-75274571D01*
X112207912Y-75261721D01*
X112057888Y-75181532D01*
X111926388Y-75073612D01*
X111818468Y-74942112D01*
X111738279Y-74792088D01*
X111725429Y-74749727D01*
X111688896Y-74629295D01*
X111672222Y-74460000D01*
X111688896Y-74290705D01*
X111738278Y-74127916D01*
X111738279Y-74127912D01*
X111818468Y-73977888D01*
X111926388Y-73846388D01*
X112057888Y-73738468D01*
X112207912Y-73658279D01*
X112250273Y-73645429D01*
X112370705Y-73608896D01*
X112455288Y-73600565D01*
X112497579Y-73596400D01*
X112582421Y-73596400D01*
X112624712Y-73600565D01*
X112624712Y-73600565D01*
G37*
G36*
X115164712Y-73600565D02*
X115249295Y-73608896D01*
X115369727Y-73645429D01*
X115412088Y-73658279D01*
X115562112Y-73738468D01*
X115693612Y-73846388D01*
X115801532Y-73977888D01*
X115881721Y-74127912D01*
X115881722Y-74127916D01*
X115931104Y-74290705D01*
X115947778Y-74460000D01*
X115931104Y-74629295D01*
X115894571Y-74749727D01*
X115881721Y-74792088D01*
X115801532Y-74942112D01*
X115693612Y-75073612D01*
X115562112Y-75181532D01*
X115412088Y-75261721D01*
X115369727Y-75274571D01*
X115249295Y-75311104D01*
X115164712Y-75319435D01*
X115122421Y-75323600D01*
X115037579Y-75323600D01*
X114995288Y-75319435D01*
X114910705Y-75311104D01*
X114790273Y-75274571D01*
X114747912Y-75261721D01*
X114597888Y-75181532D01*
X114466388Y-75073612D01*
X114358468Y-74942112D01*
X114278279Y-74792088D01*
X114265429Y-74749727D01*
X114228896Y-74629295D01*
X114212222Y-74460000D01*
X114228896Y-74290705D01*
X114278278Y-74127916D01*
X114278279Y-74127912D01*
X114358468Y-73977888D01*
X114466388Y-73846388D01*
X114597888Y-73738468D01*
X114747912Y-73658279D01*
X114790273Y-73645429D01*
X114910705Y-73608896D01*
X114995288Y-73600565D01*
X115037579Y-73596400D01*
X115122421Y-73596400D01*
X115164712Y-73600565D01*
X115164712Y-73600565D01*
G37*
G36*
X110084712Y-73600565D02*
X110169295Y-73608896D01*
X110289727Y-73645429D01*
X110332088Y-73658279D01*
X110482112Y-73738468D01*
X110613612Y-73846388D01*
X110721532Y-73977888D01*
X110801721Y-74127912D01*
X110801722Y-74127916D01*
X110851104Y-74290705D01*
X110867778Y-74460000D01*
X110851104Y-74629295D01*
X110814571Y-74749727D01*
X110801721Y-74792088D01*
X110721532Y-74942112D01*
X110613612Y-75073612D01*
X110482112Y-75181532D01*
X110332088Y-75261721D01*
X110289727Y-75274571D01*
X110169295Y-75311104D01*
X110084712Y-75319435D01*
X110042421Y-75323600D01*
X109957579Y-75323600D01*
X109915288Y-75319435D01*
X109830705Y-75311104D01*
X109710273Y-75274571D01*
X109667912Y-75261721D01*
X109517888Y-75181532D01*
X109386388Y-75073612D01*
X109278468Y-74942112D01*
X109198279Y-74792088D01*
X109185429Y-74749727D01*
X109148896Y-74629295D01*
X109132222Y-74460000D01*
X109148896Y-74290705D01*
X109198278Y-74127916D01*
X109198279Y-74127912D01*
X109278468Y-73977888D01*
X109386388Y-73846388D01*
X109517888Y-73738468D01*
X109667912Y-73658279D01*
X109710273Y-73645429D01*
X109830705Y-73608896D01*
X109915288Y-73600565D01*
X109957579Y-73596400D01*
X110042421Y-73596400D01*
X110084712Y-73600565D01*
X110084712Y-73600565D01*
G37*
G36*
X123334024Y-73353955D02*
X123366736Y-73363879D01*
X123396890Y-73379997D01*
X123423316Y-73401684D01*
X123445003Y-73428110D01*
X123461121Y-73458264D01*
X123471045Y-73490976D01*
X123475000Y-73531138D01*
X123475000Y-74218862D01*
X123471045Y-74259024D01*
X123461121Y-74291736D01*
X123445003Y-74321890D01*
X123423316Y-74348316D01*
X123396890Y-74370003D01*
X123366736Y-74386121D01*
X123334024Y-74396045D01*
X123293862Y-74400000D01*
X122706138Y-74400000D01*
X122665976Y-74396045D01*
X122633264Y-74386121D01*
X122603110Y-74370003D01*
X122576684Y-74348316D01*
X122554997Y-74321890D01*
X122538879Y-74291736D01*
X122528955Y-74259024D01*
X122525000Y-74218862D01*
X122525000Y-73531138D01*
X122528955Y-73490976D01*
X122538879Y-73458264D01*
X122554997Y-73428110D01*
X122576684Y-73401684D01*
X122603110Y-73379997D01*
X122633264Y-73363879D01*
X122665976Y-73353955D01*
X122706138Y-73350000D01*
X123293862Y-73350000D01*
X123334024Y-73353955D01*
X123334024Y-73353955D01*
G37*
G36*
X137326630Y-72162299D02*
X137486855Y-72210903D01*
X137634520Y-72289831D01*
X137763949Y-72396051D01*
X137870169Y-72525480D01*
X137949097Y-72673145D01*
X137997701Y-72833370D01*
X138014112Y-73000000D01*
X137997701Y-73166630D01*
X137949097Y-73326855D01*
X137870169Y-73474520D01*
X137763949Y-73603949D01*
X137634520Y-73710169D01*
X137486855Y-73789097D01*
X137326630Y-73837701D01*
X137201752Y-73850000D01*
X137118248Y-73850000D01*
X136993370Y-73837701D01*
X136833145Y-73789097D01*
X136685480Y-73710169D01*
X136556051Y-73603949D01*
X136449831Y-73474520D01*
X136370903Y-73326855D01*
X136322299Y-73166630D01*
X136305888Y-73000000D01*
X136322299Y-72833370D01*
X136370903Y-72673145D01*
X136449831Y-72525480D01*
X136556051Y-72396051D01*
X136685480Y-72289831D01*
X136833145Y-72210903D01*
X136993370Y-72162299D01*
X137118248Y-72150000D01*
X137201752Y-72150000D01*
X137326630Y-72162299D01*
X137326630Y-72162299D01*
G37*
G36*
X134786630Y-72162299D02*
X134946855Y-72210903D01*
X135094520Y-72289831D01*
X135223949Y-72396051D01*
X135330169Y-72525480D01*
X135409097Y-72673145D01*
X135457701Y-72833370D01*
X135474112Y-73000000D01*
X135457701Y-73166630D01*
X135409097Y-73326855D01*
X135330169Y-73474520D01*
X135223949Y-73603949D01*
X135094520Y-73710169D01*
X134946855Y-73789097D01*
X134786630Y-73837701D01*
X134661752Y-73850000D01*
X134578248Y-73850000D01*
X134453370Y-73837701D01*
X134293145Y-73789097D01*
X134145480Y-73710169D01*
X134016051Y-73603949D01*
X133909831Y-73474520D01*
X133830903Y-73326855D01*
X133782299Y-73166630D01*
X133765888Y-73000000D01*
X133782299Y-72833370D01*
X133830903Y-72673145D01*
X133909831Y-72525480D01*
X134016051Y-72396051D01*
X134145480Y-72289831D01*
X134293145Y-72210903D01*
X134453370Y-72162299D01*
X134578248Y-72150000D01*
X134661752Y-72150000D01*
X134786630Y-72162299D01*
X134786630Y-72162299D01*
G37*
G36*
X132246630Y-72162299D02*
X132406855Y-72210903D01*
X132554520Y-72289831D01*
X132683949Y-72396051D01*
X132790169Y-72525480D01*
X132869097Y-72673145D01*
X132917701Y-72833370D01*
X132934112Y-73000000D01*
X132917701Y-73166630D01*
X132869097Y-73326855D01*
X132790169Y-73474520D01*
X132683949Y-73603949D01*
X132554520Y-73710169D01*
X132406855Y-73789097D01*
X132246630Y-73837701D01*
X132121752Y-73850000D01*
X132038248Y-73850000D01*
X131913370Y-73837701D01*
X131753145Y-73789097D01*
X131605480Y-73710169D01*
X131476051Y-73603949D01*
X131369831Y-73474520D01*
X131290903Y-73326855D01*
X131242299Y-73166630D01*
X131225888Y-73000000D01*
X131242299Y-72833370D01*
X131290903Y-72673145D01*
X131369831Y-72525480D01*
X131476051Y-72396051D01*
X131605480Y-72289831D01*
X131753145Y-72210903D01*
X131913370Y-72162299D01*
X132038248Y-72150000D01*
X132121752Y-72150000D01*
X132246630Y-72162299D01*
X132246630Y-72162299D01*
G37*
G36*
X129706630Y-72162299D02*
X129866855Y-72210903D01*
X130014520Y-72289831D01*
X130143949Y-72396051D01*
X130250169Y-72525480D01*
X130329097Y-72673145D01*
X130377701Y-72833370D01*
X130394112Y-73000000D01*
X130377701Y-73166630D01*
X130329097Y-73326855D01*
X130250169Y-73474520D01*
X130143949Y-73603949D01*
X130014520Y-73710169D01*
X129866855Y-73789097D01*
X129706630Y-73837701D01*
X129581752Y-73850000D01*
X129498248Y-73850000D01*
X129373370Y-73837701D01*
X129213145Y-73789097D01*
X129065480Y-73710169D01*
X128936051Y-73603949D01*
X128829831Y-73474520D01*
X128750903Y-73326855D01*
X128702299Y-73166630D01*
X128685888Y-73000000D01*
X128702299Y-72833370D01*
X128750903Y-72673145D01*
X128829831Y-72525480D01*
X128936051Y-72396051D01*
X129065480Y-72289831D01*
X129213145Y-72210903D01*
X129373370Y-72162299D01*
X129498248Y-72150000D01*
X129581752Y-72150000D01*
X129706630Y-72162299D01*
X129706630Y-72162299D01*
G37*
G36*
X127850000Y-73850000D02*
X126150000Y-73850000D01*
X126150000Y-72150000D01*
X127850000Y-72150000D01*
X127850000Y-73850000D01*
X127850000Y-73850000D01*
G37*
G36*
X139866630Y-72162299D02*
X140026855Y-72210903D01*
X140174520Y-72289831D01*
X140303949Y-72396051D01*
X140410169Y-72525480D01*
X140489097Y-72673145D01*
X140537701Y-72833370D01*
X140554112Y-73000000D01*
X140537701Y-73166630D01*
X140489097Y-73326855D01*
X140410169Y-73474520D01*
X140303949Y-73603949D01*
X140174520Y-73710169D01*
X140026855Y-73789097D01*
X139866630Y-73837701D01*
X139741752Y-73850000D01*
X139658248Y-73850000D01*
X139533370Y-73837701D01*
X139373145Y-73789097D01*
X139225480Y-73710169D01*
X139096051Y-73603949D01*
X138989831Y-73474520D01*
X138910903Y-73326855D01*
X138862299Y-73166630D01*
X138845888Y-73000000D01*
X138862299Y-72833370D01*
X138910903Y-72673145D01*
X138989831Y-72525480D01*
X139096051Y-72396051D01*
X139225480Y-72289831D01*
X139373145Y-72210903D01*
X139533370Y-72162299D01*
X139658248Y-72150000D01*
X139741752Y-72150000D01*
X139866630Y-72162299D01*
X139866630Y-72162299D01*
G37*
G36*
X123334024Y-71603955D02*
X123366736Y-71613879D01*
X123396890Y-71629997D01*
X123423316Y-71651684D01*
X123445003Y-71678110D01*
X123461121Y-71708264D01*
X123471045Y-71740976D01*
X123475000Y-71781138D01*
X123475000Y-72468862D01*
X123471045Y-72509024D01*
X123461121Y-72541736D01*
X123445003Y-72571890D01*
X123423316Y-72598316D01*
X123396890Y-72620003D01*
X123366736Y-72636121D01*
X123334024Y-72646045D01*
X123293862Y-72650000D01*
X122706138Y-72650000D01*
X122665976Y-72646045D01*
X122633264Y-72636121D01*
X122603110Y-72620003D01*
X122576684Y-72598316D01*
X122554997Y-72571890D01*
X122538879Y-72541736D01*
X122528955Y-72509024D01*
X122525000Y-72468862D01*
X122525000Y-71781138D01*
X122528955Y-71740976D01*
X122538879Y-71708264D01*
X122554997Y-71678110D01*
X122576684Y-71651684D01*
X122603110Y-71629997D01*
X122633264Y-71613879D01*
X122665976Y-71603955D01*
X122706138Y-71600000D01*
X123293862Y-71600000D01*
X123334024Y-71603955D01*
X123334024Y-71603955D01*
G37*
M02*
