G04 #@! TF.GenerationSoftware,KiCad,Pcbnew,5.0.2+dfsg1-1*
G04 #@! TF.CreationDate,2021-07-01T00:07:39-05:00*
G04 #@! TF.ProjectId,backplane,6261636b-706c-4616-9e65-2e6b69636164,rev?*
G04 #@! TF.SameCoordinates,Original*
G04 #@! TF.FileFunction,Copper,L1,Top*
G04 #@! TF.FilePolarity,Positive*
%FSLAX46Y46*%
G04 Gerber Fmt 4.6, Leading zero omitted, Abs format (unit mm)*
G04 Created by KiCad (PCBNEW 5.0.2+dfsg1-1) date Thu 01 Jul 2021 12:07:39 AM CDT*
%MOMM*%
%LPD*%
G01*
G04 APERTURE LIST*
G04 #@! TA.AperFunction,SMDPad,CuDef*
%ADD10R,0.800000X0.800000*%
G04 #@! TD*
G04 #@! TA.AperFunction,ComponentPad*
%ADD11R,2.500000X2.500000*%
G04 #@! TD*
G04 #@! TA.AperFunction,ComponentPad*
%ADD12C,2.500000*%
G04 #@! TD*
G04 #@! TA.AperFunction,ComponentPad*
%ADD13C,1.100000*%
G04 #@! TD*
G04 #@! TA.AperFunction,Conductor*
%ADD14C,0.100000*%
G04 #@! TD*
G04 #@! TA.AperFunction,SMDPad,CuDef*
%ADD15C,0.950000*%
G04 #@! TD*
G04 #@! TA.AperFunction,ComponentPad*
%ADD16C,1.168400*%
G04 #@! TD*
G04 #@! TA.AperFunction,ComponentPad*
%ADD17C,1.473200*%
G04 #@! TD*
G04 #@! TA.AperFunction,ViaPad*
%ADD18C,0.800000*%
G04 #@! TD*
G04 #@! TA.AperFunction,Conductor*
%ADD19C,1.000000*%
G04 #@! TD*
G04 #@! TA.AperFunction,Conductor*
%ADD20C,0.250000*%
G04 #@! TD*
G04 #@! TA.AperFunction,Conductor*
%ADD21C,0.254000*%
G04 #@! TD*
G04 APERTURE END LIST*
D10*
G04 #@! TO.P,D2,2*
G04 #@! TO.N,+24V*
X123000000Y-59250000D03*
G04 #@! TO.P,D2,1*
G04 #@! TO.N,Net-(D2-Pad1)*
X123000000Y-60750000D03*
G04 #@! TD*
G04 #@! TO.P,D4,1*
G04 #@! TO.N,Net-(D4-Pad1)*
X123000000Y-78750000D03*
G04 #@! TO.P,D4,2*
G04 #@! TO.N,+24V*
X123000000Y-77250000D03*
G04 #@! TD*
D11*
G04 #@! TO.P,J1,1*
G04 #@! TO.N,GND*
X119000000Y-62000000D03*
D12*
G04 #@! TO.P,J1,2*
G04 #@! TO.N,+24V*
X119000000Y-57000000D03*
G04 #@! TD*
D13*
G04 #@! TO.P,J2,1*
G04 #@! TO.N,/SS1*
X155000000Y-69000000D03*
G04 #@! TO.P,J2,2*
G04 #@! TO.N,+5V*
X153730000Y-69000000D03*
G04 #@! TO.P,J2,3*
G04 #@! TO.N,/CP1*
X155000000Y-70270000D03*
G04 #@! TO.P,J2,4*
G04 #@! TO.N,/MOSI*
X153730000Y-70270000D03*
G04 #@! TO.P,J2,5*
G04 #@! TO.N,+5V*
X155000000Y-71540000D03*
G04 #@! TO.P,J2,6*
G04 #@! TO.N,/MISO*
X153730000Y-71540000D03*
G04 #@! TO.P,J2,7*
G04 #@! TO.N,/CP2*
X155000000Y-72810000D03*
G04 #@! TO.P,J2,8*
G04 #@! TO.N,/SCK*
X153730000Y-72810000D03*
G04 #@! TO.P,J2,9*
G04 #@! TO.N,/SS2*
X155000000Y-74080000D03*
G04 #@! TO.P,J2,10*
G04 #@! TO.N,GND*
X153730000Y-74080000D03*
G04 #@! TD*
D14*
G04 #@! TO.N,Net-(J3-PadA1)*
G04 #@! TO.C,R2*
G36*
X123260779Y-64351144D02*
X123283834Y-64354563D01*
X123306443Y-64360227D01*
X123328387Y-64368079D01*
X123349457Y-64378044D01*
X123369448Y-64390026D01*
X123388168Y-64403910D01*
X123405438Y-64419562D01*
X123421090Y-64436832D01*
X123434974Y-64455552D01*
X123446956Y-64475543D01*
X123456921Y-64496613D01*
X123464773Y-64518557D01*
X123470437Y-64541166D01*
X123473856Y-64564221D01*
X123475000Y-64587500D01*
X123475000Y-65162500D01*
X123473856Y-65185779D01*
X123470437Y-65208834D01*
X123464773Y-65231443D01*
X123456921Y-65253387D01*
X123446956Y-65274457D01*
X123434974Y-65294448D01*
X123421090Y-65313168D01*
X123405438Y-65330438D01*
X123388168Y-65346090D01*
X123369448Y-65359974D01*
X123349457Y-65371956D01*
X123328387Y-65381921D01*
X123306443Y-65389773D01*
X123283834Y-65395437D01*
X123260779Y-65398856D01*
X123237500Y-65400000D01*
X122762500Y-65400000D01*
X122739221Y-65398856D01*
X122716166Y-65395437D01*
X122693557Y-65389773D01*
X122671613Y-65381921D01*
X122650543Y-65371956D01*
X122630552Y-65359974D01*
X122611832Y-65346090D01*
X122594562Y-65330438D01*
X122578910Y-65313168D01*
X122565026Y-65294448D01*
X122553044Y-65274457D01*
X122543079Y-65253387D01*
X122535227Y-65231443D01*
X122529563Y-65208834D01*
X122526144Y-65185779D01*
X122525000Y-65162500D01*
X122525000Y-64587500D01*
X122526144Y-64564221D01*
X122529563Y-64541166D01*
X122535227Y-64518557D01*
X122543079Y-64496613D01*
X122553044Y-64475543D01*
X122565026Y-64455552D01*
X122578910Y-64436832D01*
X122594562Y-64419562D01*
X122611832Y-64403910D01*
X122630552Y-64390026D01*
X122650543Y-64378044D01*
X122671613Y-64368079D01*
X122693557Y-64360227D01*
X122716166Y-64354563D01*
X122739221Y-64351144D01*
X122762500Y-64350000D01*
X123237500Y-64350000D01*
X123260779Y-64351144D01*
X123260779Y-64351144D01*
G37*
D15*
G04 #@! TD*
G04 #@! TO.P,R2,2*
G04 #@! TO.N,Net-(J3-PadA1)*
X123000000Y-64875000D03*
D14*
G04 #@! TO.N,Net-(D2-Pad1)*
G04 #@! TO.C,R2*
G36*
X123260779Y-62601144D02*
X123283834Y-62604563D01*
X123306443Y-62610227D01*
X123328387Y-62618079D01*
X123349457Y-62628044D01*
X123369448Y-62640026D01*
X123388168Y-62653910D01*
X123405438Y-62669562D01*
X123421090Y-62686832D01*
X123434974Y-62705552D01*
X123446956Y-62725543D01*
X123456921Y-62746613D01*
X123464773Y-62768557D01*
X123470437Y-62791166D01*
X123473856Y-62814221D01*
X123475000Y-62837500D01*
X123475000Y-63412500D01*
X123473856Y-63435779D01*
X123470437Y-63458834D01*
X123464773Y-63481443D01*
X123456921Y-63503387D01*
X123446956Y-63524457D01*
X123434974Y-63544448D01*
X123421090Y-63563168D01*
X123405438Y-63580438D01*
X123388168Y-63596090D01*
X123369448Y-63609974D01*
X123349457Y-63621956D01*
X123328387Y-63631921D01*
X123306443Y-63639773D01*
X123283834Y-63645437D01*
X123260779Y-63648856D01*
X123237500Y-63650000D01*
X122762500Y-63650000D01*
X122739221Y-63648856D01*
X122716166Y-63645437D01*
X122693557Y-63639773D01*
X122671613Y-63631921D01*
X122650543Y-63621956D01*
X122630552Y-63609974D01*
X122611832Y-63596090D01*
X122594562Y-63580438D01*
X122578910Y-63563168D01*
X122565026Y-63544448D01*
X122553044Y-63524457D01*
X122543079Y-63503387D01*
X122535227Y-63481443D01*
X122529563Y-63458834D01*
X122526144Y-63435779D01*
X122525000Y-63412500D01*
X122525000Y-62837500D01*
X122526144Y-62814221D01*
X122529563Y-62791166D01*
X122535227Y-62768557D01*
X122543079Y-62746613D01*
X122553044Y-62725543D01*
X122565026Y-62705552D01*
X122578910Y-62686832D01*
X122594562Y-62669562D01*
X122611832Y-62653910D01*
X122630552Y-62640026D01*
X122650543Y-62628044D01*
X122671613Y-62618079D01*
X122693557Y-62610227D01*
X122716166Y-62604563D01*
X122739221Y-62601144D01*
X122762500Y-62600000D01*
X123237500Y-62600000D01*
X123260779Y-62601144D01*
X123260779Y-62601144D01*
G37*
D15*
G04 #@! TD*
G04 #@! TO.P,R2,1*
G04 #@! TO.N,Net-(D2-Pad1)*
X123000000Y-63125000D03*
D14*
G04 #@! TO.N,/CP1*
G04 #@! TO.C,R3*
G36*
X155185779Y-61526144D02*
X155208834Y-61529563D01*
X155231443Y-61535227D01*
X155253387Y-61543079D01*
X155274457Y-61553044D01*
X155294448Y-61565026D01*
X155313168Y-61578910D01*
X155330438Y-61594562D01*
X155346090Y-61611832D01*
X155359974Y-61630552D01*
X155371956Y-61650543D01*
X155381921Y-61671613D01*
X155389773Y-61693557D01*
X155395437Y-61716166D01*
X155398856Y-61739221D01*
X155400000Y-61762500D01*
X155400000Y-62237500D01*
X155398856Y-62260779D01*
X155395437Y-62283834D01*
X155389773Y-62306443D01*
X155381921Y-62328387D01*
X155371956Y-62349457D01*
X155359974Y-62369448D01*
X155346090Y-62388168D01*
X155330438Y-62405438D01*
X155313168Y-62421090D01*
X155294448Y-62434974D01*
X155274457Y-62446956D01*
X155253387Y-62456921D01*
X155231443Y-62464773D01*
X155208834Y-62470437D01*
X155185779Y-62473856D01*
X155162500Y-62475000D01*
X154587500Y-62475000D01*
X154564221Y-62473856D01*
X154541166Y-62470437D01*
X154518557Y-62464773D01*
X154496613Y-62456921D01*
X154475543Y-62446956D01*
X154455552Y-62434974D01*
X154436832Y-62421090D01*
X154419562Y-62405438D01*
X154403910Y-62388168D01*
X154390026Y-62369448D01*
X154378044Y-62349457D01*
X154368079Y-62328387D01*
X154360227Y-62306443D01*
X154354563Y-62283834D01*
X154351144Y-62260779D01*
X154350000Y-62237500D01*
X154350000Y-61762500D01*
X154351144Y-61739221D01*
X154354563Y-61716166D01*
X154360227Y-61693557D01*
X154368079Y-61671613D01*
X154378044Y-61650543D01*
X154390026Y-61630552D01*
X154403910Y-61611832D01*
X154419562Y-61594562D01*
X154436832Y-61578910D01*
X154455552Y-61565026D01*
X154475543Y-61553044D01*
X154496613Y-61543079D01*
X154518557Y-61535227D01*
X154541166Y-61529563D01*
X154564221Y-61526144D01*
X154587500Y-61525000D01*
X155162500Y-61525000D01*
X155185779Y-61526144D01*
X155185779Y-61526144D01*
G37*
D15*
G04 #@! TD*
G04 #@! TO.P,R3,2*
G04 #@! TO.N,/CP1*
X154875000Y-62000000D03*
D14*
G04 #@! TO.N,Net-(J3-PadB17)*
G04 #@! TO.C,R3*
G36*
X153435779Y-61526144D02*
X153458834Y-61529563D01*
X153481443Y-61535227D01*
X153503387Y-61543079D01*
X153524457Y-61553044D01*
X153544448Y-61565026D01*
X153563168Y-61578910D01*
X153580438Y-61594562D01*
X153596090Y-61611832D01*
X153609974Y-61630552D01*
X153621956Y-61650543D01*
X153631921Y-61671613D01*
X153639773Y-61693557D01*
X153645437Y-61716166D01*
X153648856Y-61739221D01*
X153650000Y-61762500D01*
X153650000Y-62237500D01*
X153648856Y-62260779D01*
X153645437Y-62283834D01*
X153639773Y-62306443D01*
X153631921Y-62328387D01*
X153621956Y-62349457D01*
X153609974Y-62369448D01*
X153596090Y-62388168D01*
X153580438Y-62405438D01*
X153563168Y-62421090D01*
X153544448Y-62434974D01*
X153524457Y-62446956D01*
X153503387Y-62456921D01*
X153481443Y-62464773D01*
X153458834Y-62470437D01*
X153435779Y-62473856D01*
X153412500Y-62475000D01*
X152837500Y-62475000D01*
X152814221Y-62473856D01*
X152791166Y-62470437D01*
X152768557Y-62464773D01*
X152746613Y-62456921D01*
X152725543Y-62446956D01*
X152705552Y-62434974D01*
X152686832Y-62421090D01*
X152669562Y-62405438D01*
X152653910Y-62388168D01*
X152640026Y-62369448D01*
X152628044Y-62349457D01*
X152618079Y-62328387D01*
X152610227Y-62306443D01*
X152604563Y-62283834D01*
X152601144Y-62260779D01*
X152600000Y-62237500D01*
X152600000Y-61762500D01*
X152601144Y-61739221D01*
X152604563Y-61716166D01*
X152610227Y-61693557D01*
X152618079Y-61671613D01*
X152628044Y-61650543D01*
X152640026Y-61630552D01*
X152653910Y-61611832D01*
X152669562Y-61594562D01*
X152686832Y-61578910D01*
X152705552Y-61565026D01*
X152725543Y-61553044D01*
X152746613Y-61543079D01*
X152768557Y-61535227D01*
X152791166Y-61529563D01*
X152814221Y-61526144D01*
X152837500Y-61525000D01*
X153412500Y-61525000D01*
X153435779Y-61526144D01*
X153435779Y-61526144D01*
G37*
D15*
G04 #@! TD*
G04 #@! TO.P,R3,1*
G04 #@! TO.N,Net-(J3-PadB17)*
X153125000Y-62000000D03*
D14*
G04 #@! TO.N,Net-(D4-Pad1)*
G04 #@! TO.C,R4*
G36*
X123260779Y-80601144D02*
X123283834Y-80604563D01*
X123306443Y-80610227D01*
X123328387Y-80618079D01*
X123349457Y-80628044D01*
X123369448Y-80640026D01*
X123388168Y-80653910D01*
X123405438Y-80669562D01*
X123421090Y-80686832D01*
X123434974Y-80705552D01*
X123446956Y-80725543D01*
X123456921Y-80746613D01*
X123464773Y-80768557D01*
X123470437Y-80791166D01*
X123473856Y-80814221D01*
X123475000Y-80837500D01*
X123475000Y-81412500D01*
X123473856Y-81435779D01*
X123470437Y-81458834D01*
X123464773Y-81481443D01*
X123456921Y-81503387D01*
X123446956Y-81524457D01*
X123434974Y-81544448D01*
X123421090Y-81563168D01*
X123405438Y-81580438D01*
X123388168Y-81596090D01*
X123369448Y-81609974D01*
X123349457Y-81621956D01*
X123328387Y-81631921D01*
X123306443Y-81639773D01*
X123283834Y-81645437D01*
X123260779Y-81648856D01*
X123237500Y-81650000D01*
X122762500Y-81650000D01*
X122739221Y-81648856D01*
X122716166Y-81645437D01*
X122693557Y-81639773D01*
X122671613Y-81631921D01*
X122650543Y-81621956D01*
X122630552Y-81609974D01*
X122611832Y-81596090D01*
X122594562Y-81580438D01*
X122578910Y-81563168D01*
X122565026Y-81544448D01*
X122553044Y-81524457D01*
X122543079Y-81503387D01*
X122535227Y-81481443D01*
X122529563Y-81458834D01*
X122526144Y-81435779D01*
X122525000Y-81412500D01*
X122525000Y-80837500D01*
X122526144Y-80814221D01*
X122529563Y-80791166D01*
X122535227Y-80768557D01*
X122543079Y-80746613D01*
X122553044Y-80725543D01*
X122565026Y-80705552D01*
X122578910Y-80686832D01*
X122594562Y-80669562D01*
X122611832Y-80653910D01*
X122630552Y-80640026D01*
X122650543Y-80628044D01*
X122671613Y-80618079D01*
X122693557Y-80610227D01*
X122716166Y-80604563D01*
X122739221Y-80601144D01*
X122762500Y-80600000D01*
X123237500Y-80600000D01*
X123260779Y-80601144D01*
X123260779Y-80601144D01*
G37*
D15*
G04 #@! TD*
G04 #@! TO.P,R4,1*
G04 #@! TO.N,Net-(D4-Pad1)*
X123000000Y-81125000D03*
D14*
G04 #@! TO.N,Net-(J4-PadA1)*
G04 #@! TO.C,R4*
G36*
X123260779Y-82351144D02*
X123283834Y-82354563D01*
X123306443Y-82360227D01*
X123328387Y-82368079D01*
X123349457Y-82378044D01*
X123369448Y-82390026D01*
X123388168Y-82403910D01*
X123405438Y-82419562D01*
X123421090Y-82436832D01*
X123434974Y-82455552D01*
X123446956Y-82475543D01*
X123456921Y-82496613D01*
X123464773Y-82518557D01*
X123470437Y-82541166D01*
X123473856Y-82564221D01*
X123475000Y-82587500D01*
X123475000Y-83162500D01*
X123473856Y-83185779D01*
X123470437Y-83208834D01*
X123464773Y-83231443D01*
X123456921Y-83253387D01*
X123446956Y-83274457D01*
X123434974Y-83294448D01*
X123421090Y-83313168D01*
X123405438Y-83330438D01*
X123388168Y-83346090D01*
X123369448Y-83359974D01*
X123349457Y-83371956D01*
X123328387Y-83381921D01*
X123306443Y-83389773D01*
X123283834Y-83395437D01*
X123260779Y-83398856D01*
X123237500Y-83400000D01*
X122762500Y-83400000D01*
X122739221Y-83398856D01*
X122716166Y-83395437D01*
X122693557Y-83389773D01*
X122671613Y-83381921D01*
X122650543Y-83371956D01*
X122630552Y-83359974D01*
X122611832Y-83346090D01*
X122594562Y-83330438D01*
X122578910Y-83313168D01*
X122565026Y-83294448D01*
X122553044Y-83274457D01*
X122543079Y-83253387D01*
X122535227Y-83231443D01*
X122529563Y-83208834D01*
X122526144Y-83185779D01*
X122525000Y-83162500D01*
X122525000Y-82587500D01*
X122526144Y-82564221D01*
X122529563Y-82541166D01*
X122535227Y-82518557D01*
X122543079Y-82496613D01*
X122553044Y-82475543D01*
X122565026Y-82455552D01*
X122578910Y-82436832D01*
X122594562Y-82419562D01*
X122611832Y-82403910D01*
X122630552Y-82390026D01*
X122650543Y-82378044D01*
X122671613Y-82368079D01*
X122693557Y-82360227D01*
X122716166Y-82354563D01*
X122739221Y-82351144D01*
X122762500Y-82350000D01*
X123237500Y-82350000D01*
X123260779Y-82351144D01*
X123260779Y-82351144D01*
G37*
D15*
G04 #@! TD*
G04 #@! TO.P,R4,2*
G04 #@! TO.N,Net-(J4-PadA1)*
X123000000Y-82875000D03*
D14*
G04 #@! TO.N,Net-(J4-PadB17)*
G04 #@! TO.C,R5*
G36*
X153435779Y-80526144D02*
X153458834Y-80529563D01*
X153481443Y-80535227D01*
X153503387Y-80543079D01*
X153524457Y-80553044D01*
X153544448Y-80565026D01*
X153563168Y-80578910D01*
X153580438Y-80594562D01*
X153596090Y-80611832D01*
X153609974Y-80630552D01*
X153621956Y-80650543D01*
X153631921Y-80671613D01*
X153639773Y-80693557D01*
X153645437Y-80716166D01*
X153648856Y-80739221D01*
X153650000Y-80762500D01*
X153650000Y-81237500D01*
X153648856Y-81260779D01*
X153645437Y-81283834D01*
X153639773Y-81306443D01*
X153631921Y-81328387D01*
X153621956Y-81349457D01*
X153609974Y-81369448D01*
X153596090Y-81388168D01*
X153580438Y-81405438D01*
X153563168Y-81421090D01*
X153544448Y-81434974D01*
X153524457Y-81446956D01*
X153503387Y-81456921D01*
X153481443Y-81464773D01*
X153458834Y-81470437D01*
X153435779Y-81473856D01*
X153412500Y-81475000D01*
X152837500Y-81475000D01*
X152814221Y-81473856D01*
X152791166Y-81470437D01*
X152768557Y-81464773D01*
X152746613Y-81456921D01*
X152725543Y-81446956D01*
X152705552Y-81434974D01*
X152686832Y-81421090D01*
X152669562Y-81405438D01*
X152653910Y-81388168D01*
X152640026Y-81369448D01*
X152628044Y-81349457D01*
X152618079Y-81328387D01*
X152610227Y-81306443D01*
X152604563Y-81283834D01*
X152601144Y-81260779D01*
X152600000Y-81237500D01*
X152600000Y-80762500D01*
X152601144Y-80739221D01*
X152604563Y-80716166D01*
X152610227Y-80693557D01*
X152618079Y-80671613D01*
X152628044Y-80650543D01*
X152640026Y-80630552D01*
X152653910Y-80611832D01*
X152669562Y-80594562D01*
X152686832Y-80578910D01*
X152705552Y-80565026D01*
X152725543Y-80553044D01*
X152746613Y-80543079D01*
X152768557Y-80535227D01*
X152791166Y-80529563D01*
X152814221Y-80526144D01*
X152837500Y-80525000D01*
X153412500Y-80525000D01*
X153435779Y-80526144D01*
X153435779Y-80526144D01*
G37*
D15*
G04 #@! TD*
G04 #@! TO.P,R5,1*
G04 #@! TO.N,Net-(J4-PadB17)*
X153125000Y-81000000D03*
D14*
G04 #@! TO.N,/CP2*
G04 #@! TO.C,R5*
G36*
X155185779Y-80526144D02*
X155208834Y-80529563D01*
X155231443Y-80535227D01*
X155253387Y-80543079D01*
X155274457Y-80553044D01*
X155294448Y-80565026D01*
X155313168Y-80578910D01*
X155330438Y-80594562D01*
X155346090Y-80611832D01*
X155359974Y-80630552D01*
X155371956Y-80650543D01*
X155381921Y-80671613D01*
X155389773Y-80693557D01*
X155395437Y-80716166D01*
X155398856Y-80739221D01*
X155400000Y-80762500D01*
X155400000Y-81237500D01*
X155398856Y-81260779D01*
X155395437Y-81283834D01*
X155389773Y-81306443D01*
X155381921Y-81328387D01*
X155371956Y-81349457D01*
X155359974Y-81369448D01*
X155346090Y-81388168D01*
X155330438Y-81405438D01*
X155313168Y-81421090D01*
X155294448Y-81434974D01*
X155274457Y-81446956D01*
X155253387Y-81456921D01*
X155231443Y-81464773D01*
X155208834Y-81470437D01*
X155185779Y-81473856D01*
X155162500Y-81475000D01*
X154587500Y-81475000D01*
X154564221Y-81473856D01*
X154541166Y-81470437D01*
X154518557Y-81464773D01*
X154496613Y-81456921D01*
X154475543Y-81446956D01*
X154455552Y-81434974D01*
X154436832Y-81421090D01*
X154419562Y-81405438D01*
X154403910Y-81388168D01*
X154390026Y-81369448D01*
X154378044Y-81349457D01*
X154368079Y-81328387D01*
X154360227Y-81306443D01*
X154354563Y-81283834D01*
X154351144Y-81260779D01*
X154350000Y-81237500D01*
X154350000Y-80762500D01*
X154351144Y-80739221D01*
X154354563Y-80716166D01*
X154360227Y-80693557D01*
X154368079Y-80671613D01*
X154378044Y-80650543D01*
X154390026Y-80630552D01*
X154403910Y-80611832D01*
X154419562Y-80594562D01*
X154436832Y-80578910D01*
X154455552Y-80565026D01*
X154475543Y-80553044D01*
X154496613Y-80543079D01*
X154518557Y-80535227D01*
X154541166Y-80529563D01*
X154564221Y-80526144D01*
X154587500Y-80525000D01*
X155162500Y-80525000D01*
X155185779Y-80526144D01*
X155185779Y-80526144D01*
G37*
D15*
G04 #@! TD*
G04 #@! TO.P,R5,2*
G04 #@! TO.N,/CP2*
X154875000Y-81000000D03*
D16*
G04 #@! TO.P,J3,B1*
G04 #@! TO.N,GND*
X127999999Y-64400000D03*
G04 #@! TO.P,J3,B2*
X129000000Y-66400001D03*
G04 #@! TO.P,J3,B3*
X130000001Y-64400000D03*
G04 #@! TO.P,J3,B4*
X130999999Y-66400001D03*
G04 #@! TO.P,J3,B5*
X131999999Y-64400000D03*
G04 #@! TO.P,J3,B6*
X133000000Y-66400001D03*
G04 #@! TO.P,J3,B7*
X134000000Y-64400000D03*
G04 #@! TO.P,J3,B8*
X135000001Y-66400001D03*
G04 #@! TO.P,J3,B9*
X135999999Y-64400000D03*
G04 #@! TO.P,J3,B10*
X136999999Y-66400001D03*
G04 #@! TO.P,J3,B11*
X138000000Y-64400000D03*
G04 #@! TO.P,J3,B12*
X141225000Y-66400001D03*
G04 #@! TO.P,J3,B13*
X142225001Y-64400000D03*
G04 #@! TO.P,J3,B14*
X143224999Y-66400001D03*
G04 #@! TO.P,J3,B15*
X144224999Y-64400000D03*
G04 #@! TO.P,J3,B16*
X145225000Y-66400001D03*
G04 #@! TO.P,J3,B17*
G04 #@! TO.N,Net-(J3-PadB17)*
X146225001Y-64400000D03*
G04 #@! TO.P,J3,B18*
G04 #@! TO.N,GND*
X147225001Y-66400001D03*
G04 #@! TO.P,J3,A2*
G04 #@! TO.N,+24V*
X128999999Y-60400000D03*
G04 #@! TO.P,J3,A1*
G04 #@! TO.N,Net-(J3-PadA1)*
X128000000Y-62399999D03*
G04 #@! TO.P,J3,A4*
G04 #@! TO.N,+24V*
X131000001Y-60400000D03*
G04 #@! TO.P,J3,A3*
X129999999Y-62399999D03*
G04 #@! TO.P,J3,A6*
X132999999Y-60400000D03*
G04 #@! TO.P,J3,A5*
X132000000Y-62399999D03*
G04 #@! TO.P,J3,A8*
X135000000Y-60400000D03*
G04 #@! TO.P,J3,A7*
X134000001Y-62399999D03*
G04 #@! TO.P,J3,A10*
X136999999Y-60400000D03*
G04 #@! TO.P,J3,A9*
X135999999Y-62399999D03*
G04 #@! TO.P,J3,A12*
G04 #@! TO.N,/SS1*
X141225000Y-60400000D03*
G04 #@! TO.P,J3,A11*
G04 #@! TO.N,+24V*
X138000000Y-62399999D03*
G04 #@! TO.P,J3,A14*
G04 #@! TO.N,/MISO*
X143225001Y-60400000D03*
G04 #@! TO.P,J3,A13*
G04 #@! TO.N,/MOSI*
X142224999Y-62399999D03*
G04 #@! TO.P,J3,A16*
G04 #@! TO.N,+5V*
X145224999Y-60400000D03*
G04 #@! TO.P,J3,A15*
G04 #@! TO.N,/SCK*
X144225000Y-62399999D03*
G04 #@! TO.P,J3,A18*
G04 #@! TO.N,Net-(J3-PadA18)*
X147225001Y-60400000D03*
G04 #@! TO.P,J3,A17*
G04 #@! TO.N,+5V*
X146225001Y-62399999D03*
D17*
G04 #@! TO.P,J3,37*
G04 #@! TO.N,N/C*
X139650000Y-63400000D03*
G04 #@! TO.P,J3,38*
X148800000Y-63400000D03*
G04 #@! TD*
G04 #@! TO.P,J4,38*
G04 #@! TO.N,N/C*
X148800000Y-81700000D03*
G04 #@! TO.P,J4,37*
X139650000Y-81700000D03*
D16*
G04 #@! TO.P,J4,A17*
G04 #@! TO.N,+5V*
X146225001Y-80699999D03*
G04 #@! TO.P,J4,A18*
G04 #@! TO.N,Net-(J4-PadA18)*
X147225001Y-78700000D03*
G04 #@! TO.P,J4,A15*
G04 #@! TO.N,/SCK*
X144225000Y-80699999D03*
G04 #@! TO.P,J4,A16*
G04 #@! TO.N,+5V*
X145224999Y-78700000D03*
G04 #@! TO.P,J4,A13*
G04 #@! TO.N,/MOSI*
X142224999Y-80699999D03*
G04 #@! TO.P,J4,A14*
G04 #@! TO.N,/MISO*
X143225001Y-78700000D03*
G04 #@! TO.P,J4,A11*
G04 #@! TO.N,+24V*
X138000000Y-80699999D03*
G04 #@! TO.P,J4,A12*
G04 #@! TO.N,/SS2*
X141225000Y-78700000D03*
G04 #@! TO.P,J4,A9*
G04 #@! TO.N,+24V*
X135999999Y-80699999D03*
G04 #@! TO.P,J4,A10*
X136999999Y-78700000D03*
G04 #@! TO.P,J4,A7*
X134000001Y-80699999D03*
G04 #@! TO.P,J4,A8*
X135000000Y-78700000D03*
G04 #@! TO.P,J4,A5*
X132000000Y-80699999D03*
G04 #@! TO.P,J4,A6*
X132999999Y-78700000D03*
G04 #@! TO.P,J4,A3*
X129999999Y-80699999D03*
G04 #@! TO.P,J4,A4*
X131000001Y-78700000D03*
G04 #@! TO.P,J4,A1*
G04 #@! TO.N,Net-(J4-PadA1)*
X128000000Y-80699999D03*
G04 #@! TO.P,J4,A2*
G04 #@! TO.N,+24V*
X128999999Y-78700000D03*
G04 #@! TO.P,J4,B18*
G04 #@! TO.N,GND*
X147225001Y-84700001D03*
G04 #@! TO.P,J4,B17*
G04 #@! TO.N,Net-(J4-PadB17)*
X146225001Y-82700000D03*
G04 #@! TO.P,J4,B16*
G04 #@! TO.N,GND*
X145225000Y-84700001D03*
G04 #@! TO.P,J4,B15*
X144224999Y-82700000D03*
G04 #@! TO.P,J4,B14*
X143224999Y-84700001D03*
G04 #@! TO.P,J4,B13*
X142225001Y-82700000D03*
G04 #@! TO.P,J4,B12*
X141225000Y-84700001D03*
G04 #@! TO.P,J4,B11*
X138000000Y-82700000D03*
G04 #@! TO.P,J4,B10*
X136999999Y-84700001D03*
G04 #@! TO.P,J4,B9*
X135999999Y-82700000D03*
G04 #@! TO.P,J4,B8*
X135000001Y-84700001D03*
G04 #@! TO.P,J4,B7*
X134000000Y-82700000D03*
G04 #@! TO.P,J4,B6*
X133000000Y-84700001D03*
G04 #@! TO.P,J4,B5*
X131999999Y-82700000D03*
G04 #@! TO.P,J4,B4*
X130999999Y-84700001D03*
G04 #@! TO.P,J4,B3*
X130000001Y-82700000D03*
G04 #@! TO.P,J4,B2*
X129000000Y-84700001D03*
G04 #@! TO.P,J4,B1*
X127999999Y-82700000D03*
G04 #@! TD*
D18*
G04 #@! TO.N,+5V*
X155000000Y-76000000D03*
X155000000Y-64500000D03*
G04 #@! TO.N,GND*
X149000000Y-67500000D03*
X153500000Y-63500000D03*
X150500000Y-75000000D03*
X115000000Y-68000000D03*
X115000000Y-72000000D03*
X117000000Y-68000000D03*
X116000000Y-68000000D03*
X116000000Y-72000000D03*
X117000000Y-72000000D03*
G04 #@! TD*
D19*
G04 #@! TO.N,+24V*
X125599999Y-57000000D02*
X128999999Y-60400000D01*
X128999999Y-60400000D02*
X136999999Y-60400000D01*
X128999999Y-61399999D02*
X129999999Y-62399999D01*
X128999999Y-60400000D02*
X128999999Y-61399999D01*
X129999999Y-62399999D02*
X138000000Y-62399999D01*
X123000000Y-59250000D02*
X123000000Y-57000000D01*
X119000000Y-57000000D02*
X123000000Y-57000000D01*
X123000000Y-57000000D02*
X125599999Y-57000000D01*
X127549999Y-77250000D02*
X128999999Y-78700000D01*
X123000000Y-77250000D02*
X127549999Y-77250000D01*
D20*
G04 #@! TO.N,Net-(D2-Pad1)*
X123000000Y-60750000D02*
X123000000Y-63125000D01*
G04 #@! TO.N,+5V*
X152928830Y-76000000D02*
X155000000Y-76000000D01*
X146225001Y-80699999D02*
X148228831Y-80699999D01*
X148228831Y-80699999D02*
X152928830Y-76000000D01*
X153730000Y-69000000D02*
X153730000Y-65770000D01*
X153730000Y-65770000D02*
X155000000Y-64500000D01*
G04 #@! TO.N,Net-(D4-Pad1)*
X123000000Y-78750000D02*
X123000000Y-81125000D01*
G04 #@! TO.N,/MOSI*
X152952183Y-70270000D02*
X153730000Y-70270000D01*
X150309383Y-70270000D02*
X152952183Y-70270000D01*
X142224999Y-80699999D02*
X142224999Y-78354384D01*
X142134201Y-66713584D02*
X148000000Y-72579383D01*
X142134201Y-65963584D02*
X142134201Y-66713584D01*
X141315800Y-65145183D02*
X142134201Y-65963584D01*
X141315800Y-63309198D02*
X141315800Y-65145183D01*
X142224999Y-62399999D02*
X141315800Y-63309198D01*
X142224999Y-78354384D02*
X148000000Y-72579383D01*
X148000000Y-72579383D02*
X150309383Y-70270000D01*
G04 #@! TO.N,/MISO*
X152952183Y-71540000D02*
X153730000Y-71540000D01*
X150402971Y-71540000D02*
X152952183Y-71540000D01*
X143242971Y-78700000D02*
X150402971Y-71540000D01*
X143225001Y-78700000D02*
X143242971Y-78700000D01*
G04 #@! TO.N,/CP1*
X155549999Y-69720001D02*
X155000000Y-70270000D01*
X155875001Y-69394999D02*
X155549999Y-69720001D01*
X155875001Y-63000001D02*
X155875001Y-69394999D01*
X154875000Y-62000000D02*
X155875001Y-63000001D01*
G04 #@! TO.N,/SCK*
X152952183Y-72810000D02*
X153730000Y-72810000D01*
X149769381Y-72810000D02*
X152952183Y-72810000D01*
X144225000Y-78354381D02*
X149769381Y-72810000D01*
X144225000Y-80699999D02*
X144225000Y-78354381D01*
G04 #@! TO.N,/CP2*
X155549999Y-73359999D02*
X155000000Y-72810000D01*
X155875001Y-73685001D02*
X155549999Y-73359999D01*
X155875001Y-79999999D02*
X155875001Y-73685001D01*
X154875000Y-81000000D02*
X155875001Y-79999999D01*
G04 #@! TO.N,Net-(J3-PadA1)*
X125524999Y-64875000D02*
X128000000Y-62399999D01*
X123000000Y-64875000D02*
X125524999Y-64875000D01*
G04 #@! TO.N,Net-(J3-PadB17)*
X152625928Y-62499072D02*
X153125000Y-62000000D01*
X150140801Y-64984199D02*
X152625928Y-62499072D01*
X146809200Y-64984199D02*
X150140801Y-64984199D01*
X146225001Y-64400000D02*
X146809200Y-64984199D01*
G04 #@! TO.N,Net-(J4-PadB17)*
X146809200Y-83284199D02*
X146225001Y-82700000D01*
X150840801Y-83284199D02*
X146809200Y-83284199D01*
X153125000Y-81000000D02*
X150840801Y-83284199D01*
G04 #@! TO.N,Net-(J4-PadA1)*
X125824999Y-82875000D02*
X128000000Y-80699999D01*
X123000000Y-82875000D02*
X125824999Y-82875000D01*
G04 #@! TD*
D21*
G04 #@! TO.N,GND*
G36*
X159315001Y-86716263D02*
X158716265Y-87315000D01*
X111283736Y-87315000D01*
X110685000Y-86716265D01*
X110685000Y-85411873D01*
X128467733Y-85411873D01*
X128529138Y-85564153D01*
X128895676Y-85678565D01*
X129278097Y-85643999D01*
X129470862Y-85564153D01*
X129532267Y-85411873D01*
X130467732Y-85411873D01*
X130529137Y-85564153D01*
X130895675Y-85678565D01*
X131278096Y-85643999D01*
X131470861Y-85564153D01*
X131532266Y-85411873D01*
X132467733Y-85411873D01*
X132529138Y-85564153D01*
X132895676Y-85678565D01*
X133278097Y-85643999D01*
X133470862Y-85564153D01*
X133532267Y-85411873D01*
X134467734Y-85411873D01*
X134529139Y-85564153D01*
X134895677Y-85678565D01*
X135278098Y-85643999D01*
X135470863Y-85564153D01*
X135532268Y-85411873D01*
X136467732Y-85411873D01*
X136529137Y-85564153D01*
X136895675Y-85678565D01*
X137278096Y-85643999D01*
X137470861Y-85564153D01*
X137532266Y-85411873D01*
X140692733Y-85411873D01*
X140754138Y-85564153D01*
X141120676Y-85678565D01*
X141503097Y-85643999D01*
X141695862Y-85564153D01*
X141757267Y-85411873D01*
X142692732Y-85411873D01*
X142754137Y-85564153D01*
X143120675Y-85678565D01*
X143503096Y-85643999D01*
X143695861Y-85564153D01*
X143757266Y-85411873D01*
X144692733Y-85411873D01*
X144754138Y-85564153D01*
X145120676Y-85678565D01*
X145503097Y-85643999D01*
X145695862Y-85564153D01*
X145757267Y-85411873D01*
X146692734Y-85411873D01*
X146754139Y-85564153D01*
X147120677Y-85678565D01*
X147503098Y-85643999D01*
X147695863Y-85564153D01*
X147757268Y-85411873D01*
X147225001Y-84879606D01*
X146692734Y-85411873D01*
X145757267Y-85411873D01*
X145225000Y-84879606D01*
X144692733Y-85411873D01*
X143757266Y-85411873D01*
X143224999Y-84879606D01*
X142692732Y-85411873D01*
X141757267Y-85411873D01*
X141225000Y-84879606D01*
X140692733Y-85411873D01*
X137532266Y-85411873D01*
X136999999Y-84879606D01*
X136467732Y-85411873D01*
X135532268Y-85411873D01*
X135000001Y-84879606D01*
X134467734Y-85411873D01*
X133532267Y-85411873D01*
X133000000Y-84879606D01*
X132467733Y-85411873D01*
X131532266Y-85411873D01*
X130999999Y-84879606D01*
X130467732Y-85411873D01*
X129532267Y-85411873D01*
X129000000Y-84879606D01*
X128467733Y-85411873D01*
X110685000Y-85411873D01*
X110685000Y-84595677D01*
X128021436Y-84595677D01*
X128056002Y-84978098D01*
X128135848Y-85170863D01*
X128288128Y-85232268D01*
X128820395Y-84700001D01*
X129179605Y-84700001D01*
X129711872Y-85232268D01*
X129864152Y-85170863D01*
X129978564Y-84804325D01*
X129959705Y-84595677D01*
X130021435Y-84595677D01*
X130056001Y-84978098D01*
X130135847Y-85170863D01*
X130288127Y-85232268D01*
X130820394Y-84700001D01*
X131179604Y-84700001D01*
X131711871Y-85232268D01*
X131864151Y-85170863D01*
X131978563Y-84804325D01*
X131959704Y-84595677D01*
X132021436Y-84595677D01*
X132056002Y-84978098D01*
X132135848Y-85170863D01*
X132288128Y-85232268D01*
X132820395Y-84700001D01*
X133179605Y-84700001D01*
X133711872Y-85232268D01*
X133864152Y-85170863D01*
X133978564Y-84804325D01*
X133959705Y-84595677D01*
X134021437Y-84595677D01*
X134056003Y-84978098D01*
X134135849Y-85170863D01*
X134288129Y-85232268D01*
X134820396Y-84700001D01*
X135179606Y-84700001D01*
X135711873Y-85232268D01*
X135864153Y-85170863D01*
X135978565Y-84804325D01*
X135959706Y-84595677D01*
X136021435Y-84595677D01*
X136056001Y-84978098D01*
X136135847Y-85170863D01*
X136288127Y-85232268D01*
X136820394Y-84700001D01*
X137179604Y-84700001D01*
X137711871Y-85232268D01*
X137864151Y-85170863D01*
X137978563Y-84804325D01*
X137959704Y-84595677D01*
X140246436Y-84595677D01*
X140281002Y-84978098D01*
X140360848Y-85170863D01*
X140513128Y-85232268D01*
X141045395Y-84700001D01*
X141404605Y-84700001D01*
X141936872Y-85232268D01*
X142089152Y-85170863D01*
X142203564Y-84804325D01*
X142184705Y-84595677D01*
X142246435Y-84595677D01*
X142281001Y-84978098D01*
X142360847Y-85170863D01*
X142513127Y-85232268D01*
X143045394Y-84700001D01*
X143404604Y-84700001D01*
X143936871Y-85232268D01*
X144089151Y-85170863D01*
X144203563Y-84804325D01*
X144184704Y-84595677D01*
X144246436Y-84595677D01*
X144281002Y-84978098D01*
X144360848Y-85170863D01*
X144513128Y-85232268D01*
X145045395Y-84700001D01*
X145404605Y-84700001D01*
X145936872Y-85232268D01*
X146089152Y-85170863D01*
X146203564Y-84804325D01*
X146184705Y-84595677D01*
X146246437Y-84595677D01*
X146281003Y-84978098D01*
X146360849Y-85170863D01*
X146513129Y-85232268D01*
X147045396Y-84700001D01*
X146513129Y-84167734D01*
X146360849Y-84229139D01*
X146246437Y-84595677D01*
X146184705Y-84595677D01*
X146168998Y-84421904D01*
X146089152Y-84229139D01*
X145936872Y-84167734D01*
X145404605Y-84700001D01*
X145045395Y-84700001D01*
X144513128Y-84167734D01*
X144360848Y-84229139D01*
X144246436Y-84595677D01*
X144184704Y-84595677D01*
X144168997Y-84421904D01*
X144089151Y-84229139D01*
X143936871Y-84167734D01*
X143404604Y-84700001D01*
X143045394Y-84700001D01*
X142513127Y-84167734D01*
X142360847Y-84229139D01*
X142246435Y-84595677D01*
X142184705Y-84595677D01*
X142168998Y-84421904D01*
X142089152Y-84229139D01*
X141936872Y-84167734D01*
X141404605Y-84700001D01*
X141045395Y-84700001D01*
X140513128Y-84167734D01*
X140360848Y-84229139D01*
X140246436Y-84595677D01*
X137959704Y-84595677D01*
X137943997Y-84421904D01*
X137864151Y-84229139D01*
X137711871Y-84167734D01*
X137179604Y-84700001D01*
X136820394Y-84700001D01*
X136288127Y-84167734D01*
X136135847Y-84229139D01*
X136021435Y-84595677D01*
X135959706Y-84595677D01*
X135943999Y-84421904D01*
X135864153Y-84229139D01*
X135711873Y-84167734D01*
X135179606Y-84700001D01*
X134820396Y-84700001D01*
X134288129Y-84167734D01*
X134135849Y-84229139D01*
X134021437Y-84595677D01*
X133959705Y-84595677D01*
X133943998Y-84421904D01*
X133864152Y-84229139D01*
X133711872Y-84167734D01*
X133179605Y-84700001D01*
X132820395Y-84700001D01*
X132288128Y-84167734D01*
X132135848Y-84229139D01*
X132021436Y-84595677D01*
X131959704Y-84595677D01*
X131943997Y-84421904D01*
X131864151Y-84229139D01*
X131711871Y-84167734D01*
X131179604Y-84700001D01*
X130820394Y-84700001D01*
X130288127Y-84167734D01*
X130135847Y-84229139D01*
X130021435Y-84595677D01*
X129959705Y-84595677D01*
X129943998Y-84421904D01*
X129864152Y-84229139D01*
X129711872Y-84167734D01*
X129179605Y-84700001D01*
X128820395Y-84700001D01*
X128288128Y-84167734D01*
X128135848Y-84229139D01*
X128021436Y-84595677D01*
X110685000Y-84595677D01*
X110685000Y-81555431D01*
X113765000Y-81555431D01*
X113765000Y-82444569D01*
X114105259Y-83266026D01*
X114733974Y-83894741D01*
X115555431Y-84235000D01*
X116444569Y-84235000D01*
X117266026Y-83894741D01*
X117894741Y-83266026D01*
X118235000Y-82444569D01*
X118235000Y-81555431D01*
X117894741Y-80733974D01*
X117266026Y-80105259D01*
X116444569Y-79765000D01*
X115555431Y-79765000D01*
X114733974Y-80105259D01*
X114105259Y-80733974D01*
X113765000Y-81555431D01*
X110685000Y-81555431D01*
X110685000Y-77250000D01*
X121842765Y-77250000D01*
X121930854Y-77692855D01*
X121973898Y-77757275D01*
X122001843Y-77897765D01*
X122070155Y-78000000D01*
X122001843Y-78102235D01*
X121952560Y-78350000D01*
X121952560Y-79150000D01*
X122001843Y-79397765D01*
X122142191Y-79607809D01*
X122240000Y-79673164D01*
X122240001Y-80142765D01*
X122136753Y-80211753D01*
X121944922Y-80498848D01*
X121877560Y-80837500D01*
X121877560Y-81412500D01*
X121944922Y-81751152D01*
X122111197Y-82000000D01*
X121944922Y-82248848D01*
X121877560Y-82587500D01*
X121877560Y-83162500D01*
X121944922Y-83501152D01*
X122136753Y-83788247D01*
X122423848Y-83980078D01*
X122762500Y-84047440D01*
X123237500Y-84047440D01*
X123535676Y-83988129D01*
X128467733Y-83988129D01*
X129000000Y-84520396D01*
X129532267Y-83988129D01*
X130467732Y-83988129D01*
X130999999Y-84520396D01*
X131532266Y-83988129D01*
X132467733Y-83988129D01*
X133000000Y-84520396D01*
X133532267Y-83988129D01*
X134467734Y-83988129D01*
X135000001Y-84520396D01*
X135532268Y-83988129D01*
X136467732Y-83988129D01*
X136999999Y-84520396D01*
X137532266Y-83988129D01*
X140692733Y-83988129D01*
X141225000Y-84520396D01*
X141757267Y-83988129D01*
X142692732Y-83988129D01*
X143224999Y-84520396D01*
X143757266Y-83988129D01*
X144692733Y-83988129D01*
X145225000Y-84520396D01*
X145757267Y-83988129D01*
X145695862Y-83835849D01*
X145329324Y-83721437D01*
X144946903Y-83756003D01*
X144754138Y-83835849D01*
X144692733Y-83988129D01*
X143757266Y-83988129D01*
X143695861Y-83835849D01*
X143329323Y-83721437D01*
X142946902Y-83756003D01*
X142754137Y-83835849D01*
X142692732Y-83988129D01*
X141757267Y-83988129D01*
X141695862Y-83835849D01*
X141329324Y-83721437D01*
X140946903Y-83756003D01*
X140754138Y-83835849D01*
X140692733Y-83988129D01*
X137532266Y-83988129D01*
X137470861Y-83835849D01*
X137104323Y-83721437D01*
X136721902Y-83756003D01*
X136529137Y-83835849D01*
X136467732Y-83988129D01*
X135532268Y-83988129D01*
X135470863Y-83835849D01*
X135104325Y-83721437D01*
X134721904Y-83756003D01*
X134529139Y-83835849D01*
X134467734Y-83988129D01*
X133532267Y-83988129D01*
X133470862Y-83835849D01*
X133104324Y-83721437D01*
X132721903Y-83756003D01*
X132529138Y-83835849D01*
X132467733Y-83988129D01*
X131532266Y-83988129D01*
X131470861Y-83835849D01*
X131104323Y-83721437D01*
X130721902Y-83756003D01*
X130529137Y-83835849D01*
X130467732Y-83988129D01*
X129532267Y-83988129D01*
X129470862Y-83835849D01*
X129104324Y-83721437D01*
X128721903Y-83756003D01*
X128529138Y-83835849D01*
X128467733Y-83988129D01*
X123535676Y-83988129D01*
X123576152Y-83980078D01*
X123863247Y-83788247D01*
X123965644Y-83635000D01*
X125750152Y-83635000D01*
X125824999Y-83649888D01*
X125899846Y-83635000D01*
X125899851Y-83635000D01*
X126121536Y-83590904D01*
X126372928Y-83422929D01*
X126380316Y-83411872D01*
X127467732Y-83411872D01*
X127529137Y-83564152D01*
X127895675Y-83678564D01*
X128278096Y-83643998D01*
X128470861Y-83564152D01*
X128532266Y-83411872D01*
X129467734Y-83411872D01*
X129529139Y-83564152D01*
X129895677Y-83678564D01*
X130278098Y-83643998D01*
X130470863Y-83564152D01*
X130532268Y-83411872D01*
X131467732Y-83411872D01*
X131529137Y-83564152D01*
X131895675Y-83678564D01*
X132278096Y-83643998D01*
X132470861Y-83564152D01*
X132532266Y-83411872D01*
X133467733Y-83411872D01*
X133529138Y-83564152D01*
X133895676Y-83678564D01*
X134278097Y-83643998D01*
X134470862Y-83564152D01*
X134532267Y-83411872D01*
X135467732Y-83411872D01*
X135529137Y-83564152D01*
X135895675Y-83678564D01*
X136278096Y-83643998D01*
X136470861Y-83564152D01*
X136532266Y-83411872D01*
X137467733Y-83411872D01*
X137529138Y-83564152D01*
X137895676Y-83678564D01*
X138278097Y-83643998D01*
X138470862Y-83564152D01*
X138532267Y-83411872D01*
X141692734Y-83411872D01*
X141754139Y-83564152D01*
X142120677Y-83678564D01*
X142503098Y-83643998D01*
X142695863Y-83564152D01*
X142757268Y-83411872D01*
X143692732Y-83411872D01*
X143754137Y-83564152D01*
X144120675Y-83678564D01*
X144503096Y-83643998D01*
X144695861Y-83564152D01*
X144757266Y-83411872D01*
X144224999Y-82879605D01*
X143692732Y-83411872D01*
X142757268Y-83411872D01*
X142225001Y-82879605D01*
X141692734Y-83411872D01*
X138532267Y-83411872D01*
X138000000Y-82879605D01*
X137467733Y-83411872D01*
X136532266Y-83411872D01*
X135999999Y-82879605D01*
X135467732Y-83411872D01*
X134532267Y-83411872D01*
X134000000Y-82879605D01*
X133467733Y-83411872D01*
X132532266Y-83411872D01*
X131999999Y-82879605D01*
X131467732Y-83411872D01*
X130532268Y-83411872D01*
X130000001Y-82879605D01*
X129467734Y-83411872D01*
X128532266Y-83411872D01*
X127999999Y-82879605D01*
X127467732Y-83411872D01*
X126380316Y-83411872D01*
X126415330Y-83359470D01*
X127034507Y-82740294D01*
X127056001Y-82978097D01*
X127135847Y-83170862D01*
X127288127Y-83232267D01*
X127820394Y-82700000D01*
X128179604Y-82700000D01*
X128711871Y-83232267D01*
X128864151Y-83170862D01*
X128978563Y-82804324D01*
X128959704Y-82595676D01*
X129021437Y-82595676D01*
X129056003Y-82978097D01*
X129135849Y-83170862D01*
X129288129Y-83232267D01*
X129820396Y-82700000D01*
X130179606Y-82700000D01*
X130711873Y-83232267D01*
X130864153Y-83170862D01*
X130978565Y-82804324D01*
X130959706Y-82595676D01*
X131021435Y-82595676D01*
X131056001Y-82978097D01*
X131135847Y-83170862D01*
X131288127Y-83232267D01*
X131820394Y-82700000D01*
X132179604Y-82700000D01*
X132711871Y-83232267D01*
X132864151Y-83170862D01*
X132978563Y-82804324D01*
X132959704Y-82595676D01*
X133021436Y-82595676D01*
X133056002Y-82978097D01*
X133135848Y-83170862D01*
X133288128Y-83232267D01*
X133820395Y-82700000D01*
X134179605Y-82700000D01*
X134711872Y-83232267D01*
X134864152Y-83170862D01*
X134978564Y-82804324D01*
X134959705Y-82595676D01*
X135021435Y-82595676D01*
X135056001Y-82978097D01*
X135135847Y-83170862D01*
X135288127Y-83232267D01*
X135820394Y-82700000D01*
X136179604Y-82700000D01*
X136711871Y-83232267D01*
X136864151Y-83170862D01*
X136978563Y-82804324D01*
X136959704Y-82595676D01*
X137021436Y-82595676D01*
X137056002Y-82978097D01*
X137135848Y-83170862D01*
X137288128Y-83232267D01*
X137820395Y-82700000D01*
X137288128Y-82167733D01*
X137135848Y-82229138D01*
X137021436Y-82595676D01*
X136959704Y-82595676D01*
X136943997Y-82421903D01*
X136864151Y-82229138D01*
X136711871Y-82167733D01*
X136179604Y-82700000D01*
X135820394Y-82700000D01*
X135288127Y-82167733D01*
X135135847Y-82229138D01*
X135021435Y-82595676D01*
X134959705Y-82595676D01*
X134943998Y-82421903D01*
X134864152Y-82229138D01*
X134711872Y-82167733D01*
X134179605Y-82700000D01*
X133820395Y-82700000D01*
X133288128Y-82167733D01*
X133135848Y-82229138D01*
X133021436Y-82595676D01*
X132959704Y-82595676D01*
X132943997Y-82421903D01*
X132864151Y-82229138D01*
X132711871Y-82167733D01*
X132179604Y-82700000D01*
X131820394Y-82700000D01*
X131288127Y-82167733D01*
X131135847Y-82229138D01*
X131021435Y-82595676D01*
X130959706Y-82595676D01*
X130943999Y-82421903D01*
X130864153Y-82229138D01*
X130711873Y-82167733D01*
X130179606Y-82700000D01*
X129820396Y-82700000D01*
X129288129Y-82167733D01*
X129135849Y-82229138D01*
X129021437Y-82595676D01*
X128959704Y-82595676D01*
X128943997Y-82421903D01*
X128864151Y-82229138D01*
X128711871Y-82167733D01*
X128179604Y-82700000D01*
X127820394Y-82700000D01*
X127806252Y-82685858D01*
X127985857Y-82506253D01*
X127999999Y-82520395D01*
X128532266Y-81988128D01*
X128470861Y-81835848D01*
X128455396Y-81831021D01*
X128690622Y-81733587D01*
X129000000Y-81424210D01*
X129309377Y-81733587D01*
X129542698Y-81830232D01*
X129529139Y-81835848D01*
X129467734Y-81988128D01*
X130000001Y-82520395D01*
X130532268Y-81988128D01*
X130470863Y-81835848D01*
X130455396Y-81831020D01*
X130690621Y-81733587D01*
X131000000Y-81424209D01*
X131309378Y-81733587D01*
X131542698Y-81830231D01*
X131529137Y-81835848D01*
X131467732Y-81988128D01*
X131999999Y-82520395D01*
X132532266Y-81988128D01*
X132470861Y-81835848D01*
X132455396Y-81831021D01*
X132690622Y-81733587D01*
X133000001Y-81424209D01*
X133309379Y-81733587D01*
X133542699Y-81830231D01*
X133529138Y-81835848D01*
X133467733Y-81988128D01*
X134000000Y-82520395D01*
X134532267Y-81988128D01*
X134470862Y-81835848D01*
X134455397Y-81831021D01*
X134690623Y-81733587D01*
X135000000Y-81424210D01*
X135309377Y-81733587D01*
X135542697Y-81830231D01*
X135529137Y-81835848D01*
X135467732Y-81988128D01*
X135999999Y-82520395D01*
X136532266Y-81988128D01*
X136470861Y-81835848D01*
X136455395Y-81831020D01*
X136690621Y-81733587D01*
X137000000Y-81424209D01*
X137309378Y-81733587D01*
X137542698Y-81830231D01*
X137529138Y-81835848D01*
X137467733Y-81988128D01*
X138000000Y-82520395D01*
X138014143Y-82506253D01*
X138193748Y-82685858D01*
X138179605Y-82700000D01*
X138711872Y-83232267D01*
X138864152Y-83170862D01*
X138950325Y-82894794D01*
X139377172Y-83071600D01*
X139922828Y-83071600D01*
X140426949Y-82862786D01*
X140694059Y-82595676D01*
X141246437Y-82595676D01*
X141281003Y-82978097D01*
X141360849Y-83170862D01*
X141513129Y-83232267D01*
X142045396Y-82700000D01*
X142404606Y-82700000D01*
X142936873Y-83232267D01*
X143089153Y-83170862D01*
X143203565Y-82804324D01*
X143184706Y-82595676D01*
X143246435Y-82595676D01*
X143281001Y-82978097D01*
X143360847Y-83170862D01*
X143513127Y-83232267D01*
X144045394Y-82700000D01*
X143513127Y-82167733D01*
X143360847Y-82229138D01*
X143246435Y-82595676D01*
X143184706Y-82595676D01*
X143168999Y-82421903D01*
X143089153Y-82229138D01*
X142936873Y-82167733D01*
X142404606Y-82700000D01*
X142045396Y-82700000D01*
X141513129Y-82167733D01*
X141360849Y-82229138D01*
X141246437Y-82595676D01*
X140694059Y-82595676D01*
X140812786Y-82476949D01*
X141021600Y-81972828D01*
X141021600Y-81427172D01*
X140812786Y-80923051D01*
X140426949Y-80537214D01*
X139922828Y-80328400D01*
X139377172Y-80328400D01*
X139196696Y-80403156D01*
X139033588Y-80009377D01*
X138690622Y-79666411D01*
X138242514Y-79480799D01*
X137943410Y-79480799D01*
X138033587Y-79390622D01*
X138219199Y-78942514D01*
X138219199Y-78457486D01*
X138033587Y-78009378D01*
X137690621Y-77666412D01*
X137242513Y-77480800D01*
X136757485Y-77480800D01*
X136309377Y-77666412D01*
X136000000Y-77975790D01*
X135690622Y-77666412D01*
X135242514Y-77480800D01*
X134757486Y-77480800D01*
X134309378Y-77666412D01*
X134000000Y-77975791D01*
X133690621Y-77666412D01*
X133242513Y-77480800D01*
X132757485Y-77480800D01*
X132309377Y-77666412D01*
X132000000Y-77975789D01*
X131690623Y-77666412D01*
X131242515Y-77480800D01*
X130757487Y-77480800D01*
X130309379Y-77666412D01*
X130000000Y-77975791D01*
X129690621Y-77666412D01*
X129487342Y-77582211D01*
X128431612Y-76526482D01*
X128368288Y-76431711D01*
X127992854Y-76180854D01*
X127661782Y-76115000D01*
X127549999Y-76092765D01*
X127438216Y-76115000D01*
X122888217Y-76115000D01*
X122557145Y-76180854D01*
X122492725Y-76223898D01*
X122352235Y-76251843D01*
X122142191Y-76392191D01*
X122001843Y-76602235D01*
X121973898Y-76742725D01*
X121930854Y-76807145D01*
X121842765Y-77250000D01*
X110685000Y-77250000D01*
X110685000Y-67111873D01*
X128467733Y-67111873D01*
X128529138Y-67264153D01*
X128895676Y-67378565D01*
X129278097Y-67343999D01*
X129470862Y-67264153D01*
X129532267Y-67111873D01*
X130467732Y-67111873D01*
X130529137Y-67264153D01*
X130895675Y-67378565D01*
X131278096Y-67343999D01*
X131470861Y-67264153D01*
X131532266Y-67111873D01*
X132467733Y-67111873D01*
X132529138Y-67264153D01*
X132895676Y-67378565D01*
X133278097Y-67343999D01*
X133470862Y-67264153D01*
X133532267Y-67111873D01*
X134467734Y-67111873D01*
X134529139Y-67264153D01*
X134895677Y-67378565D01*
X135278098Y-67343999D01*
X135470863Y-67264153D01*
X135532268Y-67111873D01*
X136467732Y-67111873D01*
X136529137Y-67264153D01*
X136895675Y-67378565D01*
X137278096Y-67343999D01*
X137470861Y-67264153D01*
X137532266Y-67111873D01*
X136999999Y-66579606D01*
X136467732Y-67111873D01*
X135532268Y-67111873D01*
X135000001Y-66579606D01*
X134467734Y-67111873D01*
X133532267Y-67111873D01*
X133000000Y-66579606D01*
X132467733Y-67111873D01*
X131532266Y-67111873D01*
X130999999Y-66579606D01*
X130467732Y-67111873D01*
X129532267Y-67111873D01*
X129000000Y-66579606D01*
X128467733Y-67111873D01*
X110685000Y-67111873D01*
X110685000Y-66295677D01*
X128021436Y-66295677D01*
X128056002Y-66678098D01*
X128135848Y-66870863D01*
X128288128Y-66932268D01*
X128820395Y-66400001D01*
X129179605Y-66400001D01*
X129711872Y-66932268D01*
X129864152Y-66870863D01*
X129978564Y-66504325D01*
X129959705Y-66295677D01*
X130021435Y-66295677D01*
X130056001Y-66678098D01*
X130135847Y-66870863D01*
X130288127Y-66932268D01*
X130820394Y-66400001D01*
X131179604Y-66400001D01*
X131711871Y-66932268D01*
X131864151Y-66870863D01*
X131978563Y-66504325D01*
X131959704Y-66295677D01*
X132021436Y-66295677D01*
X132056002Y-66678098D01*
X132135848Y-66870863D01*
X132288128Y-66932268D01*
X132820395Y-66400001D01*
X133179605Y-66400001D01*
X133711872Y-66932268D01*
X133864152Y-66870863D01*
X133978564Y-66504325D01*
X133959705Y-66295677D01*
X134021437Y-66295677D01*
X134056003Y-66678098D01*
X134135849Y-66870863D01*
X134288129Y-66932268D01*
X134820396Y-66400001D01*
X135179606Y-66400001D01*
X135711873Y-66932268D01*
X135864153Y-66870863D01*
X135978565Y-66504325D01*
X135959706Y-66295677D01*
X136021435Y-66295677D01*
X136056001Y-66678098D01*
X136135847Y-66870863D01*
X136288127Y-66932268D01*
X136820394Y-66400001D01*
X137179604Y-66400001D01*
X137711871Y-66932268D01*
X137864151Y-66870863D01*
X137978563Y-66504325D01*
X137959704Y-66295677D01*
X140246436Y-66295677D01*
X140281002Y-66678098D01*
X140360848Y-66870863D01*
X140513128Y-66932268D01*
X141045395Y-66400001D01*
X140513128Y-65867734D01*
X140360848Y-65929139D01*
X140246436Y-66295677D01*
X137959704Y-66295677D01*
X137943997Y-66121904D01*
X137864151Y-65929139D01*
X137711871Y-65867734D01*
X137179604Y-66400001D01*
X136820394Y-66400001D01*
X136288127Y-65867734D01*
X136135847Y-65929139D01*
X136021435Y-66295677D01*
X135959706Y-66295677D01*
X135943999Y-66121904D01*
X135864153Y-65929139D01*
X135711873Y-65867734D01*
X135179606Y-66400001D01*
X134820396Y-66400001D01*
X134288129Y-65867734D01*
X134135849Y-65929139D01*
X134021437Y-66295677D01*
X133959705Y-66295677D01*
X133943998Y-66121904D01*
X133864152Y-65929139D01*
X133711872Y-65867734D01*
X133179605Y-66400001D01*
X132820395Y-66400001D01*
X132288128Y-65867734D01*
X132135848Y-65929139D01*
X132021436Y-66295677D01*
X131959704Y-66295677D01*
X131943997Y-66121904D01*
X131864151Y-65929139D01*
X131711871Y-65867734D01*
X131179604Y-66400001D01*
X130820394Y-66400001D01*
X130288127Y-65867734D01*
X130135847Y-65929139D01*
X130021435Y-66295677D01*
X129959705Y-66295677D01*
X129943998Y-66121904D01*
X129864152Y-65929139D01*
X129711872Y-65867734D01*
X129179605Y-66400001D01*
X128820395Y-66400001D01*
X128288128Y-65867734D01*
X128135848Y-65929139D01*
X128021436Y-66295677D01*
X110685000Y-66295677D01*
X110685000Y-62222250D01*
X117369000Y-62222250D01*
X117369000Y-63325786D01*
X117427004Y-63465820D01*
X117534181Y-63572996D01*
X117674215Y-63631000D01*
X118777750Y-63631000D01*
X118873000Y-63535750D01*
X118873000Y-62127000D01*
X119127000Y-62127000D01*
X119127000Y-63535750D01*
X119222250Y-63631000D01*
X120325785Y-63631000D01*
X120465819Y-63572996D01*
X120572996Y-63465820D01*
X120631000Y-63325786D01*
X120631000Y-62222250D01*
X120535750Y-62127000D01*
X119127000Y-62127000D01*
X118873000Y-62127000D01*
X117464250Y-62127000D01*
X117369000Y-62222250D01*
X110685000Y-62222250D01*
X110685000Y-60674214D01*
X117369000Y-60674214D01*
X117369000Y-61777750D01*
X117464250Y-61873000D01*
X118873000Y-61873000D01*
X118873000Y-60464250D01*
X119127000Y-60464250D01*
X119127000Y-61873000D01*
X120535750Y-61873000D01*
X120631000Y-61777750D01*
X120631000Y-60674214D01*
X120572996Y-60534180D01*
X120465819Y-60427004D01*
X120325785Y-60369000D01*
X119222250Y-60369000D01*
X119127000Y-60464250D01*
X118873000Y-60464250D01*
X118777750Y-60369000D01*
X117674215Y-60369000D01*
X117534181Y-60427004D01*
X117427004Y-60534180D01*
X117369000Y-60674214D01*
X110685000Y-60674214D01*
X110685000Y-56625050D01*
X117115000Y-56625050D01*
X117115000Y-57374950D01*
X117401974Y-58067767D01*
X117932233Y-58598026D01*
X118625050Y-58885000D01*
X119374950Y-58885000D01*
X120067767Y-58598026D01*
X120530793Y-58135000D01*
X121865000Y-58135000D01*
X121865000Y-59361782D01*
X121930854Y-59692854D01*
X121973898Y-59757274D01*
X122001843Y-59897765D01*
X122070155Y-60000000D01*
X122001843Y-60102235D01*
X121952560Y-60350000D01*
X121952560Y-61150000D01*
X122001843Y-61397765D01*
X122142191Y-61607809D01*
X122240000Y-61673164D01*
X122240001Y-62142765D01*
X122136753Y-62211753D01*
X121944922Y-62498848D01*
X121877560Y-62837500D01*
X121877560Y-63412500D01*
X121944922Y-63751152D01*
X122111197Y-64000000D01*
X121944922Y-64248848D01*
X121877560Y-64587500D01*
X121877560Y-65162500D01*
X121944922Y-65501152D01*
X122136753Y-65788247D01*
X122423848Y-65980078D01*
X122762500Y-66047440D01*
X123237500Y-66047440D01*
X123576152Y-65980078D01*
X123863247Y-65788247D01*
X123930144Y-65688129D01*
X128467733Y-65688129D01*
X129000000Y-66220396D01*
X129532267Y-65688129D01*
X130467732Y-65688129D01*
X130999999Y-66220396D01*
X131532266Y-65688129D01*
X132467733Y-65688129D01*
X133000000Y-66220396D01*
X133532267Y-65688129D01*
X134467734Y-65688129D01*
X135000001Y-66220396D01*
X135532268Y-65688129D01*
X136467732Y-65688129D01*
X136999999Y-66220396D01*
X137532266Y-65688129D01*
X137470861Y-65535849D01*
X137104323Y-65421437D01*
X136721902Y-65456003D01*
X136529137Y-65535849D01*
X136467732Y-65688129D01*
X135532268Y-65688129D01*
X135470863Y-65535849D01*
X135104325Y-65421437D01*
X134721904Y-65456003D01*
X134529139Y-65535849D01*
X134467734Y-65688129D01*
X133532267Y-65688129D01*
X133470862Y-65535849D01*
X133104324Y-65421437D01*
X132721903Y-65456003D01*
X132529138Y-65535849D01*
X132467733Y-65688129D01*
X131532266Y-65688129D01*
X131470861Y-65535849D01*
X131104323Y-65421437D01*
X130721902Y-65456003D01*
X130529137Y-65535849D01*
X130467732Y-65688129D01*
X129532267Y-65688129D01*
X129470862Y-65535849D01*
X129104324Y-65421437D01*
X128721903Y-65456003D01*
X128529138Y-65535849D01*
X128467733Y-65688129D01*
X123930144Y-65688129D01*
X123965644Y-65635000D01*
X125450152Y-65635000D01*
X125524999Y-65649888D01*
X125599846Y-65635000D01*
X125599851Y-65635000D01*
X125821536Y-65590904D01*
X126072928Y-65422929D01*
X126115330Y-65359470D01*
X126362928Y-65111872D01*
X127467732Y-65111872D01*
X127529137Y-65264152D01*
X127895675Y-65378564D01*
X128278096Y-65343998D01*
X128470861Y-65264152D01*
X128532266Y-65111872D01*
X129467734Y-65111872D01*
X129529139Y-65264152D01*
X129895677Y-65378564D01*
X130278098Y-65343998D01*
X130470863Y-65264152D01*
X130532268Y-65111872D01*
X131467732Y-65111872D01*
X131529137Y-65264152D01*
X131895675Y-65378564D01*
X132278096Y-65343998D01*
X132470861Y-65264152D01*
X132532266Y-65111872D01*
X133467733Y-65111872D01*
X133529138Y-65264152D01*
X133895676Y-65378564D01*
X134278097Y-65343998D01*
X134470862Y-65264152D01*
X134532267Y-65111872D01*
X135467732Y-65111872D01*
X135529137Y-65264152D01*
X135895675Y-65378564D01*
X136278096Y-65343998D01*
X136470861Y-65264152D01*
X136532266Y-65111872D01*
X137467733Y-65111872D01*
X137529138Y-65264152D01*
X137895676Y-65378564D01*
X138278097Y-65343998D01*
X138470862Y-65264152D01*
X138532267Y-65111872D01*
X138000000Y-64579605D01*
X137467733Y-65111872D01*
X136532266Y-65111872D01*
X135999999Y-64579605D01*
X135467732Y-65111872D01*
X134532267Y-65111872D01*
X134000000Y-64579605D01*
X133467733Y-65111872D01*
X132532266Y-65111872D01*
X131999999Y-64579605D01*
X131467732Y-65111872D01*
X130532268Y-65111872D01*
X130000001Y-64579605D01*
X129467734Y-65111872D01*
X128532266Y-65111872D01*
X127999999Y-64579605D01*
X127467732Y-65111872D01*
X126362928Y-65111872D01*
X127034507Y-64440294D01*
X127056001Y-64678097D01*
X127135847Y-64870862D01*
X127288127Y-64932267D01*
X127820394Y-64400000D01*
X128179604Y-64400000D01*
X128711871Y-64932267D01*
X128864151Y-64870862D01*
X128978563Y-64504324D01*
X128959704Y-64295676D01*
X129021437Y-64295676D01*
X129056003Y-64678097D01*
X129135849Y-64870862D01*
X129288129Y-64932267D01*
X129820396Y-64400000D01*
X130179606Y-64400000D01*
X130711873Y-64932267D01*
X130864153Y-64870862D01*
X130978565Y-64504324D01*
X130959706Y-64295676D01*
X131021435Y-64295676D01*
X131056001Y-64678097D01*
X131135847Y-64870862D01*
X131288127Y-64932267D01*
X131820394Y-64400000D01*
X132179604Y-64400000D01*
X132711871Y-64932267D01*
X132864151Y-64870862D01*
X132978563Y-64504324D01*
X132959704Y-64295676D01*
X133021436Y-64295676D01*
X133056002Y-64678097D01*
X133135848Y-64870862D01*
X133288128Y-64932267D01*
X133820395Y-64400000D01*
X134179605Y-64400000D01*
X134711872Y-64932267D01*
X134864152Y-64870862D01*
X134978564Y-64504324D01*
X134959705Y-64295676D01*
X135021435Y-64295676D01*
X135056001Y-64678097D01*
X135135847Y-64870862D01*
X135288127Y-64932267D01*
X135820394Y-64400000D01*
X136179604Y-64400000D01*
X136711871Y-64932267D01*
X136864151Y-64870862D01*
X136978563Y-64504324D01*
X136959704Y-64295676D01*
X137021436Y-64295676D01*
X137056002Y-64678097D01*
X137135848Y-64870862D01*
X137288128Y-64932267D01*
X137820395Y-64400000D01*
X137288128Y-63867733D01*
X137135848Y-63929138D01*
X137021436Y-64295676D01*
X136959704Y-64295676D01*
X136943997Y-64121903D01*
X136864151Y-63929138D01*
X136711871Y-63867733D01*
X136179604Y-64400000D01*
X135820394Y-64400000D01*
X135288127Y-63867733D01*
X135135847Y-63929138D01*
X135021435Y-64295676D01*
X134959705Y-64295676D01*
X134943998Y-64121903D01*
X134864152Y-63929138D01*
X134711872Y-63867733D01*
X134179605Y-64400000D01*
X133820395Y-64400000D01*
X133288128Y-63867733D01*
X133135848Y-63929138D01*
X133021436Y-64295676D01*
X132959704Y-64295676D01*
X132943997Y-64121903D01*
X132864151Y-63929138D01*
X132711871Y-63867733D01*
X132179604Y-64400000D01*
X131820394Y-64400000D01*
X131288127Y-63867733D01*
X131135847Y-63929138D01*
X131021435Y-64295676D01*
X130959706Y-64295676D01*
X130943999Y-64121903D01*
X130864153Y-63929138D01*
X130711873Y-63867733D01*
X130179606Y-64400000D01*
X129820396Y-64400000D01*
X129288129Y-63867733D01*
X129135849Y-63929138D01*
X129021437Y-64295676D01*
X128959704Y-64295676D01*
X128943997Y-64121903D01*
X128864151Y-63929138D01*
X128711871Y-63867733D01*
X128179604Y-64400000D01*
X127820394Y-64400000D01*
X127806252Y-64385858D01*
X127985857Y-64206253D01*
X127999999Y-64220395D01*
X128532266Y-63688128D01*
X128470861Y-63535848D01*
X128455396Y-63531021D01*
X128690622Y-63433587D01*
X129000000Y-63124210D01*
X129309377Y-63433587D01*
X129542698Y-63530232D01*
X129529139Y-63535848D01*
X129467734Y-63688128D01*
X130000001Y-64220395D01*
X130532268Y-63688128D01*
X130470863Y-63535848D01*
X130468143Y-63534999D01*
X131531187Y-63534999D01*
X131529137Y-63535848D01*
X131467732Y-63688128D01*
X131999999Y-64220395D01*
X132532266Y-63688128D01*
X132470861Y-63535848D01*
X132468141Y-63534999D01*
X133531188Y-63534999D01*
X133529138Y-63535848D01*
X133467733Y-63688128D01*
X134000000Y-64220395D01*
X134532267Y-63688128D01*
X134470862Y-63535848D01*
X134468142Y-63534999D01*
X135531187Y-63534999D01*
X135529137Y-63535848D01*
X135467732Y-63688128D01*
X135999999Y-64220395D01*
X136532266Y-63688128D01*
X136470861Y-63535848D01*
X136468141Y-63534999D01*
X137531188Y-63534999D01*
X137529138Y-63535848D01*
X137467733Y-63688128D01*
X138000000Y-64220395D01*
X138014143Y-64206253D01*
X138193748Y-64385858D01*
X138179605Y-64400000D01*
X138711872Y-64932267D01*
X138864152Y-64870862D01*
X138950325Y-64594794D01*
X139377172Y-64771600D01*
X139922828Y-64771600D01*
X140426949Y-64562786D01*
X140555801Y-64433934D01*
X140555801Y-65070331D01*
X140540912Y-65145183D01*
X140599897Y-65441720D01*
X140718486Y-65619200D01*
X140719759Y-65621106D01*
X140692733Y-65688129D01*
X141225000Y-66220396D01*
X141239143Y-66206254D01*
X141374201Y-66341312D01*
X141374201Y-66458690D01*
X141239143Y-66593749D01*
X141225000Y-66579606D01*
X140692733Y-67111873D01*
X140754138Y-67264153D01*
X141120676Y-67378565D01*
X141503097Y-67343999D01*
X141630650Y-67291165D01*
X141649729Y-67303913D01*
X146925198Y-72579383D01*
X141860855Y-77643727D01*
X141467514Y-77480800D01*
X140982486Y-77480800D01*
X140534378Y-77666412D01*
X140191412Y-78009378D01*
X140005800Y-78457486D01*
X140005800Y-78942514D01*
X140191412Y-79390622D01*
X140534378Y-79733588D01*
X140982486Y-79919200D01*
X141281588Y-79919200D01*
X141191411Y-80009377D01*
X141005799Y-80457485D01*
X141005799Y-80942513D01*
X141191411Y-81390621D01*
X141534377Y-81733587D01*
X141767698Y-81830232D01*
X141754139Y-81835848D01*
X141692734Y-81988128D01*
X142225001Y-82520395D01*
X142757268Y-81988128D01*
X142695863Y-81835848D01*
X142680396Y-81831020D01*
X142915621Y-81733587D01*
X143225000Y-81424209D01*
X143534378Y-81733587D01*
X143767698Y-81830231D01*
X143754137Y-81835848D01*
X143692732Y-81988128D01*
X144224999Y-82520395D01*
X144757266Y-81988128D01*
X144695861Y-81835848D01*
X144680396Y-81831021D01*
X144915622Y-81733587D01*
X145225001Y-81424209D01*
X145500792Y-81700000D01*
X145191413Y-82009378D01*
X145094768Y-82242699D01*
X145089151Y-82229138D01*
X144936871Y-82167733D01*
X144404604Y-82700000D01*
X144936871Y-83232267D01*
X145089151Y-83170862D01*
X145093979Y-83155395D01*
X145191413Y-83390622D01*
X145534379Y-83733588D01*
X145982487Y-83919200D01*
X146391583Y-83919200D01*
X146512663Y-84000103D01*
X146734348Y-84044199D01*
X146734352Y-84044199D01*
X146752392Y-84047787D01*
X147225001Y-84520396D01*
X147239144Y-84506254D01*
X147418749Y-84685859D01*
X147404606Y-84700001D01*
X147936873Y-85232268D01*
X148089153Y-85170863D01*
X148203565Y-84804325D01*
X148168999Y-84421904D01*
X148089153Y-84229139D01*
X147936875Y-84167735D01*
X148008916Y-84095694D01*
X147957421Y-84044199D01*
X150765954Y-84044199D01*
X150840801Y-84059087D01*
X150915648Y-84044199D01*
X150915653Y-84044199D01*
X151137338Y-84000103D01*
X151388730Y-83832128D01*
X151431132Y-83768669D01*
X153077362Y-82122440D01*
X153412500Y-82122440D01*
X153751152Y-82055078D01*
X154000000Y-81888803D01*
X154248848Y-82055078D01*
X154587500Y-82122440D01*
X155162500Y-82122440D01*
X155501152Y-82055078D01*
X155788247Y-81863247D01*
X155980078Y-81576152D01*
X156047440Y-81237500D01*
X156047440Y-80902362D01*
X156359474Y-80590328D01*
X156422930Y-80547928D01*
X156590905Y-80296536D01*
X156635001Y-80074851D01*
X156635001Y-80074846D01*
X156649889Y-79999999D01*
X156635001Y-79925152D01*
X156635001Y-73759847D01*
X156649889Y-73685000D01*
X156635001Y-73610153D01*
X156635001Y-73610149D01*
X156590905Y-73388464D01*
X156422930Y-73137072D01*
X156359471Y-73094670D01*
X156185000Y-72920199D01*
X156185000Y-72574289D01*
X156019610Y-72175000D01*
X156185000Y-71775711D01*
X156185000Y-71304289D01*
X156019610Y-70905000D01*
X156185000Y-70505711D01*
X156185000Y-70159801D01*
X156359471Y-69985330D01*
X156422930Y-69942928D01*
X156590905Y-69691536D01*
X156635001Y-69469851D01*
X156635001Y-69469847D01*
X156649889Y-69395000D01*
X156635001Y-69320153D01*
X156635001Y-63074848D01*
X156649889Y-63000001D01*
X156635001Y-62925154D01*
X156635001Y-62925149D01*
X156590905Y-62703464D01*
X156422930Y-62452072D01*
X156359474Y-62409672D01*
X156047440Y-62097638D01*
X156047440Y-61762500D01*
X155980078Y-61423848D01*
X155788247Y-61136753D01*
X155501152Y-60944922D01*
X155162500Y-60877560D01*
X154587500Y-60877560D01*
X154248848Y-60944922D01*
X154000000Y-61111197D01*
X153751152Y-60944922D01*
X153412500Y-60877560D01*
X152837500Y-60877560D01*
X152498848Y-60944922D01*
X152211753Y-61136753D01*
X152019922Y-61423848D01*
X151952560Y-61762500D01*
X151952560Y-62097637D01*
X150026098Y-64024101D01*
X150171600Y-63672828D01*
X150171600Y-63127172D01*
X149962786Y-62623051D01*
X149576949Y-62237214D01*
X149072828Y-62028400D01*
X148527172Y-62028400D01*
X148023051Y-62237214D01*
X147637214Y-62623051D01*
X147428400Y-63127172D01*
X147428400Y-63672828D01*
X147637214Y-64176949D01*
X147684464Y-64224199D01*
X147444201Y-64224199D01*
X147444201Y-64157486D01*
X147258589Y-63709378D01*
X146949211Y-63400000D01*
X147258589Y-63090621D01*
X147444201Y-62642513D01*
X147444201Y-62157485D01*
X147258589Y-61709377D01*
X147168412Y-61619200D01*
X147467515Y-61619200D01*
X147915623Y-61433588D01*
X148258589Y-61090622D01*
X148444201Y-60642514D01*
X148444201Y-60157486D01*
X148258589Y-59709378D01*
X147915623Y-59366412D01*
X147467515Y-59180800D01*
X146982487Y-59180800D01*
X146534379Y-59366412D01*
X146225000Y-59675791D01*
X145915621Y-59366412D01*
X145467513Y-59180800D01*
X144982485Y-59180800D01*
X144534377Y-59366412D01*
X144225000Y-59675789D01*
X143915623Y-59366412D01*
X143467515Y-59180800D01*
X142982487Y-59180800D01*
X142534379Y-59366412D01*
X142225001Y-59675791D01*
X141915622Y-59366412D01*
X141467514Y-59180800D01*
X140982486Y-59180800D01*
X140534378Y-59366412D01*
X140191412Y-59709378D01*
X140005800Y-60157486D01*
X140005800Y-60642514D01*
X140191412Y-61090622D01*
X140534378Y-61433588D01*
X140982486Y-61619200D01*
X141281588Y-61619200D01*
X141191411Y-61709377D01*
X141005799Y-62157485D01*
X141005799Y-62544398D01*
X140846281Y-62703916D01*
X140812786Y-62623051D01*
X140426949Y-62237214D01*
X139922828Y-62028400D01*
X139377172Y-62028400D01*
X139196696Y-62103156D01*
X139033588Y-61709377D01*
X138690622Y-61366411D01*
X138242514Y-61180799D01*
X137943410Y-61180799D01*
X138033587Y-61090622D01*
X138219199Y-60642514D01*
X138219199Y-60157486D01*
X138033587Y-59709378D01*
X137690621Y-59366412D01*
X137242513Y-59180800D01*
X136757485Y-59180800D01*
X136554208Y-59265000D01*
X135445791Y-59265000D01*
X135242514Y-59180800D01*
X134757486Y-59180800D01*
X134554209Y-59265000D01*
X133445790Y-59265000D01*
X133242513Y-59180800D01*
X132757485Y-59180800D01*
X132554208Y-59265000D01*
X131445792Y-59265000D01*
X131242515Y-59180800D01*
X130757487Y-59180800D01*
X130554210Y-59265000D01*
X129470131Y-59265000D01*
X126481612Y-56276482D01*
X126418288Y-56181711D01*
X126042854Y-55930854D01*
X125711782Y-55865000D01*
X125599999Y-55842765D01*
X125488216Y-55865000D01*
X123111783Y-55865000D01*
X123000000Y-55842765D01*
X122888217Y-55865000D01*
X120530793Y-55865000D01*
X120221224Y-55555431D01*
X151765000Y-55555431D01*
X151765000Y-56444569D01*
X152105259Y-57266026D01*
X152733974Y-57894741D01*
X153555431Y-58235000D01*
X154444569Y-58235000D01*
X155266026Y-57894741D01*
X155894741Y-57266026D01*
X156235000Y-56444569D01*
X156235000Y-55555431D01*
X155894741Y-54733974D01*
X155266026Y-54105259D01*
X154444569Y-53765000D01*
X153555431Y-53765000D01*
X152733974Y-54105259D01*
X152105259Y-54733974D01*
X151765000Y-55555431D01*
X120221224Y-55555431D01*
X120067767Y-55401974D01*
X119374950Y-55115000D01*
X118625050Y-55115000D01*
X117932233Y-55401974D01*
X117401974Y-55932233D01*
X117115000Y-56625050D01*
X110685000Y-56625050D01*
X110685000Y-52685000D01*
X159315000Y-52685000D01*
X159315001Y-86716263D01*
X159315001Y-86716263D01*
G37*
X159315001Y-86716263D02*
X158716265Y-87315000D01*
X111283736Y-87315000D01*
X110685000Y-86716265D01*
X110685000Y-85411873D01*
X128467733Y-85411873D01*
X128529138Y-85564153D01*
X128895676Y-85678565D01*
X129278097Y-85643999D01*
X129470862Y-85564153D01*
X129532267Y-85411873D01*
X130467732Y-85411873D01*
X130529137Y-85564153D01*
X130895675Y-85678565D01*
X131278096Y-85643999D01*
X131470861Y-85564153D01*
X131532266Y-85411873D01*
X132467733Y-85411873D01*
X132529138Y-85564153D01*
X132895676Y-85678565D01*
X133278097Y-85643999D01*
X133470862Y-85564153D01*
X133532267Y-85411873D01*
X134467734Y-85411873D01*
X134529139Y-85564153D01*
X134895677Y-85678565D01*
X135278098Y-85643999D01*
X135470863Y-85564153D01*
X135532268Y-85411873D01*
X136467732Y-85411873D01*
X136529137Y-85564153D01*
X136895675Y-85678565D01*
X137278096Y-85643999D01*
X137470861Y-85564153D01*
X137532266Y-85411873D01*
X140692733Y-85411873D01*
X140754138Y-85564153D01*
X141120676Y-85678565D01*
X141503097Y-85643999D01*
X141695862Y-85564153D01*
X141757267Y-85411873D01*
X142692732Y-85411873D01*
X142754137Y-85564153D01*
X143120675Y-85678565D01*
X143503096Y-85643999D01*
X143695861Y-85564153D01*
X143757266Y-85411873D01*
X144692733Y-85411873D01*
X144754138Y-85564153D01*
X145120676Y-85678565D01*
X145503097Y-85643999D01*
X145695862Y-85564153D01*
X145757267Y-85411873D01*
X146692734Y-85411873D01*
X146754139Y-85564153D01*
X147120677Y-85678565D01*
X147503098Y-85643999D01*
X147695863Y-85564153D01*
X147757268Y-85411873D01*
X147225001Y-84879606D01*
X146692734Y-85411873D01*
X145757267Y-85411873D01*
X145225000Y-84879606D01*
X144692733Y-85411873D01*
X143757266Y-85411873D01*
X143224999Y-84879606D01*
X142692732Y-85411873D01*
X141757267Y-85411873D01*
X141225000Y-84879606D01*
X140692733Y-85411873D01*
X137532266Y-85411873D01*
X136999999Y-84879606D01*
X136467732Y-85411873D01*
X135532268Y-85411873D01*
X135000001Y-84879606D01*
X134467734Y-85411873D01*
X133532267Y-85411873D01*
X133000000Y-84879606D01*
X132467733Y-85411873D01*
X131532266Y-85411873D01*
X130999999Y-84879606D01*
X130467732Y-85411873D01*
X129532267Y-85411873D01*
X129000000Y-84879606D01*
X128467733Y-85411873D01*
X110685000Y-85411873D01*
X110685000Y-84595677D01*
X128021436Y-84595677D01*
X128056002Y-84978098D01*
X128135848Y-85170863D01*
X128288128Y-85232268D01*
X128820395Y-84700001D01*
X129179605Y-84700001D01*
X129711872Y-85232268D01*
X129864152Y-85170863D01*
X129978564Y-84804325D01*
X129959705Y-84595677D01*
X130021435Y-84595677D01*
X130056001Y-84978098D01*
X130135847Y-85170863D01*
X130288127Y-85232268D01*
X130820394Y-84700001D01*
X131179604Y-84700001D01*
X131711871Y-85232268D01*
X131864151Y-85170863D01*
X131978563Y-84804325D01*
X131959704Y-84595677D01*
X132021436Y-84595677D01*
X132056002Y-84978098D01*
X132135848Y-85170863D01*
X132288128Y-85232268D01*
X132820395Y-84700001D01*
X133179605Y-84700001D01*
X133711872Y-85232268D01*
X133864152Y-85170863D01*
X133978564Y-84804325D01*
X133959705Y-84595677D01*
X134021437Y-84595677D01*
X134056003Y-84978098D01*
X134135849Y-85170863D01*
X134288129Y-85232268D01*
X134820396Y-84700001D01*
X135179606Y-84700001D01*
X135711873Y-85232268D01*
X135864153Y-85170863D01*
X135978565Y-84804325D01*
X135959706Y-84595677D01*
X136021435Y-84595677D01*
X136056001Y-84978098D01*
X136135847Y-85170863D01*
X136288127Y-85232268D01*
X136820394Y-84700001D01*
X137179604Y-84700001D01*
X137711871Y-85232268D01*
X137864151Y-85170863D01*
X137978563Y-84804325D01*
X137959704Y-84595677D01*
X140246436Y-84595677D01*
X140281002Y-84978098D01*
X140360848Y-85170863D01*
X140513128Y-85232268D01*
X141045395Y-84700001D01*
X141404605Y-84700001D01*
X141936872Y-85232268D01*
X142089152Y-85170863D01*
X142203564Y-84804325D01*
X142184705Y-84595677D01*
X142246435Y-84595677D01*
X142281001Y-84978098D01*
X142360847Y-85170863D01*
X142513127Y-85232268D01*
X143045394Y-84700001D01*
X143404604Y-84700001D01*
X143936871Y-85232268D01*
X144089151Y-85170863D01*
X144203563Y-84804325D01*
X144184704Y-84595677D01*
X144246436Y-84595677D01*
X144281002Y-84978098D01*
X144360848Y-85170863D01*
X144513128Y-85232268D01*
X145045395Y-84700001D01*
X145404605Y-84700001D01*
X145936872Y-85232268D01*
X146089152Y-85170863D01*
X146203564Y-84804325D01*
X146184705Y-84595677D01*
X146246437Y-84595677D01*
X146281003Y-84978098D01*
X146360849Y-85170863D01*
X146513129Y-85232268D01*
X147045396Y-84700001D01*
X146513129Y-84167734D01*
X146360849Y-84229139D01*
X146246437Y-84595677D01*
X146184705Y-84595677D01*
X146168998Y-84421904D01*
X146089152Y-84229139D01*
X145936872Y-84167734D01*
X145404605Y-84700001D01*
X145045395Y-84700001D01*
X144513128Y-84167734D01*
X144360848Y-84229139D01*
X144246436Y-84595677D01*
X144184704Y-84595677D01*
X144168997Y-84421904D01*
X144089151Y-84229139D01*
X143936871Y-84167734D01*
X143404604Y-84700001D01*
X143045394Y-84700001D01*
X142513127Y-84167734D01*
X142360847Y-84229139D01*
X142246435Y-84595677D01*
X142184705Y-84595677D01*
X142168998Y-84421904D01*
X142089152Y-84229139D01*
X141936872Y-84167734D01*
X141404605Y-84700001D01*
X141045395Y-84700001D01*
X140513128Y-84167734D01*
X140360848Y-84229139D01*
X140246436Y-84595677D01*
X137959704Y-84595677D01*
X137943997Y-84421904D01*
X137864151Y-84229139D01*
X137711871Y-84167734D01*
X137179604Y-84700001D01*
X136820394Y-84700001D01*
X136288127Y-84167734D01*
X136135847Y-84229139D01*
X136021435Y-84595677D01*
X135959706Y-84595677D01*
X135943999Y-84421904D01*
X135864153Y-84229139D01*
X135711873Y-84167734D01*
X135179606Y-84700001D01*
X134820396Y-84700001D01*
X134288129Y-84167734D01*
X134135849Y-84229139D01*
X134021437Y-84595677D01*
X133959705Y-84595677D01*
X133943998Y-84421904D01*
X133864152Y-84229139D01*
X133711872Y-84167734D01*
X133179605Y-84700001D01*
X132820395Y-84700001D01*
X132288128Y-84167734D01*
X132135848Y-84229139D01*
X132021436Y-84595677D01*
X131959704Y-84595677D01*
X131943997Y-84421904D01*
X131864151Y-84229139D01*
X131711871Y-84167734D01*
X131179604Y-84700001D01*
X130820394Y-84700001D01*
X130288127Y-84167734D01*
X130135847Y-84229139D01*
X130021435Y-84595677D01*
X129959705Y-84595677D01*
X129943998Y-84421904D01*
X129864152Y-84229139D01*
X129711872Y-84167734D01*
X129179605Y-84700001D01*
X128820395Y-84700001D01*
X128288128Y-84167734D01*
X128135848Y-84229139D01*
X128021436Y-84595677D01*
X110685000Y-84595677D01*
X110685000Y-81555431D01*
X113765000Y-81555431D01*
X113765000Y-82444569D01*
X114105259Y-83266026D01*
X114733974Y-83894741D01*
X115555431Y-84235000D01*
X116444569Y-84235000D01*
X117266026Y-83894741D01*
X117894741Y-83266026D01*
X118235000Y-82444569D01*
X118235000Y-81555431D01*
X117894741Y-80733974D01*
X117266026Y-80105259D01*
X116444569Y-79765000D01*
X115555431Y-79765000D01*
X114733974Y-80105259D01*
X114105259Y-80733974D01*
X113765000Y-81555431D01*
X110685000Y-81555431D01*
X110685000Y-77250000D01*
X121842765Y-77250000D01*
X121930854Y-77692855D01*
X121973898Y-77757275D01*
X122001843Y-77897765D01*
X122070155Y-78000000D01*
X122001843Y-78102235D01*
X121952560Y-78350000D01*
X121952560Y-79150000D01*
X122001843Y-79397765D01*
X122142191Y-79607809D01*
X122240000Y-79673164D01*
X122240001Y-80142765D01*
X122136753Y-80211753D01*
X121944922Y-80498848D01*
X121877560Y-80837500D01*
X121877560Y-81412500D01*
X121944922Y-81751152D01*
X122111197Y-82000000D01*
X121944922Y-82248848D01*
X121877560Y-82587500D01*
X121877560Y-83162500D01*
X121944922Y-83501152D01*
X122136753Y-83788247D01*
X122423848Y-83980078D01*
X122762500Y-84047440D01*
X123237500Y-84047440D01*
X123535676Y-83988129D01*
X128467733Y-83988129D01*
X129000000Y-84520396D01*
X129532267Y-83988129D01*
X130467732Y-83988129D01*
X130999999Y-84520396D01*
X131532266Y-83988129D01*
X132467733Y-83988129D01*
X133000000Y-84520396D01*
X133532267Y-83988129D01*
X134467734Y-83988129D01*
X135000001Y-84520396D01*
X135532268Y-83988129D01*
X136467732Y-83988129D01*
X136999999Y-84520396D01*
X137532266Y-83988129D01*
X140692733Y-83988129D01*
X141225000Y-84520396D01*
X141757267Y-83988129D01*
X142692732Y-83988129D01*
X143224999Y-84520396D01*
X143757266Y-83988129D01*
X144692733Y-83988129D01*
X145225000Y-84520396D01*
X145757267Y-83988129D01*
X145695862Y-83835849D01*
X145329324Y-83721437D01*
X144946903Y-83756003D01*
X144754138Y-83835849D01*
X144692733Y-83988129D01*
X143757266Y-83988129D01*
X143695861Y-83835849D01*
X143329323Y-83721437D01*
X142946902Y-83756003D01*
X142754137Y-83835849D01*
X142692732Y-83988129D01*
X141757267Y-83988129D01*
X141695862Y-83835849D01*
X141329324Y-83721437D01*
X140946903Y-83756003D01*
X140754138Y-83835849D01*
X140692733Y-83988129D01*
X137532266Y-83988129D01*
X137470861Y-83835849D01*
X137104323Y-83721437D01*
X136721902Y-83756003D01*
X136529137Y-83835849D01*
X136467732Y-83988129D01*
X135532268Y-83988129D01*
X135470863Y-83835849D01*
X135104325Y-83721437D01*
X134721904Y-83756003D01*
X134529139Y-83835849D01*
X134467734Y-83988129D01*
X133532267Y-83988129D01*
X133470862Y-83835849D01*
X133104324Y-83721437D01*
X132721903Y-83756003D01*
X132529138Y-83835849D01*
X132467733Y-83988129D01*
X131532266Y-83988129D01*
X131470861Y-83835849D01*
X131104323Y-83721437D01*
X130721902Y-83756003D01*
X130529137Y-83835849D01*
X130467732Y-83988129D01*
X129532267Y-83988129D01*
X129470862Y-83835849D01*
X129104324Y-83721437D01*
X128721903Y-83756003D01*
X128529138Y-83835849D01*
X128467733Y-83988129D01*
X123535676Y-83988129D01*
X123576152Y-83980078D01*
X123863247Y-83788247D01*
X123965644Y-83635000D01*
X125750152Y-83635000D01*
X125824999Y-83649888D01*
X125899846Y-83635000D01*
X125899851Y-83635000D01*
X126121536Y-83590904D01*
X126372928Y-83422929D01*
X126380316Y-83411872D01*
X127467732Y-83411872D01*
X127529137Y-83564152D01*
X127895675Y-83678564D01*
X128278096Y-83643998D01*
X128470861Y-83564152D01*
X128532266Y-83411872D01*
X129467734Y-83411872D01*
X129529139Y-83564152D01*
X129895677Y-83678564D01*
X130278098Y-83643998D01*
X130470863Y-83564152D01*
X130532268Y-83411872D01*
X131467732Y-83411872D01*
X131529137Y-83564152D01*
X131895675Y-83678564D01*
X132278096Y-83643998D01*
X132470861Y-83564152D01*
X132532266Y-83411872D01*
X133467733Y-83411872D01*
X133529138Y-83564152D01*
X133895676Y-83678564D01*
X134278097Y-83643998D01*
X134470862Y-83564152D01*
X134532267Y-83411872D01*
X135467732Y-83411872D01*
X135529137Y-83564152D01*
X135895675Y-83678564D01*
X136278096Y-83643998D01*
X136470861Y-83564152D01*
X136532266Y-83411872D01*
X137467733Y-83411872D01*
X137529138Y-83564152D01*
X137895676Y-83678564D01*
X138278097Y-83643998D01*
X138470862Y-83564152D01*
X138532267Y-83411872D01*
X141692734Y-83411872D01*
X141754139Y-83564152D01*
X142120677Y-83678564D01*
X142503098Y-83643998D01*
X142695863Y-83564152D01*
X142757268Y-83411872D01*
X143692732Y-83411872D01*
X143754137Y-83564152D01*
X144120675Y-83678564D01*
X144503096Y-83643998D01*
X144695861Y-83564152D01*
X144757266Y-83411872D01*
X144224999Y-82879605D01*
X143692732Y-83411872D01*
X142757268Y-83411872D01*
X142225001Y-82879605D01*
X141692734Y-83411872D01*
X138532267Y-83411872D01*
X138000000Y-82879605D01*
X137467733Y-83411872D01*
X136532266Y-83411872D01*
X135999999Y-82879605D01*
X135467732Y-83411872D01*
X134532267Y-83411872D01*
X134000000Y-82879605D01*
X133467733Y-83411872D01*
X132532266Y-83411872D01*
X131999999Y-82879605D01*
X131467732Y-83411872D01*
X130532268Y-83411872D01*
X130000001Y-82879605D01*
X129467734Y-83411872D01*
X128532266Y-83411872D01*
X127999999Y-82879605D01*
X127467732Y-83411872D01*
X126380316Y-83411872D01*
X126415330Y-83359470D01*
X127034507Y-82740294D01*
X127056001Y-82978097D01*
X127135847Y-83170862D01*
X127288127Y-83232267D01*
X127820394Y-82700000D01*
X128179604Y-82700000D01*
X128711871Y-83232267D01*
X128864151Y-83170862D01*
X128978563Y-82804324D01*
X128959704Y-82595676D01*
X129021437Y-82595676D01*
X129056003Y-82978097D01*
X129135849Y-83170862D01*
X129288129Y-83232267D01*
X129820396Y-82700000D01*
X130179606Y-82700000D01*
X130711873Y-83232267D01*
X130864153Y-83170862D01*
X130978565Y-82804324D01*
X130959706Y-82595676D01*
X131021435Y-82595676D01*
X131056001Y-82978097D01*
X131135847Y-83170862D01*
X131288127Y-83232267D01*
X131820394Y-82700000D01*
X132179604Y-82700000D01*
X132711871Y-83232267D01*
X132864151Y-83170862D01*
X132978563Y-82804324D01*
X132959704Y-82595676D01*
X133021436Y-82595676D01*
X133056002Y-82978097D01*
X133135848Y-83170862D01*
X133288128Y-83232267D01*
X133820395Y-82700000D01*
X134179605Y-82700000D01*
X134711872Y-83232267D01*
X134864152Y-83170862D01*
X134978564Y-82804324D01*
X134959705Y-82595676D01*
X135021435Y-82595676D01*
X135056001Y-82978097D01*
X135135847Y-83170862D01*
X135288127Y-83232267D01*
X135820394Y-82700000D01*
X136179604Y-82700000D01*
X136711871Y-83232267D01*
X136864151Y-83170862D01*
X136978563Y-82804324D01*
X136959704Y-82595676D01*
X137021436Y-82595676D01*
X137056002Y-82978097D01*
X137135848Y-83170862D01*
X137288128Y-83232267D01*
X137820395Y-82700000D01*
X137288128Y-82167733D01*
X137135848Y-82229138D01*
X137021436Y-82595676D01*
X136959704Y-82595676D01*
X136943997Y-82421903D01*
X136864151Y-82229138D01*
X136711871Y-82167733D01*
X136179604Y-82700000D01*
X135820394Y-82700000D01*
X135288127Y-82167733D01*
X135135847Y-82229138D01*
X135021435Y-82595676D01*
X134959705Y-82595676D01*
X134943998Y-82421903D01*
X134864152Y-82229138D01*
X134711872Y-82167733D01*
X134179605Y-82700000D01*
X133820395Y-82700000D01*
X133288128Y-82167733D01*
X133135848Y-82229138D01*
X133021436Y-82595676D01*
X132959704Y-82595676D01*
X132943997Y-82421903D01*
X132864151Y-82229138D01*
X132711871Y-82167733D01*
X132179604Y-82700000D01*
X131820394Y-82700000D01*
X131288127Y-82167733D01*
X131135847Y-82229138D01*
X131021435Y-82595676D01*
X130959706Y-82595676D01*
X130943999Y-82421903D01*
X130864153Y-82229138D01*
X130711873Y-82167733D01*
X130179606Y-82700000D01*
X129820396Y-82700000D01*
X129288129Y-82167733D01*
X129135849Y-82229138D01*
X129021437Y-82595676D01*
X128959704Y-82595676D01*
X128943997Y-82421903D01*
X128864151Y-82229138D01*
X128711871Y-82167733D01*
X128179604Y-82700000D01*
X127820394Y-82700000D01*
X127806252Y-82685858D01*
X127985857Y-82506253D01*
X127999999Y-82520395D01*
X128532266Y-81988128D01*
X128470861Y-81835848D01*
X128455396Y-81831021D01*
X128690622Y-81733587D01*
X129000000Y-81424210D01*
X129309377Y-81733587D01*
X129542698Y-81830232D01*
X129529139Y-81835848D01*
X129467734Y-81988128D01*
X130000001Y-82520395D01*
X130532268Y-81988128D01*
X130470863Y-81835848D01*
X130455396Y-81831020D01*
X130690621Y-81733587D01*
X131000000Y-81424209D01*
X131309378Y-81733587D01*
X131542698Y-81830231D01*
X131529137Y-81835848D01*
X131467732Y-81988128D01*
X131999999Y-82520395D01*
X132532266Y-81988128D01*
X132470861Y-81835848D01*
X132455396Y-81831021D01*
X132690622Y-81733587D01*
X133000001Y-81424209D01*
X133309379Y-81733587D01*
X133542699Y-81830231D01*
X133529138Y-81835848D01*
X133467733Y-81988128D01*
X134000000Y-82520395D01*
X134532267Y-81988128D01*
X134470862Y-81835848D01*
X134455397Y-81831021D01*
X134690623Y-81733587D01*
X135000000Y-81424210D01*
X135309377Y-81733587D01*
X135542697Y-81830231D01*
X135529137Y-81835848D01*
X135467732Y-81988128D01*
X135999999Y-82520395D01*
X136532266Y-81988128D01*
X136470861Y-81835848D01*
X136455395Y-81831020D01*
X136690621Y-81733587D01*
X137000000Y-81424209D01*
X137309378Y-81733587D01*
X137542698Y-81830231D01*
X137529138Y-81835848D01*
X137467733Y-81988128D01*
X138000000Y-82520395D01*
X138014143Y-82506253D01*
X138193748Y-82685858D01*
X138179605Y-82700000D01*
X138711872Y-83232267D01*
X138864152Y-83170862D01*
X138950325Y-82894794D01*
X139377172Y-83071600D01*
X139922828Y-83071600D01*
X140426949Y-82862786D01*
X140694059Y-82595676D01*
X141246437Y-82595676D01*
X141281003Y-82978097D01*
X141360849Y-83170862D01*
X141513129Y-83232267D01*
X142045396Y-82700000D01*
X142404606Y-82700000D01*
X142936873Y-83232267D01*
X143089153Y-83170862D01*
X143203565Y-82804324D01*
X143184706Y-82595676D01*
X143246435Y-82595676D01*
X143281001Y-82978097D01*
X143360847Y-83170862D01*
X143513127Y-83232267D01*
X144045394Y-82700000D01*
X143513127Y-82167733D01*
X143360847Y-82229138D01*
X143246435Y-82595676D01*
X143184706Y-82595676D01*
X143168999Y-82421903D01*
X143089153Y-82229138D01*
X142936873Y-82167733D01*
X142404606Y-82700000D01*
X142045396Y-82700000D01*
X141513129Y-82167733D01*
X141360849Y-82229138D01*
X141246437Y-82595676D01*
X140694059Y-82595676D01*
X140812786Y-82476949D01*
X141021600Y-81972828D01*
X141021600Y-81427172D01*
X140812786Y-80923051D01*
X140426949Y-80537214D01*
X139922828Y-80328400D01*
X139377172Y-80328400D01*
X139196696Y-80403156D01*
X139033588Y-80009377D01*
X138690622Y-79666411D01*
X138242514Y-79480799D01*
X137943410Y-79480799D01*
X138033587Y-79390622D01*
X138219199Y-78942514D01*
X138219199Y-78457486D01*
X138033587Y-78009378D01*
X137690621Y-77666412D01*
X137242513Y-77480800D01*
X136757485Y-77480800D01*
X136309377Y-77666412D01*
X136000000Y-77975790D01*
X135690622Y-77666412D01*
X135242514Y-77480800D01*
X134757486Y-77480800D01*
X134309378Y-77666412D01*
X134000000Y-77975791D01*
X133690621Y-77666412D01*
X133242513Y-77480800D01*
X132757485Y-77480800D01*
X132309377Y-77666412D01*
X132000000Y-77975789D01*
X131690623Y-77666412D01*
X131242515Y-77480800D01*
X130757487Y-77480800D01*
X130309379Y-77666412D01*
X130000000Y-77975791D01*
X129690621Y-77666412D01*
X129487342Y-77582211D01*
X128431612Y-76526482D01*
X128368288Y-76431711D01*
X127992854Y-76180854D01*
X127661782Y-76115000D01*
X127549999Y-76092765D01*
X127438216Y-76115000D01*
X122888217Y-76115000D01*
X122557145Y-76180854D01*
X122492725Y-76223898D01*
X122352235Y-76251843D01*
X122142191Y-76392191D01*
X122001843Y-76602235D01*
X121973898Y-76742725D01*
X121930854Y-76807145D01*
X121842765Y-77250000D01*
X110685000Y-77250000D01*
X110685000Y-67111873D01*
X128467733Y-67111873D01*
X128529138Y-67264153D01*
X128895676Y-67378565D01*
X129278097Y-67343999D01*
X129470862Y-67264153D01*
X129532267Y-67111873D01*
X130467732Y-67111873D01*
X130529137Y-67264153D01*
X130895675Y-67378565D01*
X131278096Y-67343999D01*
X131470861Y-67264153D01*
X131532266Y-67111873D01*
X132467733Y-67111873D01*
X132529138Y-67264153D01*
X132895676Y-67378565D01*
X133278097Y-67343999D01*
X133470862Y-67264153D01*
X133532267Y-67111873D01*
X134467734Y-67111873D01*
X134529139Y-67264153D01*
X134895677Y-67378565D01*
X135278098Y-67343999D01*
X135470863Y-67264153D01*
X135532268Y-67111873D01*
X136467732Y-67111873D01*
X136529137Y-67264153D01*
X136895675Y-67378565D01*
X137278096Y-67343999D01*
X137470861Y-67264153D01*
X137532266Y-67111873D01*
X136999999Y-66579606D01*
X136467732Y-67111873D01*
X135532268Y-67111873D01*
X135000001Y-66579606D01*
X134467734Y-67111873D01*
X133532267Y-67111873D01*
X133000000Y-66579606D01*
X132467733Y-67111873D01*
X131532266Y-67111873D01*
X130999999Y-66579606D01*
X130467732Y-67111873D01*
X129532267Y-67111873D01*
X129000000Y-66579606D01*
X128467733Y-67111873D01*
X110685000Y-67111873D01*
X110685000Y-66295677D01*
X128021436Y-66295677D01*
X128056002Y-66678098D01*
X128135848Y-66870863D01*
X128288128Y-66932268D01*
X128820395Y-66400001D01*
X129179605Y-66400001D01*
X129711872Y-66932268D01*
X129864152Y-66870863D01*
X129978564Y-66504325D01*
X129959705Y-66295677D01*
X130021435Y-66295677D01*
X130056001Y-66678098D01*
X130135847Y-66870863D01*
X130288127Y-66932268D01*
X130820394Y-66400001D01*
X131179604Y-66400001D01*
X131711871Y-66932268D01*
X131864151Y-66870863D01*
X131978563Y-66504325D01*
X131959704Y-66295677D01*
X132021436Y-66295677D01*
X132056002Y-66678098D01*
X132135848Y-66870863D01*
X132288128Y-66932268D01*
X132820395Y-66400001D01*
X133179605Y-66400001D01*
X133711872Y-66932268D01*
X133864152Y-66870863D01*
X133978564Y-66504325D01*
X133959705Y-66295677D01*
X134021437Y-66295677D01*
X134056003Y-66678098D01*
X134135849Y-66870863D01*
X134288129Y-66932268D01*
X134820396Y-66400001D01*
X135179606Y-66400001D01*
X135711873Y-66932268D01*
X135864153Y-66870863D01*
X135978565Y-66504325D01*
X135959706Y-66295677D01*
X136021435Y-66295677D01*
X136056001Y-66678098D01*
X136135847Y-66870863D01*
X136288127Y-66932268D01*
X136820394Y-66400001D01*
X137179604Y-66400001D01*
X137711871Y-66932268D01*
X137864151Y-66870863D01*
X137978563Y-66504325D01*
X137959704Y-66295677D01*
X140246436Y-66295677D01*
X140281002Y-66678098D01*
X140360848Y-66870863D01*
X140513128Y-66932268D01*
X141045395Y-66400001D01*
X140513128Y-65867734D01*
X140360848Y-65929139D01*
X140246436Y-66295677D01*
X137959704Y-66295677D01*
X137943997Y-66121904D01*
X137864151Y-65929139D01*
X137711871Y-65867734D01*
X137179604Y-66400001D01*
X136820394Y-66400001D01*
X136288127Y-65867734D01*
X136135847Y-65929139D01*
X136021435Y-66295677D01*
X135959706Y-66295677D01*
X135943999Y-66121904D01*
X135864153Y-65929139D01*
X135711873Y-65867734D01*
X135179606Y-66400001D01*
X134820396Y-66400001D01*
X134288129Y-65867734D01*
X134135849Y-65929139D01*
X134021437Y-66295677D01*
X133959705Y-66295677D01*
X133943998Y-66121904D01*
X133864152Y-65929139D01*
X133711872Y-65867734D01*
X133179605Y-66400001D01*
X132820395Y-66400001D01*
X132288128Y-65867734D01*
X132135848Y-65929139D01*
X132021436Y-66295677D01*
X131959704Y-66295677D01*
X131943997Y-66121904D01*
X131864151Y-65929139D01*
X131711871Y-65867734D01*
X131179604Y-66400001D01*
X130820394Y-66400001D01*
X130288127Y-65867734D01*
X130135847Y-65929139D01*
X130021435Y-66295677D01*
X129959705Y-66295677D01*
X129943998Y-66121904D01*
X129864152Y-65929139D01*
X129711872Y-65867734D01*
X129179605Y-66400001D01*
X128820395Y-66400001D01*
X128288128Y-65867734D01*
X128135848Y-65929139D01*
X128021436Y-66295677D01*
X110685000Y-66295677D01*
X110685000Y-62222250D01*
X117369000Y-62222250D01*
X117369000Y-63325786D01*
X117427004Y-63465820D01*
X117534181Y-63572996D01*
X117674215Y-63631000D01*
X118777750Y-63631000D01*
X118873000Y-63535750D01*
X118873000Y-62127000D01*
X119127000Y-62127000D01*
X119127000Y-63535750D01*
X119222250Y-63631000D01*
X120325785Y-63631000D01*
X120465819Y-63572996D01*
X120572996Y-63465820D01*
X120631000Y-63325786D01*
X120631000Y-62222250D01*
X120535750Y-62127000D01*
X119127000Y-62127000D01*
X118873000Y-62127000D01*
X117464250Y-62127000D01*
X117369000Y-62222250D01*
X110685000Y-62222250D01*
X110685000Y-60674214D01*
X117369000Y-60674214D01*
X117369000Y-61777750D01*
X117464250Y-61873000D01*
X118873000Y-61873000D01*
X118873000Y-60464250D01*
X119127000Y-60464250D01*
X119127000Y-61873000D01*
X120535750Y-61873000D01*
X120631000Y-61777750D01*
X120631000Y-60674214D01*
X120572996Y-60534180D01*
X120465819Y-60427004D01*
X120325785Y-60369000D01*
X119222250Y-60369000D01*
X119127000Y-60464250D01*
X118873000Y-60464250D01*
X118777750Y-60369000D01*
X117674215Y-60369000D01*
X117534181Y-60427004D01*
X117427004Y-60534180D01*
X117369000Y-60674214D01*
X110685000Y-60674214D01*
X110685000Y-56625050D01*
X117115000Y-56625050D01*
X117115000Y-57374950D01*
X117401974Y-58067767D01*
X117932233Y-58598026D01*
X118625050Y-58885000D01*
X119374950Y-58885000D01*
X120067767Y-58598026D01*
X120530793Y-58135000D01*
X121865000Y-58135000D01*
X121865000Y-59361782D01*
X121930854Y-59692854D01*
X121973898Y-59757274D01*
X122001843Y-59897765D01*
X122070155Y-60000000D01*
X122001843Y-60102235D01*
X121952560Y-60350000D01*
X121952560Y-61150000D01*
X122001843Y-61397765D01*
X122142191Y-61607809D01*
X122240000Y-61673164D01*
X122240001Y-62142765D01*
X122136753Y-62211753D01*
X121944922Y-62498848D01*
X121877560Y-62837500D01*
X121877560Y-63412500D01*
X121944922Y-63751152D01*
X122111197Y-64000000D01*
X121944922Y-64248848D01*
X121877560Y-64587500D01*
X121877560Y-65162500D01*
X121944922Y-65501152D01*
X122136753Y-65788247D01*
X122423848Y-65980078D01*
X122762500Y-66047440D01*
X123237500Y-66047440D01*
X123576152Y-65980078D01*
X123863247Y-65788247D01*
X123930144Y-65688129D01*
X128467733Y-65688129D01*
X129000000Y-66220396D01*
X129532267Y-65688129D01*
X130467732Y-65688129D01*
X130999999Y-66220396D01*
X131532266Y-65688129D01*
X132467733Y-65688129D01*
X133000000Y-66220396D01*
X133532267Y-65688129D01*
X134467734Y-65688129D01*
X135000001Y-66220396D01*
X135532268Y-65688129D01*
X136467732Y-65688129D01*
X136999999Y-66220396D01*
X137532266Y-65688129D01*
X137470861Y-65535849D01*
X137104323Y-65421437D01*
X136721902Y-65456003D01*
X136529137Y-65535849D01*
X136467732Y-65688129D01*
X135532268Y-65688129D01*
X135470863Y-65535849D01*
X135104325Y-65421437D01*
X134721904Y-65456003D01*
X134529139Y-65535849D01*
X134467734Y-65688129D01*
X133532267Y-65688129D01*
X133470862Y-65535849D01*
X133104324Y-65421437D01*
X132721903Y-65456003D01*
X132529138Y-65535849D01*
X132467733Y-65688129D01*
X131532266Y-65688129D01*
X131470861Y-65535849D01*
X131104323Y-65421437D01*
X130721902Y-65456003D01*
X130529137Y-65535849D01*
X130467732Y-65688129D01*
X129532267Y-65688129D01*
X129470862Y-65535849D01*
X129104324Y-65421437D01*
X128721903Y-65456003D01*
X128529138Y-65535849D01*
X128467733Y-65688129D01*
X123930144Y-65688129D01*
X123965644Y-65635000D01*
X125450152Y-65635000D01*
X125524999Y-65649888D01*
X125599846Y-65635000D01*
X125599851Y-65635000D01*
X125821536Y-65590904D01*
X126072928Y-65422929D01*
X126115330Y-65359470D01*
X126362928Y-65111872D01*
X127467732Y-65111872D01*
X127529137Y-65264152D01*
X127895675Y-65378564D01*
X128278096Y-65343998D01*
X128470861Y-65264152D01*
X128532266Y-65111872D01*
X129467734Y-65111872D01*
X129529139Y-65264152D01*
X129895677Y-65378564D01*
X130278098Y-65343998D01*
X130470863Y-65264152D01*
X130532268Y-65111872D01*
X131467732Y-65111872D01*
X131529137Y-65264152D01*
X131895675Y-65378564D01*
X132278096Y-65343998D01*
X132470861Y-65264152D01*
X132532266Y-65111872D01*
X133467733Y-65111872D01*
X133529138Y-65264152D01*
X133895676Y-65378564D01*
X134278097Y-65343998D01*
X134470862Y-65264152D01*
X134532267Y-65111872D01*
X135467732Y-65111872D01*
X135529137Y-65264152D01*
X135895675Y-65378564D01*
X136278096Y-65343998D01*
X136470861Y-65264152D01*
X136532266Y-65111872D01*
X137467733Y-65111872D01*
X137529138Y-65264152D01*
X137895676Y-65378564D01*
X138278097Y-65343998D01*
X138470862Y-65264152D01*
X138532267Y-65111872D01*
X138000000Y-64579605D01*
X137467733Y-65111872D01*
X136532266Y-65111872D01*
X135999999Y-64579605D01*
X135467732Y-65111872D01*
X134532267Y-65111872D01*
X134000000Y-64579605D01*
X133467733Y-65111872D01*
X132532266Y-65111872D01*
X131999999Y-64579605D01*
X131467732Y-65111872D01*
X130532268Y-65111872D01*
X130000001Y-64579605D01*
X129467734Y-65111872D01*
X128532266Y-65111872D01*
X127999999Y-64579605D01*
X127467732Y-65111872D01*
X126362928Y-65111872D01*
X127034507Y-64440294D01*
X127056001Y-64678097D01*
X127135847Y-64870862D01*
X127288127Y-64932267D01*
X127820394Y-64400000D01*
X128179604Y-64400000D01*
X128711871Y-64932267D01*
X128864151Y-64870862D01*
X128978563Y-64504324D01*
X128959704Y-64295676D01*
X129021437Y-64295676D01*
X129056003Y-64678097D01*
X129135849Y-64870862D01*
X129288129Y-64932267D01*
X129820396Y-64400000D01*
X130179606Y-64400000D01*
X130711873Y-64932267D01*
X130864153Y-64870862D01*
X130978565Y-64504324D01*
X130959706Y-64295676D01*
X131021435Y-64295676D01*
X131056001Y-64678097D01*
X131135847Y-64870862D01*
X131288127Y-64932267D01*
X131820394Y-64400000D01*
X132179604Y-64400000D01*
X132711871Y-64932267D01*
X132864151Y-64870862D01*
X132978563Y-64504324D01*
X132959704Y-64295676D01*
X133021436Y-64295676D01*
X133056002Y-64678097D01*
X133135848Y-64870862D01*
X133288128Y-64932267D01*
X133820395Y-64400000D01*
X134179605Y-64400000D01*
X134711872Y-64932267D01*
X134864152Y-64870862D01*
X134978564Y-64504324D01*
X134959705Y-64295676D01*
X135021435Y-64295676D01*
X135056001Y-64678097D01*
X135135847Y-64870862D01*
X135288127Y-64932267D01*
X135820394Y-64400000D01*
X136179604Y-64400000D01*
X136711871Y-64932267D01*
X136864151Y-64870862D01*
X136978563Y-64504324D01*
X136959704Y-64295676D01*
X137021436Y-64295676D01*
X137056002Y-64678097D01*
X137135848Y-64870862D01*
X137288128Y-64932267D01*
X137820395Y-64400000D01*
X137288128Y-63867733D01*
X137135848Y-63929138D01*
X137021436Y-64295676D01*
X136959704Y-64295676D01*
X136943997Y-64121903D01*
X136864151Y-63929138D01*
X136711871Y-63867733D01*
X136179604Y-64400000D01*
X135820394Y-64400000D01*
X135288127Y-63867733D01*
X135135847Y-63929138D01*
X135021435Y-64295676D01*
X134959705Y-64295676D01*
X134943998Y-64121903D01*
X134864152Y-63929138D01*
X134711872Y-63867733D01*
X134179605Y-64400000D01*
X133820395Y-64400000D01*
X133288128Y-63867733D01*
X133135848Y-63929138D01*
X133021436Y-64295676D01*
X132959704Y-64295676D01*
X132943997Y-64121903D01*
X132864151Y-63929138D01*
X132711871Y-63867733D01*
X132179604Y-64400000D01*
X131820394Y-64400000D01*
X131288127Y-63867733D01*
X131135847Y-63929138D01*
X131021435Y-64295676D01*
X130959706Y-64295676D01*
X130943999Y-64121903D01*
X130864153Y-63929138D01*
X130711873Y-63867733D01*
X130179606Y-64400000D01*
X129820396Y-64400000D01*
X129288129Y-63867733D01*
X129135849Y-63929138D01*
X129021437Y-64295676D01*
X128959704Y-64295676D01*
X128943997Y-64121903D01*
X128864151Y-63929138D01*
X128711871Y-63867733D01*
X128179604Y-64400000D01*
X127820394Y-64400000D01*
X127806252Y-64385858D01*
X127985857Y-64206253D01*
X127999999Y-64220395D01*
X128532266Y-63688128D01*
X128470861Y-63535848D01*
X128455396Y-63531021D01*
X128690622Y-63433587D01*
X129000000Y-63124210D01*
X129309377Y-63433587D01*
X129542698Y-63530232D01*
X129529139Y-63535848D01*
X129467734Y-63688128D01*
X130000001Y-64220395D01*
X130532268Y-63688128D01*
X130470863Y-63535848D01*
X130468143Y-63534999D01*
X131531187Y-63534999D01*
X131529137Y-63535848D01*
X131467732Y-63688128D01*
X131999999Y-64220395D01*
X132532266Y-63688128D01*
X132470861Y-63535848D01*
X132468141Y-63534999D01*
X133531188Y-63534999D01*
X133529138Y-63535848D01*
X133467733Y-63688128D01*
X134000000Y-64220395D01*
X134532267Y-63688128D01*
X134470862Y-63535848D01*
X134468142Y-63534999D01*
X135531187Y-63534999D01*
X135529137Y-63535848D01*
X135467732Y-63688128D01*
X135999999Y-64220395D01*
X136532266Y-63688128D01*
X136470861Y-63535848D01*
X136468141Y-63534999D01*
X137531188Y-63534999D01*
X137529138Y-63535848D01*
X137467733Y-63688128D01*
X138000000Y-64220395D01*
X138014143Y-64206253D01*
X138193748Y-64385858D01*
X138179605Y-64400000D01*
X138711872Y-64932267D01*
X138864152Y-64870862D01*
X138950325Y-64594794D01*
X139377172Y-64771600D01*
X139922828Y-64771600D01*
X140426949Y-64562786D01*
X140555801Y-64433934D01*
X140555801Y-65070331D01*
X140540912Y-65145183D01*
X140599897Y-65441720D01*
X140718486Y-65619200D01*
X140719759Y-65621106D01*
X140692733Y-65688129D01*
X141225000Y-66220396D01*
X141239143Y-66206254D01*
X141374201Y-66341312D01*
X141374201Y-66458690D01*
X141239143Y-66593749D01*
X141225000Y-66579606D01*
X140692733Y-67111873D01*
X140754138Y-67264153D01*
X141120676Y-67378565D01*
X141503097Y-67343999D01*
X141630650Y-67291165D01*
X141649729Y-67303913D01*
X146925198Y-72579383D01*
X141860855Y-77643727D01*
X141467514Y-77480800D01*
X140982486Y-77480800D01*
X140534378Y-77666412D01*
X140191412Y-78009378D01*
X140005800Y-78457486D01*
X140005800Y-78942514D01*
X140191412Y-79390622D01*
X140534378Y-79733588D01*
X140982486Y-79919200D01*
X141281588Y-79919200D01*
X141191411Y-80009377D01*
X141005799Y-80457485D01*
X141005799Y-80942513D01*
X141191411Y-81390621D01*
X141534377Y-81733587D01*
X141767698Y-81830232D01*
X141754139Y-81835848D01*
X141692734Y-81988128D01*
X142225001Y-82520395D01*
X142757268Y-81988128D01*
X142695863Y-81835848D01*
X142680396Y-81831020D01*
X142915621Y-81733587D01*
X143225000Y-81424209D01*
X143534378Y-81733587D01*
X143767698Y-81830231D01*
X143754137Y-81835848D01*
X143692732Y-81988128D01*
X144224999Y-82520395D01*
X144757266Y-81988128D01*
X144695861Y-81835848D01*
X144680396Y-81831021D01*
X144915622Y-81733587D01*
X145225001Y-81424209D01*
X145500792Y-81700000D01*
X145191413Y-82009378D01*
X145094768Y-82242699D01*
X145089151Y-82229138D01*
X144936871Y-82167733D01*
X144404604Y-82700000D01*
X144936871Y-83232267D01*
X145089151Y-83170862D01*
X145093979Y-83155395D01*
X145191413Y-83390622D01*
X145534379Y-83733588D01*
X145982487Y-83919200D01*
X146391583Y-83919200D01*
X146512663Y-84000103D01*
X146734348Y-84044199D01*
X146734352Y-84044199D01*
X146752392Y-84047787D01*
X147225001Y-84520396D01*
X147239144Y-84506254D01*
X147418749Y-84685859D01*
X147404606Y-84700001D01*
X147936873Y-85232268D01*
X148089153Y-85170863D01*
X148203565Y-84804325D01*
X148168999Y-84421904D01*
X148089153Y-84229139D01*
X147936875Y-84167735D01*
X148008916Y-84095694D01*
X147957421Y-84044199D01*
X150765954Y-84044199D01*
X150840801Y-84059087D01*
X150915648Y-84044199D01*
X150915653Y-84044199D01*
X151137338Y-84000103D01*
X151388730Y-83832128D01*
X151431132Y-83768669D01*
X153077362Y-82122440D01*
X153412500Y-82122440D01*
X153751152Y-82055078D01*
X154000000Y-81888803D01*
X154248848Y-82055078D01*
X154587500Y-82122440D01*
X155162500Y-82122440D01*
X155501152Y-82055078D01*
X155788247Y-81863247D01*
X155980078Y-81576152D01*
X156047440Y-81237500D01*
X156047440Y-80902362D01*
X156359474Y-80590328D01*
X156422930Y-80547928D01*
X156590905Y-80296536D01*
X156635001Y-80074851D01*
X156635001Y-80074846D01*
X156649889Y-79999999D01*
X156635001Y-79925152D01*
X156635001Y-73759847D01*
X156649889Y-73685000D01*
X156635001Y-73610153D01*
X156635001Y-73610149D01*
X156590905Y-73388464D01*
X156422930Y-73137072D01*
X156359471Y-73094670D01*
X156185000Y-72920199D01*
X156185000Y-72574289D01*
X156019610Y-72175000D01*
X156185000Y-71775711D01*
X156185000Y-71304289D01*
X156019610Y-70905000D01*
X156185000Y-70505711D01*
X156185000Y-70159801D01*
X156359471Y-69985330D01*
X156422930Y-69942928D01*
X156590905Y-69691536D01*
X156635001Y-69469851D01*
X156635001Y-69469847D01*
X156649889Y-69395000D01*
X156635001Y-69320153D01*
X156635001Y-63074848D01*
X156649889Y-63000001D01*
X156635001Y-62925154D01*
X156635001Y-62925149D01*
X156590905Y-62703464D01*
X156422930Y-62452072D01*
X156359474Y-62409672D01*
X156047440Y-62097638D01*
X156047440Y-61762500D01*
X155980078Y-61423848D01*
X155788247Y-61136753D01*
X155501152Y-60944922D01*
X155162500Y-60877560D01*
X154587500Y-60877560D01*
X154248848Y-60944922D01*
X154000000Y-61111197D01*
X153751152Y-60944922D01*
X153412500Y-60877560D01*
X152837500Y-60877560D01*
X152498848Y-60944922D01*
X152211753Y-61136753D01*
X152019922Y-61423848D01*
X151952560Y-61762500D01*
X151952560Y-62097637D01*
X150026098Y-64024101D01*
X150171600Y-63672828D01*
X150171600Y-63127172D01*
X149962786Y-62623051D01*
X149576949Y-62237214D01*
X149072828Y-62028400D01*
X148527172Y-62028400D01*
X148023051Y-62237214D01*
X147637214Y-62623051D01*
X147428400Y-63127172D01*
X147428400Y-63672828D01*
X147637214Y-64176949D01*
X147684464Y-64224199D01*
X147444201Y-64224199D01*
X147444201Y-64157486D01*
X147258589Y-63709378D01*
X146949211Y-63400000D01*
X147258589Y-63090621D01*
X147444201Y-62642513D01*
X147444201Y-62157485D01*
X147258589Y-61709377D01*
X147168412Y-61619200D01*
X147467515Y-61619200D01*
X147915623Y-61433588D01*
X148258589Y-61090622D01*
X148444201Y-60642514D01*
X148444201Y-60157486D01*
X148258589Y-59709378D01*
X147915623Y-59366412D01*
X147467515Y-59180800D01*
X146982487Y-59180800D01*
X146534379Y-59366412D01*
X146225000Y-59675791D01*
X145915621Y-59366412D01*
X145467513Y-59180800D01*
X144982485Y-59180800D01*
X144534377Y-59366412D01*
X144225000Y-59675789D01*
X143915623Y-59366412D01*
X143467515Y-59180800D01*
X142982487Y-59180800D01*
X142534379Y-59366412D01*
X142225001Y-59675791D01*
X141915622Y-59366412D01*
X141467514Y-59180800D01*
X140982486Y-59180800D01*
X140534378Y-59366412D01*
X140191412Y-59709378D01*
X140005800Y-60157486D01*
X140005800Y-60642514D01*
X140191412Y-61090622D01*
X140534378Y-61433588D01*
X140982486Y-61619200D01*
X141281588Y-61619200D01*
X141191411Y-61709377D01*
X141005799Y-62157485D01*
X141005799Y-62544398D01*
X140846281Y-62703916D01*
X140812786Y-62623051D01*
X140426949Y-62237214D01*
X139922828Y-62028400D01*
X139377172Y-62028400D01*
X139196696Y-62103156D01*
X139033588Y-61709377D01*
X138690622Y-61366411D01*
X138242514Y-61180799D01*
X137943410Y-61180799D01*
X138033587Y-61090622D01*
X138219199Y-60642514D01*
X138219199Y-60157486D01*
X138033587Y-59709378D01*
X137690621Y-59366412D01*
X137242513Y-59180800D01*
X136757485Y-59180800D01*
X136554208Y-59265000D01*
X135445791Y-59265000D01*
X135242514Y-59180800D01*
X134757486Y-59180800D01*
X134554209Y-59265000D01*
X133445790Y-59265000D01*
X133242513Y-59180800D01*
X132757485Y-59180800D01*
X132554208Y-59265000D01*
X131445792Y-59265000D01*
X131242515Y-59180800D01*
X130757487Y-59180800D01*
X130554210Y-59265000D01*
X129470131Y-59265000D01*
X126481612Y-56276482D01*
X126418288Y-56181711D01*
X126042854Y-55930854D01*
X125711782Y-55865000D01*
X125599999Y-55842765D01*
X125488216Y-55865000D01*
X123111783Y-55865000D01*
X123000000Y-55842765D01*
X122888217Y-55865000D01*
X120530793Y-55865000D01*
X120221224Y-55555431D01*
X151765000Y-55555431D01*
X151765000Y-56444569D01*
X152105259Y-57266026D01*
X152733974Y-57894741D01*
X153555431Y-58235000D01*
X154444569Y-58235000D01*
X155266026Y-57894741D01*
X155894741Y-57266026D01*
X156235000Y-56444569D01*
X156235000Y-55555431D01*
X155894741Y-54733974D01*
X155266026Y-54105259D01*
X154444569Y-53765000D01*
X153555431Y-53765000D01*
X152733974Y-54105259D01*
X152105259Y-54733974D01*
X151765000Y-55555431D01*
X120221224Y-55555431D01*
X120067767Y-55401974D01*
X119374950Y-55115000D01*
X118625050Y-55115000D01*
X117932233Y-55401974D01*
X117401974Y-55932233D01*
X117115000Y-56625050D01*
X110685000Y-56625050D01*
X110685000Y-52685000D01*
X159315000Y-52685000D01*
X159315001Y-86716263D01*
G36*
X152889530Y-73645374D02*
X152785640Y-73983888D01*
X152820744Y-74352595D01*
X152894305Y-74530187D01*
X153043051Y-74587344D01*
X153550395Y-74080000D01*
X153536253Y-74065858D01*
X153607110Y-73995000D01*
X153815000Y-73995000D01*
X153815000Y-74202890D01*
X153744143Y-74273748D01*
X153730000Y-74259605D01*
X153222656Y-74766949D01*
X153279813Y-74915695D01*
X153633888Y-75024360D01*
X154002595Y-74989256D01*
X154165807Y-74921651D01*
X154328751Y-75084595D01*
X154417074Y-75121180D01*
X154413720Y-75122569D01*
X154296289Y-75240000D01*
X153003676Y-75240000D01*
X152928829Y-75225112D01*
X152853982Y-75240000D01*
X152853978Y-75240000D01*
X152632293Y-75284096D01*
X152632291Y-75284097D01*
X152632292Y-75284097D01*
X152444356Y-75409671D01*
X152444354Y-75409673D01*
X152380901Y-75452071D01*
X152338503Y-75515524D01*
X147914030Y-79939999D01*
X147189211Y-79939999D01*
X147168412Y-79919200D01*
X147467515Y-79919200D01*
X147915623Y-79733588D01*
X148258589Y-79390622D01*
X148444201Y-78942514D01*
X148444201Y-78457486D01*
X148258589Y-78009378D01*
X147915623Y-77666412D01*
X147467515Y-77480800D01*
X146982487Y-77480800D01*
X146534379Y-77666412D01*
X146225000Y-77975791D01*
X145951696Y-77702487D01*
X150084183Y-73570000D01*
X152814156Y-73570000D01*
X152889530Y-73645374D01*
X152889530Y-73645374D01*
G37*
X152889530Y-73645374D02*
X152785640Y-73983888D01*
X152820744Y-74352595D01*
X152894305Y-74530187D01*
X153043051Y-74587344D01*
X153550395Y-74080000D01*
X153536253Y-74065858D01*
X153607110Y-73995000D01*
X153815000Y-73995000D01*
X153815000Y-74202890D01*
X153744143Y-74273748D01*
X153730000Y-74259605D01*
X153222656Y-74766949D01*
X153279813Y-74915695D01*
X153633888Y-75024360D01*
X154002595Y-74989256D01*
X154165807Y-74921651D01*
X154328751Y-75084595D01*
X154417074Y-75121180D01*
X154413720Y-75122569D01*
X154296289Y-75240000D01*
X153003676Y-75240000D01*
X152928829Y-75225112D01*
X152853982Y-75240000D01*
X152853978Y-75240000D01*
X152632293Y-75284096D01*
X152632291Y-75284097D01*
X152632292Y-75284097D01*
X152444356Y-75409671D01*
X152444354Y-75409673D01*
X152380901Y-75452071D01*
X152338503Y-75515524D01*
X147914030Y-79939999D01*
X147189211Y-79939999D01*
X147168412Y-79919200D01*
X147467515Y-79919200D01*
X147915623Y-79733588D01*
X148258589Y-79390622D01*
X148444201Y-78942514D01*
X148444201Y-78457486D01*
X148258589Y-78009378D01*
X147915623Y-77666412D01*
X147467515Y-77480800D01*
X146982487Y-77480800D01*
X146534379Y-77666412D01*
X146225000Y-77975791D01*
X145951696Y-77702487D01*
X150084183Y-73570000D01*
X152814156Y-73570000D01*
X152889530Y-73645374D01*
G36*
X154248848Y-63055078D02*
X154587500Y-63122440D01*
X154922638Y-63122440D01*
X155115001Y-63314803D01*
X155115001Y-63465000D01*
X154794126Y-63465000D01*
X154413720Y-63622569D01*
X154122569Y-63913720D01*
X153965000Y-64294126D01*
X153965000Y-64460198D01*
X153245528Y-65179671D01*
X153182072Y-65222071D01*
X153139672Y-65285527D01*
X153139671Y-65285528D01*
X153052723Y-65415655D01*
X153014097Y-65473463D01*
X153001857Y-65535000D01*
X152955112Y-65770000D01*
X152970001Y-65844852D01*
X152970000Y-68084156D01*
X152725405Y-68328751D01*
X152545000Y-68764289D01*
X152545000Y-69235711D01*
X152658614Y-69510000D01*
X150384231Y-69510000D01*
X150309383Y-69495112D01*
X150234535Y-69510000D01*
X150234531Y-69510000D01*
X150060988Y-69544520D01*
X150012845Y-69554096D01*
X149946015Y-69598751D01*
X149761454Y-69722071D01*
X149719054Y-69785527D01*
X148000001Y-71504581D01*
X143714169Y-67218751D01*
X143757266Y-67111873D01*
X144692733Y-67111873D01*
X144754138Y-67264153D01*
X145120676Y-67378565D01*
X145503097Y-67343999D01*
X145695862Y-67264153D01*
X145757267Y-67111873D01*
X146692734Y-67111873D01*
X146754139Y-67264153D01*
X147120677Y-67378565D01*
X147503098Y-67343999D01*
X147695863Y-67264153D01*
X147757268Y-67111873D01*
X147225001Y-66579606D01*
X146692734Y-67111873D01*
X145757267Y-67111873D01*
X145225000Y-66579606D01*
X144692733Y-67111873D01*
X143757266Y-67111873D01*
X143224999Y-66579606D01*
X143210857Y-66593749D01*
X143031252Y-66414144D01*
X143045394Y-66400001D01*
X143404604Y-66400001D01*
X143936871Y-66932268D01*
X144089151Y-66870863D01*
X144203563Y-66504325D01*
X144184704Y-66295677D01*
X144246436Y-66295677D01*
X144281002Y-66678098D01*
X144360848Y-66870863D01*
X144513128Y-66932268D01*
X145045395Y-66400001D01*
X145404605Y-66400001D01*
X145936872Y-66932268D01*
X146089152Y-66870863D01*
X146203564Y-66504325D01*
X146184705Y-66295677D01*
X146246437Y-66295677D01*
X146281003Y-66678098D01*
X146360849Y-66870863D01*
X146513129Y-66932268D01*
X147045396Y-66400001D01*
X146513129Y-65867734D01*
X146360849Y-65929139D01*
X146246437Y-66295677D01*
X146184705Y-66295677D01*
X146168998Y-66121904D01*
X146089152Y-65929139D01*
X145936872Y-65867734D01*
X145404605Y-66400001D01*
X145045395Y-66400001D01*
X144513128Y-65867734D01*
X144360848Y-65929139D01*
X144246436Y-66295677D01*
X144184704Y-66295677D01*
X144168997Y-66121904D01*
X144089151Y-65929139D01*
X143936871Y-65867734D01*
X143404604Y-66400001D01*
X143045394Y-66400001D01*
X143031252Y-66385859D01*
X143210857Y-66206254D01*
X143224999Y-66220396D01*
X143757266Y-65688129D01*
X144692733Y-65688129D01*
X145225000Y-66220396D01*
X145757267Y-65688129D01*
X145695862Y-65535849D01*
X145329324Y-65421437D01*
X144946903Y-65456003D01*
X144754138Y-65535849D01*
X144692733Y-65688129D01*
X143757266Y-65688129D01*
X143695861Y-65535849D01*
X143329323Y-65421437D01*
X142946902Y-65456003D01*
X142760641Y-65533155D01*
X142724530Y-65479111D01*
X142682130Y-65415655D01*
X142618674Y-65373255D01*
X142564135Y-65318716D01*
X142695863Y-65264152D01*
X142757268Y-65111872D01*
X143692732Y-65111872D01*
X143754137Y-65264152D01*
X144120675Y-65378564D01*
X144503096Y-65343998D01*
X144695861Y-65264152D01*
X144757266Y-65111872D01*
X144224999Y-64579605D01*
X143692732Y-65111872D01*
X142757268Y-65111872D01*
X142225001Y-64579605D01*
X142210859Y-64593748D01*
X142075800Y-64458689D01*
X142075800Y-64400000D01*
X142404606Y-64400000D01*
X142936873Y-64932267D01*
X143089153Y-64870862D01*
X143203565Y-64504324D01*
X143184706Y-64295676D01*
X143246435Y-64295676D01*
X143281001Y-64678097D01*
X143360847Y-64870862D01*
X143513127Y-64932267D01*
X144045394Y-64400000D01*
X143513127Y-63867733D01*
X143360847Y-63929138D01*
X143246435Y-64295676D01*
X143184706Y-64295676D01*
X143168999Y-64121903D01*
X143089153Y-63929138D01*
X142936873Y-63867733D01*
X142404606Y-64400000D01*
X142075800Y-64400000D01*
X142075800Y-64341311D01*
X142210859Y-64206253D01*
X142225001Y-64220395D01*
X142757268Y-63688128D01*
X142695863Y-63535848D01*
X142680396Y-63531020D01*
X142915621Y-63433587D01*
X143225000Y-63124209D01*
X143534378Y-63433587D01*
X143767698Y-63530231D01*
X143754137Y-63535848D01*
X143692732Y-63688128D01*
X144224999Y-64220395D01*
X144757266Y-63688128D01*
X144695861Y-63535848D01*
X144680396Y-63531021D01*
X144915622Y-63433587D01*
X145225001Y-63124209D01*
X145500792Y-63400000D01*
X145191413Y-63709378D01*
X145094768Y-63942699D01*
X145089151Y-63929138D01*
X144936871Y-63867733D01*
X144404604Y-64400000D01*
X144936871Y-64932267D01*
X145089151Y-64870862D01*
X145093979Y-64855395D01*
X145191413Y-65090622D01*
X145534379Y-65433588D01*
X145982487Y-65619200D01*
X146391583Y-65619200D01*
X146512663Y-65700103D01*
X146734348Y-65744199D01*
X146734352Y-65744199D01*
X146752392Y-65747787D01*
X147225001Y-66220396D01*
X147239144Y-66206254D01*
X147418749Y-66385859D01*
X147404606Y-66400001D01*
X147936873Y-66932268D01*
X148089153Y-66870863D01*
X148203565Y-66504325D01*
X148168999Y-66121904D01*
X148089153Y-65929139D01*
X147936875Y-65867735D01*
X148008916Y-65795694D01*
X147957421Y-65744199D01*
X150065954Y-65744199D01*
X150140801Y-65759087D01*
X150215648Y-65744199D01*
X150215653Y-65744199D01*
X150437338Y-65700103D01*
X150688730Y-65532128D01*
X150731132Y-65468669D01*
X153077363Y-63122440D01*
X153412500Y-63122440D01*
X153751152Y-63055078D01*
X154000000Y-62888803D01*
X154248848Y-63055078D01*
X154248848Y-63055078D01*
G37*
X154248848Y-63055078D02*
X154587500Y-63122440D01*
X154922638Y-63122440D01*
X155115001Y-63314803D01*
X155115001Y-63465000D01*
X154794126Y-63465000D01*
X154413720Y-63622569D01*
X154122569Y-63913720D01*
X153965000Y-64294126D01*
X153965000Y-64460198D01*
X153245528Y-65179671D01*
X153182072Y-65222071D01*
X153139672Y-65285527D01*
X153139671Y-65285528D01*
X153052723Y-65415655D01*
X153014097Y-65473463D01*
X153001857Y-65535000D01*
X152955112Y-65770000D01*
X152970001Y-65844852D01*
X152970000Y-68084156D01*
X152725405Y-68328751D01*
X152545000Y-68764289D01*
X152545000Y-69235711D01*
X152658614Y-69510000D01*
X150384231Y-69510000D01*
X150309383Y-69495112D01*
X150234535Y-69510000D01*
X150234531Y-69510000D01*
X150060988Y-69544520D01*
X150012845Y-69554096D01*
X149946015Y-69598751D01*
X149761454Y-69722071D01*
X149719054Y-69785527D01*
X148000001Y-71504581D01*
X143714169Y-67218751D01*
X143757266Y-67111873D01*
X144692733Y-67111873D01*
X144754138Y-67264153D01*
X145120676Y-67378565D01*
X145503097Y-67343999D01*
X145695862Y-67264153D01*
X145757267Y-67111873D01*
X146692734Y-67111873D01*
X146754139Y-67264153D01*
X147120677Y-67378565D01*
X147503098Y-67343999D01*
X147695863Y-67264153D01*
X147757268Y-67111873D01*
X147225001Y-66579606D01*
X146692734Y-67111873D01*
X145757267Y-67111873D01*
X145225000Y-66579606D01*
X144692733Y-67111873D01*
X143757266Y-67111873D01*
X143224999Y-66579606D01*
X143210857Y-66593749D01*
X143031252Y-66414144D01*
X143045394Y-66400001D01*
X143404604Y-66400001D01*
X143936871Y-66932268D01*
X144089151Y-66870863D01*
X144203563Y-66504325D01*
X144184704Y-66295677D01*
X144246436Y-66295677D01*
X144281002Y-66678098D01*
X144360848Y-66870863D01*
X144513128Y-66932268D01*
X145045395Y-66400001D01*
X145404605Y-66400001D01*
X145936872Y-66932268D01*
X146089152Y-66870863D01*
X146203564Y-66504325D01*
X146184705Y-66295677D01*
X146246437Y-66295677D01*
X146281003Y-66678098D01*
X146360849Y-66870863D01*
X146513129Y-66932268D01*
X147045396Y-66400001D01*
X146513129Y-65867734D01*
X146360849Y-65929139D01*
X146246437Y-66295677D01*
X146184705Y-66295677D01*
X146168998Y-66121904D01*
X146089152Y-65929139D01*
X145936872Y-65867734D01*
X145404605Y-66400001D01*
X145045395Y-66400001D01*
X144513128Y-65867734D01*
X144360848Y-65929139D01*
X144246436Y-66295677D01*
X144184704Y-66295677D01*
X144168997Y-66121904D01*
X144089151Y-65929139D01*
X143936871Y-65867734D01*
X143404604Y-66400001D01*
X143045394Y-66400001D01*
X143031252Y-66385859D01*
X143210857Y-66206254D01*
X143224999Y-66220396D01*
X143757266Y-65688129D01*
X144692733Y-65688129D01*
X145225000Y-66220396D01*
X145757267Y-65688129D01*
X145695862Y-65535849D01*
X145329324Y-65421437D01*
X144946903Y-65456003D01*
X144754138Y-65535849D01*
X144692733Y-65688129D01*
X143757266Y-65688129D01*
X143695861Y-65535849D01*
X143329323Y-65421437D01*
X142946902Y-65456003D01*
X142760641Y-65533155D01*
X142724530Y-65479111D01*
X142682130Y-65415655D01*
X142618674Y-65373255D01*
X142564135Y-65318716D01*
X142695863Y-65264152D01*
X142757268Y-65111872D01*
X143692732Y-65111872D01*
X143754137Y-65264152D01*
X144120675Y-65378564D01*
X144503096Y-65343998D01*
X144695861Y-65264152D01*
X144757266Y-65111872D01*
X144224999Y-64579605D01*
X143692732Y-65111872D01*
X142757268Y-65111872D01*
X142225001Y-64579605D01*
X142210859Y-64593748D01*
X142075800Y-64458689D01*
X142075800Y-64400000D01*
X142404606Y-64400000D01*
X142936873Y-64932267D01*
X143089153Y-64870862D01*
X143203565Y-64504324D01*
X143184706Y-64295676D01*
X143246435Y-64295676D01*
X143281001Y-64678097D01*
X143360847Y-64870862D01*
X143513127Y-64932267D01*
X144045394Y-64400000D01*
X143513127Y-63867733D01*
X143360847Y-63929138D01*
X143246435Y-64295676D01*
X143184706Y-64295676D01*
X143168999Y-64121903D01*
X143089153Y-63929138D01*
X142936873Y-63867733D01*
X142404606Y-64400000D01*
X142075800Y-64400000D01*
X142075800Y-64341311D01*
X142210859Y-64206253D01*
X142225001Y-64220395D01*
X142757268Y-63688128D01*
X142695863Y-63535848D01*
X142680396Y-63531020D01*
X142915621Y-63433587D01*
X143225000Y-63124209D01*
X143534378Y-63433587D01*
X143767698Y-63530231D01*
X143754137Y-63535848D01*
X143692732Y-63688128D01*
X144224999Y-64220395D01*
X144757266Y-63688128D01*
X144695861Y-63535848D01*
X144680396Y-63531021D01*
X144915622Y-63433587D01*
X145225001Y-63124209D01*
X145500792Y-63400000D01*
X145191413Y-63709378D01*
X145094768Y-63942699D01*
X145089151Y-63929138D01*
X144936871Y-63867733D01*
X144404604Y-64400000D01*
X144936871Y-64932267D01*
X145089151Y-64870862D01*
X145093979Y-64855395D01*
X145191413Y-65090622D01*
X145534379Y-65433588D01*
X145982487Y-65619200D01*
X146391583Y-65619200D01*
X146512663Y-65700103D01*
X146734348Y-65744199D01*
X146734352Y-65744199D01*
X146752392Y-65747787D01*
X147225001Y-66220396D01*
X147239144Y-66206254D01*
X147418749Y-66385859D01*
X147404606Y-66400001D01*
X147936873Y-66932268D01*
X148089153Y-66870863D01*
X148203565Y-66504325D01*
X148168999Y-66121904D01*
X148089153Y-65929139D01*
X147936875Y-65867735D01*
X148008916Y-65795694D01*
X147957421Y-65744199D01*
X150065954Y-65744199D01*
X150140801Y-65759087D01*
X150215648Y-65744199D01*
X150215653Y-65744199D01*
X150437338Y-65700103D01*
X150688730Y-65532128D01*
X150731132Y-65468669D01*
X153077363Y-63122440D01*
X153412500Y-63122440D01*
X153751152Y-63055078D01*
X154000000Y-62888803D01*
X154248848Y-63055078D01*
G04 #@! TD*
M02*
