G04 #@! TF.GenerationSoftware,KiCad,Pcbnew,5.0.2+dfsg1-1*
G04 #@! TF.CreationDate,2021-07-01T00:07:39-05:00*
G04 #@! TF.ProjectId,backplane,6261636b-706c-4616-9e65-2e6b69636164,rev?*
G04 #@! TF.SameCoordinates,Original*
G04 #@! TF.FileFunction,Soldermask,Top*
G04 #@! TF.FilePolarity,Negative*
%FSLAX46Y46*%
G04 Gerber Fmt 4.6, Leading zero omitted, Abs format (unit mm)*
G04 Created by KiCad (PCBNEW 5.0.2+dfsg1-1) date Thu 01 Jul 2021 12:07:39 AM CDT*
%MOMM*%
%LPD*%
G01*
G04 APERTURE LIST*
%ADD10C,0.100000*%
G04 APERTURE END LIST*
D10*
G36*
X147310757Y-84121414D02*
X147395406Y-84138251D01*
X147501724Y-84182289D01*
X147596976Y-84245935D01*
X147597410Y-84246225D01*
X147678777Y-84327592D01*
X147678779Y-84327595D01*
X147742713Y-84423278D01*
X147786751Y-84529596D01*
X147809201Y-84642462D01*
X147809201Y-84757540D01*
X147786751Y-84870406D01*
X147742713Y-84976724D01*
X147679067Y-85071976D01*
X147678777Y-85072410D01*
X147597410Y-85153777D01*
X147597407Y-85153779D01*
X147501724Y-85217713D01*
X147395406Y-85261751D01*
X147310756Y-85278589D01*
X147282541Y-85284201D01*
X147167461Y-85284201D01*
X147139246Y-85278589D01*
X147054596Y-85261751D01*
X146948278Y-85217713D01*
X146852595Y-85153779D01*
X146852592Y-85153777D01*
X146771225Y-85072410D01*
X146770935Y-85071976D01*
X146707289Y-84976724D01*
X146663251Y-84870406D01*
X146640801Y-84757540D01*
X146640801Y-84642462D01*
X146663251Y-84529596D01*
X146707289Y-84423278D01*
X146771223Y-84327595D01*
X146771225Y-84327592D01*
X146852592Y-84246225D01*
X146853026Y-84245935D01*
X146948278Y-84182289D01*
X147054596Y-84138251D01*
X147139245Y-84121414D01*
X147167461Y-84115801D01*
X147282541Y-84115801D01*
X147310757Y-84121414D01*
X147310757Y-84121414D01*
G37*
G36*
X145310756Y-84121414D02*
X145395405Y-84138251D01*
X145501723Y-84182289D01*
X145596975Y-84245935D01*
X145597409Y-84246225D01*
X145678776Y-84327592D01*
X145678778Y-84327595D01*
X145742712Y-84423278D01*
X145786750Y-84529596D01*
X145809200Y-84642462D01*
X145809200Y-84757540D01*
X145786750Y-84870406D01*
X145742712Y-84976724D01*
X145679066Y-85071976D01*
X145678776Y-85072410D01*
X145597409Y-85153777D01*
X145597406Y-85153779D01*
X145501723Y-85217713D01*
X145395405Y-85261751D01*
X145310755Y-85278589D01*
X145282540Y-85284201D01*
X145167460Y-85284201D01*
X145139245Y-85278589D01*
X145054595Y-85261751D01*
X144948277Y-85217713D01*
X144852594Y-85153779D01*
X144852591Y-85153777D01*
X144771224Y-85072410D01*
X144770934Y-85071976D01*
X144707288Y-84976724D01*
X144663250Y-84870406D01*
X144640800Y-84757540D01*
X144640800Y-84642462D01*
X144663250Y-84529596D01*
X144707288Y-84423278D01*
X144771222Y-84327595D01*
X144771224Y-84327592D01*
X144852591Y-84246225D01*
X144853025Y-84245935D01*
X144948277Y-84182289D01*
X145054595Y-84138251D01*
X145139244Y-84121414D01*
X145167460Y-84115801D01*
X145282540Y-84115801D01*
X145310756Y-84121414D01*
X145310756Y-84121414D01*
G37*
G36*
X129085756Y-84121414D02*
X129170405Y-84138251D01*
X129276723Y-84182289D01*
X129371975Y-84245935D01*
X129372409Y-84246225D01*
X129453776Y-84327592D01*
X129453778Y-84327595D01*
X129517712Y-84423278D01*
X129561750Y-84529596D01*
X129584200Y-84642462D01*
X129584200Y-84757540D01*
X129561750Y-84870406D01*
X129517712Y-84976724D01*
X129454066Y-85071976D01*
X129453776Y-85072410D01*
X129372409Y-85153777D01*
X129372406Y-85153779D01*
X129276723Y-85217713D01*
X129170405Y-85261751D01*
X129085755Y-85278589D01*
X129057540Y-85284201D01*
X128942460Y-85284201D01*
X128914245Y-85278589D01*
X128829595Y-85261751D01*
X128723277Y-85217713D01*
X128627594Y-85153779D01*
X128627591Y-85153777D01*
X128546224Y-85072410D01*
X128545934Y-85071976D01*
X128482288Y-84976724D01*
X128438250Y-84870406D01*
X128415800Y-84757540D01*
X128415800Y-84642462D01*
X128438250Y-84529596D01*
X128482288Y-84423278D01*
X128546222Y-84327595D01*
X128546224Y-84327592D01*
X128627591Y-84246225D01*
X128628025Y-84245935D01*
X128723277Y-84182289D01*
X128829595Y-84138251D01*
X128914244Y-84121414D01*
X128942460Y-84115801D01*
X129057540Y-84115801D01*
X129085756Y-84121414D01*
X129085756Y-84121414D01*
G37*
G36*
X131085755Y-84121414D02*
X131170404Y-84138251D01*
X131276722Y-84182289D01*
X131371974Y-84245935D01*
X131372408Y-84246225D01*
X131453775Y-84327592D01*
X131453777Y-84327595D01*
X131517711Y-84423278D01*
X131561749Y-84529596D01*
X131584199Y-84642462D01*
X131584199Y-84757540D01*
X131561749Y-84870406D01*
X131517711Y-84976724D01*
X131454065Y-85071976D01*
X131453775Y-85072410D01*
X131372408Y-85153777D01*
X131372405Y-85153779D01*
X131276722Y-85217713D01*
X131170404Y-85261751D01*
X131085754Y-85278589D01*
X131057539Y-85284201D01*
X130942459Y-85284201D01*
X130914244Y-85278589D01*
X130829594Y-85261751D01*
X130723276Y-85217713D01*
X130627593Y-85153779D01*
X130627590Y-85153777D01*
X130546223Y-85072410D01*
X130545933Y-85071976D01*
X130482287Y-84976724D01*
X130438249Y-84870406D01*
X130415799Y-84757540D01*
X130415799Y-84642462D01*
X130438249Y-84529596D01*
X130482287Y-84423278D01*
X130546221Y-84327595D01*
X130546223Y-84327592D01*
X130627590Y-84246225D01*
X130628024Y-84245935D01*
X130723276Y-84182289D01*
X130829594Y-84138251D01*
X130914243Y-84121414D01*
X130942459Y-84115801D01*
X131057539Y-84115801D01*
X131085755Y-84121414D01*
X131085755Y-84121414D01*
G37*
G36*
X133085756Y-84121414D02*
X133170405Y-84138251D01*
X133276723Y-84182289D01*
X133371975Y-84245935D01*
X133372409Y-84246225D01*
X133453776Y-84327592D01*
X133453778Y-84327595D01*
X133517712Y-84423278D01*
X133561750Y-84529596D01*
X133584200Y-84642462D01*
X133584200Y-84757540D01*
X133561750Y-84870406D01*
X133517712Y-84976724D01*
X133454066Y-85071976D01*
X133453776Y-85072410D01*
X133372409Y-85153777D01*
X133372406Y-85153779D01*
X133276723Y-85217713D01*
X133170405Y-85261751D01*
X133085755Y-85278589D01*
X133057540Y-85284201D01*
X132942460Y-85284201D01*
X132914245Y-85278589D01*
X132829595Y-85261751D01*
X132723277Y-85217713D01*
X132627594Y-85153779D01*
X132627591Y-85153777D01*
X132546224Y-85072410D01*
X132545934Y-85071976D01*
X132482288Y-84976724D01*
X132438250Y-84870406D01*
X132415800Y-84757540D01*
X132415800Y-84642462D01*
X132438250Y-84529596D01*
X132482288Y-84423278D01*
X132546222Y-84327595D01*
X132546224Y-84327592D01*
X132627591Y-84246225D01*
X132628025Y-84245935D01*
X132723277Y-84182289D01*
X132829595Y-84138251D01*
X132914244Y-84121414D01*
X132942460Y-84115801D01*
X133057540Y-84115801D01*
X133085756Y-84121414D01*
X133085756Y-84121414D01*
G37*
G36*
X137085755Y-84121414D02*
X137170404Y-84138251D01*
X137276722Y-84182289D01*
X137371974Y-84245935D01*
X137372408Y-84246225D01*
X137453775Y-84327592D01*
X137453777Y-84327595D01*
X137517711Y-84423278D01*
X137561749Y-84529596D01*
X137584199Y-84642462D01*
X137584199Y-84757540D01*
X137561749Y-84870406D01*
X137517711Y-84976724D01*
X137454065Y-85071976D01*
X137453775Y-85072410D01*
X137372408Y-85153777D01*
X137372405Y-85153779D01*
X137276722Y-85217713D01*
X137170404Y-85261751D01*
X137085754Y-85278589D01*
X137057539Y-85284201D01*
X136942459Y-85284201D01*
X136914244Y-85278589D01*
X136829594Y-85261751D01*
X136723276Y-85217713D01*
X136627593Y-85153779D01*
X136627590Y-85153777D01*
X136546223Y-85072410D01*
X136545933Y-85071976D01*
X136482287Y-84976724D01*
X136438249Y-84870406D01*
X136415799Y-84757540D01*
X136415799Y-84642462D01*
X136438249Y-84529596D01*
X136482287Y-84423278D01*
X136546221Y-84327595D01*
X136546223Y-84327592D01*
X136627590Y-84246225D01*
X136628024Y-84245935D01*
X136723276Y-84182289D01*
X136829594Y-84138251D01*
X136914243Y-84121414D01*
X136942459Y-84115801D01*
X137057539Y-84115801D01*
X137085755Y-84121414D01*
X137085755Y-84121414D01*
G37*
G36*
X141310756Y-84121414D02*
X141395405Y-84138251D01*
X141501723Y-84182289D01*
X141596975Y-84245935D01*
X141597409Y-84246225D01*
X141678776Y-84327592D01*
X141678778Y-84327595D01*
X141742712Y-84423278D01*
X141786750Y-84529596D01*
X141809200Y-84642462D01*
X141809200Y-84757540D01*
X141786750Y-84870406D01*
X141742712Y-84976724D01*
X141679066Y-85071976D01*
X141678776Y-85072410D01*
X141597409Y-85153777D01*
X141597406Y-85153779D01*
X141501723Y-85217713D01*
X141395405Y-85261751D01*
X141310755Y-85278589D01*
X141282540Y-85284201D01*
X141167460Y-85284201D01*
X141139245Y-85278589D01*
X141054595Y-85261751D01*
X140948277Y-85217713D01*
X140852594Y-85153779D01*
X140852591Y-85153777D01*
X140771224Y-85072410D01*
X140770934Y-85071976D01*
X140707288Y-84976724D01*
X140663250Y-84870406D01*
X140640800Y-84757540D01*
X140640800Y-84642462D01*
X140663250Y-84529596D01*
X140707288Y-84423278D01*
X140771222Y-84327595D01*
X140771224Y-84327592D01*
X140852591Y-84246225D01*
X140853025Y-84245935D01*
X140948277Y-84182289D01*
X141054595Y-84138251D01*
X141139244Y-84121414D01*
X141167460Y-84115801D01*
X141282540Y-84115801D01*
X141310756Y-84121414D01*
X141310756Y-84121414D01*
G37*
G36*
X143310755Y-84121414D02*
X143395404Y-84138251D01*
X143501722Y-84182289D01*
X143596974Y-84245935D01*
X143597408Y-84246225D01*
X143678775Y-84327592D01*
X143678777Y-84327595D01*
X143742711Y-84423278D01*
X143786749Y-84529596D01*
X143809199Y-84642462D01*
X143809199Y-84757540D01*
X143786749Y-84870406D01*
X143742711Y-84976724D01*
X143679065Y-85071976D01*
X143678775Y-85072410D01*
X143597408Y-85153777D01*
X143597405Y-85153779D01*
X143501722Y-85217713D01*
X143395404Y-85261751D01*
X143310754Y-85278589D01*
X143282539Y-85284201D01*
X143167459Y-85284201D01*
X143139244Y-85278589D01*
X143054594Y-85261751D01*
X142948276Y-85217713D01*
X142852593Y-85153779D01*
X142852590Y-85153777D01*
X142771223Y-85072410D01*
X142770933Y-85071976D01*
X142707287Y-84976724D01*
X142663249Y-84870406D01*
X142640799Y-84757540D01*
X142640799Y-84642462D01*
X142663249Y-84529596D01*
X142707287Y-84423278D01*
X142771221Y-84327595D01*
X142771223Y-84327592D01*
X142852590Y-84246225D01*
X142853024Y-84245935D01*
X142948276Y-84182289D01*
X143054594Y-84138251D01*
X143139243Y-84121414D01*
X143167459Y-84115801D01*
X143282539Y-84115801D01*
X143310755Y-84121414D01*
X143310755Y-84121414D01*
G37*
G36*
X135085757Y-84121414D02*
X135170406Y-84138251D01*
X135276724Y-84182289D01*
X135371976Y-84245935D01*
X135372410Y-84246225D01*
X135453777Y-84327592D01*
X135453779Y-84327595D01*
X135517713Y-84423278D01*
X135561751Y-84529596D01*
X135584201Y-84642462D01*
X135584201Y-84757540D01*
X135561751Y-84870406D01*
X135517713Y-84976724D01*
X135454067Y-85071976D01*
X135453777Y-85072410D01*
X135372410Y-85153777D01*
X135372407Y-85153779D01*
X135276724Y-85217713D01*
X135170406Y-85261751D01*
X135085756Y-85278589D01*
X135057541Y-85284201D01*
X134942461Y-85284201D01*
X134914246Y-85278589D01*
X134829596Y-85261751D01*
X134723278Y-85217713D01*
X134627595Y-85153779D01*
X134627592Y-85153777D01*
X134546225Y-85072410D01*
X134545935Y-85071976D01*
X134482289Y-84976724D01*
X134438251Y-84870406D01*
X134415801Y-84757540D01*
X134415801Y-84642462D01*
X134438251Y-84529596D01*
X134482289Y-84423278D01*
X134546223Y-84327595D01*
X134546225Y-84327592D01*
X134627592Y-84246225D01*
X134628026Y-84245935D01*
X134723278Y-84182289D01*
X134829596Y-84138251D01*
X134914245Y-84121414D01*
X134942461Y-84115801D01*
X135057541Y-84115801D01*
X135085757Y-84121414D01*
X135085757Y-84121414D01*
G37*
G36*
X116466703Y-80461486D02*
X116757883Y-80582097D01*
X117019944Y-80757201D01*
X117242799Y-80980056D01*
X117417903Y-81242117D01*
X117538514Y-81533297D01*
X117600000Y-81842412D01*
X117600000Y-82157588D01*
X117538514Y-82466703D01*
X117417903Y-82757883D01*
X117242799Y-83019944D01*
X117019944Y-83242799D01*
X116757883Y-83417903D01*
X116466703Y-83538514D01*
X116157588Y-83600000D01*
X115842412Y-83600000D01*
X115533297Y-83538514D01*
X115242117Y-83417903D01*
X114980056Y-83242799D01*
X114757201Y-83019944D01*
X114582097Y-82757883D01*
X114461486Y-82466703D01*
X114400000Y-82157588D01*
X114400000Y-81842412D01*
X114461486Y-81533297D01*
X114582097Y-81242117D01*
X114757201Y-80980056D01*
X114980056Y-80757201D01*
X115242117Y-80582097D01*
X115533297Y-80461486D01*
X115842412Y-80400000D01*
X116157588Y-80400000D01*
X116466703Y-80461486D01*
X116466703Y-80461486D01*
G37*
G36*
X123334024Y-82353955D02*
X123366736Y-82363879D01*
X123396890Y-82379997D01*
X123423316Y-82401684D01*
X123445003Y-82428110D01*
X123461121Y-82458264D01*
X123471045Y-82490976D01*
X123475000Y-82531138D01*
X123475000Y-83218862D01*
X123471045Y-83259024D01*
X123461121Y-83291736D01*
X123445003Y-83321890D01*
X123423316Y-83348316D01*
X123396890Y-83370003D01*
X123366736Y-83386121D01*
X123334024Y-83396045D01*
X123293862Y-83400000D01*
X122706138Y-83400000D01*
X122665976Y-83396045D01*
X122633264Y-83386121D01*
X122603110Y-83370003D01*
X122576684Y-83348316D01*
X122554997Y-83321890D01*
X122538879Y-83291736D01*
X122528955Y-83259024D01*
X122525000Y-83218862D01*
X122525000Y-82531138D01*
X122528955Y-82490976D01*
X122538879Y-82458264D01*
X122554997Y-82428110D01*
X122576684Y-82401684D01*
X122603110Y-82379997D01*
X122633264Y-82363879D01*
X122665976Y-82353955D01*
X122706138Y-82350000D01*
X123293862Y-82350000D01*
X123334024Y-82353955D01*
X123334024Y-82353955D01*
G37*
G36*
X134085756Y-82121413D02*
X134170405Y-82138250D01*
X134276723Y-82182288D01*
X134371975Y-82245934D01*
X134372409Y-82246224D01*
X134453776Y-82327591D01*
X134453778Y-82327594D01*
X134517712Y-82423277D01*
X134561750Y-82529595D01*
X134573268Y-82587500D01*
X134584200Y-82642460D01*
X134584200Y-82757540D01*
X134578588Y-82785755D01*
X134561750Y-82870405D01*
X134517712Y-82976723D01*
X134488834Y-83019941D01*
X134453776Y-83072409D01*
X134372409Y-83153776D01*
X134372406Y-83153778D01*
X134276723Y-83217712D01*
X134170405Y-83261750D01*
X134085755Y-83278588D01*
X134057540Y-83284200D01*
X133942460Y-83284200D01*
X133914245Y-83278588D01*
X133829595Y-83261750D01*
X133723277Y-83217712D01*
X133627594Y-83153778D01*
X133627591Y-83153776D01*
X133546224Y-83072409D01*
X133511166Y-83019941D01*
X133482288Y-82976723D01*
X133438250Y-82870405D01*
X133421413Y-82785756D01*
X133415800Y-82757540D01*
X133415800Y-82642460D01*
X133426732Y-82587500D01*
X133438250Y-82529595D01*
X133482288Y-82423277D01*
X133546222Y-82327594D01*
X133546224Y-82327591D01*
X133627591Y-82246224D01*
X133628025Y-82245934D01*
X133723277Y-82182288D01*
X133829595Y-82138250D01*
X133914244Y-82121413D01*
X133942460Y-82115800D01*
X134057540Y-82115800D01*
X134085756Y-82121413D01*
X134085756Y-82121413D01*
G37*
G36*
X128085755Y-82121413D02*
X128170404Y-82138250D01*
X128276722Y-82182288D01*
X128371974Y-82245934D01*
X128372408Y-82246224D01*
X128453775Y-82327591D01*
X128453777Y-82327594D01*
X128517711Y-82423277D01*
X128561749Y-82529595D01*
X128573267Y-82587500D01*
X128584199Y-82642460D01*
X128584199Y-82757540D01*
X128578587Y-82785755D01*
X128561749Y-82870405D01*
X128517711Y-82976723D01*
X128488833Y-83019941D01*
X128453775Y-83072409D01*
X128372408Y-83153776D01*
X128372405Y-83153778D01*
X128276722Y-83217712D01*
X128170404Y-83261750D01*
X128085754Y-83278588D01*
X128057539Y-83284200D01*
X127942459Y-83284200D01*
X127914244Y-83278588D01*
X127829594Y-83261750D01*
X127723276Y-83217712D01*
X127627593Y-83153778D01*
X127627590Y-83153776D01*
X127546223Y-83072409D01*
X127511165Y-83019941D01*
X127482287Y-82976723D01*
X127438249Y-82870405D01*
X127421412Y-82785756D01*
X127415799Y-82757540D01*
X127415799Y-82642460D01*
X127426731Y-82587500D01*
X127438249Y-82529595D01*
X127482287Y-82423277D01*
X127546221Y-82327594D01*
X127546223Y-82327591D01*
X127627590Y-82246224D01*
X127628024Y-82245934D01*
X127723276Y-82182288D01*
X127829594Y-82138250D01*
X127914243Y-82121413D01*
X127942459Y-82115800D01*
X128057539Y-82115800D01*
X128085755Y-82121413D01*
X128085755Y-82121413D01*
G37*
G36*
X130085757Y-82121413D02*
X130170406Y-82138250D01*
X130276724Y-82182288D01*
X130371976Y-82245934D01*
X130372410Y-82246224D01*
X130453777Y-82327591D01*
X130453779Y-82327594D01*
X130517713Y-82423277D01*
X130561751Y-82529595D01*
X130573269Y-82587500D01*
X130584201Y-82642460D01*
X130584201Y-82757540D01*
X130578589Y-82785755D01*
X130561751Y-82870405D01*
X130517713Y-82976723D01*
X130488835Y-83019941D01*
X130453777Y-83072409D01*
X130372410Y-83153776D01*
X130372407Y-83153778D01*
X130276724Y-83217712D01*
X130170406Y-83261750D01*
X130085756Y-83278588D01*
X130057541Y-83284200D01*
X129942461Y-83284200D01*
X129914246Y-83278588D01*
X129829596Y-83261750D01*
X129723278Y-83217712D01*
X129627595Y-83153778D01*
X129627592Y-83153776D01*
X129546225Y-83072409D01*
X129511167Y-83019941D01*
X129482289Y-82976723D01*
X129438251Y-82870405D01*
X129421414Y-82785756D01*
X129415801Y-82757540D01*
X129415801Y-82642460D01*
X129426733Y-82587500D01*
X129438251Y-82529595D01*
X129482289Y-82423277D01*
X129546223Y-82327594D01*
X129546225Y-82327591D01*
X129627592Y-82246224D01*
X129628026Y-82245934D01*
X129723278Y-82182288D01*
X129829596Y-82138250D01*
X129914245Y-82121413D01*
X129942461Y-82115800D01*
X130057541Y-82115800D01*
X130085757Y-82121413D01*
X130085757Y-82121413D01*
G37*
G36*
X146310757Y-82121413D02*
X146395406Y-82138250D01*
X146501724Y-82182288D01*
X146596976Y-82245934D01*
X146597410Y-82246224D01*
X146678777Y-82327591D01*
X146678779Y-82327594D01*
X146742713Y-82423277D01*
X146786751Y-82529595D01*
X146798269Y-82587500D01*
X146809201Y-82642460D01*
X146809201Y-82757540D01*
X146803589Y-82785755D01*
X146786751Y-82870405D01*
X146742713Y-82976723D01*
X146713835Y-83019941D01*
X146678777Y-83072409D01*
X146597410Y-83153776D01*
X146597407Y-83153778D01*
X146501724Y-83217712D01*
X146395406Y-83261750D01*
X146310756Y-83278588D01*
X146282541Y-83284200D01*
X146167461Y-83284200D01*
X146139246Y-83278588D01*
X146054596Y-83261750D01*
X145948278Y-83217712D01*
X145852595Y-83153778D01*
X145852592Y-83153776D01*
X145771225Y-83072409D01*
X145736167Y-83019941D01*
X145707289Y-82976723D01*
X145663251Y-82870405D01*
X145646414Y-82785756D01*
X145640801Y-82757540D01*
X145640801Y-82642460D01*
X145651733Y-82587500D01*
X145663251Y-82529595D01*
X145707289Y-82423277D01*
X145771223Y-82327594D01*
X145771225Y-82327591D01*
X145852592Y-82246224D01*
X145853026Y-82245934D01*
X145948278Y-82182288D01*
X146054596Y-82138250D01*
X146139245Y-82121413D01*
X146167461Y-82115800D01*
X146282541Y-82115800D01*
X146310757Y-82121413D01*
X146310757Y-82121413D01*
G37*
G36*
X132085755Y-82121413D02*
X132170404Y-82138250D01*
X132276722Y-82182288D01*
X132371974Y-82245934D01*
X132372408Y-82246224D01*
X132453775Y-82327591D01*
X132453777Y-82327594D01*
X132517711Y-82423277D01*
X132561749Y-82529595D01*
X132573267Y-82587500D01*
X132584199Y-82642460D01*
X132584199Y-82757540D01*
X132578587Y-82785755D01*
X132561749Y-82870405D01*
X132517711Y-82976723D01*
X132488833Y-83019941D01*
X132453775Y-83072409D01*
X132372408Y-83153776D01*
X132372405Y-83153778D01*
X132276722Y-83217712D01*
X132170404Y-83261750D01*
X132085754Y-83278588D01*
X132057539Y-83284200D01*
X131942459Y-83284200D01*
X131914244Y-83278588D01*
X131829594Y-83261750D01*
X131723276Y-83217712D01*
X131627593Y-83153778D01*
X131627590Y-83153776D01*
X131546223Y-83072409D01*
X131511165Y-83019941D01*
X131482287Y-82976723D01*
X131438249Y-82870405D01*
X131421412Y-82785756D01*
X131415799Y-82757540D01*
X131415799Y-82642460D01*
X131426731Y-82587500D01*
X131438249Y-82529595D01*
X131482287Y-82423277D01*
X131546221Y-82327594D01*
X131546223Y-82327591D01*
X131627590Y-82246224D01*
X131628024Y-82245934D01*
X131723276Y-82182288D01*
X131829594Y-82138250D01*
X131914243Y-82121413D01*
X131942459Y-82115800D01*
X132057539Y-82115800D01*
X132085755Y-82121413D01*
X132085755Y-82121413D01*
G37*
G36*
X144310755Y-82121413D02*
X144395404Y-82138250D01*
X144501722Y-82182288D01*
X144596974Y-82245934D01*
X144597408Y-82246224D01*
X144678775Y-82327591D01*
X144678777Y-82327594D01*
X144742711Y-82423277D01*
X144786749Y-82529595D01*
X144798267Y-82587500D01*
X144809199Y-82642460D01*
X144809199Y-82757540D01*
X144803587Y-82785755D01*
X144786749Y-82870405D01*
X144742711Y-82976723D01*
X144713833Y-83019941D01*
X144678775Y-83072409D01*
X144597408Y-83153776D01*
X144597405Y-83153778D01*
X144501722Y-83217712D01*
X144395404Y-83261750D01*
X144310754Y-83278588D01*
X144282539Y-83284200D01*
X144167459Y-83284200D01*
X144139244Y-83278588D01*
X144054594Y-83261750D01*
X143948276Y-83217712D01*
X143852593Y-83153778D01*
X143852590Y-83153776D01*
X143771223Y-83072409D01*
X143736165Y-83019941D01*
X143707287Y-82976723D01*
X143663249Y-82870405D01*
X143646412Y-82785756D01*
X143640799Y-82757540D01*
X143640799Y-82642460D01*
X143651731Y-82587500D01*
X143663249Y-82529595D01*
X143707287Y-82423277D01*
X143771221Y-82327594D01*
X143771223Y-82327591D01*
X143852590Y-82246224D01*
X143853024Y-82245934D01*
X143948276Y-82182288D01*
X144054594Y-82138250D01*
X144139243Y-82121413D01*
X144167459Y-82115800D01*
X144282539Y-82115800D01*
X144310755Y-82121413D01*
X144310755Y-82121413D01*
G37*
G36*
X136085755Y-82121413D02*
X136170404Y-82138250D01*
X136276722Y-82182288D01*
X136371974Y-82245934D01*
X136372408Y-82246224D01*
X136453775Y-82327591D01*
X136453777Y-82327594D01*
X136517711Y-82423277D01*
X136561749Y-82529595D01*
X136573267Y-82587500D01*
X136584199Y-82642460D01*
X136584199Y-82757540D01*
X136578587Y-82785755D01*
X136561749Y-82870405D01*
X136517711Y-82976723D01*
X136488833Y-83019941D01*
X136453775Y-83072409D01*
X136372408Y-83153776D01*
X136372405Y-83153778D01*
X136276722Y-83217712D01*
X136170404Y-83261750D01*
X136085754Y-83278588D01*
X136057539Y-83284200D01*
X135942459Y-83284200D01*
X135914244Y-83278588D01*
X135829594Y-83261750D01*
X135723276Y-83217712D01*
X135627593Y-83153778D01*
X135627590Y-83153776D01*
X135546223Y-83072409D01*
X135511165Y-83019941D01*
X135482287Y-82976723D01*
X135438249Y-82870405D01*
X135421412Y-82785756D01*
X135415799Y-82757540D01*
X135415799Y-82642460D01*
X135426731Y-82587500D01*
X135438249Y-82529595D01*
X135482287Y-82423277D01*
X135546221Y-82327594D01*
X135546223Y-82327591D01*
X135627590Y-82246224D01*
X135628024Y-82245934D01*
X135723276Y-82182288D01*
X135829594Y-82138250D01*
X135914243Y-82121413D01*
X135942459Y-82115800D01*
X136057539Y-82115800D01*
X136085755Y-82121413D01*
X136085755Y-82121413D01*
G37*
G36*
X142310757Y-82121413D02*
X142395406Y-82138250D01*
X142501724Y-82182288D01*
X142596976Y-82245934D01*
X142597410Y-82246224D01*
X142678777Y-82327591D01*
X142678779Y-82327594D01*
X142742713Y-82423277D01*
X142786751Y-82529595D01*
X142798269Y-82587500D01*
X142809201Y-82642460D01*
X142809201Y-82757540D01*
X142803589Y-82785755D01*
X142786751Y-82870405D01*
X142742713Y-82976723D01*
X142713835Y-83019941D01*
X142678777Y-83072409D01*
X142597410Y-83153776D01*
X142597407Y-83153778D01*
X142501724Y-83217712D01*
X142395406Y-83261750D01*
X142310756Y-83278588D01*
X142282541Y-83284200D01*
X142167461Y-83284200D01*
X142139246Y-83278588D01*
X142054596Y-83261750D01*
X141948278Y-83217712D01*
X141852595Y-83153778D01*
X141852592Y-83153776D01*
X141771225Y-83072409D01*
X141736167Y-83019941D01*
X141707289Y-82976723D01*
X141663251Y-82870405D01*
X141646414Y-82785756D01*
X141640801Y-82757540D01*
X141640801Y-82642460D01*
X141651733Y-82587500D01*
X141663251Y-82529595D01*
X141707289Y-82423277D01*
X141771223Y-82327594D01*
X141771225Y-82327591D01*
X141852592Y-82246224D01*
X141853026Y-82245934D01*
X141948278Y-82182288D01*
X142054596Y-82138250D01*
X142139245Y-82121413D01*
X142167461Y-82115800D01*
X142282541Y-82115800D01*
X142310757Y-82121413D01*
X142310757Y-82121413D01*
G37*
G36*
X138085756Y-82121413D02*
X138170405Y-82138250D01*
X138276723Y-82182288D01*
X138371975Y-82245934D01*
X138372409Y-82246224D01*
X138453776Y-82327591D01*
X138453778Y-82327594D01*
X138517712Y-82423277D01*
X138561750Y-82529595D01*
X138573268Y-82587500D01*
X138584200Y-82642460D01*
X138584200Y-82757540D01*
X138578588Y-82785755D01*
X138561750Y-82870405D01*
X138517712Y-82976723D01*
X138488834Y-83019941D01*
X138453776Y-83072409D01*
X138372409Y-83153776D01*
X138372406Y-83153778D01*
X138276723Y-83217712D01*
X138170405Y-83261750D01*
X138085755Y-83278588D01*
X138057540Y-83284200D01*
X137942460Y-83284200D01*
X137914245Y-83278588D01*
X137829595Y-83261750D01*
X137723277Y-83217712D01*
X137627594Y-83153778D01*
X137627591Y-83153776D01*
X137546224Y-83072409D01*
X137511166Y-83019941D01*
X137482288Y-82976723D01*
X137438250Y-82870405D01*
X137421413Y-82785756D01*
X137415800Y-82757540D01*
X137415800Y-82642460D01*
X137426732Y-82587500D01*
X137438250Y-82529595D01*
X137482288Y-82423277D01*
X137546222Y-82327594D01*
X137546224Y-82327591D01*
X137627591Y-82246224D01*
X137628025Y-82245934D01*
X137723277Y-82182288D01*
X137829595Y-82138250D01*
X137914244Y-82121413D01*
X137942460Y-82115800D01*
X138057540Y-82115800D01*
X138085756Y-82121413D01*
X138085756Y-82121413D01*
G37*
G36*
X139789523Y-80976722D02*
X139864858Y-80991707D01*
X139931885Y-81019471D01*
X139998912Y-81047234D01*
X140119556Y-81127846D01*
X140222154Y-81230444D01*
X140302766Y-81351088D01*
X140330529Y-81418115D01*
X140352454Y-81471045D01*
X140358293Y-81485143D01*
X140386600Y-81627450D01*
X140386600Y-81772550D01*
X140358293Y-81914857D01*
X140302766Y-82048912D01*
X140222154Y-82169556D01*
X140119556Y-82272154D01*
X139998912Y-82352766D01*
X139933170Y-82379997D01*
X139864858Y-82408293D01*
X139808205Y-82419562D01*
X139722550Y-82436600D01*
X139577450Y-82436600D01*
X139491795Y-82419562D01*
X139435142Y-82408293D01*
X139366830Y-82379997D01*
X139301088Y-82352766D01*
X139180444Y-82272154D01*
X139077846Y-82169556D01*
X138997234Y-82048912D01*
X138941707Y-81914857D01*
X138913400Y-81772550D01*
X138913400Y-81627450D01*
X138941707Y-81485143D01*
X138947547Y-81471045D01*
X138969471Y-81418115D01*
X138997234Y-81351088D01*
X139077846Y-81230444D01*
X139180444Y-81127846D01*
X139301088Y-81047234D01*
X139368115Y-81019471D01*
X139435142Y-80991707D01*
X139510477Y-80976722D01*
X139577450Y-80963400D01*
X139722550Y-80963400D01*
X139789523Y-80976722D01*
X139789523Y-80976722D01*
G37*
G36*
X148939523Y-80976722D02*
X149014858Y-80991707D01*
X149081885Y-81019471D01*
X149148912Y-81047234D01*
X149269556Y-81127846D01*
X149372154Y-81230444D01*
X149452766Y-81351088D01*
X149480529Y-81418115D01*
X149502454Y-81471045D01*
X149508293Y-81485143D01*
X149536600Y-81627450D01*
X149536600Y-81772550D01*
X149508293Y-81914857D01*
X149452766Y-82048912D01*
X149372154Y-82169556D01*
X149269556Y-82272154D01*
X149148912Y-82352766D01*
X149083170Y-82379997D01*
X149014858Y-82408293D01*
X148958205Y-82419562D01*
X148872550Y-82436600D01*
X148727450Y-82436600D01*
X148641795Y-82419562D01*
X148585142Y-82408293D01*
X148516830Y-82379997D01*
X148451088Y-82352766D01*
X148330444Y-82272154D01*
X148227846Y-82169556D01*
X148147234Y-82048912D01*
X148091707Y-81914857D01*
X148063400Y-81772550D01*
X148063400Y-81627450D01*
X148091707Y-81485143D01*
X148097547Y-81471045D01*
X148119471Y-81418115D01*
X148147234Y-81351088D01*
X148227846Y-81230444D01*
X148330444Y-81127846D01*
X148451088Y-81047234D01*
X148518115Y-81019471D01*
X148585142Y-80991707D01*
X148660477Y-80976722D01*
X148727450Y-80963400D01*
X148872550Y-80963400D01*
X148939523Y-80976722D01*
X148939523Y-80976722D01*
G37*
G36*
X123334024Y-80603955D02*
X123366736Y-80613879D01*
X123396890Y-80629997D01*
X123423316Y-80651684D01*
X123445003Y-80678110D01*
X123461121Y-80708264D01*
X123471045Y-80740976D01*
X123475000Y-80781138D01*
X123475000Y-81468862D01*
X123471045Y-81509024D01*
X123461121Y-81541736D01*
X123445003Y-81571890D01*
X123423316Y-81598316D01*
X123396890Y-81620003D01*
X123366736Y-81636121D01*
X123334024Y-81646045D01*
X123293862Y-81650000D01*
X122706138Y-81650000D01*
X122665976Y-81646045D01*
X122633264Y-81636121D01*
X122603110Y-81620003D01*
X122576684Y-81598316D01*
X122554997Y-81571890D01*
X122538879Y-81541736D01*
X122528955Y-81509024D01*
X122525000Y-81468862D01*
X122525000Y-80781138D01*
X122528955Y-80740976D01*
X122538879Y-80708264D01*
X122554997Y-80678110D01*
X122576684Y-80651684D01*
X122603110Y-80629997D01*
X122633264Y-80613879D01*
X122665976Y-80603955D01*
X122706138Y-80600000D01*
X123293862Y-80600000D01*
X123334024Y-80603955D01*
X123334024Y-80603955D01*
G37*
G36*
X153509024Y-80528955D02*
X153541736Y-80538879D01*
X153571890Y-80554997D01*
X153598316Y-80576684D01*
X153620003Y-80603110D01*
X153636121Y-80633264D01*
X153646045Y-80665976D01*
X153650000Y-80706138D01*
X153650000Y-81293862D01*
X153646045Y-81334024D01*
X153636121Y-81366736D01*
X153620003Y-81396890D01*
X153598316Y-81423316D01*
X153571890Y-81445003D01*
X153541736Y-81461121D01*
X153509024Y-81471045D01*
X153468862Y-81475000D01*
X152781138Y-81475000D01*
X152740976Y-81471045D01*
X152708264Y-81461121D01*
X152678110Y-81445003D01*
X152651684Y-81423316D01*
X152629997Y-81396890D01*
X152613879Y-81366736D01*
X152603955Y-81334024D01*
X152600000Y-81293862D01*
X152600000Y-80706138D01*
X152603955Y-80665976D01*
X152613879Y-80633264D01*
X152629997Y-80603110D01*
X152651684Y-80576684D01*
X152678110Y-80554997D01*
X152708264Y-80538879D01*
X152740976Y-80528955D01*
X152781138Y-80525000D01*
X153468862Y-80525000D01*
X153509024Y-80528955D01*
X153509024Y-80528955D01*
G37*
G36*
X155259024Y-80528955D02*
X155291736Y-80538879D01*
X155321890Y-80554997D01*
X155348316Y-80576684D01*
X155370003Y-80603110D01*
X155386121Y-80633264D01*
X155396045Y-80665976D01*
X155400000Y-80706138D01*
X155400000Y-81293862D01*
X155396045Y-81334024D01*
X155386121Y-81366736D01*
X155370003Y-81396890D01*
X155348316Y-81423316D01*
X155321890Y-81445003D01*
X155291736Y-81461121D01*
X155259024Y-81471045D01*
X155218862Y-81475000D01*
X154531138Y-81475000D01*
X154490976Y-81471045D01*
X154458264Y-81461121D01*
X154428110Y-81445003D01*
X154401684Y-81423316D01*
X154379997Y-81396890D01*
X154363879Y-81366736D01*
X154353955Y-81334024D01*
X154350000Y-81293862D01*
X154350000Y-80706138D01*
X154353955Y-80665976D01*
X154363879Y-80633264D01*
X154379997Y-80603110D01*
X154401684Y-80576684D01*
X154428110Y-80554997D01*
X154458264Y-80538879D01*
X154490976Y-80528955D01*
X154531138Y-80525000D01*
X155218862Y-80525000D01*
X155259024Y-80528955D01*
X155259024Y-80528955D01*
G37*
G36*
X146310756Y-80121411D02*
X146395406Y-80138249D01*
X146501724Y-80182287D01*
X146596976Y-80245933D01*
X146597410Y-80246223D01*
X146678777Y-80327590D01*
X146678779Y-80327593D01*
X146742713Y-80423276D01*
X146786751Y-80529594D01*
X146797194Y-80582097D01*
X146806833Y-80630552D01*
X146809201Y-80642460D01*
X146809201Y-80757538D01*
X146786751Y-80870404D01*
X146742713Y-80976722D01*
X146695598Y-81047234D01*
X146678777Y-81072408D01*
X146597410Y-81153775D01*
X146597407Y-81153777D01*
X146501724Y-81217711D01*
X146395406Y-81261749D01*
X146310756Y-81278587D01*
X146282541Y-81284199D01*
X146167461Y-81284199D01*
X146139246Y-81278587D01*
X146054596Y-81261749D01*
X145948278Y-81217711D01*
X145852595Y-81153777D01*
X145852592Y-81153775D01*
X145771225Y-81072408D01*
X145754404Y-81047234D01*
X145707289Y-80976722D01*
X145663251Y-80870404D01*
X145640801Y-80757538D01*
X145640801Y-80642460D01*
X145643170Y-80630552D01*
X145652808Y-80582097D01*
X145663251Y-80529594D01*
X145707289Y-80423276D01*
X145771223Y-80327593D01*
X145771225Y-80327590D01*
X145852592Y-80246223D01*
X145853026Y-80245933D01*
X145948278Y-80182287D01*
X146054596Y-80138249D01*
X146139246Y-80121411D01*
X146167461Y-80115799D01*
X146282541Y-80115799D01*
X146310756Y-80121411D01*
X146310756Y-80121411D01*
G37*
G36*
X144310755Y-80121411D02*
X144395405Y-80138249D01*
X144501723Y-80182287D01*
X144596975Y-80245933D01*
X144597409Y-80246223D01*
X144678776Y-80327590D01*
X144678778Y-80327593D01*
X144742712Y-80423276D01*
X144786750Y-80529594D01*
X144797193Y-80582097D01*
X144806832Y-80630552D01*
X144809200Y-80642460D01*
X144809200Y-80757538D01*
X144786750Y-80870404D01*
X144742712Y-80976722D01*
X144695597Y-81047234D01*
X144678776Y-81072408D01*
X144597409Y-81153775D01*
X144597406Y-81153777D01*
X144501723Y-81217711D01*
X144395405Y-81261749D01*
X144310755Y-81278587D01*
X144282540Y-81284199D01*
X144167460Y-81284199D01*
X144139245Y-81278587D01*
X144054595Y-81261749D01*
X143948277Y-81217711D01*
X143852594Y-81153777D01*
X143852591Y-81153775D01*
X143771224Y-81072408D01*
X143754403Y-81047234D01*
X143707288Y-80976722D01*
X143663250Y-80870404D01*
X143640800Y-80757538D01*
X143640800Y-80642460D01*
X143643169Y-80630552D01*
X143652807Y-80582097D01*
X143663250Y-80529594D01*
X143707288Y-80423276D01*
X143771222Y-80327593D01*
X143771224Y-80327590D01*
X143852591Y-80246223D01*
X143853025Y-80245933D01*
X143948277Y-80182287D01*
X144054595Y-80138249D01*
X144139245Y-80121411D01*
X144167460Y-80115799D01*
X144282540Y-80115799D01*
X144310755Y-80121411D01*
X144310755Y-80121411D01*
G37*
G36*
X142310754Y-80121411D02*
X142395404Y-80138249D01*
X142501722Y-80182287D01*
X142596974Y-80245933D01*
X142597408Y-80246223D01*
X142678775Y-80327590D01*
X142678777Y-80327593D01*
X142742711Y-80423276D01*
X142786749Y-80529594D01*
X142797192Y-80582097D01*
X142806831Y-80630552D01*
X142809199Y-80642460D01*
X142809199Y-80757538D01*
X142786749Y-80870404D01*
X142742711Y-80976722D01*
X142695596Y-81047234D01*
X142678775Y-81072408D01*
X142597408Y-81153775D01*
X142597405Y-81153777D01*
X142501722Y-81217711D01*
X142395404Y-81261749D01*
X142310754Y-81278587D01*
X142282539Y-81284199D01*
X142167459Y-81284199D01*
X142139244Y-81278587D01*
X142054594Y-81261749D01*
X141948276Y-81217711D01*
X141852593Y-81153777D01*
X141852590Y-81153775D01*
X141771223Y-81072408D01*
X141754402Y-81047234D01*
X141707287Y-80976722D01*
X141663249Y-80870404D01*
X141640799Y-80757538D01*
X141640799Y-80642460D01*
X141643168Y-80630552D01*
X141652806Y-80582097D01*
X141663249Y-80529594D01*
X141707287Y-80423276D01*
X141771221Y-80327593D01*
X141771223Y-80327590D01*
X141852590Y-80246223D01*
X141853024Y-80245933D01*
X141948276Y-80182287D01*
X142054594Y-80138249D01*
X142139244Y-80121411D01*
X142167459Y-80115799D01*
X142282539Y-80115799D01*
X142310754Y-80121411D01*
X142310754Y-80121411D01*
G37*
G36*
X138085755Y-80121411D02*
X138170405Y-80138249D01*
X138276723Y-80182287D01*
X138371975Y-80245933D01*
X138372409Y-80246223D01*
X138453776Y-80327590D01*
X138453778Y-80327593D01*
X138517712Y-80423276D01*
X138561750Y-80529594D01*
X138572193Y-80582097D01*
X138581832Y-80630552D01*
X138584200Y-80642460D01*
X138584200Y-80757538D01*
X138561750Y-80870404D01*
X138517712Y-80976722D01*
X138470597Y-81047234D01*
X138453776Y-81072408D01*
X138372409Y-81153775D01*
X138372406Y-81153777D01*
X138276723Y-81217711D01*
X138170405Y-81261749D01*
X138085755Y-81278587D01*
X138057540Y-81284199D01*
X137942460Y-81284199D01*
X137914245Y-81278587D01*
X137829595Y-81261749D01*
X137723277Y-81217711D01*
X137627594Y-81153777D01*
X137627591Y-81153775D01*
X137546224Y-81072408D01*
X137529403Y-81047234D01*
X137482288Y-80976722D01*
X137438250Y-80870404D01*
X137415800Y-80757538D01*
X137415800Y-80642460D01*
X137418169Y-80630552D01*
X137427807Y-80582097D01*
X137438250Y-80529594D01*
X137482288Y-80423276D01*
X137546222Y-80327593D01*
X137546224Y-80327590D01*
X137627591Y-80246223D01*
X137628025Y-80245933D01*
X137723277Y-80182287D01*
X137829595Y-80138249D01*
X137914245Y-80121411D01*
X137942460Y-80115799D01*
X138057540Y-80115799D01*
X138085755Y-80121411D01*
X138085755Y-80121411D01*
G37*
G36*
X136085754Y-80121411D02*
X136170404Y-80138249D01*
X136276722Y-80182287D01*
X136371974Y-80245933D01*
X136372408Y-80246223D01*
X136453775Y-80327590D01*
X136453777Y-80327593D01*
X136517711Y-80423276D01*
X136561749Y-80529594D01*
X136572192Y-80582097D01*
X136581831Y-80630552D01*
X136584199Y-80642460D01*
X136584199Y-80757538D01*
X136561749Y-80870404D01*
X136517711Y-80976722D01*
X136470596Y-81047234D01*
X136453775Y-81072408D01*
X136372408Y-81153775D01*
X136372405Y-81153777D01*
X136276722Y-81217711D01*
X136170404Y-81261749D01*
X136085754Y-81278587D01*
X136057539Y-81284199D01*
X135942459Y-81284199D01*
X135914244Y-81278587D01*
X135829594Y-81261749D01*
X135723276Y-81217711D01*
X135627593Y-81153777D01*
X135627590Y-81153775D01*
X135546223Y-81072408D01*
X135529402Y-81047234D01*
X135482287Y-80976722D01*
X135438249Y-80870404D01*
X135415799Y-80757538D01*
X135415799Y-80642460D01*
X135418168Y-80630552D01*
X135427806Y-80582097D01*
X135438249Y-80529594D01*
X135482287Y-80423276D01*
X135546221Y-80327593D01*
X135546223Y-80327590D01*
X135627590Y-80246223D01*
X135628024Y-80245933D01*
X135723276Y-80182287D01*
X135829594Y-80138249D01*
X135914244Y-80121411D01*
X135942459Y-80115799D01*
X136057539Y-80115799D01*
X136085754Y-80121411D01*
X136085754Y-80121411D01*
G37*
G36*
X134085756Y-80121411D02*
X134170406Y-80138249D01*
X134276724Y-80182287D01*
X134371976Y-80245933D01*
X134372410Y-80246223D01*
X134453777Y-80327590D01*
X134453779Y-80327593D01*
X134517713Y-80423276D01*
X134561751Y-80529594D01*
X134572194Y-80582097D01*
X134581833Y-80630552D01*
X134584201Y-80642460D01*
X134584201Y-80757538D01*
X134561751Y-80870404D01*
X134517713Y-80976722D01*
X134470598Y-81047234D01*
X134453777Y-81072408D01*
X134372410Y-81153775D01*
X134372407Y-81153777D01*
X134276724Y-81217711D01*
X134170406Y-81261749D01*
X134085756Y-81278587D01*
X134057541Y-81284199D01*
X133942461Y-81284199D01*
X133914246Y-81278587D01*
X133829596Y-81261749D01*
X133723278Y-81217711D01*
X133627595Y-81153777D01*
X133627592Y-81153775D01*
X133546225Y-81072408D01*
X133529404Y-81047234D01*
X133482289Y-80976722D01*
X133438251Y-80870404D01*
X133415801Y-80757538D01*
X133415801Y-80642460D01*
X133418170Y-80630552D01*
X133427808Y-80582097D01*
X133438251Y-80529594D01*
X133482289Y-80423276D01*
X133546223Y-80327593D01*
X133546225Y-80327590D01*
X133627592Y-80246223D01*
X133628026Y-80245933D01*
X133723278Y-80182287D01*
X133829596Y-80138249D01*
X133914246Y-80121411D01*
X133942461Y-80115799D01*
X134057541Y-80115799D01*
X134085756Y-80121411D01*
X134085756Y-80121411D01*
G37*
G36*
X132085755Y-80121411D02*
X132170405Y-80138249D01*
X132276723Y-80182287D01*
X132371975Y-80245933D01*
X132372409Y-80246223D01*
X132453776Y-80327590D01*
X132453778Y-80327593D01*
X132517712Y-80423276D01*
X132561750Y-80529594D01*
X132572193Y-80582097D01*
X132581832Y-80630552D01*
X132584200Y-80642460D01*
X132584200Y-80757538D01*
X132561750Y-80870404D01*
X132517712Y-80976722D01*
X132470597Y-81047234D01*
X132453776Y-81072408D01*
X132372409Y-81153775D01*
X132372406Y-81153777D01*
X132276723Y-81217711D01*
X132170405Y-81261749D01*
X132085755Y-81278587D01*
X132057540Y-81284199D01*
X131942460Y-81284199D01*
X131914245Y-81278587D01*
X131829595Y-81261749D01*
X131723277Y-81217711D01*
X131627594Y-81153777D01*
X131627591Y-81153775D01*
X131546224Y-81072408D01*
X131529403Y-81047234D01*
X131482288Y-80976722D01*
X131438250Y-80870404D01*
X131415800Y-80757538D01*
X131415800Y-80642460D01*
X131418169Y-80630552D01*
X131427807Y-80582097D01*
X131438250Y-80529594D01*
X131482288Y-80423276D01*
X131546222Y-80327593D01*
X131546224Y-80327590D01*
X131627591Y-80246223D01*
X131628025Y-80245933D01*
X131723277Y-80182287D01*
X131829595Y-80138249D01*
X131914245Y-80121411D01*
X131942460Y-80115799D01*
X132057540Y-80115799D01*
X132085755Y-80121411D01*
X132085755Y-80121411D01*
G37*
G36*
X128085755Y-80121411D02*
X128170405Y-80138249D01*
X128276723Y-80182287D01*
X128371975Y-80245933D01*
X128372409Y-80246223D01*
X128453776Y-80327590D01*
X128453778Y-80327593D01*
X128517712Y-80423276D01*
X128561750Y-80529594D01*
X128572193Y-80582097D01*
X128581832Y-80630552D01*
X128584200Y-80642460D01*
X128584200Y-80757538D01*
X128561750Y-80870404D01*
X128517712Y-80976722D01*
X128470597Y-81047234D01*
X128453776Y-81072408D01*
X128372409Y-81153775D01*
X128372406Y-81153777D01*
X128276723Y-81217711D01*
X128170405Y-81261749D01*
X128085755Y-81278587D01*
X128057540Y-81284199D01*
X127942460Y-81284199D01*
X127914245Y-81278587D01*
X127829595Y-81261749D01*
X127723277Y-81217711D01*
X127627594Y-81153777D01*
X127627591Y-81153775D01*
X127546224Y-81072408D01*
X127529403Y-81047234D01*
X127482288Y-80976722D01*
X127438250Y-80870404D01*
X127415800Y-80757538D01*
X127415800Y-80642460D01*
X127418169Y-80630552D01*
X127427807Y-80582097D01*
X127438250Y-80529594D01*
X127482288Y-80423276D01*
X127546222Y-80327593D01*
X127546224Y-80327590D01*
X127627591Y-80246223D01*
X127628025Y-80245933D01*
X127723277Y-80182287D01*
X127829595Y-80138249D01*
X127914245Y-80121411D01*
X127942460Y-80115799D01*
X128057540Y-80115799D01*
X128085755Y-80121411D01*
X128085755Y-80121411D01*
G37*
G36*
X130085754Y-80121411D02*
X130170404Y-80138249D01*
X130276722Y-80182287D01*
X130371974Y-80245933D01*
X130372408Y-80246223D01*
X130453775Y-80327590D01*
X130453777Y-80327593D01*
X130517711Y-80423276D01*
X130561749Y-80529594D01*
X130572192Y-80582097D01*
X130581831Y-80630552D01*
X130584199Y-80642460D01*
X130584199Y-80757538D01*
X130561749Y-80870404D01*
X130517711Y-80976722D01*
X130470596Y-81047234D01*
X130453775Y-81072408D01*
X130372408Y-81153775D01*
X130372405Y-81153777D01*
X130276722Y-81217711D01*
X130170404Y-81261749D01*
X130085754Y-81278587D01*
X130057539Y-81284199D01*
X129942459Y-81284199D01*
X129914244Y-81278587D01*
X129829594Y-81261749D01*
X129723276Y-81217711D01*
X129627593Y-81153777D01*
X129627590Y-81153775D01*
X129546223Y-81072408D01*
X129529402Y-81047234D01*
X129482287Y-80976722D01*
X129438249Y-80870404D01*
X129415799Y-80757538D01*
X129415799Y-80642460D01*
X129418168Y-80630552D01*
X129427806Y-80582097D01*
X129438249Y-80529594D01*
X129482287Y-80423276D01*
X129546221Y-80327593D01*
X129546223Y-80327590D01*
X129627590Y-80246223D01*
X129628024Y-80245933D01*
X129723276Y-80182287D01*
X129829594Y-80138249D01*
X129914244Y-80121411D01*
X129942459Y-80115799D01*
X130057539Y-80115799D01*
X130085754Y-80121411D01*
X130085754Y-80121411D01*
G37*
G36*
X131085757Y-78121413D02*
X131170406Y-78138250D01*
X131276724Y-78182288D01*
X131371976Y-78245934D01*
X131372410Y-78246224D01*
X131453777Y-78327591D01*
X131453779Y-78327594D01*
X131517713Y-78423277D01*
X131561751Y-78529595D01*
X131584201Y-78642461D01*
X131584201Y-78757539D01*
X131561751Y-78870405D01*
X131517713Y-78976723D01*
X131454067Y-79071975D01*
X131453777Y-79072409D01*
X131372410Y-79153776D01*
X131372407Y-79153778D01*
X131276724Y-79217712D01*
X131170406Y-79261750D01*
X131085757Y-79278587D01*
X131057541Y-79284200D01*
X130942461Y-79284200D01*
X130914245Y-79278587D01*
X130829596Y-79261750D01*
X130723278Y-79217712D01*
X130627595Y-79153778D01*
X130627592Y-79153776D01*
X130546225Y-79072409D01*
X130545935Y-79071975D01*
X130482289Y-78976723D01*
X130438251Y-78870405D01*
X130415801Y-78757539D01*
X130415801Y-78642461D01*
X130438251Y-78529595D01*
X130482289Y-78423277D01*
X130546223Y-78327594D01*
X130546225Y-78327591D01*
X130627592Y-78246224D01*
X130628026Y-78245934D01*
X130723278Y-78182288D01*
X130829596Y-78138250D01*
X130914245Y-78121413D01*
X130942461Y-78115800D01*
X131057541Y-78115800D01*
X131085757Y-78121413D01*
X131085757Y-78121413D01*
G37*
G36*
X145310755Y-78121413D02*
X145395404Y-78138250D01*
X145501722Y-78182288D01*
X145596974Y-78245934D01*
X145597408Y-78246224D01*
X145678775Y-78327591D01*
X145678777Y-78327594D01*
X145742711Y-78423277D01*
X145786749Y-78529595D01*
X145809199Y-78642461D01*
X145809199Y-78757539D01*
X145786749Y-78870405D01*
X145742711Y-78976723D01*
X145679065Y-79071975D01*
X145678775Y-79072409D01*
X145597408Y-79153776D01*
X145597405Y-79153778D01*
X145501722Y-79217712D01*
X145395404Y-79261750D01*
X145310755Y-79278587D01*
X145282539Y-79284200D01*
X145167459Y-79284200D01*
X145139243Y-79278587D01*
X145054594Y-79261750D01*
X144948276Y-79217712D01*
X144852593Y-79153778D01*
X144852590Y-79153776D01*
X144771223Y-79072409D01*
X144770933Y-79071975D01*
X144707287Y-78976723D01*
X144663249Y-78870405D01*
X144640799Y-78757539D01*
X144640799Y-78642461D01*
X144663249Y-78529595D01*
X144707287Y-78423277D01*
X144771221Y-78327594D01*
X144771223Y-78327591D01*
X144852590Y-78246224D01*
X144853024Y-78245934D01*
X144948276Y-78182288D01*
X145054594Y-78138250D01*
X145139244Y-78121412D01*
X145167459Y-78115800D01*
X145282539Y-78115800D01*
X145310755Y-78121413D01*
X145310755Y-78121413D01*
G37*
G36*
X143310757Y-78121413D02*
X143395406Y-78138250D01*
X143501724Y-78182288D01*
X143596976Y-78245934D01*
X143597410Y-78246224D01*
X143678777Y-78327591D01*
X143678779Y-78327594D01*
X143742713Y-78423277D01*
X143786751Y-78529595D01*
X143809201Y-78642461D01*
X143809201Y-78757539D01*
X143786751Y-78870405D01*
X143742713Y-78976723D01*
X143679067Y-79071975D01*
X143678777Y-79072409D01*
X143597410Y-79153776D01*
X143597407Y-79153778D01*
X143501724Y-79217712D01*
X143395406Y-79261750D01*
X143310757Y-79278587D01*
X143282541Y-79284200D01*
X143167461Y-79284200D01*
X143139245Y-79278587D01*
X143054596Y-79261750D01*
X142948278Y-79217712D01*
X142852595Y-79153778D01*
X142852592Y-79153776D01*
X142771225Y-79072409D01*
X142770935Y-79071975D01*
X142707289Y-78976723D01*
X142663251Y-78870405D01*
X142640801Y-78757539D01*
X142640801Y-78642461D01*
X142663251Y-78529595D01*
X142707289Y-78423277D01*
X142771223Y-78327594D01*
X142771225Y-78327591D01*
X142852592Y-78246224D01*
X142853026Y-78245934D01*
X142948278Y-78182288D01*
X143054596Y-78138250D01*
X143139245Y-78121413D01*
X143167461Y-78115800D01*
X143282541Y-78115800D01*
X143310757Y-78121413D01*
X143310757Y-78121413D01*
G37*
G36*
X141310756Y-78121413D02*
X141395405Y-78138250D01*
X141501723Y-78182288D01*
X141596975Y-78245934D01*
X141597409Y-78246224D01*
X141678776Y-78327591D01*
X141678778Y-78327594D01*
X141742712Y-78423277D01*
X141786750Y-78529595D01*
X141809200Y-78642461D01*
X141809200Y-78757539D01*
X141786750Y-78870405D01*
X141742712Y-78976723D01*
X141679066Y-79071975D01*
X141678776Y-79072409D01*
X141597409Y-79153776D01*
X141597406Y-79153778D01*
X141501723Y-79217712D01*
X141395405Y-79261750D01*
X141310756Y-79278587D01*
X141282540Y-79284200D01*
X141167460Y-79284200D01*
X141139244Y-79278587D01*
X141054595Y-79261750D01*
X140948277Y-79217712D01*
X140852594Y-79153778D01*
X140852591Y-79153776D01*
X140771224Y-79072409D01*
X140770934Y-79071975D01*
X140707288Y-78976723D01*
X140663250Y-78870405D01*
X140640800Y-78757539D01*
X140640800Y-78642461D01*
X140663250Y-78529595D01*
X140707288Y-78423277D01*
X140771222Y-78327594D01*
X140771224Y-78327591D01*
X140852591Y-78246224D01*
X140853025Y-78245934D01*
X140948277Y-78182288D01*
X141054595Y-78138250D01*
X141139244Y-78121413D01*
X141167460Y-78115800D01*
X141282540Y-78115800D01*
X141310756Y-78121413D01*
X141310756Y-78121413D01*
G37*
G36*
X137085755Y-78121413D02*
X137170404Y-78138250D01*
X137276722Y-78182288D01*
X137371974Y-78245934D01*
X137372408Y-78246224D01*
X137453775Y-78327591D01*
X137453777Y-78327594D01*
X137517711Y-78423277D01*
X137561749Y-78529595D01*
X137584199Y-78642461D01*
X137584199Y-78757539D01*
X137561749Y-78870405D01*
X137517711Y-78976723D01*
X137454065Y-79071975D01*
X137453775Y-79072409D01*
X137372408Y-79153776D01*
X137372405Y-79153778D01*
X137276722Y-79217712D01*
X137170404Y-79261750D01*
X137085755Y-79278587D01*
X137057539Y-79284200D01*
X136942459Y-79284200D01*
X136914243Y-79278587D01*
X136829594Y-79261750D01*
X136723276Y-79217712D01*
X136627593Y-79153778D01*
X136627590Y-79153776D01*
X136546223Y-79072409D01*
X136545933Y-79071975D01*
X136482287Y-78976723D01*
X136438249Y-78870405D01*
X136415799Y-78757539D01*
X136415799Y-78642461D01*
X136438249Y-78529595D01*
X136482287Y-78423277D01*
X136546221Y-78327594D01*
X136546223Y-78327591D01*
X136627590Y-78246224D01*
X136628024Y-78245934D01*
X136723276Y-78182288D01*
X136829594Y-78138250D01*
X136914243Y-78121413D01*
X136942459Y-78115800D01*
X137057539Y-78115800D01*
X137085755Y-78121413D01*
X137085755Y-78121413D01*
G37*
G36*
X147310757Y-78121413D02*
X147395406Y-78138250D01*
X147501724Y-78182288D01*
X147596976Y-78245934D01*
X147597410Y-78246224D01*
X147678777Y-78327591D01*
X147678779Y-78327594D01*
X147742713Y-78423277D01*
X147786751Y-78529595D01*
X147809201Y-78642461D01*
X147809201Y-78757539D01*
X147786751Y-78870405D01*
X147742713Y-78976723D01*
X147679067Y-79071975D01*
X147678777Y-79072409D01*
X147597410Y-79153776D01*
X147597407Y-79153778D01*
X147501724Y-79217712D01*
X147395406Y-79261750D01*
X147310757Y-79278587D01*
X147282541Y-79284200D01*
X147167461Y-79284200D01*
X147139245Y-79278587D01*
X147054596Y-79261750D01*
X146948278Y-79217712D01*
X146852595Y-79153778D01*
X146852592Y-79153776D01*
X146771225Y-79072409D01*
X146770935Y-79071975D01*
X146707289Y-78976723D01*
X146663251Y-78870405D01*
X146640801Y-78757539D01*
X146640801Y-78642461D01*
X146663251Y-78529595D01*
X146707289Y-78423277D01*
X146771223Y-78327594D01*
X146771225Y-78327591D01*
X146852592Y-78246224D01*
X146853026Y-78245934D01*
X146948278Y-78182288D01*
X147054596Y-78138250D01*
X147139246Y-78121412D01*
X147167461Y-78115800D01*
X147282541Y-78115800D01*
X147310757Y-78121413D01*
X147310757Y-78121413D01*
G37*
G36*
X135085756Y-78121413D02*
X135170405Y-78138250D01*
X135276723Y-78182288D01*
X135371975Y-78245934D01*
X135372409Y-78246224D01*
X135453776Y-78327591D01*
X135453778Y-78327594D01*
X135517712Y-78423277D01*
X135561750Y-78529595D01*
X135584200Y-78642461D01*
X135584200Y-78757539D01*
X135561750Y-78870405D01*
X135517712Y-78976723D01*
X135454066Y-79071975D01*
X135453776Y-79072409D01*
X135372409Y-79153776D01*
X135372406Y-79153778D01*
X135276723Y-79217712D01*
X135170405Y-79261750D01*
X135085756Y-79278587D01*
X135057540Y-79284200D01*
X134942460Y-79284200D01*
X134914244Y-79278587D01*
X134829595Y-79261750D01*
X134723277Y-79217712D01*
X134627594Y-79153778D01*
X134627591Y-79153776D01*
X134546224Y-79072409D01*
X134545934Y-79071975D01*
X134482288Y-78976723D01*
X134438250Y-78870405D01*
X134415800Y-78757539D01*
X134415800Y-78642461D01*
X134438250Y-78529595D01*
X134482288Y-78423277D01*
X134546222Y-78327594D01*
X134546224Y-78327591D01*
X134627591Y-78246224D01*
X134628025Y-78245934D01*
X134723277Y-78182288D01*
X134829595Y-78138250D01*
X134914244Y-78121413D01*
X134942460Y-78115800D01*
X135057540Y-78115800D01*
X135085756Y-78121413D01*
X135085756Y-78121413D01*
G37*
G36*
X129085755Y-78121413D02*
X129170404Y-78138250D01*
X129276722Y-78182288D01*
X129371974Y-78245934D01*
X129372408Y-78246224D01*
X129453775Y-78327591D01*
X129453777Y-78327594D01*
X129517711Y-78423277D01*
X129561749Y-78529595D01*
X129584199Y-78642461D01*
X129584199Y-78757539D01*
X129561749Y-78870405D01*
X129517711Y-78976723D01*
X129454065Y-79071975D01*
X129453775Y-79072409D01*
X129372408Y-79153776D01*
X129372405Y-79153778D01*
X129276722Y-79217712D01*
X129170404Y-79261750D01*
X129085755Y-79278587D01*
X129057539Y-79284200D01*
X128942459Y-79284200D01*
X128914243Y-79278587D01*
X128829594Y-79261750D01*
X128723276Y-79217712D01*
X128627593Y-79153778D01*
X128627590Y-79153776D01*
X128546223Y-79072409D01*
X128545933Y-79071975D01*
X128482287Y-78976723D01*
X128438249Y-78870405D01*
X128415799Y-78757539D01*
X128415799Y-78642461D01*
X128438249Y-78529595D01*
X128482287Y-78423277D01*
X128546221Y-78327594D01*
X128546223Y-78327591D01*
X128627590Y-78246224D01*
X128628024Y-78245934D01*
X128723276Y-78182288D01*
X128829594Y-78138250D01*
X128914243Y-78121413D01*
X128942459Y-78115800D01*
X129057539Y-78115800D01*
X129085755Y-78121413D01*
X129085755Y-78121413D01*
G37*
G36*
X133085755Y-78121413D02*
X133170404Y-78138250D01*
X133276722Y-78182288D01*
X133371974Y-78245934D01*
X133372408Y-78246224D01*
X133453775Y-78327591D01*
X133453777Y-78327594D01*
X133517711Y-78423277D01*
X133561749Y-78529595D01*
X133584199Y-78642461D01*
X133584199Y-78757539D01*
X133561749Y-78870405D01*
X133517711Y-78976723D01*
X133454065Y-79071975D01*
X133453775Y-79072409D01*
X133372408Y-79153776D01*
X133372405Y-79153778D01*
X133276722Y-79217712D01*
X133170404Y-79261750D01*
X133085755Y-79278587D01*
X133057539Y-79284200D01*
X132942459Y-79284200D01*
X132914243Y-79278587D01*
X132829594Y-79261750D01*
X132723276Y-79217712D01*
X132627593Y-79153778D01*
X132627590Y-79153776D01*
X132546223Y-79072409D01*
X132545933Y-79071975D01*
X132482287Y-78976723D01*
X132438249Y-78870405D01*
X132415799Y-78757539D01*
X132415799Y-78642461D01*
X132438249Y-78529595D01*
X132482287Y-78423277D01*
X132546221Y-78327594D01*
X132546223Y-78327591D01*
X132627590Y-78246224D01*
X132628024Y-78245934D01*
X132723276Y-78182288D01*
X132829594Y-78138250D01*
X132914243Y-78121413D01*
X132942459Y-78115800D01*
X133057539Y-78115800D01*
X133085755Y-78121413D01*
X133085755Y-78121413D01*
G37*
G36*
X123400000Y-79150000D02*
X122600000Y-79150000D01*
X122600000Y-78350000D01*
X123400000Y-78350000D01*
X123400000Y-79150000D01*
X123400000Y-79150000D01*
G37*
G36*
X123400000Y-77650000D02*
X122600000Y-77650000D01*
X122600000Y-76850000D01*
X123400000Y-76850000D01*
X123400000Y-77650000D01*
X123400000Y-77650000D01*
G37*
G36*
X153819590Y-68457045D02*
X153890429Y-68471136D01*
X153990523Y-68512597D01*
X154080607Y-68572789D01*
X154157211Y-68649393D01*
X154217403Y-68739477D01*
X154249515Y-68817002D01*
X154261066Y-68838613D01*
X154276612Y-68857555D01*
X154295554Y-68873100D01*
X154317165Y-68884651D01*
X154340614Y-68891764D01*
X154365000Y-68894166D01*
X154389387Y-68891764D01*
X154412836Y-68884651D01*
X154434447Y-68873100D01*
X154453389Y-68857554D01*
X154468934Y-68838612D01*
X154480485Y-68817002D01*
X154512597Y-68739477D01*
X154572789Y-68649393D01*
X154649393Y-68572789D01*
X154739477Y-68512597D01*
X154839571Y-68471136D01*
X154910410Y-68457045D01*
X154945829Y-68450000D01*
X155054171Y-68450000D01*
X155089590Y-68457045D01*
X155160429Y-68471136D01*
X155260523Y-68512597D01*
X155350607Y-68572789D01*
X155427211Y-68649393D01*
X155427213Y-68649396D01*
X155487403Y-68739477D01*
X155528864Y-68839571D01*
X155550000Y-68945830D01*
X155550000Y-69054170D01*
X155528864Y-69160429D01*
X155519515Y-69182998D01*
X155487403Y-69260523D01*
X155427211Y-69350607D01*
X155350607Y-69427211D01*
X155350604Y-69427213D01*
X155260523Y-69487403D01*
X155182994Y-69519517D01*
X155161387Y-69531066D01*
X155142445Y-69546612D01*
X155126900Y-69565554D01*
X155115349Y-69587165D01*
X155108236Y-69610614D01*
X155105834Y-69635000D01*
X155108236Y-69659387D01*
X155115349Y-69682836D01*
X155126900Y-69704447D01*
X155142446Y-69723389D01*
X155161388Y-69738934D01*
X155182994Y-69750483D01*
X155260523Y-69782597D01*
X155350607Y-69842789D01*
X155427211Y-69919393D01*
X155427213Y-69919396D01*
X155487403Y-70009477D01*
X155528864Y-70109571D01*
X155550000Y-70215830D01*
X155550000Y-70324170D01*
X155528864Y-70430429D01*
X155519515Y-70452998D01*
X155487403Y-70530523D01*
X155427211Y-70620607D01*
X155350607Y-70697211D01*
X155350604Y-70697213D01*
X155260523Y-70757403D01*
X155182994Y-70789517D01*
X155161387Y-70801066D01*
X155142445Y-70816612D01*
X155126900Y-70835554D01*
X155115349Y-70857165D01*
X155108236Y-70880614D01*
X155105834Y-70905000D01*
X155108236Y-70929387D01*
X155115349Y-70952836D01*
X155126900Y-70974447D01*
X155142446Y-70993389D01*
X155161388Y-71008934D01*
X155182994Y-71020483D01*
X155260523Y-71052597D01*
X155350607Y-71112789D01*
X155427211Y-71189393D01*
X155427213Y-71189396D01*
X155487403Y-71279477D01*
X155528864Y-71379571D01*
X155550000Y-71485830D01*
X155550000Y-71594170D01*
X155528864Y-71700429D01*
X155519515Y-71722998D01*
X155487403Y-71800523D01*
X155427211Y-71890607D01*
X155350607Y-71967211D01*
X155350604Y-71967213D01*
X155260523Y-72027403D01*
X155182994Y-72059517D01*
X155161387Y-72071066D01*
X155142445Y-72086612D01*
X155126900Y-72105554D01*
X155115349Y-72127165D01*
X155108236Y-72150614D01*
X155105834Y-72175000D01*
X155108236Y-72199387D01*
X155115349Y-72222836D01*
X155126900Y-72244447D01*
X155142446Y-72263389D01*
X155161388Y-72278934D01*
X155182994Y-72290483D01*
X155260523Y-72322597D01*
X155350607Y-72382789D01*
X155427211Y-72459393D01*
X155427213Y-72459396D01*
X155487403Y-72549477D01*
X155528864Y-72649571D01*
X155550000Y-72755830D01*
X155550000Y-72864170D01*
X155528864Y-72970429D01*
X155519515Y-72992998D01*
X155487403Y-73070523D01*
X155427211Y-73160607D01*
X155350607Y-73237211D01*
X155350604Y-73237213D01*
X155260523Y-73297403D01*
X155182994Y-73329517D01*
X155161387Y-73341066D01*
X155142445Y-73356612D01*
X155126900Y-73375554D01*
X155115349Y-73397165D01*
X155108236Y-73420614D01*
X155105834Y-73445000D01*
X155108236Y-73469387D01*
X155115349Y-73492836D01*
X155126900Y-73514447D01*
X155142446Y-73533389D01*
X155161388Y-73548934D01*
X155182994Y-73560483D01*
X155260523Y-73592597D01*
X155350607Y-73652789D01*
X155427211Y-73729393D01*
X155427213Y-73729396D01*
X155487403Y-73819477D01*
X155528864Y-73919571D01*
X155550000Y-74025830D01*
X155550000Y-74134170D01*
X155528864Y-74240429D01*
X155519515Y-74262998D01*
X155487403Y-74340523D01*
X155427211Y-74430607D01*
X155350607Y-74507211D01*
X155350604Y-74507213D01*
X155260523Y-74567403D01*
X155160429Y-74608864D01*
X155089590Y-74622955D01*
X155054171Y-74630000D01*
X154945829Y-74630000D01*
X154910410Y-74622955D01*
X154839571Y-74608864D01*
X154739477Y-74567403D01*
X154649396Y-74507213D01*
X154649393Y-74507211D01*
X154572789Y-74430607D01*
X154512597Y-74340523D01*
X154480485Y-74262998D01*
X154468934Y-74241387D01*
X154453388Y-74222445D01*
X154434446Y-74206900D01*
X154412835Y-74195349D01*
X154389386Y-74188236D01*
X154365000Y-74185834D01*
X154340613Y-74188236D01*
X154317164Y-74195349D01*
X154295553Y-74206900D01*
X154276611Y-74222446D01*
X154261066Y-74241388D01*
X154249515Y-74262998D01*
X154217403Y-74340523D01*
X154157211Y-74430607D01*
X154080607Y-74507211D01*
X154080604Y-74507213D01*
X153990523Y-74567403D01*
X153890429Y-74608864D01*
X153819590Y-74622955D01*
X153784171Y-74630000D01*
X153675829Y-74630000D01*
X153640410Y-74622955D01*
X153569571Y-74608864D01*
X153469477Y-74567403D01*
X153379396Y-74507213D01*
X153379393Y-74507211D01*
X153302789Y-74430607D01*
X153242597Y-74340523D01*
X153210485Y-74262998D01*
X153201136Y-74240429D01*
X153180000Y-74134170D01*
X153180000Y-74025830D01*
X153201136Y-73919571D01*
X153242597Y-73819477D01*
X153302787Y-73729396D01*
X153302789Y-73729393D01*
X153379393Y-73652789D01*
X153469477Y-73592597D01*
X153547006Y-73560483D01*
X153568613Y-73548934D01*
X153587555Y-73533388D01*
X153603100Y-73514446D01*
X153614651Y-73492835D01*
X153621764Y-73469386D01*
X153624166Y-73445000D01*
X153835834Y-73445000D01*
X153838236Y-73469387D01*
X153845349Y-73492836D01*
X153856900Y-73514447D01*
X153872446Y-73533389D01*
X153891388Y-73548934D01*
X153912994Y-73560483D01*
X153990523Y-73592597D01*
X154080607Y-73652789D01*
X154157211Y-73729393D01*
X154217403Y-73819477D01*
X154249515Y-73897002D01*
X154261066Y-73918613D01*
X154276612Y-73937555D01*
X154295554Y-73953100D01*
X154317165Y-73964651D01*
X154340614Y-73971764D01*
X154365000Y-73974166D01*
X154389387Y-73971764D01*
X154412836Y-73964651D01*
X154434447Y-73953100D01*
X154453389Y-73937554D01*
X154468934Y-73918612D01*
X154480485Y-73897002D01*
X154512597Y-73819477D01*
X154572789Y-73729393D01*
X154649393Y-73652789D01*
X154739477Y-73592597D01*
X154817006Y-73560483D01*
X154838613Y-73548934D01*
X154857555Y-73533388D01*
X154873100Y-73514446D01*
X154884651Y-73492835D01*
X154891764Y-73469386D01*
X154894166Y-73445000D01*
X154891764Y-73420613D01*
X154884651Y-73397164D01*
X154873100Y-73375553D01*
X154857554Y-73356611D01*
X154838612Y-73341066D01*
X154817006Y-73329517D01*
X154739477Y-73297403D01*
X154649396Y-73237213D01*
X154649393Y-73237211D01*
X154572789Y-73160607D01*
X154512597Y-73070523D01*
X154480485Y-72992998D01*
X154468934Y-72971387D01*
X154453388Y-72952445D01*
X154434446Y-72936900D01*
X154412835Y-72925349D01*
X154389386Y-72918236D01*
X154365000Y-72915834D01*
X154340613Y-72918236D01*
X154317164Y-72925349D01*
X154295553Y-72936900D01*
X154276611Y-72952446D01*
X154261066Y-72971388D01*
X154249515Y-72992998D01*
X154217403Y-73070523D01*
X154157211Y-73160607D01*
X154080607Y-73237211D01*
X154080604Y-73237213D01*
X153990523Y-73297403D01*
X153912994Y-73329517D01*
X153891387Y-73341066D01*
X153872445Y-73356612D01*
X153856900Y-73375554D01*
X153845349Y-73397165D01*
X153838236Y-73420614D01*
X153835834Y-73445000D01*
X153624166Y-73445000D01*
X153621764Y-73420613D01*
X153614651Y-73397164D01*
X153603100Y-73375553D01*
X153587554Y-73356611D01*
X153568612Y-73341066D01*
X153547006Y-73329517D01*
X153469477Y-73297403D01*
X153379396Y-73237213D01*
X153379393Y-73237211D01*
X153302789Y-73160607D01*
X153242597Y-73070523D01*
X153210485Y-72992998D01*
X153201136Y-72970429D01*
X153180000Y-72864170D01*
X153180000Y-72755830D01*
X153201136Y-72649571D01*
X153242597Y-72549477D01*
X153302787Y-72459396D01*
X153302789Y-72459393D01*
X153379393Y-72382789D01*
X153469477Y-72322597D01*
X153547006Y-72290483D01*
X153568613Y-72278934D01*
X153587555Y-72263388D01*
X153603100Y-72244446D01*
X153614651Y-72222835D01*
X153621764Y-72199386D01*
X153624166Y-72175000D01*
X153835834Y-72175000D01*
X153838236Y-72199387D01*
X153845349Y-72222836D01*
X153856900Y-72244447D01*
X153872446Y-72263389D01*
X153891388Y-72278934D01*
X153912994Y-72290483D01*
X153990523Y-72322597D01*
X154080607Y-72382789D01*
X154157211Y-72459393D01*
X154217403Y-72549477D01*
X154249515Y-72627002D01*
X154261066Y-72648613D01*
X154276612Y-72667555D01*
X154295554Y-72683100D01*
X154317165Y-72694651D01*
X154340614Y-72701764D01*
X154365000Y-72704166D01*
X154389387Y-72701764D01*
X154412836Y-72694651D01*
X154434447Y-72683100D01*
X154453389Y-72667554D01*
X154468934Y-72648612D01*
X154480485Y-72627002D01*
X154512597Y-72549477D01*
X154572789Y-72459393D01*
X154649393Y-72382789D01*
X154739477Y-72322597D01*
X154817006Y-72290483D01*
X154838613Y-72278934D01*
X154857555Y-72263388D01*
X154873100Y-72244446D01*
X154884651Y-72222835D01*
X154891764Y-72199386D01*
X154894166Y-72175000D01*
X154891764Y-72150613D01*
X154884651Y-72127164D01*
X154873100Y-72105553D01*
X154857554Y-72086611D01*
X154838612Y-72071066D01*
X154817006Y-72059517D01*
X154739477Y-72027403D01*
X154649396Y-71967213D01*
X154649393Y-71967211D01*
X154572789Y-71890607D01*
X154512597Y-71800523D01*
X154480485Y-71722998D01*
X154468934Y-71701387D01*
X154453388Y-71682445D01*
X154434446Y-71666900D01*
X154412835Y-71655349D01*
X154389386Y-71648236D01*
X154365000Y-71645834D01*
X154340613Y-71648236D01*
X154317164Y-71655349D01*
X154295553Y-71666900D01*
X154276611Y-71682446D01*
X154261066Y-71701388D01*
X154249515Y-71722998D01*
X154217403Y-71800523D01*
X154157211Y-71890607D01*
X154080607Y-71967211D01*
X154080604Y-71967213D01*
X153990523Y-72027403D01*
X153912994Y-72059517D01*
X153891387Y-72071066D01*
X153872445Y-72086612D01*
X153856900Y-72105554D01*
X153845349Y-72127165D01*
X153838236Y-72150614D01*
X153835834Y-72175000D01*
X153624166Y-72175000D01*
X153621764Y-72150613D01*
X153614651Y-72127164D01*
X153603100Y-72105553D01*
X153587554Y-72086611D01*
X153568612Y-72071066D01*
X153547006Y-72059517D01*
X153469477Y-72027403D01*
X153379396Y-71967213D01*
X153379393Y-71967211D01*
X153302789Y-71890607D01*
X153242597Y-71800523D01*
X153210485Y-71722998D01*
X153201136Y-71700429D01*
X153180000Y-71594170D01*
X153180000Y-71485830D01*
X153201136Y-71379571D01*
X153242597Y-71279477D01*
X153302787Y-71189396D01*
X153302789Y-71189393D01*
X153379393Y-71112789D01*
X153469477Y-71052597D01*
X153547006Y-71020483D01*
X153568613Y-71008934D01*
X153587555Y-70993388D01*
X153603100Y-70974446D01*
X153614651Y-70952835D01*
X153621764Y-70929386D01*
X153624166Y-70905000D01*
X153835834Y-70905000D01*
X153838236Y-70929387D01*
X153845349Y-70952836D01*
X153856900Y-70974447D01*
X153872446Y-70993389D01*
X153891388Y-71008934D01*
X153912994Y-71020483D01*
X153990523Y-71052597D01*
X154080607Y-71112789D01*
X154157211Y-71189393D01*
X154217403Y-71279477D01*
X154249515Y-71357002D01*
X154261066Y-71378613D01*
X154276612Y-71397555D01*
X154295554Y-71413100D01*
X154317165Y-71424651D01*
X154340614Y-71431764D01*
X154365000Y-71434166D01*
X154389387Y-71431764D01*
X154412836Y-71424651D01*
X154434447Y-71413100D01*
X154453389Y-71397554D01*
X154468934Y-71378612D01*
X154480485Y-71357002D01*
X154512597Y-71279477D01*
X154572789Y-71189393D01*
X154649393Y-71112789D01*
X154739477Y-71052597D01*
X154817006Y-71020483D01*
X154838613Y-71008934D01*
X154857555Y-70993388D01*
X154873100Y-70974446D01*
X154884651Y-70952835D01*
X154891764Y-70929386D01*
X154894166Y-70905000D01*
X154891764Y-70880613D01*
X154884651Y-70857164D01*
X154873100Y-70835553D01*
X154857554Y-70816611D01*
X154838612Y-70801066D01*
X154817006Y-70789517D01*
X154739477Y-70757403D01*
X154649396Y-70697213D01*
X154649393Y-70697211D01*
X154572789Y-70620607D01*
X154512597Y-70530523D01*
X154480485Y-70452998D01*
X154468934Y-70431387D01*
X154453388Y-70412445D01*
X154434446Y-70396900D01*
X154412835Y-70385349D01*
X154389386Y-70378236D01*
X154365000Y-70375834D01*
X154340613Y-70378236D01*
X154317164Y-70385349D01*
X154295553Y-70396900D01*
X154276611Y-70412446D01*
X154261066Y-70431388D01*
X154249515Y-70452998D01*
X154217403Y-70530523D01*
X154157211Y-70620607D01*
X154080607Y-70697211D01*
X154080604Y-70697213D01*
X153990523Y-70757403D01*
X153912994Y-70789517D01*
X153891387Y-70801066D01*
X153872445Y-70816612D01*
X153856900Y-70835554D01*
X153845349Y-70857165D01*
X153838236Y-70880614D01*
X153835834Y-70905000D01*
X153624166Y-70905000D01*
X153621764Y-70880613D01*
X153614651Y-70857164D01*
X153603100Y-70835553D01*
X153587554Y-70816611D01*
X153568612Y-70801066D01*
X153547006Y-70789517D01*
X153469477Y-70757403D01*
X153379396Y-70697213D01*
X153379393Y-70697211D01*
X153302789Y-70620607D01*
X153242597Y-70530523D01*
X153210485Y-70452998D01*
X153201136Y-70430429D01*
X153180000Y-70324170D01*
X153180000Y-70215830D01*
X153201136Y-70109571D01*
X153242597Y-70009477D01*
X153302787Y-69919396D01*
X153302789Y-69919393D01*
X153379393Y-69842789D01*
X153469477Y-69782597D01*
X153547006Y-69750483D01*
X153568613Y-69738934D01*
X153587555Y-69723388D01*
X153603100Y-69704446D01*
X153614651Y-69682835D01*
X153621764Y-69659386D01*
X153624166Y-69635000D01*
X153835834Y-69635000D01*
X153838236Y-69659387D01*
X153845349Y-69682836D01*
X153856900Y-69704447D01*
X153872446Y-69723389D01*
X153891388Y-69738934D01*
X153912994Y-69750483D01*
X153990523Y-69782597D01*
X154080607Y-69842789D01*
X154157211Y-69919393D01*
X154217403Y-70009477D01*
X154249515Y-70087002D01*
X154261066Y-70108613D01*
X154276612Y-70127555D01*
X154295554Y-70143100D01*
X154317165Y-70154651D01*
X154340614Y-70161764D01*
X154365000Y-70164166D01*
X154389387Y-70161764D01*
X154412836Y-70154651D01*
X154434447Y-70143100D01*
X154453389Y-70127554D01*
X154468934Y-70108612D01*
X154480485Y-70087002D01*
X154512597Y-70009477D01*
X154572789Y-69919393D01*
X154649393Y-69842789D01*
X154739477Y-69782597D01*
X154817006Y-69750483D01*
X154838613Y-69738934D01*
X154857555Y-69723388D01*
X154873100Y-69704446D01*
X154884651Y-69682835D01*
X154891764Y-69659386D01*
X154894166Y-69635000D01*
X154891764Y-69610613D01*
X154884651Y-69587164D01*
X154873100Y-69565553D01*
X154857554Y-69546611D01*
X154838612Y-69531066D01*
X154817006Y-69519517D01*
X154739477Y-69487403D01*
X154649396Y-69427213D01*
X154649393Y-69427211D01*
X154572789Y-69350607D01*
X154512597Y-69260523D01*
X154480485Y-69182998D01*
X154468934Y-69161387D01*
X154453388Y-69142445D01*
X154434446Y-69126900D01*
X154412835Y-69115349D01*
X154389386Y-69108236D01*
X154365000Y-69105834D01*
X154340613Y-69108236D01*
X154317164Y-69115349D01*
X154295553Y-69126900D01*
X154276611Y-69142446D01*
X154261066Y-69161388D01*
X154249515Y-69182998D01*
X154217403Y-69260523D01*
X154157211Y-69350607D01*
X154080607Y-69427211D01*
X154080604Y-69427213D01*
X153990523Y-69487403D01*
X153912994Y-69519517D01*
X153891387Y-69531066D01*
X153872445Y-69546612D01*
X153856900Y-69565554D01*
X153845349Y-69587165D01*
X153838236Y-69610614D01*
X153835834Y-69635000D01*
X153624166Y-69635000D01*
X153621764Y-69610613D01*
X153614651Y-69587164D01*
X153603100Y-69565553D01*
X153587554Y-69546611D01*
X153568612Y-69531066D01*
X153547006Y-69519517D01*
X153469477Y-69487403D01*
X153379396Y-69427213D01*
X153379393Y-69427211D01*
X153302789Y-69350607D01*
X153242597Y-69260523D01*
X153210485Y-69182998D01*
X153201136Y-69160429D01*
X153180000Y-69054170D01*
X153180000Y-68945830D01*
X153201136Y-68839571D01*
X153242597Y-68739477D01*
X153302787Y-68649396D01*
X153302789Y-68649393D01*
X153379393Y-68572789D01*
X153469477Y-68512597D01*
X153569571Y-68471136D01*
X153640410Y-68457045D01*
X153675829Y-68450000D01*
X153784171Y-68450000D01*
X153819590Y-68457045D01*
X153819590Y-68457045D01*
G37*
G36*
X131085755Y-65821414D02*
X131170404Y-65838251D01*
X131276722Y-65882289D01*
X131371974Y-65945935D01*
X131372408Y-65946225D01*
X131453775Y-66027592D01*
X131453777Y-66027595D01*
X131517711Y-66123278D01*
X131561749Y-66229596D01*
X131584199Y-66342462D01*
X131584199Y-66457540D01*
X131561749Y-66570406D01*
X131517711Y-66676724D01*
X131454065Y-66771976D01*
X131453775Y-66772410D01*
X131372408Y-66853777D01*
X131372405Y-66853779D01*
X131276722Y-66917713D01*
X131170404Y-66961751D01*
X131085755Y-66978588D01*
X131057539Y-66984201D01*
X130942459Y-66984201D01*
X130914243Y-66978588D01*
X130829594Y-66961751D01*
X130723276Y-66917713D01*
X130627593Y-66853779D01*
X130627590Y-66853777D01*
X130546223Y-66772410D01*
X130545933Y-66771976D01*
X130482287Y-66676724D01*
X130438249Y-66570406D01*
X130415799Y-66457540D01*
X130415799Y-66342462D01*
X130438249Y-66229596D01*
X130482287Y-66123278D01*
X130546221Y-66027595D01*
X130546223Y-66027592D01*
X130627590Y-65946225D01*
X130628024Y-65945935D01*
X130723276Y-65882289D01*
X130829594Y-65838251D01*
X130914243Y-65821414D01*
X130942459Y-65815801D01*
X131057539Y-65815801D01*
X131085755Y-65821414D01*
X131085755Y-65821414D01*
G37*
G36*
X133085756Y-65821414D02*
X133170405Y-65838251D01*
X133276723Y-65882289D01*
X133371975Y-65945935D01*
X133372409Y-65946225D01*
X133453776Y-66027592D01*
X133453778Y-66027595D01*
X133517712Y-66123278D01*
X133561750Y-66229596D01*
X133584200Y-66342462D01*
X133584200Y-66457540D01*
X133561750Y-66570406D01*
X133517712Y-66676724D01*
X133454066Y-66771976D01*
X133453776Y-66772410D01*
X133372409Y-66853777D01*
X133372406Y-66853779D01*
X133276723Y-66917713D01*
X133170405Y-66961751D01*
X133085756Y-66978588D01*
X133057540Y-66984201D01*
X132942460Y-66984201D01*
X132914244Y-66978588D01*
X132829595Y-66961751D01*
X132723277Y-66917713D01*
X132627594Y-66853779D01*
X132627591Y-66853777D01*
X132546224Y-66772410D01*
X132545934Y-66771976D01*
X132482288Y-66676724D01*
X132438250Y-66570406D01*
X132415800Y-66457540D01*
X132415800Y-66342462D01*
X132438250Y-66229596D01*
X132482288Y-66123278D01*
X132546222Y-66027595D01*
X132546224Y-66027592D01*
X132627591Y-65946225D01*
X132628025Y-65945935D01*
X132723277Y-65882289D01*
X132829595Y-65838251D01*
X132914244Y-65821414D01*
X132942460Y-65815801D01*
X133057540Y-65815801D01*
X133085756Y-65821414D01*
X133085756Y-65821414D01*
G37*
G36*
X147310757Y-65821414D02*
X147395406Y-65838251D01*
X147501724Y-65882289D01*
X147596976Y-65945935D01*
X147597410Y-65946225D01*
X147678777Y-66027592D01*
X147678779Y-66027595D01*
X147742713Y-66123278D01*
X147786751Y-66229596D01*
X147809201Y-66342462D01*
X147809201Y-66457540D01*
X147786751Y-66570406D01*
X147742713Y-66676724D01*
X147679067Y-66771976D01*
X147678777Y-66772410D01*
X147597410Y-66853777D01*
X147597407Y-66853779D01*
X147501724Y-66917713D01*
X147395406Y-66961751D01*
X147310757Y-66978588D01*
X147282541Y-66984201D01*
X147167461Y-66984201D01*
X147139245Y-66978588D01*
X147054596Y-66961751D01*
X146948278Y-66917713D01*
X146852595Y-66853779D01*
X146852592Y-66853777D01*
X146771225Y-66772410D01*
X146770935Y-66771976D01*
X146707289Y-66676724D01*
X146663251Y-66570406D01*
X146640801Y-66457540D01*
X146640801Y-66342462D01*
X146663251Y-66229596D01*
X146707289Y-66123278D01*
X146771223Y-66027595D01*
X146771225Y-66027592D01*
X146852592Y-65946225D01*
X146853026Y-65945935D01*
X146948278Y-65882289D01*
X147054596Y-65838251D01*
X147139245Y-65821414D01*
X147167461Y-65815801D01*
X147282541Y-65815801D01*
X147310757Y-65821414D01*
X147310757Y-65821414D01*
G37*
G36*
X135085757Y-65821414D02*
X135170406Y-65838251D01*
X135276724Y-65882289D01*
X135371976Y-65945935D01*
X135372410Y-65946225D01*
X135453777Y-66027592D01*
X135453779Y-66027595D01*
X135517713Y-66123278D01*
X135561751Y-66229596D01*
X135584201Y-66342462D01*
X135584201Y-66457540D01*
X135561751Y-66570406D01*
X135517713Y-66676724D01*
X135454067Y-66771976D01*
X135453777Y-66772410D01*
X135372410Y-66853777D01*
X135372407Y-66853779D01*
X135276724Y-66917713D01*
X135170406Y-66961751D01*
X135085757Y-66978588D01*
X135057541Y-66984201D01*
X134942461Y-66984201D01*
X134914245Y-66978588D01*
X134829596Y-66961751D01*
X134723278Y-66917713D01*
X134627595Y-66853779D01*
X134627592Y-66853777D01*
X134546225Y-66772410D01*
X134545935Y-66771976D01*
X134482289Y-66676724D01*
X134438251Y-66570406D01*
X134415801Y-66457540D01*
X134415801Y-66342462D01*
X134438251Y-66229596D01*
X134482289Y-66123278D01*
X134546223Y-66027595D01*
X134546225Y-66027592D01*
X134627592Y-65946225D01*
X134628026Y-65945935D01*
X134723278Y-65882289D01*
X134829596Y-65838251D01*
X134914245Y-65821414D01*
X134942461Y-65815801D01*
X135057541Y-65815801D01*
X135085757Y-65821414D01*
X135085757Y-65821414D01*
G37*
G36*
X145310756Y-65821414D02*
X145395405Y-65838251D01*
X145501723Y-65882289D01*
X145596975Y-65945935D01*
X145597409Y-65946225D01*
X145678776Y-66027592D01*
X145678778Y-66027595D01*
X145742712Y-66123278D01*
X145786750Y-66229596D01*
X145809200Y-66342462D01*
X145809200Y-66457540D01*
X145786750Y-66570406D01*
X145742712Y-66676724D01*
X145679066Y-66771976D01*
X145678776Y-66772410D01*
X145597409Y-66853777D01*
X145597406Y-66853779D01*
X145501723Y-66917713D01*
X145395405Y-66961751D01*
X145310756Y-66978588D01*
X145282540Y-66984201D01*
X145167460Y-66984201D01*
X145139244Y-66978588D01*
X145054595Y-66961751D01*
X144948277Y-66917713D01*
X144852594Y-66853779D01*
X144852591Y-66853777D01*
X144771224Y-66772410D01*
X144770934Y-66771976D01*
X144707288Y-66676724D01*
X144663250Y-66570406D01*
X144640800Y-66457540D01*
X144640800Y-66342462D01*
X144663250Y-66229596D01*
X144707288Y-66123278D01*
X144771222Y-66027595D01*
X144771224Y-66027592D01*
X144852591Y-65946225D01*
X144853025Y-65945935D01*
X144948277Y-65882289D01*
X145054595Y-65838251D01*
X145139244Y-65821414D01*
X145167460Y-65815801D01*
X145282540Y-65815801D01*
X145310756Y-65821414D01*
X145310756Y-65821414D01*
G37*
G36*
X129085756Y-65821414D02*
X129170405Y-65838251D01*
X129276723Y-65882289D01*
X129371975Y-65945935D01*
X129372409Y-65946225D01*
X129453776Y-66027592D01*
X129453778Y-66027595D01*
X129517712Y-66123278D01*
X129561750Y-66229596D01*
X129584200Y-66342462D01*
X129584200Y-66457540D01*
X129561750Y-66570406D01*
X129517712Y-66676724D01*
X129454066Y-66771976D01*
X129453776Y-66772410D01*
X129372409Y-66853777D01*
X129372406Y-66853779D01*
X129276723Y-66917713D01*
X129170405Y-66961751D01*
X129085756Y-66978588D01*
X129057540Y-66984201D01*
X128942460Y-66984201D01*
X128914244Y-66978588D01*
X128829595Y-66961751D01*
X128723277Y-66917713D01*
X128627594Y-66853779D01*
X128627591Y-66853777D01*
X128546224Y-66772410D01*
X128545934Y-66771976D01*
X128482288Y-66676724D01*
X128438250Y-66570406D01*
X128415800Y-66457540D01*
X128415800Y-66342462D01*
X128438250Y-66229596D01*
X128482288Y-66123278D01*
X128546222Y-66027595D01*
X128546224Y-66027592D01*
X128627591Y-65946225D01*
X128628025Y-65945935D01*
X128723277Y-65882289D01*
X128829595Y-65838251D01*
X128914244Y-65821414D01*
X128942460Y-65815801D01*
X129057540Y-65815801D01*
X129085756Y-65821414D01*
X129085756Y-65821414D01*
G37*
G36*
X141310756Y-65821414D02*
X141395405Y-65838251D01*
X141501723Y-65882289D01*
X141596975Y-65945935D01*
X141597409Y-65946225D01*
X141678776Y-66027592D01*
X141678778Y-66027595D01*
X141742712Y-66123278D01*
X141786750Y-66229596D01*
X141809200Y-66342462D01*
X141809200Y-66457540D01*
X141786750Y-66570406D01*
X141742712Y-66676724D01*
X141679066Y-66771976D01*
X141678776Y-66772410D01*
X141597409Y-66853777D01*
X141597406Y-66853779D01*
X141501723Y-66917713D01*
X141395405Y-66961751D01*
X141310756Y-66978588D01*
X141282540Y-66984201D01*
X141167460Y-66984201D01*
X141139244Y-66978588D01*
X141054595Y-66961751D01*
X140948277Y-66917713D01*
X140852594Y-66853779D01*
X140852591Y-66853777D01*
X140771224Y-66772410D01*
X140770934Y-66771976D01*
X140707288Y-66676724D01*
X140663250Y-66570406D01*
X140640800Y-66457540D01*
X140640800Y-66342462D01*
X140663250Y-66229596D01*
X140707288Y-66123278D01*
X140771222Y-66027595D01*
X140771224Y-66027592D01*
X140852591Y-65946225D01*
X140853025Y-65945935D01*
X140948277Y-65882289D01*
X141054595Y-65838251D01*
X141139244Y-65821414D01*
X141167460Y-65815801D01*
X141282540Y-65815801D01*
X141310756Y-65821414D01*
X141310756Y-65821414D01*
G37*
G36*
X143310755Y-65821414D02*
X143395404Y-65838251D01*
X143501722Y-65882289D01*
X143596974Y-65945935D01*
X143597408Y-65946225D01*
X143678775Y-66027592D01*
X143678777Y-66027595D01*
X143742711Y-66123278D01*
X143786749Y-66229596D01*
X143809199Y-66342462D01*
X143809199Y-66457540D01*
X143786749Y-66570406D01*
X143742711Y-66676724D01*
X143679065Y-66771976D01*
X143678775Y-66772410D01*
X143597408Y-66853777D01*
X143597405Y-66853779D01*
X143501722Y-66917713D01*
X143395404Y-66961751D01*
X143310755Y-66978588D01*
X143282539Y-66984201D01*
X143167459Y-66984201D01*
X143139243Y-66978588D01*
X143054594Y-66961751D01*
X142948276Y-66917713D01*
X142852593Y-66853779D01*
X142852590Y-66853777D01*
X142771223Y-66772410D01*
X142770933Y-66771976D01*
X142707287Y-66676724D01*
X142663249Y-66570406D01*
X142640799Y-66457540D01*
X142640799Y-66342462D01*
X142663249Y-66229596D01*
X142707287Y-66123278D01*
X142771221Y-66027595D01*
X142771223Y-66027592D01*
X142852590Y-65946225D01*
X142853024Y-65945935D01*
X142948276Y-65882289D01*
X143054594Y-65838251D01*
X143139243Y-65821414D01*
X143167459Y-65815801D01*
X143282539Y-65815801D01*
X143310755Y-65821414D01*
X143310755Y-65821414D01*
G37*
G36*
X137085755Y-65821414D02*
X137170404Y-65838251D01*
X137276722Y-65882289D01*
X137371974Y-65945935D01*
X137372408Y-65946225D01*
X137453775Y-66027592D01*
X137453777Y-66027595D01*
X137517711Y-66123278D01*
X137561749Y-66229596D01*
X137584199Y-66342462D01*
X137584199Y-66457540D01*
X137561749Y-66570406D01*
X137517711Y-66676724D01*
X137454065Y-66771976D01*
X137453775Y-66772410D01*
X137372408Y-66853777D01*
X137372405Y-66853779D01*
X137276722Y-66917713D01*
X137170404Y-66961751D01*
X137085755Y-66978588D01*
X137057539Y-66984201D01*
X136942459Y-66984201D01*
X136914243Y-66978588D01*
X136829594Y-66961751D01*
X136723276Y-66917713D01*
X136627593Y-66853779D01*
X136627590Y-66853777D01*
X136546223Y-66772410D01*
X136545933Y-66771976D01*
X136482287Y-66676724D01*
X136438249Y-66570406D01*
X136415799Y-66457540D01*
X136415799Y-66342462D01*
X136438249Y-66229596D01*
X136482287Y-66123278D01*
X136546221Y-66027595D01*
X136546223Y-66027592D01*
X136627590Y-65946225D01*
X136628024Y-65945935D01*
X136723276Y-65882289D01*
X136829594Y-65838251D01*
X136914243Y-65821414D01*
X136942459Y-65815801D01*
X137057539Y-65815801D01*
X137085755Y-65821414D01*
X137085755Y-65821414D01*
G37*
G36*
X123334024Y-64353955D02*
X123366736Y-64363879D01*
X123396890Y-64379997D01*
X123423316Y-64401684D01*
X123445003Y-64428110D01*
X123461121Y-64458264D01*
X123471045Y-64490976D01*
X123475000Y-64531138D01*
X123475000Y-65218862D01*
X123471045Y-65259024D01*
X123461121Y-65291736D01*
X123445003Y-65321890D01*
X123423316Y-65348316D01*
X123396890Y-65370003D01*
X123366736Y-65386121D01*
X123334024Y-65396045D01*
X123293862Y-65400000D01*
X122706138Y-65400000D01*
X122665976Y-65396045D01*
X122633264Y-65386121D01*
X122603110Y-65370003D01*
X122576684Y-65348316D01*
X122554997Y-65321890D01*
X122538879Y-65291736D01*
X122528955Y-65259024D01*
X122525000Y-65218862D01*
X122525000Y-64531138D01*
X122528955Y-64490976D01*
X122538879Y-64458264D01*
X122554997Y-64428110D01*
X122576684Y-64401684D01*
X122603110Y-64379997D01*
X122633264Y-64363879D01*
X122665976Y-64353955D01*
X122706138Y-64350000D01*
X123293862Y-64350000D01*
X123334024Y-64353955D01*
X123334024Y-64353955D01*
G37*
G36*
X132085754Y-63821412D02*
X132170404Y-63838250D01*
X132276722Y-63882288D01*
X132371974Y-63945934D01*
X132372408Y-63946224D01*
X132453775Y-64027591D01*
X132453777Y-64027594D01*
X132517711Y-64123277D01*
X132561749Y-64229595D01*
X132584199Y-64342461D01*
X132584199Y-64457539D01*
X132561749Y-64570405D01*
X132517711Y-64676723D01*
X132454065Y-64771975D01*
X132453775Y-64772409D01*
X132372408Y-64853776D01*
X132372405Y-64853778D01*
X132276722Y-64917712D01*
X132170404Y-64961750D01*
X132085755Y-64978587D01*
X132057539Y-64984200D01*
X131942459Y-64984200D01*
X131914243Y-64978587D01*
X131829594Y-64961750D01*
X131723276Y-64917712D01*
X131627593Y-64853778D01*
X131627590Y-64853776D01*
X131546223Y-64772409D01*
X131545933Y-64771975D01*
X131482287Y-64676723D01*
X131438249Y-64570405D01*
X131415799Y-64457539D01*
X131415799Y-64342461D01*
X131438249Y-64229595D01*
X131482287Y-64123277D01*
X131546221Y-64027594D01*
X131546223Y-64027591D01*
X131627590Y-63946224D01*
X131628024Y-63945934D01*
X131723276Y-63882288D01*
X131829594Y-63838250D01*
X131914244Y-63821412D01*
X131942459Y-63815800D01*
X132057539Y-63815800D01*
X132085754Y-63821412D01*
X132085754Y-63821412D01*
G37*
G36*
X134085755Y-63821412D02*
X134170405Y-63838250D01*
X134276723Y-63882288D01*
X134371975Y-63945934D01*
X134372409Y-63946224D01*
X134453776Y-64027591D01*
X134453778Y-64027594D01*
X134517712Y-64123277D01*
X134561750Y-64229595D01*
X134584200Y-64342461D01*
X134584200Y-64457539D01*
X134561750Y-64570405D01*
X134517712Y-64676723D01*
X134454066Y-64771975D01*
X134453776Y-64772409D01*
X134372409Y-64853776D01*
X134372406Y-64853778D01*
X134276723Y-64917712D01*
X134170405Y-64961750D01*
X134085756Y-64978587D01*
X134057540Y-64984200D01*
X133942460Y-64984200D01*
X133914244Y-64978587D01*
X133829595Y-64961750D01*
X133723277Y-64917712D01*
X133627594Y-64853778D01*
X133627591Y-64853776D01*
X133546224Y-64772409D01*
X133545934Y-64771975D01*
X133482288Y-64676723D01*
X133438250Y-64570405D01*
X133415800Y-64457539D01*
X133415800Y-64342461D01*
X133438250Y-64229595D01*
X133482288Y-64123277D01*
X133546222Y-64027594D01*
X133546224Y-64027591D01*
X133627591Y-63946224D01*
X133628025Y-63945934D01*
X133723277Y-63882288D01*
X133829595Y-63838250D01*
X133914245Y-63821412D01*
X133942460Y-63815800D01*
X134057540Y-63815800D01*
X134085755Y-63821412D01*
X134085755Y-63821412D01*
G37*
G36*
X136085754Y-63821412D02*
X136170404Y-63838250D01*
X136276722Y-63882288D01*
X136371974Y-63945934D01*
X136372408Y-63946224D01*
X136453775Y-64027591D01*
X136453777Y-64027594D01*
X136517711Y-64123277D01*
X136561749Y-64229595D01*
X136584199Y-64342461D01*
X136584199Y-64457539D01*
X136561749Y-64570405D01*
X136517711Y-64676723D01*
X136454065Y-64771975D01*
X136453775Y-64772409D01*
X136372408Y-64853776D01*
X136372405Y-64853778D01*
X136276722Y-64917712D01*
X136170404Y-64961750D01*
X136085755Y-64978587D01*
X136057539Y-64984200D01*
X135942459Y-64984200D01*
X135914243Y-64978587D01*
X135829594Y-64961750D01*
X135723276Y-64917712D01*
X135627593Y-64853778D01*
X135627590Y-64853776D01*
X135546223Y-64772409D01*
X135545933Y-64771975D01*
X135482287Y-64676723D01*
X135438249Y-64570405D01*
X135415799Y-64457539D01*
X135415799Y-64342461D01*
X135438249Y-64229595D01*
X135482287Y-64123277D01*
X135546221Y-64027594D01*
X135546223Y-64027591D01*
X135627590Y-63946224D01*
X135628024Y-63945934D01*
X135723276Y-63882288D01*
X135829594Y-63838250D01*
X135914244Y-63821412D01*
X135942459Y-63815800D01*
X136057539Y-63815800D01*
X136085754Y-63821412D01*
X136085754Y-63821412D01*
G37*
G36*
X130085756Y-63821412D02*
X130170406Y-63838250D01*
X130276724Y-63882288D01*
X130371976Y-63945934D01*
X130372410Y-63946224D01*
X130453777Y-64027591D01*
X130453779Y-64027594D01*
X130517713Y-64123277D01*
X130561751Y-64229595D01*
X130584201Y-64342461D01*
X130584201Y-64457539D01*
X130561751Y-64570405D01*
X130517713Y-64676723D01*
X130454067Y-64771975D01*
X130453777Y-64772409D01*
X130372410Y-64853776D01*
X130372407Y-64853778D01*
X130276724Y-64917712D01*
X130170406Y-64961750D01*
X130085757Y-64978587D01*
X130057541Y-64984200D01*
X129942461Y-64984200D01*
X129914245Y-64978587D01*
X129829596Y-64961750D01*
X129723278Y-64917712D01*
X129627595Y-64853778D01*
X129627592Y-64853776D01*
X129546225Y-64772409D01*
X129545935Y-64771975D01*
X129482289Y-64676723D01*
X129438251Y-64570405D01*
X129415801Y-64457539D01*
X129415801Y-64342461D01*
X129438251Y-64229595D01*
X129482289Y-64123277D01*
X129546223Y-64027594D01*
X129546225Y-64027591D01*
X129627592Y-63946224D01*
X129628026Y-63945934D01*
X129723278Y-63882288D01*
X129829596Y-63838250D01*
X129914246Y-63821412D01*
X129942461Y-63815800D01*
X130057541Y-63815800D01*
X130085756Y-63821412D01*
X130085756Y-63821412D01*
G37*
G36*
X138085755Y-63821412D02*
X138170405Y-63838250D01*
X138276723Y-63882288D01*
X138371975Y-63945934D01*
X138372409Y-63946224D01*
X138453776Y-64027591D01*
X138453778Y-64027594D01*
X138517712Y-64123277D01*
X138561750Y-64229595D01*
X138584200Y-64342461D01*
X138584200Y-64457539D01*
X138561750Y-64570405D01*
X138517712Y-64676723D01*
X138454066Y-64771975D01*
X138453776Y-64772409D01*
X138372409Y-64853776D01*
X138372406Y-64853778D01*
X138276723Y-64917712D01*
X138170405Y-64961750D01*
X138085756Y-64978587D01*
X138057540Y-64984200D01*
X137942460Y-64984200D01*
X137914244Y-64978587D01*
X137829595Y-64961750D01*
X137723277Y-64917712D01*
X137627594Y-64853778D01*
X137627591Y-64853776D01*
X137546224Y-64772409D01*
X137545934Y-64771975D01*
X137482288Y-64676723D01*
X137438250Y-64570405D01*
X137415800Y-64457539D01*
X137415800Y-64342461D01*
X137438250Y-64229595D01*
X137482288Y-64123277D01*
X137546222Y-64027594D01*
X137546224Y-64027591D01*
X137627591Y-63946224D01*
X137628025Y-63945934D01*
X137723277Y-63882288D01*
X137829595Y-63838250D01*
X137914245Y-63821412D01*
X137942460Y-63815800D01*
X138057540Y-63815800D01*
X138085755Y-63821412D01*
X138085755Y-63821412D01*
G37*
G36*
X142310756Y-63821412D02*
X142395406Y-63838250D01*
X142501724Y-63882288D01*
X142596976Y-63945934D01*
X142597410Y-63946224D01*
X142678777Y-64027591D01*
X142678779Y-64027594D01*
X142742713Y-64123277D01*
X142786751Y-64229595D01*
X142809201Y-64342461D01*
X142809201Y-64457539D01*
X142786751Y-64570405D01*
X142742713Y-64676723D01*
X142679067Y-64771975D01*
X142678777Y-64772409D01*
X142597410Y-64853776D01*
X142597407Y-64853778D01*
X142501724Y-64917712D01*
X142395406Y-64961750D01*
X142310757Y-64978587D01*
X142282541Y-64984200D01*
X142167461Y-64984200D01*
X142139245Y-64978587D01*
X142054596Y-64961750D01*
X141948278Y-64917712D01*
X141852595Y-64853778D01*
X141852592Y-64853776D01*
X141771225Y-64772409D01*
X141770935Y-64771975D01*
X141707289Y-64676723D01*
X141663251Y-64570405D01*
X141640801Y-64457539D01*
X141640801Y-64342461D01*
X141663251Y-64229595D01*
X141707289Y-64123277D01*
X141771223Y-64027594D01*
X141771225Y-64027591D01*
X141852592Y-63946224D01*
X141853026Y-63945934D01*
X141948278Y-63882288D01*
X142054596Y-63838250D01*
X142139246Y-63821412D01*
X142167461Y-63815800D01*
X142282541Y-63815800D01*
X142310756Y-63821412D01*
X142310756Y-63821412D01*
G37*
G36*
X128085754Y-63821412D02*
X128170404Y-63838250D01*
X128276722Y-63882288D01*
X128371974Y-63945934D01*
X128372408Y-63946224D01*
X128453775Y-64027591D01*
X128453777Y-64027594D01*
X128517711Y-64123277D01*
X128561749Y-64229595D01*
X128584199Y-64342461D01*
X128584199Y-64457539D01*
X128561749Y-64570405D01*
X128517711Y-64676723D01*
X128454065Y-64771975D01*
X128453775Y-64772409D01*
X128372408Y-64853776D01*
X128372405Y-64853778D01*
X128276722Y-64917712D01*
X128170404Y-64961750D01*
X128085755Y-64978587D01*
X128057539Y-64984200D01*
X127942459Y-64984200D01*
X127914243Y-64978587D01*
X127829594Y-64961750D01*
X127723276Y-64917712D01*
X127627593Y-64853778D01*
X127627590Y-64853776D01*
X127546223Y-64772409D01*
X127545933Y-64771975D01*
X127482287Y-64676723D01*
X127438249Y-64570405D01*
X127415799Y-64457539D01*
X127415799Y-64342461D01*
X127438249Y-64229595D01*
X127482287Y-64123277D01*
X127546221Y-64027594D01*
X127546223Y-64027591D01*
X127627590Y-63946224D01*
X127628024Y-63945934D01*
X127723276Y-63882288D01*
X127829594Y-63838250D01*
X127914244Y-63821412D01*
X127942459Y-63815800D01*
X128057539Y-63815800D01*
X128085754Y-63821412D01*
X128085754Y-63821412D01*
G37*
G36*
X144310754Y-63821412D02*
X144395404Y-63838250D01*
X144501722Y-63882288D01*
X144596974Y-63945934D01*
X144597408Y-63946224D01*
X144678775Y-64027591D01*
X144678777Y-64027594D01*
X144742711Y-64123277D01*
X144786749Y-64229595D01*
X144809199Y-64342461D01*
X144809199Y-64457539D01*
X144786749Y-64570405D01*
X144742711Y-64676723D01*
X144679065Y-64771975D01*
X144678775Y-64772409D01*
X144597408Y-64853776D01*
X144597405Y-64853778D01*
X144501722Y-64917712D01*
X144395404Y-64961750D01*
X144310755Y-64978587D01*
X144282539Y-64984200D01*
X144167459Y-64984200D01*
X144139243Y-64978587D01*
X144054594Y-64961750D01*
X143948276Y-64917712D01*
X143852593Y-64853778D01*
X143852590Y-64853776D01*
X143771223Y-64772409D01*
X143770933Y-64771975D01*
X143707287Y-64676723D01*
X143663249Y-64570405D01*
X143640799Y-64457539D01*
X143640799Y-64342461D01*
X143663249Y-64229595D01*
X143707287Y-64123277D01*
X143771221Y-64027594D01*
X143771223Y-64027591D01*
X143852590Y-63946224D01*
X143853024Y-63945934D01*
X143948276Y-63882288D01*
X144054594Y-63838250D01*
X144139244Y-63821412D01*
X144167459Y-63815800D01*
X144282539Y-63815800D01*
X144310754Y-63821412D01*
X144310754Y-63821412D01*
G37*
G36*
X146310756Y-63821412D02*
X146395406Y-63838250D01*
X146501724Y-63882288D01*
X146596976Y-63945934D01*
X146597410Y-63946224D01*
X146678777Y-64027591D01*
X146678779Y-64027594D01*
X146742713Y-64123277D01*
X146786751Y-64229595D01*
X146809201Y-64342461D01*
X146809201Y-64457539D01*
X146786751Y-64570405D01*
X146742713Y-64676723D01*
X146679067Y-64771975D01*
X146678777Y-64772409D01*
X146597410Y-64853776D01*
X146597407Y-64853778D01*
X146501724Y-64917712D01*
X146395406Y-64961750D01*
X146310757Y-64978587D01*
X146282541Y-64984200D01*
X146167461Y-64984200D01*
X146139245Y-64978587D01*
X146054596Y-64961750D01*
X145948278Y-64917712D01*
X145852595Y-64853778D01*
X145852592Y-64853776D01*
X145771225Y-64772409D01*
X145770935Y-64771975D01*
X145707289Y-64676723D01*
X145663251Y-64570405D01*
X145640801Y-64457539D01*
X145640801Y-64342461D01*
X145663251Y-64229595D01*
X145707289Y-64123277D01*
X145771223Y-64027594D01*
X145771225Y-64027591D01*
X145852592Y-63946224D01*
X145853026Y-63945934D01*
X145948278Y-63882288D01*
X146054596Y-63838250D01*
X146139246Y-63821412D01*
X146167461Y-63815800D01*
X146282541Y-63815800D01*
X146310756Y-63821412D01*
X146310756Y-63821412D01*
G37*
G36*
X148939523Y-62676722D02*
X149014858Y-62691707D01*
X149081885Y-62719471D01*
X149148912Y-62747234D01*
X149269556Y-62827846D01*
X149372154Y-62930444D01*
X149452766Y-63051088D01*
X149452766Y-63051089D01*
X149508293Y-63185142D01*
X149536600Y-63327451D01*
X149536600Y-63472549D01*
X149508293Y-63614858D01*
X149480529Y-63681885D01*
X149452766Y-63748912D01*
X149372154Y-63869556D01*
X149269556Y-63972154D01*
X149148912Y-64052766D01*
X149081884Y-64080530D01*
X149014858Y-64108293D01*
X148943704Y-64122446D01*
X148872550Y-64136600D01*
X148727450Y-64136600D01*
X148656296Y-64122446D01*
X148585142Y-64108293D01*
X148518116Y-64080530D01*
X148451088Y-64052766D01*
X148330444Y-63972154D01*
X148227846Y-63869556D01*
X148147234Y-63748912D01*
X148119471Y-63681885D01*
X148091707Y-63614858D01*
X148063400Y-63472549D01*
X148063400Y-63327451D01*
X148091707Y-63185142D01*
X148147234Y-63051089D01*
X148147234Y-63051088D01*
X148227846Y-62930444D01*
X148330444Y-62827846D01*
X148451088Y-62747234D01*
X148518115Y-62719471D01*
X148585142Y-62691707D01*
X148660477Y-62676722D01*
X148727450Y-62663400D01*
X148872550Y-62663400D01*
X148939523Y-62676722D01*
X148939523Y-62676722D01*
G37*
G36*
X139789523Y-62676722D02*
X139864858Y-62691707D01*
X139931885Y-62719471D01*
X139998912Y-62747234D01*
X140119556Y-62827846D01*
X140222154Y-62930444D01*
X140302766Y-63051088D01*
X140302766Y-63051089D01*
X140358293Y-63185142D01*
X140386600Y-63327451D01*
X140386600Y-63472549D01*
X140358293Y-63614858D01*
X140330529Y-63681885D01*
X140302766Y-63748912D01*
X140222154Y-63869556D01*
X140119556Y-63972154D01*
X139998912Y-64052766D01*
X139931884Y-64080530D01*
X139864858Y-64108293D01*
X139793704Y-64122446D01*
X139722550Y-64136600D01*
X139577450Y-64136600D01*
X139506296Y-64122446D01*
X139435142Y-64108293D01*
X139368116Y-64080530D01*
X139301088Y-64052766D01*
X139180444Y-63972154D01*
X139077846Y-63869556D01*
X138997234Y-63748912D01*
X138969471Y-63681885D01*
X138941707Y-63614858D01*
X138913400Y-63472549D01*
X138913400Y-63327451D01*
X138941707Y-63185142D01*
X138997234Y-63051089D01*
X138997234Y-63051088D01*
X139077846Y-62930444D01*
X139180444Y-62827846D01*
X139301088Y-62747234D01*
X139368115Y-62719471D01*
X139435142Y-62691707D01*
X139510477Y-62676722D01*
X139577450Y-62663400D01*
X139722550Y-62663400D01*
X139789523Y-62676722D01*
X139789523Y-62676722D01*
G37*
G36*
X123334024Y-62603955D02*
X123366736Y-62613879D01*
X123396890Y-62629997D01*
X123423316Y-62651684D01*
X123445003Y-62678110D01*
X123461121Y-62708264D01*
X123471045Y-62740976D01*
X123475000Y-62781138D01*
X123475000Y-63468862D01*
X123471045Y-63509024D01*
X123461121Y-63541736D01*
X123445003Y-63571890D01*
X123423316Y-63598316D01*
X123396890Y-63620003D01*
X123366736Y-63636121D01*
X123334024Y-63646045D01*
X123293862Y-63650000D01*
X122706138Y-63650000D01*
X122665976Y-63646045D01*
X122633264Y-63636121D01*
X122603110Y-63620003D01*
X122576684Y-63598316D01*
X122554997Y-63571890D01*
X122538879Y-63541736D01*
X122528955Y-63509024D01*
X122525000Y-63468862D01*
X122525000Y-62781138D01*
X122528955Y-62740976D01*
X122538879Y-62708264D01*
X122554997Y-62678110D01*
X122576684Y-62651684D01*
X122603110Y-62629997D01*
X122633264Y-62613879D01*
X122665976Y-62603955D01*
X122706138Y-62600000D01*
X123293862Y-62600000D01*
X123334024Y-62603955D01*
X123334024Y-62603955D01*
G37*
G36*
X120250000Y-63250000D02*
X117750000Y-63250000D01*
X117750000Y-60750000D01*
X120250000Y-60750000D01*
X120250000Y-63250000D01*
X120250000Y-63250000D01*
G37*
G36*
X128085756Y-61821412D02*
X128170405Y-61838249D01*
X128276723Y-61882287D01*
X128371975Y-61945933D01*
X128372409Y-61946223D01*
X128453776Y-62027590D01*
X128453778Y-62027593D01*
X128517712Y-62123276D01*
X128561750Y-62229594D01*
X128584200Y-62342460D01*
X128584200Y-62457538D01*
X128561750Y-62570404D01*
X128517712Y-62676722D01*
X128474778Y-62740976D01*
X128453776Y-62772408D01*
X128372409Y-62853775D01*
X128372406Y-62853777D01*
X128276723Y-62917711D01*
X128170405Y-62961749D01*
X128085756Y-62978586D01*
X128057540Y-62984199D01*
X127942460Y-62984199D01*
X127914244Y-62978586D01*
X127829595Y-62961749D01*
X127723277Y-62917711D01*
X127627594Y-62853777D01*
X127627591Y-62853775D01*
X127546224Y-62772408D01*
X127525222Y-62740976D01*
X127482288Y-62676722D01*
X127438250Y-62570404D01*
X127415800Y-62457538D01*
X127415800Y-62342460D01*
X127438250Y-62229594D01*
X127482288Y-62123276D01*
X127546222Y-62027593D01*
X127546224Y-62027590D01*
X127627591Y-61946223D01*
X127628025Y-61945933D01*
X127723277Y-61882287D01*
X127829595Y-61838249D01*
X127914244Y-61821412D01*
X127942460Y-61815799D01*
X128057540Y-61815799D01*
X128085756Y-61821412D01*
X128085756Y-61821412D01*
G37*
G36*
X136085755Y-61821412D02*
X136170404Y-61838249D01*
X136276722Y-61882287D01*
X136371974Y-61945933D01*
X136372408Y-61946223D01*
X136453775Y-62027590D01*
X136453777Y-62027593D01*
X136517711Y-62123276D01*
X136561749Y-62229594D01*
X136584199Y-62342460D01*
X136584199Y-62457538D01*
X136561749Y-62570404D01*
X136517711Y-62676722D01*
X136474777Y-62740976D01*
X136453775Y-62772408D01*
X136372408Y-62853775D01*
X136372405Y-62853777D01*
X136276722Y-62917711D01*
X136170404Y-62961749D01*
X136085755Y-62978586D01*
X136057539Y-62984199D01*
X135942459Y-62984199D01*
X135914243Y-62978586D01*
X135829594Y-62961749D01*
X135723276Y-62917711D01*
X135627593Y-62853777D01*
X135627590Y-62853775D01*
X135546223Y-62772408D01*
X135525221Y-62740976D01*
X135482287Y-62676722D01*
X135438249Y-62570404D01*
X135415799Y-62457538D01*
X135415799Y-62342460D01*
X135438249Y-62229594D01*
X135482287Y-62123276D01*
X135546221Y-62027593D01*
X135546223Y-62027590D01*
X135627590Y-61946223D01*
X135628024Y-61945933D01*
X135723276Y-61882287D01*
X135829594Y-61838249D01*
X135914243Y-61821412D01*
X135942459Y-61815799D01*
X136057539Y-61815799D01*
X136085755Y-61821412D01*
X136085755Y-61821412D01*
G37*
G36*
X138085756Y-61821412D02*
X138170405Y-61838249D01*
X138276723Y-61882287D01*
X138371975Y-61945933D01*
X138372409Y-61946223D01*
X138453776Y-62027590D01*
X138453778Y-62027593D01*
X138517712Y-62123276D01*
X138561750Y-62229594D01*
X138584200Y-62342460D01*
X138584200Y-62457538D01*
X138561750Y-62570404D01*
X138517712Y-62676722D01*
X138474778Y-62740976D01*
X138453776Y-62772408D01*
X138372409Y-62853775D01*
X138372406Y-62853777D01*
X138276723Y-62917711D01*
X138170405Y-62961749D01*
X138085756Y-62978586D01*
X138057540Y-62984199D01*
X137942460Y-62984199D01*
X137914244Y-62978586D01*
X137829595Y-62961749D01*
X137723277Y-62917711D01*
X137627594Y-62853777D01*
X137627591Y-62853775D01*
X137546224Y-62772408D01*
X137525222Y-62740976D01*
X137482288Y-62676722D01*
X137438250Y-62570404D01*
X137415800Y-62457538D01*
X137415800Y-62342460D01*
X137438250Y-62229594D01*
X137482288Y-62123276D01*
X137546222Y-62027593D01*
X137546224Y-62027590D01*
X137627591Y-61946223D01*
X137628025Y-61945933D01*
X137723277Y-61882287D01*
X137829595Y-61838249D01*
X137914244Y-61821412D01*
X137942460Y-61815799D01*
X138057540Y-61815799D01*
X138085756Y-61821412D01*
X138085756Y-61821412D01*
G37*
G36*
X142310755Y-61821412D02*
X142395404Y-61838249D01*
X142501722Y-61882287D01*
X142596974Y-61945933D01*
X142597408Y-61946223D01*
X142678775Y-62027590D01*
X142678777Y-62027593D01*
X142742711Y-62123276D01*
X142786749Y-62229594D01*
X142809199Y-62342460D01*
X142809199Y-62457538D01*
X142786749Y-62570404D01*
X142742711Y-62676722D01*
X142699777Y-62740976D01*
X142678775Y-62772408D01*
X142597408Y-62853775D01*
X142597405Y-62853777D01*
X142501722Y-62917711D01*
X142395404Y-62961749D01*
X142310755Y-62978586D01*
X142282539Y-62984199D01*
X142167459Y-62984199D01*
X142139243Y-62978586D01*
X142054594Y-62961749D01*
X141948276Y-62917711D01*
X141852593Y-62853777D01*
X141852590Y-62853775D01*
X141771223Y-62772408D01*
X141750221Y-62740976D01*
X141707287Y-62676722D01*
X141663249Y-62570404D01*
X141640799Y-62457538D01*
X141640799Y-62342460D01*
X141663249Y-62229594D01*
X141707287Y-62123276D01*
X141771221Y-62027593D01*
X141771223Y-62027590D01*
X141852590Y-61946223D01*
X141853024Y-61945933D01*
X141948276Y-61882287D01*
X142054594Y-61838249D01*
X142139243Y-61821412D01*
X142167459Y-61815799D01*
X142282539Y-61815799D01*
X142310755Y-61821412D01*
X142310755Y-61821412D01*
G37*
G36*
X144310756Y-61821412D02*
X144395405Y-61838249D01*
X144501723Y-61882287D01*
X144596975Y-61945933D01*
X144597409Y-61946223D01*
X144678776Y-62027590D01*
X144678778Y-62027593D01*
X144742712Y-62123276D01*
X144786750Y-62229594D01*
X144809200Y-62342460D01*
X144809200Y-62457538D01*
X144786750Y-62570404D01*
X144742712Y-62676722D01*
X144699778Y-62740976D01*
X144678776Y-62772408D01*
X144597409Y-62853775D01*
X144597406Y-62853777D01*
X144501723Y-62917711D01*
X144395405Y-62961749D01*
X144310756Y-62978586D01*
X144282540Y-62984199D01*
X144167460Y-62984199D01*
X144139244Y-62978586D01*
X144054595Y-62961749D01*
X143948277Y-62917711D01*
X143852594Y-62853777D01*
X143852591Y-62853775D01*
X143771224Y-62772408D01*
X143750222Y-62740976D01*
X143707288Y-62676722D01*
X143663250Y-62570404D01*
X143640800Y-62457538D01*
X143640800Y-62342460D01*
X143663250Y-62229594D01*
X143707288Y-62123276D01*
X143771222Y-62027593D01*
X143771224Y-62027590D01*
X143852591Y-61946223D01*
X143853025Y-61945933D01*
X143948277Y-61882287D01*
X144054595Y-61838249D01*
X144139244Y-61821412D01*
X144167460Y-61815799D01*
X144282540Y-61815799D01*
X144310756Y-61821412D01*
X144310756Y-61821412D01*
G37*
G36*
X146310757Y-61821412D02*
X146395406Y-61838249D01*
X146501724Y-61882287D01*
X146596976Y-61945933D01*
X146597410Y-61946223D01*
X146678777Y-62027590D01*
X146678779Y-62027593D01*
X146742713Y-62123276D01*
X146786751Y-62229594D01*
X146809201Y-62342460D01*
X146809201Y-62457538D01*
X146786751Y-62570404D01*
X146742713Y-62676722D01*
X146699779Y-62740976D01*
X146678777Y-62772408D01*
X146597410Y-62853775D01*
X146597407Y-62853777D01*
X146501724Y-62917711D01*
X146395406Y-62961749D01*
X146310757Y-62978586D01*
X146282541Y-62984199D01*
X146167461Y-62984199D01*
X146139245Y-62978586D01*
X146054596Y-62961749D01*
X145948278Y-62917711D01*
X145852595Y-62853777D01*
X145852592Y-62853775D01*
X145771225Y-62772408D01*
X145750223Y-62740976D01*
X145707289Y-62676722D01*
X145663251Y-62570404D01*
X145640801Y-62457538D01*
X145640801Y-62342460D01*
X145663251Y-62229594D01*
X145707289Y-62123276D01*
X145771223Y-62027593D01*
X145771225Y-62027590D01*
X145852592Y-61946223D01*
X145853026Y-61945933D01*
X145948278Y-61882287D01*
X146054596Y-61838249D01*
X146139245Y-61821412D01*
X146167461Y-61815799D01*
X146282541Y-61815799D01*
X146310757Y-61821412D01*
X146310757Y-61821412D01*
G37*
G36*
X134085757Y-61821412D02*
X134170406Y-61838249D01*
X134276724Y-61882287D01*
X134371976Y-61945933D01*
X134372410Y-61946223D01*
X134453777Y-62027590D01*
X134453779Y-62027593D01*
X134517713Y-62123276D01*
X134561751Y-62229594D01*
X134584201Y-62342460D01*
X134584201Y-62457538D01*
X134561751Y-62570404D01*
X134517713Y-62676722D01*
X134474779Y-62740976D01*
X134453777Y-62772408D01*
X134372410Y-62853775D01*
X134372407Y-62853777D01*
X134276724Y-62917711D01*
X134170406Y-62961749D01*
X134085757Y-62978586D01*
X134057541Y-62984199D01*
X133942461Y-62984199D01*
X133914245Y-62978586D01*
X133829596Y-62961749D01*
X133723278Y-62917711D01*
X133627595Y-62853777D01*
X133627592Y-62853775D01*
X133546225Y-62772408D01*
X133525223Y-62740976D01*
X133482289Y-62676722D01*
X133438251Y-62570404D01*
X133415801Y-62457538D01*
X133415801Y-62342460D01*
X133438251Y-62229594D01*
X133482289Y-62123276D01*
X133546223Y-62027593D01*
X133546225Y-62027590D01*
X133627592Y-61946223D01*
X133628026Y-61945933D01*
X133723278Y-61882287D01*
X133829596Y-61838249D01*
X133914245Y-61821412D01*
X133942461Y-61815799D01*
X134057541Y-61815799D01*
X134085757Y-61821412D01*
X134085757Y-61821412D01*
G37*
G36*
X132085756Y-61821412D02*
X132170405Y-61838249D01*
X132276723Y-61882287D01*
X132371975Y-61945933D01*
X132372409Y-61946223D01*
X132453776Y-62027590D01*
X132453778Y-62027593D01*
X132517712Y-62123276D01*
X132561750Y-62229594D01*
X132584200Y-62342460D01*
X132584200Y-62457538D01*
X132561750Y-62570404D01*
X132517712Y-62676722D01*
X132474778Y-62740976D01*
X132453776Y-62772408D01*
X132372409Y-62853775D01*
X132372406Y-62853777D01*
X132276723Y-62917711D01*
X132170405Y-62961749D01*
X132085756Y-62978586D01*
X132057540Y-62984199D01*
X131942460Y-62984199D01*
X131914244Y-62978586D01*
X131829595Y-62961749D01*
X131723277Y-62917711D01*
X131627594Y-62853777D01*
X131627591Y-62853775D01*
X131546224Y-62772408D01*
X131525222Y-62740976D01*
X131482288Y-62676722D01*
X131438250Y-62570404D01*
X131415800Y-62457538D01*
X131415800Y-62342460D01*
X131438250Y-62229594D01*
X131482288Y-62123276D01*
X131546222Y-62027593D01*
X131546224Y-62027590D01*
X131627591Y-61946223D01*
X131628025Y-61945933D01*
X131723277Y-61882287D01*
X131829595Y-61838249D01*
X131914244Y-61821412D01*
X131942460Y-61815799D01*
X132057540Y-61815799D01*
X132085756Y-61821412D01*
X132085756Y-61821412D01*
G37*
G36*
X130085755Y-61821412D02*
X130170404Y-61838249D01*
X130276722Y-61882287D01*
X130371974Y-61945933D01*
X130372408Y-61946223D01*
X130453775Y-62027590D01*
X130453777Y-62027593D01*
X130517711Y-62123276D01*
X130561749Y-62229594D01*
X130584199Y-62342460D01*
X130584199Y-62457538D01*
X130561749Y-62570404D01*
X130517711Y-62676722D01*
X130474777Y-62740976D01*
X130453775Y-62772408D01*
X130372408Y-62853775D01*
X130372405Y-62853777D01*
X130276722Y-62917711D01*
X130170404Y-62961749D01*
X130085755Y-62978586D01*
X130057539Y-62984199D01*
X129942459Y-62984199D01*
X129914243Y-62978586D01*
X129829594Y-62961749D01*
X129723276Y-62917711D01*
X129627593Y-62853777D01*
X129627590Y-62853775D01*
X129546223Y-62772408D01*
X129525221Y-62740976D01*
X129482287Y-62676722D01*
X129438249Y-62570404D01*
X129415799Y-62457538D01*
X129415799Y-62342460D01*
X129438249Y-62229594D01*
X129482287Y-62123276D01*
X129546221Y-62027593D01*
X129546223Y-62027590D01*
X129627590Y-61946223D01*
X129628024Y-61945933D01*
X129723276Y-61882287D01*
X129829594Y-61838249D01*
X129914243Y-61821412D01*
X129942459Y-61815799D01*
X130057539Y-61815799D01*
X130085755Y-61821412D01*
X130085755Y-61821412D01*
G37*
G36*
X153509024Y-61528955D02*
X153541736Y-61538879D01*
X153571890Y-61554997D01*
X153598316Y-61576684D01*
X153620003Y-61603110D01*
X153636121Y-61633264D01*
X153646045Y-61665976D01*
X153650000Y-61706138D01*
X153650000Y-62293862D01*
X153646045Y-62334024D01*
X153636121Y-62366736D01*
X153620003Y-62396890D01*
X153598316Y-62423316D01*
X153571890Y-62445003D01*
X153541736Y-62461121D01*
X153509024Y-62471045D01*
X153468862Y-62475000D01*
X152781138Y-62475000D01*
X152740976Y-62471045D01*
X152708264Y-62461121D01*
X152678110Y-62445003D01*
X152651684Y-62423316D01*
X152629997Y-62396890D01*
X152613879Y-62366736D01*
X152603955Y-62334024D01*
X152600000Y-62293862D01*
X152600000Y-61706138D01*
X152603955Y-61665976D01*
X152613879Y-61633264D01*
X152629997Y-61603110D01*
X152651684Y-61576684D01*
X152678110Y-61554997D01*
X152708264Y-61538879D01*
X152740976Y-61528955D01*
X152781138Y-61525000D01*
X153468862Y-61525000D01*
X153509024Y-61528955D01*
X153509024Y-61528955D01*
G37*
G36*
X155259024Y-61528955D02*
X155291736Y-61538879D01*
X155321890Y-61554997D01*
X155348316Y-61576684D01*
X155370003Y-61603110D01*
X155386121Y-61633264D01*
X155396045Y-61665976D01*
X155400000Y-61706138D01*
X155400000Y-62293862D01*
X155396045Y-62334024D01*
X155386121Y-62366736D01*
X155370003Y-62396890D01*
X155348316Y-62423316D01*
X155321890Y-62445003D01*
X155291736Y-62461121D01*
X155259024Y-62471045D01*
X155218862Y-62475000D01*
X154531138Y-62475000D01*
X154490976Y-62471045D01*
X154458264Y-62461121D01*
X154428110Y-62445003D01*
X154401684Y-62423316D01*
X154379997Y-62396890D01*
X154363879Y-62366736D01*
X154353955Y-62334024D01*
X154350000Y-62293862D01*
X154350000Y-61706138D01*
X154353955Y-61665976D01*
X154363879Y-61633264D01*
X154379997Y-61603110D01*
X154401684Y-61576684D01*
X154428110Y-61554997D01*
X154458264Y-61538879D01*
X154490976Y-61528955D01*
X154531138Y-61525000D01*
X155218862Y-61525000D01*
X155259024Y-61528955D01*
X155259024Y-61528955D01*
G37*
G36*
X123400000Y-61150000D02*
X122600000Y-61150000D01*
X122600000Y-60350000D01*
X123400000Y-60350000D01*
X123400000Y-61150000D01*
X123400000Y-61150000D01*
G37*
G36*
X147310756Y-59821412D02*
X147395406Y-59838250D01*
X147501724Y-59882288D01*
X147596976Y-59945934D01*
X147597410Y-59946224D01*
X147678777Y-60027591D01*
X147678779Y-60027594D01*
X147742713Y-60123277D01*
X147786751Y-60229595D01*
X147809201Y-60342461D01*
X147809201Y-60457539D01*
X147786751Y-60570405D01*
X147742713Y-60676723D01*
X147693750Y-60750000D01*
X147678777Y-60772409D01*
X147597410Y-60853776D01*
X147597407Y-60853778D01*
X147501724Y-60917712D01*
X147395406Y-60961750D01*
X147310757Y-60978587D01*
X147282541Y-60984200D01*
X147167461Y-60984200D01*
X147139245Y-60978587D01*
X147054596Y-60961750D01*
X146948278Y-60917712D01*
X146852595Y-60853778D01*
X146852592Y-60853776D01*
X146771225Y-60772409D01*
X146756252Y-60750000D01*
X146707289Y-60676723D01*
X146663251Y-60570405D01*
X146640801Y-60457539D01*
X146640801Y-60342461D01*
X146663251Y-60229595D01*
X146707289Y-60123277D01*
X146771223Y-60027594D01*
X146771225Y-60027591D01*
X146852592Y-59946224D01*
X146853026Y-59945934D01*
X146948278Y-59882288D01*
X147054596Y-59838250D01*
X147139246Y-59821412D01*
X147167461Y-59815800D01*
X147282541Y-59815800D01*
X147310756Y-59821412D01*
X147310756Y-59821412D01*
G37*
G36*
X129085754Y-59821412D02*
X129170404Y-59838250D01*
X129276722Y-59882288D01*
X129371974Y-59945934D01*
X129372408Y-59946224D01*
X129453775Y-60027591D01*
X129453777Y-60027594D01*
X129517711Y-60123277D01*
X129561749Y-60229595D01*
X129584199Y-60342461D01*
X129584199Y-60457539D01*
X129561749Y-60570405D01*
X129517711Y-60676723D01*
X129468748Y-60750000D01*
X129453775Y-60772409D01*
X129372408Y-60853776D01*
X129372405Y-60853778D01*
X129276722Y-60917712D01*
X129170404Y-60961750D01*
X129085755Y-60978587D01*
X129057539Y-60984200D01*
X128942459Y-60984200D01*
X128914243Y-60978587D01*
X128829594Y-60961750D01*
X128723276Y-60917712D01*
X128627593Y-60853778D01*
X128627590Y-60853776D01*
X128546223Y-60772409D01*
X128531250Y-60750000D01*
X128482287Y-60676723D01*
X128438249Y-60570405D01*
X128415799Y-60457539D01*
X128415799Y-60342461D01*
X128438249Y-60229595D01*
X128482287Y-60123277D01*
X128546221Y-60027594D01*
X128546223Y-60027591D01*
X128627590Y-59946224D01*
X128628024Y-59945934D01*
X128723276Y-59882288D01*
X128829594Y-59838250D01*
X128914244Y-59821412D01*
X128942459Y-59815800D01*
X129057539Y-59815800D01*
X129085754Y-59821412D01*
X129085754Y-59821412D01*
G37*
G36*
X131085756Y-59821412D02*
X131170406Y-59838250D01*
X131276724Y-59882288D01*
X131371976Y-59945934D01*
X131372410Y-59946224D01*
X131453777Y-60027591D01*
X131453779Y-60027594D01*
X131517713Y-60123277D01*
X131561751Y-60229595D01*
X131584201Y-60342461D01*
X131584201Y-60457539D01*
X131561751Y-60570405D01*
X131517713Y-60676723D01*
X131468750Y-60750000D01*
X131453777Y-60772409D01*
X131372410Y-60853776D01*
X131372407Y-60853778D01*
X131276724Y-60917712D01*
X131170406Y-60961750D01*
X131085757Y-60978587D01*
X131057541Y-60984200D01*
X130942461Y-60984200D01*
X130914245Y-60978587D01*
X130829596Y-60961750D01*
X130723278Y-60917712D01*
X130627595Y-60853778D01*
X130627592Y-60853776D01*
X130546225Y-60772409D01*
X130531252Y-60750000D01*
X130482289Y-60676723D01*
X130438251Y-60570405D01*
X130415801Y-60457539D01*
X130415801Y-60342461D01*
X130438251Y-60229595D01*
X130482289Y-60123277D01*
X130546223Y-60027594D01*
X130546225Y-60027591D01*
X130627592Y-59946224D01*
X130628026Y-59945934D01*
X130723278Y-59882288D01*
X130829596Y-59838250D01*
X130914246Y-59821412D01*
X130942461Y-59815800D01*
X131057541Y-59815800D01*
X131085756Y-59821412D01*
X131085756Y-59821412D01*
G37*
G36*
X133085754Y-59821412D02*
X133170404Y-59838250D01*
X133276722Y-59882288D01*
X133371974Y-59945934D01*
X133372408Y-59946224D01*
X133453775Y-60027591D01*
X133453777Y-60027594D01*
X133517711Y-60123277D01*
X133561749Y-60229595D01*
X133584199Y-60342461D01*
X133584199Y-60457539D01*
X133561749Y-60570405D01*
X133517711Y-60676723D01*
X133468748Y-60750000D01*
X133453775Y-60772409D01*
X133372408Y-60853776D01*
X133372405Y-60853778D01*
X133276722Y-60917712D01*
X133170404Y-60961750D01*
X133085755Y-60978587D01*
X133057539Y-60984200D01*
X132942459Y-60984200D01*
X132914243Y-60978587D01*
X132829594Y-60961750D01*
X132723276Y-60917712D01*
X132627593Y-60853778D01*
X132627590Y-60853776D01*
X132546223Y-60772409D01*
X132531250Y-60750000D01*
X132482287Y-60676723D01*
X132438249Y-60570405D01*
X132415799Y-60457539D01*
X132415799Y-60342461D01*
X132438249Y-60229595D01*
X132482287Y-60123277D01*
X132546221Y-60027594D01*
X132546223Y-60027591D01*
X132627590Y-59946224D01*
X132628024Y-59945934D01*
X132723276Y-59882288D01*
X132829594Y-59838250D01*
X132914244Y-59821412D01*
X132942459Y-59815800D01*
X133057539Y-59815800D01*
X133085754Y-59821412D01*
X133085754Y-59821412D01*
G37*
G36*
X135085755Y-59821412D02*
X135170405Y-59838250D01*
X135276723Y-59882288D01*
X135371975Y-59945934D01*
X135372409Y-59946224D01*
X135453776Y-60027591D01*
X135453778Y-60027594D01*
X135517712Y-60123277D01*
X135561750Y-60229595D01*
X135584200Y-60342461D01*
X135584200Y-60457539D01*
X135561750Y-60570405D01*
X135517712Y-60676723D01*
X135468749Y-60750000D01*
X135453776Y-60772409D01*
X135372409Y-60853776D01*
X135372406Y-60853778D01*
X135276723Y-60917712D01*
X135170405Y-60961750D01*
X135085756Y-60978587D01*
X135057540Y-60984200D01*
X134942460Y-60984200D01*
X134914244Y-60978587D01*
X134829595Y-60961750D01*
X134723277Y-60917712D01*
X134627594Y-60853778D01*
X134627591Y-60853776D01*
X134546224Y-60772409D01*
X134531251Y-60750000D01*
X134482288Y-60676723D01*
X134438250Y-60570405D01*
X134415800Y-60457539D01*
X134415800Y-60342461D01*
X134438250Y-60229595D01*
X134482288Y-60123277D01*
X134546222Y-60027594D01*
X134546224Y-60027591D01*
X134627591Y-59946224D01*
X134628025Y-59945934D01*
X134723277Y-59882288D01*
X134829595Y-59838250D01*
X134914245Y-59821412D01*
X134942460Y-59815800D01*
X135057540Y-59815800D01*
X135085755Y-59821412D01*
X135085755Y-59821412D01*
G37*
G36*
X137085754Y-59821412D02*
X137170404Y-59838250D01*
X137276722Y-59882288D01*
X137371974Y-59945934D01*
X137372408Y-59946224D01*
X137453775Y-60027591D01*
X137453777Y-60027594D01*
X137517711Y-60123277D01*
X137561749Y-60229595D01*
X137584199Y-60342461D01*
X137584199Y-60457539D01*
X137561749Y-60570405D01*
X137517711Y-60676723D01*
X137468748Y-60750000D01*
X137453775Y-60772409D01*
X137372408Y-60853776D01*
X137372405Y-60853778D01*
X137276722Y-60917712D01*
X137170404Y-60961750D01*
X137085755Y-60978587D01*
X137057539Y-60984200D01*
X136942459Y-60984200D01*
X136914243Y-60978587D01*
X136829594Y-60961750D01*
X136723276Y-60917712D01*
X136627593Y-60853778D01*
X136627590Y-60853776D01*
X136546223Y-60772409D01*
X136531250Y-60750000D01*
X136482287Y-60676723D01*
X136438249Y-60570405D01*
X136415799Y-60457539D01*
X136415799Y-60342461D01*
X136438249Y-60229595D01*
X136482287Y-60123277D01*
X136546221Y-60027594D01*
X136546223Y-60027591D01*
X136627590Y-59946224D01*
X136628024Y-59945934D01*
X136723276Y-59882288D01*
X136829594Y-59838250D01*
X136914244Y-59821412D01*
X136942459Y-59815800D01*
X137057539Y-59815800D01*
X137085754Y-59821412D01*
X137085754Y-59821412D01*
G37*
G36*
X141310755Y-59821412D02*
X141395405Y-59838250D01*
X141501723Y-59882288D01*
X141596975Y-59945934D01*
X141597409Y-59946224D01*
X141678776Y-60027591D01*
X141678778Y-60027594D01*
X141742712Y-60123277D01*
X141786750Y-60229595D01*
X141809200Y-60342461D01*
X141809200Y-60457539D01*
X141786750Y-60570405D01*
X141742712Y-60676723D01*
X141693749Y-60750000D01*
X141678776Y-60772409D01*
X141597409Y-60853776D01*
X141597406Y-60853778D01*
X141501723Y-60917712D01*
X141395405Y-60961750D01*
X141310756Y-60978587D01*
X141282540Y-60984200D01*
X141167460Y-60984200D01*
X141139244Y-60978587D01*
X141054595Y-60961750D01*
X140948277Y-60917712D01*
X140852594Y-60853778D01*
X140852591Y-60853776D01*
X140771224Y-60772409D01*
X140756251Y-60750000D01*
X140707288Y-60676723D01*
X140663250Y-60570405D01*
X140640800Y-60457539D01*
X140640800Y-60342461D01*
X140663250Y-60229595D01*
X140707288Y-60123277D01*
X140771222Y-60027594D01*
X140771224Y-60027591D01*
X140852591Y-59946224D01*
X140853025Y-59945934D01*
X140948277Y-59882288D01*
X141054595Y-59838250D01*
X141139245Y-59821412D01*
X141167460Y-59815800D01*
X141282540Y-59815800D01*
X141310755Y-59821412D01*
X141310755Y-59821412D01*
G37*
G36*
X143310756Y-59821412D02*
X143395406Y-59838250D01*
X143501724Y-59882288D01*
X143596976Y-59945934D01*
X143597410Y-59946224D01*
X143678777Y-60027591D01*
X143678779Y-60027594D01*
X143742713Y-60123277D01*
X143786751Y-60229595D01*
X143809201Y-60342461D01*
X143809201Y-60457539D01*
X143786751Y-60570405D01*
X143742713Y-60676723D01*
X143693750Y-60750000D01*
X143678777Y-60772409D01*
X143597410Y-60853776D01*
X143597407Y-60853778D01*
X143501724Y-60917712D01*
X143395406Y-60961750D01*
X143310757Y-60978587D01*
X143282541Y-60984200D01*
X143167461Y-60984200D01*
X143139245Y-60978587D01*
X143054596Y-60961750D01*
X142948278Y-60917712D01*
X142852595Y-60853778D01*
X142852592Y-60853776D01*
X142771225Y-60772409D01*
X142756252Y-60750000D01*
X142707289Y-60676723D01*
X142663251Y-60570405D01*
X142640801Y-60457539D01*
X142640801Y-60342461D01*
X142663251Y-60229595D01*
X142707289Y-60123277D01*
X142771223Y-60027594D01*
X142771225Y-60027591D01*
X142852592Y-59946224D01*
X142853026Y-59945934D01*
X142948278Y-59882288D01*
X143054596Y-59838250D01*
X143139246Y-59821412D01*
X143167461Y-59815800D01*
X143282541Y-59815800D01*
X143310756Y-59821412D01*
X143310756Y-59821412D01*
G37*
G36*
X145310754Y-59821412D02*
X145395404Y-59838250D01*
X145501722Y-59882288D01*
X145596974Y-59945934D01*
X145597408Y-59946224D01*
X145678775Y-60027591D01*
X145678777Y-60027594D01*
X145742711Y-60123277D01*
X145786749Y-60229595D01*
X145809199Y-60342461D01*
X145809199Y-60457539D01*
X145786749Y-60570405D01*
X145742711Y-60676723D01*
X145693748Y-60750000D01*
X145678775Y-60772409D01*
X145597408Y-60853776D01*
X145597405Y-60853778D01*
X145501722Y-60917712D01*
X145395404Y-60961750D01*
X145310755Y-60978587D01*
X145282539Y-60984200D01*
X145167459Y-60984200D01*
X145139243Y-60978587D01*
X145054594Y-60961750D01*
X144948276Y-60917712D01*
X144852593Y-60853778D01*
X144852590Y-60853776D01*
X144771223Y-60772409D01*
X144756250Y-60750000D01*
X144707287Y-60676723D01*
X144663249Y-60570405D01*
X144640799Y-60457539D01*
X144640799Y-60342461D01*
X144663249Y-60229595D01*
X144707287Y-60123277D01*
X144771221Y-60027594D01*
X144771223Y-60027591D01*
X144852590Y-59946224D01*
X144853024Y-59945934D01*
X144948276Y-59882288D01*
X145054594Y-59838250D01*
X145139244Y-59821412D01*
X145167459Y-59815800D01*
X145282539Y-59815800D01*
X145310754Y-59821412D01*
X145310754Y-59821412D01*
G37*
G36*
X123400000Y-59650000D02*
X122600000Y-59650000D01*
X122600000Y-58850000D01*
X123400000Y-58850000D01*
X123400000Y-59650000D01*
X123400000Y-59650000D01*
G37*
G36*
X119364612Y-55798037D02*
X119592096Y-55892264D01*
X119796831Y-56029064D01*
X119970936Y-56203169D01*
X120107736Y-56407904D01*
X120201963Y-56635388D01*
X120250000Y-56876885D01*
X120250000Y-57123115D01*
X120201963Y-57364612D01*
X120107736Y-57592096D01*
X119970936Y-57796831D01*
X119796831Y-57970936D01*
X119592096Y-58107736D01*
X119364612Y-58201963D01*
X119123115Y-58250000D01*
X118876885Y-58250000D01*
X118635388Y-58201963D01*
X118407904Y-58107736D01*
X118203169Y-57970936D01*
X118029064Y-57796831D01*
X117892264Y-57592096D01*
X117798037Y-57364612D01*
X117750000Y-57123115D01*
X117750000Y-56876885D01*
X117798037Y-56635388D01*
X117892264Y-56407904D01*
X118029064Y-56203169D01*
X118203169Y-56029064D01*
X118407904Y-55892264D01*
X118635388Y-55798037D01*
X118876885Y-55750000D01*
X119123115Y-55750000D01*
X119364612Y-55798037D01*
X119364612Y-55798037D01*
G37*
G36*
X154466703Y-54461486D02*
X154757883Y-54582097D01*
X155019944Y-54757201D01*
X155242799Y-54980056D01*
X155417903Y-55242117D01*
X155538514Y-55533297D01*
X155600000Y-55842412D01*
X155600000Y-56157588D01*
X155538514Y-56466703D01*
X155417903Y-56757883D01*
X155242799Y-57019944D01*
X155019944Y-57242799D01*
X154757883Y-57417903D01*
X154466703Y-57538514D01*
X154157588Y-57600000D01*
X153842412Y-57600000D01*
X153533297Y-57538514D01*
X153242117Y-57417903D01*
X152980056Y-57242799D01*
X152757201Y-57019944D01*
X152582097Y-56757883D01*
X152461486Y-56466703D01*
X152400000Y-56157588D01*
X152400000Y-55842412D01*
X152461486Y-55533297D01*
X152582097Y-55242117D01*
X152757201Y-54980056D01*
X152980056Y-54757201D01*
X153242117Y-54582097D01*
X153533297Y-54461486D01*
X153842412Y-54400000D01*
X154157588Y-54400000D01*
X154466703Y-54461486D01*
X154466703Y-54461486D01*
G37*
M02*
