M48
;DRILL file {KiCad 5.0.2+dfsg1-1} date Thu 01 Jul 2021 12:07:30 AM CDT
;FORMAT={-:-/ absolute / inch / decimal}
FMAT,2
INCH,TZ
T1C0.0157
T2C0.0260
T3C0.0276
T4C0.0380
T5C0.0512
T6C0.1260
%
G90
G05
T1
X4.5276Y-2.6772
X4.5276Y-2.8346
X4.5669Y-2.6772
X4.5669Y-2.8346
X4.6063Y-2.6772
X4.6063Y-2.8346
X5.8661Y-2.6575
X5.9252Y-2.9528
X6.0433Y-2.5
X6.1024Y-2.5394
X6.1024Y-2.9921
T2
X5.0394Y-3.2559
X5.0394Y-3.1772
X5.0787Y-3.0984
X5.0787Y-3.3346
X5.1181Y-3.1772
X5.1181Y-3.2559
X5.1575Y-3.3346
X5.1575Y-3.0984
X5.1969Y-3.2559
X5.1969Y-3.1772
X5.2362Y-3.0984
X5.2362Y-3.3346
X5.2756Y-3.2559
X5.2756Y-3.1772
X5.315Y-3.0984
X5.315Y-3.3346
X5.3543Y-3.1772
X5.3543Y-3.2559
X5.3937Y-3.0984
X5.3937Y-3.3346
X5.4331Y-3.1772
X5.4331Y-3.2559
X5.56Y-3.0984
X5.56Y-3.3346
X5.5994Y-3.1772
X5.5994Y-3.2559
X5.6388Y-3.3346
X5.6388Y-3.0984
X5.6781Y-3.2559
X5.6781Y-3.1772
X5.7175Y-3.0984
X5.7175Y-3.3346
X5.7569Y-3.1772
X5.7569Y-3.2559
X5.7963Y-3.0984
X5.7963Y-3.3346
X5.0394Y-2.5354
X5.0394Y-2.4567
X5.0787Y-2.378
X5.0787Y-2.6142
X5.1181Y-2.4567
X5.1181Y-2.5354
X5.1575Y-2.6142
X5.1575Y-2.378
X5.1969Y-2.5354
X5.1969Y-2.4567
X5.2362Y-2.378
X5.2362Y-2.6142
X5.2756Y-2.5354
X5.2756Y-2.4567
X5.315Y-2.378
X5.315Y-2.6142
X5.3543Y-2.4567
X5.3543Y-2.5354
X5.3937Y-2.378
X5.3937Y-2.6142
X5.4331Y-2.4567
X5.4331Y-2.5354
X5.56Y-2.378
X5.56Y-2.6142
X5.5994Y-2.4567
X5.5994Y-2.5354
X5.6388Y-2.6142
X5.6388Y-2.378
X5.6781Y-2.5354
X5.6781Y-2.4567
X5.7175Y-2.378
X5.7175Y-2.6142
X5.7569Y-2.4567
X5.7569Y-2.5354
X5.7963Y-2.378
X5.7963Y-2.6142
T3
X6.0524Y-2.7165
X6.0524Y-2.7665
X6.0524Y-2.8165
X6.0524Y-2.8665
X6.0524Y-2.9165
X6.1024Y-2.7165
X6.1024Y-2.7665
X6.1024Y-2.8165
X6.1024Y-2.8665
X6.1024Y-2.9165
T4
X5.498Y-3.2165
X5.8583Y-3.2165
X5.498Y-2.4961
X5.8583Y-2.4961
T5
X4.685Y-2.2441
X4.685Y-2.4409
T6
X4.5669Y-3.2283
X6.063Y-2.2047
T0
M30
