G04 #@! TF.GenerationSoftware,KiCad,Pcbnew,5.0.2+dfsg1-1*
G04 #@! TF.CreationDate,2021-07-01T00:07:39-05:00*
G04 #@! TF.ProjectId,backplane,6261636b-706c-4616-9e65-2e6b69636164,rev?*
G04 #@! TF.SameCoordinates,Original*
G04 #@! TF.FileFunction,Paste,Bot*
G04 #@! TF.FilePolarity,Positive*
%FSLAX46Y46*%
G04 Gerber Fmt 4.6, Leading zero omitted, Abs format (unit mm)*
G04 Created by KiCad (PCBNEW 5.0.2+dfsg1-1) date Thu 01 Jul 2021 12:07:39 AM CDT*
%MOMM*%
%LPD*%
G01*
G04 APERTURE LIST*
%ADD10R,0.800000X0.800000*%
%ADD11C,0.100000*%
%ADD12C,0.950000*%
%ADD13C,1.600000*%
G04 APERTURE END LIST*
D10*
G04 #@! TO.C,D1*
X126750000Y-54000000D03*
X125250000Y-54000000D03*
G04 #@! TD*
D11*
G04 #@! TO.C,R1*
G36*
X130435779Y-53526144D02*
X130458834Y-53529563D01*
X130481443Y-53535227D01*
X130503387Y-53543079D01*
X130524457Y-53553044D01*
X130544448Y-53565026D01*
X130563168Y-53578910D01*
X130580438Y-53594562D01*
X130596090Y-53611832D01*
X130609974Y-53630552D01*
X130621956Y-53650543D01*
X130631921Y-53671613D01*
X130639773Y-53693557D01*
X130645437Y-53716166D01*
X130648856Y-53739221D01*
X130650000Y-53762500D01*
X130650000Y-54237500D01*
X130648856Y-54260779D01*
X130645437Y-54283834D01*
X130639773Y-54306443D01*
X130631921Y-54328387D01*
X130621956Y-54349457D01*
X130609974Y-54369448D01*
X130596090Y-54388168D01*
X130580438Y-54405438D01*
X130563168Y-54421090D01*
X130544448Y-54434974D01*
X130524457Y-54446956D01*
X130503387Y-54456921D01*
X130481443Y-54464773D01*
X130458834Y-54470437D01*
X130435779Y-54473856D01*
X130412500Y-54475000D01*
X129837500Y-54475000D01*
X129814221Y-54473856D01*
X129791166Y-54470437D01*
X129768557Y-54464773D01*
X129746613Y-54456921D01*
X129725543Y-54446956D01*
X129705552Y-54434974D01*
X129686832Y-54421090D01*
X129669562Y-54405438D01*
X129653910Y-54388168D01*
X129640026Y-54369448D01*
X129628044Y-54349457D01*
X129618079Y-54328387D01*
X129610227Y-54306443D01*
X129604563Y-54283834D01*
X129601144Y-54260779D01*
X129600000Y-54237500D01*
X129600000Y-53762500D01*
X129601144Y-53739221D01*
X129604563Y-53716166D01*
X129610227Y-53693557D01*
X129618079Y-53671613D01*
X129628044Y-53650543D01*
X129640026Y-53630552D01*
X129653910Y-53611832D01*
X129669562Y-53594562D01*
X129686832Y-53578910D01*
X129705552Y-53565026D01*
X129725543Y-53553044D01*
X129746613Y-53543079D01*
X129768557Y-53535227D01*
X129791166Y-53529563D01*
X129814221Y-53526144D01*
X129837500Y-53525000D01*
X130412500Y-53525000D01*
X130435779Y-53526144D01*
X130435779Y-53526144D01*
G37*
D12*
X130125000Y-54000000D03*
D11*
G36*
X132185779Y-53526144D02*
X132208834Y-53529563D01*
X132231443Y-53535227D01*
X132253387Y-53543079D01*
X132274457Y-53553044D01*
X132294448Y-53565026D01*
X132313168Y-53578910D01*
X132330438Y-53594562D01*
X132346090Y-53611832D01*
X132359974Y-53630552D01*
X132371956Y-53650543D01*
X132381921Y-53671613D01*
X132389773Y-53693557D01*
X132395437Y-53716166D01*
X132398856Y-53739221D01*
X132400000Y-53762500D01*
X132400000Y-54237500D01*
X132398856Y-54260779D01*
X132395437Y-54283834D01*
X132389773Y-54306443D01*
X132381921Y-54328387D01*
X132371956Y-54349457D01*
X132359974Y-54369448D01*
X132346090Y-54388168D01*
X132330438Y-54405438D01*
X132313168Y-54421090D01*
X132294448Y-54434974D01*
X132274457Y-54446956D01*
X132253387Y-54456921D01*
X132231443Y-54464773D01*
X132208834Y-54470437D01*
X132185779Y-54473856D01*
X132162500Y-54475000D01*
X131587500Y-54475000D01*
X131564221Y-54473856D01*
X131541166Y-54470437D01*
X131518557Y-54464773D01*
X131496613Y-54456921D01*
X131475543Y-54446956D01*
X131455552Y-54434974D01*
X131436832Y-54421090D01*
X131419562Y-54405438D01*
X131403910Y-54388168D01*
X131390026Y-54369448D01*
X131378044Y-54349457D01*
X131368079Y-54328387D01*
X131360227Y-54306443D01*
X131354563Y-54283834D01*
X131351144Y-54260779D01*
X131350000Y-54237500D01*
X131350000Y-53762500D01*
X131351144Y-53739221D01*
X131354563Y-53716166D01*
X131360227Y-53693557D01*
X131368079Y-53671613D01*
X131378044Y-53650543D01*
X131390026Y-53630552D01*
X131403910Y-53611832D01*
X131419562Y-53594562D01*
X131436832Y-53578910D01*
X131455552Y-53565026D01*
X131475543Y-53553044D01*
X131496613Y-53543079D01*
X131518557Y-53535227D01*
X131541166Y-53529563D01*
X131564221Y-53526144D01*
X131587500Y-53525000D01*
X132162500Y-53525000D01*
X132185779Y-53526144D01*
X132185779Y-53526144D01*
G37*
D12*
X131875000Y-54000000D03*
G04 #@! TD*
D11*
G04 #@! TO.C,C1*
G36*
X123224504Y-69201204D02*
X123248773Y-69204804D01*
X123272571Y-69210765D01*
X123295671Y-69219030D01*
X123317849Y-69229520D01*
X123338893Y-69242133D01*
X123358598Y-69256747D01*
X123376777Y-69273223D01*
X123393253Y-69291402D01*
X123407867Y-69311107D01*
X123420480Y-69332151D01*
X123430970Y-69354329D01*
X123439235Y-69377429D01*
X123445196Y-69401227D01*
X123448796Y-69425496D01*
X123450000Y-69450000D01*
X123450000Y-70550000D01*
X123448796Y-70574504D01*
X123445196Y-70598773D01*
X123439235Y-70622571D01*
X123430970Y-70645671D01*
X123420480Y-70667849D01*
X123407867Y-70688893D01*
X123393253Y-70708598D01*
X123376777Y-70726777D01*
X123358598Y-70743253D01*
X123338893Y-70757867D01*
X123317849Y-70770480D01*
X123295671Y-70780970D01*
X123272571Y-70789235D01*
X123248773Y-70795196D01*
X123224504Y-70798796D01*
X123200000Y-70800000D01*
X120200000Y-70800000D01*
X120175496Y-70798796D01*
X120151227Y-70795196D01*
X120127429Y-70789235D01*
X120104329Y-70780970D01*
X120082151Y-70770480D01*
X120061107Y-70757867D01*
X120041402Y-70743253D01*
X120023223Y-70726777D01*
X120006747Y-70708598D01*
X119992133Y-70688893D01*
X119979520Y-70667849D01*
X119969030Y-70645671D01*
X119960765Y-70622571D01*
X119954804Y-70598773D01*
X119951204Y-70574504D01*
X119950000Y-70550000D01*
X119950000Y-69450000D01*
X119951204Y-69425496D01*
X119954804Y-69401227D01*
X119960765Y-69377429D01*
X119969030Y-69354329D01*
X119979520Y-69332151D01*
X119992133Y-69311107D01*
X120006747Y-69291402D01*
X120023223Y-69273223D01*
X120041402Y-69256747D01*
X120061107Y-69242133D01*
X120082151Y-69229520D01*
X120104329Y-69219030D01*
X120127429Y-69210765D01*
X120151227Y-69204804D01*
X120175496Y-69201204D01*
X120200000Y-69200000D01*
X123200000Y-69200000D01*
X123224504Y-69201204D01*
X123224504Y-69201204D01*
G37*
D13*
X121700000Y-70000000D03*
D11*
G36*
X117824504Y-69201204D02*
X117848773Y-69204804D01*
X117872571Y-69210765D01*
X117895671Y-69219030D01*
X117917849Y-69229520D01*
X117938893Y-69242133D01*
X117958598Y-69256747D01*
X117976777Y-69273223D01*
X117993253Y-69291402D01*
X118007867Y-69311107D01*
X118020480Y-69332151D01*
X118030970Y-69354329D01*
X118039235Y-69377429D01*
X118045196Y-69401227D01*
X118048796Y-69425496D01*
X118050000Y-69450000D01*
X118050000Y-70550000D01*
X118048796Y-70574504D01*
X118045196Y-70598773D01*
X118039235Y-70622571D01*
X118030970Y-70645671D01*
X118020480Y-70667849D01*
X118007867Y-70688893D01*
X117993253Y-70708598D01*
X117976777Y-70726777D01*
X117958598Y-70743253D01*
X117938893Y-70757867D01*
X117917849Y-70770480D01*
X117895671Y-70780970D01*
X117872571Y-70789235D01*
X117848773Y-70795196D01*
X117824504Y-70798796D01*
X117800000Y-70800000D01*
X114800000Y-70800000D01*
X114775496Y-70798796D01*
X114751227Y-70795196D01*
X114727429Y-70789235D01*
X114704329Y-70780970D01*
X114682151Y-70770480D01*
X114661107Y-70757867D01*
X114641402Y-70743253D01*
X114623223Y-70726777D01*
X114606747Y-70708598D01*
X114592133Y-70688893D01*
X114579520Y-70667849D01*
X114569030Y-70645671D01*
X114560765Y-70622571D01*
X114554804Y-70598773D01*
X114551204Y-70574504D01*
X114550000Y-70550000D01*
X114550000Y-69450000D01*
X114551204Y-69425496D01*
X114554804Y-69401227D01*
X114560765Y-69377429D01*
X114569030Y-69354329D01*
X114579520Y-69332151D01*
X114592133Y-69311107D01*
X114606747Y-69291402D01*
X114623223Y-69273223D01*
X114641402Y-69256747D01*
X114661107Y-69242133D01*
X114682151Y-69229520D01*
X114704329Y-69219030D01*
X114727429Y-69210765D01*
X114751227Y-69204804D01*
X114775496Y-69201204D01*
X114800000Y-69200000D01*
X117800000Y-69200000D01*
X117824504Y-69201204D01*
X117824504Y-69201204D01*
G37*
D13*
X116300000Y-70000000D03*
G04 #@! TD*
M02*
