G04 #@! TF.GenerationSoftware,KiCad,Pcbnew,5.0.2+dfsg1-1*
G04 #@! TF.CreationDate,2021-07-01T00:07:39-05:00*
G04 #@! TF.ProjectId,backplane,6261636b-706c-4616-9e65-2e6b69636164,rev?*
G04 #@! TF.SameCoordinates,Original*
G04 #@! TF.FileFunction,Paste,Top*
G04 #@! TF.FilePolarity,Positive*
%FSLAX46Y46*%
G04 Gerber Fmt 4.6, Leading zero omitted, Abs format (unit mm)*
G04 Created by KiCad (PCBNEW 5.0.2+dfsg1-1) date Thu 01 Jul 2021 12:07:39 AM CDT*
%MOMM*%
%LPD*%
G01*
G04 APERTURE LIST*
%ADD10R,0.800000X0.800000*%
%ADD11C,0.100000*%
%ADD12C,0.950000*%
G04 APERTURE END LIST*
D10*
G04 #@! TO.C,D2*
X123000000Y-59250000D03*
X123000000Y-60750000D03*
G04 #@! TD*
G04 #@! TO.C,D4*
X123000000Y-78750000D03*
X123000000Y-77250000D03*
G04 #@! TD*
D11*
G04 #@! TO.C,R2*
G36*
X123260779Y-64351144D02*
X123283834Y-64354563D01*
X123306443Y-64360227D01*
X123328387Y-64368079D01*
X123349457Y-64378044D01*
X123369448Y-64390026D01*
X123388168Y-64403910D01*
X123405438Y-64419562D01*
X123421090Y-64436832D01*
X123434974Y-64455552D01*
X123446956Y-64475543D01*
X123456921Y-64496613D01*
X123464773Y-64518557D01*
X123470437Y-64541166D01*
X123473856Y-64564221D01*
X123475000Y-64587500D01*
X123475000Y-65162500D01*
X123473856Y-65185779D01*
X123470437Y-65208834D01*
X123464773Y-65231443D01*
X123456921Y-65253387D01*
X123446956Y-65274457D01*
X123434974Y-65294448D01*
X123421090Y-65313168D01*
X123405438Y-65330438D01*
X123388168Y-65346090D01*
X123369448Y-65359974D01*
X123349457Y-65371956D01*
X123328387Y-65381921D01*
X123306443Y-65389773D01*
X123283834Y-65395437D01*
X123260779Y-65398856D01*
X123237500Y-65400000D01*
X122762500Y-65400000D01*
X122739221Y-65398856D01*
X122716166Y-65395437D01*
X122693557Y-65389773D01*
X122671613Y-65381921D01*
X122650543Y-65371956D01*
X122630552Y-65359974D01*
X122611832Y-65346090D01*
X122594562Y-65330438D01*
X122578910Y-65313168D01*
X122565026Y-65294448D01*
X122553044Y-65274457D01*
X122543079Y-65253387D01*
X122535227Y-65231443D01*
X122529563Y-65208834D01*
X122526144Y-65185779D01*
X122525000Y-65162500D01*
X122525000Y-64587500D01*
X122526144Y-64564221D01*
X122529563Y-64541166D01*
X122535227Y-64518557D01*
X122543079Y-64496613D01*
X122553044Y-64475543D01*
X122565026Y-64455552D01*
X122578910Y-64436832D01*
X122594562Y-64419562D01*
X122611832Y-64403910D01*
X122630552Y-64390026D01*
X122650543Y-64378044D01*
X122671613Y-64368079D01*
X122693557Y-64360227D01*
X122716166Y-64354563D01*
X122739221Y-64351144D01*
X122762500Y-64350000D01*
X123237500Y-64350000D01*
X123260779Y-64351144D01*
X123260779Y-64351144D01*
G37*
D12*
X123000000Y-64875000D03*
D11*
G36*
X123260779Y-62601144D02*
X123283834Y-62604563D01*
X123306443Y-62610227D01*
X123328387Y-62618079D01*
X123349457Y-62628044D01*
X123369448Y-62640026D01*
X123388168Y-62653910D01*
X123405438Y-62669562D01*
X123421090Y-62686832D01*
X123434974Y-62705552D01*
X123446956Y-62725543D01*
X123456921Y-62746613D01*
X123464773Y-62768557D01*
X123470437Y-62791166D01*
X123473856Y-62814221D01*
X123475000Y-62837500D01*
X123475000Y-63412500D01*
X123473856Y-63435779D01*
X123470437Y-63458834D01*
X123464773Y-63481443D01*
X123456921Y-63503387D01*
X123446956Y-63524457D01*
X123434974Y-63544448D01*
X123421090Y-63563168D01*
X123405438Y-63580438D01*
X123388168Y-63596090D01*
X123369448Y-63609974D01*
X123349457Y-63621956D01*
X123328387Y-63631921D01*
X123306443Y-63639773D01*
X123283834Y-63645437D01*
X123260779Y-63648856D01*
X123237500Y-63650000D01*
X122762500Y-63650000D01*
X122739221Y-63648856D01*
X122716166Y-63645437D01*
X122693557Y-63639773D01*
X122671613Y-63631921D01*
X122650543Y-63621956D01*
X122630552Y-63609974D01*
X122611832Y-63596090D01*
X122594562Y-63580438D01*
X122578910Y-63563168D01*
X122565026Y-63544448D01*
X122553044Y-63524457D01*
X122543079Y-63503387D01*
X122535227Y-63481443D01*
X122529563Y-63458834D01*
X122526144Y-63435779D01*
X122525000Y-63412500D01*
X122525000Y-62837500D01*
X122526144Y-62814221D01*
X122529563Y-62791166D01*
X122535227Y-62768557D01*
X122543079Y-62746613D01*
X122553044Y-62725543D01*
X122565026Y-62705552D01*
X122578910Y-62686832D01*
X122594562Y-62669562D01*
X122611832Y-62653910D01*
X122630552Y-62640026D01*
X122650543Y-62628044D01*
X122671613Y-62618079D01*
X122693557Y-62610227D01*
X122716166Y-62604563D01*
X122739221Y-62601144D01*
X122762500Y-62600000D01*
X123237500Y-62600000D01*
X123260779Y-62601144D01*
X123260779Y-62601144D01*
G37*
D12*
X123000000Y-63125000D03*
G04 #@! TD*
D11*
G04 #@! TO.C,R3*
G36*
X155185779Y-61526144D02*
X155208834Y-61529563D01*
X155231443Y-61535227D01*
X155253387Y-61543079D01*
X155274457Y-61553044D01*
X155294448Y-61565026D01*
X155313168Y-61578910D01*
X155330438Y-61594562D01*
X155346090Y-61611832D01*
X155359974Y-61630552D01*
X155371956Y-61650543D01*
X155381921Y-61671613D01*
X155389773Y-61693557D01*
X155395437Y-61716166D01*
X155398856Y-61739221D01*
X155400000Y-61762500D01*
X155400000Y-62237500D01*
X155398856Y-62260779D01*
X155395437Y-62283834D01*
X155389773Y-62306443D01*
X155381921Y-62328387D01*
X155371956Y-62349457D01*
X155359974Y-62369448D01*
X155346090Y-62388168D01*
X155330438Y-62405438D01*
X155313168Y-62421090D01*
X155294448Y-62434974D01*
X155274457Y-62446956D01*
X155253387Y-62456921D01*
X155231443Y-62464773D01*
X155208834Y-62470437D01*
X155185779Y-62473856D01*
X155162500Y-62475000D01*
X154587500Y-62475000D01*
X154564221Y-62473856D01*
X154541166Y-62470437D01*
X154518557Y-62464773D01*
X154496613Y-62456921D01*
X154475543Y-62446956D01*
X154455552Y-62434974D01*
X154436832Y-62421090D01*
X154419562Y-62405438D01*
X154403910Y-62388168D01*
X154390026Y-62369448D01*
X154378044Y-62349457D01*
X154368079Y-62328387D01*
X154360227Y-62306443D01*
X154354563Y-62283834D01*
X154351144Y-62260779D01*
X154350000Y-62237500D01*
X154350000Y-61762500D01*
X154351144Y-61739221D01*
X154354563Y-61716166D01*
X154360227Y-61693557D01*
X154368079Y-61671613D01*
X154378044Y-61650543D01*
X154390026Y-61630552D01*
X154403910Y-61611832D01*
X154419562Y-61594562D01*
X154436832Y-61578910D01*
X154455552Y-61565026D01*
X154475543Y-61553044D01*
X154496613Y-61543079D01*
X154518557Y-61535227D01*
X154541166Y-61529563D01*
X154564221Y-61526144D01*
X154587500Y-61525000D01*
X155162500Y-61525000D01*
X155185779Y-61526144D01*
X155185779Y-61526144D01*
G37*
D12*
X154875000Y-62000000D03*
D11*
G36*
X153435779Y-61526144D02*
X153458834Y-61529563D01*
X153481443Y-61535227D01*
X153503387Y-61543079D01*
X153524457Y-61553044D01*
X153544448Y-61565026D01*
X153563168Y-61578910D01*
X153580438Y-61594562D01*
X153596090Y-61611832D01*
X153609974Y-61630552D01*
X153621956Y-61650543D01*
X153631921Y-61671613D01*
X153639773Y-61693557D01*
X153645437Y-61716166D01*
X153648856Y-61739221D01*
X153650000Y-61762500D01*
X153650000Y-62237500D01*
X153648856Y-62260779D01*
X153645437Y-62283834D01*
X153639773Y-62306443D01*
X153631921Y-62328387D01*
X153621956Y-62349457D01*
X153609974Y-62369448D01*
X153596090Y-62388168D01*
X153580438Y-62405438D01*
X153563168Y-62421090D01*
X153544448Y-62434974D01*
X153524457Y-62446956D01*
X153503387Y-62456921D01*
X153481443Y-62464773D01*
X153458834Y-62470437D01*
X153435779Y-62473856D01*
X153412500Y-62475000D01*
X152837500Y-62475000D01*
X152814221Y-62473856D01*
X152791166Y-62470437D01*
X152768557Y-62464773D01*
X152746613Y-62456921D01*
X152725543Y-62446956D01*
X152705552Y-62434974D01*
X152686832Y-62421090D01*
X152669562Y-62405438D01*
X152653910Y-62388168D01*
X152640026Y-62369448D01*
X152628044Y-62349457D01*
X152618079Y-62328387D01*
X152610227Y-62306443D01*
X152604563Y-62283834D01*
X152601144Y-62260779D01*
X152600000Y-62237500D01*
X152600000Y-61762500D01*
X152601144Y-61739221D01*
X152604563Y-61716166D01*
X152610227Y-61693557D01*
X152618079Y-61671613D01*
X152628044Y-61650543D01*
X152640026Y-61630552D01*
X152653910Y-61611832D01*
X152669562Y-61594562D01*
X152686832Y-61578910D01*
X152705552Y-61565026D01*
X152725543Y-61553044D01*
X152746613Y-61543079D01*
X152768557Y-61535227D01*
X152791166Y-61529563D01*
X152814221Y-61526144D01*
X152837500Y-61525000D01*
X153412500Y-61525000D01*
X153435779Y-61526144D01*
X153435779Y-61526144D01*
G37*
D12*
X153125000Y-62000000D03*
G04 #@! TD*
D11*
G04 #@! TO.C,R4*
G36*
X123260779Y-80601144D02*
X123283834Y-80604563D01*
X123306443Y-80610227D01*
X123328387Y-80618079D01*
X123349457Y-80628044D01*
X123369448Y-80640026D01*
X123388168Y-80653910D01*
X123405438Y-80669562D01*
X123421090Y-80686832D01*
X123434974Y-80705552D01*
X123446956Y-80725543D01*
X123456921Y-80746613D01*
X123464773Y-80768557D01*
X123470437Y-80791166D01*
X123473856Y-80814221D01*
X123475000Y-80837500D01*
X123475000Y-81412500D01*
X123473856Y-81435779D01*
X123470437Y-81458834D01*
X123464773Y-81481443D01*
X123456921Y-81503387D01*
X123446956Y-81524457D01*
X123434974Y-81544448D01*
X123421090Y-81563168D01*
X123405438Y-81580438D01*
X123388168Y-81596090D01*
X123369448Y-81609974D01*
X123349457Y-81621956D01*
X123328387Y-81631921D01*
X123306443Y-81639773D01*
X123283834Y-81645437D01*
X123260779Y-81648856D01*
X123237500Y-81650000D01*
X122762500Y-81650000D01*
X122739221Y-81648856D01*
X122716166Y-81645437D01*
X122693557Y-81639773D01*
X122671613Y-81631921D01*
X122650543Y-81621956D01*
X122630552Y-81609974D01*
X122611832Y-81596090D01*
X122594562Y-81580438D01*
X122578910Y-81563168D01*
X122565026Y-81544448D01*
X122553044Y-81524457D01*
X122543079Y-81503387D01*
X122535227Y-81481443D01*
X122529563Y-81458834D01*
X122526144Y-81435779D01*
X122525000Y-81412500D01*
X122525000Y-80837500D01*
X122526144Y-80814221D01*
X122529563Y-80791166D01*
X122535227Y-80768557D01*
X122543079Y-80746613D01*
X122553044Y-80725543D01*
X122565026Y-80705552D01*
X122578910Y-80686832D01*
X122594562Y-80669562D01*
X122611832Y-80653910D01*
X122630552Y-80640026D01*
X122650543Y-80628044D01*
X122671613Y-80618079D01*
X122693557Y-80610227D01*
X122716166Y-80604563D01*
X122739221Y-80601144D01*
X122762500Y-80600000D01*
X123237500Y-80600000D01*
X123260779Y-80601144D01*
X123260779Y-80601144D01*
G37*
D12*
X123000000Y-81125000D03*
D11*
G36*
X123260779Y-82351144D02*
X123283834Y-82354563D01*
X123306443Y-82360227D01*
X123328387Y-82368079D01*
X123349457Y-82378044D01*
X123369448Y-82390026D01*
X123388168Y-82403910D01*
X123405438Y-82419562D01*
X123421090Y-82436832D01*
X123434974Y-82455552D01*
X123446956Y-82475543D01*
X123456921Y-82496613D01*
X123464773Y-82518557D01*
X123470437Y-82541166D01*
X123473856Y-82564221D01*
X123475000Y-82587500D01*
X123475000Y-83162500D01*
X123473856Y-83185779D01*
X123470437Y-83208834D01*
X123464773Y-83231443D01*
X123456921Y-83253387D01*
X123446956Y-83274457D01*
X123434974Y-83294448D01*
X123421090Y-83313168D01*
X123405438Y-83330438D01*
X123388168Y-83346090D01*
X123369448Y-83359974D01*
X123349457Y-83371956D01*
X123328387Y-83381921D01*
X123306443Y-83389773D01*
X123283834Y-83395437D01*
X123260779Y-83398856D01*
X123237500Y-83400000D01*
X122762500Y-83400000D01*
X122739221Y-83398856D01*
X122716166Y-83395437D01*
X122693557Y-83389773D01*
X122671613Y-83381921D01*
X122650543Y-83371956D01*
X122630552Y-83359974D01*
X122611832Y-83346090D01*
X122594562Y-83330438D01*
X122578910Y-83313168D01*
X122565026Y-83294448D01*
X122553044Y-83274457D01*
X122543079Y-83253387D01*
X122535227Y-83231443D01*
X122529563Y-83208834D01*
X122526144Y-83185779D01*
X122525000Y-83162500D01*
X122525000Y-82587500D01*
X122526144Y-82564221D01*
X122529563Y-82541166D01*
X122535227Y-82518557D01*
X122543079Y-82496613D01*
X122553044Y-82475543D01*
X122565026Y-82455552D01*
X122578910Y-82436832D01*
X122594562Y-82419562D01*
X122611832Y-82403910D01*
X122630552Y-82390026D01*
X122650543Y-82378044D01*
X122671613Y-82368079D01*
X122693557Y-82360227D01*
X122716166Y-82354563D01*
X122739221Y-82351144D01*
X122762500Y-82350000D01*
X123237500Y-82350000D01*
X123260779Y-82351144D01*
X123260779Y-82351144D01*
G37*
D12*
X123000000Y-82875000D03*
G04 #@! TD*
D11*
G04 #@! TO.C,R5*
G36*
X153435779Y-80526144D02*
X153458834Y-80529563D01*
X153481443Y-80535227D01*
X153503387Y-80543079D01*
X153524457Y-80553044D01*
X153544448Y-80565026D01*
X153563168Y-80578910D01*
X153580438Y-80594562D01*
X153596090Y-80611832D01*
X153609974Y-80630552D01*
X153621956Y-80650543D01*
X153631921Y-80671613D01*
X153639773Y-80693557D01*
X153645437Y-80716166D01*
X153648856Y-80739221D01*
X153650000Y-80762500D01*
X153650000Y-81237500D01*
X153648856Y-81260779D01*
X153645437Y-81283834D01*
X153639773Y-81306443D01*
X153631921Y-81328387D01*
X153621956Y-81349457D01*
X153609974Y-81369448D01*
X153596090Y-81388168D01*
X153580438Y-81405438D01*
X153563168Y-81421090D01*
X153544448Y-81434974D01*
X153524457Y-81446956D01*
X153503387Y-81456921D01*
X153481443Y-81464773D01*
X153458834Y-81470437D01*
X153435779Y-81473856D01*
X153412500Y-81475000D01*
X152837500Y-81475000D01*
X152814221Y-81473856D01*
X152791166Y-81470437D01*
X152768557Y-81464773D01*
X152746613Y-81456921D01*
X152725543Y-81446956D01*
X152705552Y-81434974D01*
X152686832Y-81421090D01*
X152669562Y-81405438D01*
X152653910Y-81388168D01*
X152640026Y-81369448D01*
X152628044Y-81349457D01*
X152618079Y-81328387D01*
X152610227Y-81306443D01*
X152604563Y-81283834D01*
X152601144Y-81260779D01*
X152600000Y-81237500D01*
X152600000Y-80762500D01*
X152601144Y-80739221D01*
X152604563Y-80716166D01*
X152610227Y-80693557D01*
X152618079Y-80671613D01*
X152628044Y-80650543D01*
X152640026Y-80630552D01*
X152653910Y-80611832D01*
X152669562Y-80594562D01*
X152686832Y-80578910D01*
X152705552Y-80565026D01*
X152725543Y-80553044D01*
X152746613Y-80543079D01*
X152768557Y-80535227D01*
X152791166Y-80529563D01*
X152814221Y-80526144D01*
X152837500Y-80525000D01*
X153412500Y-80525000D01*
X153435779Y-80526144D01*
X153435779Y-80526144D01*
G37*
D12*
X153125000Y-81000000D03*
D11*
G36*
X155185779Y-80526144D02*
X155208834Y-80529563D01*
X155231443Y-80535227D01*
X155253387Y-80543079D01*
X155274457Y-80553044D01*
X155294448Y-80565026D01*
X155313168Y-80578910D01*
X155330438Y-80594562D01*
X155346090Y-80611832D01*
X155359974Y-80630552D01*
X155371956Y-80650543D01*
X155381921Y-80671613D01*
X155389773Y-80693557D01*
X155395437Y-80716166D01*
X155398856Y-80739221D01*
X155400000Y-80762500D01*
X155400000Y-81237500D01*
X155398856Y-81260779D01*
X155395437Y-81283834D01*
X155389773Y-81306443D01*
X155381921Y-81328387D01*
X155371956Y-81349457D01*
X155359974Y-81369448D01*
X155346090Y-81388168D01*
X155330438Y-81405438D01*
X155313168Y-81421090D01*
X155294448Y-81434974D01*
X155274457Y-81446956D01*
X155253387Y-81456921D01*
X155231443Y-81464773D01*
X155208834Y-81470437D01*
X155185779Y-81473856D01*
X155162500Y-81475000D01*
X154587500Y-81475000D01*
X154564221Y-81473856D01*
X154541166Y-81470437D01*
X154518557Y-81464773D01*
X154496613Y-81456921D01*
X154475543Y-81446956D01*
X154455552Y-81434974D01*
X154436832Y-81421090D01*
X154419562Y-81405438D01*
X154403910Y-81388168D01*
X154390026Y-81369448D01*
X154378044Y-81349457D01*
X154368079Y-81328387D01*
X154360227Y-81306443D01*
X154354563Y-81283834D01*
X154351144Y-81260779D01*
X154350000Y-81237500D01*
X154350000Y-80762500D01*
X154351144Y-80739221D01*
X154354563Y-80716166D01*
X154360227Y-80693557D01*
X154368079Y-80671613D01*
X154378044Y-80650543D01*
X154390026Y-80630552D01*
X154403910Y-80611832D01*
X154419562Y-80594562D01*
X154436832Y-80578910D01*
X154455552Y-80565026D01*
X154475543Y-80553044D01*
X154496613Y-80543079D01*
X154518557Y-80535227D01*
X154541166Y-80529563D01*
X154564221Y-80526144D01*
X154587500Y-80525000D01*
X155162500Y-80525000D01*
X155185779Y-80526144D01*
X155185779Y-80526144D01*
G37*
D12*
X154875000Y-81000000D03*
G04 #@! TD*
M02*
