G04 #@! TF.GenerationSoftware,KiCad,Pcbnew,5.0.2+dfsg1-1*
G04 #@! TF.CreationDate,2021-07-01T00:07:39-05:00*
G04 #@! TF.ProjectId,backplane,6261636b-706c-4616-9e65-2e6b69636164,rev?*
G04 #@! TF.SameCoordinates,Original*
G04 #@! TF.FileFunction,Copper,L2,Bot*
G04 #@! TF.FilePolarity,Positive*
%FSLAX46Y46*%
G04 Gerber Fmt 4.6, Leading zero omitted, Abs format (unit mm)*
G04 Created by KiCad (PCBNEW 5.0.2+dfsg1-1) date Thu 01 Jul 2021 12:07:39 AM CDT*
%MOMM*%
%LPD*%
G01*
G04 APERTURE LIST*
G04 #@! TA.AperFunction,SMDPad,CuDef*
%ADD10R,0.800000X0.800000*%
G04 #@! TD*
G04 #@! TA.AperFunction,ComponentPad*
%ADD11R,2.500000X2.500000*%
G04 #@! TD*
G04 #@! TA.AperFunction,ComponentPad*
%ADD12C,2.500000*%
G04 #@! TD*
G04 #@! TA.AperFunction,ComponentPad*
%ADD13C,1.100000*%
G04 #@! TD*
G04 #@! TA.AperFunction,Conductor*
%ADD14C,0.100000*%
G04 #@! TD*
G04 #@! TA.AperFunction,SMDPad,CuDef*
%ADD15C,0.950000*%
G04 #@! TD*
G04 #@! TA.AperFunction,ComponentPad*
%ADD16C,1.168400*%
G04 #@! TD*
G04 #@! TA.AperFunction,ComponentPad*
%ADD17C,1.473200*%
G04 #@! TD*
G04 #@! TA.AperFunction,SMDPad,CuDef*
%ADD18C,1.600000*%
G04 #@! TD*
G04 #@! TA.AperFunction,ViaPad*
%ADD19C,0.800000*%
G04 #@! TD*
G04 #@! TA.AperFunction,Conductor*
%ADD20C,0.250000*%
G04 #@! TD*
G04 #@! TA.AperFunction,Conductor*
%ADD21C,1.000000*%
G04 #@! TD*
G04 #@! TA.AperFunction,Conductor*
%ADD22C,0.254000*%
G04 #@! TD*
G04 APERTURE END LIST*
D10*
G04 #@! TO.P,D1,1*
G04 #@! TO.N,Net-(D1-Pad1)*
X126750000Y-54000000D03*
G04 #@! TO.P,D1,2*
G04 #@! TO.N,+24V*
X125250000Y-54000000D03*
G04 #@! TD*
D11*
G04 #@! TO.P,J1,1*
G04 #@! TO.N,GND*
X119000000Y-62000000D03*
D12*
G04 #@! TO.P,J1,2*
G04 #@! TO.N,+24V*
X119000000Y-57000000D03*
G04 #@! TD*
D13*
G04 #@! TO.P,J2,1*
G04 #@! TO.N,/SS1*
X155000000Y-69000000D03*
G04 #@! TO.P,J2,2*
G04 #@! TO.N,+5V*
X153730000Y-69000000D03*
G04 #@! TO.P,J2,3*
G04 #@! TO.N,/CP1*
X155000000Y-70270000D03*
G04 #@! TO.P,J2,4*
G04 #@! TO.N,/MOSI*
X153730000Y-70270000D03*
G04 #@! TO.P,J2,5*
G04 #@! TO.N,+5V*
X155000000Y-71540000D03*
G04 #@! TO.P,J2,6*
G04 #@! TO.N,/MISO*
X153730000Y-71540000D03*
G04 #@! TO.P,J2,7*
G04 #@! TO.N,/CP2*
X155000000Y-72810000D03*
G04 #@! TO.P,J2,8*
G04 #@! TO.N,/SCK*
X153730000Y-72810000D03*
G04 #@! TO.P,J2,9*
G04 #@! TO.N,/SS2*
X155000000Y-74080000D03*
G04 #@! TO.P,J2,10*
G04 #@! TO.N,GND*
X153730000Y-74080000D03*
G04 #@! TD*
D14*
G04 #@! TO.N,Net-(D1-Pad1)*
G04 #@! TO.C,R1*
G36*
X130435779Y-53526144D02*
X130458834Y-53529563D01*
X130481443Y-53535227D01*
X130503387Y-53543079D01*
X130524457Y-53553044D01*
X130544448Y-53565026D01*
X130563168Y-53578910D01*
X130580438Y-53594562D01*
X130596090Y-53611832D01*
X130609974Y-53630552D01*
X130621956Y-53650543D01*
X130631921Y-53671613D01*
X130639773Y-53693557D01*
X130645437Y-53716166D01*
X130648856Y-53739221D01*
X130650000Y-53762500D01*
X130650000Y-54237500D01*
X130648856Y-54260779D01*
X130645437Y-54283834D01*
X130639773Y-54306443D01*
X130631921Y-54328387D01*
X130621956Y-54349457D01*
X130609974Y-54369448D01*
X130596090Y-54388168D01*
X130580438Y-54405438D01*
X130563168Y-54421090D01*
X130544448Y-54434974D01*
X130524457Y-54446956D01*
X130503387Y-54456921D01*
X130481443Y-54464773D01*
X130458834Y-54470437D01*
X130435779Y-54473856D01*
X130412500Y-54475000D01*
X129837500Y-54475000D01*
X129814221Y-54473856D01*
X129791166Y-54470437D01*
X129768557Y-54464773D01*
X129746613Y-54456921D01*
X129725543Y-54446956D01*
X129705552Y-54434974D01*
X129686832Y-54421090D01*
X129669562Y-54405438D01*
X129653910Y-54388168D01*
X129640026Y-54369448D01*
X129628044Y-54349457D01*
X129618079Y-54328387D01*
X129610227Y-54306443D01*
X129604563Y-54283834D01*
X129601144Y-54260779D01*
X129600000Y-54237500D01*
X129600000Y-53762500D01*
X129601144Y-53739221D01*
X129604563Y-53716166D01*
X129610227Y-53693557D01*
X129618079Y-53671613D01*
X129628044Y-53650543D01*
X129640026Y-53630552D01*
X129653910Y-53611832D01*
X129669562Y-53594562D01*
X129686832Y-53578910D01*
X129705552Y-53565026D01*
X129725543Y-53553044D01*
X129746613Y-53543079D01*
X129768557Y-53535227D01*
X129791166Y-53529563D01*
X129814221Y-53526144D01*
X129837500Y-53525000D01*
X130412500Y-53525000D01*
X130435779Y-53526144D01*
X130435779Y-53526144D01*
G37*
D15*
G04 #@! TD*
G04 #@! TO.P,R1,1*
G04 #@! TO.N,Net-(D1-Pad1)*
X130125000Y-54000000D03*
D14*
G04 #@! TO.N,GND*
G04 #@! TO.C,R1*
G36*
X132185779Y-53526144D02*
X132208834Y-53529563D01*
X132231443Y-53535227D01*
X132253387Y-53543079D01*
X132274457Y-53553044D01*
X132294448Y-53565026D01*
X132313168Y-53578910D01*
X132330438Y-53594562D01*
X132346090Y-53611832D01*
X132359974Y-53630552D01*
X132371956Y-53650543D01*
X132381921Y-53671613D01*
X132389773Y-53693557D01*
X132395437Y-53716166D01*
X132398856Y-53739221D01*
X132400000Y-53762500D01*
X132400000Y-54237500D01*
X132398856Y-54260779D01*
X132395437Y-54283834D01*
X132389773Y-54306443D01*
X132381921Y-54328387D01*
X132371956Y-54349457D01*
X132359974Y-54369448D01*
X132346090Y-54388168D01*
X132330438Y-54405438D01*
X132313168Y-54421090D01*
X132294448Y-54434974D01*
X132274457Y-54446956D01*
X132253387Y-54456921D01*
X132231443Y-54464773D01*
X132208834Y-54470437D01*
X132185779Y-54473856D01*
X132162500Y-54475000D01*
X131587500Y-54475000D01*
X131564221Y-54473856D01*
X131541166Y-54470437D01*
X131518557Y-54464773D01*
X131496613Y-54456921D01*
X131475543Y-54446956D01*
X131455552Y-54434974D01*
X131436832Y-54421090D01*
X131419562Y-54405438D01*
X131403910Y-54388168D01*
X131390026Y-54369448D01*
X131378044Y-54349457D01*
X131368079Y-54328387D01*
X131360227Y-54306443D01*
X131354563Y-54283834D01*
X131351144Y-54260779D01*
X131350000Y-54237500D01*
X131350000Y-53762500D01*
X131351144Y-53739221D01*
X131354563Y-53716166D01*
X131360227Y-53693557D01*
X131368079Y-53671613D01*
X131378044Y-53650543D01*
X131390026Y-53630552D01*
X131403910Y-53611832D01*
X131419562Y-53594562D01*
X131436832Y-53578910D01*
X131455552Y-53565026D01*
X131475543Y-53553044D01*
X131496613Y-53543079D01*
X131518557Y-53535227D01*
X131541166Y-53529563D01*
X131564221Y-53526144D01*
X131587500Y-53525000D01*
X132162500Y-53525000D01*
X132185779Y-53526144D01*
X132185779Y-53526144D01*
G37*
D15*
G04 #@! TD*
G04 #@! TO.P,R1,2*
G04 #@! TO.N,GND*
X131875000Y-54000000D03*
D16*
G04 #@! TO.P,J3,B1*
G04 #@! TO.N,GND*
X127999999Y-64400000D03*
G04 #@! TO.P,J3,B2*
X129000000Y-66400001D03*
G04 #@! TO.P,J3,B3*
X130000001Y-64400000D03*
G04 #@! TO.P,J3,B4*
X130999999Y-66400001D03*
G04 #@! TO.P,J3,B5*
X131999999Y-64400000D03*
G04 #@! TO.P,J3,B6*
X133000000Y-66400001D03*
G04 #@! TO.P,J3,B7*
X134000000Y-64400000D03*
G04 #@! TO.P,J3,B8*
X135000001Y-66400001D03*
G04 #@! TO.P,J3,B9*
X135999999Y-64400000D03*
G04 #@! TO.P,J3,B10*
X136999999Y-66400001D03*
G04 #@! TO.P,J3,B11*
X138000000Y-64400000D03*
G04 #@! TO.P,J3,B12*
X141225000Y-66400001D03*
G04 #@! TO.P,J3,B13*
X142225001Y-64400000D03*
G04 #@! TO.P,J3,B14*
X143224999Y-66400001D03*
G04 #@! TO.P,J3,B15*
X144224999Y-64400000D03*
G04 #@! TO.P,J3,B16*
X145225000Y-66400001D03*
G04 #@! TO.P,J3,B17*
G04 #@! TO.N,Net-(J3-PadB17)*
X146225001Y-64400000D03*
G04 #@! TO.P,J3,B18*
G04 #@! TO.N,GND*
X147225001Y-66400001D03*
G04 #@! TO.P,J3,A2*
G04 #@! TO.N,+24V*
X128999999Y-60400000D03*
G04 #@! TO.P,J3,A1*
G04 #@! TO.N,Net-(J3-PadA1)*
X128000000Y-62399999D03*
G04 #@! TO.P,J3,A4*
G04 #@! TO.N,+24V*
X131000001Y-60400000D03*
G04 #@! TO.P,J3,A3*
X129999999Y-62399999D03*
G04 #@! TO.P,J3,A6*
X132999999Y-60400000D03*
G04 #@! TO.P,J3,A5*
X132000000Y-62399999D03*
G04 #@! TO.P,J3,A8*
X135000000Y-60400000D03*
G04 #@! TO.P,J3,A7*
X134000001Y-62399999D03*
G04 #@! TO.P,J3,A10*
X136999999Y-60400000D03*
G04 #@! TO.P,J3,A9*
X135999999Y-62399999D03*
G04 #@! TO.P,J3,A12*
G04 #@! TO.N,/SS1*
X141225000Y-60400000D03*
G04 #@! TO.P,J3,A11*
G04 #@! TO.N,+24V*
X138000000Y-62399999D03*
G04 #@! TO.P,J3,A14*
G04 #@! TO.N,/MISO*
X143225001Y-60400000D03*
G04 #@! TO.P,J3,A13*
G04 #@! TO.N,/MOSI*
X142224999Y-62399999D03*
G04 #@! TO.P,J3,A16*
G04 #@! TO.N,+5V*
X145224999Y-60400000D03*
G04 #@! TO.P,J3,A15*
G04 #@! TO.N,/SCK*
X144225000Y-62399999D03*
G04 #@! TO.P,J3,A18*
G04 #@! TO.N,Net-(J3-PadA18)*
X147225001Y-60400000D03*
G04 #@! TO.P,J3,A17*
G04 #@! TO.N,+5V*
X146225001Y-62399999D03*
D17*
G04 #@! TO.P,J3,37*
G04 #@! TO.N,N/C*
X139650000Y-63400000D03*
G04 #@! TO.P,J3,38*
X148800000Y-63400000D03*
G04 #@! TD*
G04 #@! TO.P,J4,38*
G04 #@! TO.N,N/C*
X148800000Y-81700000D03*
G04 #@! TO.P,J4,37*
X139650000Y-81700000D03*
D16*
G04 #@! TO.P,J4,A17*
G04 #@! TO.N,+5V*
X146225001Y-80699999D03*
G04 #@! TO.P,J4,A18*
G04 #@! TO.N,Net-(J4-PadA18)*
X147225001Y-78700000D03*
G04 #@! TO.P,J4,A15*
G04 #@! TO.N,/SCK*
X144225000Y-80699999D03*
G04 #@! TO.P,J4,A16*
G04 #@! TO.N,+5V*
X145224999Y-78700000D03*
G04 #@! TO.P,J4,A13*
G04 #@! TO.N,/MOSI*
X142224999Y-80699999D03*
G04 #@! TO.P,J4,A14*
G04 #@! TO.N,/MISO*
X143225001Y-78700000D03*
G04 #@! TO.P,J4,A11*
G04 #@! TO.N,+24V*
X138000000Y-80699999D03*
G04 #@! TO.P,J4,A12*
G04 #@! TO.N,/SS2*
X141225000Y-78700000D03*
G04 #@! TO.P,J4,A9*
G04 #@! TO.N,+24V*
X135999999Y-80699999D03*
G04 #@! TO.P,J4,A10*
X136999999Y-78700000D03*
G04 #@! TO.P,J4,A7*
X134000001Y-80699999D03*
G04 #@! TO.P,J4,A8*
X135000000Y-78700000D03*
G04 #@! TO.P,J4,A5*
X132000000Y-80699999D03*
G04 #@! TO.P,J4,A6*
X132999999Y-78700000D03*
G04 #@! TO.P,J4,A3*
X129999999Y-80699999D03*
G04 #@! TO.P,J4,A4*
X131000001Y-78700000D03*
G04 #@! TO.P,J4,A1*
G04 #@! TO.N,Net-(J4-PadA1)*
X128000000Y-80699999D03*
G04 #@! TO.P,J4,A2*
G04 #@! TO.N,+24V*
X128999999Y-78700000D03*
G04 #@! TO.P,J4,B18*
G04 #@! TO.N,GND*
X147225001Y-84700001D03*
G04 #@! TO.P,J4,B17*
G04 #@! TO.N,Net-(J4-PadB17)*
X146225001Y-82700000D03*
G04 #@! TO.P,J4,B16*
G04 #@! TO.N,GND*
X145225000Y-84700001D03*
G04 #@! TO.P,J4,B15*
X144224999Y-82700000D03*
G04 #@! TO.P,J4,B14*
X143224999Y-84700001D03*
G04 #@! TO.P,J4,B13*
X142225001Y-82700000D03*
G04 #@! TO.P,J4,B12*
X141225000Y-84700001D03*
G04 #@! TO.P,J4,B11*
X138000000Y-82700000D03*
G04 #@! TO.P,J4,B10*
X136999999Y-84700001D03*
G04 #@! TO.P,J4,B9*
X135999999Y-82700000D03*
G04 #@! TO.P,J4,B8*
X135000001Y-84700001D03*
G04 #@! TO.P,J4,B7*
X134000000Y-82700000D03*
G04 #@! TO.P,J4,B6*
X133000000Y-84700001D03*
G04 #@! TO.P,J4,B5*
X131999999Y-82700000D03*
G04 #@! TO.P,J4,B4*
X130999999Y-84700001D03*
G04 #@! TO.P,J4,B3*
X130000001Y-82700000D03*
G04 #@! TO.P,J4,B2*
X129000000Y-84700001D03*
G04 #@! TO.P,J4,B1*
X127999999Y-82700000D03*
G04 #@! TD*
D14*
G04 #@! TO.N,+24V*
G04 #@! TO.C,C1*
G36*
X123224504Y-69201204D02*
X123248773Y-69204804D01*
X123272571Y-69210765D01*
X123295671Y-69219030D01*
X123317849Y-69229520D01*
X123338893Y-69242133D01*
X123358598Y-69256747D01*
X123376777Y-69273223D01*
X123393253Y-69291402D01*
X123407867Y-69311107D01*
X123420480Y-69332151D01*
X123430970Y-69354329D01*
X123439235Y-69377429D01*
X123445196Y-69401227D01*
X123448796Y-69425496D01*
X123450000Y-69450000D01*
X123450000Y-70550000D01*
X123448796Y-70574504D01*
X123445196Y-70598773D01*
X123439235Y-70622571D01*
X123430970Y-70645671D01*
X123420480Y-70667849D01*
X123407867Y-70688893D01*
X123393253Y-70708598D01*
X123376777Y-70726777D01*
X123358598Y-70743253D01*
X123338893Y-70757867D01*
X123317849Y-70770480D01*
X123295671Y-70780970D01*
X123272571Y-70789235D01*
X123248773Y-70795196D01*
X123224504Y-70798796D01*
X123200000Y-70800000D01*
X120200000Y-70800000D01*
X120175496Y-70798796D01*
X120151227Y-70795196D01*
X120127429Y-70789235D01*
X120104329Y-70780970D01*
X120082151Y-70770480D01*
X120061107Y-70757867D01*
X120041402Y-70743253D01*
X120023223Y-70726777D01*
X120006747Y-70708598D01*
X119992133Y-70688893D01*
X119979520Y-70667849D01*
X119969030Y-70645671D01*
X119960765Y-70622571D01*
X119954804Y-70598773D01*
X119951204Y-70574504D01*
X119950000Y-70550000D01*
X119950000Y-69450000D01*
X119951204Y-69425496D01*
X119954804Y-69401227D01*
X119960765Y-69377429D01*
X119969030Y-69354329D01*
X119979520Y-69332151D01*
X119992133Y-69311107D01*
X120006747Y-69291402D01*
X120023223Y-69273223D01*
X120041402Y-69256747D01*
X120061107Y-69242133D01*
X120082151Y-69229520D01*
X120104329Y-69219030D01*
X120127429Y-69210765D01*
X120151227Y-69204804D01*
X120175496Y-69201204D01*
X120200000Y-69200000D01*
X123200000Y-69200000D01*
X123224504Y-69201204D01*
X123224504Y-69201204D01*
G37*
D18*
G04 #@! TD*
G04 #@! TO.P,C1,1*
G04 #@! TO.N,+24V*
X121700000Y-70000000D03*
D14*
G04 #@! TO.N,GND*
G04 #@! TO.C,C1*
G36*
X117824504Y-69201204D02*
X117848773Y-69204804D01*
X117872571Y-69210765D01*
X117895671Y-69219030D01*
X117917849Y-69229520D01*
X117938893Y-69242133D01*
X117958598Y-69256747D01*
X117976777Y-69273223D01*
X117993253Y-69291402D01*
X118007867Y-69311107D01*
X118020480Y-69332151D01*
X118030970Y-69354329D01*
X118039235Y-69377429D01*
X118045196Y-69401227D01*
X118048796Y-69425496D01*
X118050000Y-69450000D01*
X118050000Y-70550000D01*
X118048796Y-70574504D01*
X118045196Y-70598773D01*
X118039235Y-70622571D01*
X118030970Y-70645671D01*
X118020480Y-70667849D01*
X118007867Y-70688893D01*
X117993253Y-70708598D01*
X117976777Y-70726777D01*
X117958598Y-70743253D01*
X117938893Y-70757867D01*
X117917849Y-70770480D01*
X117895671Y-70780970D01*
X117872571Y-70789235D01*
X117848773Y-70795196D01*
X117824504Y-70798796D01*
X117800000Y-70800000D01*
X114800000Y-70800000D01*
X114775496Y-70798796D01*
X114751227Y-70795196D01*
X114727429Y-70789235D01*
X114704329Y-70780970D01*
X114682151Y-70770480D01*
X114661107Y-70757867D01*
X114641402Y-70743253D01*
X114623223Y-70726777D01*
X114606747Y-70708598D01*
X114592133Y-70688893D01*
X114579520Y-70667849D01*
X114569030Y-70645671D01*
X114560765Y-70622571D01*
X114554804Y-70598773D01*
X114551204Y-70574504D01*
X114550000Y-70550000D01*
X114550000Y-69450000D01*
X114551204Y-69425496D01*
X114554804Y-69401227D01*
X114560765Y-69377429D01*
X114569030Y-69354329D01*
X114579520Y-69332151D01*
X114592133Y-69311107D01*
X114606747Y-69291402D01*
X114623223Y-69273223D01*
X114641402Y-69256747D01*
X114661107Y-69242133D01*
X114682151Y-69229520D01*
X114704329Y-69219030D01*
X114727429Y-69210765D01*
X114751227Y-69204804D01*
X114775496Y-69201204D01*
X114800000Y-69200000D01*
X117800000Y-69200000D01*
X117824504Y-69201204D01*
X117824504Y-69201204D01*
G37*
D18*
G04 #@! TD*
G04 #@! TO.P,C1,2*
G04 #@! TO.N,GND*
X116300000Y-70000000D03*
D19*
G04 #@! TO.N,+5V*
X155000000Y-76000000D03*
X155000000Y-64500000D03*
G04 #@! TO.N,GND*
X149000000Y-67500000D03*
X153500000Y-63500000D03*
X150500000Y-75000000D03*
X115000000Y-68000000D03*
X115000000Y-72000000D03*
X117000000Y-68000000D03*
X116000000Y-68000000D03*
X116000000Y-72000000D03*
X117000000Y-72000000D03*
G04 #@! TD*
D20*
G04 #@! TO.N,Net-(D1-Pad1)*
X126750000Y-54000000D02*
X130125000Y-54000000D01*
D21*
G04 #@! TO.N,+24V*
X122250000Y-57000000D02*
X125250000Y-54000000D01*
X119000000Y-57000000D02*
X122250000Y-57000000D01*
X128999999Y-78700000D02*
X136999999Y-78700000D01*
X128999999Y-79699999D02*
X129999999Y-80699999D01*
X128999999Y-78700000D02*
X128999999Y-79699999D01*
X129999999Y-80699999D02*
X138000000Y-80699999D01*
X124000000Y-73700001D02*
X128999999Y-78700000D01*
X122250000Y-57000000D02*
X124000000Y-58750000D01*
X121700000Y-70000000D02*
X124000000Y-70000000D01*
X124000000Y-58750000D02*
X124000000Y-70000000D01*
X124000000Y-70000000D02*
X124000000Y-73700001D01*
D20*
G04 #@! TO.N,+5V*
X145224999Y-61399997D02*
X146225001Y-62399999D01*
X145224999Y-60400000D02*
X145224999Y-61399997D01*
X145224999Y-79699997D02*
X146225001Y-80699999D01*
X145224999Y-78700000D02*
X145224999Y-79699997D01*
X155549999Y-72089999D02*
X155000000Y-71540000D01*
X155875001Y-72415001D02*
X155549999Y-72089999D01*
X155875001Y-75124999D02*
X155875001Y-72415001D01*
X155000000Y-76000000D02*
X155875001Y-75124999D01*
X153730000Y-68222183D02*
X153730000Y-69000000D01*
X153730000Y-66758830D02*
X153730000Y-68222183D01*
X148786970Y-61815800D02*
X153730000Y-66758830D01*
X146809200Y-61815800D02*
X148786970Y-61815800D01*
X146225001Y-62399999D02*
X146809200Y-61815800D01*
X155549999Y-70990001D02*
X155000000Y-71540000D01*
X155875001Y-70664999D02*
X155549999Y-70990001D01*
X155875001Y-65375001D02*
X155875001Y-70664999D01*
X155000000Y-64500000D02*
X155875001Y-65375001D01*
G04 #@! TO.N,/MISO*
X146134201Y-68134201D02*
X149540000Y-71540000D01*
X146134201Y-65963584D02*
X146134201Y-68134201D01*
X145134201Y-61963582D02*
X145134201Y-64963584D01*
X144154818Y-60984199D02*
X145134201Y-61963582D01*
X149540000Y-71540000D02*
X152952183Y-71540000D01*
X143809200Y-60984199D02*
X144154818Y-60984199D01*
X152952183Y-71540000D02*
X153730000Y-71540000D01*
X143225001Y-60400000D02*
X143809200Y-60984199D01*
X145134201Y-64963584D02*
X146134201Y-65963584D01*
G04 #@! TO.N,/SCK*
X150173589Y-72810000D02*
X152952183Y-72810000D01*
X144134200Y-65963584D02*
X144134200Y-66770611D01*
X143315798Y-65145182D02*
X144134200Y-65963584D01*
X144134200Y-66770611D02*
X150173589Y-72810000D01*
X144225000Y-62399999D02*
X143315798Y-63309201D01*
X152952183Y-72810000D02*
X153730000Y-72810000D01*
X143315798Y-63309201D02*
X143315798Y-65145182D01*
G04 #@! TO.N,/SS1*
X141809199Y-59815801D02*
X141225000Y-60400000D01*
X142134201Y-59490799D02*
X141809199Y-59815801D01*
X147661418Y-59490799D02*
X142134201Y-59490799D01*
X155000000Y-66829381D02*
X147661418Y-59490799D01*
X155000000Y-69000000D02*
X155000000Y-66829381D01*
G04 #@! TO.N,/SS2*
X154450001Y-74629999D02*
X155000000Y-74080000D01*
X148441601Y-80638399D02*
X154450001Y-74629999D01*
X148290431Y-80638399D02*
X148441601Y-80638399D01*
X141225000Y-81045618D02*
X141788582Y-81609200D01*
X141225000Y-78700000D02*
X141225000Y-81045618D01*
X141788582Y-81609200D02*
X147470800Y-81609200D01*
X147470800Y-81609200D02*
X147738399Y-81341601D01*
X147738399Y-81341601D02*
X147738399Y-81190431D01*
X147738399Y-81190431D02*
X148290431Y-80638399D01*
G04 #@! TD*
D22*
G04 #@! TO.N,GND*
G36*
X159315001Y-86716263D02*
X158716265Y-87315000D01*
X111283736Y-87315000D01*
X110685000Y-86716265D01*
X110685000Y-85411873D01*
X128467733Y-85411873D01*
X128529138Y-85564153D01*
X128895676Y-85678565D01*
X129278097Y-85643999D01*
X129470862Y-85564153D01*
X129532267Y-85411873D01*
X130467732Y-85411873D01*
X130529137Y-85564153D01*
X130895675Y-85678565D01*
X131278096Y-85643999D01*
X131470861Y-85564153D01*
X131532266Y-85411873D01*
X132467733Y-85411873D01*
X132529138Y-85564153D01*
X132895676Y-85678565D01*
X133278097Y-85643999D01*
X133470862Y-85564153D01*
X133532267Y-85411873D01*
X134467734Y-85411873D01*
X134529139Y-85564153D01*
X134895677Y-85678565D01*
X135278098Y-85643999D01*
X135470863Y-85564153D01*
X135532268Y-85411873D01*
X136467732Y-85411873D01*
X136529137Y-85564153D01*
X136895675Y-85678565D01*
X137278096Y-85643999D01*
X137470861Y-85564153D01*
X137532266Y-85411873D01*
X140692733Y-85411873D01*
X140754138Y-85564153D01*
X141120676Y-85678565D01*
X141503097Y-85643999D01*
X141695862Y-85564153D01*
X141757267Y-85411873D01*
X142692732Y-85411873D01*
X142754137Y-85564153D01*
X143120675Y-85678565D01*
X143503096Y-85643999D01*
X143695861Y-85564153D01*
X143757266Y-85411873D01*
X144692733Y-85411873D01*
X144754138Y-85564153D01*
X145120676Y-85678565D01*
X145503097Y-85643999D01*
X145695862Y-85564153D01*
X145757267Y-85411873D01*
X146692734Y-85411873D01*
X146754139Y-85564153D01*
X147120677Y-85678565D01*
X147503098Y-85643999D01*
X147695863Y-85564153D01*
X147757268Y-85411873D01*
X147225001Y-84879606D01*
X146692734Y-85411873D01*
X145757267Y-85411873D01*
X145225000Y-84879606D01*
X144692733Y-85411873D01*
X143757266Y-85411873D01*
X143224999Y-84879606D01*
X142692732Y-85411873D01*
X141757267Y-85411873D01*
X141225000Y-84879606D01*
X140692733Y-85411873D01*
X137532266Y-85411873D01*
X136999999Y-84879606D01*
X136467732Y-85411873D01*
X135532268Y-85411873D01*
X135000001Y-84879606D01*
X134467734Y-85411873D01*
X133532267Y-85411873D01*
X133000000Y-84879606D01*
X132467733Y-85411873D01*
X131532266Y-85411873D01*
X130999999Y-84879606D01*
X130467732Y-85411873D01*
X129532267Y-85411873D01*
X129000000Y-84879606D01*
X128467733Y-85411873D01*
X110685000Y-85411873D01*
X110685000Y-84595677D01*
X128021436Y-84595677D01*
X128056002Y-84978098D01*
X128135848Y-85170863D01*
X128288128Y-85232268D01*
X128820395Y-84700001D01*
X129179605Y-84700001D01*
X129711872Y-85232268D01*
X129864152Y-85170863D01*
X129978564Y-84804325D01*
X129959705Y-84595677D01*
X130021435Y-84595677D01*
X130056001Y-84978098D01*
X130135847Y-85170863D01*
X130288127Y-85232268D01*
X130820394Y-84700001D01*
X131179604Y-84700001D01*
X131711871Y-85232268D01*
X131864151Y-85170863D01*
X131978563Y-84804325D01*
X131959704Y-84595677D01*
X132021436Y-84595677D01*
X132056002Y-84978098D01*
X132135848Y-85170863D01*
X132288128Y-85232268D01*
X132820395Y-84700001D01*
X133179605Y-84700001D01*
X133711872Y-85232268D01*
X133864152Y-85170863D01*
X133978564Y-84804325D01*
X133959705Y-84595677D01*
X134021437Y-84595677D01*
X134056003Y-84978098D01*
X134135849Y-85170863D01*
X134288129Y-85232268D01*
X134820396Y-84700001D01*
X135179606Y-84700001D01*
X135711873Y-85232268D01*
X135864153Y-85170863D01*
X135978565Y-84804325D01*
X135959706Y-84595677D01*
X136021435Y-84595677D01*
X136056001Y-84978098D01*
X136135847Y-85170863D01*
X136288127Y-85232268D01*
X136820394Y-84700001D01*
X137179604Y-84700001D01*
X137711871Y-85232268D01*
X137864151Y-85170863D01*
X137978563Y-84804325D01*
X137959704Y-84595677D01*
X140246436Y-84595677D01*
X140281002Y-84978098D01*
X140360848Y-85170863D01*
X140513128Y-85232268D01*
X141045395Y-84700001D01*
X141404605Y-84700001D01*
X141936872Y-85232268D01*
X142089152Y-85170863D01*
X142203564Y-84804325D01*
X142184705Y-84595677D01*
X142246435Y-84595677D01*
X142281001Y-84978098D01*
X142360847Y-85170863D01*
X142513127Y-85232268D01*
X143045394Y-84700001D01*
X143404604Y-84700001D01*
X143936871Y-85232268D01*
X144089151Y-85170863D01*
X144203563Y-84804325D01*
X144184704Y-84595677D01*
X144246436Y-84595677D01*
X144281002Y-84978098D01*
X144360848Y-85170863D01*
X144513128Y-85232268D01*
X145045395Y-84700001D01*
X145404605Y-84700001D01*
X145936872Y-85232268D01*
X146089152Y-85170863D01*
X146203564Y-84804325D01*
X146184705Y-84595677D01*
X146246437Y-84595677D01*
X146281003Y-84978098D01*
X146360849Y-85170863D01*
X146513129Y-85232268D01*
X147045396Y-84700001D01*
X147404606Y-84700001D01*
X147936873Y-85232268D01*
X148089153Y-85170863D01*
X148203565Y-84804325D01*
X148168999Y-84421904D01*
X148089153Y-84229139D01*
X147936873Y-84167734D01*
X147404606Y-84700001D01*
X147045396Y-84700001D01*
X146513129Y-84167734D01*
X146360849Y-84229139D01*
X146246437Y-84595677D01*
X146184705Y-84595677D01*
X146168998Y-84421904D01*
X146089152Y-84229139D01*
X145936872Y-84167734D01*
X145404605Y-84700001D01*
X145045395Y-84700001D01*
X144513128Y-84167734D01*
X144360848Y-84229139D01*
X144246436Y-84595677D01*
X144184704Y-84595677D01*
X144168997Y-84421904D01*
X144089151Y-84229139D01*
X143936871Y-84167734D01*
X143404604Y-84700001D01*
X143045394Y-84700001D01*
X142513127Y-84167734D01*
X142360847Y-84229139D01*
X142246435Y-84595677D01*
X142184705Y-84595677D01*
X142168998Y-84421904D01*
X142089152Y-84229139D01*
X141936872Y-84167734D01*
X141404605Y-84700001D01*
X141045395Y-84700001D01*
X140513128Y-84167734D01*
X140360848Y-84229139D01*
X140246436Y-84595677D01*
X137959704Y-84595677D01*
X137943997Y-84421904D01*
X137864151Y-84229139D01*
X137711871Y-84167734D01*
X137179604Y-84700001D01*
X136820394Y-84700001D01*
X136288127Y-84167734D01*
X136135847Y-84229139D01*
X136021435Y-84595677D01*
X135959706Y-84595677D01*
X135943999Y-84421904D01*
X135864153Y-84229139D01*
X135711873Y-84167734D01*
X135179606Y-84700001D01*
X134820396Y-84700001D01*
X134288129Y-84167734D01*
X134135849Y-84229139D01*
X134021437Y-84595677D01*
X133959705Y-84595677D01*
X133943998Y-84421904D01*
X133864152Y-84229139D01*
X133711872Y-84167734D01*
X133179605Y-84700001D01*
X132820395Y-84700001D01*
X132288128Y-84167734D01*
X132135848Y-84229139D01*
X132021436Y-84595677D01*
X131959704Y-84595677D01*
X131943997Y-84421904D01*
X131864151Y-84229139D01*
X131711871Y-84167734D01*
X131179604Y-84700001D01*
X130820394Y-84700001D01*
X130288127Y-84167734D01*
X130135847Y-84229139D01*
X130021435Y-84595677D01*
X129959705Y-84595677D01*
X129943998Y-84421904D01*
X129864152Y-84229139D01*
X129711872Y-84167734D01*
X129179605Y-84700001D01*
X128820395Y-84700001D01*
X128288128Y-84167734D01*
X128135848Y-84229139D01*
X128021436Y-84595677D01*
X110685000Y-84595677D01*
X110685000Y-81555431D01*
X113765000Y-81555431D01*
X113765000Y-82444569D01*
X114105259Y-83266026D01*
X114733974Y-83894741D01*
X115555431Y-84235000D01*
X116444569Y-84235000D01*
X117040567Y-83988129D01*
X128467733Y-83988129D01*
X129000000Y-84520396D01*
X129532267Y-83988129D01*
X130467732Y-83988129D01*
X130999999Y-84520396D01*
X131532266Y-83988129D01*
X132467733Y-83988129D01*
X133000000Y-84520396D01*
X133532267Y-83988129D01*
X134467734Y-83988129D01*
X135000001Y-84520396D01*
X135532268Y-83988129D01*
X136467732Y-83988129D01*
X136999999Y-84520396D01*
X137532266Y-83988129D01*
X140692733Y-83988129D01*
X141225000Y-84520396D01*
X141757267Y-83988129D01*
X142692732Y-83988129D01*
X143224999Y-84520396D01*
X143757266Y-83988129D01*
X144692733Y-83988129D01*
X145225000Y-84520396D01*
X145757267Y-83988129D01*
X146692734Y-83988129D01*
X147225001Y-84520396D01*
X147757268Y-83988129D01*
X147695863Y-83835849D01*
X147329325Y-83721437D01*
X146946904Y-83756003D01*
X146754139Y-83835849D01*
X146692734Y-83988129D01*
X145757267Y-83988129D01*
X145695862Y-83835849D01*
X145329324Y-83721437D01*
X144946903Y-83756003D01*
X144754138Y-83835849D01*
X144692733Y-83988129D01*
X143757266Y-83988129D01*
X143695861Y-83835849D01*
X143329323Y-83721437D01*
X142946902Y-83756003D01*
X142754137Y-83835849D01*
X142692732Y-83988129D01*
X141757267Y-83988129D01*
X141695862Y-83835849D01*
X141329324Y-83721437D01*
X140946903Y-83756003D01*
X140754138Y-83835849D01*
X140692733Y-83988129D01*
X137532266Y-83988129D01*
X137470861Y-83835849D01*
X137104323Y-83721437D01*
X136721902Y-83756003D01*
X136529137Y-83835849D01*
X136467732Y-83988129D01*
X135532268Y-83988129D01*
X135470863Y-83835849D01*
X135104325Y-83721437D01*
X134721904Y-83756003D01*
X134529139Y-83835849D01*
X134467734Y-83988129D01*
X133532267Y-83988129D01*
X133470862Y-83835849D01*
X133104324Y-83721437D01*
X132721903Y-83756003D01*
X132529138Y-83835849D01*
X132467733Y-83988129D01*
X131532266Y-83988129D01*
X131470861Y-83835849D01*
X131104323Y-83721437D01*
X130721902Y-83756003D01*
X130529137Y-83835849D01*
X130467732Y-83988129D01*
X129532267Y-83988129D01*
X129470862Y-83835849D01*
X129104324Y-83721437D01*
X128721903Y-83756003D01*
X128529138Y-83835849D01*
X128467733Y-83988129D01*
X117040567Y-83988129D01*
X117266026Y-83894741D01*
X117748895Y-83411872D01*
X127467732Y-83411872D01*
X127529137Y-83564152D01*
X127895675Y-83678564D01*
X128278096Y-83643998D01*
X128470861Y-83564152D01*
X128532266Y-83411872D01*
X129467734Y-83411872D01*
X129529139Y-83564152D01*
X129895677Y-83678564D01*
X130278098Y-83643998D01*
X130470863Y-83564152D01*
X130532268Y-83411872D01*
X131467732Y-83411872D01*
X131529137Y-83564152D01*
X131895675Y-83678564D01*
X132278096Y-83643998D01*
X132470861Y-83564152D01*
X132532266Y-83411872D01*
X133467733Y-83411872D01*
X133529138Y-83564152D01*
X133895676Y-83678564D01*
X134278097Y-83643998D01*
X134470862Y-83564152D01*
X134532267Y-83411872D01*
X135467732Y-83411872D01*
X135529137Y-83564152D01*
X135895675Y-83678564D01*
X136278096Y-83643998D01*
X136470861Y-83564152D01*
X136532266Y-83411872D01*
X137467733Y-83411872D01*
X137529138Y-83564152D01*
X137895676Y-83678564D01*
X138278097Y-83643998D01*
X138470862Y-83564152D01*
X138532267Y-83411872D01*
X141692734Y-83411872D01*
X141754139Y-83564152D01*
X142120677Y-83678564D01*
X142503098Y-83643998D01*
X142695863Y-83564152D01*
X142757268Y-83411872D01*
X143692732Y-83411872D01*
X143754137Y-83564152D01*
X144120675Y-83678564D01*
X144503096Y-83643998D01*
X144695861Y-83564152D01*
X144757266Y-83411872D01*
X144224999Y-82879605D01*
X143692732Y-83411872D01*
X142757268Y-83411872D01*
X142225001Y-82879605D01*
X141692734Y-83411872D01*
X138532267Y-83411872D01*
X138000000Y-82879605D01*
X137467733Y-83411872D01*
X136532266Y-83411872D01*
X135999999Y-82879605D01*
X135467732Y-83411872D01*
X134532267Y-83411872D01*
X134000000Y-82879605D01*
X133467733Y-83411872D01*
X132532266Y-83411872D01*
X131999999Y-82879605D01*
X131467732Y-83411872D01*
X130532268Y-83411872D01*
X130000001Y-82879605D01*
X129467734Y-83411872D01*
X128532266Y-83411872D01*
X127999999Y-82879605D01*
X127467732Y-83411872D01*
X117748895Y-83411872D01*
X117894741Y-83266026D01*
X118172409Y-82595676D01*
X127021435Y-82595676D01*
X127056001Y-82978097D01*
X127135847Y-83170862D01*
X127288127Y-83232267D01*
X127820394Y-82700000D01*
X128179604Y-82700000D01*
X128711871Y-83232267D01*
X128864151Y-83170862D01*
X128978563Y-82804324D01*
X128959704Y-82595676D01*
X129021437Y-82595676D01*
X129056003Y-82978097D01*
X129135849Y-83170862D01*
X129288129Y-83232267D01*
X129820396Y-82700000D01*
X130179606Y-82700000D01*
X130711873Y-83232267D01*
X130864153Y-83170862D01*
X130978565Y-82804324D01*
X130959706Y-82595676D01*
X131021435Y-82595676D01*
X131056001Y-82978097D01*
X131135847Y-83170862D01*
X131288127Y-83232267D01*
X131820394Y-82700000D01*
X132179604Y-82700000D01*
X132711871Y-83232267D01*
X132864151Y-83170862D01*
X132978563Y-82804324D01*
X132959704Y-82595676D01*
X133021436Y-82595676D01*
X133056002Y-82978097D01*
X133135848Y-83170862D01*
X133288128Y-83232267D01*
X133820395Y-82700000D01*
X134179605Y-82700000D01*
X134711872Y-83232267D01*
X134864152Y-83170862D01*
X134978564Y-82804324D01*
X134959705Y-82595676D01*
X135021435Y-82595676D01*
X135056001Y-82978097D01*
X135135847Y-83170862D01*
X135288127Y-83232267D01*
X135820394Y-82700000D01*
X136179604Y-82700000D01*
X136711871Y-83232267D01*
X136864151Y-83170862D01*
X136978563Y-82804324D01*
X136959704Y-82595676D01*
X137021436Y-82595676D01*
X137056002Y-82978097D01*
X137135848Y-83170862D01*
X137288128Y-83232267D01*
X137820395Y-82700000D01*
X137288128Y-82167733D01*
X137135848Y-82229138D01*
X137021436Y-82595676D01*
X136959704Y-82595676D01*
X136943997Y-82421903D01*
X136864151Y-82229138D01*
X136711871Y-82167733D01*
X136179604Y-82700000D01*
X135820394Y-82700000D01*
X135288127Y-82167733D01*
X135135847Y-82229138D01*
X135021435Y-82595676D01*
X134959705Y-82595676D01*
X134943998Y-82421903D01*
X134864152Y-82229138D01*
X134711872Y-82167733D01*
X134179605Y-82700000D01*
X133820395Y-82700000D01*
X133288128Y-82167733D01*
X133135848Y-82229138D01*
X133021436Y-82595676D01*
X132959704Y-82595676D01*
X132943997Y-82421903D01*
X132864151Y-82229138D01*
X132711871Y-82167733D01*
X132179604Y-82700000D01*
X131820394Y-82700000D01*
X131288127Y-82167733D01*
X131135847Y-82229138D01*
X131021435Y-82595676D01*
X130959706Y-82595676D01*
X130943999Y-82421903D01*
X130864153Y-82229138D01*
X130711873Y-82167733D01*
X130179606Y-82700000D01*
X129820396Y-82700000D01*
X129288129Y-82167733D01*
X129135849Y-82229138D01*
X129021437Y-82595676D01*
X128959704Y-82595676D01*
X128943997Y-82421903D01*
X128864151Y-82229138D01*
X128711871Y-82167733D01*
X128179604Y-82700000D01*
X127820394Y-82700000D01*
X127288127Y-82167733D01*
X127135847Y-82229138D01*
X127021435Y-82595676D01*
X118172409Y-82595676D01*
X118235000Y-82444569D01*
X118235000Y-81555431D01*
X117894741Y-80733974D01*
X117266026Y-80105259D01*
X116444569Y-79765000D01*
X115555431Y-79765000D01*
X114733974Y-80105259D01*
X114105259Y-80733974D01*
X113765000Y-81555431D01*
X110685000Y-81555431D01*
X110685000Y-70222250D01*
X114169000Y-70222250D01*
X114169000Y-70875785D01*
X114227004Y-71015819D01*
X114334180Y-71122996D01*
X114474214Y-71181000D01*
X116077750Y-71181000D01*
X116173000Y-71085750D01*
X116173000Y-70127000D01*
X116427000Y-70127000D01*
X116427000Y-71085750D01*
X116522250Y-71181000D01*
X118125786Y-71181000D01*
X118265820Y-71122996D01*
X118372996Y-71015819D01*
X118431000Y-70875785D01*
X118431000Y-70222250D01*
X118335750Y-70127000D01*
X116427000Y-70127000D01*
X116173000Y-70127000D01*
X114264250Y-70127000D01*
X114169000Y-70222250D01*
X110685000Y-70222250D01*
X110685000Y-69124215D01*
X114169000Y-69124215D01*
X114169000Y-69777750D01*
X114264250Y-69873000D01*
X116173000Y-69873000D01*
X116173000Y-68914250D01*
X116427000Y-68914250D01*
X116427000Y-69873000D01*
X118335750Y-69873000D01*
X118431000Y-69777750D01*
X118431000Y-69124215D01*
X118372996Y-68984181D01*
X118265820Y-68877004D01*
X118125786Y-68819000D01*
X116522250Y-68819000D01*
X116427000Y-68914250D01*
X116173000Y-68914250D01*
X116077750Y-68819000D01*
X114474214Y-68819000D01*
X114334180Y-68877004D01*
X114227004Y-68984181D01*
X114169000Y-69124215D01*
X110685000Y-69124215D01*
X110685000Y-62222250D01*
X117369000Y-62222250D01*
X117369000Y-63325786D01*
X117427004Y-63465820D01*
X117534181Y-63572996D01*
X117674215Y-63631000D01*
X118777750Y-63631000D01*
X118873000Y-63535750D01*
X118873000Y-62127000D01*
X119127000Y-62127000D01*
X119127000Y-63535750D01*
X119222250Y-63631000D01*
X120325785Y-63631000D01*
X120465819Y-63572996D01*
X120572996Y-63465820D01*
X120631000Y-63325786D01*
X120631000Y-62222250D01*
X120535750Y-62127000D01*
X119127000Y-62127000D01*
X118873000Y-62127000D01*
X117464250Y-62127000D01*
X117369000Y-62222250D01*
X110685000Y-62222250D01*
X110685000Y-60674214D01*
X117369000Y-60674214D01*
X117369000Y-61777750D01*
X117464250Y-61873000D01*
X118873000Y-61873000D01*
X118873000Y-60464250D01*
X119127000Y-60464250D01*
X119127000Y-61873000D01*
X120535750Y-61873000D01*
X120631000Y-61777750D01*
X120631000Y-60674214D01*
X120572996Y-60534180D01*
X120465819Y-60427004D01*
X120325785Y-60369000D01*
X119222250Y-60369000D01*
X119127000Y-60464250D01*
X118873000Y-60464250D01*
X118777750Y-60369000D01*
X117674215Y-60369000D01*
X117534181Y-60427004D01*
X117427004Y-60534180D01*
X117369000Y-60674214D01*
X110685000Y-60674214D01*
X110685000Y-56625050D01*
X117115000Y-56625050D01*
X117115000Y-57374950D01*
X117401974Y-58067767D01*
X117932233Y-58598026D01*
X118625050Y-58885000D01*
X119374950Y-58885000D01*
X120067767Y-58598026D01*
X120530793Y-58135000D01*
X121779869Y-58135000D01*
X122865000Y-59220132D01*
X122865001Y-68552560D01*
X120200000Y-68552560D01*
X119856565Y-68620874D01*
X119565414Y-68815414D01*
X119370874Y-69106565D01*
X119302560Y-69450000D01*
X119302560Y-70550000D01*
X119370874Y-70893435D01*
X119565414Y-71184586D01*
X119856565Y-71379126D01*
X120200000Y-71447440D01*
X122865000Y-71447440D01*
X122865001Y-73588213D01*
X122842765Y-73700001D01*
X122930854Y-74142855D01*
X122953076Y-74176112D01*
X123181712Y-74518290D01*
X123276480Y-74581612D01*
X127864999Y-79170132D01*
X127864999Y-79480799D01*
X127757486Y-79480799D01*
X127309378Y-79666411D01*
X126966412Y-80009377D01*
X126780800Y-80457485D01*
X126780800Y-80942513D01*
X126966412Y-81390621D01*
X127309378Y-81733587D01*
X127542698Y-81830231D01*
X127529137Y-81835848D01*
X127467732Y-81988128D01*
X127999999Y-82520395D01*
X128532266Y-81988128D01*
X128470861Y-81835848D01*
X128455396Y-81831021D01*
X128690622Y-81733587D01*
X129000000Y-81424210D01*
X129309377Y-81733587D01*
X129542698Y-81830232D01*
X129529139Y-81835848D01*
X129467734Y-81988128D01*
X130000001Y-82520395D01*
X130532268Y-81988128D01*
X130470863Y-81835848D01*
X130468143Y-81834999D01*
X131531187Y-81834999D01*
X131529137Y-81835848D01*
X131467732Y-81988128D01*
X131999999Y-82520395D01*
X132532266Y-81988128D01*
X132470861Y-81835848D01*
X132468141Y-81834999D01*
X133531188Y-81834999D01*
X133529138Y-81835848D01*
X133467733Y-81988128D01*
X134000000Y-82520395D01*
X134532267Y-81988128D01*
X134470862Y-81835848D01*
X134468142Y-81834999D01*
X135531187Y-81834999D01*
X135529137Y-81835848D01*
X135467732Y-81988128D01*
X135999999Y-82520395D01*
X136532266Y-81988128D01*
X136470861Y-81835848D01*
X136468141Y-81834999D01*
X137531188Y-81834999D01*
X137529138Y-81835848D01*
X137467733Y-81988128D01*
X138000000Y-82520395D01*
X138014143Y-82506253D01*
X138193748Y-82685858D01*
X138179605Y-82700000D01*
X138711872Y-83232267D01*
X138864152Y-83170862D01*
X138950325Y-82894794D01*
X139377172Y-83071600D01*
X139922828Y-83071600D01*
X140426949Y-82862786D01*
X140812786Y-82476949D01*
X141021600Y-81972828D01*
X141021600Y-81917020D01*
X141198254Y-82093675D01*
X141240653Y-82157129D01*
X141304106Y-82199527D01*
X141304108Y-82199529D01*
X141358704Y-82236009D01*
X141246437Y-82595676D01*
X141281003Y-82978097D01*
X141360849Y-83170862D01*
X141513129Y-83232267D01*
X142045396Y-82700000D01*
X142031254Y-82685858D01*
X142210859Y-82506253D01*
X142225001Y-82520395D01*
X142239144Y-82506253D01*
X142418749Y-82685858D01*
X142404606Y-82700000D01*
X142936873Y-83232267D01*
X143089153Y-83170862D01*
X143203565Y-82804324D01*
X143168999Y-82421903D01*
X143147169Y-82369200D01*
X143317128Y-82369200D01*
X143246435Y-82595676D01*
X143281001Y-82978097D01*
X143360847Y-83170862D01*
X143513127Y-83232267D01*
X144045394Y-82700000D01*
X144031252Y-82685858D01*
X144210857Y-82506253D01*
X144224999Y-82520395D01*
X144239142Y-82506253D01*
X144418747Y-82685858D01*
X144404604Y-82700000D01*
X144936871Y-83232267D01*
X145089151Y-83170862D01*
X145093979Y-83155395D01*
X145191413Y-83390622D01*
X145534379Y-83733588D01*
X145982487Y-83919200D01*
X146467515Y-83919200D01*
X146915623Y-83733588D01*
X147258589Y-83390622D01*
X147444201Y-82942514D01*
X147444201Y-82457486D01*
X147408680Y-82371732D01*
X147470800Y-82384088D01*
X147545647Y-82369200D01*
X147545652Y-82369200D01*
X147589010Y-82360575D01*
X147637214Y-82476949D01*
X148023051Y-82862786D01*
X148527172Y-83071600D01*
X149072828Y-83071600D01*
X149576949Y-82862786D01*
X149962786Y-82476949D01*
X150171600Y-81972828D01*
X150171600Y-81427172D01*
X149962786Y-80923051D01*
X149597268Y-80557533D01*
X153965000Y-76189802D01*
X153965000Y-76205874D01*
X154122569Y-76586280D01*
X154413720Y-76877431D01*
X154794126Y-77035000D01*
X155205874Y-77035000D01*
X155586280Y-76877431D01*
X155877431Y-76586280D01*
X156035000Y-76205874D01*
X156035000Y-76039802D01*
X156359474Y-75715328D01*
X156422930Y-75672928D01*
X156590905Y-75421536D01*
X156635001Y-75199851D01*
X156635001Y-75199847D01*
X156649889Y-75125000D01*
X156635001Y-75050153D01*
X156635001Y-72489847D01*
X156649889Y-72415000D01*
X156635001Y-72340153D01*
X156635001Y-72340149D01*
X156590905Y-72118464D01*
X156422930Y-71867072D01*
X156359471Y-71824670D01*
X156185000Y-71650199D01*
X156185000Y-71429801D01*
X156359471Y-71255330D01*
X156422930Y-71212928D01*
X156590905Y-70961536D01*
X156635001Y-70739851D01*
X156635001Y-70739847D01*
X156649889Y-70665000D01*
X156635001Y-70590153D01*
X156635001Y-65449847D01*
X156649889Y-65375000D01*
X156635001Y-65300153D01*
X156635001Y-65300149D01*
X156590905Y-65078464D01*
X156422930Y-64827072D01*
X156359474Y-64784672D01*
X156035000Y-64460198D01*
X156035000Y-64294126D01*
X155877431Y-63913720D01*
X155586280Y-63622569D01*
X155205874Y-63465000D01*
X154794126Y-63465000D01*
X154413720Y-63622569D01*
X154122569Y-63913720D01*
X153965000Y-64294126D01*
X153965000Y-64705874D01*
X153974691Y-64729270D01*
X148251749Y-59006329D01*
X148209347Y-58942870D01*
X147957955Y-58774895D01*
X147736270Y-58730799D01*
X147736265Y-58730799D01*
X147661418Y-58715911D01*
X147586571Y-58730799D01*
X142209047Y-58730799D01*
X142134200Y-58715911D01*
X142059353Y-58730799D01*
X142059349Y-58730799D01*
X141837664Y-58774895D01*
X141586272Y-58942870D01*
X141543870Y-59006329D01*
X141369399Y-59180800D01*
X140982486Y-59180800D01*
X140534378Y-59366412D01*
X140191412Y-59709378D01*
X140005800Y-60157486D01*
X140005800Y-60642514D01*
X140191412Y-61090622D01*
X140534378Y-61433588D01*
X140982486Y-61619200D01*
X141281588Y-61619200D01*
X141191411Y-61709377D01*
X141005799Y-62157485D01*
X141005799Y-62642513D01*
X141191411Y-63090621D01*
X141534377Y-63433587D01*
X141767698Y-63530232D01*
X141754139Y-63535848D01*
X141692734Y-63688128D01*
X142225001Y-64220395D01*
X142239144Y-64206253D01*
X142418749Y-64385858D01*
X142404606Y-64400000D01*
X142418749Y-64414143D01*
X142239144Y-64593748D01*
X142225001Y-64579605D01*
X141692734Y-65111872D01*
X141754139Y-65264152D01*
X142120677Y-65378564D01*
X142503098Y-65343998D01*
X142574568Y-65314394D01*
X142599895Y-65441719D01*
X142719758Y-65621106D01*
X142692732Y-65688129D01*
X143224999Y-66220396D01*
X143239142Y-66206254D01*
X143374200Y-66341312D01*
X143374200Y-66458690D01*
X143239142Y-66593749D01*
X143224999Y-66579606D01*
X142692732Y-67111873D01*
X142754137Y-67264153D01*
X143120675Y-67378565D01*
X143503096Y-67343999D01*
X143581565Y-67311496D01*
X143586272Y-67318540D01*
X143649728Y-67360940D01*
X149583260Y-73294473D01*
X149625660Y-73357929D01*
X149689116Y-73400329D01*
X149877051Y-73525904D01*
X149925194Y-73535480D01*
X150098737Y-73570000D01*
X150098741Y-73570000D01*
X150173589Y-73584888D01*
X150248437Y-73570000D01*
X152814156Y-73570000D01*
X152889530Y-73645374D01*
X152785640Y-73983888D01*
X152820744Y-74352595D01*
X152894305Y-74530187D01*
X153043051Y-74587344D01*
X153550395Y-74080000D01*
X153536253Y-74065858D01*
X153607110Y-73995000D01*
X153815000Y-73995000D01*
X153815000Y-74190198D01*
X153737797Y-74267402D01*
X153730000Y-74259605D01*
X153222656Y-74766949D01*
X153226985Y-74778214D01*
X148104756Y-79900443D01*
X147993894Y-79922495D01*
X147742502Y-80090470D01*
X147700102Y-80153926D01*
X147430242Y-80423786D01*
X147258589Y-80009377D01*
X147168412Y-79919200D01*
X147467515Y-79919200D01*
X147915623Y-79733588D01*
X148258589Y-79390622D01*
X148444201Y-78942514D01*
X148444201Y-78457486D01*
X148258589Y-78009378D01*
X147915623Y-77666412D01*
X147467515Y-77480800D01*
X146982487Y-77480800D01*
X146534379Y-77666412D01*
X146225000Y-77975791D01*
X145915621Y-77666412D01*
X145467513Y-77480800D01*
X144982485Y-77480800D01*
X144534377Y-77666412D01*
X144225000Y-77975789D01*
X143915623Y-77666412D01*
X143467515Y-77480800D01*
X142982487Y-77480800D01*
X142534379Y-77666412D01*
X142225001Y-77975791D01*
X141915622Y-77666412D01*
X141467514Y-77480800D01*
X140982486Y-77480800D01*
X140534378Y-77666412D01*
X140191412Y-78009378D01*
X140005800Y-78457486D01*
X140005800Y-78942514D01*
X140191412Y-79390622D01*
X140465000Y-79664210D01*
X140465001Y-80575266D01*
X140426949Y-80537214D01*
X139922828Y-80328400D01*
X139377172Y-80328400D01*
X139196696Y-80403156D01*
X139033588Y-80009377D01*
X138690622Y-79666411D01*
X138242514Y-79480799D01*
X137943410Y-79480799D01*
X138033587Y-79390622D01*
X138219199Y-78942514D01*
X138219199Y-78457486D01*
X138033587Y-78009378D01*
X137690621Y-77666412D01*
X137242513Y-77480800D01*
X136757485Y-77480800D01*
X136554208Y-77565000D01*
X135445791Y-77565000D01*
X135242514Y-77480800D01*
X134757486Y-77480800D01*
X134554209Y-77565000D01*
X133445790Y-77565000D01*
X133242513Y-77480800D01*
X132757485Y-77480800D01*
X132554208Y-77565000D01*
X131445792Y-77565000D01*
X131242515Y-77480800D01*
X130757487Y-77480800D01*
X130554210Y-77565000D01*
X129470131Y-77565000D01*
X125135000Y-73229870D01*
X125135000Y-70111783D01*
X125157235Y-70000000D01*
X125135000Y-69888217D01*
X125135000Y-67111873D01*
X128467733Y-67111873D01*
X128529138Y-67264153D01*
X128895676Y-67378565D01*
X129278097Y-67343999D01*
X129470862Y-67264153D01*
X129532267Y-67111873D01*
X130467732Y-67111873D01*
X130529137Y-67264153D01*
X130895675Y-67378565D01*
X131278096Y-67343999D01*
X131470861Y-67264153D01*
X131532266Y-67111873D01*
X132467733Y-67111873D01*
X132529138Y-67264153D01*
X132895676Y-67378565D01*
X133278097Y-67343999D01*
X133470862Y-67264153D01*
X133532267Y-67111873D01*
X134467734Y-67111873D01*
X134529139Y-67264153D01*
X134895677Y-67378565D01*
X135278098Y-67343999D01*
X135470863Y-67264153D01*
X135532268Y-67111873D01*
X136467732Y-67111873D01*
X136529137Y-67264153D01*
X136895675Y-67378565D01*
X137278096Y-67343999D01*
X137470861Y-67264153D01*
X137532266Y-67111873D01*
X140692733Y-67111873D01*
X140754138Y-67264153D01*
X141120676Y-67378565D01*
X141503097Y-67343999D01*
X141695862Y-67264153D01*
X141757267Y-67111873D01*
X141225000Y-66579606D01*
X140692733Y-67111873D01*
X137532266Y-67111873D01*
X136999999Y-66579606D01*
X136467732Y-67111873D01*
X135532268Y-67111873D01*
X135000001Y-66579606D01*
X134467734Y-67111873D01*
X133532267Y-67111873D01*
X133000000Y-66579606D01*
X132467733Y-67111873D01*
X131532266Y-67111873D01*
X130999999Y-66579606D01*
X130467732Y-67111873D01*
X129532267Y-67111873D01*
X129000000Y-66579606D01*
X128467733Y-67111873D01*
X125135000Y-67111873D01*
X125135000Y-66295677D01*
X128021436Y-66295677D01*
X128056002Y-66678098D01*
X128135848Y-66870863D01*
X128288128Y-66932268D01*
X128820395Y-66400001D01*
X129179605Y-66400001D01*
X129711872Y-66932268D01*
X129864152Y-66870863D01*
X129978564Y-66504325D01*
X129959705Y-66295677D01*
X130021435Y-66295677D01*
X130056001Y-66678098D01*
X130135847Y-66870863D01*
X130288127Y-66932268D01*
X130820394Y-66400001D01*
X131179604Y-66400001D01*
X131711871Y-66932268D01*
X131864151Y-66870863D01*
X131978563Y-66504325D01*
X131959704Y-66295677D01*
X132021436Y-66295677D01*
X132056002Y-66678098D01*
X132135848Y-66870863D01*
X132288128Y-66932268D01*
X132820395Y-66400001D01*
X133179605Y-66400001D01*
X133711872Y-66932268D01*
X133864152Y-66870863D01*
X133978564Y-66504325D01*
X133959705Y-66295677D01*
X134021437Y-66295677D01*
X134056003Y-66678098D01*
X134135849Y-66870863D01*
X134288129Y-66932268D01*
X134820396Y-66400001D01*
X135179606Y-66400001D01*
X135711873Y-66932268D01*
X135864153Y-66870863D01*
X135978565Y-66504325D01*
X135959706Y-66295677D01*
X136021435Y-66295677D01*
X136056001Y-66678098D01*
X136135847Y-66870863D01*
X136288127Y-66932268D01*
X136820394Y-66400001D01*
X137179604Y-66400001D01*
X137711871Y-66932268D01*
X137864151Y-66870863D01*
X137978563Y-66504325D01*
X137959704Y-66295677D01*
X140246436Y-66295677D01*
X140281002Y-66678098D01*
X140360848Y-66870863D01*
X140513128Y-66932268D01*
X141045395Y-66400001D01*
X141404605Y-66400001D01*
X141936872Y-66932268D01*
X142089152Y-66870863D01*
X142203564Y-66504325D01*
X142184705Y-66295677D01*
X142246435Y-66295677D01*
X142281001Y-66678098D01*
X142360847Y-66870863D01*
X142513127Y-66932268D01*
X143045394Y-66400001D01*
X142513127Y-65867734D01*
X142360847Y-65929139D01*
X142246435Y-66295677D01*
X142184705Y-66295677D01*
X142168998Y-66121904D01*
X142089152Y-65929139D01*
X141936872Y-65867734D01*
X141404605Y-66400001D01*
X141045395Y-66400001D01*
X140513128Y-65867734D01*
X140360848Y-65929139D01*
X140246436Y-66295677D01*
X137959704Y-66295677D01*
X137943997Y-66121904D01*
X137864151Y-65929139D01*
X137711871Y-65867734D01*
X137179604Y-66400001D01*
X136820394Y-66400001D01*
X136288127Y-65867734D01*
X136135847Y-65929139D01*
X136021435Y-66295677D01*
X135959706Y-66295677D01*
X135943999Y-66121904D01*
X135864153Y-65929139D01*
X135711873Y-65867734D01*
X135179606Y-66400001D01*
X134820396Y-66400001D01*
X134288129Y-65867734D01*
X134135849Y-65929139D01*
X134021437Y-66295677D01*
X133959705Y-66295677D01*
X133943998Y-66121904D01*
X133864152Y-65929139D01*
X133711872Y-65867734D01*
X133179605Y-66400001D01*
X132820395Y-66400001D01*
X132288128Y-65867734D01*
X132135848Y-65929139D01*
X132021436Y-66295677D01*
X131959704Y-66295677D01*
X131943997Y-66121904D01*
X131864151Y-65929139D01*
X131711871Y-65867734D01*
X131179604Y-66400001D01*
X130820394Y-66400001D01*
X130288127Y-65867734D01*
X130135847Y-65929139D01*
X130021435Y-66295677D01*
X129959705Y-66295677D01*
X129943998Y-66121904D01*
X129864152Y-65929139D01*
X129711872Y-65867734D01*
X129179605Y-66400001D01*
X128820395Y-66400001D01*
X128288128Y-65867734D01*
X128135848Y-65929139D01*
X128021436Y-66295677D01*
X125135000Y-66295677D01*
X125135000Y-65688129D01*
X128467733Y-65688129D01*
X129000000Y-66220396D01*
X129532267Y-65688129D01*
X130467732Y-65688129D01*
X130999999Y-66220396D01*
X131532266Y-65688129D01*
X132467733Y-65688129D01*
X133000000Y-66220396D01*
X133532267Y-65688129D01*
X134467734Y-65688129D01*
X135000001Y-66220396D01*
X135532268Y-65688129D01*
X136467732Y-65688129D01*
X136999999Y-66220396D01*
X137532266Y-65688129D01*
X140692733Y-65688129D01*
X141225000Y-66220396D01*
X141757267Y-65688129D01*
X141695862Y-65535849D01*
X141329324Y-65421437D01*
X140946903Y-65456003D01*
X140754138Y-65535849D01*
X140692733Y-65688129D01*
X137532266Y-65688129D01*
X137470861Y-65535849D01*
X137104323Y-65421437D01*
X136721902Y-65456003D01*
X136529137Y-65535849D01*
X136467732Y-65688129D01*
X135532268Y-65688129D01*
X135470863Y-65535849D01*
X135104325Y-65421437D01*
X134721904Y-65456003D01*
X134529139Y-65535849D01*
X134467734Y-65688129D01*
X133532267Y-65688129D01*
X133470862Y-65535849D01*
X133104324Y-65421437D01*
X132721903Y-65456003D01*
X132529138Y-65535849D01*
X132467733Y-65688129D01*
X131532266Y-65688129D01*
X131470861Y-65535849D01*
X131104323Y-65421437D01*
X130721902Y-65456003D01*
X130529137Y-65535849D01*
X130467732Y-65688129D01*
X129532267Y-65688129D01*
X129470862Y-65535849D01*
X129104324Y-65421437D01*
X128721903Y-65456003D01*
X128529138Y-65535849D01*
X128467733Y-65688129D01*
X125135000Y-65688129D01*
X125135000Y-65111872D01*
X127467732Y-65111872D01*
X127529137Y-65264152D01*
X127895675Y-65378564D01*
X128278096Y-65343998D01*
X128470861Y-65264152D01*
X128532266Y-65111872D01*
X129467734Y-65111872D01*
X129529139Y-65264152D01*
X129895677Y-65378564D01*
X130278098Y-65343998D01*
X130470863Y-65264152D01*
X130532268Y-65111872D01*
X131467732Y-65111872D01*
X131529137Y-65264152D01*
X131895675Y-65378564D01*
X132278096Y-65343998D01*
X132470861Y-65264152D01*
X132532266Y-65111872D01*
X133467733Y-65111872D01*
X133529138Y-65264152D01*
X133895676Y-65378564D01*
X134278097Y-65343998D01*
X134470862Y-65264152D01*
X134532267Y-65111872D01*
X135467732Y-65111872D01*
X135529137Y-65264152D01*
X135895675Y-65378564D01*
X136278096Y-65343998D01*
X136470861Y-65264152D01*
X136532266Y-65111872D01*
X137467733Y-65111872D01*
X137529138Y-65264152D01*
X137895676Y-65378564D01*
X138278097Y-65343998D01*
X138470862Y-65264152D01*
X138532267Y-65111872D01*
X138000000Y-64579605D01*
X137467733Y-65111872D01*
X136532266Y-65111872D01*
X135999999Y-64579605D01*
X135467732Y-65111872D01*
X134532267Y-65111872D01*
X134000000Y-64579605D01*
X133467733Y-65111872D01*
X132532266Y-65111872D01*
X131999999Y-64579605D01*
X131467732Y-65111872D01*
X130532268Y-65111872D01*
X130000001Y-64579605D01*
X129467734Y-65111872D01*
X128532266Y-65111872D01*
X127999999Y-64579605D01*
X127467732Y-65111872D01*
X125135000Y-65111872D01*
X125135000Y-64295676D01*
X127021435Y-64295676D01*
X127056001Y-64678097D01*
X127135847Y-64870862D01*
X127288127Y-64932267D01*
X127820394Y-64400000D01*
X128179604Y-64400000D01*
X128711871Y-64932267D01*
X128864151Y-64870862D01*
X128978563Y-64504324D01*
X128959704Y-64295676D01*
X129021437Y-64295676D01*
X129056003Y-64678097D01*
X129135849Y-64870862D01*
X129288129Y-64932267D01*
X129820396Y-64400000D01*
X130179606Y-64400000D01*
X130711873Y-64932267D01*
X130864153Y-64870862D01*
X130978565Y-64504324D01*
X130959706Y-64295676D01*
X131021435Y-64295676D01*
X131056001Y-64678097D01*
X131135847Y-64870862D01*
X131288127Y-64932267D01*
X131820394Y-64400000D01*
X132179604Y-64400000D01*
X132711871Y-64932267D01*
X132864151Y-64870862D01*
X132978563Y-64504324D01*
X132959704Y-64295676D01*
X133021436Y-64295676D01*
X133056002Y-64678097D01*
X133135848Y-64870862D01*
X133288128Y-64932267D01*
X133820395Y-64400000D01*
X134179605Y-64400000D01*
X134711872Y-64932267D01*
X134864152Y-64870862D01*
X134978564Y-64504324D01*
X134959705Y-64295676D01*
X135021435Y-64295676D01*
X135056001Y-64678097D01*
X135135847Y-64870862D01*
X135288127Y-64932267D01*
X135820394Y-64400000D01*
X136179604Y-64400000D01*
X136711871Y-64932267D01*
X136864151Y-64870862D01*
X136978563Y-64504324D01*
X136959704Y-64295676D01*
X137021436Y-64295676D01*
X137056002Y-64678097D01*
X137135848Y-64870862D01*
X137288128Y-64932267D01*
X137820395Y-64400000D01*
X137288128Y-63867733D01*
X137135848Y-63929138D01*
X137021436Y-64295676D01*
X136959704Y-64295676D01*
X136943997Y-64121903D01*
X136864151Y-63929138D01*
X136711871Y-63867733D01*
X136179604Y-64400000D01*
X135820394Y-64400000D01*
X135288127Y-63867733D01*
X135135847Y-63929138D01*
X135021435Y-64295676D01*
X134959705Y-64295676D01*
X134943998Y-64121903D01*
X134864152Y-63929138D01*
X134711872Y-63867733D01*
X134179605Y-64400000D01*
X133820395Y-64400000D01*
X133288128Y-63867733D01*
X133135848Y-63929138D01*
X133021436Y-64295676D01*
X132959704Y-64295676D01*
X132943997Y-64121903D01*
X132864151Y-63929138D01*
X132711871Y-63867733D01*
X132179604Y-64400000D01*
X131820394Y-64400000D01*
X131288127Y-63867733D01*
X131135847Y-63929138D01*
X131021435Y-64295676D01*
X130959706Y-64295676D01*
X130943999Y-64121903D01*
X130864153Y-63929138D01*
X130711873Y-63867733D01*
X130179606Y-64400000D01*
X129820396Y-64400000D01*
X129288129Y-63867733D01*
X129135849Y-63929138D01*
X129021437Y-64295676D01*
X128959704Y-64295676D01*
X128943997Y-64121903D01*
X128864151Y-63929138D01*
X128711871Y-63867733D01*
X128179604Y-64400000D01*
X127820394Y-64400000D01*
X127288127Y-63867733D01*
X127135847Y-63929138D01*
X127021435Y-64295676D01*
X125135000Y-64295676D01*
X125135000Y-62157485D01*
X126780800Y-62157485D01*
X126780800Y-62642513D01*
X126966412Y-63090621D01*
X127309378Y-63433587D01*
X127542698Y-63530231D01*
X127529137Y-63535848D01*
X127467732Y-63688128D01*
X127999999Y-64220395D01*
X128532266Y-63688128D01*
X128470861Y-63535848D01*
X128455396Y-63531021D01*
X128690622Y-63433587D01*
X129000000Y-63124210D01*
X129309377Y-63433587D01*
X129542698Y-63530232D01*
X129529139Y-63535848D01*
X129467734Y-63688128D01*
X130000001Y-64220395D01*
X130532268Y-63688128D01*
X130470863Y-63535848D01*
X130455396Y-63531020D01*
X130690621Y-63433587D01*
X131000000Y-63124209D01*
X131309378Y-63433587D01*
X131542698Y-63530231D01*
X131529137Y-63535848D01*
X131467732Y-63688128D01*
X131999999Y-64220395D01*
X132532266Y-63688128D01*
X132470861Y-63535848D01*
X132455396Y-63531021D01*
X132690622Y-63433587D01*
X133000001Y-63124209D01*
X133309379Y-63433587D01*
X133542699Y-63530231D01*
X133529138Y-63535848D01*
X133467733Y-63688128D01*
X134000000Y-64220395D01*
X134532267Y-63688128D01*
X134470862Y-63535848D01*
X134455397Y-63531021D01*
X134690623Y-63433587D01*
X135000000Y-63124210D01*
X135309377Y-63433587D01*
X135542697Y-63530231D01*
X135529137Y-63535848D01*
X135467732Y-63688128D01*
X135999999Y-64220395D01*
X136532266Y-63688128D01*
X136470861Y-63535848D01*
X136455395Y-63531020D01*
X136690621Y-63433587D01*
X137000000Y-63124209D01*
X137309378Y-63433587D01*
X137542698Y-63530231D01*
X137529138Y-63535848D01*
X137467733Y-63688128D01*
X138000000Y-64220395D01*
X138014143Y-64206253D01*
X138193748Y-64385858D01*
X138179605Y-64400000D01*
X138711872Y-64932267D01*
X138864152Y-64870862D01*
X138950325Y-64594794D01*
X139377172Y-64771600D01*
X139922828Y-64771600D01*
X140426949Y-64562786D01*
X140694059Y-64295676D01*
X141246437Y-64295676D01*
X141281003Y-64678097D01*
X141360849Y-64870862D01*
X141513129Y-64932267D01*
X142045396Y-64400000D01*
X141513129Y-63867733D01*
X141360849Y-63929138D01*
X141246437Y-64295676D01*
X140694059Y-64295676D01*
X140812786Y-64176949D01*
X141021600Y-63672828D01*
X141021600Y-63127172D01*
X140812786Y-62623051D01*
X140426949Y-62237214D01*
X139922828Y-62028400D01*
X139377172Y-62028400D01*
X139196696Y-62103156D01*
X139033588Y-61709377D01*
X138690622Y-61366411D01*
X138242514Y-61180799D01*
X137943410Y-61180799D01*
X138033587Y-61090622D01*
X138219199Y-60642514D01*
X138219199Y-60157486D01*
X138033587Y-59709378D01*
X137690621Y-59366412D01*
X137242513Y-59180800D01*
X136757485Y-59180800D01*
X136309377Y-59366412D01*
X136000000Y-59675790D01*
X135690622Y-59366412D01*
X135242514Y-59180800D01*
X134757486Y-59180800D01*
X134309378Y-59366412D01*
X134000000Y-59675791D01*
X133690621Y-59366412D01*
X133242513Y-59180800D01*
X132757485Y-59180800D01*
X132309377Y-59366412D01*
X132000000Y-59675789D01*
X131690623Y-59366412D01*
X131242515Y-59180800D01*
X130757487Y-59180800D01*
X130309379Y-59366412D01*
X130000000Y-59675791D01*
X129690621Y-59366412D01*
X129242513Y-59180800D01*
X128757485Y-59180800D01*
X128309377Y-59366412D01*
X127966411Y-59709378D01*
X127780799Y-60157486D01*
X127780799Y-60642514D01*
X127966411Y-61090622D01*
X128056588Y-61180799D01*
X127757486Y-61180799D01*
X127309378Y-61366411D01*
X126966412Y-61709377D01*
X126780800Y-62157485D01*
X125135000Y-62157485D01*
X125135000Y-58861783D01*
X125157235Y-58750000D01*
X125069146Y-58307145D01*
X124954122Y-58135000D01*
X124818289Y-57931711D01*
X124723521Y-57868389D01*
X123855131Y-57000000D01*
X125299700Y-55555431D01*
X151765000Y-55555431D01*
X151765000Y-56444569D01*
X152105259Y-57266026D01*
X152733974Y-57894741D01*
X153555431Y-58235000D01*
X154444569Y-58235000D01*
X155266026Y-57894741D01*
X155894741Y-57266026D01*
X156235000Y-56444569D01*
X156235000Y-55555431D01*
X155894741Y-54733974D01*
X155266026Y-54105259D01*
X154444569Y-53765000D01*
X153555431Y-53765000D01*
X152733974Y-54105259D01*
X152105259Y-54733974D01*
X151765000Y-55555431D01*
X125299700Y-55555431D01*
X125846847Y-55008285D01*
X125897765Y-54998157D01*
X126000000Y-54929845D01*
X126102235Y-54998157D01*
X126350000Y-55047440D01*
X127150000Y-55047440D01*
X127397765Y-54998157D01*
X127607809Y-54857809D01*
X127673163Y-54760000D01*
X129142765Y-54760000D01*
X129211753Y-54863247D01*
X129498848Y-55055078D01*
X129837500Y-55122440D01*
X130412500Y-55122440D01*
X130751152Y-55055078D01*
X131038247Y-54863247D01*
X131102808Y-54766624D01*
X131134180Y-54797996D01*
X131274214Y-54856000D01*
X131652750Y-54856000D01*
X131748000Y-54760750D01*
X131748000Y-54127000D01*
X132002000Y-54127000D01*
X132002000Y-54760750D01*
X132097250Y-54856000D01*
X132475786Y-54856000D01*
X132615820Y-54797996D01*
X132722996Y-54690819D01*
X132781000Y-54550785D01*
X132781000Y-54222250D01*
X132685750Y-54127000D01*
X132002000Y-54127000D01*
X131748000Y-54127000D01*
X131728000Y-54127000D01*
X131728000Y-53873000D01*
X131748000Y-53873000D01*
X131748000Y-53239250D01*
X132002000Y-53239250D01*
X132002000Y-53873000D01*
X132685750Y-53873000D01*
X132781000Y-53777750D01*
X132781000Y-53449215D01*
X132722996Y-53309181D01*
X132615820Y-53202004D01*
X132475786Y-53144000D01*
X132097250Y-53144000D01*
X132002000Y-53239250D01*
X131748000Y-53239250D01*
X131652750Y-53144000D01*
X131274214Y-53144000D01*
X131134180Y-53202004D01*
X131102808Y-53233376D01*
X131038247Y-53136753D01*
X130751152Y-52944922D01*
X130412500Y-52877560D01*
X129837500Y-52877560D01*
X129498848Y-52944922D01*
X129211753Y-53136753D01*
X129142765Y-53240000D01*
X127673163Y-53240000D01*
X127607809Y-53142191D01*
X127397765Y-53001843D01*
X127150000Y-52952560D01*
X126350000Y-52952560D01*
X126102235Y-53001843D01*
X126000000Y-53070155D01*
X125897765Y-53001843D01*
X125757273Y-52973898D01*
X125692854Y-52930854D01*
X125250000Y-52842765D01*
X124807145Y-52930854D01*
X124742725Y-52973898D01*
X124602235Y-53001843D01*
X124392191Y-53142191D01*
X124251843Y-53352235D01*
X124241715Y-53403153D01*
X121779869Y-55865000D01*
X120530793Y-55865000D01*
X120067767Y-55401974D01*
X119374950Y-55115000D01*
X118625050Y-55115000D01*
X117932233Y-55401974D01*
X117401974Y-55932233D01*
X117115000Y-56625050D01*
X110685000Y-56625050D01*
X110685000Y-52685000D01*
X159315000Y-52685000D01*
X159315001Y-86716263D01*
X159315001Y-86716263D01*
G37*
X159315001Y-86716263D02*
X158716265Y-87315000D01*
X111283736Y-87315000D01*
X110685000Y-86716265D01*
X110685000Y-85411873D01*
X128467733Y-85411873D01*
X128529138Y-85564153D01*
X128895676Y-85678565D01*
X129278097Y-85643999D01*
X129470862Y-85564153D01*
X129532267Y-85411873D01*
X130467732Y-85411873D01*
X130529137Y-85564153D01*
X130895675Y-85678565D01*
X131278096Y-85643999D01*
X131470861Y-85564153D01*
X131532266Y-85411873D01*
X132467733Y-85411873D01*
X132529138Y-85564153D01*
X132895676Y-85678565D01*
X133278097Y-85643999D01*
X133470862Y-85564153D01*
X133532267Y-85411873D01*
X134467734Y-85411873D01*
X134529139Y-85564153D01*
X134895677Y-85678565D01*
X135278098Y-85643999D01*
X135470863Y-85564153D01*
X135532268Y-85411873D01*
X136467732Y-85411873D01*
X136529137Y-85564153D01*
X136895675Y-85678565D01*
X137278096Y-85643999D01*
X137470861Y-85564153D01*
X137532266Y-85411873D01*
X140692733Y-85411873D01*
X140754138Y-85564153D01*
X141120676Y-85678565D01*
X141503097Y-85643999D01*
X141695862Y-85564153D01*
X141757267Y-85411873D01*
X142692732Y-85411873D01*
X142754137Y-85564153D01*
X143120675Y-85678565D01*
X143503096Y-85643999D01*
X143695861Y-85564153D01*
X143757266Y-85411873D01*
X144692733Y-85411873D01*
X144754138Y-85564153D01*
X145120676Y-85678565D01*
X145503097Y-85643999D01*
X145695862Y-85564153D01*
X145757267Y-85411873D01*
X146692734Y-85411873D01*
X146754139Y-85564153D01*
X147120677Y-85678565D01*
X147503098Y-85643999D01*
X147695863Y-85564153D01*
X147757268Y-85411873D01*
X147225001Y-84879606D01*
X146692734Y-85411873D01*
X145757267Y-85411873D01*
X145225000Y-84879606D01*
X144692733Y-85411873D01*
X143757266Y-85411873D01*
X143224999Y-84879606D01*
X142692732Y-85411873D01*
X141757267Y-85411873D01*
X141225000Y-84879606D01*
X140692733Y-85411873D01*
X137532266Y-85411873D01*
X136999999Y-84879606D01*
X136467732Y-85411873D01*
X135532268Y-85411873D01*
X135000001Y-84879606D01*
X134467734Y-85411873D01*
X133532267Y-85411873D01*
X133000000Y-84879606D01*
X132467733Y-85411873D01*
X131532266Y-85411873D01*
X130999999Y-84879606D01*
X130467732Y-85411873D01*
X129532267Y-85411873D01*
X129000000Y-84879606D01*
X128467733Y-85411873D01*
X110685000Y-85411873D01*
X110685000Y-84595677D01*
X128021436Y-84595677D01*
X128056002Y-84978098D01*
X128135848Y-85170863D01*
X128288128Y-85232268D01*
X128820395Y-84700001D01*
X129179605Y-84700001D01*
X129711872Y-85232268D01*
X129864152Y-85170863D01*
X129978564Y-84804325D01*
X129959705Y-84595677D01*
X130021435Y-84595677D01*
X130056001Y-84978098D01*
X130135847Y-85170863D01*
X130288127Y-85232268D01*
X130820394Y-84700001D01*
X131179604Y-84700001D01*
X131711871Y-85232268D01*
X131864151Y-85170863D01*
X131978563Y-84804325D01*
X131959704Y-84595677D01*
X132021436Y-84595677D01*
X132056002Y-84978098D01*
X132135848Y-85170863D01*
X132288128Y-85232268D01*
X132820395Y-84700001D01*
X133179605Y-84700001D01*
X133711872Y-85232268D01*
X133864152Y-85170863D01*
X133978564Y-84804325D01*
X133959705Y-84595677D01*
X134021437Y-84595677D01*
X134056003Y-84978098D01*
X134135849Y-85170863D01*
X134288129Y-85232268D01*
X134820396Y-84700001D01*
X135179606Y-84700001D01*
X135711873Y-85232268D01*
X135864153Y-85170863D01*
X135978565Y-84804325D01*
X135959706Y-84595677D01*
X136021435Y-84595677D01*
X136056001Y-84978098D01*
X136135847Y-85170863D01*
X136288127Y-85232268D01*
X136820394Y-84700001D01*
X137179604Y-84700001D01*
X137711871Y-85232268D01*
X137864151Y-85170863D01*
X137978563Y-84804325D01*
X137959704Y-84595677D01*
X140246436Y-84595677D01*
X140281002Y-84978098D01*
X140360848Y-85170863D01*
X140513128Y-85232268D01*
X141045395Y-84700001D01*
X141404605Y-84700001D01*
X141936872Y-85232268D01*
X142089152Y-85170863D01*
X142203564Y-84804325D01*
X142184705Y-84595677D01*
X142246435Y-84595677D01*
X142281001Y-84978098D01*
X142360847Y-85170863D01*
X142513127Y-85232268D01*
X143045394Y-84700001D01*
X143404604Y-84700001D01*
X143936871Y-85232268D01*
X144089151Y-85170863D01*
X144203563Y-84804325D01*
X144184704Y-84595677D01*
X144246436Y-84595677D01*
X144281002Y-84978098D01*
X144360848Y-85170863D01*
X144513128Y-85232268D01*
X145045395Y-84700001D01*
X145404605Y-84700001D01*
X145936872Y-85232268D01*
X146089152Y-85170863D01*
X146203564Y-84804325D01*
X146184705Y-84595677D01*
X146246437Y-84595677D01*
X146281003Y-84978098D01*
X146360849Y-85170863D01*
X146513129Y-85232268D01*
X147045396Y-84700001D01*
X147404606Y-84700001D01*
X147936873Y-85232268D01*
X148089153Y-85170863D01*
X148203565Y-84804325D01*
X148168999Y-84421904D01*
X148089153Y-84229139D01*
X147936873Y-84167734D01*
X147404606Y-84700001D01*
X147045396Y-84700001D01*
X146513129Y-84167734D01*
X146360849Y-84229139D01*
X146246437Y-84595677D01*
X146184705Y-84595677D01*
X146168998Y-84421904D01*
X146089152Y-84229139D01*
X145936872Y-84167734D01*
X145404605Y-84700001D01*
X145045395Y-84700001D01*
X144513128Y-84167734D01*
X144360848Y-84229139D01*
X144246436Y-84595677D01*
X144184704Y-84595677D01*
X144168997Y-84421904D01*
X144089151Y-84229139D01*
X143936871Y-84167734D01*
X143404604Y-84700001D01*
X143045394Y-84700001D01*
X142513127Y-84167734D01*
X142360847Y-84229139D01*
X142246435Y-84595677D01*
X142184705Y-84595677D01*
X142168998Y-84421904D01*
X142089152Y-84229139D01*
X141936872Y-84167734D01*
X141404605Y-84700001D01*
X141045395Y-84700001D01*
X140513128Y-84167734D01*
X140360848Y-84229139D01*
X140246436Y-84595677D01*
X137959704Y-84595677D01*
X137943997Y-84421904D01*
X137864151Y-84229139D01*
X137711871Y-84167734D01*
X137179604Y-84700001D01*
X136820394Y-84700001D01*
X136288127Y-84167734D01*
X136135847Y-84229139D01*
X136021435Y-84595677D01*
X135959706Y-84595677D01*
X135943999Y-84421904D01*
X135864153Y-84229139D01*
X135711873Y-84167734D01*
X135179606Y-84700001D01*
X134820396Y-84700001D01*
X134288129Y-84167734D01*
X134135849Y-84229139D01*
X134021437Y-84595677D01*
X133959705Y-84595677D01*
X133943998Y-84421904D01*
X133864152Y-84229139D01*
X133711872Y-84167734D01*
X133179605Y-84700001D01*
X132820395Y-84700001D01*
X132288128Y-84167734D01*
X132135848Y-84229139D01*
X132021436Y-84595677D01*
X131959704Y-84595677D01*
X131943997Y-84421904D01*
X131864151Y-84229139D01*
X131711871Y-84167734D01*
X131179604Y-84700001D01*
X130820394Y-84700001D01*
X130288127Y-84167734D01*
X130135847Y-84229139D01*
X130021435Y-84595677D01*
X129959705Y-84595677D01*
X129943998Y-84421904D01*
X129864152Y-84229139D01*
X129711872Y-84167734D01*
X129179605Y-84700001D01*
X128820395Y-84700001D01*
X128288128Y-84167734D01*
X128135848Y-84229139D01*
X128021436Y-84595677D01*
X110685000Y-84595677D01*
X110685000Y-81555431D01*
X113765000Y-81555431D01*
X113765000Y-82444569D01*
X114105259Y-83266026D01*
X114733974Y-83894741D01*
X115555431Y-84235000D01*
X116444569Y-84235000D01*
X117040567Y-83988129D01*
X128467733Y-83988129D01*
X129000000Y-84520396D01*
X129532267Y-83988129D01*
X130467732Y-83988129D01*
X130999999Y-84520396D01*
X131532266Y-83988129D01*
X132467733Y-83988129D01*
X133000000Y-84520396D01*
X133532267Y-83988129D01*
X134467734Y-83988129D01*
X135000001Y-84520396D01*
X135532268Y-83988129D01*
X136467732Y-83988129D01*
X136999999Y-84520396D01*
X137532266Y-83988129D01*
X140692733Y-83988129D01*
X141225000Y-84520396D01*
X141757267Y-83988129D01*
X142692732Y-83988129D01*
X143224999Y-84520396D01*
X143757266Y-83988129D01*
X144692733Y-83988129D01*
X145225000Y-84520396D01*
X145757267Y-83988129D01*
X146692734Y-83988129D01*
X147225001Y-84520396D01*
X147757268Y-83988129D01*
X147695863Y-83835849D01*
X147329325Y-83721437D01*
X146946904Y-83756003D01*
X146754139Y-83835849D01*
X146692734Y-83988129D01*
X145757267Y-83988129D01*
X145695862Y-83835849D01*
X145329324Y-83721437D01*
X144946903Y-83756003D01*
X144754138Y-83835849D01*
X144692733Y-83988129D01*
X143757266Y-83988129D01*
X143695861Y-83835849D01*
X143329323Y-83721437D01*
X142946902Y-83756003D01*
X142754137Y-83835849D01*
X142692732Y-83988129D01*
X141757267Y-83988129D01*
X141695862Y-83835849D01*
X141329324Y-83721437D01*
X140946903Y-83756003D01*
X140754138Y-83835849D01*
X140692733Y-83988129D01*
X137532266Y-83988129D01*
X137470861Y-83835849D01*
X137104323Y-83721437D01*
X136721902Y-83756003D01*
X136529137Y-83835849D01*
X136467732Y-83988129D01*
X135532268Y-83988129D01*
X135470863Y-83835849D01*
X135104325Y-83721437D01*
X134721904Y-83756003D01*
X134529139Y-83835849D01*
X134467734Y-83988129D01*
X133532267Y-83988129D01*
X133470862Y-83835849D01*
X133104324Y-83721437D01*
X132721903Y-83756003D01*
X132529138Y-83835849D01*
X132467733Y-83988129D01*
X131532266Y-83988129D01*
X131470861Y-83835849D01*
X131104323Y-83721437D01*
X130721902Y-83756003D01*
X130529137Y-83835849D01*
X130467732Y-83988129D01*
X129532267Y-83988129D01*
X129470862Y-83835849D01*
X129104324Y-83721437D01*
X128721903Y-83756003D01*
X128529138Y-83835849D01*
X128467733Y-83988129D01*
X117040567Y-83988129D01*
X117266026Y-83894741D01*
X117748895Y-83411872D01*
X127467732Y-83411872D01*
X127529137Y-83564152D01*
X127895675Y-83678564D01*
X128278096Y-83643998D01*
X128470861Y-83564152D01*
X128532266Y-83411872D01*
X129467734Y-83411872D01*
X129529139Y-83564152D01*
X129895677Y-83678564D01*
X130278098Y-83643998D01*
X130470863Y-83564152D01*
X130532268Y-83411872D01*
X131467732Y-83411872D01*
X131529137Y-83564152D01*
X131895675Y-83678564D01*
X132278096Y-83643998D01*
X132470861Y-83564152D01*
X132532266Y-83411872D01*
X133467733Y-83411872D01*
X133529138Y-83564152D01*
X133895676Y-83678564D01*
X134278097Y-83643998D01*
X134470862Y-83564152D01*
X134532267Y-83411872D01*
X135467732Y-83411872D01*
X135529137Y-83564152D01*
X135895675Y-83678564D01*
X136278096Y-83643998D01*
X136470861Y-83564152D01*
X136532266Y-83411872D01*
X137467733Y-83411872D01*
X137529138Y-83564152D01*
X137895676Y-83678564D01*
X138278097Y-83643998D01*
X138470862Y-83564152D01*
X138532267Y-83411872D01*
X141692734Y-83411872D01*
X141754139Y-83564152D01*
X142120677Y-83678564D01*
X142503098Y-83643998D01*
X142695863Y-83564152D01*
X142757268Y-83411872D01*
X143692732Y-83411872D01*
X143754137Y-83564152D01*
X144120675Y-83678564D01*
X144503096Y-83643998D01*
X144695861Y-83564152D01*
X144757266Y-83411872D01*
X144224999Y-82879605D01*
X143692732Y-83411872D01*
X142757268Y-83411872D01*
X142225001Y-82879605D01*
X141692734Y-83411872D01*
X138532267Y-83411872D01*
X138000000Y-82879605D01*
X137467733Y-83411872D01*
X136532266Y-83411872D01*
X135999999Y-82879605D01*
X135467732Y-83411872D01*
X134532267Y-83411872D01*
X134000000Y-82879605D01*
X133467733Y-83411872D01*
X132532266Y-83411872D01*
X131999999Y-82879605D01*
X131467732Y-83411872D01*
X130532268Y-83411872D01*
X130000001Y-82879605D01*
X129467734Y-83411872D01*
X128532266Y-83411872D01*
X127999999Y-82879605D01*
X127467732Y-83411872D01*
X117748895Y-83411872D01*
X117894741Y-83266026D01*
X118172409Y-82595676D01*
X127021435Y-82595676D01*
X127056001Y-82978097D01*
X127135847Y-83170862D01*
X127288127Y-83232267D01*
X127820394Y-82700000D01*
X128179604Y-82700000D01*
X128711871Y-83232267D01*
X128864151Y-83170862D01*
X128978563Y-82804324D01*
X128959704Y-82595676D01*
X129021437Y-82595676D01*
X129056003Y-82978097D01*
X129135849Y-83170862D01*
X129288129Y-83232267D01*
X129820396Y-82700000D01*
X130179606Y-82700000D01*
X130711873Y-83232267D01*
X130864153Y-83170862D01*
X130978565Y-82804324D01*
X130959706Y-82595676D01*
X131021435Y-82595676D01*
X131056001Y-82978097D01*
X131135847Y-83170862D01*
X131288127Y-83232267D01*
X131820394Y-82700000D01*
X132179604Y-82700000D01*
X132711871Y-83232267D01*
X132864151Y-83170862D01*
X132978563Y-82804324D01*
X132959704Y-82595676D01*
X133021436Y-82595676D01*
X133056002Y-82978097D01*
X133135848Y-83170862D01*
X133288128Y-83232267D01*
X133820395Y-82700000D01*
X134179605Y-82700000D01*
X134711872Y-83232267D01*
X134864152Y-83170862D01*
X134978564Y-82804324D01*
X134959705Y-82595676D01*
X135021435Y-82595676D01*
X135056001Y-82978097D01*
X135135847Y-83170862D01*
X135288127Y-83232267D01*
X135820394Y-82700000D01*
X136179604Y-82700000D01*
X136711871Y-83232267D01*
X136864151Y-83170862D01*
X136978563Y-82804324D01*
X136959704Y-82595676D01*
X137021436Y-82595676D01*
X137056002Y-82978097D01*
X137135848Y-83170862D01*
X137288128Y-83232267D01*
X137820395Y-82700000D01*
X137288128Y-82167733D01*
X137135848Y-82229138D01*
X137021436Y-82595676D01*
X136959704Y-82595676D01*
X136943997Y-82421903D01*
X136864151Y-82229138D01*
X136711871Y-82167733D01*
X136179604Y-82700000D01*
X135820394Y-82700000D01*
X135288127Y-82167733D01*
X135135847Y-82229138D01*
X135021435Y-82595676D01*
X134959705Y-82595676D01*
X134943998Y-82421903D01*
X134864152Y-82229138D01*
X134711872Y-82167733D01*
X134179605Y-82700000D01*
X133820395Y-82700000D01*
X133288128Y-82167733D01*
X133135848Y-82229138D01*
X133021436Y-82595676D01*
X132959704Y-82595676D01*
X132943997Y-82421903D01*
X132864151Y-82229138D01*
X132711871Y-82167733D01*
X132179604Y-82700000D01*
X131820394Y-82700000D01*
X131288127Y-82167733D01*
X131135847Y-82229138D01*
X131021435Y-82595676D01*
X130959706Y-82595676D01*
X130943999Y-82421903D01*
X130864153Y-82229138D01*
X130711873Y-82167733D01*
X130179606Y-82700000D01*
X129820396Y-82700000D01*
X129288129Y-82167733D01*
X129135849Y-82229138D01*
X129021437Y-82595676D01*
X128959704Y-82595676D01*
X128943997Y-82421903D01*
X128864151Y-82229138D01*
X128711871Y-82167733D01*
X128179604Y-82700000D01*
X127820394Y-82700000D01*
X127288127Y-82167733D01*
X127135847Y-82229138D01*
X127021435Y-82595676D01*
X118172409Y-82595676D01*
X118235000Y-82444569D01*
X118235000Y-81555431D01*
X117894741Y-80733974D01*
X117266026Y-80105259D01*
X116444569Y-79765000D01*
X115555431Y-79765000D01*
X114733974Y-80105259D01*
X114105259Y-80733974D01*
X113765000Y-81555431D01*
X110685000Y-81555431D01*
X110685000Y-70222250D01*
X114169000Y-70222250D01*
X114169000Y-70875785D01*
X114227004Y-71015819D01*
X114334180Y-71122996D01*
X114474214Y-71181000D01*
X116077750Y-71181000D01*
X116173000Y-71085750D01*
X116173000Y-70127000D01*
X116427000Y-70127000D01*
X116427000Y-71085750D01*
X116522250Y-71181000D01*
X118125786Y-71181000D01*
X118265820Y-71122996D01*
X118372996Y-71015819D01*
X118431000Y-70875785D01*
X118431000Y-70222250D01*
X118335750Y-70127000D01*
X116427000Y-70127000D01*
X116173000Y-70127000D01*
X114264250Y-70127000D01*
X114169000Y-70222250D01*
X110685000Y-70222250D01*
X110685000Y-69124215D01*
X114169000Y-69124215D01*
X114169000Y-69777750D01*
X114264250Y-69873000D01*
X116173000Y-69873000D01*
X116173000Y-68914250D01*
X116427000Y-68914250D01*
X116427000Y-69873000D01*
X118335750Y-69873000D01*
X118431000Y-69777750D01*
X118431000Y-69124215D01*
X118372996Y-68984181D01*
X118265820Y-68877004D01*
X118125786Y-68819000D01*
X116522250Y-68819000D01*
X116427000Y-68914250D01*
X116173000Y-68914250D01*
X116077750Y-68819000D01*
X114474214Y-68819000D01*
X114334180Y-68877004D01*
X114227004Y-68984181D01*
X114169000Y-69124215D01*
X110685000Y-69124215D01*
X110685000Y-62222250D01*
X117369000Y-62222250D01*
X117369000Y-63325786D01*
X117427004Y-63465820D01*
X117534181Y-63572996D01*
X117674215Y-63631000D01*
X118777750Y-63631000D01*
X118873000Y-63535750D01*
X118873000Y-62127000D01*
X119127000Y-62127000D01*
X119127000Y-63535750D01*
X119222250Y-63631000D01*
X120325785Y-63631000D01*
X120465819Y-63572996D01*
X120572996Y-63465820D01*
X120631000Y-63325786D01*
X120631000Y-62222250D01*
X120535750Y-62127000D01*
X119127000Y-62127000D01*
X118873000Y-62127000D01*
X117464250Y-62127000D01*
X117369000Y-62222250D01*
X110685000Y-62222250D01*
X110685000Y-60674214D01*
X117369000Y-60674214D01*
X117369000Y-61777750D01*
X117464250Y-61873000D01*
X118873000Y-61873000D01*
X118873000Y-60464250D01*
X119127000Y-60464250D01*
X119127000Y-61873000D01*
X120535750Y-61873000D01*
X120631000Y-61777750D01*
X120631000Y-60674214D01*
X120572996Y-60534180D01*
X120465819Y-60427004D01*
X120325785Y-60369000D01*
X119222250Y-60369000D01*
X119127000Y-60464250D01*
X118873000Y-60464250D01*
X118777750Y-60369000D01*
X117674215Y-60369000D01*
X117534181Y-60427004D01*
X117427004Y-60534180D01*
X117369000Y-60674214D01*
X110685000Y-60674214D01*
X110685000Y-56625050D01*
X117115000Y-56625050D01*
X117115000Y-57374950D01*
X117401974Y-58067767D01*
X117932233Y-58598026D01*
X118625050Y-58885000D01*
X119374950Y-58885000D01*
X120067767Y-58598026D01*
X120530793Y-58135000D01*
X121779869Y-58135000D01*
X122865000Y-59220132D01*
X122865001Y-68552560D01*
X120200000Y-68552560D01*
X119856565Y-68620874D01*
X119565414Y-68815414D01*
X119370874Y-69106565D01*
X119302560Y-69450000D01*
X119302560Y-70550000D01*
X119370874Y-70893435D01*
X119565414Y-71184586D01*
X119856565Y-71379126D01*
X120200000Y-71447440D01*
X122865000Y-71447440D01*
X122865001Y-73588213D01*
X122842765Y-73700001D01*
X122930854Y-74142855D01*
X122953076Y-74176112D01*
X123181712Y-74518290D01*
X123276480Y-74581612D01*
X127864999Y-79170132D01*
X127864999Y-79480799D01*
X127757486Y-79480799D01*
X127309378Y-79666411D01*
X126966412Y-80009377D01*
X126780800Y-80457485D01*
X126780800Y-80942513D01*
X126966412Y-81390621D01*
X127309378Y-81733587D01*
X127542698Y-81830231D01*
X127529137Y-81835848D01*
X127467732Y-81988128D01*
X127999999Y-82520395D01*
X128532266Y-81988128D01*
X128470861Y-81835848D01*
X128455396Y-81831021D01*
X128690622Y-81733587D01*
X129000000Y-81424210D01*
X129309377Y-81733587D01*
X129542698Y-81830232D01*
X129529139Y-81835848D01*
X129467734Y-81988128D01*
X130000001Y-82520395D01*
X130532268Y-81988128D01*
X130470863Y-81835848D01*
X130468143Y-81834999D01*
X131531187Y-81834999D01*
X131529137Y-81835848D01*
X131467732Y-81988128D01*
X131999999Y-82520395D01*
X132532266Y-81988128D01*
X132470861Y-81835848D01*
X132468141Y-81834999D01*
X133531188Y-81834999D01*
X133529138Y-81835848D01*
X133467733Y-81988128D01*
X134000000Y-82520395D01*
X134532267Y-81988128D01*
X134470862Y-81835848D01*
X134468142Y-81834999D01*
X135531187Y-81834999D01*
X135529137Y-81835848D01*
X135467732Y-81988128D01*
X135999999Y-82520395D01*
X136532266Y-81988128D01*
X136470861Y-81835848D01*
X136468141Y-81834999D01*
X137531188Y-81834999D01*
X137529138Y-81835848D01*
X137467733Y-81988128D01*
X138000000Y-82520395D01*
X138014143Y-82506253D01*
X138193748Y-82685858D01*
X138179605Y-82700000D01*
X138711872Y-83232267D01*
X138864152Y-83170862D01*
X138950325Y-82894794D01*
X139377172Y-83071600D01*
X139922828Y-83071600D01*
X140426949Y-82862786D01*
X140812786Y-82476949D01*
X141021600Y-81972828D01*
X141021600Y-81917020D01*
X141198254Y-82093675D01*
X141240653Y-82157129D01*
X141304106Y-82199527D01*
X141304108Y-82199529D01*
X141358704Y-82236009D01*
X141246437Y-82595676D01*
X141281003Y-82978097D01*
X141360849Y-83170862D01*
X141513129Y-83232267D01*
X142045396Y-82700000D01*
X142031254Y-82685858D01*
X142210859Y-82506253D01*
X142225001Y-82520395D01*
X142239144Y-82506253D01*
X142418749Y-82685858D01*
X142404606Y-82700000D01*
X142936873Y-83232267D01*
X143089153Y-83170862D01*
X143203565Y-82804324D01*
X143168999Y-82421903D01*
X143147169Y-82369200D01*
X143317128Y-82369200D01*
X143246435Y-82595676D01*
X143281001Y-82978097D01*
X143360847Y-83170862D01*
X143513127Y-83232267D01*
X144045394Y-82700000D01*
X144031252Y-82685858D01*
X144210857Y-82506253D01*
X144224999Y-82520395D01*
X144239142Y-82506253D01*
X144418747Y-82685858D01*
X144404604Y-82700000D01*
X144936871Y-83232267D01*
X145089151Y-83170862D01*
X145093979Y-83155395D01*
X145191413Y-83390622D01*
X145534379Y-83733588D01*
X145982487Y-83919200D01*
X146467515Y-83919200D01*
X146915623Y-83733588D01*
X147258589Y-83390622D01*
X147444201Y-82942514D01*
X147444201Y-82457486D01*
X147408680Y-82371732D01*
X147470800Y-82384088D01*
X147545647Y-82369200D01*
X147545652Y-82369200D01*
X147589010Y-82360575D01*
X147637214Y-82476949D01*
X148023051Y-82862786D01*
X148527172Y-83071600D01*
X149072828Y-83071600D01*
X149576949Y-82862786D01*
X149962786Y-82476949D01*
X150171600Y-81972828D01*
X150171600Y-81427172D01*
X149962786Y-80923051D01*
X149597268Y-80557533D01*
X153965000Y-76189802D01*
X153965000Y-76205874D01*
X154122569Y-76586280D01*
X154413720Y-76877431D01*
X154794126Y-77035000D01*
X155205874Y-77035000D01*
X155586280Y-76877431D01*
X155877431Y-76586280D01*
X156035000Y-76205874D01*
X156035000Y-76039802D01*
X156359474Y-75715328D01*
X156422930Y-75672928D01*
X156590905Y-75421536D01*
X156635001Y-75199851D01*
X156635001Y-75199847D01*
X156649889Y-75125000D01*
X156635001Y-75050153D01*
X156635001Y-72489847D01*
X156649889Y-72415000D01*
X156635001Y-72340153D01*
X156635001Y-72340149D01*
X156590905Y-72118464D01*
X156422930Y-71867072D01*
X156359471Y-71824670D01*
X156185000Y-71650199D01*
X156185000Y-71429801D01*
X156359471Y-71255330D01*
X156422930Y-71212928D01*
X156590905Y-70961536D01*
X156635001Y-70739851D01*
X156635001Y-70739847D01*
X156649889Y-70665000D01*
X156635001Y-70590153D01*
X156635001Y-65449847D01*
X156649889Y-65375000D01*
X156635001Y-65300153D01*
X156635001Y-65300149D01*
X156590905Y-65078464D01*
X156422930Y-64827072D01*
X156359474Y-64784672D01*
X156035000Y-64460198D01*
X156035000Y-64294126D01*
X155877431Y-63913720D01*
X155586280Y-63622569D01*
X155205874Y-63465000D01*
X154794126Y-63465000D01*
X154413720Y-63622569D01*
X154122569Y-63913720D01*
X153965000Y-64294126D01*
X153965000Y-64705874D01*
X153974691Y-64729270D01*
X148251749Y-59006329D01*
X148209347Y-58942870D01*
X147957955Y-58774895D01*
X147736270Y-58730799D01*
X147736265Y-58730799D01*
X147661418Y-58715911D01*
X147586571Y-58730799D01*
X142209047Y-58730799D01*
X142134200Y-58715911D01*
X142059353Y-58730799D01*
X142059349Y-58730799D01*
X141837664Y-58774895D01*
X141586272Y-58942870D01*
X141543870Y-59006329D01*
X141369399Y-59180800D01*
X140982486Y-59180800D01*
X140534378Y-59366412D01*
X140191412Y-59709378D01*
X140005800Y-60157486D01*
X140005800Y-60642514D01*
X140191412Y-61090622D01*
X140534378Y-61433588D01*
X140982486Y-61619200D01*
X141281588Y-61619200D01*
X141191411Y-61709377D01*
X141005799Y-62157485D01*
X141005799Y-62642513D01*
X141191411Y-63090621D01*
X141534377Y-63433587D01*
X141767698Y-63530232D01*
X141754139Y-63535848D01*
X141692734Y-63688128D01*
X142225001Y-64220395D01*
X142239144Y-64206253D01*
X142418749Y-64385858D01*
X142404606Y-64400000D01*
X142418749Y-64414143D01*
X142239144Y-64593748D01*
X142225001Y-64579605D01*
X141692734Y-65111872D01*
X141754139Y-65264152D01*
X142120677Y-65378564D01*
X142503098Y-65343998D01*
X142574568Y-65314394D01*
X142599895Y-65441719D01*
X142719758Y-65621106D01*
X142692732Y-65688129D01*
X143224999Y-66220396D01*
X143239142Y-66206254D01*
X143374200Y-66341312D01*
X143374200Y-66458690D01*
X143239142Y-66593749D01*
X143224999Y-66579606D01*
X142692732Y-67111873D01*
X142754137Y-67264153D01*
X143120675Y-67378565D01*
X143503096Y-67343999D01*
X143581565Y-67311496D01*
X143586272Y-67318540D01*
X143649728Y-67360940D01*
X149583260Y-73294473D01*
X149625660Y-73357929D01*
X149689116Y-73400329D01*
X149877051Y-73525904D01*
X149925194Y-73535480D01*
X150098737Y-73570000D01*
X150098741Y-73570000D01*
X150173589Y-73584888D01*
X150248437Y-73570000D01*
X152814156Y-73570000D01*
X152889530Y-73645374D01*
X152785640Y-73983888D01*
X152820744Y-74352595D01*
X152894305Y-74530187D01*
X153043051Y-74587344D01*
X153550395Y-74080000D01*
X153536253Y-74065858D01*
X153607110Y-73995000D01*
X153815000Y-73995000D01*
X153815000Y-74190198D01*
X153737797Y-74267402D01*
X153730000Y-74259605D01*
X153222656Y-74766949D01*
X153226985Y-74778214D01*
X148104756Y-79900443D01*
X147993894Y-79922495D01*
X147742502Y-80090470D01*
X147700102Y-80153926D01*
X147430242Y-80423786D01*
X147258589Y-80009377D01*
X147168412Y-79919200D01*
X147467515Y-79919200D01*
X147915623Y-79733588D01*
X148258589Y-79390622D01*
X148444201Y-78942514D01*
X148444201Y-78457486D01*
X148258589Y-78009378D01*
X147915623Y-77666412D01*
X147467515Y-77480800D01*
X146982487Y-77480800D01*
X146534379Y-77666412D01*
X146225000Y-77975791D01*
X145915621Y-77666412D01*
X145467513Y-77480800D01*
X144982485Y-77480800D01*
X144534377Y-77666412D01*
X144225000Y-77975789D01*
X143915623Y-77666412D01*
X143467515Y-77480800D01*
X142982487Y-77480800D01*
X142534379Y-77666412D01*
X142225001Y-77975791D01*
X141915622Y-77666412D01*
X141467514Y-77480800D01*
X140982486Y-77480800D01*
X140534378Y-77666412D01*
X140191412Y-78009378D01*
X140005800Y-78457486D01*
X140005800Y-78942514D01*
X140191412Y-79390622D01*
X140465000Y-79664210D01*
X140465001Y-80575266D01*
X140426949Y-80537214D01*
X139922828Y-80328400D01*
X139377172Y-80328400D01*
X139196696Y-80403156D01*
X139033588Y-80009377D01*
X138690622Y-79666411D01*
X138242514Y-79480799D01*
X137943410Y-79480799D01*
X138033587Y-79390622D01*
X138219199Y-78942514D01*
X138219199Y-78457486D01*
X138033587Y-78009378D01*
X137690621Y-77666412D01*
X137242513Y-77480800D01*
X136757485Y-77480800D01*
X136554208Y-77565000D01*
X135445791Y-77565000D01*
X135242514Y-77480800D01*
X134757486Y-77480800D01*
X134554209Y-77565000D01*
X133445790Y-77565000D01*
X133242513Y-77480800D01*
X132757485Y-77480800D01*
X132554208Y-77565000D01*
X131445792Y-77565000D01*
X131242515Y-77480800D01*
X130757487Y-77480800D01*
X130554210Y-77565000D01*
X129470131Y-77565000D01*
X125135000Y-73229870D01*
X125135000Y-70111783D01*
X125157235Y-70000000D01*
X125135000Y-69888217D01*
X125135000Y-67111873D01*
X128467733Y-67111873D01*
X128529138Y-67264153D01*
X128895676Y-67378565D01*
X129278097Y-67343999D01*
X129470862Y-67264153D01*
X129532267Y-67111873D01*
X130467732Y-67111873D01*
X130529137Y-67264153D01*
X130895675Y-67378565D01*
X131278096Y-67343999D01*
X131470861Y-67264153D01*
X131532266Y-67111873D01*
X132467733Y-67111873D01*
X132529138Y-67264153D01*
X132895676Y-67378565D01*
X133278097Y-67343999D01*
X133470862Y-67264153D01*
X133532267Y-67111873D01*
X134467734Y-67111873D01*
X134529139Y-67264153D01*
X134895677Y-67378565D01*
X135278098Y-67343999D01*
X135470863Y-67264153D01*
X135532268Y-67111873D01*
X136467732Y-67111873D01*
X136529137Y-67264153D01*
X136895675Y-67378565D01*
X137278096Y-67343999D01*
X137470861Y-67264153D01*
X137532266Y-67111873D01*
X140692733Y-67111873D01*
X140754138Y-67264153D01*
X141120676Y-67378565D01*
X141503097Y-67343999D01*
X141695862Y-67264153D01*
X141757267Y-67111873D01*
X141225000Y-66579606D01*
X140692733Y-67111873D01*
X137532266Y-67111873D01*
X136999999Y-66579606D01*
X136467732Y-67111873D01*
X135532268Y-67111873D01*
X135000001Y-66579606D01*
X134467734Y-67111873D01*
X133532267Y-67111873D01*
X133000000Y-66579606D01*
X132467733Y-67111873D01*
X131532266Y-67111873D01*
X130999999Y-66579606D01*
X130467732Y-67111873D01*
X129532267Y-67111873D01*
X129000000Y-66579606D01*
X128467733Y-67111873D01*
X125135000Y-67111873D01*
X125135000Y-66295677D01*
X128021436Y-66295677D01*
X128056002Y-66678098D01*
X128135848Y-66870863D01*
X128288128Y-66932268D01*
X128820395Y-66400001D01*
X129179605Y-66400001D01*
X129711872Y-66932268D01*
X129864152Y-66870863D01*
X129978564Y-66504325D01*
X129959705Y-66295677D01*
X130021435Y-66295677D01*
X130056001Y-66678098D01*
X130135847Y-66870863D01*
X130288127Y-66932268D01*
X130820394Y-66400001D01*
X131179604Y-66400001D01*
X131711871Y-66932268D01*
X131864151Y-66870863D01*
X131978563Y-66504325D01*
X131959704Y-66295677D01*
X132021436Y-66295677D01*
X132056002Y-66678098D01*
X132135848Y-66870863D01*
X132288128Y-66932268D01*
X132820395Y-66400001D01*
X133179605Y-66400001D01*
X133711872Y-66932268D01*
X133864152Y-66870863D01*
X133978564Y-66504325D01*
X133959705Y-66295677D01*
X134021437Y-66295677D01*
X134056003Y-66678098D01*
X134135849Y-66870863D01*
X134288129Y-66932268D01*
X134820396Y-66400001D01*
X135179606Y-66400001D01*
X135711873Y-66932268D01*
X135864153Y-66870863D01*
X135978565Y-66504325D01*
X135959706Y-66295677D01*
X136021435Y-66295677D01*
X136056001Y-66678098D01*
X136135847Y-66870863D01*
X136288127Y-66932268D01*
X136820394Y-66400001D01*
X137179604Y-66400001D01*
X137711871Y-66932268D01*
X137864151Y-66870863D01*
X137978563Y-66504325D01*
X137959704Y-66295677D01*
X140246436Y-66295677D01*
X140281002Y-66678098D01*
X140360848Y-66870863D01*
X140513128Y-66932268D01*
X141045395Y-66400001D01*
X141404605Y-66400001D01*
X141936872Y-66932268D01*
X142089152Y-66870863D01*
X142203564Y-66504325D01*
X142184705Y-66295677D01*
X142246435Y-66295677D01*
X142281001Y-66678098D01*
X142360847Y-66870863D01*
X142513127Y-66932268D01*
X143045394Y-66400001D01*
X142513127Y-65867734D01*
X142360847Y-65929139D01*
X142246435Y-66295677D01*
X142184705Y-66295677D01*
X142168998Y-66121904D01*
X142089152Y-65929139D01*
X141936872Y-65867734D01*
X141404605Y-66400001D01*
X141045395Y-66400001D01*
X140513128Y-65867734D01*
X140360848Y-65929139D01*
X140246436Y-66295677D01*
X137959704Y-66295677D01*
X137943997Y-66121904D01*
X137864151Y-65929139D01*
X137711871Y-65867734D01*
X137179604Y-66400001D01*
X136820394Y-66400001D01*
X136288127Y-65867734D01*
X136135847Y-65929139D01*
X136021435Y-66295677D01*
X135959706Y-66295677D01*
X135943999Y-66121904D01*
X135864153Y-65929139D01*
X135711873Y-65867734D01*
X135179606Y-66400001D01*
X134820396Y-66400001D01*
X134288129Y-65867734D01*
X134135849Y-65929139D01*
X134021437Y-66295677D01*
X133959705Y-66295677D01*
X133943998Y-66121904D01*
X133864152Y-65929139D01*
X133711872Y-65867734D01*
X133179605Y-66400001D01*
X132820395Y-66400001D01*
X132288128Y-65867734D01*
X132135848Y-65929139D01*
X132021436Y-66295677D01*
X131959704Y-66295677D01*
X131943997Y-66121904D01*
X131864151Y-65929139D01*
X131711871Y-65867734D01*
X131179604Y-66400001D01*
X130820394Y-66400001D01*
X130288127Y-65867734D01*
X130135847Y-65929139D01*
X130021435Y-66295677D01*
X129959705Y-66295677D01*
X129943998Y-66121904D01*
X129864152Y-65929139D01*
X129711872Y-65867734D01*
X129179605Y-66400001D01*
X128820395Y-66400001D01*
X128288128Y-65867734D01*
X128135848Y-65929139D01*
X128021436Y-66295677D01*
X125135000Y-66295677D01*
X125135000Y-65688129D01*
X128467733Y-65688129D01*
X129000000Y-66220396D01*
X129532267Y-65688129D01*
X130467732Y-65688129D01*
X130999999Y-66220396D01*
X131532266Y-65688129D01*
X132467733Y-65688129D01*
X133000000Y-66220396D01*
X133532267Y-65688129D01*
X134467734Y-65688129D01*
X135000001Y-66220396D01*
X135532268Y-65688129D01*
X136467732Y-65688129D01*
X136999999Y-66220396D01*
X137532266Y-65688129D01*
X140692733Y-65688129D01*
X141225000Y-66220396D01*
X141757267Y-65688129D01*
X141695862Y-65535849D01*
X141329324Y-65421437D01*
X140946903Y-65456003D01*
X140754138Y-65535849D01*
X140692733Y-65688129D01*
X137532266Y-65688129D01*
X137470861Y-65535849D01*
X137104323Y-65421437D01*
X136721902Y-65456003D01*
X136529137Y-65535849D01*
X136467732Y-65688129D01*
X135532268Y-65688129D01*
X135470863Y-65535849D01*
X135104325Y-65421437D01*
X134721904Y-65456003D01*
X134529139Y-65535849D01*
X134467734Y-65688129D01*
X133532267Y-65688129D01*
X133470862Y-65535849D01*
X133104324Y-65421437D01*
X132721903Y-65456003D01*
X132529138Y-65535849D01*
X132467733Y-65688129D01*
X131532266Y-65688129D01*
X131470861Y-65535849D01*
X131104323Y-65421437D01*
X130721902Y-65456003D01*
X130529137Y-65535849D01*
X130467732Y-65688129D01*
X129532267Y-65688129D01*
X129470862Y-65535849D01*
X129104324Y-65421437D01*
X128721903Y-65456003D01*
X128529138Y-65535849D01*
X128467733Y-65688129D01*
X125135000Y-65688129D01*
X125135000Y-65111872D01*
X127467732Y-65111872D01*
X127529137Y-65264152D01*
X127895675Y-65378564D01*
X128278096Y-65343998D01*
X128470861Y-65264152D01*
X128532266Y-65111872D01*
X129467734Y-65111872D01*
X129529139Y-65264152D01*
X129895677Y-65378564D01*
X130278098Y-65343998D01*
X130470863Y-65264152D01*
X130532268Y-65111872D01*
X131467732Y-65111872D01*
X131529137Y-65264152D01*
X131895675Y-65378564D01*
X132278096Y-65343998D01*
X132470861Y-65264152D01*
X132532266Y-65111872D01*
X133467733Y-65111872D01*
X133529138Y-65264152D01*
X133895676Y-65378564D01*
X134278097Y-65343998D01*
X134470862Y-65264152D01*
X134532267Y-65111872D01*
X135467732Y-65111872D01*
X135529137Y-65264152D01*
X135895675Y-65378564D01*
X136278096Y-65343998D01*
X136470861Y-65264152D01*
X136532266Y-65111872D01*
X137467733Y-65111872D01*
X137529138Y-65264152D01*
X137895676Y-65378564D01*
X138278097Y-65343998D01*
X138470862Y-65264152D01*
X138532267Y-65111872D01*
X138000000Y-64579605D01*
X137467733Y-65111872D01*
X136532266Y-65111872D01*
X135999999Y-64579605D01*
X135467732Y-65111872D01*
X134532267Y-65111872D01*
X134000000Y-64579605D01*
X133467733Y-65111872D01*
X132532266Y-65111872D01*
X131999999Y-64579605D01*
X131467732Y-65111872D01*
X130532268Y-65111872D01*
X130000001Y-64579605D01*
X129467734Y-65111872D01*
X128532266Y-65111872D01*
X127999999Y-64579605D01*
X127467732Y-65111872D01*
X125135000Y-65111872D01*
X125135000Y-64295676D01*
X127021435Y-64295676D01*
X127056001Y-64678097D01*
X127135847Y-64870862D01*
X127288127Y-64932267D01*
X127820394Y-64400000D01*
X128179604Y-64400000D01*
X128711871Y-64932267D01*
X128864151Y-64870862D01*
X128978563Y-64504324D01*
X128959704Y-64295676D01*
X129021437Y-64295676D01*
X129056003Y-64678097D01*
X129135849Y-64870862D01*
X129288129Y-64932267D01*
X129820396Y-64400000D01*
X130179606Y-64400000D01*
X130711873Y-64932267D01*
X130864153Y-64870862D01*
X130978565Y-64504324D01*
X130959706Y-64295676D01*
X131021435Y-64295676D01*
X131056001Y-64678097D01*
X131135847Y-64870862D01*
X131288127Y-64932267D01*
X131820394Y-64400000D01*
X132179604Y-64400000D01*
X132711871Y-64932267D01*
X132864151Y-64870862D01*
X132978563Y-64504324D01*
X132959704Y-64295676D01*
X133021436Y-64295676D01*
X133056002Y-64678097D01*
X133135848Y-64870862D01*
X133288128Y-64932267D01*
X133820395Y-64400000D01*
X134179605Y-64400000D01*
X134711872Y-64932267D01*
X134864152Y-64870862D01*
X134978564Y-64504324D01*
X134959705Y-64295676D01*
X135021435Y-64295676D01*
X135056001Y-64678097D01*
X135135847Y-64870862D01*
X135288127Y-64932267D01*
X135820394Y-64400000D01*
X136179604Y-64400000D01*
X136711871Y-64932267D01*
X136864151Y-64870862D01*
X136978563Y-64504324D01*
X136959704Y-64295676D01*
X137021436Y-64295676D01*
X137056002Y-64678097D01*
X137135848Y-64870862D01*
X137288128Y-64932267D01*
X137820395Y-64400000D01*
X137288128Y-63867733D01*
X137135848Y-63929138D01*
X137021436Y-64295676D01*
X136959704Y-64295676D01*
X136943997Y-64121903D01*
X136864151Y-63929138D01*
X136711871Y-63867733D01*
X136179604Y-64400000D01*
X135820394Y-64400000D01*
X135288127Y-63867733D01*
X135135847Y-63929138D01*
X135021435Y-64295676D01*
X134959705Y-64295676D01*
X134943998Y-64121903D01*
X134864152Y-63929138D01*
X134711872Y-63867733D01*
X134179605Y-64400000D01*
X133820395Y-64400000D01*
X133288128Y-63867733D01*
X133135848Y-63929138D01*
X133021436Y-64295676D01*
X132959704Y-64295676D01*
X132943997Y-64121903D01*
X132864151Y-63929138D01*
X132711871Y-63867733D01*
X132179604Y-64400000D01*
X131820394Y-64400000D01*
X131288127Y-63867733D01*
X131135847Y-63929138D01*
X131021435Y-64295676D01*
X130959706Y-64295676D01*
X130943999Y-64121903D01*
X130864153Y-63929138D01*
X130711873Y-63867733D01*
X130179606Y-64400000D01*
X129820396Y-64400000D01*
X129288129Y-63867733D01*
X129135849Y-63929138D01*
X129021437Y-64295676D01*
X128959704Y-64295676D01*
X128943997Y-64121903D01*
X128864151Y-63929138D01*
X128711871Y-63867733D01*
X128179604Y-64400000D01*
X127820394Y-64400000D01*
X127288127Y-63867733D01*
X127135847Y-63929138D01*
X127021435Y-64295676D01*
X125135000Y-64295676D01*
X125135000Y-62157485D01*
X126780800Y-62157485D01*
X126780800Y-62642513D01*
X126966412Y-63090621D01*
X127309378Y-63433587D01*
X127542698Y-63530231D01*
X127529137Y-63535848D01*
X127467732Y-63688128D01*
X127999999Y-64220395D01*
X128532266Y-63688128D01*
X128470861Y-63535848D01*
X128455396Y-63531021D01*
X128690622Y-63433587D01*
X129000000Y-63124210D01*
X129309377Y-63433587D01*
X129542698Y-63530232D01*
X129529139Y-63535848D01*
X129467734Y-63688128D01*
X130000001Y-64220395D01*
X130532268Y-63688128D01*
X130470863Y-63535848D01*
X130455396Y-63531020D01*
X130690621Y-63433587D01*
X131000000Y-63124209D01*
X131309378Y-63433587D01*
X131542698Y-63530231D01*
X131529137Y-63535848D01*
X131467732Y-63688128D01*
X131999999Y-64220395D01*
X132532266Y-63688128D01*
X132470861Y-63535848D01*
X132455396Y-63531021D01*
X132690622Y-63433587D01*
X133000001Y-63124209D01*
X133309379Y-63433587D01*
X133542699Y-63530231D01*
X133529138Y-63535848D01*
X133467733Y-63688128D01*
X134000000Y-64220395D01*
X134532267Y-63688128D01*
X134470862Y-63535848D01*
X134455397Y-63531021D01*
X134690623Y-63433587D01*
X135000000Y-63124210D01*
X135309377Y-63433587D01*
X135542697Y-63530231D01*
X135529137Y-63535848D01*
X135467732Y-63688128D01*
X135999999Y-64220395D01*
X136532266Y-63688128D01*
X136470861Y-63535848D01*
X136455395Y-63531020D01*
X136690621Y-63433587D01*
X137000000Y-63124209D01*
X137309378Y-63433587D01*
X137542698Y-63530231D01*
X137529138Y-63535848D01*
X137467733Y-63688128D01*
X138000000Y-64220395D01*
X138014143Y-64206253D01*
X138193748Y-64385858D01*
X138179605Y-64400000D01*
X138711872Y-64932267D01*
X138864152Y-64870862D01*
X138950325Y-64594794D01*
X139377172Y-64771600D01*
X139922828Y-64771600D01*
X140426949Y-64562786D01*
X140694059Y-64295676D01*
X141246437Y-64295676D01*
X141281003Y-64678097D01*
X141360849Y-64870862D01*
X141513129Y-64932267D01*
X142045396Y-64400000D01*
X141513129Y-63867733D01*
X141360849Y-63929138D01*
X141246437Y-64295676D01*
X140694059Y-64295676D01*
X140812786Y-64176949D01*
X141021600Y-63672828D01*
X141021600Y-63127172D01*
X140812786Y-62623051D01*
X140426949Y-62237214D01*
X139922828Y-62028400D01*
X139377172Y-62028400D01*
X139196696Y-62103156D01*
X139033588Y-61709377D01*
X138690622Y-61366411D01*
X138242514Y-61180799D01*
X137943410Y-61180799D01*
X138033587Y-61090622D01*
X138219199Y-60642514D01*
X138219199Y-60157486D01*
X138033587Y-59709378D01*
X137690621Y-59366412D01*
X137242513Y-59180800D01*
X136757485Y-59180800D01*
X136309377Y-59366412D01*
X136000000Y-59675790D01*
X135690622Y-59366412D01*
X135242514Y-59180800D01*
X134757486Y-59180800D01*
X134309378Y-59366412D01*
X134000000Y-59675791D01*
X133690621Y-59366412D01*
X133242513Y-59180800D01*
X132757485Y-59180800D01*
X132309377Y-59366412D01*
X132000000Y-59675789D01*
X131690623Y-59366412D01*
X131242515Y-59180800D01*
X130757487Y-59180800D01*
X130309379Y-59366412D01*
X130000000Y-59675791D01*
X129690621Y-59366412D01*
X129242513Y-59180800D01*
X128757485Y-59180800D01*
X128309377Y-59366412D01*
X127966411Y-59709378D01*
X127780799Y-60157486D01*
X127780799Y-60642514D01*
X127966411Y-61090622D01*
X128056588Y-61180799D01*
X127757486Y-61180799D01*
X127309378Y-61366411D01*
X126966412Y-61709377D01*
X126780800Y-62157485D01*
X125135000Y-62157485D01*
X125135000Y-58861783D01*
X125157235Y-58750000D01*
X125069146Y-58307145D01*
X124954122Y-58135000D01*
X124818289Y-57931711D01*
X124723521Y-57868389D01*
X123855131Y-57000000D01*
X125299700Y-55555431D01*
X151765000Y-55555431D01*
X151765000Y-56444569D01*
X152105259Y-57266026D01*
X152733974Y-57894741D01*
X153555431Y-58235000D01*
X154444569Y-58235000D01*
X155266026Y-57894741D01*
X155894741Y-57266026D01*
X156235000Y-56444569D01*
X156235000Y-55555431D01*
X155894741Y-54733974D01*
X155266026Y-54105259D01*
X154444569Y-53765000D01*
X153555431Y-53765000D01*
X152733974Y-54105259D01*
X152105259Y-54733974D01*
X151765000Y-55555431D01*
X125299700Y-55555431D01*
X125846847Y-55008285D01*
X125897765Y-54998157D01*
X126000000Y-54929845D01*
X126102235Y-54998157D01*
X126350000Y-55047440D01*
X127150000Y-55047440D01*
X127397765Y-54998157D01*
X127607809Y-54857809D01*
X127673163Y-54760000D01*
X129142765Y-54760000D01*
X129211753Y-54863247D01*
X129498848Y-55055078D01*
X129837500Y-55122440D01*
X130412500Y-55122440D01*
X130751152Y-55055078D01*
X131038247Y-54863247D01*
X131102808Y-54766624D01*
X131134180Y-54797996D01*
X131274214Y-54856000D01*
X131652750Y-54856000D01*
X131748000Y-54760750D01*
X131748000Y-54127000D01*
X132002000Y-54127000D01*
X132002000Y-54760750D01*
X132097250Y-54856000D01*
X132475786Y-54856000D01*
X132615820Y-54797996D01*
X132722996Y-54690819D01*
X132781000Y-54550785D01*
X132781000Y-54222250D01*
X132685750Y-54127000D01*
X132002000Y-54127000D01*
X131748000Y-54127000D01*
X131728000Y-54127000D01*
X131728000Y-53873000D01*
X131748000Y-53873000D01*
X131748000Y-53239250D01*
X132002000Y-53239250D01*
X132002000Y-53873000D01*
X132685750Y-53873000D01*
X132781000Y-53777750D01*
X132781000Y-53449215D01*
X132722996Y-53309181D01*
X132615820Y-53202004D01*
X132475786Y-53144000D01*
X132097250Y-53144000D01*
X132002000Y-53239250D01*
X131748000Y-53239250D01*
X131652750Y-53144000D01*
X131274214Y-53144000D01*
X131134180Y-53202004D01*
X131102808Y-53233376D01*
X131038247Y-53136753D01*
X130751152Y-52944922D01*
X130412500Y-52877560D01*
X129837500Y-52877560D01*
X129498848Y-52944922D01*
X129211753Y-53136753D01*
X129142765Y-53240000D01*
X127673163Y-53240000D01*
X127607809Y-53142191D01*
X127397765Y-53001843D01*
X127150000Y-52952560D01*
X126350000Y-52952560D01*
X126102235Y-53001843D01*
X126000000Y-53070155D01*
X125897765Y-53001843D01*
X125757273Y-52973898D01*
X125692854Y-52930854D01*
X125250000Y-52842765D01*
X124807145Y-52930854D01*
X124742725Y-52973898D01*
X124602235Y-53001843D01*
X124392191Y-53142191D01*
X124251843Y-53352235D01*
X124241715Y-53403153D01*
X121779869Y-55865000D01*
X120530793Y-55865000D01*
X120067767Y-55401974D01*
X119374950Y-55115000D01*
X118625050Y-55115000D01*
X117932233Y-55401974D01*
X117401974Y-55932233D01*
X117115000Y-56625050D01*
X110685000Y-56625050D01*
X110685000Y-52685000D01*
X159315000Y-52685000D01*
X159315001Y-86716263D01*
G36*
X147637214Y-62623051D02*
X147428400Y-63127172D01*
X147428400Y-63672828D01*
X147637214Y-64176949D01*
X148023051Y-64562786D01*
X148527172Y-64771600D01*
X149072828Y-64771600D01*
X149576949Y-64562786D01*
X149962786Y-64176949D01*
X149995160Y-64098791D01*
X152970000Y-67073632D01*
X152970001Y-68084155D01*
X152725405Y-68328751D01*
X152545000Y-68764289D01*
X152545000Y-69235711D01*
X152710390Y-69635000D01*
X152545000Y-70034289D01*
X152545000Y-70505711D01*
X152658614Y-70780000D01*
X149854802Y-70780000D01*
X146894201Y-67819400D01*
X146894201Y-67307872D01*
X147120677Y-67378565D01*
X147503098Y-67343999D01*
X147695863Y-67264153D01*
X147757268Y-67111873D01*
X147225001Y-66579606D01*
X147210859Y-66593749D01*
X147031254Y-66414144D01*
X147045396Y-66400001D01*
X147404606Y-66400001D01*
X147936873Y-66932268D01*
X148089153Y-66870863D01*
X148203565Y-66504325D01*
X148168999Y-66121904D01*
X148089153Y-65929139D01*
X147936873Y-65867734D01*
X147404606Y-66400001D01*
X147045396Y-66400001D01*
X147031254Y-66385859D01*
X147210859Y-66206254D01*
X147225001Y-66220396D01*
X147757268Y-65688129D01*
X147695863Y-65535849D01*
X147329325Y-65421437D01*
X146946904Y-65456003D01*
X146760641Y-65533156D01*
X146742130Y-65505451D01*
X146915623Y-65433588D01*
X147258589Y-65090622D01*
X147444201Y-64642514D01*
X147444201Y-64157486D01*
X147258589Y-63709378D01*
X146949211Y-63400000D01*
X147258589Y-63090621D01*
X147444201Y-62642513D01*
X147444201Y-62575800D01*
X147684465Y-62575800D01*
X147637214Y-62623051D01*
X147637214Y-62623051D01*
G37*
X147637214Y-62623051D02*
X147428400Y-63127172D01*
X147428400Y-63672828D01*
X147637214Y-64176949D01*
X148023051Y-64562786D01*
X148527172Y-64771600D01*
X149072828Y-64771600D01*
X149576949Y-64562786D01*
X149962786Y-64176949D01*
X149995160Y-64098791D01*
X152970000Y-67073632D01*
X152970001Y-68084155D01*
X152725405Y-68328751D01*
X152545000Y-68764289D01*
X152545000Y-69235711D01*
X152710390Y-69635000D01*
X152545000Y-70034289D01*
X152545000Y-70505711D01*
X152658614Y-70780000D01*
X149854802Y-70780000D01*
X146894201Y-67819400D01*
X146894201Y-67307872D01*
X147120677Y-67378565D01*
X147503098Y-67343999D01*
X147695863Y-67264153D01*
X147757268Y-67111873D01*
X147225001Y-66579606D01*
X147210859Y-66593749D01*
X147031254Y-66414144D01*
X147045396Y-66400001D01*
X147404606Y-66400001D01*
X147936873Y-66932268D01*
X148089153Y-66870863D01*
X148203565Y-66504325D01*
X148168999Y-66121904D01*
X148089153Y-65929139D01*
X147936873Y-65867734D01*
X147404606Y-66400001D01*
X147045396Y-66400001D01*
X147031254Y-66385859D01*
X147210859Y-66206254D01*
X147225001Y-66220396D01*
X147757268Y-65688129D01*
X147695863Y-65535849D01*
X147329325Y-65421437D01*
X146946904Y-65456003D01*
X146760641Y-65533156D01*
X146742130Y-65505451D01*
X146915623Y-65433588D01*
X147258589Y-65090622D01*
X147444201Y-64642514D01*
X147444201Y-64157486D01*
X147258589Y-63709378D01*
X146949211Y-63400000D01*
X147258589Y-63090621D01*
X147444201Y-62642513D01*
X147444201Y-62575800D01*
X147684465Y-62575800D01*
X147637214Y-62623051D01*
G36*
X145374201Y-66341312D02*
X145374201Y-66458690D01*
X145239143Y-66593749D01*
X145225000Y-66579606D01*
X145210858Y-66593749D01*
X145031253Y-66414144D01*
X145045395Y-66400001D01*
X145031253Y-66385859D01*
X145210858Y-66206254D01*
X145225000Y-66220396D01*
X145239143Y-66206254D01*
X145374201Y-66341312D01*
X145374201Y-66341312D01*
G37*
X145374201Y-66341312D02*
X145374201Y-66458690D01*
X145239143Y-66593749D01*
X145225000Y-66579606D01*
X145210858Y-66593749D01*
X145031253Y-66414144D01*
X145045395Y-66400001D01*
X145031253Y-66385859D01*
X145210858Y-66206254D01*
X145225000Y-66220396D01*
X145239143Y-66206254D01*
X145374201Y-66341312D01*
G36*
X144374202Y-64341313D02*
X144374202Y-64458687D01*
X144239142Y-64593748D01*
X144224999Y-64579605D01*
X144210857Y-64593748D01*
X144075798Y-64458689D01*
X144075798Y-64341311D01*
X144210857Y-64206253D01*
X144224999Y-64220395D01*
X144239142Y-64206253D01*
X144374202Y-64341313D01*
X144374202Y-64341313D01*
G37*
X144374202Y-64341313D02*
X144374202Y-64458687D01*
X144239142Y-64593748D01*
X144224999Y-64579605D01*
X144210857Y-64593748D01*
X144075798Y-64458689D01*
X144075798Y-64341311D01*
X144210857Y-64206253D01*
X144224999Y-64220395D01*
X144239142Y-64206253D01*
X144374202Y-64341313D01*
G04 #@! TD*
M02*
