G04 #@! TF.GenerationSoftware,KiCad,Pcbnew,5.0.2+dfsg1-1*
G04 #@! TF.CreationDate,2021-07-01T00:11:18-05:00*
G04 #@! TF.ProjectId,dcpsu-card-a,64637073-752d-4636-9172-642d612e6b69,v0.4-DI-WIP*
G04 #@! TF.SameCoordinates,Original*
G04 #@! TF.FileFunction,Legend,Top*
G04 #@! TF.FilePolarity,Positive*
%FSLAX46Y46*%
G04 Gerber Fmt 4.6, Leading zero omitted, Abs format (unit mm)*
G04 Created by KiCad (PCBNEW 5.0.2+dfsg1-1) date Thu 01 Jul 2021 12:11:18 AM CDT*
%MOMM*%
%LPD*%
G01*
G04 APERTURE LIST*
%ADD10C,0.300000*%
%ADD11C,0.120000*%
%ADD12C,0.150000*%
%ADD13C,0.100000*%
G04 APERTURE END LIST*
D10*
X138750000Y-78623571D02*
X138678571Y-78766428D01*
X138678571Y-78980714D01*
X138750000Y-79195000D01*
X138892857Y-79337857D01*
X139035714Y-79409285D01*
X139321428Y-79480714D01*
X139535714Y-79480714D01*
X139821428Y-79409285D01*
X139964285Y-79337857D01*
X140107142Y-79195000D01*
X140178571Y-78980714D01*
X140178571Y-78837857D01*
X140107142Y-78623571D01*
X140035714Y-78552142D01*
X139535714Y-78552142D01*
X139535714Y-78837857D01*
X140178571Y-77909285D02*
X138678571Y-77909285D01*
X140178571Y-77052142D01*
X138678571Y-77052142D01*
X140178571Y-76337857D02*
X138678571Y-76337857D01*
X138678571Y-75980714D01*
X138750000Y-75766428D01*
X138892857Y-75623571D01*
X139035714Y-75552142D01*
X139321428Y-75480714D01*
X139535714Y-75480714D01*
X139821428Y-75552142D01*
X139964285Y-75623571D01*
X140107142Y-75766428D01*
X140178571Y-75980714D01*
X140178571Y-76337857D01*
X136250000Y-78623571D02*
X136178571Y-78766428D01*
X136178571Y-78980714D01*
X136250000Y-79195000D01*
X136392857Y-79337857D01*
X136535714Y-79409285D01*
X136821428Y-79480714D01*
X137035714Y-79480714D01*
X137321428Y-79409285D01*
X137464285Y-79337857D01*
X137607142Y-79195000D01*
X137678571Y-78980714D01*
X137678571Y-78837857D01*
X137607142Y-78623571D01*
X137535714Y-78552142D01*
X137035714Y-78552142D01*
X137035714Y-78837857D01*
X137678571Y-77909285D02*
X136178571Y-77909285D01*
X137678571Y-77052142D01*
X136178571Y-77052142D01*
X137678571Y-76337857D02*
X136178571Y-76337857D01*
X136178571Y-75980714D01*
X136250000Y-75766428D01*
X136392857Y-75623571D01*
X136535714Y-75552142D01*
X136821428Y-75480714D01*
X137035714Y-75480714D01*
X137321428Y-75552142D01*
X137464285Y-75623571D01*
X137607142Y-75766428D01*
X137678571Y-75980714D01*
X137678571Y-76337857D01*
X133678571Y-79337857D02*
X135178571Y-78837857D01*
X133678571Y-78337857D01*
X135035714Y-76980714D02*
X135107142Y-77052142D01*
X135178571Y-77266428D01*
X135178571Y-77409285D01*
X135107142Y-77623571D01*
X134964285Y-77766428D01*
X134821428Y-77837857D01*
X134535714Y-77909285D01*
X134321428Y-77909285D01*
X134035714Y-77837857D01*
X133892857Y-77766428D01*
X133750000Y-77623571D01*
X133678571Y-77409285D01*
X133678571Y-77266428D01*
X133750000Y-77052142D01*
X133821428Y-76980714D01*
X135035714Y-75480714D02*
X135107142Y-75552142D01*
X135178571Y-75766428D01*
X135178571Y-75909285D01*
X135107142Y-76123571D01*
X134964285Y-76266428D01*
X134821428Y-76337857D01*
X134535714Y-76409285D01*
X134321428Y-76409285D01*
X134035714Y-76337857D01*
X133892857Y-76266428D01*
X133750000Y-76123571D01*
X133678571Y-75909285D01*
X133678571Y-75766428D01*
X133750000Y-75552142D01*
X133821428Y-75480714D01*
X132678571Y-76909285D02*
X131964285Y-77409285D01*
X132678571Y-77766428D02*
X131178571Y-77766428D01*
X131178571Y-77195000D01*
X131250000Y-77052142D01*
X131321428Y-76980714D01*
X131464285Y-76909285D01*
X131678571Y-76909285D01*
X131821428Y-76980714D01*
X131892857Y-77052142D01*
X131964285Y-77195000D01*
X131964285Y-77766428D01*
X131178571Y-76409285D02*
X132678571Y-75409285D01*
X131178571Y-75409285D02*
X132678571Y-76409285D01*
X128678571Y-77623571D02*
X128678571Y-76766428D01*
X130178571Y-77195000D02*
X128678571Y-77195000D01*
X128678571Y-76409285D02*
X130178571Y-75409285D01*
X128678571Y-75409285D02*
X130178571Y-76409285D01*
X127678571Y-78980714D02*
X126178571Y-78980714D01*
X126178571Y-78623571D01*
X126250000Y-78409285D01*
X126392857Y-78266428D01*
X126535714Y-78195000D01*
X126821428Y-78123571D01*
X127035714Y-78123571D01*
X127321428Y-78195000D01*
X127464285Y-78266428D01*
X127607142Y-78409285D01*
X127678571Y-78623571D01*
X127678571Y-78980714D01*
X126178571Y-77695000D02*
X126178571Y-76837857D01*
X127678571Y-77266428D02*
X126178571Y-77266428D01*
X127678571Y-75480714D02*
X126964285Y-75980714D01*
X127678571Y-76337857D02*
X126178571Y-76337857D01*
X126178571Y-75766428D01*
X126250000Y-75623571D01*
X126321428Y-75552142D01*
X126464285Y-75480714D01*
X126678571Y-75480714D01*
X126821428Y-75552142D01*
X126892857Y-75623571D01*
X126964285Y-75766428D01*
X126964285Y-76337857D01*
X100162142Y-71178571D02*
X100662142Y-72678571D01*
X101162142Y-71178571D01*
X102519285Y-72535714D02*
X102447857Y-72607142D01*
X102233571Y-72678571D01*
X102090714Y-72678571D01*
X101876428Y-72607142D01*
X101733571Y-72464285D01*
X101662142Y-72321428D01*
X101590714Y-72035714D01*
X101590714Y-71821428D01*
X101662142Y-71535714D01*
X101733571Y-71392857D01*
X101876428Y-71250000D01*
X102090714Y-71178571D01*
X102233571Y-71178571D01*
X102447857Y-71250000D01*
X102519285Y-71321428D01*
X104019285Y-72535714D02*
X103947857Y-72607142D01*
X103733571Y-72678571D01*
X103590714Y-72678571D01*
X103376428Y-72607142D01*
X103233571Y-72464285D01*
X103162142Y-72321428D01*
X103090714Y-72035714D01*
X103090714Y-71821428D01*
X103162142Y-71535714D01*
X103233571Y-71392857D01*
X103376428Y-71250000D01*
X103590714Y-71178571D01*
X103733571Y-71178571D01*
X103947857Y-71250000D01*
X104019285Y-71321428D01*
X148071428Y-100178571D02*
X148571428Y-101678571D01*
X149071428Y-100178571D01*
X149571428Y-101107142D02*
X150714285Y-101107142D01*
X150142857Y-101678571D02*
X150142857Y-100535714D01*
X148857142Y-110750000D02*
X148714285Y-110678571D01*
X148500000Y-110678571D01*
X148285714Y-110750000D01*
X148142857Y-110892857D01*
X148071428Y-111035714D01*
X148000000Y-111321428D01*
X148000000Y-111535714D01*
X148071428Y-111821428D01*
X148142857Y-111964285D01*
X148285714Y-112107142D01*
X148500000Y-112178571D01*
X148642857Y-112178571D01*
X148857142Y-112107142D01*
X148928571Y-112035714D01*
X148928571Y-111535714D01*
X148642857Y-111535714D01*
X149571428Y-112178571D02*
X149571428Y-110678571D01*
X150428571Y-112178571D01*
X150428571Y-110678571D01*
X151142857Y-112178571D02*
X151142857Y-110678571D01*
X151500000Y-110678571D01*
X151714285Y-110750000D01*
X151857142Y-110892857D01*
X151928571Y-111035714D01*
X152000000Y-111321428D01*
X152000000Y-111535714D01*
X151928571Y-111821428D01*
X151857142Y-111964285D01*
X151714285Y-112107142D01*
X151500000Y-112178571D01*
X151142857Y-112178571D01*
X92403571Y-128447857D02*
X90903571Y-128447857D01*
X90903571Y-128090714D01*
X90975000Y-127876428D01*
X91117857Y-127733571D01*
X91260714Y-127662142D01*
X91546428Y-127590714D01*
X91760714Y-127590714D01*
X92046428Y-127662142D01*
X92189285Y-127733571D01*
X92332142Y-127876428D01*
X92403571Y-128090714D01*
X92403571Y-128447857D01*
X92260714Y-126090714D02*
X92332142Y-126162142D01*
X92403571Y-126376428D01*
X92403571Y-126519285D01*
X92332142Y-126733571D01*
X92189285Y-126876428D01*
X92046428Y-126947857D01*
X91760714Y-127019285D01*
X91546428Y-127019285D01*
X91260714Y-126947857D01*
X91117857Y-126876428D01*
X90975000Y-126733571D01*
X90903571Y-126519285D01*
X90903571Y-126376428D01*
X90975000Y-126162142D01*
X91046428Y-126090714D01*
X92403571Y-125447857D02*
X90903571Y-125447857D01*
X90903571Y-124876428D01*
X90975000Y-124733571D01*
X91046428Y-124662142D01*
X91189285Y-124590714D01*
X91403571Y-124590714D01*
X91546428Y-124662142D01*
X91617857Y-124733571D01*
X91689285Y-124876428D01*
X91689285Y-125447857D01*
X92332142Y-124019285D02*
X92403571Y-123805000D01*
X92403571Y-123447857D01*
X92332142Y-123305000D01*
X92260714Y-123233571D01*
X92117857Y-123162142D01*
X91975000Y-123162142D01*
X91832142Y-123233571D01*
X91760714Y-123305000D01*
X91689285Y-123447857D01*
X91617857Y-123733571D01*
X91546428Y-123876428D01*
X91475000Y-123947857D01*
X91332142Y-124019285D01*
X91189285Y-124019285D01*
X91046428Y-123947857D01*
X90975000Y-123876428D01*
X90903571Y-123733571D01*
X90903571Y-123376428D01*
X90975000Y-123162142D01*
X90903571Y-122519285D02*
X92117857Y-122519285D01*
X92260714Y-122447857D01*
X92332142Y-122376428D01*
X92403571Y-122233571D01*
X92403571Y-121947857D01*
X92332142Y-121805000D01*
X92260714Y-121733571D01*
X92117857Y-121662142D01*
X90903571Y-121662142D01*
X92260714Y-118947857D02*
X92332142Y-119019285D01*
X92403571Y-119233571D01*
X92403571Y-119376428D01*
X92332142Y-119590714D01*
X92189285Y-119733571D01*
X92046428Y-119805000D01*
X91760714Y-119876428D01*
X91546428Y-119876428D01*
X91260714Y-119805000D01*
X91117857Y-119733571D01*
X90975000Y-119590714D01*
X90903571Y-119376428D01*
X90903571Y-119233571D01*
X90975000Y-119019285D01*
X91046428Y-118947857D01*
X92403571Y-117662142D02*
X91617857Y-117662142D01*
X91475000Y-117733571D01*
X91403571Y-117876428D01*
X91403571Y-118162142D01*
X91475000Y-118305000D01*
X92332142Y-117662142D02*
X92403571Y-117805000D01*
X92403571Y-118162142D01*
X92332142Y-118305000D01*
X92189285Y-118376428D01*
X92046428Y-118376428D01*
X91903571Y-118305000D01*
X91832142Y-118162142D01*
X91832142Y-117805000D01*
X91760714Y-117662142D01*
X92403571Y-116947857D02*
X91403571Y-116947857D01*
X91689285Y-116947857D02*
X91546428Y-116876428D01*
X91475000Y-116805000D01*
X91403571Y-116662142D01*
X91403571Y-116519285D01*
X92403571Y-115376428D02*
X90903571Y-115376428D01*
X92332142Y-115376428D02*
X92403571Y-115519285D01*
X92403571Y-115805000D01*
X92332142Y-115947857D01*
X92260714Y-116019285D01*
X92117857Y-116090714D01*
X91689285Y-116090714D01*
X91546428Y-116019285D01*
X91475000Y-115947857D01*
X91403571Y-115805000D01*
X91403571Y-115519285D01*
X91475000Y-115376428D01*
X91975000Y-113590714D02*
X91975000Y-112876428D01*
X92403571Y-113733571D02*
X90903571Y-113233571D01*
X92403571Y-112733571D01*
X92260714Y-112233571D02*
X92332142Y-112162142D01*
X92403571Y-112233571D01*
X92332142Y-112305000D01*
X92260714Y-112233571D01*
X92403571Y-112233571D01*
X92403571Y-111519285D02*
X90903571Y-111519285D01*
X90903571Y-111162142D01*
X90975000Y-110947857D01*
X91117857Y-110805000D01*
X91260714Y-110733571D01*
X91546428Y-110662142D01*
X91760714Y-110662142D01*
X92046428Y-110733571D01*
X92189285Y-110805000D01*
X92332142Y-110947857D01*
X92403571Y-111162142D01*
X92403571Y-111519285D01*
X92403571Y-110019285D02*
X90903571Y-110019285D01*
X93953571Y-128590714D02*
X94953571Y-128233571D01*
X93953571Y-127876428D01*
X93453571Y-127019285D02*
X93453571Y-126876428D01*
X93525000Y-126733571D01*
X93596428Y-126662142D01*
X93739285Y-126590714D01*
X94025000Y-126519285D01*
X94382142Y-126519285D01*
X94667857Y-126590714D01*
X94810714Y-126662142D01*
X94882142Y-126733571D01*
X94953571Y-126876428D01*
X94953571Y-127019285D01*
X94882142Y-127162142D01*
X94810714Y-127233571D01*
X94667857Y-127305000D01*
X94382142Y-127376428D01*
X94025000Y-127376428D01*
X93739285Y-127305000D01*
X93596428Y-127233571D01*
X93525000Y-127162142D01*
X93453571Y-127019285D01*
X94810714Y-125876428D02*
X94882142Y-125805000D01*
X94953571Y-125876428D01*
X94882142Y-125947857D01*
X94810714Y-125876428D01*
X94953571Y-125876428D01*
X93953571Y-124519285D02*
X94953571Y-124519285D01*
X93382142Y-124876428D02*
X94453571Y-125233571D01*
X94453571Y-124305000D01*
D11*
G04 #@! TO.C,L1*
X114202631Y-120515000D02*
X115797369Y-120515000D01*
X114202631Y-110315000D02*
X115797369Y-110315000D01*
G04 #@! TO.C,R1*
X101010000Y-91171267D02*
X101010000Y-90828733D01*
X99990000Y-91171267D02*
X99990000Y-90828733D01*
G04 #@! TO.C,R20*
X99010000Y-107171267D02*
X99010000Y-106828733D01*
X97990000Y-107171267D02*
X97990000Y-106828733D01*
G04 #@! TO.C,C3*
X123510000Y-73171267D02*
X123510000Y-72828733D01*
X122490000Y-73171267D02*
X122490000Y-72828733D01*
G04 #@! TO.C,C5*
X105828733Y-112510000D02*
X106171267Y-112510000D01*
X105828733Y-111490000D02*
X106171267Y-111490000D01*
G04 #@! TO.C,C14*
X130828733Y-105510000D02*
X131171267Y-105510000D01*
X130828733Y-104490000D02*
X131171267Y-104490000D01*
G04 #@! TO.C,D1*
X138890000Y-120810000D02*
X139300000Y-120810000D01*
X142700000Y-120810000D02*
X143110000Y-120810000D01*
X143110000Y-120810000D02*
X143110000Y-115190000D01*
X138890000Y-115190000D02*
X138890000Y-120810000D01*
X142700000Y-120810000D02*
X142700000Y-121600000D01*
X138890000Y-115190000D02*
X139150000Y-115190000D01*
X142850000Y-115190000D02*
X143110000Y-115190000D01*
G04 #@! TO.C,C1*
X103990000Y-84328733D02*
X103990000Y-84671267D01*
X105010000Y-84328733D02*
X105010000Y-84671267D01*
G04 #@! TO.C,C4*
X100990000Y-110328733D02*
X100990000Y-110671267D01*
X102010000Y-110328733D02*
X102010000Y-110671267D01*
G04 #@! TO.C,C7*
X103397936Y-120910000D02*
X104602064Y-120910000D01*
X103397936Y-119090000D02*
X104602064Y-119090000D01*
G04 #@! TO.C,C8*
X124910000Y-113602064D02*
X124910000Y-112397936D01*
X123090000Y-113602064D02*
X123090000Y-112397936D01*
G04 #@! TO.C,C9*
X120171267Y-102490000D02*
X119828733Y-102490000D01*
X120171267Y-103510000D02*
X119828733Y-103510000D01*
G04 #@! TO.C,C10*
X127910000Y-113602064D02*
X127910000Y-112397936D01*
X126090000Y-113602064D02*
X126090000Y-112397936D01*
G04 #@! TO.C,C13*
X138010000Y-103171267D02*
X138010000Y-102828733D01*
X136990000Y-103171267D02*
X136990000Y-102828733D01*
G04 #@! TO.C,R2*
X104328733Y-110510000D02*
X104671267Y-110510000D01*
X104328733Y-109490000D02*
X104671267Y-109490000D01*
G04 #@! TO.C,R4*
X119671267Y-90990000D02*
X119328733Y-90990000D01*
X119671267Y-92010000D02*
X119328733Y-92010000D01*
G04 #@! TO.C,R5*
X119671267Y-92990000D02*
X119328733Y-92990000D01*
X119671267Y-94010000D02*
X119328733Y-94010000D01*
G04 #@! TO.C,R6*
X99010000Y-110671267D02*
X99010000Y-110328733D01*
X97990000Y-110671267D02*
X97990000Y-110328733D01*
G04 #@! TO.C,R9*
X100510000Y-107171267D02*
X100510000Y-106828733D01*
X99490000Y-107171267D02*
X99490000Y-106828733D01*
G04 #@! TO.C,R10*
X100510000Y-110671267D02*
X100510000Y-110328733D01*
X99490000Y-110671267D02*
X99490000Y-110328733D01*
G04 #@! TO.C,R12*
X130897936Y-112910000D02*
X132102064Y-112910000D01*
X130897936Y-111090000D02*
X132102064Y-111090000D01*
G04 #@! TO.C,R13*
X130897936Y-115910000D02*
X132102064Y-115910000D01*
X130897936Y-114090000D02*
X132102064Y-114090000D01*
G04 #@! TO.C,R15*
X134990000Y-106328733D02*
X134990000Y-106671267D01*
X136010000Y-106328733D02*
X136010000Y-106671267D01*
G04 #@! TO.C,R16*
X134990000Y-102828733D02*
X134990000Y-103171267D01*
X136010000Y-102828733D02*
X136010000Y-103171267D01*
G04 #@! TO.C,R17*
X131490000Y-107828733D02*
X131490000Y-108171267D01*
X132510000Y-107828733D02*
X132510000Y-108171267D01*
G04 #@! TO.C,U1*
X97615000Y-83140000D02*
X97140000Y-83140000D01*
X102360000Y-88360000D02*
X102360000Y-87885000D01*
X101885000Y-88360000D02*
X102360000Y-88360000D01*
X97140000Y-88360000D02*
X97140000Y-87885000D01*
X97615000Y-88360000D02*
X97140000Y-88360000D01*
X102360000Y-83140000D02*
X102360000Y-83615000D01*
X101885000Y-83140000D02*
X102360000Y-83140000D01*
G04 #@! TO.C,C15*
X131510000Y-97828733D02*
X131510000Y-98171267D01*
X130490000Y-97828733D02*
X130490000Y-98171267D01*
G04 #@! TO.C,R18*
X136990000Y-106671267D02*
X136990000Y-106328733D01*
X138010000Y-106671267D02*
X138010000Y-106328733D01*
G04 #@! TO.C,R11*
X130897936Y-117090000D02*
X132102064Y-117090000D01*
X130897936Y-118910000D02*
X132102064Y-118910000D01*
G04 #@! TO.C,R14*
X131010000Y-107828733D02*
X131010000Y-108171267D01*
X129990000Y-107828733D02*
X129990000Y-108171267D01*
G04 #@! TO.C,U4*
X128900000Y-100390000D02*
X127100000Y-100390000D01*
X127100000Y-103610000D02*
X130050000Y-103610000D01*
G04 #@! TO.C,J2*
X125670000Y-74330000D02*
X125670000Y-73000000D01*
X127000000Y-74330000D02*
X125670000Y-74330000D01*
X128270000Y-74330000D02*
X128270000Y-71670000D01*
X128270000Y-71670000D02*
X141030000Y-71670000D01*
X128270000Y-74330000D02*
X141030000Y-74330000D01*
X141030000Y-74330000D02*
X141030000Y-71670000D01*
G04 #@! TO.C,J3*
X104650000Y-71055000D02*
X120430000Y-71055000D01*
X120430000Y-71055000D02*
X120430000Y-80405000D01*
X120430000Y-80405000D02*
X104650000Y-80405000D01*
X104650000Y-80405000D02*
X104650000Y-71055000D01*
X104400000Y-80655000D02*
X106940000Y-80655000D01*
X104400000Y-80655000D02*
X104400000Y-78115000D01*
G04 #@! TO.C,C1*
X96010000Y-86171267D02*
X96010000Y-85828733D01*
X94990000Y-86171267D02*
X94990000Y-85828733D01*
D12*
G04 #@! TO.C,D2*
X159900000Y-86000000D02*
X159900000Y-91200000D01*
X157500000Y-86000000D02*
X157500000Y-91200000D01*
X157500000Y-86000000D02*
X159900000Y-86000000D01*
X157500000Y-91200000D02*
X159900000Y-91200000D01*
X159700000Y-91600000D02*
G75*
G03X159700000Y-91600000I-100000J0D01*
G01*
D11*
G04 #@! TO.C,R19*
X153510000Y-83171267D02*
X153510000Y-82828733D01*
X152490000Y-83171267D02*
X152490000Y-82828733D01*
G04 #@! TO.C,R21*
X154490000Y-82828733D02*
X154490000Y-83171267D01*
X155510000Y-82828733D02*
X155510000Y-83171267D01*
G04 #@! TO.C,R22*
X157510000Y-82828733D02*
X157510000Y-83171267D01*
X156490000Y-82828733D02*
X156490000Y-83171267D01*
G04 #@! TO.C,C16*
X115828733Y-102490000D02*
X116171267Y-102490000D01*
X115828733Y-103510000D02*
X116171267Y-103510000D01*
D13*
G04 #@! TO.C,U3*
X116700000Y-101650000D02*
X116700000Y-101050000D01*
X116700000Y-101050000D02*
X116350000Y-100600000D01*
X116700000Y-99000000D02*
X116350000Y-99000000D01*
X116350000Y-99000000D02*
X116350000Y-99350000D01*
X119650000Y-100650000D02*
X119650000Y-101000000D01*
X119650000Y-101000000D02*
X119300000Y-101000000D01*
X119300000Y-99000000D02*
X119650000Y-99000000D01*
X119650000Y-99000000D02*
X119650000Y-99350000D01*
D11*
G04 #@! TO.C,R23*
X89490000Y-103171267D02*
X89490000Y-102828733D01*
X90510000Y-103171267D02*
X90510000Y-102828733D01*
G04 #@! TO.C,R24*
X154171267Y-86490000D02*
X153828733Y-86490000D01*
X154171267Y-87510000D02*
X153828733Y-87510000D01*
G04 #@! TO.C,R25*
X154171267Y-89510000D02*
X153828733Y-89510000D01*
X154171267Y-88490000D02*
X153828733Y-88490000D01*
G04 #@! TO.C,C11*
X122090000Y-125410000D02*
X124440000Y-125410000D01*
X128910000Y-125410000D02*
X126560000Y-125410000D01*
X128910000Y-119654437D02*
X128910000Y-125410000D01*
X122090000Y-119654437D02*
X122090000Y-125410000D01*
X123154437Y-118590000D02*
X124440000Y-118590000D01*
X127845563Y-118590000D02*
X126560000Y-118590000D01*
X127845563Y-118590000D02*
X128910000Y-119654437D01*
X123154437Y-118590000D02*
X122090000Y-119654437D01*
X127347500Y-117562500D02*
X127347500Y-118350000D01*
X127741250Y-117956250D02*
X126953750Y-117956250D01*
G04 #@! TO.C,J4*
X151310000Y-103170000D02*
X151310000Y-109330000D01*
X151310000Y-109330000D02*
X159990000Y-109330000D01*
X159990000Y-109330000D02*
X159990000Y-103170000D01*
X159990000Y-103170000D02*
X151310000Y-103170000D01*
X151310000Y-105150000D02*
X151310000Y-104850000D01*
X151310000Y-104850000D02*
X150860000Y-104850000D01*
X150860000Y-104850000D02*
X150860000Y-105150000D01*
X150860000Y-105150000D02*
X151310000Y-105150000D01*
X151310000Y-107650000D02*
X151310000Y-107350000D01*
X151310000Y-107350000D02*
X150860000Y-107350000D01*
X150860000Y-107350000D02*
X150860000Y-107650000D01*
X150860000Y-107650000D02*
X151310000Y-107650000D01*
X149500000Y-103890000D02*
X149800000Y-103465736D01*
X149800000Y-103465736D02*
X149200000Y-103465736D01*
X149200000Y-103465736D02*
X149500000Y-103890000D01*
G04 #@! TO.C,D3*
X97810000Y-101110000D02*
X97810000Y-100700000D01*
X97810000Y-97300000D02*
X97810000Y-96890000D01*
X97810000Y-96890000D02*
X92190000Y-96890000D01*
X92190000Y-101110000D02*
X97810000Y-101110000D01*
X97810000Y-97300000D02*
X98600000Y-97300000D01*
X92190000Y-101110000D02*
X92190000Y-100850000D01*
X92190000Y-97150000D02*
X92190000Y-96890000D01*
G04 #@! TO.C,D4*
X97810000Y-96110000D02*
X97810000Y-95700000D01*
X97810000Y-92300000D02*
X97810000Y-91890000D01*
X97810000Y-91890000D02*
X92190000Y-91890000D01*
X92190000Y-96110000D02*
X97810000Y-96110000D01*
X97810000Y-92300000D02*
X98600000Y-92300000D01*
X92190000Y-96110000D02*
X92190000Y-95850000D01*
X92190000Y-92150000D02*
X92190000Y-91890000D01*
G04 #@! TO.C,R27*
X104410000Y-105102064D02*
X104410000Y-103897936D01*
X102590000Y-105102064D02*
X102590000Y-103897936D01*
G04 #@! TO.C,R28*
X105090000Y-105102064D02*
X105090000Y-103897936D01*
X106910000Y-105102064D02*
X106910000Y-103897936D01*
G04 #@! TO.C,C2*
X103397936Y-121590000D02*
X104602064Y-121590000D01*
X103397936Y-123410000D02*
X104602064Y-123410000D01*
G04 #@! TO.C,U2*
X103100000Y-116610000D02*
X104900000Y-116610000D01*
X104900000Y-113390000D02*
X101950000Y-113390000D01*
G04 #@! TO.C,C6*
X103828733Y-117490000D02*
X104171267Y-117490000D01*
X103828733Y-118510000D02*
X104171267Y-118510000D01*
D13*
G04 #@! TO.C,D5*
X96990000Y-102500000D02*
G75*
G03X96990000Y-102500000I-50000J0D01*
G01*
G04 #@! TO.C,POT1*
X96500000Y-116900000D02*
X96750000Y-116900000D01*
X96500000Y-116900000D02*
X96500000Y-116650000D01*
X96500000Y-113100000D02*
X96750000Y-113100000D01*
X96500000Y-113100000D02*
X96500000Y-113350000D01*
X100500000Y-113100000D02*
X100500000Y-113300000D01*
X100500000Y-113100000D02*
X100250000Y-113100000D01*
X100250000Y-116900000D02*
X100500000Y-116900000D01*
X100500000Y-116900000D02*
X100500000Y-116700000D01*
X100500000Y-116700000D02*
X100850000Y-116700000D01*
G04 #@! TO.C,L1*
D12*
X114833333Y-122452380D02*
X114357142Y-122452380D01*
X114357142Y-121452380D01*
X115690476Y-122452380D02*
X115119047Y-122452380D01*
X115404761Y-122452380D02*
X115404761Y-121452380D01*
X115309523Y-121595238D01*
X115214285Y-121690476D01*
X115119047Y-121738095D01*
G04 #@! TO.C,R1*
X102476380Y-91166666D02*
X102000190Y-91500000D01*
X102476380Y-91738095D02*
X101476380Y-91738095D01*
X101476380Y-91357142D01*
X101524000Y-91261904D01*
X101571619Y-91214285D01*
X101666857Y-91166666D01*
X101809714Y-91166666D01*
X101904952Y-91214285D01*
X101952571Y-91261904D01*
X102000190Y-91357142D01*
X102000190Y-91738095D01*
X102476380Y-90214285D02*
X102476380Y-90785714D01*
X102476380Y-90500000D02*
X101476380Y-90500000D01*
X101619238Y-90595238D01*
X101714476Y-90690476D01*
X101762095Y-90785714D01*
G04 #@! TO.C,R20*
X96052380Y-107642857D02*
X95576190Y-107976190D01*
X96052380Y-108214285D02*
X95052380Y-108214285D01*
X95052380Y-107833333D01*
X95100000Y-107738095D01*
X95147619Y-107690476D01*
X95242857Y-107642857D01*
X95385714Y-107642857D01*
X95480952Y-107690476D01*
X95528571Y-107738095D01*
X95576190Y-107833333D01*
X95576190Y-108214285D01*
X95147619Y-107261904D02*
X95100000Y-107214285D01*
X95052380Y-107119047D01*
X95052380Y-106880952D01*
X95100000Y-106785714D01*
X95147619Y-106738095D01*
X95242857Y-106690476D01*
X95338095Y-106690476D01*
X95480952Y-106738095D01*
X96052380Y-107309523D01*
X96052380Y-106690476D01*
X95052380Y-106071428D02*
X95052380Y-105976190D01*
X95100000Y-105880952D01*
X95147619Y-105833333D01*
X95242857Y-105785714D01*
X95433333Y-105738095D01*
X95671428Y-105738095D01*
X95861904Y-105785714D01*
X95957142Y-105833333D01*
X96004761Y-105880952D01*
X96052380Y-105976190D01*
X96052380Y-106071428D01*
X96004761Y-106166666D01*
X95957142Y-106214285D01*
X95861904Y-106261904D01*
X95671428Y-106309523D01*
X95433333Y-106309523D01*
X95242857Y-106261904D01*
X95147619Y-106214285D01*
X95100000Y-106166666D01*
X95052380Y-106071428D01*
G04 #@! TO.C,C3*
X123357142Y-76166666D02*
X123404761Y-76214285D01*
X123452380Y-76357142D01*
X123452380Y-76452380D01*
X123404761Y-76595238D01*
X123309523Y-76690476D01*
X123214285Y-76738095D01*
X123023809Y-76785714D01*
X122880952Y-76785714D01*
X122690476Y-76738095D01*
X122595238Y-76690476D01*
X122500000Y-76595238D01*
X122452380Y-76452380D01*
X122452380Y-76357142D01*
X122500000Y-76214285D01*
X122547619Y-76166666D01*
X122452380Y-75833333D02*
X122452380Y-75214285D01*
X122833333Y-75547619D01*
X122833333Y-75404761D01*
X122880952Y-75309523D01*
X122928571Y-75261904D01*
X123023809Y-75214285D01*
X123261904Y-75214285D01*
X123357142Y-75261904D01*
X123404761Y-75309523D01*
X123452380Y-75404761D01*
X123452380Y-75690476D01*
X123404761Y-75785714D01*
X123357142Y-75833333D01*
G04 #@! TO.C,C5*
X108833333Y-112357142D02*
X108785714Y-112404761D01*
X108642857Y-112452380D01*
X108547619Y-112452380D01*
X108404761Y-112404761D01*
X108309523Y-112309523D01*
X108261904Y-112214285D01*
X108214285Y-112023809D01*
X108214285Y-111880952D01*
X108261904Y-111690476D01*
X108309523Y-111595238D01*
X108404761Y-111500000D01*
X108547619Y-111452380D01*
X108642857Y-111452380D01*
X108785714Y-111500000D01*
X108833333Y-111547619D01*
X109738095Y-111452380D02*
X109261904Y-111452380D01*
X109214285Y-111928571D01*
X109261904Y-111880952D01*
X109357142Y-111833333D01*
X109595238Y-111833333D01*
X109690476Y-111880952D01*
X109738095Y-111928571D01*
X109785714Y-112023809D01*
X109785714Y-112261904D01*
X109738095Y-112357142D01*
X109690476Y-112404761D01*
X109595238Y-112452380D01*
X109357142Y-112452380D01*
X109261904Y-112404761D01*
X109214285Y-112357142D01*
G04 #@! TO.C,C14*
X127357142Y-105357142D02*
X127309523Y-105404761D01*
X127166666Y-105452380D01*
X127071428Y-105452380D01*
X126928571Y-105404761D01*
X126833333Y-105309523D01*
X126785714Y-105214285D01*
X126738095Y-105023809D01*
X126738095Y-104880952D01*
X126785714Y-104690476D01*
X126833333Y-104595238D01*
X126928571Y-104500000D01*
X127071428Y-104452380D01*
X127166666Y-104452380D01*
X127309523Y-104500000D01*
X127357142Y-104547619D01*
X128309523Y-105452380D02*
X127738095Y-105452380D01*
X128023809Y-105452380D02*
X128023809Y-104452380D01*
X127928571Y-104595238D01*
X127833333Y-104690476D01*
X127738095Y-104738095D01*
X129166666Y-104785714D02*
X129166666Y-105452380D01*
X128928571Y-104404761D02*
X128690476Y-105119047D01*
X129309523Y-105119047D01*
G04 #@! TO.C,D1*
X140261904Y-113452380D02*
X140261904Y-112452380D01*
X140500000Y-112452380D01*
X140642857Y-112500000D01*
X140738095Y-112595238D01*
X140785714Y-112690476D01*
X140833333Y-112880952D01*
X140833333Y-113023809D01*
X140785714Y-113214285D01*
X140738095Y-113309523D01*
X140642857Y-113404761D01*
X140500000Y-113452380D01*
X140261904Y-113452380D01*
X141785714Y-113452380D02*
X141214285Y-113452380D01*
X141500000Y-113452380D02*
X141500000Y-112452380D01*
X141404761Y-112595238D01*
X141309523Y-112690476D01*
X141214285Y-112738095D01*
G04 #@! TO.C,C1*
X106287142Y-84666666D02*
X106334761Y-84714285D01*
X106382380Y-84857142D01*
X106382380Y-84952380D01*
X106334761Y-85095238D01*
X106239523Y-85190476D01*
X106144285Y-85238095D01*
X105953809Y-85285714D01*
X105810952Y-85285714D01*
X105620476Y-85238095D01*
X105525238Y-85190476D01*
X105430000Y-85095238D01*
X105382380Y-84952380D01*
X105382380Y-84857142D01*
X105430000Y-84714285D01*
X105477619Y-84666666D01*
X106382380Y-83714285D02*
X106382380Y-84285714D01*
X106382380Y-84000000D02*
X105382380Y-84000000D01*
X105525238Y-84095238D01*
X105620476Y-84190476D01*
X105668095Y-84285714D01*
G04 #@! TO.C,C4*
X101857142Y-107666666D02*
X101904761Y-107714285D01*
X101952380Y-107857142D01*
X101952380Y-107952380D01*
X101904761Y-108095238D01*
X101809523Y-108190476D01*
X101714285Y-108238095D01*
X101523809Y-108285714D01*
X101380952Y-108285714D01*
X101190476Y-108238095D01*
X101095238Y-108190476D01*
X101000000Y-108095238D01*
X100952380Y-107952380D01*
X100952380Y-107857142D01*
X101000000Y-107714285D01*
X101047619Y-107666666D01*
X101285714Y-106809523D02*
X101952380Y-106809523D01*
X100904761Y-107047619D02*
X101619047Y-107285714D01*
X101619047Y-106666666D01*
G04 #@! TO.C,C7*
X100023333Y-120357142D02*
X99975714Y-120404761D01*
X99832857Y-120452380D01*
X99737619Y-120452380D01*
X99594761Y-120404761D01*
X99499523Y-120309523D01*
X99451904Y-120214285D01*
X99404285Y-120023809D01*
X99404285Y-119880952D01*
X99451904Y-119690476D01*
X99499523Y-119595238D01*
X99594761Y-119500000D01*
X99737619Y-119452380D01*
X99832857Y-119452380D01*
X99975714Y-119500000D01*
X100023333Y-119547619D01*
X100356666Y-119452380D02*
X101023333Y-119452380D01*
X100594761Y-120452380D01*
G04 #@! TO.C,C8*
X124357142Y-109666666D02*
X124404761Y-109714285D01*
X124452380Y-109857142D01*
X124452380Y-109952380D01*
X124404761Y-110095238D01*
X124309523Y-110190476D01*
X124214285Y-110238095D01*
X124023809Y-110285714D01*
X123880952Y-110285714D01*
X123690476Y-110238095D01*
X123595238Y-110190476D01*
X123500000Y-110095238D01*
X123452380Y-109952380D01*
X123452380Y-109857142D01*
X123500000Y-109714285D01*
X123547619Y-109666666D01*
X123880952Y-109095238D02*
X123833333Y-109190476D01*
X123785714Y-109238095D01*
X123690476Y-109285714D01*
X123642857Y-109285714D01*
X123547619Y-109238095D01*
X123500000Y-109190476D01*
X123452380Y-109095238D01*
X123452380Y-108904761D01*
X123500000Y-108809523D01*
X123547619Y-108761904D01*
X123642857Y-108714285D01*
X123690476Y-108714285D01*
X123785714Y-108761904D01*
X123833333Y-108809523D01*
X123880952Y-108904761D01*
X123880952Y-109095238D01*
X123928571Y-109190476D01*
X123976190Y-109238095D01*
X124071428Y-109285714D01*
X124261904Y-109285714D01*
X124357142Y-109238095D01*
X124404761Y-109190476D01*
X124452380Y-109095238D01*
X124452380Y-108904761D01*
X124404761Y-108809523D01*
X124357142Y-108761904D01*
X124261904Y-108714285D01*
X124071428Y-108714285D01*
X123976190Y-108761904D01*
X123928571Y-108809523D01*
X123880952Y-108904761D01*
G04 #@! TO.C,C9*
X119833333Y-104787142D02*
X119785714Y-104834761D01*
X119642857Y-104882380D01*
X119547619Y-104882380D01*
X119404761Y-104834761D01*
X119309523Y-104739523D01*
X119261904Y-104644285D01*
X119214285Y-104453809D01*
X119214285Y-104310952D01*
X119261904Y-104120476D01*
X119309523Y-104025238D01*
X119404761Y-103930000D01*
X119547619Y-103882380D01*
X119642857Y-103882380D01*
X119785714Y-103930000D01*
X119833333Y-103977619D01*
X120309523Y-104882380D02*
X120500000Y-104882380D01*
X120595238Y-104834761D01*
X120642857Y-104787142D01*
X120738095Y-104644285D01*
X120785714Y-104453809D01*
X120785714Y-104072857D01*
X120738095Y-103977619D01*
X120690476Y-103930000D01*
X120595238Y-103882380D01*
X120404761Y-103882380D01*
X120309523Y-103930000D01*
X120261904Y-103977619D01*
X120214285Y-104072857D01*
X120214285Y-104310952D01*
X120261904Y-104406190D01*
X120309523Y-104453809D01*
X120404761Y-104501428D01*
X120595238Y-104501428D01*
X120690476Y-104453809D01*
X120738095Y-104406190D01*
X120785714Y-104310952D01*
G04 #@! TO.C,C10*
X127357142Y-109642857D02*
X127404761Y-109690476D01*
X127452380Y-109833333D01*
X127452380Y-109928571D01*
X127404761Y-110071428D01*
X127309523Y-110166666D01*
X127214285Y-110214285D01*
X127023809Y-110261904D01*
X126880952Y-110261904D01*
X126690476Y-110214285D01*
X126595238Y-110166666D01*
X126500000Y-110071428D01*
X126452380Y-109928571D01*
X126452380Y-109833333D01*
X126500000Y-109690476D01*
X126547619Y-109642857D01*
X127452380Y-108690476D02*
X127452380Y-109261904D01*
X127452380Y-108976190D02*
X126452380Y-108976190D01*
X126595238Y-109071428D01*
X126690476Y-109166666D01*
X126738095Y-109261904D01*
X126452380Y-108071428D02*
X126452380Y-107976190D01*
X126500000Y-107880952D01*
X126547619Y-107833333D01*
X126642857Y-107785714D01*
X126833333Y-107738095D01*
X127071428Y-107738095D01*
X127261904Y-107785714D01*
X127357142Y-107833333D01*
X127404761Y-107880952D01*
X127452380Y-107976190D01*
X127452380Y-108071428D01*
X127404761Y-108166666D01*
X127357142Y-108214285D01*
X127261904Y-108261904D01*
X127071428Y-108309523D01*
X126833333Y-108309523D01*
X126642857Y-108261904D01*
X126547619Y-108214285D01*
X126500000Y-108166666D01*
X126452380Y-108071428D01*
G04 #@! TO.C,C13*
X137857142Y-100142857D02*
X137904761Y-100190476D01*
X137952380Y-100333333D01*
X137952380Y-100428571D01*
X137904761Y-100571428D01*
X137809523Y-100666666D01*
X137714285Y-100714285D01*
X137523809Y-100761904D01*
X137380952Y-100761904D01*
X137190476Y-100714285D01*
X137095238Y-100666666D01*
X137000000Y-100571428D01*
X136952380Y-100428571D01*
X136952380Y-100333333D01*
X137000000Y-100190476D01*
X137047619Y-100142857D01*
X137952380Y-99190476D02*
X137952380Y-99761904D01*
X137952380Y-99476190D02*
X136952380Y-99476190D01*
X137095238Y-99571428D01*
X137190476Y-99666666D01*
X137238095Y-99761904D01*
X136952380Y-98857142D02*
X136952380Y-98238095D01*
X137333333Y-98571428D01*
X137333333Y-98428571D01*
X137380952Y-98333333D01*
X137428571Y-98285714D01*
X137523809Y-98238095D01*
X137761904Y-98238095D01*
X137857142Y-98285714D01*
X137904761Y-98333333D01*
X137952380Y-98428571D01*
X137952380Y-98714285D01*
X137904761Y-98809523D01*
X137857142Y-98857142D01*
G04 #@! TO.C,R2*
X104333333Y-108952380D02*
X104000000Y-108476190D01*
X103761904Y-108952380D02*
X103761904Y-107952380D01*
X104142857Y-107952380D01*
X104238095Y-108000000D01*
X104285714Y-108047619D01*
X104333333Y-108142857D01*
X104333333Y-108285714D01*
X104285714Y-108380952D01*
X104238095Y-108428571D01*
X104142857Y-108476190D01*
X103761904Y-108476190D01*
X104714285Y-108047619D02*
X104761904Y-108000000D01*
X104857142Y-107952380D01*
X105095238Y-107952380D01*
X105190476Y-108000000D01*
X105238095Y-108047619D01*
X105285714Y-108142857D01*
X105285714Y-108238095D01*
X105238095Y-108380952D01*
X104666666Y-108952380D01*
X105285714Y-108952380D01*
G04 #@! TO.C,R4*
X122333333Y-91952380D02*
X122000000Y-91476190D01*
X121761904Y-91952380D02*
X121761904Y-90952380D01*
X122142857Y-90952380D01*
X122238095Y-91000000D01*
X122285714Y-91047619D01*
X122333333Y-91142857D01*
X122333333Y-91285714D01*
X122285714Y-91380952D01*
X122238095Y-91428571D01*
X122142857Y-91476190D01*
X121761904Y-91476190D01*
X123190476Y-91285714D02*
X123190476Y-91952380D01*
X122952380Y-90904761D02*
X122714285Y-91619047D01*
X123333333Y-91619047D01*
G04 #@! TO.C,R5*
X122333333Y-93952380D02*
X122000000Y-93476190D01*
X121761904Y-93952380D02*
X121761904Y-92952380D01*
X122142857Y-92952380D01*
X122238095Y-93000000D01*
X122285714Y-93047619D01*
X122333333Y-93142857D01*
X122333333Y-93285714D01*
X122285714Y-93380952D01*
X122238095Y-93428571D01*
X122142857Y-93476190D01*
X121761904Y-93476190D01*
X123238095Y-92952380D02*
X122761904Y-92952380D01*
X122714285Y-93428571D01*
X122761904Y-93380952D01*
X122857142Y-93333333D01*
X123095238Y-93333333D01*
X123190476Y-93380952D01*
X123238095Y-93428571D01*
X123285714Y-93523809D01*
X123285714Y-93761904D01*
X123238095Y-93857142D01*
X123190476Y-93904761D01*
X123095238Y-93952380D01*
X122857142Y-93952380D01*
X122761904Y-93904761D01*
X122714285Y-93857142D01*
G04 #@! TO.C,R6*
X96052380Y-110666666D02*
X95576190Y-111000000D01*
X96052380Y-111238095D02*
X95052380Y-111238095D01*
X95052380Y-110857142D01*
X95100000Y-110761904D01*
X95147619Y-110714285D01*
X95242857Y-110666666D01*
X95385714Y-110666666D01*
X95480952Y-110714285D01*
X95528571Y-110761904D01*
X95576190Y-110857142D01*
X95576190Y-111238095D01*
X95052380Y-109809523D02*
X95052380Y-110000000D01*
X95100000Y-110095238D01*
X95147619Y-110142857D01*
X95290476Y-110238095D01*
X95480952Y-110285714D01*
X95861904Y-110285714D01*
X95957142Y-110238095D01*
X96004761Y-110190476D01*
X96052380Y-110095238D01*
X96052380Y-109904761D01*
X96004761Y-109809523D01*
X95957142Y-109761904D01*
X95861904Y-109714285D01*
X95623809Y-109714285D01*
X95528571Y-109761904D01*
X95480952Y-109809523D01*
X95433333Y-109904761D01*
X95433333Y-110095238D01*
X95480952Y-110190476D01*
X95528571Y-110238095D01*
X95623809Y-110285714D01*
G04 #@! TO.C,R9*
X97452380Y-107166666D02*
X96976190Y-107500000D01*
X97452380Y-107738095D02*
X96452380Y-107738095D01*
X96452380Y-107357142D01*
X96500000Y-107261904D01*
X96547619Y-107214285D01*
X96642857Y-107166666D01*
X96785714Y-107166666D01*
X96880952Y-107214285D01*
X96928571Y-107261904D01*
X96976190Y-107357142D01*
X96976190Y-107738095D01*
X97452380Y-106690476D02*
X97452380Y-106500000D01*
X97404761Y-106404761D01*
X97357142Y-106357142D01*
X97214285Y-106261904D01*
X97023809Y-106214285D01*
X96642857Y-106214285D01*
X96547619Y-106261904D01*
X96500000Y-106309523D01*
X96452380Y-106404761D01*
X96452380Y-106595238D01*
X96500000Y-106690476D01*
X96547619Y-106738095D01*
X96642857Y-106785714D01*
X96880952Y-106785714D01*
X96976190Y-106738095D01*
X97023809Y-106690476D01*
X97071428Y-106595238D01*
X97071428Y-106404761D01*
X97023809Y-106309523D01*
X96976190Y-106261904D01*
X96880952Y-106214285D01*
G04 #@! TO.C,R10*
X97452380Y-111142857D02*
X96976190Y-111476190D01*
X97452380Y-111714285D02*
X96452380Y-111714285D01*
X96452380Y-111333333D01*
X96500000Y-111238095D01*
X96547619Y-111190476D01*
X96642857Y-111142857D01*
X96785714Y-111142857D01*
X96880952Y-111190476D01*
X96928571Y-111238095D01*
X96976190Y-111333333D01*
X96976190Y-111714285D01*
X97452380Y-110190476D02*
X97452380Y-110761904D01*
X97452380Y-110476190D02*
X96452380Y-110476190D01*
X96595238Y-110571428D01*
X96690476Y-110666666D01*
X96738095Y-110761904D01*
X96452380Y-109571428D02*
X96452380Y-109476190D01*
X96500000Y-109380952D01*
X96547619Y-109333333D01*
X96642857Y-109285714D01*
X96833333Y-109238095D01*
X97071428Y-109238095D01*
X97261904Y-109285714D01*
X97357142Y-109333333D01*
X97404761Y-109380952D01*
X97452380Y-109476190D01*
X97452380Y-109571428D01*
X97404761Y-109666666D01*
X97357142Y-109714285D01*
X97261904Y-109761904D01*
X97071428Y-109809523D01*
X96833333Y-109809523D01*
X96642857Y-109761904D01*
X96547619Y-109714285D01*
X96500000Y-109666666D01*
X96452380Y-109571428D01*
G04 #@! TO.C,R12*
X134921142Y-112960380D02*
X134587809Y-112484190D01*
X134349714Y-112960380D02*
X134349714Y-111960380D01*
X134730666Y-111960380D01*
X134825904Y-112008000D01*
X134873523Y-112055619D01*
X134921142Y-112150857D01*
X134921142Y-112293714D01*
X134873523Y-112388952D01*
X134825904Y-112436571D01*
X134730666Y-112484190D01*
X134349714Y-112484190D01*
X135873523Y-112960380D02*
X135302095Y-112960380D01*
X135587809Y-112960380D02*
X135587809Y-111960380D01*
X135492571Y-112103238D01*
X135397333Y-112198476D01*
X135302095Y-112246095D01*
X136254476Y-112055619D02*
X136302095Y-112008000D01*
X136397333Y-111960380D01*
X136635428Y-111960380D01*
X136730666Y-112008000D01*
X136778285Y-112055619D01*
X136825904Y-112150857D01*
X136825904Y-112246095D01*
X136778285Y-112388952D01*
X136206857Y-112960380D01*
X136825904Y-112960380D01*
G04 #@! TO.C,R13*
X134921142Y-115960380D02*
X134587809Y-115484190D01*
X134349714Y-115960380D02*
X134349714Y-114960380D01*
X134730666Y-114960380D01*
X134825904Y-115008000D01*
X134873523Y-115055619D01*
X134921142Y-115150857D01*
X134921142Y-115293714D01*
X134873523Y-115388952D01*
X134825904Y-115436571D01*
X134730666Y-115484190D01*
X134349714Y-115484190D01*
X135873523Y-115960380D02*
X135302095Y-115960380D01*
X135587809Y-115960380D02*
X135587809Y-114960380D01*
X135492571Y-115103238D01*
X135397333Y-115198476D01*
X135302095Y-115246095D01*
X136206857Y-114960380D02*
X136825904Y-114960380D01*
X136492571Y-115341333D01*
X136635428Y-115341333D01*
X136730666Y-115388952D01*
X136778285Y-115436571D01*
X136825904Y-115531809D01*
X136825904Y-115769904D01*
X136778285Y-115865142D01*
X136730666Y-115912761D01*
X136635428Y-115960380D01*
X136349714Y-115960380D01*
X136254476Y-115912761D01*
X136206857Y-115865142D01*
G04 #@! TO.C,R15*
X135952380Y-110642857D02*
X135476190Y-110976190D01*
X135952380Y-111214285D02*
X134952380Y-111214285D01*
X134952380Y-110833333D01*
X135000000Y-110738095D01*
X135047619Y-110690476D01*
X135142857Y-110642857D01*
X135285714Y-110642857D01*
X135380952Y-110690476D01*
X135428571Y-110738095D01*
X135476190Y-110833333D01*
X135476190Y-111214285D01*
X135952380Y-109690476D02*
X135952380Y-110261904D01*
X135952380Y-109976190D02*
X134952380Y-109976190D01*
X135095238Y-110071428D01*
X135190476Y-110166666D01*
X135238095Y-110261904D01*
X134952380Y-108785714D02*
X134952380Y-109261904D01*
X135428571Y-109309523D01*
X135380952Y-109261904D01*
X135333333Y-109166666D01*
X135333333Y-108928571D01*
X135380952Y-108833333D01*
X135428571Y-108785714D01*
X135523809Y-108738095D01*
X135761904Y-108738095D01*
X135857142Y-108785714D01*
X135904761Y-108833333D01*
X135952380Y-108928571D01*
X135952380Y-109166666D01*
X135904761Y-109261904D01*
X135857142Y-109309523D01*
G04 #@! TO.C,R16*
X135952380Y-100142857D02*
X135476190Y-100476190D01*
X135952380Y-100714285D02*
X134952380Y-100714285D01*
X134952380Y-100333333D01*
X135000000Y-100238095D01*
X135047619Y-100190476D01*
X135142857Y-100142857D01*
X135285714Y-100142857D01*
X135380952Y-100190476D01*
X135428571Y-100238095D01*
X135476190Y-100333333D01*
X135476190Y-100714285D01*
X135952380Y-99190476D02*
X135952380Y-99761904D01*
X135952380Y-99476190D02*
X134952380Y-99476190D01*
X135095238Y-99571428D01*
X135190476Y-99666666D01*
X135238095Y-99761904D01*
X134952380Y-98333333D02*
X134952380Y-98523809D01*
X135000000Y-98619047D01*
X135047619Y-98666666D01*
X135190476Y-98761904D01*
X135380952Y-98809523D01*
X135761904Y-98809523D01*
X135857142Y-98761904D01*
X135904761Y-98714285D01*
X135952380Y-98619047D01*
X135952380Y-98428571D01*
X135904761Y-98333333D01*
X135857142Y-98285714D01*
X135761904Y-98238095D01*
X135523809Y-98238095D01*
X135428571Y-98285714D01*
X135380952Y-98333333D01*
X135333333Y-98428571D01*
X135333333Y-98619047D01*
X135380952Y-98714285D01*
X135428571Y-98761904D01*
X135523809Y-98809523D01*
G04 #@! TO.C,R17*
X133952380Y-108642857D02*
X133476190Y-108976190D01*
X133952380Y-109214285D02*
X132952380Y-109214285D01*
X132952380Y-108833333D01*
X133000000Y-108738095D01*
X133047619Y-108690476D01*
X133142857Y-108642857D01*
X133285714Y-108642857D01*
X133380952Y-108690476D01*
X133428571Y-108738095D01*
X133476190Y-108833333D01*
X133476190Y-109214285D01*
X133952380Y-107690476D02*
X133952380Y-108261904D01*
X133952380Y-107976190D02*
X132952380Y-107976190D01*
X133095238Y-108071428D01*
X133190476Y-108166666D01*
X133238095Y-108261904D01*
X132952380Y-107357142D02*
X132952380Y-106690476D01*
X133952380Y-107119047D01*
G04 #@! TO.C,U1*
X98988095Y-81382380D02*
X98988095Y-82191904D01*
X99035714Y-82287142D01*
X99083333Y-82334761D01*
X99178571Y-82382380D01*
X99369047Y-82382380D01*
X99464285Y-82334761D01*
X99511904Y-82287142D01*
X99559523Y-82191904D01*
X99559523Y-81382380D01*
X100559523Y-82382380D02*
X99988095Y-82382380D01*
X100273809Y-82382380D02*
X100273809Y-81382380D01*
X100178571Y-81525238D01*
X100083333Y-81620476D01*
X99988095Y-81668095D01*
G04 #@! TO.C,C15*
X129857142Y-98642857D02*
X129904761Y-98690476D01*
X129952380Y-98833333D01*
X129952380Y-98928571D01*
X129904761Y-99071428D01*
X129809523Y-99166666D01*
X129714285Y-99214285D01*
X129523809Y-99261904D01*
X129380952Y-99261904D01*
X129190476Y-99214285D01*
X129095238Y-99166666D01*
X129000000Y-99071428D01*
X128952380Y-98928571D01*
X128952380Y-98833333D01*
X129000000Y-98690476D01*
X129047619Y-98642857D01*
X129952380Y-97690476D02*
X129952380Y-98261904D01*
X129952380Y-97976190D02*
X128952380Y-97976190D01*
X129095238Y-98071428D01*
X129190476Y-98166666D01*
X129238095Y-98261904D01*
X128952380Y-96785714D02*
X128952380Y-97261904D01*
X129428571Y-97309523D01*
X129380952Y-97261904D01*
X129333333Y-97166666D01*
X129333333Y-96928571D01*
X129380952Y-96833333D01*
X129428571Y-96785714D01*
X129523809Y-96738095D01*
X129761904Y-96738095D01*
X129857142Y-96785714D01*
X129904761Y-96833333D01*
X129952380Y-96928571D01*
X129952380Y-97166666D01*
X129904761Y-97261904D01*
X129857142Y-97309523D01*
G04 #@! TO.C,R18*
X137952380Y-110642857D02*
X137476190Y-110976190D01*
X137952380Y-111214285D02*
X136952380Y-111214285D01*
X136952380Y-110833333D01*
X137000000Y-110738095D01*
X137047619Y-110690476D01*
X137142857Y-110642857D01*
X137285714Y-110642857D01*
X137380952Y-110690476D01*
X137428571Y-110738095D01*
X137476190Y-110833333D01*
X137476190Y-111214285D01*
X137952380Y-109690476D02*
X137952380Y-110261904D01*
X137952380Y-109976190D02*
X136952380Y-109976190D01*
X137095238Y-110071428D01*
X137190476Y-110166666D01*
X137238095Y-110261904D01*
X137380952Y-109119047D02*
X137333333Y-109214285D01*
X137285714Y-109261904D01*
X137190476Y-109309523D01*
X137142857Y-109309523D01*
X137047619Y-109261904D01*
X137000000Y-109214285D01*
X136952380Y-109119047D01*
X136952380Y-108928571D01*
X137000000Y-108833333D01*
X137047619Y-108785714D01*
X137142857Y-108738095D01*
X137190476Y-108738095D01*
X137285714Y-108785714D01*
X137333333Y-108833333D01*
X137380952Y-108928571D01*
X137380952Y-109119047D01*
X137428571Y-109214285D01*
X137476190Y-109261904D01*
X137571428Y-109309523D01*
X137761904Y-109309523D01*
X137857142Y-109261904D01*
X137904761Y-109214285D01*
X137952380Y-109119047D01*
X137952380Y-108928571D01*
X137904761Y-108833333D01*
X137857142Y-108785714D01*
X137761904Y-108738095D01*
X137571428Y-108738095D01*
X137476190Y-108785714D01*
X137428571Y-108833333D01*
X137380952Y-108928571D01*
G04 #@! TO.C,R11*
X134921142Y-118960380D02*
X134587809Y-118484190D01*
X134349714Y-118960380D02*
X134349714Y-117960380D01*
X134730666Y-117960380D01*
X134825904Y-118008000D01*
X134873523Y-118055619D01*
X134921142Y-118150857D01*
X134921142Y-118293714D01*
X134873523Y-118388952D01*
X134825904Y-118436571D01*
X134730666Y-118484190D01*
X134349714Y-118484190D01*
X135873523Y-118960380D02*
X135302095Y-118960380D01*
X135587809Y-118960380D02*
X135587809Y-117960380D01*
X135492571Y-118103238D01*
X135397333Y-118198476D01*
X135302095Y-118246095D01*
X136825904Y-118960380D02*
X136254476Y-118960380D01*
X136540190Y-118960380D02*
X136540190Y-117960380D01*
X136444952Y-118103238D01*
X136349714Y-118198476D01*
X136254476Y-118246095D01*
G04 #@! TO.C,R14*
X129452380Y-108642857D02*
X128976190Y-108976190D01*
X129452380Y-109214285D02*
X128452380Y-109214285D01*
X128452380Y-108833333D01*
X128500000Y-108738095D01*
X128547619Y-108690476D01*
X128642857Y-108642857D01*
X128785714Y-108642857D01*
X128880952Y-108690476D01*
X128928571Y-108738095D01*
X128976190Y-108833333D01*
X128976190Y-109214285D01*
X129452380Y-107690476D02*
X129452380Y-108261904D01*
X129452380Y-107976190D02*
X128452380Y-107976190D01*
X128595238Y-108071428D01*
X128690476Y-108166666D01*
X128738095Y-108261904D01*
X128785714Y-106833333D02*
X129452380Y-106833333D01*
X128404761Y-107071428D02*
X129119047Y-107309523D01*
X129119047Y-106690476D01*
G04 #@! TO.C,U4*
X123682095Y-101452380D02*
X123682095Y-102261904D01*
X123729714Y-102357142D01*
X123777333Y-102404761D01*
X123872571Y-102452380D01*
X124063047Y-102452380D01*
X124158285Y-102404761D01*
X124205904Y-102357142D01*
X124253523Y-102261904D01*
X124253523Y-101452380D01*
X125158285Y-101785714D02*
X125158285Y-102452380D01*
X124920190Y-101404761D02*
X124682095Y-102119047D01*
X125301142Y-102119047D01*
G04 #@! TO.C,J2*
X124122380Y-73333333D02*
X124836666Y-73333333D01*
X124979523Y-73380952D01*
X125074761Y-73476190D01*
X125122380Y-73619047D01*
X125122380Y-73714285D01*
X124217619Y-72904761D02*
X124170000Y-72857142D01*
X124122380Y-72761904D01*
X124122380Y-72523809D01*
X124170000Y-72428571D01*
X124217619Y-72380952D01*
X124312857Y-72333333D01*
X124408095Y-72333333D01*
X124550952Y-72380952D01*
X125122380Y-72952380D01*
X125122380Y-72333333D01*
G04 #@! TO.C,J3*
X102848380Y-76063333D02*
X103562666Y-76063333D01*
X103705523Y-76110952D01*
X103800761Y-76206190D01*
X103848380Y-76349047D01*
X103848380Y-76444285D01*
X102848380Y-75682380D02*
X102848380Y-75063333D01*
X103229333Y-75396666D01*
X103229333Y-75253809D01*
X103276952Y-75158571D01*
X103324571Y-75110952D01*
X103419809Y-75063333D01*
X103657904Y-75063333D01*
X103753142Y-75110952D01*
X103800761Y-75158571D01*
X103848380Y-75253809D01*
X103848380Y-75539523D01*
X103800761Y-75634761D01*
X103753142Y-75682380D01*
G04 #@! TO.C,C1*
X94357142Y-85166666D02*
X94404761Y-85214285D01*
X94452380Y-85357142D01*
X94452380Y-85452380D01*
X94404761Y-85595238D01*
X94309523Y-85690476D01*
X94214285Y-85738095D01*
X94023809Y-85785714D01*
X93880952Y-85785714D01*
X93690476Y-85738095D01*
X93595238Y-85690476D01*
X93500000Y-85595238D01*
X93452380Y-85452380D01*
X93452380Y-85357142D01*
X93500000Y-85214285D01*
X93547619Y-85166666D01*
X94452380Y-84214285D02*
X94452380Y-84785714D01*
X94452380Y-84500000D02*
X93452380Y-84500000D01*
X93595238Y-84595238D01*
X93690476Y-84690476D01*
X93738095Y-84785714D01*
G04 #@! TO.C,D2*
X157761904Y-92452380D02*
X157761904Y-91452380D01*
X158000000Y-91452380D01*
X158142857Y-91500000D01*
X158238095Y-91595238D01*
X158285714Y-91690476D01*
X158333333Y-91880952D01*
X158333333Y-92023809D01*
X158285714Y-92214285D01*
X158238095Y-92309523D01*
X158142857Y-92404761D01*
X158000000Y-92452380D01*
X157761904Y-92452380D01*
X158714285Y-91547619D02*
X158761904Y-91500000D01*
X158857142Y-91452380D01*
X159095238Y-91452380D01*
X159190476Y-91500000D01*
X159238095Y-91547619D01*
X159285714Y-91642857D01*
X159285714Y-91738095D01*
X159238095Y-91880952D01*
X158666666Y-92452380D01*
X159285714Y-92452380D01*
G04 #@! TO.C,R19*
X153452380Y-80642857D02*
X152976190Y-80976190D01*
X153452380Y-81214285D02*
X152452380Y-81214285D01*
X152452380Y-80833333D01*
X152500000Y-80738095D01*
X152547619Y-80690476D01*
X152642857Y-80642857D01*
X152785714Y-80642857D01*
X152880952Y-80690476D01*
X152928571Y-80738095D01*
X152976190Y-80833333D01*
X152976190Y-81214285D01*
X153452380Y-79690476D02*
X153452380Y-80261904D01*
X153452380Y-79976190D02*
X152452380Y-79976190D01*
X152595238Y-80071428D01*
X152690476Y-80166666D01*
X152738095Y-80261904D01*
X153452380Y-79214285D02*
X153452380Y-79023809D01*
X153404761Y-78928571D01*
X153357142Y-78880952D01*
X153214285Y-78785714D01*
X153023809Y-78738095D01*
X152642857Y-78738095D01*
X152547619Y-78785714D01*
X152500000Y-78833333D01*
X152452380Y-78928571D01*
X152452380Y-79119047D01*
X152500000Y-79214285D01*
X152547619Y-79261904D01*
X152642857Y-79309523D01*
X152880952Y-79309523D01*
X152976190Y-79261904D01*
X153023809Y-79214285D01*
X153071428Y-79119047D01*
X153071428Y-78928571D01*
X153023809Y-78833333D01*
X152976190Y-78785714D01*
X152880952Y-78738095D01*
G04 #@! TO.C,R21*
X155452380Y-80642857D02*
X154976190Y-80976190D01*
X155452380Y-81214285D02*
X154452380Y-81214285D01*
X154452380Y-80833333D01*
X154500000Y-80738095D01*
X154547619Y-80690476D01*
X154642857Y-80642857D01*
X154785714Y-80642857D01*
X154880952Y-80690476D01*
X154928571Y-80738095D01*
X154976190Y-80833333D01*
X154976190Y-81214285D01*
X154547619Y-80261904D02*
X154500000Y-80214285D01*
X154452380Y-80119047D01*
X154452380Y-79880952D01*
X154500000Y-79785714D01*
X154547619Y-79738095D01*
X154642857Y-79690476D01*
X154738095Y-79690476D01*
X154880952Y-79738095D01*
X155452380Y-80309523D01*
X155452380Y-79690476D01*
X155452380Y-78738095D02*
X155452380Y-79309523D01*
X155452380Y-79023809D02*
X154452380Y-79023809D01*
X154595238Y-79119047D01*
X154690476Y-79214285D01*
X154738095Y-79309523D01*
G04 #@! TO.C,R22*
X157452380Y-80642857D02*
X156976190Y-80976190D01*
X157452380Y-81214285D02*
X156452380Y-81214285D01*
X156452380Y-80833333D01*
X156500000Y-80738095D01*
X156547619Y-80690476D01*
X156642857Y-80642857D01*
X156785714Y-80642857D01*
X156880952Y-80690476D01*
X156928571Y-80738095D01*
X156976190Y-80833333D01*
X156976190Y-81214285D01*
X156547619Y-80261904D02*
X156500000Y-80214285D01*
X156452380Y-80119047D01*
X156452380Y-79880952D01*
X156500000Y-79785714D01*
X156547619Y-79738095D01*
X156642857Y-79690476D01*
X156738095Y-79690476D01*
X156880952Y-79738095D01*
X157452380Y-80309523D01*
X157452380Y-79690476D01*
X156547619Y-79309523D02*
X156500000Y-79261904D01*
X156452380Y-79166666D01*
X156452380Y-78928571D01*
X156500000Y-78833333D01*
X156547619Y-78785714D01*
X156642857Y-78738095D01*
X156738095Y-78738095D01*
X156880952Y-78785714D01*
X157452380Y-79357142D01*
X157452380Y-78738095D01*
G04 #@! TO.C,C16*
X115357142Y-104857142D02*
X115309523Y-104904761D01*
X115166666Y-104952380D01*
X115071428Y-104952380D01*
X114928571Y-104904761D01*
X114833333Y-104809523D01*
X114785714Y-104714285D01*
X114738095Y-104523809D01*
X114738095Y-104380952D01*
X114785714Y-104190476D01*
X114833333Y-104095238D01*
X114928571Y-104000000D01*
X115071428Y-103952380D01*
X115166666Y-103952380D01*
X115309523Y-104000000D01*
X115357142Y-104047619D01*
X116309523Y-104952380D02*
X115738095Y-104952380D01*
X116023809Y-104952380D02*
X116023809Y-103952380D01*
X115928571Y-104095238D01*
X115833333Y-104190476D01*
X115738095Y-104238095D01*
X117166666Y-103952380D02*
X116976190Y-103952380D01*
X116880952Y-104000000D01*
X116833333Y-104047619D01*
X116738095Y-104190476D01*
X116690476Y-104380952D01*
X116690476Y-104761904D01*
X116738095Y-104857142D01*
X116785714Y-104904761D01*
X116880952Y-104952380D01*
X117071428Y-104952380D01*
X117166666Y-104904761D01*
X117214285Y-104857142D01*
X117261904Y-104761904D01*
X117261904Y-104523809D01*
X117214285Y-104428571D01*
X117166666Y-104380952D01*
X117071428Y-104333333D01*
X116880952Y-104333333D01*
X116785714Y-104380952D01*
X116738095Y-104428571D01*
X116690476Y-104523809D01*
G04 #@! TO.C,U3*
X117263095Y-95902380D02*
X117263095Y-96711904D01*
X117310714Y-96807142D01*
X117358333Y-96854761D01*
X117453571Y-96902380D01*
X117644047Y-96902380D01*
X117739285Y-96854761D01*
X117786904Y-96807142D01*
X117834523Y-96711904D01*
X117834523Y-95902380D01*
X118215476Y-95902380D02*
X118834523Y-95902380D01*
X118501190Y-96283333D01*
X118644047Y-96283333D01*
X118739285Y-96330952D01*
X118786904Y-96378571D01*
X118834523Y-96473809D01*
X118834523Y-96711904D01*
X118786904Y-96807142D01*
X118739285Y-96854761D01*
X118644047Y-96902380D01*
X118358333Y-96902380D01*
X118263095Y-96854761D01*
X118215476Y-96807142D01*
G04 #@! TO.C,R23*
X91952380Y-103642857D02*
X91476190Y-103976190D01*
X91952380Y-104214285D02*
X90952380Y-104214285D01*
X90952380Y-103833333D01*
X91000000Y-103738095D01*
X91047619Y-103690476D01*
X91142857Y-103642857D01*
X91285714Y-103642857D01*
X91380952Y-103690476D01*
X91428571Y-103738095D01*
X91476190Y-103833333D01*
X91476190Y-104214285D01*
X91047619Y-103261904D02*
X91000000Y-103214285D01*
X90952380Y-103119047D01*
X90952380Y-102880952D01*
X91000000Y-102785714D01*
X91047619Y-102738095D01*
X91142857Y-102690476D01*
X91238095Y-102690476D01*
X91380952Y-102738095D01*
X91952380Y-103309523D01*
X91952380Y-102690476D01*
X90952380Y-102357142D02*
X90952380Y-101738095D01*
X91333333Y-102071428D01*
X91333333Y-101928571D01*
X91380952Y-101833333D01*
X91428571Y-101785714D01*
X91523809Y-101738095D01*
X91761904Y-101738095D01*
X91857142Y-101785714D01*
X91904761Y-101833333D01*
X91952380Y-101928571D01*
X91952380Y-102214285D01*
X91904761Y-102309523D01*
X91857142Y-102357142D01*
G04 #@! TO.C,R24*
X149857142Y-87452380D02*
X149523809Y-86976190D01*
X149285714Y-87452380D02*
X149285714Y-86452380D01*
X149666666Y-86452380D01*
X149761904Y-86500000D01*
X149809523Y-86547619D01*
X149857142Y-86642857D01*
X149857142Y-86785714D01*
X149809523Y-86880952D01*
X149761904Y-86928571D01*
X149666666Y-86976190D01*
X149285714Y-86976190D01*
X150238095Y-86547619D02*
X150285714Y-86500000D01*
X150380952Y-86452380D01*
X150619047Y-86452380D01*
X150714285Y-86500000D01*
X150761904Y-86547619D01*
X150809523Y-86642857D01*
X150809523Y-86738095D01*
X150761904Y-86880952D01*
X150190476Y-87452380D01*
X150809523Y-87452380D01*
X151666666Y-86785714D02*
X151666666Y-87452380D01*
X151428571Y-86404761D02*
X151190476Y-87119047D01*
X151809523Y-87119047D01*
G04 #@! TO.C,R25*
X149857142Y-89452380D02*
X149523809Y-88976190D01*
X149285714Y-89452380D02*
X149285714Y-88452380D01*
X149666666Y-88452380D01*
X149761904Y-88500000D01*
X149809523Y-88547619D01*
X149857142Y-88642857D01*
X149857142Y-88785714D01*
X149809523Y-88880952D01*
X149761904Y-88928571D01*
X149666666Y-88976190D01*
X149285714Y-88976190D01*
X150238095Y-88547619D02*
X150285714Y-88500000D01*
X150380952Y-88452380D01*
X150619047Y-88452380D01*
X150714285Y-88500000D01*
X150761904Y-88547619D01*
X150809523Y-88642857D01*
X150809523Y-88738095D01*
X150761904Y-88880952D01*
X150190476Y-89452380D01*
X150809523Y-89452380D01*
X151714285Y-88452380D02*
X151238095Y-88452380D01*
X151190476Y-88928571D01*
X151238095Y-88880952D01*
X151333333Y-88833333D01*
X151571428Y-88833333D01*
X151666666Y-88880952D01*
X151714285Y-88928571D01*
X151761904Y-89023809D01*
X151761904Y-89261904D01*
X151714285Y-89357142D01*
X151666666Y-89404761D01*
X151571428Y-89452380D01*
X151333333Y-89452380D01*
X151238095Y-89404761D01*
X151190476Y-89357142D01*
G04 #@! TO.C,C11*
X130207142Y-122642857D02*
X130254761Y-122690476D01*
X130302380Y-122833333D01*
X130302380Y-122928571D01*
X130254761Y-123071428D01*
X130159523Y-123166666D01*
X130064285Y-123214285D01*
X129873809Y-123261904D01*
X129730952Y-123261904D01*
X129540476Y-123214285D01*
X129445238Y-123166666D01*
X129350000Y-123071428D01*
X129302380Y-122928571D01*
X129302380Y-122833333D01*
X129350000Y-122690476D01*
X129397619Y-122642857D01*
X130302380Y-121690476D02*
X130302380Y-122261904D01*
X130302380Y-121976190D02*
X129302380Y-121976190D01*
X129445238Y-122071428D01*
X129540476Y-122166666D01*
X129588095Y-122261904D01*
X130302380Y-120738095D02*
X130302380Y-121309523D01*
X130302380Y-121023809D02*
X129302380Y-121023809D01*
X129445238Y-121119047D01*
X129540476Y-121214285D01*
X129588095Y-121309523D01*
G04 #@! TO.C,J4*
X155316666Y-101532380D02*
X155316666Y-102246666D01*
X155269047Y-102389523D01*
X155173809Y-102484761D01*
X155030952Y-102532380D01*
X154935714Y-102532380D01*
X156221428Y-101865714D02*
X156221428Y-102532380D01*
X155983333Y-101484761D02*
X155745238Y-102199047D01*
X156364285Y-102199047D01*
G04 #@! TO.C,D3*
X100052380Y-99738095D02*
X99052380Y-99738095D01*
X99052380Y-99500000D01*
X99100000Y-99357142D01*
X99195238Y-99261904D01*
X99290476Y-99214285D01*
X99480952Y-99166666D01*
X99623809Y-99166666D01*
X99814285Y-99214285D01*
X99909523Y-99261904D01*
X100004761Y-99357142D01*
X100052380Y-99500000D01*
X100052380Y-99738095D01*
X99052380Y-98833333D02*
X99052380Y-98214285D01*
X99433333Y-98547619D01*
X99433333Y-98404761D01*
X99480952Y-98309523D01*
X99528571Y-98261904D01*
X99623809Y-98214285D01*
X99861904Y-98214285D01*
X99957142Y-98261904D01*
X100004761Y-98309523D01*
X100052380Y-98404761D01*
X100052380Y-98690476D01*
X100004761Y-98785714D01*
X99957142Y-98833333D01*
G04 #@! TO.C,D4*
X100052380Y-94738095D02*
X99052380Y-94738095D01*
X99052380Y-94500000D01*
X99100000Y-94357142D01*
X99195238Y-94261904D01*
X99290476Y-94214285D01*
X99480952Y-94166666D01*
X99623809Y-94166666D01*
X99814285Y-94214285D01*
X99909523Y-94261904D01*
X100004761Y-94357142D01*
X100052380Y-94500000D01*
X100052380Y-94738095D01*
X99385714Y-93309523D02*
X100052380Y-93309523D01*
X99004761Y-93547619D02*
X99719047Y-93785714D01*
X99719047Y-93166666D01*
G04 #@! TO.C,R27*
X103952380Y-101142857D02*
X103476190Y-101476190D01*
X103952380Y-101714285D02*
X102952380Y-101714285D01*
X102952380Y-101333333D01*
X103000000Y-101238095D01*
X103047619Y-101190476D01*
X103142857Y-101142857D01*
X103285714Y-101142857D01*
X103380952Y-101190476D01*
X103428571Y-101238095D01*
X103476190Y-101333333D01*
X103476190Y-101714285D01*
X103047619Y-100761904D02*
X103000000Y-100714285D01*
X102952380Y-100619047D01*
X102952380Y-100380952D01*
X103000000Y-100285714D01*
X103047619Y-100238095D01*
X103142857Y-100190476D01*
X103238095Y-100190476D01*
X103380952Y-100238095D01*
X103952380Y-100809523D01*
X103952380Y-100190476D01*
X102952380Y-99857142D02*
X102952380Y-99190476D01*
X103952380Y-99619047D01*
G04 #@! TO.C,R28*
X106452380Y-101142857D02*
X105976190Y-101476190D01*
X106452380Y-101714285D02*
X105452380Y-101714285D01*
X105452380Y-101333333D01*
X105500000Y-101238095D01*
X105547619Y-101190476D01*
X105642857Y-101142857D01*
X105785714Y-101142857D01*
X105880952Y-101190476D01*
X105928571Y-101238095D01*
X105976190Y-101333333D01*
X105976190Y-101714285D01*
X105547619Y-100761904D02*
X105500000Y-100714285D01*
X105452380Y-100619047D01*
X105452380Y-100380952D01*
X105500000Y-100285714D01*
X105547619Y-100238095D01*
X105642857Y-100190476D01*
X105738095Y-100190476D01*
X105880952Y-100238095D01*
X106452380Y-100809523D01*
X106452380Y-100190476D01*
X105880952Y-99619047D02*
X105833333Y-99714285D01*
X105785714Y-99761904D01*
X105690476Y-99809523D01*
X105642857Y-99809523D01*
X105547619Y-99761904D01*
X105500000Y-99714285D01*
X105452380Y-99619047D01*
X105452380Y-99428571D01*
X105500000Y-99333333D01*
X105547619Y-99285714D01*
X105642857Y-99238095D01*
X105690476Y-99238095D01*
X105785714Y-99285714D01*
X105833333Y-99333333D01*
X105880952Y-99428571D01*
X105880952Y-99619047D01*
X105928571Y-99714285D01*
X105976190Y-99761904D01*
X106071428Y-99809523D01*
X106261904Y-99809523D01*
X106357142Y-99761904D01*
X106404761Y-99714285D01*
X106452380Y-99619047D01*
X106452380Y-99428571D01*
X106404761Y-99333333D01*
X106357142Y-99285714D01*
X106261904Y-99238095D01*
X106071428Y-99238095D01*
X105976190Y-99285714D01*
X105928571Y-99333333D01*
X105880952Y-99428571D01*
G04 #@! TO.C,C2*
X100333333Y-122857142D02*
X100285714Y-122904761D01*
X100142857Y-122952380D01*
X100047619Y-122952380D01*
X99904761Y-122904761D01*
X99809523Y-122809523D01*
X99761904Y-122714285D01*
X99714285Y-122523809D01*
X99714285Y-122380952D01*
X99761904Y-122190476D01*
X99809523Y-122095238D01*
X99904761Y-122000000D01*
X100047619Y-121952380D01*
X100142857Y-121952380D01*
X100285714Y-122000000D01*
X100333333Y-122047619D01*
X100714285Y-122047619D02*
X100761904Y-122000000D01*
X100857142Y-121952380D01*
X101095238Y-121952380D01*
X101190476Y-122000000D01*
X101238095Y-122047619D01*
X101285714Y-122142857D01*
X101285714Y-122238095D01*
X101238095Y-122380952D01*
X100666666Y-122952380D01*
X101285714Y-122952380D01*
G04 #@! TO.C,U2*
X102738095Y-111952380D02*
X102738095Y-112761904D01*
X102785714Y-112857142D01*
X102833333Y-112904761D01*
X102928571Y-112952380D01*
X103119047Y-112952380D01*
X103214285Y-112904761D01*
X103261904Y-112857142D01*
X103309523Y-112761904D01*
X103309523Y-111952380D01*
X103738095Y-112047619D02*
X103785714Y-112000000D01*
X103880952Y-111952380D01*
X104119047Y-111952380D01*
X104214285Y-112000000D01*
X104261904Y-112047619D01*
X104309523Y-112142857D01*
X104309523Y-112238095D01*
X104261904Y-112380952D01*
X103690476Y-112952380D01*
X104309523Y-112952380D01*
G04 #@! TO.C,C6*
X100833333Y-118357142D02*
X100785714Y-118404761D01*
X100642857Y-118452380D01*
X100547619Y-118452380D01*
X100404761Y-118404761D01*
X100309523Y-118309523D01*
X100261904Y-118214285D01*
X100214285Y-118023809D01*
X100214285Y-117880952D01*
X100261904Y-117690476D01*
X100309523Y-117595238D01*
X100404761Y-117500000D01*
X100547619Y-117452380D01*
X100642857Y-117452380D01*
X100785714Y-117500000D01*
X100833333Y-117547619D01*
X101690476Y-117452380D02*
X101500000Y-117452380D01*
X101404761Y-117500000D01*
X101357142Y-117547619D01*
X101261904Y-117690476D01*
X101214285Y-117880952D01*
X101214285Y-118261904D01*
X101261904Y-118357142D01*
X101309523Y-118404761D01*
X101404761Y-118452380D01*
X101595238Y-118452380D01*
X101690476Y-118404761D01*
X101738095Y-118357142D01*
X101785714Y-118261904D01*
X101785714Y-118023809D01*
X101738095Y-117928571D01*
X101690476Y-117880952D01*
X101595238Y-117833333D01*
X101404761Y-117833333D01*
X101309523Y-117880952D01*
X101261904Y-117928571D01*
X101214285Y-118023809D01*
G04 #@! TO.C,D5*
X97061904Y-101902380D02*
X97061904Y-100902380D01*
X97300000Y-100902380D01*
X97442857Y-100950000D01*
X97538095Y-101045238D01*
X97585714Y-101140476D01*
X97633333Y-101330952D01*
X97633333Y-101473809D01*
X97585714Y-101664285D01*
X97538095Y-101759523D01*
X97442857Y-101854761D01*
X97300000Y-101902380D01*
X97061904Y-101902380D01*
X98538095Y-100902380D02*
X98061904Y-100902380D01*
X98014285Y-101378571D01*
X98061904Y-101330952D01*
X98157142Y-101283333D01*
X98395238Y-101283333D01*
X98490476Y-101330952D01*
X98538095Y-101378571D01*
X98585714Y-101473809D01*
X98585714Y-101711904D01*
X98538095Y-101807142D01*
X98490476Y-101854761D01*
X98395238Y-101902380D01*
X98157142Y-101902380D01*
X98061904Y-101854761D01*
X98014285Y-101807142D01*
G04 #@! TO.C,POT1*
X95412380Y-116642857D02*
X94412380Y-116642857D01*
X94412380Y-116261904D01*
X94460000Y-116166666D01*
X94507619Y-116119047D01*
X94602857Y-116071428D01*
X94745714Y-116071428D01*
X94840952Y-116119047D01*
X94888571Y-116166666D01*
X94936190Y-116261904D01*
X94936190Y-116642857D01*
X94412380Y-115452380D02*
X94412380Y-115261904D01*
X94460000Y-115166666D01*
X94555238Y-115071428D01*
X94745714Y-115023809D01*
X95079047Y-115023809D01*
X95269523Y-115071428D01*
X95364761Y-115166666D01*
X95412380Y-115261904D01*
X95412380Y-115452380D01*
X95364761Y-115547619D01*
X95269523Y-115642857D01*
X95079047Y-115690476D01*
X94745714Y-115690476D01*
X94555238Y-115642857D01*
X94460000Y-115547619D01*
X94412380Y-115452380D01*
X94412380Y-114738095D02*
X94412380Y-114166666D01*
X95412380Y-114452380D02*
X94412380Y-114452380D01*
X95412380Y-113309523D02*
X95412380Y-113880952D01*
X95412380Y-113595238D02*
X94412380Y-113595238D01*
X94555238Y-113690476D01*
X94650476Y-113785714D01*
X94698095Y-113880952D01*
G04 #@! TD*
M02*
